<?xml version="1.0" encoding="utf-8" standalone="yes"?>
<!DOCTYPE svg PUBLIC "-//W3C//DTD SVG 1.1//EN" "http://www.w3.org/Graphics/SVG/1.1/DTD/svg11.dtd">
<svg width="744" height="481" viewBox="0 0 744 481" style="fill:none;stroke:none;fill-rule:evenodd;clip-rule:evenodd;stroke-linecap:round;stroke-linejoin:round;stroke-miterlimit:1.5;" version="1.1" xmlns="http://www.w3.org/2000/svg" xmlns:xlink="http://www.w3.org/1999/xlink"><style id="fontImports">@import url("https://fonts.googleapis.com/css2?family=Roboto:wght@400;700&amp;display=block");</style><rect id="" x="0" y="0" width="744" height="481" style="fill: #ffffff;"></rect><g id="items" style="isolation: isolate"><g id="blend" style="mix-blend-mode:normal"><g id="g-root--1.cu_sy_1ur5dgl1qgplor-fill" data-item-order="999852548" data-item-id="-1.cu_sy_1ur5dgl1qgplor" data-item-class="Part Fill Stroke ColorFillGray ColorStrokeGray" data-item-index="-1" data-renderer-id="0" transform="translate(314, 74)"><g id="-1.cu_sy_1ur5dgl1qgplor-fill" stroke="none" fill="#f6f6f6"><g><path d="M 65.766602 394C 80.754802 394 106.000002 308.039 106.000002 202C 106.000002 95.9613 80.754802 10 65.766602 10C 80.775202 10.01 92.941702 96.2224 92.941702 202C 92.941702 307.778 80.775202 393.99 65.766602 394ZM 65.765897 394C 80.774597 393.99 92.941097 307.778 92.941097 202C 92.941097 96.2224 80.774597 10.01 65.765897 10L 51.957397 10C 66.060697 16.8878 77.199297 100.4719 77.199297 202C 77.199297 303.528 65.382597 387.112 51.279297 394L 65.765897 394ZM 77.2 202C 77.2 303.528 65.3833 387.112 51.28 394L 50.0615 394C 35.0734 394 10 308.039 10 202C 10 95.9613 35.0734 10 50.0615 10C 50.6991 10 51.9581 10 51.9581 10C 66.0614 16.8878 77.2 100.4719 77.2 202Z"></path></g></g></g><g id="g-root-0.cr-medium_cr_1ur5dgl1qgplos-fill" data-item-order="999852550" data-item-id="0.cr-medium_cr_1ur5dgl1qgplos" data-item-class="Shape Stroke Fill Part Indexed_0" data-item-index="0" data-renderer-id="0" transform="translate(482, 230)"><g id="0.cr-medium_cr_1ur5dgl1qgplos-fill" stroke="none" fill="#f0f0f0"><g><path d="M 10 46C 10 65.882251 26.117749 82 46 82C 65.882251 82 82 65.882251 82 46C 82 26.117749 65.882251 10 46 10C 26.117749 10 10 26.117749 10 46"></path></g></g></g><g id="g-root-4.line_sy_1czvcyt1qgpo23-fill" data-item-order="999852553" data-item-id="4.line_sy_1czvcyt1qgpo23" data-item-class="Curve Stroke Part Indexed" data-item-index="4" data-renderer-id="0" transform="translate(230, 300.99951171875)"></g><g id="g-root-4.cr-small_cr_1czvcyt1qgpo24-fill" data-item-order="999852554" data-item-id="4.cr-small_cr_1czvcyt1qgpo24" data-item-class="Shape Stroke Fill Part Indexed" data-item-index="4" data-renderer-id="0" transform="translate(170, 362.99951171875)"><g id="4.cr-small_cr_1czvcyt1qgpo24-fill" stroke="none" fill="#fef2e6"><g><path d="M 10 40C 10.000002 56.568544 23.431459 70.000002 40.000002 70.000002C 56.568544 70.000002 70.000002 56.568544 70.000002 40.000002C 70.000002 23.431459 56.568544 10.000002 40.000002 10.000002C 23.431459 10.000002 10.000002 23.431459 10.000002 40.000002"></path></g></g></g><g id="g-root-3.line_sy_1lvid7p1qgpn9d-fill" data-item-order="999852557" data-item-id="3.line_sy_1lvid7p1qgpn9d" data-item-class="Curve Stroke Part Indexed" data-item-index="3" data-renderer-id="0" transform="translate(230.10940551757812, 277.99951171875)"></g><g id="g-root-3.cr-small_cr_1lvid7p1qgpn9e-fill" data-item-order="999852558" data-item-id="3.cr-small_cr_1lvid7p1qgpn9e" data-item-class="Shape Stroke Fill Part Indexed" data-item-index="3" data-renderer-id="0" transform="translate(170, 278.99951171875)"><g id="3.cr-small_cr_1lvid7p1qgpn9e-fill" stroke="none" fill="#fffce6"><g><path d="M 10 40C 10.000002 56.568544 23.431459 70.000002 40.000002 70.000002C 56.568544 70.000002 70.000002 56.568544 70.000002 40.000002C 70.000002 23.431459 56.568544 10.000002 40.000002 10.000002C 23.431459 10.000002 10.000002 23.431459 10.000002 40.000002"></path></g></g></g><g id="g-root-2.line_sy_1hfov391qgpn9r-fill" data-item-order="999852561" data-item-id="2.line_sy_1hfov391qgpn9r" data-item-class="Curve Stroke Part Indexed" data-item-index="2" data-renderer-id="0" transform="translate(230, 224)"></g><g id="g-root-2.cr-small_cr_1lvid7p1qgpn9c-fill" data-item-order="999852562" data-item-id="2.cr-small_cr_1lvid7p1qgpn9c" data-item-class="Shape Stroke Fill Part Indexed" data-item-index="2" data-renderer-id="0" transform="translate(170, 195)"><g id="2.cr-small_cr_1lvid7p1qgpn9c-fill" stroke="none" fill="#f5fbe9"><g><path d="M 10 40C 10.000002 56.568544 23.431459 70.000002 40.000002 70.000002C 56.568544 70.000002 70.000002 56.568544 70.000002 40.000002C 70.000002 23.431459 56.568544 10.000002 40.000002 10.000002C 23.431459 10.000002 10.000002 23.431459 10.000002 40.000002"></path></g></g></g><g id="g-root-1.line_sy_1qbbvc51qgpmh1-fill" data-item-order="999852565" data-item-id="1.line_sy_1qbbvc51qgpmh1" data-item-class="Curve Stroke Part Indexed Indexed_1" data-item-index="1" data-renderer-id="0" transform="translate(230, 140)"></g><g id="g-root-1.cr-small_cr_1qbbvc51qgpmh2-fill" data-item-order="999852566" data-item-id="1.cr-small_cr_1qbbvc51qgpmh2" data-item-class="Shape Stroke Fill Part Indexed Indexed_1" data-item-index="1" data-renderer-id="0" transform="translate(170, 111)"><g id="1.cr-small_cr_1qbbvc51qgpmh2-fill" stroke="none" fill="#e9fbf3"><g><path d="M 10 40C 10.000002 56.568544 23.431459 70.000002 40.000002 70.000002C 56.568544 70.000002 70.000002 56.568544 70.000002 40.000002C 70.000002 23.431459 56.568544 10.000002 40.000002 10.000002C 23.431459 10.000002 10.000002 23.431459 10.000002 40.000002"></path></g></g></g><g id="g-root-tx_atteindr_4l1un91qgpo8y-fill" data-item-order="1000000000" data-item-id="tx_atteindr_4l1un91qgpo8y" data-item-class="Label Stroke Title" data-item-index="none" data-renderer-id="0" transform="translate(230, 2)"><g id="tx_atteindr_4l1un91qgpo8y-fill" stroke="none" fill="#484848"><g><text style="font: 20px Roboto, sans-serif; white-space: pre;" font-weight="20px" font-size="Roboto," font-family="sans-serif"><tspan x="12.71" y="33.75" dominant-baseline="ideographic">Atteindre l'efficacité logicielle</tspan></text></g></g></g><g id="g-root-tx_organisa_4l1un91qgpo8x-fill" data-item-order="1000000000" data-item-id="tx_organisa_4l1un91qgpo8x" data-item-class="Label Stroke Indexed Indexed_1" data-item-index="1" data-renderer-id="0" transform="translate(2, 116)"><g id="tx_organisa_4l1un91qgpo8x-fill" stroke="none" fill="#484848"><g><text style="font: 20px Roboto, sans-serif; white-space: pre;" font-weight="20px" font-size="Roboto," font-family="sans-serif"><tspan x="23.39" y="33.75" dominant-baseline="ideographic">Organisation du </tspan><tspan x="120.25" y="57.75" dominant-baseline="ideographic">code</tspan></text></g></g></g><g id="g-root-2_v3ljs51qgwnik-fill" data-item-order="1000000000" data-item-id="2_v3ljs51qgwnik" data-item-class="Icon Stroke Indexed Indexed_1 InsideFill InsideColorFill" data-item-index="1" data-renderer-id="0" transform="translate(182, 122)"></g><g id="g-root-tx_facilita_90vcrp1qgpngo-fill" data-item-order="1000000000" data-item-id="tx_facilita_90vcrp1qgpngo" data-item-class="Label Stroke Indexed" data-item-index="2" data-renderer-id="0" transform="translate(14, 200)"><g id="tx_facilita_90vcrp1qgpngo-fill" stroke="none" fill="#484848"><g><text style="font: 20px Roboto, sans-serif; white-space: pre;" font-weight="20px" font-size="Roboto," font-family="sans-serif"><tspan x="16.98" y="33.75" dominant-baseline="ideographic">Facilitation des </tspan><tspan x="30.77" y="57.75" dominant-baseline="ideographic">changements</tspan></text></g></g></g><g id="g-root-bus_v3ljs51qgwnil-fill" data-item-order="1000000000" data-item-id="bus_v3ljs51qgwnil" data-item-class="Icon Stroke Indexed InsideFill InsideColorFill" data-item-index="2" data-renderer-id="0" transform="translate(182, 206)"></g><g id="g-root-2_qun9lx1qgtv5u-fill" data-item-order="1000000000" data-item-id="2_qun9lx1qgtv5u" data-item-class="Icon Stroke InsideFill" data-item-index="none" data-renderer-id="0" transform="translate(494, 241.99951171875)"></g><g id="g-root-tx_dveloppe_qriw6d1qgpo99-fill" data-item-order="1000000000" data-item-id="tx_dveloppe_qriw6d1qgpo99" data-item-class="Label Stroke" data-item-index="none" data-renderer-id="0" transform="translate(566, 241.99951171875)"><g id="tx_dveloppe_qriw6d1qgpo99-fill" stroke="none" fill="#484848"><g><text style="font: 20px Roboto, sans-serif; white-space: pre;" font-weight="20px" font-size="Roboto," font-family="sans-serif"><tspan x="12" y="33.75" dominant-baseline="ideographic">Développement </tspan><tspan x="12" y="57.75" dominant-baseline="ideographic">logiciel efficace</tspan></text></g></g></g><g id="g-root-tx_rutilisa_dgouw51qgpmof-fill" data-item-order="1000000000" data-item-id="tx_rutilisa_dgouw51qgpmof" data-item-class="Label Stroke Indexed" data-item-index="3" data-renderer-id="0" transform="translate(2, 283.99951171875)"><g id="tx_rutilisa_dgouw51qgpmof-fill" stroke="none" fill="#484848"><g><text style="font: 20px Roboto, sans-serif; white-space: pre;" font-weight="20px" font-size="Roboto," font-family="sans-serif"><tspan x="16.81" y="33.75" dominant-baseline="ideographic">Réutilisation des </tspan><tspan x="52.89" y="57.75" dominant-baseline="ideographic">composants</tspan></text></g></g></g><g id="g-root-1_13z8k111qgwmpv-fill" data-item-order="1000000000" data-item-id="1_13z8k111qgwmpv" data-item-class="Icon Stroke Indexed InsideFill InsideColorFill" data-item-index="3" data-renderer-id="0" transform="translate(182, 289.99951171875)"></g><g id="g-root-tx_testsind_mcbv511qgplvq-fill" data-item-order="1000000000" data-item-id="tx_testsind_mcbv511qgplvq" data-item-class="Label Stroke Indexed" data-item-index="4" data-renderer-id="0" transform="translate(26, 367.99951171875)"><g id="tx_testsind_mcbv511qgplvq-fill" stroke="none" fill="#484848"><g><text style="font: 20px Roboto, sans-serif; white-space: pre;" font-weight="20px" font-size="Roboto," font-family="sans-serif"><tspan x="91.27" y="33.75" dominant-baseline="ideographic">Tests </tspan><tspan x="19.34" y="57.75" dominant-baseline="ideographic">indépendants</tspan></text></g></g></g><g id="g-root-chem_140hi791qgwowb-fill" data-item-order="1000000000" data-item-id="chem_140hi791qgwowb" data-item-class="Icon Stroke Indexed InsideFill InsideColorFill" data-item-index="4" data-renderer-id="0" transform="translate(182, 373.99951171875)"></g><g id="g-root--1.cu_sy_1ur5dgl1qgplor-stroke" data-item-order="999852548" data-item-id="-1.cu_sy_1ur5dgl1qgplor" data-item-class="Part Fill Stroke ColorFillGray ColorStrokeGray" data-item-index="-1" data-renderer-id="0" transform="translate(314, 74)"><g id="-1.cu_sy_1ur5dgl1qgplor-stroke" fill="none" stroke-linecap="round" stroke-linejoin="round" stroke-miterlimit="4" stroke="#888888" stroke-width="2"><g><path d="M 65.766602 394C 80.754802 394 106.000002 308.0387 106.000002 202C 106.000002 95.9613 80.754802 10 65.766602 10C 80.775202 10.01 92.941702 96.2224 92.941702 202C 92.941702 307.7776 80.775202 393.99 65.766602 394ZM 65.765897 394C 80.774597 393.99 92.941097 307.7776 92.941097 202C 92.941097 96.2224 80.774597 10.01 65.765897 10L 51.957397 10C 66.060697 16.8878 77.199297 100.4719 77.199297 202C 77.199297 303.5282 65.382597 387.1122 51.279297 394L 65.765897 394ZM 77.2 202C 77.2 303.5282 65.3833 387.1122 51.28 394L 50.0615 394C 35.0734 394 10 308.0387 10 202C 10 95.9613 35.0734 10 50.0615 10C 50.6991 10 51.9581 10 51.9581 10C 66.0614 16.8878 77.2 100.4719 77.2 202Z"></path></g></g></g><g id="g-root-0.cr-medium_cr_1ur5dgl1qgplos-stroke" data-item-order="999852550" data-item-id="0.cr-medium_cr_1ur5dgl1qgplos" data-item-class="Shape Stroke Fill Part Indexed_0" data-item-index="0" data-renderer-id="0" transform="translate(482, 230)"><g id="0.cr-medium_cr_1ur5dgl1qgplos-stroke" fill="none" stroke-linecap="round" stroke-linejoin="round" stroke-miterlimit="4" stroke="#484848" stroke-width="2"><g><path d="M 10 46C 10 65.882251 26.117749 82 46 82C 65.882251 82 82 65.882251 82 46C 82 26.117749 65.882251 10 46 10C 26.117749 10 10 26.117749 10 46"></path></g></g></g><g id="g-root-4.line_sy_1czvcyt1qgpo23-stroke" data-item-order="999852553" data-item-id="4.line_sy_1czvcyt1qgpo23" data-item-class="Curve Stroke Part Indexed" data-item-index="4" data-renderer-id="0" transform="translate(230, 300.99951171875)"><g id="4.line_sy_1czvcyt1qgpo23-stroke" fill="none" stroke-linecap="round" stroke-linejoin="round" stroke-miterlimit="4" stroke="#dd8433" stroke-width="2"><g><path d="M 260.35 11.140488L 130 101.000488L 10 101.000488"></path><path d="M 259.1 19.900488L 260.8 10.900488L 251.7 9.200488" stroke-dasharray="none"></path></g></g></g><g id="g-root-4.cr-small_cr_1czvcyt1qgpo24-stroke" data-item-order="999852554" data-item-id="4.cr-small_cr_1czvcyt1qgpo24" data-item-class="Shape Stroke Fill Part Indexed" data-item-index="4" data-renderer-id="0" transform="translate(170, 362.99951171875)"><g id="4.cr-small_cr_1czvcyt1qgpo24-stroke" fill="none" stroke-linecap="round" stroke-linejoin="round" stroke-miterlimit="4" stroke="#dd8433" stroke-width="2"><g><path d="M 10 40C 10.000002 56.568544 23.431459 70.000002 40.000002 70.000002C 56.568544 70.000002 70.000002 56.568544 70.000002 40.000002C 70.000002 23.431459 56.568544 10.000002 40.000002 10.000002C 23.431459 10.000002 10.000002 23.431459 10.000002 40.000002"></path></g></g></g><g id="g-root-3.line_sy_1lvid7p1qgpn9d-stroke" data-item-order="999852557" data-item-id="3.line_sy_1lvid7p1qgpn9d" data-item-class="Curve Stroke Part Indexed" data-item-index="3" data-renderer-id="0" transform="translate(230.10940551757812, 277.99951171875)"><g id="3.line_sy_1lvid7p1qgpn9d-stroke" fill="none" stroke-linecap="round" stroke-linejoin="round" stroke-miterlimit="4" stroke="#e3cd09" stroke-width="2"><g><path d="M 249.950594 10.480488L 129.890594 40.000488L 10.000594 40.000488"></path><path d="M 245.690594 18.200488L 250.390594 10.400488L 242.590594 5.600488" stroke-dasharray="none"></path></g></g></g><g id="g-root-3.cr-small_cr_1lvid7p1qgpn9e-stroke" data-item-order="999852558" data-item-id="3.cr-small_cr_1lvid7p1qgpn9e" data-item-class="Shape Stroke Fill Part Indexed" data-item-index="3" data-renderer-id="0" transform="translate(170, 278.99951171875)"><g id="3.cr-small_cr_1lvid7p1qgpn9e-stroke" fill="none" stroke-linecap="round" stroke-linejoin="round" stroke-miterlimit="4" stroke="#e3cd09" stroke-width="2"><g><path d="M 10 40C 10.000002 56.568544 23.431459 70.000002 40.000002 70.000002C 56.568544 70.000002 70.000002 56.568544 70.000002 40.000002C 70.000002 23.431459 56.568544 10.000002 40.000002 10.000002C 23.431459 10.000002 10.000002 23.431459 10.000002 40.000002"></path></g></g></g><g id="g-root-2.line_sy_1hfov391qgpn9r-stroke" data-item-order="999852561" data-item-id="2.line_sy_1hfov391qgpn9r" data-item-class="Curve Stroke Part Indexed" data-item-index="2" data-renderer-id="0" transform="translate(230, 224)"><g id="2.line_sy_1hfov391qgpn9r-stroke" fill="none" stroke-linecap="round" stroke-linejoin="round" stroke-miterlimit="4" stroke="#93c131" stroke-width="2"><g><path d="M 250.06 39.52L 130 10L 10 10"></path><path d="M 242.7 44.4L 250.5 39.6L 245.8 31.8" stroke-dasharray="none"></path></g></g></g><g id="g-root-2.cr-small_cr_1lvid7p1qgpn9c-stroke" data-item-order="999852562" data-item-id="2.cr-small_cr_1lvid7p1qgpn9c" data-item-class="Shape Stroke Fill Part Indexed" data-item-index="2" data-renderer-id="0" transform="translate(170, 195)"><g id="2.cr-small_cr_1lvid7p1qgpn9c-stroke" fill="none" stroke-linecap="round" stroke-linejoin="round" stroke-miterlimit="4" stroke="#93c131" stroke-width="2"><g><path d="M 10 40C 10.000002 56.568544 23.431459 70.000002 40.000002 70.000002C 56.568544 70.000002 70.000002 56.568544 70.000002 40.000002C 70.000002 23.431459 56.568544 10.000002 40.000002 10.000002C 23.431459 10.000002 10.000002 23.431459 10.000002 40.000002"></path></g></g></g><g id="g-root-1.line_sy_1qbbvc51qgpmh1-stroke" data-item-order="999852565" data-item-id="1.line_sy_1qbbvc51qgpmh1" data-item-class="Curve Stroke Part Indexed Indexed_1" data-item-index="1" data-renderer-id="0" transform="translate(230, 140)"><g id="1.line_sy_1qbbvc51qgpmh1-stroke" fill="none" stroke-linecap="round" stroke-linejoin="round" stroke-miterlimit="4" stroke="#3bc482" stroke-width="2"><g><path d="M 260.35 99.86L 130 10L 10 10"></path><path d="M 251.7 101.8L 260.8 100.1L 259.1 91.1" stroke-dasharray="none"></path></g></g></g><g id="g-root-1.cr-small_cr_1qbbvc51qgpmh2-stroke" data-item-order="999852566" data-item-id="1.cr-small_cr_1qbbvc51qgpmh2" data-item-class="Shape Stroke Fill Part Indexed Indexed_1" data-item-index="1" data-renderer-id="0" transform="translate(170, 111)"><g id="1.cr-small_cr_1qbbvc51qgpmh2-stroke" fill="none" stroke-linecap="round" stroke-linejoin="round" stroke-miterlimit="4" stroke="#3bc482" stroke-width="2"><g><path d="M 10 40C 10.000002 56.568544 23.431459 70.000002 40.000002 70.000002C 56.568544 70.000002 70.000002 56.568544 70.000002 40.000002C 70.000002 23.431459 56.568544 10.000002 40.000002 10.000002C 23.431459 10.000002 10.000002 23.431459 10.000002 40.000002"></path></g></g></g><g id="g-root-tx_atteindr_4l1un91qgpo8y-stroke" data-item-order="1000000000" data-item-id="tx_atteindr_4l1un91qgpo8y" data-item-class="Label Stroke Title" data-item-index="none" data-renderer-id="0" transform="translate(230, 2)"></g><g id="g-root-tx_organisa_4l1un91qgpo8x-stroke" data-item-order="1000000000" data-item-id="tx_organisa_4l1un91qgpo8x" data-item-class="Label Stroke Indexed Indexed_1" data-item-index="1" data-renderer-id="0" transform="translate(2, 116)"></g><g id="g-root-2_v3ljs51qgwnik-stroke" data-item-order="1000000000" data-item-id="2_v3ljs51qgwnik" data-item-class="Icon Stroke Indexed Indexed_1 InsideFill InsideColorFill" data-item-index="1" data-renderer-id="0" transform="translate(182, 122)"><g id="2_v3ljs51qgwnik-stroke" fill="none" stroke-linecap="round" stroke-linejoin="round" stroke-miterlimit="4" stroke="#3bc482" stroke-width="2"><g><path d="M 45.25 39.25C 45.25 40.906857 43.906857 42.25 42.25 42.25L 13.75 42.25C 12.093145 42.25 10.75 40.906857 10.75 39.25L 10.75 37.75L 45.25 37.75ZM 13.75 42.25L 13.75 45.25M 42.25 42.25L 42.25 45.25M 28 37.75L 20.5 37.75L 20.5 12.25C 20.5 11.421573 21.171574 10.75 22 10.75L 26.5 10.75C 27.328428 10.75 28 11.421573 28 12.25ZM 35.716 37.75L 32.734001 13.141C 32.634357 12.318837 33.219879 11.571491 34.042 11.4715L 38.509003 10.93C 39.33168 10.830395 40.079266 11.416773 40.178497 12.2395L 43.27 37.75M 32.5 37.75L 28 37.75L 28 15.25L 31 15.25C 31.828428 15.25 32.5 15.921573 32.5 16.75ZM 20.5 37.75L 13 37.75L 13 12.25C 13 11.421573 13.671573 10.75 14.5 10.75L 19 10.75C 19.828426 10.75 20.5 11.421573 20.5 12.25ZM 23.5 33.25L 25 33.25M 16 33.25L 17.5 33.25M 16.75 15.25L 16.75 28.75M 24.25 15.25L 24.25 28.75M 37 30.25C 37 31.078428 37.671574 31.75 38.5 31.75C 39.328426 31.75 40 31.078428 40 30.25C 40 29.421572 39.328426 28.75 38.5 28.75C 37.671574 28.75 37 29.421572 37 30.25Z"></path></g></g></g><g id="g-root-tx_facilita_90vcrp1qgpngo-stroke" data-item-order="1000000000" data-item-id="tx_facilita_90vcrp1qgpngo" data-item-class="Label Stroke Indexed" data-item-index="2" data-renderer-id="0" transform="translate(14, 200)"></g><g id="g-root-bus_v3ljs51qgwnil-stroke" data-item-order="1000000000" data-item-id="bus_v3ljs51qgwnil" data-item-class="Icon Stroke Indexed InsideFill InsideColorFill" data-item-index="2" data-renderer-id="0" transform="translate(182, 206)"><g id="bus_v3ljs51qgwnil-stroke" fill="none" stroke-linecap="round" stroke-linejoin="round" stroke-miterlimit="4" stroke="#93c131" stroke-width="2"><g><path d="M 44.875 16L 38.125 16C 37.296574 16 36.625 16.671574 36.625 17.5L 36.625 37.75L 40.375 37.75M 18.625 37.75L 24.625 37.75M 29.125 37.75L 31.375 37.75L 31.375 17.5C 31.375 16.671574 30.703428 16 29.875 16L 12.625 16C 11.796573 16 11.125 16.671574 11.125 17.5L 11.125 36.25C 11.125 37.078426 11.796573 37.75 12.625 37.75L 14.125 37.75M 40.375 37.75C 40.375 38.992641 41.382362 40 42.625 40C 43.867641 40 44.875 38.992641 44.875 37.75C 44.875 36.507362 43.867641 35.5 42.625 35.5C 41.382362 35.5 40.375 36.507362 40.375 37.75M 24.625 37.75C 24.625 38.992641 25.63236 40 26.875 40C 28.117641 40 29.125 38.992641 29.125 37.75C 29.125 36.507362 28.117641 35.5 26.875 35.5C 25.63236 35.5 24.625 36.507362 24.625 37.75M 14.125 37.75C 14.125 38.992641 15.13236 40 16.375 40C 17.617641 40 18.625 38.992641 18.625 37.75C 18.625 36.507362 17.617641 35.5 16.375 35.5C 15.13236 35.5 14.125 36.507362 14.125 37.75M 31.375 17.5L 36.625 17.5L 36.625 37.75L 31.375 37.75ZM 11.125 31.75L 15.325 31.75C 16.153427 31.75 16.825001 31.078428 16.825001 30.25L 16.825001 20.5L 11.125 20.5M 16.820499 30.25L 23.5 28.75L 31.375 28.75L 31.375 20.5L 16.820499 20.5L 16.820499 30.25ZM 44.875 20.5L 36.625 20.5L 36.625 28.75L 44.875 28.75M 23.5 20.5L 23.5 28.75M 41.875 20.5L 41.875 28.75"></path></g></g></g><g id="g-root-2_qun9lx1qgtv5u-stroke" data-item-order="1000000000" data-item-id="2_qun9lx1qgtv5u" data-item-class="Icon Stroke InsideFill" data-item-index="none" data-renderer-id="0" transform="translate(494, 241.99951171875)"><g id="2_qun9lx1qgtv5u-stroke" fill="none" stroke-linecap="round" stroke-linejoin="round" stroke-miterlimit="4" stroke="#484848" stroke-width="2"><g><path d="M 27.48 49.34C 26.686321 48.020168 26.290478 46.499294 26.34 44.959999L 26.34 43.18C 26.470327 40.891842 25.323666 38.71946 23.360941 37.536095C 21.398216 36.352726 18.941782 36.352726 16.979057 37.536095C 15.016333 38.71946 13.869671 40.891842 14 43.179996L 14 44.959999C 14.049522 46.499294 13.653679 48.020168 12.86 49.34M 14 44.18C 16.366127 44.182392 18.615606 43.152599 20.16 41.360001C 21.715477 43.149189 23.9692 44.177586 26.34 44.18M 25.6 44.16C 25.425673 47.031101 23.046389 49.270302 20.17 49.270302C 17.293612 49.270302 14.914328 47.031101 14.74 44.16M 55.139999 49.34C 54.337681 48.023815 53.941154 46.500324 54 44.959999L 54 43.18C 54.130325 40.891842 52.983665 38.71946 51.020939 37.536095C 49.058216 36.352726 46.60178 36.352726 44.639053 37.536095C 42.676331 38.71946 41.529671 40.891842 41.659996 43.179996L 41.66 44.959999C 41.709522 46.499294 41.313679 48.020168 40.52 49.34M 41.66 44.18C 44.026127 44.182392 46.275608 43.152599 47.82 41.360001C 49.375477 43.149189 51.6292 44.177586 54 44.18M 53.259998 44.16C 53.08567 47.031101 50.70639 49.270302 47.829998 49.270302C 44.953609 49.270302 42.574326 47.031101 42.400002 44.16M 28.34 57C 26.769266 53.93441 23.614574 52.006111 20.170002 52.006111C 16.725428 52.006111 13.570736 53.93441 12 57.000004M 56 57C 54.429268 53.93441 51.274574 52.006111 47.830002 52.006111C 44.385429 52.006111 41.230736 53.93441 39.660004 57.000004M 49 28.98C 49 30.08457 48.104568 30.98 47 30.98L 39 30.98L 33 36.98L 33 30.98L 19 30.98C 17.895432 30.98 17 30.08457 17 28.98L 17 12.98C 17 11.87543 17.895432 10.98 19 10.98L 47 10.98C 48.104568 10.98 49 11.87543 49 12.98ZM 39 17L 43 21L 39 25M 27 17L 23 21L 27 25M 35 17L 31 25"></path></g></g></g><g id="g-root-tx_dveloppe_qriw6d1qgpo99-stroke" data-item-order="1000000000" data-item-id="tx_dveloppe_qriw6d1qgpo99" data-item-class="Label Stroke" data-item-index="none" data-renderer-id="0" transform="translate(566, 241.99951171875)"></g><g id="g-root-tx_rutilisa_dgouw51qgpmof-stroke" data-item-order="1000000000" data-item-id="tx_rutilisa_dgouw51qgpmof" data-item-class="Label Stroke Indexed" data-item-index="3" data-renderer-id="0" transform="translate(2, 283.99951171875)"></g><g id="g-root-1_13z8k111qgwmpv-stroke" data-item-order="1000000000" data-item-id="1_13z8k111qgwmpv" data-item-class="Icon Stroke Indexed InsideFill InsideColorFill" data-item-index="3" data-renderer-id="0" transform="translate(182, 289.99951171875)"><g id="1_13z8k111qgwmpv-stroke" fill="none" stroke-linecap="round" stroke-linejoin="round" stroke-miterlimit="4" stroke="#e3cd09" stroke-width="2"><g><path d="M 10.75 19L 45.25 19L 45.25 43L 10.75 43ZM 22.75 19L 22.75 16C 22.754124 14.344856 24.094858 13.004123 25.750002 13L 30.25 13C 31.905146 13.004123 33.24588 14.344856 33.25 16L 33.25 19M 35.149002 31.612C 34.975334 31.472202 34.872864 31.262388 34.869385 31.039474C 34.865906 30.816557 34.961781 30.603649 35.131001 30.4585L 36.040001 29.68C 36.175858 29.56382 36.348743 29.499985 36.5275 29.5L 38.477501 29.5C 38.761581 29.5 39.021275 29.339499 39.148319 29.085411C 39.275368 28.831322 39.247948 28.527264 39.077499 28.299999C 38.088493 26.976545 36.450119 26.306545 34.817162 26.557772C 33.184196 26.808996 31.822973 27.940472 31.2775 29.500002L 24.723999 29.5C 24.094749 27.705362 22.401758 26.502953 20.5 26.500002C 19.135368 26.547546 17.861774 27.196701 17.0215 28.273001C 16.836857 28.497036 16.798096 28.807512 16.921991 29.070066C 17.045887 29.332623 17.310181 29.50009 17.6005 29.5L 19.4725 29.5C 19.651258 29.499985 19.824142 29.56382 19.959999 29.68L 20.868999 30.4585C 21.038219 30.603649 21.134094 30.816557 21.130615 31.039474C 21.127136 31.262388 21.024666 31.472202 20.851 31.612L 19.951 32.3335C 19.819244 32.439911 19.655354 32.498592 19.486 32.5L 17.6005 32.5C 17.310181 32.499908 17.045887 32.667377 16.921991 32.929932C 16.798096 33.19249 16.836857 33.502964 17.0215 33.727001C 17.861774 34.803299 19.135368 35.452454 20.5 35.5C 22.401758 35.497051 24.094749 34.294643 24.724001 32.5L 31.276001 32.5C 31.820641 34.060307 33.181988 35.192608 34.815399 35.443905C 36.448814 35.695198 38.087551 35.024445 39.076 33.700001C 39.246445 33.472736 39.273865 33.168678 39.14682 32.914589C 39.019775 32.660503 38.760078 32.5 38.475998 32.5L 36.514 32.5C 36.343102 32.499611 36.17746 32.440872 36.044502 32.3335Z"></path></g></g></g><g id="g-root-tx_testsind_mcbv511qgplvq-stroke" data-item-order="1000000000" data-item-id="tx_testsind_mcbv511qgplvq" data-item-class="Label Stroke Indexed" data-item-index="4" data-renderer-id="0" transform="translate(26, 367.99951171875)"></g><g id="g-root-chem_140hi791qgwowb-stroke" data-item-order="1000000000" data-item-id="chem_140hi791qgwowb" data-item-class="Icon Stroke Indexed InsideFill InsideColorFill" data-item-index="4" data-renderer-id="0" transform="translate(182, 373.99951171875)"><g id="chem_140hi791qgwowb-stroke" fill="none" stroke-linecap="round" stroke-linejoin="round" stroke-miterlimit="4" stroke="#dd8433" stroke-width="2"><g><path d="M 10.75 16.75L 40.75 16.75M 14.875 13.375C 14.667893 13.375 14.5 13.542893 14.5 13.75C 14.5 13.957107 14.667893 14.125 14.875 14.125C 15.082107 14.125 15.25 13.957107 15.25 13.75C 15.25 13.542893 15.082107 13.375 14.875 13.375L 14.875 13.375M 18.625 13.375C 18.417892 13.375 18.25 13.542893 18.25 13.75C 18.25 13.957107 18.417892 14.125 18.625 14.125C 18.832108 14.125 19 13.957107 19 13.75C 19 13.542893 18.832108 13.375 18.625 13.375L 18.625 13.375M 22.375 13.375C 22.167892 13.375 22 13.542893 22 13.75C 22 13.957107 22.167892 14.125 22.375 14.125C 22.582108 14.125 22.75 13.957107 22.75 13.75C 22.75 13.542893 22.582108 13.375 22.375 13.375L 22.375 13.375M 25 33.25L 13.75 33.25C 12.093145 33.25 10.75 31.906855 10.75 30.25L 10.75 13.75C 10.75 12.093145 12.093145 10.75 13.75 10.75L 37.75 10.75C 39.406857 10.75 40.75 12.093145 40.75 13.75L 40.75 25.75M 36.25 23.5L 36.25 26.5M 37.75 25L 34.75 25M 31 28.75L 31 31.75M 32.5 30.25L 29.5 30.25M 34.314999 40C 35.5 37.75 37 35.5 37 35.5L 37 30.25C 37 29.835787 37.335785 29.5 37.75 29.5L 40 29.5C 40.414215 29.5 40.75 29.835787 40.75 30.25L 40.75 35.5C 40.75 35.635002 45.055 43 45.055 43C 45.322155 43.462704 45.323021 44.032589 45.057274 44.496101C 44.791523 44.959618 44.299282 45.246788 43.764999 45.25L 34.360001 45.25M 34.314999 40L 43.300003 40M 28 43.375C 28 44.410538 28.839466 45.25 29.875 45.25C 30.910534 45.25 31.75 44.410538 31.75 43.375L 31.75 35.5L 28 35.5Z"></path></g></g></g></g></g></svg>