<?xml version="1.0" encoding="utf-8" standalone="yes"?>
<!DOCTYPE svg PUBLIC "-//W3C//DTD SVG 1.1//EN" "http://www.w3.org/Graphics/SVG/1.1/DTD/svg11.dtd">
<svg width="902" height="301" viewBox="0 0 902 301" style="fill:none;stroke:none;fill-rule:evenodd;clip-rule:evenodd;stroke-linecap:round;stroke-linejoin:round;stroke-miterlimit:1.5;" version="1.1" xmlns="http://www.w3.org/2000/svg" xmlns:xlink="http://www.w3.org/1999/xlink"><style id="fontImports">@import url("https://fonts.googleapis.com/css2?family=Roboto:wght@400;700&amp;display=block");</style><rect id="" x="0" y="0" width="902" height="301" style="fill: #ffffff;"></rect><g id="items" style="isolation: isolate"><g id="blend" style="mix-blend-mode:normal"><g id="g-root-ro_1cvi4md1qh6h3e-fill" data-item-order="999970768" data-item-id="ro_1cvi4md1qh6h3e" data-item-class="Shape Stroke Fill" data-item-index="none" data-renderer-id="0" transform="translate(363, 54)"><g id="ro_1cvi4md1qh6h3e-fill" stroke="none" fill="#f0f0f0"><g><path d="M 34 10L 154 10C 154 10 178 10 178 34L 178 160C 178 160 178 184 154 184L 34 184C 34 184 10 184 10 160L 10 34C 10 34 10 10 34 10"></path></g></g></g><g id="g-root-ro_1hd755x1qgwn4f-fill" data-item-order="999983152" data-item-id="ro_1hd755x1qgwn4f" data-item-class="Shape Stroke Fill" data-item-index="none" data-renderer-id="0" transform="translate(3, 153)"><g id="ro_1hd755x1qgwn4f-fill" stroke="none" fill="#fef2e6"><g><path d="M 22 10L 310 10C 310 10 322 10 322 22L 322 52C 322 52 322 64 310 64L 22 64C 22 64 10 64 10 52L 10 22C 10 22 10 10 22 10"></path></g></g></g><g id="g-root-ro_qoep5x1qgr0g5-fill" data-item-order="999983800" data-item-id="ro_qoep5x1qgr0g5" data-item-class="Shape Stroke Fill" data-item-index="none" data-renderer-id="0" transform="translate(579, 153)"><g id="ro_qoep5x1qgr0g5-fill" stroke="none" fill="#fffce6"><g><path d="M 22 10L 298 10C 298 10 310 10 310 22L 310 52C 310 52 310 64 298 64L 22 64C 22 64 10 64 10 52L 10 22C 10 22 10 10 22 10"></path></g></g></g><g id="g-root-ro_90923p1qgturl-fill" data-item-order="999987688" data-item-id="ro_90923p1qgturl" data-item-class="Shape Stroke Fill" data-item-index="none" data-renderer-id="0" transform="translate(87, 3)"><g id="ro_90923p1qgturl-fill" stroke="none" fill="#e6efff"><g><path d="M 22 10L 226 10C 226 10 238 10 238 22L 238 52C 238 52 238 64 226 64L 22 64C 22 64 10 64 10 52L 10 22C 10 22 10 10 22 10"></path></g></g></g><g id="g-root-ro_1unepd11qgpmvj-fill" data-item-order="999987688" data-item-id="ro_1unepd11qgpmvj" data-item-class="Shape Stroke Fill" data-item-index="none" data-renderer-id="0" transform="translate(579, 3)"><g id="ro_1unepd11qgpmvj-fill" stroke="none" fill="#e9fbf3"><g><path d="M 22 10L 226 10C 226 10 238 10 238 22L 238 52C 238 52 238 64 226 64L 22 64C 22 64 10 64 10 52L 10 22C 10 22 10 10 22 10"></path></g></g></g><g id="g-root-cu_1cxdn1h1qgwnwr-fill" data-item-order="1000000000" data-item-id="cu_1cxdn1h1qgwnwr" data-item-class="Curve Stroke ColorStrokeGray" data-item-index="none" data-renderer-id="0" transform="translate(531, 30)"></g><g id="g-root-tx_transiti_hsrox11qgpnut-fill" data-item-order="1000000000" data-item-id="tx_transiti_hsrox11qgpnut" data-item-class="Label Stroke" data-item-index="none" data-renderer-id="0" transform="translate(627, 18)"><g id="tx_transiti_hsrox11qgpnut-fill" stroke="none" fill="#3bc482"><g><text style="font: 20px Roboto, sans-serif; white-space: pre;" font-weight="20px" font-size="Roboto," font-family="sans-serif"><tspan x="12.41" y="33.75" dominant-baseline="ideographic">Transitions fluides</tspan></text></g></g></g><g id="g-root-cu_1lt0nad1qgwn40-fill" data-item-order="1000000000" data-item-id="cu_1lt0nad1qgwn40" data-item-class="Curve Stroke ColorStrokeGray" data-item-index="none" data-renderer-id="0" transform="translate(315, 30)"></g><g id="g-root-tx_performa_14145ph1qgsef8-fill" data-item-order="1000000000" data-item-id="tx_performa_14145ph1qgsef8" data-item-class="Label Stroke" data-item-index="none" data-renderer-id="0" transform="translate(51, 69)"><g id="tx_performa_14145ph1qgsef8-fill" stroke="none" fill="#484848"><g><text style="font: 20px Roboto, sans-serif; white-space: pre;" font-weight="20px" font-size="Roboto," font-family="sans-serif"><tspan x="13.76" y="33.75" dominant-baseline="ideographic">Performance optimisée</tspan></text></g></g></g><g id="g-root-cu_18hk4x11qgwop8-fill" data-item-order="1000000000" data-item-id="cu_18hk4x11qgwop8" data-item-class="Curve Stroke ColorStrokeGray" data-item-index="none" data-renderer-id="0" transform="translate(273, 57)"></g><g id="g-root-cu_142d3vp1qgwmbr-fill" data-item-order="1000000000" data-item-id="cu_142d3vp1qgwmbr" data-item-class="Curve Stroke ColorStrokeGray" data-item-index="none" data-renderer-id="0" transform="translate(273, 57)"></g><g id="g-root-cu_142d3vp1qgwmbt-fill" data-item-order="1000000000" data-item-id="cu_142d3vp1qgwmbt" data-item-class="Curve Stroke ColorStrokeGray" data-item-index="none" data-renderer-id="0" transform="translate(603, 57)"></g><g id="g-root-cu_142d3vp1qgwmbw-fill" data-item-order="1000000000" data-item-id="cu_142d3vp1qgwmbw" data-item-class="Curve Stroke ColorStrokeGray" data-item-index="none" data-renderer-id="0" transform="translate(603, 57)"></g><g id="g-root-hand_1lr54v91qh6gap-fill" data-item-order="1000000000" data-item-id="hand_1lr54v91qh6gap" data-item-class="Icon Stroke" data-item-index="none" data-renderer-id="0" transform="translate(423, 78)"></g><g id="g-root-tx_clartdes_m9u57p1qgsgsh-fill" data-item-order="1000000000" data-item-id="tx_clartdes_m9u57p1qgsgsh" data-item-class="Label Stroke" data-item-index="none" data-renderer-id="0" transform="translate(627, 255)"><g id="tx_clartdes_m9u57p1qgsgsh-fill" stroke="none" fill="#484848"><g><text style="font: 20px Roboto, sans-serif; white-space: pre;" font-weight="20px" font-size="Roboto," font-family="sans-serif"><tspan x="13.64" y="33.75" dominant-baseline="ideographic">Clarté des actions</tspan></text></g></g></g><g id="g-root-tx_exprienc_qpnnc51qgsg06-fill" data-item-order="1000000000" data-item-id="tx_exprienc_qpnnc51qgsg06" data-item-class="Label Stroke" data-item-index="none" data-renderer-id="0" transform="translate(627, 69)"><g id="tx_exprienc_qpnnc51qgsg06-fill" stroke="none" fill="#484848"><g><text style="font: 20px Roboto, sans-serif; white-space: pre;" font-weight="20px" font-size="Roboto," font-family="sans-serif"><tspan x="13.67" y="33.75" dominant-baseline="ideographic">Expérience utilisateur fluide</tspan></text></g></g></g><g id="g-root-tx_hautequa_v5h5gl1qgsf7x-fill" data-item-order="1000000000" data-item-id="tx_hautequa_v5h5gl1qgsf7x" data-item-class="Label Stroke" data-item-index="none" data-renderer-id="0" transform="translate(135, 105)"><g id="tx_hautequa_v5h5gl1qgsf7x-fill" stroke="none" fill="#484848"><g><text style="font: 20px Roboto, sans-serif; white-space: pre;" font-weight="20px" font-size="Roboto," font-family="sans-serif"><tspan x="16.82" y="33.75" dominant-baseline="ideographic">Haute qualité</tspan></text></g></g></g><g id="g-root-tx_jankrdui_qpnnc51qgsg07-fill" data-item-order="1000000000" data-item-id="tx_jankrdui_qpnnc51qgsg07" data-item-class="Label Stroke" data-item-index="none" data-renderer-id="0" transform="translate(627, 105)"><g id="tx_jankrdui_qpnnc51qgsg07-fill" stroke="none" fill="#484848"><g><text style="font: 20px Roboto, sans-serif; white-space: pre;" font-weight="20px" font-size="Roboto," font-family="sans-serif"><tspan x="14.55" y="33.75" dominant-baseline="ideographic">Jank réduit</tspan></text></g></g></g><g id="g-root-tx_animatio_1q6c5wl1qh6io8-fill" data-item-order="1000000000" data-item-id="tx_animatio_1q6c5wl1qh6io8" data-item-class="Label Stroke" data-item-index="none" data-renderer-id="0" transform="translate(387, 132)"><g id="tx_animatio_1q6c5wl1qh6io8-fill" stroke="none" fill="#484848"><g><text style="font: 20px Roboto, sans-serif; white-space: pre;" font-weight="20px" font-size="Roboto," font-family="sans-serif"><tspan x="17.5" y="33.75" dominant-baseline="ideographic">Animations </tspan><tspan x="59.69" y="57.75" dominant-baseline="ideographic">et </tspan><tspan x="16.05" y="81.75" dominant-baseline="ideographic">Interactivité</tspan></text></g></g></g><g id="g-root-down_4hxnmt1qgpm9y-fill" data-item-order="1000000000" data-item-id="down_4hxnmt1qgpm9y" data-item-class="Icon Stroke" data-item-index="none" data-renderer-id="0" transform="translate(591, 15)"></g><g id="g-root-3_1q8u5et1qgwmbq-fill" data-item-order="1000000000" data-item-id="3_1q8u5et1qgwmbq" data-item-class="Icon Stroke" data-item-index="none" data-renderer-id="0" transform="translate(273, 165)"></g><g id="g-root-path_dg2k851qgttzc-fill" data-item-order="1000000000" data-item-id="path_dg2k851qgttzc" data-item-class="Icon Stroke" data-item-index="none" data-renderer-id="0" transform="translate(273, 15)"></g><g id="g-root-tx_indicate_1uo16g51qgwop9-fill" data-item-order="1000000000" data-item-id="tx_indicate_1uo16g51qgwop9" data-item-class="Label Stroke" data-item-index="none" data-renderer-id="0" transform="translate(15, 168)"><g id="tx_indicate_1uo16g51qgwop9-fill" stroke="none" fill="#dd8433"><g><text style="font: 20px Roboto, sans-serif; white-space: pre;" font-weight="20px" font-size="Roboto," font-family="sans-serif"><tspan x="17.29" y="33.75" dominant-baseline="ideographic">Indicateurs de chargement</tspan></text></g></g></g><g id="g-root-cu_1hd755x1qgwnwh-fill" data-item-order="1000000000" data-item-id="cu_1hd755x1qgwnwh" data-item-class="Curve Stroke ColorStrokeGray" data-item-index="none" data-renderer-id="0" transform="translate(315, 170)"></g><g id="g-root-cu_1cxdn1h1qgwnwu-fill" data-item-order="1000000000" data-item-id="cu_1cxdn1h1qgwnwu" data-item-class="Curve Stroke ColorStrokeGray" data-item-index="none" data-renderer-id="0" transform="translate(531, 170)"></g><g id="g-root-slid_qoep5x1qgr0g4-fill" data-item-order="1000000000" data-item-id="slid_qoep5x1qgr0g4" data-item-class="Icon Stroke" data-item-index="none" data-renderer-id="0" transform="translate(591, 165)"></g><g id="g-root-tx_feedback_v3lq791qgr2tn-fill" data-item-order="1000000000" data-item-id="tx_feedback_v3lq791qgr2tn" data-item-class="Label Stroke" data-item-index="none" data-renderer-id="0" transform="translate(627, 168)"><g id="tx_feedback_v3lq791qgr2tn-fill" stroke="none" fill="#e3cd09"><g><text style="font: 20px Roboto, sans-serif; white-space: pre;" font-weight="20px" font-size="Roboto," font-family="sans-serif"><tspan x="16.84" y="33.75" dominant-baseline="ideographic">Feedback visuel interactif</tspan></text></g></g></g><g id="g-root-tx_patience_detm1x1qgsefe-fill" data-item-order="1000000000" data-item-id="tx_patience_detm1x1qgsefe" data-item-class="Label Stroke" data-item-index="none" data-renderer-id="0" transform="translate(51, 219)"><g id="tx_patience_detm1x1qgsefe-fill" stroke="none" fill="#484848"><g><text style="font: 20px Roboto, sans-serif; white-space: pre;" font-weight="20px" font-size="Roboto," font-family="sans-serif"><tspan x="15.09" y="33.75" dominant-baseline="ideographic">Patience de l'utilisateur</tspan></text></g></g></g><g id="g-root-cu_zmjlr91qgwn4b-fill" data-item-order="1000000000" data-item-id="cu_zmjlr91qgwn4b" data-item-class="Curve Stroke ColorStrokeGray" data-item-index="none" data-renderer-id="0" transform="translate(273, 207)"></g><g id="g-root-cu_v6q3mt1qgwnwm-fill" data-item-order="1000000000" data-item-id="cu_v6q3mt1qgwnwm" data-item-class="Curve Stroke ColorStrokeGray" data-item-index="none" data-renderer-id="0" transform="translate(273, 207)"></g><g id="g-root-cu_zmjlr91qgwn46-fill" data-item-order="1000000000" data-item-id="cu_zmjlr91qgwn46" data-item-class="Curve Stroke ColorStrokeGray" data-item-index="none" data-renderer-id="0" transform="translate(603, 207)"></g><g id="g-root-cu_zmjlr91qgwn49-fill" data-item-order="1000000000" data-item-id="cu_zmjlr91qgwn49" data-item-class="Curve Stroke ColorStrokeGray" data-item-index="none" data-renderer-id="0" transform="translate(603, 207)"></g><g id="g-root-tx_engageme_m9u57p1qgsgsg-fill" data-item-order="1000000000" data-item-id="tx_engageme_m9u57p1qgsgsg" data-item-class="Label Stroke" data-item-index="none" data-renderer-id="0" transform="translate(627, 219)"><g id="tx_engageme_m9u57p1qgsgsg-fill" stroke="none" fill="#484848"><g><text style="font: 20px Roboto, sans-serif; white-space: pre;" font-weight="20px" font-size="Roboto," font-family="sans-serif"><tspan x="15.4" y="33.75" dominant-baseline="ideographic">Engagement utilisateur</tspan></text></g></g></g><g id="g-root-tx_connaiss_detm1x1qgseff-fill" data-item-order="1000000000" data-item-id="tx_connaiss_detm1x1qgseff" data-item-class="Label Stroke" data-item-index="none" data-renderer-id="0" transform="translate(3, 255)"><g id="tx_connaiss_detm1x1qgseff-fill" stroke="none" fill="#484848"><g><text style="font: 20px Roboto, sans-serif; white-space: pre;" font-weight="20px" font-size="Roboto," font-family="sans-serif"><tspan x="16.86" y="33.75" dominant-baseline="ideographic">Connaissance du processus</tspan></text></g></g></g><g id="g-root-tx_animatio_qqwlid1qgtvk7-fill" data-item-order="1000000000" data-item-id="tx_animatio_qqwlid1qgtvk7" data-item-class="Label Stroke" data-item-index="none" data-renderer-id="0" transform="translate(99, 18)"><g id="tx_animatio_qqwlid1qgtvk7-fill" stroke="none" fill="#4682e3"><g><text style="font: 20px Roboto, sans-serif; white-space: pre;" font-weight="20px" font-size="Roboto," font-family="sans-serif"><tspan x="15.44" y="33.75" dominant-baseline="ideographic">Animations Lottie</tspan></text></g></g></g><g id="g-root-ro_1cvi4md1qh6h3e-stroke" data-item-order="999970768" data-item-id="ro_1cvi4md1qh6h3e" data-item-class="Shape Stroke Fill" data-item-index="none" data-renderer-id="0" transform="translate(363, 54)"><g id="ro_1cvi4md1qh6h3e-stroke" fill="none" stroke-linecap="round" stroke-linejoin="round" stroke-miterlimit="4" stroke="#484848" stroke-width="2"><g><path d="M 34 10L 154 10C 154 10 178 10 178 34L 178 160C 178 160 178 184 154 184L 34 184C 34 184 10 184 10 160L 10 34C 10 34 10 10 34 10"></path></g></g></g><g id="g-root-ro_1hd755x1qgwn4f-stroke" data-item-order="999983152" data-item-id="ro_1hd755x1qgwn4f" data-item-class="Shape Stroke Fill" data-item-index="none" data-renderer-id="0" transform="translate(3, 153)"><g id="ro_1hd755x1qgwn4f-stroke" fill="none" stroke-linecap="round" stroke-linejoin="round" stroke-miterlimit="4" stroke="#dd8433" stroke-width="2"><g><path d="M 22 10L 310 10C 310 10 322 10 322 22L 322 52C 322 52 322 64 310 64L 22 64C 22 64 10 64 10 52L 10 22C 10 22 10 10 22 10"></path></g></g></g><g id="g-root-ro_qoep5x1qgr0g5-stroke" data-item-order="999983800" data-item-id="ro_qoep5x1qgr0g5" data-item-class="Shape Stroke Fill" data-item-index="none" data-renderer-id="0" transform="translate(579, 153)"><g id="ro_qoep5x1qgr0g5-stroke" fill="none" stroke-linecap="round" stroke-linejoin="round" stroke-miterlimit="4" stroke="#e3cd09" stroke-width="2"><g><path d="M 22 10L 298 10C 298 10 310 10 310 22L 310 52C 310 52 310 64 298 64L 22 64C 22 64 10 64 10 52L 10 22C 10 22 10 10 22 10"></path></g></g></g><g id="g-root-ro_90923p1qgturl-stroke" data-item-order="999987688" data-item-id="ro_90923p1qgturl" data-item-class="Shape Stroke Fill" data-item-index="none" data-renderer-id="0" transform="translate(87, 3)"><g id="ro_90923p1qgturl-stroke" fill="none" stroke-linecap="round" stroke-linejoin="round" stroke-miterlimit="4" stroke="#4682e3" stroke-width="2"><g><path d="M 22 10L 226 10C 226 10 238 10 238 22L 238 52C 238 52 238 64 226 64L 22 64C 22 64 10 64 10 52L 10 22C 10 22 10 10 22 10"></path></g></g></g><g id="g-root-ro_1unepd11qgpmvj-stroke" data-item-order="999987688" data-item-id="ro_1unepd11qgpmvj" data-item-class="Shape Stroke Fill" data-item-index="none" data-renderer-id="0" transform="translate(579, 3)"><g id="ro_1unepd11qgpmvj-stroke" fill="none" stroke-linecap="round" stroke-linejoin="round" stroke-miterlimit="4" stroke="#3bc482" stroke-width="2"><g><path d="M 22 10L 226 10C 226 10 238 10 238 22L 238 52C 238 52 238 64 226 64L 22 64C 22 64 10 64 10 52L 10 22C 10 22 10 10 22 10"></path></g></g></g><g id="g-root-cu_1cxdn1h1qgwnwr-stroke" data-item-order="1000000000" data-item-id="cu_1cxdn1h1qgwnwr" data-item-class="Curve Stroke ColorStrokeGray" data-item-index="none" data-renderer-id="0" transform="translate(531, 30)"><g id="cu_1cxdn1h1qgwnwr-stroke" fill="none" stroke-linecap="round" stroke-linejoin="round" stroke-miterlimit="4" stroke="#888888" stroke-width="2" stroke-dasharray="5.0, 7.0"><g><path d="M 10 92L 13 92L 13.1 92C 24.642748 92.000003 33.999998 82.642755 33.999998 71.100003L 34 71L 34 30.9C 33.999999 19.357249 43.357248 10.000001 54.899999 10.000002L 55 10L 58 10"></path></g></g></g><g id="g-root-tx_transiti_hsrox11qgpnut-stroke" data-item-order="1000000000" data-item-id="tx_transiti_hsrox11qgpnut" data-item-class="Label Stroke" data-item-index="none" data-renderer-id="0" transform="translate(627, 18)"></g><g id="g-root-cu_1lt0nad1qgwn40-stroke" data-item-order="1000000000" data-item-id="cu_1lt0nad1qgwn40" data-item-class="Curve Stroke ColorStrokeGray" data-item-index="none" data-renderer-id="0" transform="translate(315, 30)"><g id="cu_1lt0nad1qgwn40-stroke" fill="none" stroke-linecap="round" stroke-linejoin="round" stroke-miterlimit="4" stroke="#888888" stroke-width="2" stroke-dasharray="5.0, 7.0"><g><path d="M 58 92L 55 92L 54.9 92C 43.357247 92 33.999998 82.642751 33.999998 71.1L 34 71L 34 30.9C 33.999998 19.357248 24.64275 10 13.1 10L 13 10L 10 10"></path></g></g></g><g id="g-root-tx_performa_14145ph1qgsef8-stroke" data-item-order="1000000000" data-item-id="tx_performa_14145ph1qgsef8" data-item-class="Label Stroke" data-item-index="none" data-renderer-id="0" transform="translate(51, 69)"></g><g id="g-root-cu_18hk4x11qgwop8-stroke" data-item-order="1000000000" data-item-id="cu_18hk4x11qgwop8" data-item-class="Curve Stroke ColorStrokeGray" data-item-index="none" data-renderer-id="0" transform="translate(273, 57)"><g id="cu_18hk4x11qgwop8-stroke" fill="none" stroke-linecap="round" stroke-linejoin="round" stroke-miterlimit="4" stroke="#888888" stroke-width="2" stroke-dasharray="5.0, 7.0"><g><path d="M 28 10L 28 22L 28 34L 19 34L 10 34"></path></g></g></g><g id="g-root-cu_142d3vp1qgwmbr-stroke" data-item-order="1000000000" data-item-id="cu_142d3vp1qgwmbr" data-item-class="Curve Stroke ColorStrokeGray" data-item-index="none" data-renderer-id="0" transform="translate(273, 57)"><g id="cu_142d3vp1qgwmbr-stroke" fill="none" stroke-linecap="round" stroke-linejoin="round" stroke-miterlimit="4" stroke="#888888" stroke-width="2" stroke-dasharray="5.0, 7.0"><g><path d="M 28 10L 28 17.5L 28 58C 27.999999 64.627415 22.627416 69.999998 16 69.999998L 15.9 70L 10 70"></path></g></g></g><g id="g-root-cu_142d3vp1qgwmbt-stroke" data-item-order="1000000000" data-item-id="cu_142d3vp1qgwmbt" data-item-class="Curve Stroke ColorStrokeGray" data-item-index="none" data-renderer-id="0" transform="translate(603, 57)"><g id="cu_142d3vp1qgwmbt-stroke" fill="none" stroke-linecap="round" stroke-linejoin="round" stroke-miterlimit="4" stroke="#888888" stroke-width="2" stroke-dasharray="5.0, 7.0"><g><path d="M 10 10L 10 22L 10 34L 19 34L 28 34"></path></g></g></g><g id="g-root-cu_142d3vp1qgwmbw-stroke" data-item-order="1000000000" data-item-id="cu_142d3vp1qgwmbw" data-item-class="Curve Stroke ColorStrokeGray" data-item-index="none" data-renderer-id="0" transform="translate(603, 57)"><g id="cu_142d3vp1qgwmbw-stroke" fill="none" stroke-linecap="round" stroke-linejoin="round" stroke-miterlimit="4" stroke="#888888" stroke-width="2" stroke-dasharray="5.0, 7.0"><g><path d="M 10 10L 10 17.5L 10 58C 10.000002 64.627417 15.372585 70 22.000002 69.999999L 22.1 70L 28 70"></path></g></g></g><g id="g-root-hand_1lr54v91qh6gap-stroke" data-item-order="1000000000" data-item-id="hand_1lr54v91qh6gap" data-item-class="Icon Stroke" data-item-index="none" data-renderer-id="0" transform="translate(423, 78)"><g id="hand_1lr54v91qh6gap-stroke" fill="none" stroke-linecap="round" stroke-linejoin="round" stroke-miterlimit="4" stroke="#484848" stroke-width="2"><g><path d="M 54 57L 55 51C 55.114609 50.141056 54.627262 49.315041 53.82 49L 44.98 45.119999L 44.98 36.5C 45.064587 35.557129 44.609356 34.647354 43.804005 34.149792C 42.998657 33.652225 41.981346 33.652225 41.175995 34.149792C 40.370644 34.647354 39.915413 35.557129 40 36.5L 40 52.380001L 36.559998 48.259998C 36.144276 47.759541 35.511101 47.492569 34.862549 47.544292C 34.214005 47.596016 33.631145 47.959972 33.299999 48.52C 32.915974 49.131363 32.915974 49.908638 33.299999 50.52L 36.900002 57.080002M 19 45L 14 45C 12.343145 45 11 43.656857 11 42L 11 14C 11 12.343145 12.343145 11 14 11L 32 11C 33.656853 11 35 12.343145 35 14L 35 23M 11 39L 19 39M 29 29L 29 46M 41 11L 47 11C 47 11 49 11 49 13L 49 27C 49 27 49 29 47 29L 41 29C 41 29 39 29 39 27L 39 13C 39 13 39 11 41 11M 39 25L 49 25M 11 17L 35 17M 51 34L 51 43M 53 29L 54 29C 55.656857 29 57 30.343147 57 32L 57 45M 35 29L 26 29C 24.343147 29 23 30.343147 23 32L 23 48C 23 49.656857 24.343147 51 26 51L 29 51"></path></g></g></g><g id="g-root-tx_clartdes_m9u57p1qgsgsh-stroke" data-item-order="1000000000" data-item-id="tx_clartdes_m9u57p1qgsgsh" data-item-class="Label Stroke" data-item-index="none" data-renderer-id="0" transform="translate(627, 255)"></g><g id="g-root-tx_exprienc_qpnnc51qgsg06-stroke" data-item-order="1000000000" data-item-id="tx_exprienc_qpnnc51qgsg06" data-item-class="Label Stroke" data-item-index="none" data-renderer-id="0" transform="translate(627, 69)"></g><g id="g-root-tx_hautequa_v5h5gl1qgsf7x-stroke" data-item-order="1000000000" data-item-id="tx_hautequa_v5h5gl1qgsf7x" data-item-class="Label Stroke" data-item-index="none" data-renderer-id="0" transform="translate(135, 105)"></g><g id="g-root-tx_jankrdui_qpnnc51qgsg07-stroke" data-item-order="1000000000" data-item-id="tx_jankrdui_qpnnc51qgsg07" data-item-class="Label Stroke" data-item-index="none" data-renderer-id="0" transform="translate(627, 105)"></g><g id="g-root-tx_animatio_1q6c5wl1qh6io8-stroke" data-item-order="1000000000" data-item-id="tx_animatio_1q6c5wl1qh6io8" data-item-class="Label Stroke" data-item-index="none" data-renderer-id="0" transform="translate(387, 132)"></g><g id="g-root-down_4hxnmt1qgpm9y-stroke" data-item-order="1000000000" data-item-id="down_4hxnmt1qgpm9y" data-item-class="Icon Stroke" data-item-index="none" data-renderer-id="0" transform="translate(591, 15)"><g id="down_4hxnmt1qgpm9y-stroke" fill="none" stroke-linecap="round" stroke-linejoin="round" stroke-miterlimit="4" stroke="#3bc482" stroke-width="2"><g><path d="M 25 26.071428L 25 38.92857M 19.642857 33.571426L 25 38.92857L 30.357141 33.571426M 11.071428 18.571428L 11.071428 13.214286C 11.071428 13.214286 11.071428 11.071428 13.214286 11.071428L 36.785713 11.071428C 36.785713 11.071428 38.92857 11.071428 38.92857 13.214286L 38.92857 18.571428C 38.92857 18.571428 38.92857 20.714285 36.785713 20.714285L 13.214286 20.714285C 13.214286 20.714285 11.071428 20.714285 11.071428 18.571428"></path></g></g></g><g id="g-root-3_1q8u5et1qgwmbq-stroke" data-item-order="1000000000" data-item-id="3_1q8u5et1qgwmbq" data-item-class="Icon Stroke" data-item-index="none" data-renderer-id="0" transform="translate(273, 165)"><g id="3_1q8u5et1qgwmbq-stroke" fill="none" stroke-linecap="round" stroke-linejoin="round" stroke-miterlimit="4" stroke="#dd8433" stroke-width="2"><g><path d="M 21.785713 25C 21.785713 26.775202 23.2248 28.214285 25 28.214285C 26.775202 28.214285 28.214285 26.775202 28.214285 25C 28.214285 23.2248 26.775202 21.785713 25 21.785713C 23.2248 21.785713 21.785713 23.2248 21.785713 25M 33.571426 25C 33.571426 26.479334 34.770668 27.678572 36.25 27.678572C 37.729336 27.678572 38.92857 26.479334 38.92857 25C 38.92857 23.520666 37.729336 22.321428 36.25 22.321428C 34.770668 22.321428 33.571426 23.520666 33.571426 25M 11.071428 25C 11.071428 26.479334 12.270666 27.678572 13.75 27.678572C 15.229334 27.678572 16.428572 26.479334 16.428572 25C 16.428572 23.520666 15.229334 22.321428 13.75 22.321428C 12.270666 22.321428 11.071428 23.520666 11.071428 25"></path></g></g></g><g id="g-root-path_dg2k851qgttzc-stroke" data-item-order="1000000000" data-item-id="path_dg2k851qgttzc" data-item-class="Icon Stroke" data-item-index="none" data-renderer-id="0" transform="translate(273, 15)"><g id="path_dg2k851qgttzc-stroke" fill="none" stroke-linecap="round" stroke-linejoin="round" stroke-miterlimit="4" stroke="#4682e3" stroke-width="2"><g><path d="M 11.875 33.125L 15.625 33.125C 15.625 33.125 16.875 33.125 16.875 34.375L 16.875 38.125C 16.875 38.125 16.875 39.375 15.625 39.375L 11.875 39.375C 11.875 39.375 10.625 39.375 10.625 38.125L 10.625 34.375C 10.625 34.375 10.625 33.125 11.875 33.125M 34.375 10.625L 38.125 10.625C 38.125 10.625 39.375 10.625 39.375 11.875L 39.375 15.625C 39.375 15.625 39.375 16.875 38.125 16.875L 34.375 16.875C 34.375 16.875 33.125 16.875 33.125 15.625L 33.125 11.875C 33.125 11.875 33.125 10.625 34.375 10.625M 16.5075 33.4925L 33.4925 16.5075"></path></g></g></g><g id="g-root-tx_indicate_1uo16g51qgwop9-stroke" data-item-order="1000000000" data-item-id="tx_indicate_1uo16g51qgwop9" data-item-class="Label Stroke" data-item-index="none" data-renderer-id="0" transform="translate(15, 168)"></g><g id="g-root-cu_1hd755x1qgwnwh-stroke" data-item-order="1000000000" data-item-id="cu_1hd755x1qgwnwh" data-item-class="Curve Stroke ColorStrokeGray" data-item-index="none" data-renderer-id="0" transform="translate(315, 170)"><g id="cu_1hd755x1qgwnwh-stroke" fill="none" stroke-linecap="round" stroke-linejoin="round" stroke-miterlimit="4" stroke="#888888" stroke-width="2" stroke-dasharray="5.0, 7.0"><g><path d="M 58 10L 55 10L 54.9 10C 51.639401 10.016148 48.03708 10.453814 44.200002 11.299999C 41.965481 11.745013 38.361958 13.052173 34 14.999999C 29.638043 16.947825 26.03452 18.254985 23.8 18.699999C 19.962923 19.546185 16.360601 19.98385 13.1 20L 13 20L 10 20"></path></g></g></g><g id="g-root-cu_1cxdn1h1qgwnwu-stroke" data-item-order="1000000000" data-item-id="cu_1cxdn1h1qgwnwu" data-item-class="Curve Stroke ColorStrokeGray" data-item-index="none" data-renderer-id="0" transform="translate(531, 170)"><g id="cu_1cxdn1h1qgwnwu-stroke" fill="none" stroke-linecap="round" stroke-linejoin="round" stroke-miterlimit="4" stroke="#888888" stroke-width="2" stroke-dasharray="5.0, 7.0"><g><path d="M 10 10L 13 10L 13.1 10C 16.360602 10.01615 19.962923 10.453815 23.800001 11.3C 26.03452 11.745014 29.638043 13.052174 34 15.000001C 38.361958 16.947827 41.965481 18.254987 44.200001 18.700001C 48.03708 19.546186 51.639401 19.983851 54.900002 20.000001L 55 20L 58 20"></path></g></g></g><g id="g-root-slid_qoep5x1qgr0g4-stroke" data-item-order="1000000000" data-item-id="slid_qoep5x1qgr0g4" data-item-class="Icon Stroke" data-item-index="none" data-renderer-id="0" transform="translate(591, 165)"><g id="slid_qoep5x1qgr0g4-stroke" fill="none" stroke-linecap="round" stroke-linejoin="round" stroke-miterlimit="4" stroke="#e3cd09" stroke-width="2"><g><path d="M 31.561251 39.375C 32.126621 39.375221 32.621754 38.995926 32.768749 38.450001C 33.873596 34.05315 34.413364 29.533377 34.375 24.999998C 34.413364 20.466621 33.873596 15.94685 32.768749 11.55C 32.621754 11.004073 32.126621 10.624779 31.561251 10.625L 18.438749 10.625C 17.873379 10.624779 17.378246 11.004073 17.231251 11.55C 16.126402 15.94685 15.586635 20.466621 15.625 24.999998C 15.586635 29.533377 16.126402 34.05315 17.231251 38.449997C 17.378246 38.995926 17.873379 39.375221 18.438749 39.375ZM 16.592501 14.375L 33.407501 14.375M 16.592501 35.625L 33.407501 35.625M 15.8875 30.625L 34.112503 30.625M 15.8875 19.375L 34.112503 19.375M 24.356249 23.125L 24.981249 23.125C 25.326427 23.125 25.606249 23.404823 25.606249 23.75L 25.606249 28.125M 24.356249 28.125L 26.856249 28.125"></path></g></g></g><g id="g-root-tx_feedback_v3lq791qgr2tn-stroke" data-item-order="1000000000" data-item-id="tx_feedback_v3lq791qgr2tn" data-item-class="Label Stroke" data-item-index="none" data-renderer-id="0" transform="translate(627, 168)"></g><g id="g-root-tx_patience_detm1x1qgsefe-stroke" data-item-order="1000000000" data-item-id="tx_patience_detm1x1qgsefe" data-item-class="Label Stroke" data-item-index="none" data-renderer-id="0" transform="translate(51, 219)"></g><g id="g-root-cu_zmjlr91qgwn4b-stroke" data-item-order="1000000000" data-item-id="cu_zmjlr91qgwn4b" data-item-class="Curve Stroke ColorStrokeGray" data-item-index="none" data-renderer-id="0" transform="translate(273, 207)"><g id="cu_zmjlr91qgwn4b-stroke" fill="none" stroke-linecap="round" stroke-linejoin="round" stroke-miterlimit="4" stroke="#888888" stroke-width="2" stroke-dasharray="5.0, 7.0"><g><path d="M 28 10L 28 22L 28 34L 19 34L 10 34"></path></g></g></g><g id="g-root-cu_v6q3mt1qgwnwm-stroke" data-item-order="1000000000" data-item-id="cu_v6q3mt1qgwnwm" data-item-class="Curve Stroke ColorStrokeGray" data-item-index="none" data-renderer-id="0" transform="translate(273, 207)"><g id="cu_v6q3mt1qgwnwm-stroke" fill="none" stroke-linecap="round" stroke-linejoin="round" stroke-miterlimit="4" stroke="#888888" stroke-width="2" stroke-dasharray="5.0, 7.0"><g><path d="M 28 10L 28 17.5L 28 58C 27.999999 64.627415 22.627416 69.999998 16 69.999998L 15.9 70L 10 70"></path></g></g></g><g id="g-root-cu_zmjlr91qgwn46-stroke" data-item-order="1000000000" data-item-id="cu_zmjlr91qgwn46" data-item-class="Curve Stroke ColorStrokeGray" data-item-index="none" data-renderer-id="0" transform="translate(603, 207)"><g id="cu_zmjlr91qgwn46-stroke" fill="none" stroke-linecap="round" stroke-linejoin="round" stroke-miterlimit="4" stroke="#888888" stroke-width="2" stroke-dasharray="5.0, 7.0"><g><path d="M 10 10L 10 22L 10 34L 19 34L 28 34"></path></g></g></g><g id="g-root-cu_zmjlr91qgwn49-stroke" data-item-order="1000000000" data-item-id="cu_zmjlr91qgwn49" data-item-class="Curve Stroke ColorStrokeGray" data-item-index="none" data-renderer-id="0" transform="translate(603, 207)"><g id="cu_zmjlr91qgwn49-stroke" fill="none" stroke-linecap="round" stroke-linejoin="round" stroke-miterlimit="4" stroke="#888888" stroke-width="2" stroke-dasharray="5.0, 7.0"><g><path d="M 10 10L 10 17.5L 10 58C 10.000002 64.627417 15.372585 70 22.000002 69.999999L 22.1 70L 28 70"></path></g></g></g><g id="g-root-tx_engageme_m9u57p1qgsgsg-stroke" data-item-order="1000000000" data-item-id="tx_engageme_m9u57p1qgsgsg" data-item-class="Label Stroke" data-item-index="none" data-renderer-id="0" transform="translate(627, 219)"></g><g id="g-root-tx_connaiss_detm1x1qgseff-stroke" data-item-order="1000000000" data-item-id="tx_connaiss_detm1x1qgseff" data-item-class="Label Stroke" data-item-index="none" data-renderer-id="0" transform="translate(3, 255)"></g><g id="g-root-tx_animatio_qqwlid1qgtvk7-stroke" data-item-order="1000000000" data-item-id="tx_animatio_qqwlid1qgtvk7" data-item-class="Label Stroke" data-item-index="none" data-renderer-id="0" transform="translate(99, 18)"></g></g></g></svg>