<?xml version="1.0" encoding="utf-8" standalone="yes"?>
<!DOCTYPE svg PUBLIC "-//W3C//DTD SVG 1.1//EN" "http://www.w3.org/Graphics/SVG/1.1/DTD/svg11.dtd">
<svg width="840" height="223" viewBox="0 0 840 223" style="fill:none;stroke:none;fill-rule:evenodd;clip-rule:evenodd;stroke-linecap:round;stroke-linejoin:round;stroke-miterlimit:1.5;" version="1.1" xmlns="http://www.w3.org/2000/svg" xmlns:xlink="http://www.w3.org/1999/xlink"><style id="fontImports">@import url("https://fonts.googleapis.com/css2?family=Roboto:wght@400;700&amp;display=block");</style><rect id="" x="0" y="0" width="840" height="223" style="fill: #ffffff;"></rect><g id="items" style="isolation: isolate"><g id="blend" style="mix-blend-mode:normal"><g id="g-root-ro_meutgl1r15pmp-fill" data-item-order="999973000" data-item-id="ro_meutgl1r15pmp" data-item-class="Shape Stroke Fill" data-item-index="none" data-renderer-id="0" transform="translate(350, 27)"><g id="ro_meutgl1r15pmp-fill" stroke="none" fill="#f0f0f0"><g><path d="M 34 10L 166 10C 166 10 190 10 190 34L 190 136C 190 136 190 160 166 160L 34 160C 34 160 10 160 10 136L 10 34C 10 34 10 10 34 10"></path></g></g></g><g id="g-root-ro_1cy12ud1r15p8n-fill" data-item-order="999989632" data-item-id="ro_1cy12ud1r15p8n" data-item-class="Shape Stroke Fill" data-item-index="none" data-renderer-id="0" transform="translate(110, 3)"><g id="ro_1cy12ud1r15p8n-fill" stroke="none" fill="#e6efff"><g><path d="M 22 10L 190 10C 190 10 202 10 202 22L 202 52C 202 52 202 64 190 64L 22 64C 22 64 10 64 10 52L 10 22C 10 22 10 10 22 10"></path></g></g></g><g id="g-root-ro_18k2zz91r11gxs-fill" data-item-order="999992224" data-item-id="ro_18k2zz91r11gxs" data-item-class="Shape Stroke Fill" data-item-index="none" data-renderer-id="0" transform="translate(578, 15)"><g id="ro_18k2zz91r11gxs-fill" stroke="none" fill="#e9fbf3"><g><path d="M 22 10L 142 10C 142 10 154 10 154 22L 154 52C 154 52 154 64 142 64L 22 64C 22 64 10 64 10 52L 10 22C 10 22 10 10 22 10"></path></g></g></g><g id="g-root-1_1hdukyt1r15oge-fill" data-item-order="1000000000" data-item-id="1_1hdukyt1r15oge" data-item-class="Icon Stroke" data-item-index="none" data-renderer-id="0" transform="translate(260, 15)"></g><g id="g-root-cu_18iu1t11r15mv4-fill" data-item-order="1000000000" data-item-id="cu_18iu1t11r15mv4" data-item-class="Curve Stroke ColorStrokeGray" data-item-index="none" data-renderer-id="0" transform="translate(302, 30)"></g><g id="g-root-hand_1czwi3p1r11g5j-fill" data-item-order="1000000000" data-item-id="hand_1czwi3p1r11g5j" data-item-class="Icon Stroke" data-item-index="none" data-renderer-id="0" transform="translate(590, 27)"></g><g id="g-root-tx_services_1hfq0851r11fda-fill" data-item-order="1000000000" data-item-id="tx_services_1hfq0851r11fda" data-item-class="Label Stroke" data-item-index="none" data-renderer-id="0" transform="translate(626, 30)"><g id="tx_services_1hfq0851r11fda-fill" stroke="none" fill="#3bc482"><g><text style="font: 20px Roboto, sans-serif; white-space: pre;" font-weight="20px" font-size="Roboto," font-family="sans-serif"><tspan x="14.33" y="33.75" dominant-baseline="ideographic">Services</tspan></text></g></g></g><g id="g-root-serv_quobl11r15oug-fill" data-item-order="1000000000" data-item-id="serv_quobl11r15oug" data-item-class="Icon Stroke" data-item-index="none" data-renderer-id="0" transform="translate(416, 51)"></g><g id="g-root-cu_18iu1t11r15mv7-fill" data-item-order="1000000000" data-item-id="cu_18iu1t11r15mv7" data-item-class="Curve Stroke ColorStrokeGray" data-item-index="none" data-renderer-id="0" transform="translate(530, 42)"></g><g id="g-root-tx_configur_zofzqd1r11hqh-fill" data-item-order="1000000000" data-item-id="tx_configur_zofzqd1r11hqh" data-item-class="Label Stroke" data-item-index="none" data-renderer-id="0" transform="translate(50, 69)"><g id="tx_configur_zofzqd1r11hqh-fill" stroke="none" fill="#484848"><g><text style="font: 20px Roboto, sans-serif; white-space: pre;" font-weight="20px" font-size="Roboto," font-family="sans-serif"><tspan x="15.88" y="33.75" dominant-baseline="ideographic">Configuration Globale</tspan></text></g></g></g><g id="g-root-cu_1430jol1r15nnl-fill" data-item-order="1000000000" data-item-id="cu_1430jol1r15nnl" data-item-class="Curve Stroke ColorStrokeGray" data-item-index="none" data-renderer-id="0" transform="translate(260, 57)"></g><g id="g-root-cu_v7djfp1r15ogb-fill" data-item-order="1000000000" data-item-id="cu_v7djfp1r15ogb" data-item-class="Curve Stroke ColorStrokeGray" data-item-index="none" data-renderer-id="0" transform="translate(260, 57)"></g><g id="g-root-cu_v7djfp1r15ogd-fill" data-item-order="1000000000" data-item-id="cu_v7djfp1r15ogd" data-item-class="Curve Stroke ColorStrokeGray" data-item-index="none" data-renderer-id="0" transform="translate(260, 57)"></g><g id="g-root-cu_v7djfp1r15ogf-fill" data-item-order="1000000000" data-item-id="cu_v7djfp1r15ogf" data-item-class="Curve Stroke ColorStrokeGray" data-item-index="none" data-renderer-id="0" transform="translate(602, 69)"></g><g id="g-root-cu_qrk1b91r15p8q-fill" data-item-order="1000000000" data-item-id="cu_qrk1b91r15p8q" data-item-class="Curve Stroke ColorStrokeGray" data-item-index="none" data-renderer-id="0" transform="translate(602, 69)"></g><g id="g-root-cu_qrk1b91r15p8s-fill" data-item-order="1000000000" data-item-id="cu_qrk1b91r15p8s" data-item-class="Curve Stroke ColorStrokeGray" data-item-index="none" data-renderer-id="0" transform="translate(602, 69)"></g><g id="g-root-tx_analytic_hxsgbp1r11gxx-fill" data-item-order="1000000000" data-item-id="tx_analytic_hxsgbp1r11gxx" data-item-class="Label Stroke" data-item-index="none" data-renderer-id="0" transform="translate(626, 81)"><g id="tx_analytic_hxsgbp1r11gxx-fill" stroke="none" fill="#484848"><g><text style="font: 20px Roboto, sans-serif; white-space: pre;" font-weight="20px" font-size="Roboto," font-family="sans-serif"><tspan x="13.87" y="33.75" dominant-baseline="ideographic">Analytics et Tracking</tspan></text></g></g></g><g id="g-root-tx_variable_v98yp11r11fcy-fill" data-item-order="1000000000" data-item-id="tx_variable_v98yp11r11fcy" data-item-class="Label Stroke" data-item-index="none" data-renderer-id="0" transform="translate(14, 105)"><g id="tx_variable_v98yp11r11fcy-fill" stroke="none" fill="#484848"><g><text style="font: 20px Roboto, sans-serif; white-space: pre;" font-weight="20px" font-size="Roboto," font-family="sans-serif"><tspan x="12.18" y="33.75" dominant-baseline="ideographic">Variables d'Environnement</tspan></text></g></g></g><g id="g-root-tx_configur_1464tyd1r15n9j-fill" data-item-order="1000000000" data-item-id="tx_configur_1464tyd1r15n9j" data-item-class="Label Stroke" data-item-index="none" data-renderer-id="0" transform="translate(374, 105)"><g id="tx_configur_1464tyd1r15n9j-fill" stroke="none" fill="#484848"><g><text style="font: 20px Roboto, sans-serif; white-space: pre;" font-weight="20px" font-size="Roboto," font-family="sans-serif"><tspan x="14.78" y="33.75" dominant-baseline="ideographic">Configuration </tspan><tspan x="26.01" y="57.75" dominant-baseline="ideographic">et Services</tspan></text></g></g></g><g id="g-root-tx_gestiond_925g2t1r11hqm-fill" data-item-order="1000000000" data-item-id="tx_gestiond_925g2t1r11hqm" data-item-class="Label Stroke" data-item-index="none" data-renderer-id="0" transform="translate(626, 117)"><g id="tx_gestiond_925g2t1r11hqm-fill" stroke="none" fill="#484848"><g><text style="font: 20px Roboto, sans-serif; white-space: pre;" font-weight="20px" font-size="Roboto," font-family="sans-serif"><tspan x="13.07" y="33.75" dominant-baseline="ideographic">Gestion des Erreurs</tspan></text></g></g></g><g id="g-root-tx_injectio_mdlyg51r11g5n-fill" data-item-order="1000000000" data-item-id="tx_injectio_mdlyg51r11g5n" data-item-class="Label Stroke" data-item-index="none" data-renderer-id="0" transform="translate(14, 141)"><g id="tx_injectio_mdlyg51r11g5n-fill" stroke="none" fill="#484848"><g><text style="font: 20px Roboto, sans-serif; white-space: pre;" font-weight="20px" font-size="Roboto," font-family="sans-serif"><tspan x="15.47" y="33.75" dominant-baseline="ideographic">Injection de Dépendances</tspan></text></g></g></g><g id="g-root-tx_stockage_925g2t1r11hqn-fill" data-item-order="1000000000" data-item-id="tx_stockage_925g2t1r11hqn" data-item-class="Label Stroke" data-item-index="none" data-renderer-id="0" transform="translate(626, 153)"><g id="tx_stockage_925g2t1r11hqn-fill" stroke="none" fill="#484848"><g><text style="font: 20px Roboto, sans-serif; white-space: pre;" font-weight="20px" font-size="Roboto," font-family="sans-serif"><tspan x="16.91" y="33.75" dominant-baseline="ideographic">Stockage Persistant</tspan></text></g></g></g><g id="g-root-tx_paramtre_mdlyg51r11g5o-fill" data-item-order="1000000000" data-item-id="tx_paramtre_mdlyg51r11g5o" data-item-class="Label Stroke" data-item-index="none" data-renderer-id="0" transform="translate(2, 177)"><g id="tx_paramtre_mdlyg51r11g5o-fill" stroke="none" fill="#484848"><g><text style="font: 20px Roboto, sans-serif; white-space: pre;" font-weight="20px" font-size="Roboto," font-family="sans-serif"><tspan x="14.95" y="33.75" dominant-baseline="ideographic">Paramètres de l'Application</tspan></text></g></g></g><g id="g-root-tx_configur_1q9hl7p1r15nnp-fill" data-item-order="1000000000" data-item-id="tx_configur_1q9hl7p1r15nnp" data-item-class="Label Stroke" data-item-index="none" data-renderer-id="0" transform="translate(122, 18)"><g id="tx_configur_1q9hl7p1r15nnp-fill" stroke="none" fill="#4682e3"><g><text style="font: 20px Roboto, sans-serif; white-space: pre;" font-weight="20px" font-size="Roboto," font-family="sans-serif"><tspan x="16.07" y="33.75" dominant-baseline="ideographic">Configuration</tspan></text></g></g></g><g id="g-root-cu_18iu1t11r15mva-fill" data-item-order="1000000000" data-item-id="cu_18iu1t11r15mva" data-item-class="Curve Stroke ColorStrokeGray" data-item-index="none" data-renderer-id="0" transform="translate(260, 57)"></g><g id="g-root-ro_meutgl1r15pmp-stroke" data-item-order="999973000" data-item-id="ro_meutgl1r15pmp" data-item-class="Shape Stroke Fill" data-item-index="none" data-renderer-id="0" transform="translate(350, 27)"><g id="ro_meutgl1r15pmp-stroke" fill="none" stroke-linecap="round" stroke-linejoin="round" stroke-miterlimit="4" stroke="#484848" stroke-width="2"><g><path d="M 34 10L 166 10C 166 10 190 10 190 34L 190 136C 190 136 190 160 166 160L 34 160C 34 160 10 160 10 136L 10 34C 10 34 10 10 34 10"></path></g></g></g><g id="g-root-ro_1cy12ud1r15p8n-stroke" data-item-order="999989632" data-item-id="ro_1cy12ud1r15p8n" data-item-class="Shape Stroke Fill" data-item-index="none" data-renderer-id="0" transform="translate(110, 3)"><g id="ro_1cy12ud1r15p8n-stroke" fill="none" stroke-linecap="round" stroke-linejoin="round" stroke-miterlimit="4" stroke="#4682e3" stroke-width="2"><g><path d="M 22 10L 190 10C 190 10 202 10 202 22L 202 52C 202 52 202 64 190 64L 22 64C 22 64 10 64 10 52L 10 22C 10 22 10 10 22 10"></path></g></g></g><g id="g-root-ro_18k2zz91r11gxs-stroke" data-item-order="999992224" data-item-id="ro_18k2zz91r11gxs" data-item-class="Shape Stroke Fill" data-item-index="none" data-renderer-id="0" transform="translate(578, 15)"><g id="ro_18k2zz91r11gxs-stroke" fill="none" stroke-linecap="round" stroke-linejoin="round" stroke-miterlimit="4" stroke="#3bc482" stroke-width="2"><g><path d="M 22 10L 142 10C 142 10 154 10 154 22L 154 52C 154 52 154 64 142 64L 22 64C 22 64 10 64 10 52L 10 22C 10 22 10 10 22 10"></path></g></g></g><g id="g-root-1_1hdukyt1r15oge-stroke" data-item-order="1000000000" data-item-id="1_1hdukyt1r15oge" data-item-class="Icon Stroke" data-item-index="none" data-renderer-id="0" transform="translate(260, 15)"><g id="1_1hdukyt1r15oge-stroke" fill="none" stroke-linecap="round" stroke-linejoin="round" stroke-miterlimit="4" stroke="#4682e3" stroke-width="2"><g><path d="M 22.8125 26.09375C 22.8125 26.956696 23.512056 27.65625 24.375 27.65625C 25.237946 27.65625 25.9375 26.956696 25.9375 26.09375C 25.9375 25.230806 25.237946 24.53125 24.375 24.53125C 23.512056 24.53125 22.8125 25.230806 22.8125 26.09375ZM 25.702499 20.04875L 26.1625 21.5625C 26.319717 22.083866 26.854431 22.393867 27.385002 22.27125L 28.918751 21.91625C 29.516123 21.779644 30.132696 22.048876 30.438549 22.579884C 30.744402 23.110889 30.667912 23.77932 30.25 24.227501L 29.1775 25.383751C 28.806517 25.784393 28.806517 26.403107 29.1775 26.803749L 30.25 27.959999C 30.666637 28.407766 30.743015 29.074705 30.438395 29.605066C 30.133772 30.135429 29.519203 30.405512 28.922503 30.271252L 27.38875 29.91625C 26.858181 29.793633 26.323469 30.103636 26.16625 30.625002L 25.706249 32.138752C 25.530025 32.724632 24.990561 33.12571 24.37875 33.12571C 23.766939 33.12571 23.227474 32.724632 23.05125 32.138748L 22.5875 30.625C 22.430283 30.103636 21.895571 29.793633 21.365002 29.916252L 19.831249 30.271248C 19.233879 30.407858 18.617304 30.138626 18.311451 29.607618C 18.005598 29.076612 18.082092 28.408182 18.5 27.960001L 19.5725 26.803749C 19.943483 26.403107 19.943483 25.784393 19.5725 25.383751L 18.5 24.227501C 18.082092 23.77932 18.005598 23.110889 18.311451 22.579884C 18.617304 22.048876 19.233879 21.779644 19.831251 21.916252L 21.365 22.27125C 21.895571 22.393867 22.430283 22.083866 22.587502 21.562502L 23.047501 20.04875C 23.223722 19.462868 23.763189 19.06179 24.375 19.06179C 24.986811 19.06179 25.526276 19.462868 25.702499 20.04875ZM 36.508751 15.625C 36.743187 15.859366 36.874928 16.177258 36.875 16.508749L 36.875 38.125C 36.875 38.815353 36.315353 39.375 35.625 39.375L 14.375 39.375C 13.684644 39.375 13.125 38.815353 13.125 38.125L 13.125 11.875C 13.125 11.184644 13.684644 10.625 14.375 10.625L 30.991249 10.625C 31.322744 10.625071 31.640635 10.756813 31.875 10.99125Z"></path></g></g></g><g id="g-root-cu_18iu1t11r15mv4-stroke" data-item-order="1000000000" data-item-id="cu_18iu1t11r15mv4" data-item-class="Curve Stroke ColorStrokeGray" data-item-index="none" data-renderer-id="0" transform="translate(302, 30)"><g id="cu_18iu1t11r15mv4-stroke" fill="none" stroke-linecap="round" stroke-linejoin="round" stroke-miterlimit="4" stroke="#888888" stroke-width="2" stroke-dasharray="5.0, 7.0"><g><path d="M 58 57L 55 57L 54.9 57C 43.357246 56.999996 33.999999 47.642748 33.999998 36.099998L 34 36L 34 30.9C 33.999998 19.357248 24.64275 10 13.1 10L 13 10L 10 10"></path></g></g></g><g id="g-root-hand_1czwi3p1r11g5j-stroke" data-item-order="1000000000" data-item-id="hand_1czwi3p1r11g5j" data-item-class="Icon Stroke" data-item-index="none" data-renderer-id="0" transform="translate(590, 27)"><g id="hand_1czwi3p1r11g5j-stroke" fill="none" stroke-linecap="round" stroke-linejoin="round" stroke-miterlimit="4" stroke="#3bc482" stroke-width="2"><g><path d="M 35.235001 22.397501C 35.242428 19.689741 34.160275 17.092827 32.232235 15.191594C 30.304199 13.29036 27.692389 12.244664 24.985001 12.29C 23.463749 12.29 21.1975 12.62875 21.860001 15.372499L 21.860001 15.372499C 23.002501 18.46875 28.66375 13.935 30.462502 21.29875C 31.800001 26.772501 27.096251 27.785 25.971251 26.66L 23.4025 24.091249C 22.670418 23.358555 21.482946 23.358168 20.750383 24.090384C 20.017822 24.822599 20.017651 26.010071 20.75 26.7425L 25.41 32.022499C 26.347748 32.959965 26.874716 34.231525 26.875 35.557499L 26.875 37.709999M 34 17.408751C 36.2425 17.408751 39.375 19.38625 39.375 21.772501L 39.375 37.709999M 15.20625 19.8925C 15.206045 20.73695 15.89055 21.421619 16.735001 21.421619C 17.579451 21.421619 18.263954 20.73695 18.26375 19.8925C 18.263954 19.04805 17.579451 18.36338 16.735001 18.36338C 15.89055 18.36338 15.206045 19.04805 15.20625 19.8925M 20.940001 23.92375L 19.678749 23.6325C 19.159851 23.512266 18.636644 23.815145 18.4825 24.325001L 18.032499 25.806252C 17.860067 26.379417 17.332293 26.77178 16.733749 26.77178C 16.135208 26.77178 15.607434 26.379417 15.435 25.806252L 14.98625 24.325001C 14.832106 23.815145 14.3089 23.512266 13.79 23.632502L 12.29 23.98C 11.706289 24.111059 11.105257 23.84676 10.807303 23.327995C 10.50935 22.809227 10.583915 22.156898 10.99125 21.71875L 12.04 20.59375C 12.402578 20.201832 12.402578 19.59692 12.04 19.205L 10.99125 18.067499C 10.583494 17.629213 10.508891 16.976389 10.807255 16.457409C 11.105618 15.938429 11.707316 15.674411 12.29125 15.80625L 13.79125 16.153749C 14.310101 16.27313 14.832648 15.969769 14.98625 15.460001L 15.43625 13.98C 15.611376 13.410971 16.137131 13.022686 16.7325 13.022686C 17.327869 13.022686 17.853624 13.410971 18.028751 13.98L 18.47875 15.46C 18.632895 15.969947 19.155834 16.273218 19.674999 16.153749L 21.174999 15.80625C 21.75938 15.672847 22.362415 15.936296 22.6616 16.455706C 22.960785 16.975115 22.886105 17.628935 22.477501 18.067499L 21.428749 19.19875C 21.064959 19.590193 21.064959 20.196056 21.428749 20.5875L 22.477501 21.7125C 22.968395 22.237259 22.968395 23.052742 22.477501 23.577501"></path></g></g></g><g id="g-root-tx_services_1hfq0851r11fda-stroke" data-item-order="1000000000" data-item-id="tx_services_1hfq0851r11fda" data-item-class="Label Stroke" data-item-index="none" data-renderer-id="0" transform="translate(626, 30)"></g><g id="g-root-serv_quobl11r15oug-stroke" data-item-order="1000000000" data-item-id="serv_quobl11r15oug" data-item-class="Icon Stroke" data-item-index="none" data-renderer-id="0" transform="translate(416, 51)"><g id="serv_quobl11r15oug-stroke" fill="none" stroke-linecap="round" stroke-linejoin="round" stroke-miterlimit="4" stroke="#484848" stroke-width="2"><g><path d="M 51 23.854C 50.966511 21.881111 50.131657 20.006788 48.687508 18.662231C 47.243355 17.317677 45.314247 16.618662 43.343998 16.726C 41.574951 13.192698 37.951328 10.972141 34 11C 28.620384 10.922284 24.105413 15.036353 23.684 20.4C 22.078552 20.044861 20.398424 20.42691 19.104412 21.441368C 17.810402 22.455822 17.038349 23.996189 17 25.639999C 17 31.084 22.911999 31 22.911999 31L 44.348 31C 44.348 31 51 30.158001 51 23.854ZM 23.5 51.498001C 23.224117 51.498001 23.00037 51.721455 23.000004 51.997337C 22.999638 52.273216 23.222792 52.497265 23.498672 52.497997C 23.774551 52.498734 23.998898 52.275879 24 52C 24.000534 51.867226 23.948027 51.739738 23.854143 51.645855C 23.760258 51.551971 23.632771 51.499466 23.5 51.5L 23.5 51.5M 28.5 51.498001C 28.224119 51.498001 28.00037 51.721455 28.000004 51.997337C 27.999638 52.273216 28.222792 52.497265 28.498672 52.497997C 28.774553 52.498734 28.998896 52.275879 29 52C 29.000534 51.867226 28.948027 51.739738 28.854143 51.645855C 28.760258 51.551971 28.632771 51.499466 28.5 51.5L 28.5 51.5M 51 54C 51 55.656857 49.656857 57 48 57L 20 57C 18.343147 57 17 55.656857 17 54L 17 50C 17 48.343147 18.343147 47 20 47L 48 47C 49.656857 47 51 48.343147 51 50ZM 23.5 41.498001C 23.224117 41.498001 23.00037 41.721455 23.000004 41.997337C 22.999638 42.273216 23.222792 42.497265 23.498672 42.497997C 23.774551 42.498734 23.998898 42.275879 24 42C 24.000534 41.867226 23.948027 41.739738 23.854143 41.645855C 23.760258 41.551971 23.632771 41.499466 23.5 41.5L 23.5 41.5M 28.5 41.498001C 28.224119 41.498001 28.00037 41.721455 28.000004 41.997337C 27.999638 42.273216 28.222792 42.497265 28.498672 42.497997C 28.774553 42.498734 28.998896 42.275879 29 42C 29.000534 41.867226 28.948027 41.739738 28.854143 41.645855C 28.760258 41.551971 28.632771 41.499466 28.5 41.5L 28.5 41.5M 51 44C 51 45.656857 49.656857 47 48 47L 20 47C 18.343147 47 17 45.656857 17 44L 17 40C 17 38.343147 18.343147 37 20 37L 48 37C 49.656857 37 51 38.343147 51 40Z"></path></g></g></g><g id="g-root-cu_18iu1t11r15mv7-stroke" data-item-order="1000000000" data-item-id="cu_18iu1t11r15mv7" data-item-class="Curve Stroke ColorStrokeGray" data-item-index="none" data-renderer-id="0" transform="translate(530, 42)"><g id="cu_18iu1t11r15mv7-stroke" fill="none" stroke-linecap="round" stroke-linejoin="round" stroke-miterlimit="4" stroke="#888888" stroke-width="2" stroke-dasharray="5.0, 7.0"><g><path d="M 10 45L 13 45L 13.1 45C 17.577866 44.972592 22.360217 43.214375 26.699999 40C 29.320119 38.118536 31.98143 33.561497 33.999999 27.499999C 36.018569 21.438502 38.67988 16.881462 41.299999 15C 45.63978 11.785625 50.422131 10.027407 54.899998 9.999999L 55 10L 58 10"></path></g></g></g><g id="g-root-tx_configur_zofzqd1r11hqh-stroke" data-item-order="1000000000" data-item-id="tx_configur_zofzqd1r11hqh" data-item-class="Label Stroke" data-item-index="none" data-renderer-id="0" transform="translate(50, 69)"></g><g id="g-root-cu_1430jol1r15nnl-stroke" data-item-order="1000000000" data-item-id="cu_1430jol1r15nnl" data-item-class="Curve Stroke ColorStrokeGray" data-item-index="none" data-renderer-id="0" transform="translate(260, 57)"><g id="cu_1430jol1r15nnl-stroke" fill="none" stroke-linecap="round" stroke-linejoin="round" stroke-miterlimit="4" stroke="#888888" stroke-width="2" stroke-dasharray="5.0, 7.0"><g><path d="M 28 10L 28 40L 28 70L 19 70L 10 70"></path></g></g></g><g id="g-root-cu_v7djfp1r15ogb-stroke" data-item-order="1000000000" data-item-id="cu_v7djfp1r15ogb" data-item-class="Curve Stroke ColorStrokeGray" data-item-index="none" data-renderer-id="0" transform="translate(260, 57)"><g id="cu_v7djfp1r15ogb-stroke" fill="none" stroke-linecap="round" stroke-linejoin="round" stroke-miterlimit="4" stroke="#888888" stroke-width="2" stroke-dasharray="5.0, 7.0"><g><path d="M 28 10L 28 58L 28 106L 19 106L 10 106"></path></g></g></g><g id="g-root-cu_v7djfp1r15ogd-stroke" data-item-order="1000000000" data-item-id="cu_v7djfp1r15ogd" data-item-class="Curve Stroke ColorStrokeGray" data-item-index="none" data-renderer-id="0" transform="translate(260, 57)"><g id="cu_v7djfp1r15ogd-stroke" fill="none" stroke-linecap="round" stroke-linejoin="round" stroke-miterlimit="4" stroke="#888888" stroke-width="2" stroke-dasharray="5.0, 7.0"><g><path d="M 28 10L 28 26.5L 28 130C 28.000005 136.627421 22.627422 142.000005 16.000005 142.000005L 15.9 142L 10 142"></path></g></g></g><g id="g-root-cu_v7djfp1r15ogf-stroke" data-item-order="1000000000" data-item-id="cu_v7djfp1r15ogf" data-item-class="Curve Stroke ColorStrokeGray" data-item-index="none" data-renderer-id="0" transform="translate(602, 69)"><g id="cu_v7djfp1r15ogf-stroke" fill="none" stroke-linecap="round" stroke-linejoin="round" stroke-miterlimit="4" stroke="#888888" stroke-width="2" stroke-dasharray="5.0, 7.0"><g><path d="M 10 10L 10 22L 10 34L 19 34L 28 34"></path></g></g></g><g id="g-root-cu_qrk1b91r15p8q-stroke" data-item-order="1000000000" data-item-id="cu_qrk1b91r15p8q" data-item-class="Curve Stroke ColorStrokeGray" data-item-index="none" data-renderer-id="0" transform="translate(602, 69)"><g id="cu_qrk1b91r15p8q-stroke" fill="none" stroke-linecap="round" stroke-linejoin="round" stroke-miterlimit="4" stroke="#888888" stroke-width="2" stroke-dasharray="5.0, 7.0"><g><path d="M 10 10L 10 40L 10 70L 19 70L 28 70"></path></g></g></g><g id="g-root-cu_qrk1b91r15p8s-stroke" data-item-order="1000000000" data-item-id="cu_qrk1b91r15p8s" data-item-class="Curve Stroke ColorStrokeGray" data-item-index="none" data-renderer-id="0" transform="translate(602, 69)"><g id="cu_qrk1b91r15p8s-stroke" fill="none" stroke-linecap="round" stroke-linejoin="round" stroke-miterlimit="4" stroke="#888888" stroke-width="2" stroke-dasharray="5.0, 7.0"><g><path d="M 10 10L 10 22L 10 94C 10.000004 100.627423 15.372587 106.000006 22.000005 106.000005L 22.1 106L 28 106"></path></g></g></g><g id="g-root-tx_analytic_hxsgbp1r11gxx-stroke" data-item-order="1000000000" data-item-id="tx_analytic_hxsgbp1r11gxx" data-item-class="Label Stroke" data-item-index="none" data-renderer-id="0" transform="translate(626, 81)"></g><g id="g-root-tx_variable_v98yp11r11fcy-stroke" data-item-order="1000000000" data-item-id="tx_variable_v98yp11r11fcy" data-item-class="Label Stroke" data-item-index="none" data-renderer-id="0" transform="translate(14, 105)"></g><g id="g-root-tx_configur_1464tyd1r15n9j-stroke" data-item-order="1000000000" data-item-id="tx_configur_1464tyd1r15n9j" data-item-class="Label Stroke" data-item-index="none" data-renderer-id="0" transform="translate(374, 105)"></g><g id="g-root-tx_gestiond_925g2t1r11hqm-stroke" data-item-order="1000000000" data-item-id="tx_gestiond_925g2t1r11hqm" data-item-class="Label Stroke" data-item-index="none" data-renderer-id="0" transform="translate(626, 117)"></g><g id="g-root-tx_injectio_mdlyg51r11g5n-stroke" data-item-order="1000000000" data-item-id="tx_injectio_mdlyg51r11g5n" data-item-class="Label Stroke" data-item-index="none" data-renderer-id="0" transform="translate(14, 141)"></g><g id="g-root-tx_stockage_925g2t1r11hqn-stroke" data-item-order="1000000000" data-item-id="tx_stockage_925g2t1r11hqn" data-item-class="Label Stroke" data-item-index="none" data-renderer-id="0" transform="translate(626, 153)"></g><g id="g-root-tx_paramtre_mdlyg51r11g5o-stroke" data-item-order="1000000000" data-item-id="tx_paramtre_mdlyg51r11g5o" data-item-class="Label Stroke" data-item-index="none" data-renderer-id="0" transform="translate(2, 177)"></g><g id="g-root-tx_configur_1q9hl7p1r15nnp-stroke" data-item-order="1000000000" data-item-id="tx_configur_1q9hl7p1r15nnp" data-item-class="Label Stroke" data-item-index="none" data-renderer-id="0" transform="translate(122, 18)"></g><g id="g-root-cu_18iu1t11r15mva-stroke" data-item-order="1000000000" data-item-id="cu_18iu1t11r15mva" data-item-class="Curve Stroke ColorStrokeGray" data-item-index="none" data-renderer-id="0" transform="translate(260, 57)"><g id="cu_18iu1t11r15mva-stroke" fill="none" stroke-linecap="round" stroke-linejoin="round" stroke-miterlimit="4" stroke="#888888" stroke-width="2" stroke-dasharray="5.0, 7.0"><g><path d="M 28 10L 28 22L 28 34L 19 34L 10 34"></path></g></g></g></g></g></svg>