<?xml version="1.0" encoding="utf-8" standalone="yes"?>
<!DOCTYPE svg PUBLIC "-//W3C//DTD SVG 1.1//EN" "http://www.w3.org/Graphics/SVG/1.1/DTD/svg11.dtd">
<svg width="912" height="301" viewBox="0 0 912 301" style="fill:none;stroke:none;fill-rule:evenodd;clip-rule:evenodd;stroke-linecap:round;stroke-linejoin:round;stroke-miterlimit:1.5;" version="1.1" xmlns="http://www.w3.org/2000/svg" xmlns:xlink="http://www.w3.org/1999/xlink"><style id="fontImports">@import url("https://fonts.googleapis.com/css2?family=Roboto:wght@400;700&amp;display=block");</style><rect id="" x="0" y="0" width="912" height="301" style="fill: #ffffff;"></rect><g id="items" style="isolation: isolate"><g id="blend" style="mix-blend-mode:normal"><g id="g-root-ro_m7cc1h1q6ygw0-fill" data-item-order="999964360" data-item-id="ro_m7cc1h1q6ygw0" data-item-class="Shape Stroke Fill" data-item-index="none" data-renderer-id="0" transform="translate(338, 42)"><g id="ro_m7cc1h1q6ygw0-fill" stroke="none" fill="#f0f0f0"><g><path d="M 34 10L 166 10C 166 10 190 10 190 34L 190 184C 190 184 190 208 166 208L 34 208C 34 208 10 208 10 184L 10 34C 10 34 10 10 34 10"></path></g></g></g><g id="g-root-ro_zlaqr91q75gy1-fill" data-item-order="999985096" data-item-id="ro_zlaqr91q75gy1" data-item-class="Shape Stroke Fill" data-item-index="none" data-renderer-id="0" transform="translate(566, 3)"><g id="ro_zlaqr91q75gy1-fill" stroke="none" fill="#e9fbf3"><g><path d="M 22 10L 274 10C 274 10 286 10 286 22L 286 52C 286 52 286 64 274 64L 22 64C 22 64 10 64 10 52L 10 22C 10 22 10 10 22 10"></path></g></g></g><g id="g-root-ro_qvwhdh1q78av5-fill" data-item-order="999985744" data-item-id="ro_qvwhdh1q78av5" data-item-class="Shape Stroke Fill" data-item-index="none" data-renderer-id="0" transform="translate(566, 153)"><g id="ro_qvwhdh1q78av5-fill" stroke="none" fill="#fef2e6"><g><path d="M 22 10L 262 10C 262 10 274 10 274 22L 274 52C 274 52 274 64 262 64L 22 64C 22 64 10 64 10 52L 10 22C 10 22 10 10 22 10"></path></g></g></g><g id="g-root-ro_8d2ph1q6vncz-fill" data-item-order="999987040" data-item-id="ro_8d2ph1q6vncz" data-item-class="Shape Stroke Fill" data-item-index="none" data-renderer-id="0" transform="translate(50, 3)"><g id="ro_8d2ph1q6vncz-fill" stroke="none" fill="#e6efff"><g><path d="M 22 10L 238 10C 238 10 250 10 250 22L 250 52C 250 52 250 64 238 64L 22 64C 22 64 10 64 10 52L 10 22C 10 22 10 10 22 10"></path></g></g></g><g id="g-root-ro_qqwrud1q718g3-fill" data-item-order="999991576" data-item-id="ro_qqwrud1q718g3" data-item-class="Shape Stroke Fill" data-item-index="none" data-renderer-id="0" transform="translate(134, 153)"><g id="ro_qqwrud1q718g3-fill" stroke="none" fill="#ffe7e6"><g><path d="M 22 10L 154 10C 154 10 166 10 166 22L 166 52C 166 52 166 64 154 64L 22 64C 22 64 10 64 10 52L 10 22C 10 22 10 10 22 10"></path></g></g></g><g id="g-root-tx_versions_14148vp1q75g5r-fill" data-item-order="1000000000" data-item-id="tx_versions_14148vp1q75g5r" data-item-class="Label Stroke" data-item-index="none" data-renderer-id="0" transform="translate(614, 18)"><g id="tx_versions_14148vp1q75g5r-fill" stroke="none" fill="#3bc482"><g><text style="font: 20px Roboto, sans-serif; white-space: pre;" font-weight="20px" font-size="Roboto," font-family="sans-serif"><tspan x="16.77" y="33.75" dominant-baseline="ideographic">Versions compressées</tspan></text></g></g></g><g id="g-root-cu_hv9rlh1q7198s-fill" data-item-order="1000000000" data-item-id="cu_hv9rlh1q7198s" data-item-class="Curve Stroke ColorStrokeGray" data-item-index="none" data-renderer-id="0" transform="translate(290, 30)"></g><g id="g-root-cu_dfg9h11q71a13-fill" data-item-order="1000000000" data-item-id="cu_dfg9h11q71a13" data-item-class="Curve Stroke ColorStrokeGray" data-item-index="none" data-renderer-id="0" transform="translate(518, 30)"></g><g id="g-root-tx_webm_8zmrcl1q6rf2e-fill" data-item-order="1000000000" data-item-id="tx_webm_8zmrcl1q6rf2e" data-item-class="Label Stroke" data-item-index="none" data-renderer-id="0" transform="translate(170, 69)"><g id="tx_webm_8zmrcl1q6rf2e-fill" stroke="none" fill="#484848"><g><text style="font: 20px Roboto, sans-serif; white-space: pre;" font-weight="20px" font-size="Roboto," font-family="sans-serif"><tspan x="17.64" y="33.75" dominant-baseline="ideographic">WebM</tspan></text></g></g></g><g id="g-root-cu_hv9rlh1q71a0w-fill" data-item-order="1000000000" data-item-id="cu_hv9rlh1q71a0w" data-item-class="Curve Stroke ColorStrokeGray" data-item-index="none" data-renderer-id="0" transform="translate(248, 57)"></g><g id="g-root-cu_8zmrcl1q71atn-fill" data-item-order="1000000000" data-item-id="cu_8zmrcl1q71atn" data-item-class="Curve Stroke ColorStrokeGray" data-item-index="none" data-renderer-id="0" transform="translate(248, 57)"></g><g id="g-root-titl_qn5u5x1q6yg3r-fill" data-item-order="1000000000" data-item-id="titl_qn5u5x1q6yg3r" data-item-class="Icon Stroke" data-item-index="none" data-renderer-id="0" transform="translate(404, 66)"></g><g id="g-root-cu_4kfqb91q718g5-fill" data-item-order="1000000000" data-item-id="cu_4kfqb91q718g5" data-item-class="Curve Stroke ColorStrokeGray" data-item-index="none" data-renderer-id="0" transform="translate(590, 57)"></g><g id="g-root-cu_4kfqb91q718g8-fill" data-item-order="1000000000" data-item-id="cu_4kfqb91q718g8" data-item-class="Curve Stroke ColorStrokeGray" data-item-index="none" data-renderer-id="0" transform="translate(590, 57)"></g><g id="g-root-tx_taillede_1upaayd1q6rgg8-fill" data-item-order="1000000000" data-item-id="tx_taillede_1upaayd1q6rgg8" data-item-class="Label Stroke" data-item-index="none" data-renderer-id="0" transform="translate(614, 69)"><g id="tx_taillede_1upaayd1q6rgg8-fill" stroke="none" fill="#484848"><g><text style="font: 20px Roboto, sans-serif; white-space: pre;" font-weight="20px" font-size="Roboto," font-family="sans-serif"><tspan x="12.08" y="33.75" dominant-baseline="ideographic">Taille de fichier réduite</tspan></text></g></g></g><g id="g-root-tx_mp4_3zr3p1q6rfv3-fill" data-item-order="1000000000" data-item-id="tx_mp4_3zr3p1q6rfv3" data-item-class="Label Stroke" data-item-index="none" data-renderer-id="0" transform="translate(194, 105)"><g id="tx_mp4_3zr3p1q6rfv3-fill" stroke="none" fill="#484848"><g><text style="font: 20px Roboto, sans-serif; white-space: pre;" font-weight="20px" font-size="Roboto," font-family="sans-serif"><tspan x="13.35" y="33.75" dominant-baseline="ideographic">MP4</tspan></text></g></g></g><g id="g-root-tx_prservat_1upaayd1q6rgg9-fill" data-item-order="1000000000" data-item-id="tx_prservat_1upaayd1q6rgg9" data-item-class="Label Stroke" data-item-index="none" data-renderer-id="0" transform="translate(614, 105)"><g id="tx_prservat_1upaayd1q6rgg9-fill" stroke="none" fill="#484848"><g><text style="font: 20px Roboto, sans-serif; white-space: pre;" font-weight="20px" font-size="Roboto," font-family="sans-serif"><tspan x="11.76" y="33.75" dominant-baseline="ideographic">Préservation de la qualité</tspan></text></g></g></g><g id="g-root-tx_optimisa_147zgtx1q6x346-fill" data-item-order="1000000000" data-item-id="tx_optimisa_147zgtx1q6x346" data-item-class="Label Stroke" data-item-index="none" data-renderer-id="0" transform="translate(362, 120)"><g id="tx_optimisa_147zgtx1q6x346-fill" stroke="none" fill="#484848"><g><text style="font: 20px Roboto, sans-serif; white-space: pre;" font-weight="20px" font-size="Roboto," font-family="sans-serif"><tspan x="18.71" y="33.74" dominant-baseline="ideographic">Optimisation </tspan><tspan x="16.9" y="57.75" dominant-baseline="ideographic">de la vidéo et </tspan><tspan x="64.67" y="81.75" dominant-baseline="ideographic">de </tspan><tspan x="27.17" y="105.76" dominant-baseline="ideographic">l'animation</tspan></text></g></g></g><g id="g-root-2_zlaqr91q75gy0-fill" data-item-order="1000000000" data-item-id="2_zlaqr91q75gy0" data-item-class="Icon Stroke" data-item-index="none" data-renderer-id="0" transform="translate(578, 15)"></g><g id="g-root-arch_qqwrud1q718g2-fill" data-item-order="1000000000" data-item-id="arch_qqwrud1q718g2" data-item-class="Icon Stroke" data-item-index="none" data-renderer-id="0" transform="translate(248, 165)"></g><g id="g-root-pyra_4o6ktx1q6vmkq-fill" data-item-order="1000000000" data-item-id="pyra_4o6ktx1q6vmkq" data-item-class="Icon Stroke" data-item-index="none" data-renderer-id="0" transform="translate(248, 15)"></g><g id="g-root-tx_fallback_hs5e5x1q718u9-fill" data-item-order="1000000000" data-item-id="tx_fallback_hs5e5x1q718u9" data-item-class="Label Stroke" data-item-index="none" data-renderer-id="0" transform="translate(146, 168)"><g id="tx_fallback_hs5e5x1q718u9-fill" stroke="none" fill="#e15e5a"><g><text style="font: 20px Roboto, sans-serif; white-space: pre;" font-weight="20px" font-size="Roboto," font-family="sans-serif"><tspan x="15.83" y="33.75" dominant-baseline="ideographic">Fallbacks</tspan></text></g></g></g><g id="g-root-cu_dfg9h11q71a19-fill" data-item-order="1000000000" data-item-id="cu_dfg9h11q71a19" data-item-class="Curve Stroke ColorStrokeGray" data-item-index="none" data-renderer-id="0" transform="translate(290, 174)"></g><g id="g-root-cu_dfg9h11q71a16-fill" data-item-order="1000000000" data-item-id="cu_dfg9h11q71a16" data-item-class="Curve Stroke ColorStrokeGray" data-item-index="none" data-renderer-id="0" transform="translate(518, 174)"></g><g id="g-root-1_qvwhdh1q78av4-fill" data-item-order="1000000000" data-item-id="1_qvwhdh1q78av4" data-item-class="Icon Stroke" data-item-index="none" data-renderer-id="0" transform="translate(578, 165)"></g><g id="g-root-tx_chargeme_zrjhmd1q789an-fill" data-item-order="1000000000" data-item-id="tx_chargeme_zrjhmd1q789an" data-item-class="Label Stroke" data-item-index="none" data-renderer-id="0" transform="translate(614, 168)"><g id="tx_chargeme_zrjhmd1q789an-fill" stroke="none" fill="#dd8433"><g><text style="font: 20px Roboto, sans-serif; white-space: pre;" font-weight="20px" font-size="Roboto," font-family="sans-serif"><tspan x="15.02" y="33.75" dominant-baseline="ideographic">Chargement adaptatif</tspan></text></g></g></g><g id="g-root-tx_dgradati_1heg9o51q6revg-fill" data-item-order="1000000000" data-item-id="tx_dgradati_1heg9o51q6revg" data-item-class="Label Stroke" data-item-index="none" data-renderer-id="0" transform="translate(38, 219)"><g id="tx_dgradati_1heg9o51q6revg-fill" stroke="none" fill="#484848"><g><text style="font: 20px Roboto, sans-serif; white-space: pre;" font-weight="20px" font-size="Roboto," font-family="sans-serif"><tspan x="12.27" y="33.75" dominant-baseline="ideographic">Dégradation gracieuse</tspan></text></g></g></g><g id="g-root-cu_4m86t1q7198n-fill" data-item-order="1000000000" data-item-id="cu_4m86t1q7198n" data-item-class="Curve Stroke ColorStrokeGray" data-item-index="none" data-renderer-id="0" transform="translate(248, 207)"></g><g id="g-root-cu_1upws1h1q719tu-fill" data-item-order="1000000000" data-item-id="cu_1upws1h1q719tu" data-item-class="Curve Stroke ColorStrokeGray" data-item-index="none" data-renderer-id="0" transform="translate(248, 207)"></g><g id="g-root-cu_4m86t1q7198i-fill" data-item-order="1000000000" data-item-id="cu_4m86t1q7198i" data-item-class="Curve Stroke ColorStrokeGray" data-item-index="none" data-renderer-id="0" transform="translate(590, 207)"></g><g id="g-root-cu_4m86t1q7198l-fill" data-item-order="1000000000" data-item-id="cu_4m86t1q7198l" data-item-class="Curve Stroke ColorStrokeGray" data-item-index="none" data-renderer-id="0" transform="translate(590, 207)"></g><g id="g-root-tx_gestiond_1q9gstx1q6rh8i-fill" data-item-order="1000000000" data-item-id="tx_gestiond_1q9gstx1q6rh8i" data-item-class="Label Stroke" data-item-index="none" data-renderer-id="0" transform="translate(614, 219)"><g id="tx_gestiond_1q9gstx1q6rh8i-fill" stroke="none" fill="#484848"><g><text style="font: 20px Roboto, sans-serif; white-space: pre;" font-weight="20px" font-size="Roboto," font-family="sans-serif"><tspan x="16.72" y="33.75" dominant-baseline="ideographic">Gestion de la bande passante</tspan></text></g></g></g><g id="g-root-tx_compatib_1heg9o51q6revf-fill" data-item-order="1000000000" data-item-id="tx_compatib_1heg9o51q6revf" data-item-class="Label Stroke" data-item-index="none" data-renderer-id="0" transform="translate(614, 255)"><g id="tx_compatib_1heg9o51q6revf-fill" stroke="none" fill="#484848"><g><text style="font: 20px Roboto, sans-serif; white-space: pre;" font-weight="20px" font-size="Roboto," font-family="sans-serif"><tspan x="15.08" y="33.75" dominant-baseline="ideographic">Compatibilité des appareils</tspan></text></g></g></g><g id="g-root-tx_formatso_dj73zp1q6voxt-fill" data-item-order="1000000000" data-item-id="tx_formatso_dj73zp1q6voxt" data-item-class="Label Stroke" data-item-index="none" data-renderer-id="0" transform="translate(62, 18)"><g id="tx_formatso_dj73zp1q6voxt-fill" stroke="none" fill="#4682e3"><g><text style="font: 20px Roboto, sans-serif; white-space: pre;" font-weight="20px" font-size="Roboto," font-family="sans-serif"><tspan x="16.57" y="33.75" dominant-baseline="ideographic">Formats optimisés</tspan></text></g></g></g><g id="g-root-tx_supportm_142zrat1q6rggd-fill" data-item-order="1000000000" data-item-id="tx_supportm_142zrat1q6rggd" data-item-class="Label Stroke" data-item-index="none" data-renderer-id="0" transform="translate(2, 255)"><g id="tx_supportm_142zrat1q6rggd-fill" stroke="none" fill="#484848"><g><text style="font: 20px Roboto, sans-serif; white-space: pre;" font-weight="20px" font-size="Roboto," font-family="sans-serif"><tspan x="15.28" y="33.75" dominant-baseline="ideographic">Support multi-navigateurs</tspan></text></g></g></g><g id="g-root-ro_m7cc1h1q6ygw0-stroke" data-item-order="999964360" data-item-id="ro_m7cc1h1q6ygw0" data-item-class="Shape Stroke Fill" data-item-index="none" data-renderer-id="0" transform="translate(338, 42)"><g id="ro_m7cc1h1q6ygw0-stroke" fill="none" stroke-linecap="round" stroke-linejoin="round" stroke-miterlimit="4" stroke="#484848" stroke-width="2"><g><path d="M 34 10L 166 10C 166 10 190 10 190 34L 190 184C 190 184 190 208 166 208L 34 208C 34 208 10 208 10 184L 10 34C 10 34 10 10 34 10"></path></g></g></g><g id="g-root-ro_zlaqr91q75gy1-stroke" data-item-order="999985096" data-item-id="ro_zlaqr91q75gy1" data-item-class="Shape Stroke Fill" data-item-index="none" data-renderer-id="0" transform="translate(566, 3)"><g id="ro_zlaqr91q75gy1-stroke" fill="none" stroke-linecap="round" stroke-linejoin="round" stroke-miterlimit="4" stroke="#3bc482" stroke-width="2"><g><path d="M 22 10L 274 10C 274 10 286 10 286 22L 286 52C 286 52 286 64 274 64L 22 64C 22 64 10 64 10 52L 10 22C 10 22 10 10 22 10"></path></g></g></g><g id="g-root-ro_qvwhdh1q78av5-stroke" data-item-order="999985744" data-item-id="ro_qvwhdh1q78av5" data-item-class="Shape Stroke Fill" data-item-index="none" data-renderer-id="0" transform="translate(566, 153)"><g id="ro_qvwhdh1q78av5-stroke" fill="none" stroke-linecap="round" stroke-linejoin="round" stroke-miterlimit="4" stroke="#dd8433" stroke-width="2"><g><path d="M 22 10L 262 10C 262 10 274 10 274 22L 274 52C 274 52 274 64 262 64L 22 64C 22 64 10 64 10 52L 10 22C 10 22 10 10 22 10"></path></g></g></g><g id="g-root-ro_8d2ph1q6vncz-stroke" data-item-order="999987040" data-item-id="ro_8d2ph1q6vncz" data-item-class="Shape Stroke Fill" data-item-index="none" data-renderer-id="0" transform="translate(50, 3)"><g id="ro_8d2ph1q6vncz-stroke" fill="none" stroke-linecap="round" stroke-linejoin="round" stroke-miterlimit="4" stroke="#4682e3" stroke-width="2"><g><path d="M 22 10L 238 10C 238 10 250 10 250 22L 250 52C 250 52 250 64 238 64L 22 64C 22 64 10 64 10 52L 10 22C 10 22 10 10 22 10"></path></g></g></g><g id="g-root-ro_qqwrud1q718g3-stroke" data-item-order="999991576" data-item-id="ro_qqwrud1q718g3" data-item-class="Shape Stroke Fill" data-item-index="none" data-renderer-id="0" transform="translate(134, 153)"><g id="ro_qqwrud1q718g3-stroke" fill="none" stroke-linecap="round" stroke-linejoin="round" stroke-miterlimit="4" stroke="#e15e5a" stroke-width="2"><g><path d="M 22 10L 154 10C 154 10 166 10 166 22L 166 52C 166 52 166 64 154 64L 22 64C 22 64 10 64 10 52L 10 22C 10 22 10 10 22 10"></path></g></g></g><g id="g-root-tx_versions_14148vp1q75g5r-stroke" data-item-order="1000000000" data-item-id="tx_versions_14148vp1q75g5r" data-item-class="Label Stroke" data-item-index="none" data-renderer-id="0" transform="translate(614, 18)"></g><g id="g-root-cu_hv9rlh1q7198s-stroke" data-item-order="1000000000" data-item-id="cu_hv9rlh1q7198s" data-item-class="Curve Stroke ColorStrokeGray" data-item-index="none" data-renderer-id="0" transform="translate(290, 30)"><g id="cu_hv9rlh1q7198s-stroke" fill="none" stroke-linecap="round" stroke-linejoin="round" stroke-miterlimit="4" stroke="#888888" stroke-width="2" stroke-dasharray="5.0, 7.0"><g><path d="M 58 88L 55 88L 54.9 88C 43.357247 88.000005 33.999998 78.642755 33.999999 67.100003L 34 67L 34 30.9C 33.999998 19.357248 24.64275 10 13.1 10L 13 10L 10 10"></path></g></g></g><g id="g-root-cu_dfg9h11q71a13-stroke" data-item-order="1000000000" data-item-id="cu_dfg9h11q71a13" data-item-class="Curve Stroke ColorStrokeGray" data-item-index="none" data-renderer-id="0" transform="translate(518, 30)"><g id="cu_dfg9h11q71a13-stroke" fill="none" stroke-linecap="round" stroke-linejoin="round" stroke-miterlimit="4" stroke="#888888" stroke-width="2" stroke-dasharray="5.0, 7.0"><g><path d="M 10 88L 13 88L 13.1 88C 24.642753 88.000001 34.000002 78.642752 34.000002 67.100001L 34 67L 34 30.9C 33.999999 19.357249 43.357248 10.000001 54.899999 10.000002L 55 10L 58 10"></path></g></g></g><g id="g-root-tx_webm_8zmrcl1q6rf2e-stroke" data-item-order="1000000000" data-item-id="tx_webm_8zmrcl1q6rf2e" data-item-class="Label Stroke" data-item-index="none" data-renderer-id="0" transform="translate(170, 69)"></g><g id="g-root-cu_hv9rlh1q71a0w-stroke" data-item-order="1000000000" data-item-id="cu_hv9rlh1q71a0w" data-item-class="Curve Stroke ColorStrokeGray" data-item-index="none" data-renderer-id="0" transform="translate(248, 57)"><g id="cu_hv9rlh1q71a0w-stroke" fill="none" stroke-linecap="round" stroke-linejoin="round" stroke-miterlimit="4" stroke="#888888" stroke-width="2" stroke-dasharray="5.0, 7.0"><g><path d="M 28 10L 28 22L 28 34L 19 34L 10 34"></path></g></g></g><g id="g-root-cu_8zmrcl1q71atn-stroke" data-item-order="1000000000" data-item-id="cu_8zmrcl1q71atn" data-item-class="Curve Stroke ColorStrokeGray" data-item-index="none" data-renderer-id="0" transform="translate(248, 57)"><g id="cu_8zmrcl1q71atn-stroke" fill="none" stroke-linecap="round" stroke-linejoin="round" stroke-miterlimit="4" stroke="#888888" stroke-width="2" stroke-dasharray="5.0, 7.0"><g><path d="M 28 10L 28 17.5L 28 58C 27.999999 64.627415 22.627416 69.999998 16 69.999998L 15.9 70L 10 70"></path></g></g></g><g id="g-root-titl_qn5u5x1q6yg3r-stroke" data-item-order="1000000000" data-item-id="titl_qn5u5x1q6yg3r" data-item-class="Icon Stroke" data-item-index="none" data-renderer-id="0" transform="translate(404, 66)"><g id="titl_qn5u5x1q6yg3r-stroke" fill="none" stroke-linecap="round" stroke-linejoin="round" stroke-miterlimit="4" stroke="#484848" stroke-width="2"><g><path d="M 15 13L 53 13C 53 13 57 13 57 17L 57 51C 57 51 57 55 53 55L 15 55C 15 55 11 55 11 51L 11 17C 11 17 11 13 15 13M 31 31.062L 31 31C 31 28.790861 29.209139 27 27 27L 23 27C 20.790861 27 19 28.790861 19 31L 19 37C 19 39.209137 20.790861 41 23 41L 27 41C 29.209139 41 31 39.209137 31 37L 31 36.958M 49 31.062L 49 31C 49 28.790861 47.209141 27 45 27L 41 27C 38.790863 27 37 28.790861 37 31L 37 37C 37 39.209137 38.790863 41 41 41L 45 41C 47.209141 41 49 39.209137 49 37L 49 36.958"></path></g></g></g><g id="g-root-cu_4kfqb91q718g5-stroke" data-item-order="1000000000" data-item-id="cu_4kfqb91q718g5" data-item-class="Curve Stroke ColorStrokeGray" data-item-index="none" data-renderer-id="0" transform="translate(590, 57)"><g id="cu_4kfqb91q718g5-stroke" fill="none" stroke-linecap="round" stroke-linejoin="round" stroke-miterlimit="4" stroke="#888888" stroke-width="2" stroke-dasharray="5.0, 7.0"><g><path d="M 10 10L 10 22L 10 34L 19 34L 28 34"></path></g></g></g><g id="g-root-cu_4kfqb91q718g8-stroke" data-item-order="1000000000" data-item-id="cu_4kfqb91q718g8" data-item-class="Curve Stroke ColorStrokeGray" data-item-index="none" data-renderer-id="0" transform="translate(590, 57)"><g id="cu_4kfqb91q718g8-stroke" fill="none" stroke-linecap="round" stroke-linejoin="round" stroke-miterlimit="4" stroke="#888888" stroke-width="2" stroke-dasharray="5.0, 7.0"><g><path d="M 10 10L 10 17.5L 10 58C 10.000002 64.627417 15.372585 70 22.000002 69.999999L 22.1 70L 28 70"></path></g></g></g><g id="g-root-tx_taillede_1upaayd1q6rgg8-stroke" data-item-order="1000000000" data-item-id="tx_taillede_1upaayd1q6rgg8" data-item-class="Label Stroke" data-item-index="none" data-renderer-id="0" transform="translate(614, 69)"></g><g id="g-root-tx_mp4_3zr3p1q6rfv3-stroke" data-item-order="1000000000" data-item-id="tx_mp4_3zr3p1q6rfv3" data-item-class="Label Stroke" data-item-index="none" data-renderer-id="0" transform="translate(194, 105)"></g><g id="g-root-tx_prservat_1upaayd1q6rgg9-stroke" data-item-order="1000000000" data-item-id="tx_prservat_1upaayd1q6rgg9" data-item-class="Label Stroke" data-item-index="none" data-renderer-id="0" transform="translate(614, 105)"></g><g id="g-root-tx_optimisa_147zgtx1q6x346-stroke" data-item-order="1000000000" data-item-id="tx_optimisa_147zgtx1q6x346" data-item-class="Label Stroke" data-item-index="none" data-renderer-id="0" transform="translate(362, 120)"></g><g id="g-root-2_zlaqr91q75gy0-stroke" data-item-order="1000000000" data-item-id="2_zlaqr91q75gy0" data-item-class="Icon Stroke" data-item-index="none" data-renderer-id="0" transform="translate(578, 15)"><g id="2_zlaqr91q75gy0-stroke" fill="none" stroke-linecap="round" stroke-linejoin="round" stroke-miterlimit="4" stroke="#3bc482" stroke-width="2"><g><path d="M 34.375 25.625L 34.375 18.09375C 34.375 13.968873 31.031128 10.625 26.90625 10.625L 11.875 10.625C 11.184644 10.625 10.625 11.184644 10.625 11.875L 10.625 38.125C 10.625 38.815353 11.184644 39.375 11.875 39.375L 15.625 39.375M 28.125 10.725L 28.125 15.625C 28.125 16.315355 28.684643 16.875 29.375 16.875L 34.275002 16.875M 24.25 39.375L 19.75 39.375C 19.522797 39.375 19.313488 39.251701 19.203346 39.052979C 19.093206 38.854259 19.099583 38.61142 19.219999 38.418751L 24.275 30.331249C 24.394955 30.139339 24.401791 29.897577 24.292875 29.699194C 24.18396 29.500811 23.976309 29.376806 23.75 29.375L 19.25 29.375M 29.375 29.375L 29.375 39.375M 26.875 39.375L 31.875 39.375M 26.875 29.375L 31.875 29.375M 39.375 31.875C 39.375 33.255714 38.255714 34.375 36.875 34.375L 34.375 34.375L 34.375 29.375L 36.875 29.375C 38.255714 29.375 39.375 30.494287 39.375 31.875ZM 34.375 39.375L 34.375 34.375"></path></g></g></g><g id="g-root-arch_qqwrud1q718g2-stroke" data-item-order="1000000000" data-item-id="arch_qqwrud1q718g2" data-item-class="Icon Stroke" data-item-index="none" data-renderer-id="0" transform="translate(248, 165)"><g id="arch_qqwrud1q718g2-stroke" fill="none" stroke-linecap="round" stroke-linejoin="round" stroke-miterlimit="4" stroke="#e15e5a" stroke-width="2"><g><path d="M 39.375 18.75C 39.375 19.440355 38.815353 20 38.125 20L 11.875 20C 11.184644 20 10.625 19.440355 10.625 18.75L 10.625 15C 10.625 14.309644 11.184644 13.75 11.875 13.75L 38.125 13.75C 38.815353 13.75 39.375 14.309644 39.375 15ZM 38.125 22.5L 38.125 35C 38.125 35.690353 37.565353 36.25 36.875 36.25L 13.125 36.25C 12.434644 36.25 11.875 35.690353 11.875 35L 11.875 22.5M 29.375 25.625C 29.375002 26.660534 28.535534 27.5 27.5 27.5L 22.5 27.5C 21.464466 27.5 20.625 26.660534 20.625 25.625C 20.625 24.589466 21.464466 23.75 22.5 23.75L 27.5 23.75C 28.535534 23.75 29.375002 24.589466 29.375 25.625Z"></path></g></g></g><g id="g-root-pyra_4o6ktx1q6vmkq-stroke" data-item-order="1000000000" data-item-id="pyra_4o6ktx1q6vmkq" data-item-class="Icon Stroke" data-item-index="none" data-renderer-id="0" transform="translate(248, 15)"><g id="pyra_4o6ktx1q6vmkq-stroke" fill="none" stroke-linecap="round" stroke-linejoin="round" stroke-miterlimit="4" stroke="#4682e3" stroke-width="2"><g><path d="M 36.508751 15.625C 36.743187 15.859366 36.874928 16.177258 36.875 16.508749L 36.875 38.125C 36.875 38.815353 36.315353 39.375 35.625 39.375L 14.375 39.375C 13.684644 39.375 13.125 38.815353 13.125 38.125L 13.125 11.875C 13.125 11.184644 13.684644 10.625 14.375 10.625L 30.991249 10.625C 31.322744 10.625071 31.640635 10.756813 31.875 10.99125ZM 19.375 31.875C 19.375 33.255714 21.893398 34.375 25 34.375C 28.106602 34.375 30.625 33.255714 30.625 31.875C 30.625 30.494287 28.106602 29.375 25 29.375C 21.893398 29.375 19.375 30.494287 19.375 31.875ZM 19.77 30.952499L 24.424999 20.09C 24.52318 19.859529 24.749487 19.709949 25 19.709949C 25.250513 19.709949 25.47682 19.859529 25.575001 20.09L 30.23 30.952499"></path></g></g></g><g id="g-root-tx_fallback_hs5e5x1q718u9-stroke" data-item-order="1000000000" data-item-id="tx_fallback_hs5e5x1q718u9" data-item-class="Label Stroke" data-item-index="none" data-renderer-id="0" transform="translate(146, 168)"></g><g id="g-root-cu_dfg9h11q71a19-stroke" data-item-order="1000000000" data-item-id="cu_dfg9h11q71a19" data-item-class="Curve Stroke ColorStrokeGray" data-item-index="none" data-renderer-id="0" transform="translate(290, 174)"><g id="cu_dfg9h11q71a19-stroke" fill="none" stroke-linecap="round" stroke-linejoin="round" stroke-miterlimit="4" stroke="#888888" stroke-width="2" stroke-dasharray="5.0, 7.0"><g><path d="M 58 10L 55 10L 54.9 10C 51.688705 10.016366 48.132487 10.28476 44.300001 10.799998C 42.131706 11.054283 38.50188 11.829586 33.999999 13C 29.498118 14.170414 25.868292 14.945717 23.699999 15.2C 19.867515 15.715237 16.311297 15.983631 13.1 16L 13 16L 10 16"></path></g></g></g><g id="g-root-cu_dfg9h11q71a16-stroke" data-item-order="1000000000" data-item-id="cu_dfg9h11q71a16" data-item-class="Curve Stroke ColorStrokeGray" data-item-index="none" data-renderer-id="0" transform="translate(518, 174)"><g id="cu_dfg9h11q71a16-stroke" fill="none" stroke-linecap="round" stroke-linejoin="round" stroke-miterlimit="4" stroke="#888888" stroke-width="2" stroke-dasharray="5.0, 7.0"><g><path d="M 10 10L 13 10L 13.1 10C 16.311297 10.016369 19.867515 10.284763 23.700001 10.800001C 25.868292 11.054283 29.498118 11.829585 33.999999 13C 38.50188 14.170414 42.131706 14.945717 44.299999 15.2C 48.132487 15.71524 51.688705 15.983634 54.900002 16.000002L 55 16L 58 16"></path></g></g></g><g id="g-root-1_qvwhdh1q78av4-stroke" data-item-order="1000000000" data-item-id="1_qvwhdh1q78av4" data-item-class="Icon Stroke" data-item-index="none" data-renderer-id="0" transform="translate(578, 165)"><g id="1_qvwhdh1q78av4-stroke" fill="none" stroke-linecap="round" stroke-linejoin="round" stroke-miterlimit="4" stroke="#dd8433" stroke-width="2"><g><path d="M 13.125 35.625L 13.125 23.125C 13.125 22.434643 13.684644 21.875 14.375 21.875M 31.875 35.625L 31.875 30.625M 18.125 10.625L 25.625 10.625C 25.625 10.625 26.875 10.625 26.875 11.875L 26.875 26.875C 26.875 26.875 26.875 28.125 25.625 28.125L 18.125 28.125C 18.125 28.125 16.875 28.125 16.875 26.875L 16.875 11.875C 16.875 11.875 16.875 10.625 18.125 10.625M 30.625 10.625L 38.125 10.625C 38.125 10.625 39.375 10.625 39.375 11.875L 39.375 26.875C 39.375 26.875 39.375 28.125 38.125 28.125L 30.625 28.125C 30.625 28.125 29.375 28.125 29.375 26.875L 29.375 11.875C 29.375 11.875 29.375 10.625 30.625 10.625M 34.375 25L 34.375 25C 34.547588 25 34.6875 25.139912 34.6875 25.3125L 34.6875 25.3125C 34.6875 25.485088 34.547588 25.625 34.375 25.625L 34.375 25.625C 34.202412 25.625 34.0625 25.485088 34.0625 25.3125L 34.0625 25.3125C 34.0625 25.139912 34.202412 25 34.375 25M 24.375 35.625C 24.375 36.660534 23.535534 37.5 22.5 37.5C 21.464466 37.5 20.625 36.660534 20.625 35.625L 10.625 35.625L 10.625 36.875C 10.625 38.255714 11.744288 39.375 13.125 39.375L 31.875 39.375C 33.255714 39.375 34.375 38.255714 34.375 36.875L 34.375 35.625ZM 18.125 10.625L 20 13.125L 23.75 13.125L 25.625 10.625"></path></g></g></g><g id="g-root-tx_chargeme_zrjhmd1q789an-stroke" data-item-order="1000000000" data-item-id="tx_chargeme_zrjhmd1q789an" data-item-class="Label Stroke" data-item-index="none" data-renderer-id="0" transform="translate(614, 168)"></g><g id="g-root-tx_dgradati_1heg9o51q6revg-stroke" data-item-order="1000000000" data-item-id="tx_dgradati_1heg9o51q6revg" data-item-class="Label Stroke" data-item-index="none" data-renderer-id="0" transform="translate(38, 219)"></g><g id="g-root-cu_4m86t1q7198n-stroke" data-item-order="1000000000" data-item-id="cu_4m86t1q7198n" data-item-class="Curve Stroke ColorStrokeGray" data-item-index="none" data-renderer-id="0" transform="translate(248, 207)"><g id="cu_4m86t1q7198n-stroke" fill="none" stroke-linecap="round" stroke-linejoin="round" stroke-miterlimit="4" stroke="#888888" stroke-width="2" stroke-dasharray="5.0, 7.0"><g><path d="M 28 10L 28 22L 28 34L 19 34L 10 34"></path></g></g></g><g id="g-root-cu_1upws1h1q719tu-stroke" data-item-order="1000000000" data-item-id="cu_1upws1h1q719tu" data-item-class="Curve Stroke ColorStrokeGray" data-item-index="none" data-renderer-id="0" transform="translate(248, 207)"><g id="cu_1upws1h1q719tu-stroke" fill="none" stroke-linecap="round" stroke-linejoin="round" stroke-miterlimit="4" stroke="#888888" stroke-width="2" stroke-dasharray="5.0, 7.0"><g><path d="M 28 10L 28 17.5L 28 58C 27.999999 64.627415 22.627416 69.999998 16 69.999998L 15.9 70L 10 70"></path></g></g></g><g id="g-root-cu_4m86t1q7198i-stroke" data-item-order="1000000000" data-item-id="cu_4m86t1q7198i" data-item-class="Curve Stroke ColorStrokeGray" data-item-index="none" data-renderer-id="0" transform="translate(590, 207)"><g id="cu_4m86t1q7198i-stroke" fill="none" stroke-linecap="round" stroke-linejoin="round" stroke-miterlimit="4" stroke="#888888" stroke-width="2" stroke-dasharray="5.0, 7.0"><g><path d="M 10 10L 10 22L 10 34L 19 34L 28 34"></path></g></g></g><g id="g-root-cu_4m86t1q7198l-stroke" data-item-order="1000000000" data-item-id="cu_4m86t1q7198l" data-item-class="Curve Stroke ColorStrokeGray" data-item-index="none" data-renderer-id="0" transform="translate(590, 207)"><g id="cu_4m86t1q7198l-stroke" fill="none" stroke-linecap="round" stroke-linejoin="round" stroke-miterlimit="4" stroke="#888888" stroke-width="2" stroke-dasharray="5.0, 7.0"><g><path d="M 10 10L 10 17.5L 10 58C 10.000002 64.627417 15.372585 70 22.000002 69.999999L 22.1 70L 28 70"></path></g></g></g><g id="g-root-tx_gestiond_1q9gstx1q6rh8i-stroke" data-item-order="1000000000" data-item-id="tx_gestiond_1q9gstx1q6rh8i" data-item-class="Label Stroke" data-item-index="none" data-renderer-id="0" transform="translate(614, 219)"></g><g id="g-root-tx_compatib_1heg9o51q6revf-stroke" data-item-order="1000000000" data-item-id="tx_compatib_1heg9o51q6revf" data-item-class="Label Stroke" data-item-index="none" data-renderer-id="0" transform="translate(614, 255)"></g><g id="g-root-tx_formatso_dj73zp1q6voxt-stroke" data-item-order="1000000000" data-item-id="tx_formatso_dj73zp1q6voxt" data-item-class="Label Stroke" data-item-index="none" data-renderer-id="0" transform="translate(62, 18)"></g><g id="g-root-tx_supportm_142zrat1q6rggd-stroke" data-item-order="1000000000" data-item-id="tx_supportm_142zrat1q6rggd" data-item-class="Label Stroke" data-item-index="none" data-renderer-id="0" transform="translate(2, 255)"></g></g></g></svg>