<?xml version="1.0" encoding="utf-8" standalone="yes"?>
<!DOCTYPE svg PUBLIC "-//W3C//DTD SVG 1.1//EN" "http://www.w3.org/Graphics/SVG/1.1/DTD/svg11.dtd">
<svg width="792" height="265" viewBox="0 0 792 265" style="fill:none;stroke:none;fill-rule:evenodd;clip-rule:evenodd;stroke-linecap:round;stroke-linejoin:round;stroke-miterlimit:1.5;" version="1.1" xmlns="http://www.w3.org/2000/svg" xmlns:xlink="http://www.w3.org/1999/xlink"><style id="fontImports">@import url("https://fonts.googleapis.com/css2?family=Roboto:wght@400;700&amp;display=block");</style><rect id="" x="0" y="0" width="792" height="265" style="fill: #ffffff;"></rect><g id="items" style="isolation: isolate"><g id="blend" style="mix-blend-mode:normal"><g id="g-root-ro_18hkhg51rl94az-fill" data-item-order="999976600" data-item-id="ro_18hkhg51rl94az" data-item-class="Shape Stroke Fill" data-item-index="none" data-renderer-id="0" transform="translate(230, 48)"><g id="ro_18hkhg51rl94az-fill" stroke="none" fill="#f0f0f0"><g><path d="M 34 10L 142 10C 142 10 166 10 166 34L 166 136C 166 136 166 160 142 160L 34 160C 34 160 10 160 10 136L 10 34C 10 34 10 10 34 10"></path></g></g></g><g id="g-root-ro_v2zot11rkqsjz-fill" data-item-order="999988336" data-item-id="ro_v2zot11rkqsjz" data-item-class="Shape Stroke Fill" data-item-index="none" data-renderer-id="0" transform="translate(434, 21)"><g id="ro_v2zot11rkqsjz-fill" stroke="none" fill="#e9fbf3"><g><path d="M 22 10L 214 10C 214 10 226 10 226 22L 226 52C 226 52 226 64 214 64L 22 64C 22 64 10 64 10 52L 10 22C 10 22 10 10 22 10"></path></g></g></g><g id="g-root-ro_1cwrln91rks7wt-fill" data-item-order="999990280" data-item-id="ro_1cwrln91rks7wt" data-item-class="Shape Stroke Fill" data-item-index="none" data-renderer-id="0" transform="translate(434, 135)"><g id="ro_1cwrln91rks7wt-fill" stroke="none" fill="#e6f9ff"><g><path d="M 22 10L 178 10C 178 10 190 10 190 22L 190 52C 190 52 190 64 178 64L 22 64C 22 64 10 64 10 52L 10 22C 10 22 10 10 22 10"></path></g></g></g><g id="g-root-ro_1ly0vo51rkxuz1-fill" data-item-order="999991576" data-item-id="ro_1ly0vo51rkxuz1" data-item-class="Shape Stroke Fill" data-item-index="none" data-renderer-id="0" transform="translate(26, 153)"><g id="ro_1ly0vo51rkxuz1-fill" stroke="none" fill="#fef2e6"><g><path d="M 22 10L 154 10C 154 10 166 10 166 22L 166 52C 166 52 166 64 154 64L 22 64C 22 64 10 64 10 52L 10 22C 10 22 10 10 22 10"></path></g></g></g><g id="g-root-ro_1umsnyt1rkwgsu-fill" data-item-order="999992872" data-item-id="ro_1umsnyt1rkwgsu" data-item-class="Shape Stroke Fill" data-item-index="none" data-renderer-id="0" transform="translate(50, 3)"><g id="ro_1umsnyt1rkwgsu-fill" stroke="none" fill="#e6efff"><g><path d="M 22 10L 130 10C 130 10 142 10 142 22L 142 52C 142 52 142 64 130 64L 22 64C 22 64 10 64 10 52L 10 22C 10 22 10 10 22 10"></path></g></g></g><g id="g-root-3_v2zot11rkqsjy-fill" data-item-order="1000000000" data-item-id="3_v2zot11rkqsjy" data-item-class="Icon Stroke" data-item-index="none" data-renderer-id="0" transform="translate(446, 33)"></g><g id="g-root-cu_1d30cid1rkxte2-fill" data-item-order="1000000000" data-item-id="cu_1d30cid1rkxte2" data-item-class="Curve Stroke ColorStrokeGray" data-item-index="none" data-renderer-id="0" transform="translate(140, 57)"></g><g id="g-root-cu_1d30cid1rkxte5-fill" data-item-order="1000000000" data-item-id="cu_1d30cid1rkxte5" data-item-class="Curve Stroke ColorStrokeGray" data-item-index="none" data-renderer-id="0" transform="translate(140, 57)"></g><g id="g-root-cu_1hi7djp1rkxvrd-fill" data-item-order="1000000000" data-item-id="cu_1hi7djp1rkxvrd" data-item-class="Curve Stroke ColorStrokeGray" data-item-index="none" data-renderer-id="0" transform="translate(386, 48)"></g><g id="g-root-tx_objetsde_18ntbh11rkpfkd-fill" data-item-order="1000000000" data-item-id="tx_objetsde_18ntbh11rkpfkd" data-item-class="Label Stroke" data-item-index="none" data-renderer-id="0" transform="translate(482, 36)"><g id="tx_objetsde_18ntbh11rkpfkd-fill" stroke="none" fill="#3bc482"><g><text style="font: 20px Roboto, sans-serif; white-space: pre;" font-weight="20px" font-size="Roboto," font-family="sans-serif"><tspan x="15.31" y="33.75" dominant-baseline="ideographic">Objets de Valeur</tspan></text></g></g></g><g id="g-root-tx_identit_74dw51rktlos-fill" data-item-order="1000000000" data-item-id="tx_identit_74dw51rktlos" data-item-class="Label Stroke" data-item-index="none" data-renderer-id="0" transform="translate(62, 69)"><g id="tx_identit_74dw51rktlos-fill" stroke="none" fill="#484848"><g><text style="font: 20px Roboto, sans-serif; white-space: pre;" font-weight="20px" font-size="Roboto," font-family="sans-serif"><tspan x="12.56" y="33.75" dominant-baseline="ideographic">Identité</tspan></text></g></g></g><g id="g-root-lock_1hd7hp11rl93ia-fill" data-item-order="1000000000" data-item-id="lock_1hd7hp11rl93ia" data-item-class="Icon Stroke" data-item-index="none" data-renderer-id="0" transform="translate(284, 72)"></g><g id="g-root-cu_18n6udx1rkxu6f-fill" data-item-order="1000000000" data-item-id="cu_18n6udx1rkxu6f" data-item-class="Curve Stroke ColorStrokeGray" data-item-index="none" data-renderer-id="0" transform="translate(458, 75)"></g><g id="g-root-tx_immutabi_1usexqt1rktm9y-fill" data-item-order="1000000000" data-item-id="tx_immutabi_1usexqt1rktm9y" data-item-class="Label Stroke" data-item-index="none" data-renderer-id="0" transform="translate(482, 87)"><g id="tx_immutabi_1usexqt1rktm9y-fill" stroke="none" fill="#484848"><g><text style="font: 20px Roboto, sans-serif; white-space: pre;" font-weight="20px" font-size="Roboto," font-family="sans-serif"><tspan x="14.07" y="33.75" dominant-baseline="ideographic">Immutabilité</tspan></text></g></g></g><g id="g-root-tx_cycledev_1usexqt1rktm9x-fill" data-item-order="1000000000" data-item-id="tx_cycledev_1usexqt1rktm9x" data-item-class="Label Stroke" data-item-index="none" data-renderer-id="0" transform="translate(14, 105)"><g id="tx_cycledev_1usexqt1rktm9x-fill" stroke="none" fill="#484848"><g><text style="font: 20px Roboto, sans-serif; white-space: pre;" font-weight="20px" font-size="Roboto," font-family="sans-serif"><tspan x="15.89" y="33.75" dominant-baseline="ideographic">Cycle de Vie</tspan></text></g></g></g><g id="g-root-tx_couchede_1lt0zth1rl92q1-fill" data-item-order="1000000000" data-item-id="tx_couchede_1lt0zth1rl92q1" data-item-class="Label Stroke" data-item-index="none" data-renderer-id="0" transform="translate(254, 126)"><g id="tx_couchede_1lt0zth1rl92q1-fill" stroke="none" fill="#484848"><g><text style="font: 20px Roboto, sans-serif; white-space: pre;" font-weight="20px" font-size="Roboto," font-family="sans-serif"><tspan x="14.34" y="33.75" dominant-baseline="ideographic">Couche de </tspan><tspan x="21.8" y="57.75" dominant-baseline="ideographic">Domaine</tspan></text></g></g></g><g id="g-root-cu_1ly0vo51rkxuz2-fill" data-item-order="1000000000" data-item-id="cu_1ly0vo51rkxuz2" data-item-class="Curve Stroke ColorStrokeGray" data-item-index="none" data-renderer-id="0" transform="translate(182, 30)"></g><g id="g-root-1_4hbm8l1rkwg79-fill" data-item-order="1000000000" data-item-id="1_4hbm8l1rkwg79" data-item-class="Icon Stroke" data-item-index="none" data-renderer-id="0" transform="translate(140, 15)"></g><g id="g-root-cu_1hi7djp1rkxvrj-fill" data-item-order="1000000000" data-item-id="cu_1hi7djp1rkxvrj" data-item-class="Curve Stroke ColorStrokeGray" data-item-index="none" data-renderer-id="0" transform="translate(182, 148)"></g><g id="g-root-cu_1hi7djp1rkxvrg-fill" data-item-order="1000000000" data-item-id="cu_1hi7djp1rkxvrg" data-item-class="Curve Stroke ColorStrokeGray" data-item-index="none" data-renderer-id="0" transform="translate(386, 148)"></g><g id="g-root-brow_1lselw51rks744-fill" data-item-order="1000000000" data-item-id="brow_1lselw51rks744" data-item-class="Icon Stroke" data-item-index="none" data-renderer-id="0" transform="translate(446, 147)"></g><g id="g-root-tx_vnements_1q7lmxh1rks9hn-fill" data-item-order="1000000000" data-item-id="tx_vnements_1q7lmxh1rks9hn" data-item-class="Label Stroke" data-item-index="none" data-renderer-id="0" transform="translate(482, 150)"><g id="tx_vnements_1q7lmxh1rks9hn-fill" stroke="none" fill="#17b0e3"><g><text style="font: 20px Roboto, sans-serif; white-space: pre;" font-weight="20px" font-size="Roboto," font-family="sans-serif"><tspan x="15.55" y="33.75" dominant-baseline="ideographic">Événements</tspan></text></g></g></g><g id="g-root-tx_politiqu_940cb91rkxssj-fill" data-item-order="1000000000" data-item-id="tx_politiqu_940cb91rkxssj" data-item-class="Label Stroke" data-item-index="none" data-renderer-id="0" transform="translate(38, 168)"><g id="tx_politiqu_940cb91rkxssj-fill" stroke="none" fill="#dd8433"><g><text style="font: 20px Roboto, sans-serif; white-space: pre;" font-weight="20px" font-size="Roboto," font-family="sans-serif"><tspan x="13.85" y="33.75" dominant-baseline="ideographic">Politiques</tspan></text></g></g></g><g id="g-root-2_1utnvx11rkxu6c-fill" data-item-order="1000000000" data-item-id="2_1utnvx11rkxu6c" data-item-class="Icon Stroke" data-item-index="none" data-renderer-id="0" transform="translate(140, 165)"></g><g id="g-root-cu_147dc9h1rkxuyq-fill" data-item-order="1000000000" data-item-id="cu_147dc9h1rkxuyq" data-item-class="Curve Stroke ColorStrokeGray" data-item-index="none" data-renderer-id="0" transform="translate(458, 189)"></g><g id="g-root-cu_vbqc0l1rkxvrh-fill" data-item-order="1000000000" data-item-id="cu_vbqc0l1rkxvrh" data-item-class="Curve Stroke ColorStrokeGray" data-item-index="none" data-renderer-id="0" transform="translate(140, 207)"></g><g id="g-root-tx_communic_1lwrxhx1rktn2n-fill" data-item-order="1000000000" data-item-id="tx_communic_1lwrxhx1rktn2n" data-item-class="Label Stroke" data-item-index="none" data-renderer-id="0" transform="translate(482, 201)"><g id="tx_communic_1lwrxhx1rktn2n-fill" stroke="none" fill="#484848"><g><text style="font: 20px Roboto, sans-serif; white-space: pre;" font-weight="20px" font-size="Roboto," font-family="sans-serif"><tspan x="15.4" y="33.75" dominant-baseline="ideographic">Communication entre Agrégats</tspan></text></g></g></g><g id="g-root-tx_entits_8x54d11rkwff0-fill" data-item-order="1000000000" data-item-id="tx_entits_8x54d11rkwff0" data-item-class="Label Stroke" data-item-index="none" data-renderer-id="0" transform="translate(62, 18)"><g id="tx_entits_8x54d11rkwff0-fill" stroke="none" fill="#4682e3"><g><text style="font: 20px Roboto, sans-serif; white-space: pre;" font-weight="20px" font-size="Roboto," font-family="sans-serif"><tspan x="15.38" y="33.75" dominant-baseline="ideographic">Entités</tspan></text></g></g></g><g id="g-root-tx_rglesmti_1qclfmd1rktn28-fill" data-item-order="1000000000" data-item-id="tx_rglesmti_1qclfmd1rktn28" data-item-class="Label Stroke" data-item-index="none" data-renderer-id="0" transform="translate(2, 219)"><g id="tx_rglesmti_1qclfmd1rktn28-fill" stroke="none" fill="#484848"><g><text style="font: 20px Roboto, sans-serif; white-space: pre;" font-weight="20px" font-size="Roboto," font-family="sans-serif"><tspan x="15.17" y="33.75" dominant-baseline="ideographic">Règles Métier</tspan></text></g></g></g><g id="g-root-ro_18hkhg51rl94az-stroke" data-item-order="999976600" data-item-id="ro_18hkhg51rl94az" data-item-class="Shape Stroke Fill" data-item-index="none" data-renderer-id="0" transform="translate(230, 48)"><g id="ro_18hkhg51rl94az-stroke" fill="none" stroke-linecap="round" stroke-linejoin="round" stroke-miterlimit="4" stroke="#484848" stroke-width="2"><g><path d="M 34 10L 142 10C 142 10 166 10 166 34L 166 136C 166 136 166 160 142 160L 34 160C 34 160 10 160 10 136L 10 34C 10 34 10 10 34 10"></path></g></g></g><g id="g-root-ro_v2zot11rkqsjz-stroke" data-item-order="999988336" data-item-id="ro_v2zot11rkqsjz" data-item-class="Shape Stroke Fill" data-item-index="none" data-renderer-id="0" transform="translate(434, 21)"><g id="ro_v2zot11rkqsjz-stroke" fill="none" stroke-linecap="round" stroke-linejoin="round" stroke-miterlimit="4" stroke="#3bc482" stroke-width="2"><g><path d="M 22 10L 214 10C 214 10 226 10 226 22L 226 52C 226 52 226 64 214 64L 22 64C 22 64 10 64 10 52L 10 22C 10 22 10 10 22 10"></path></g></g></g><g id="g-root-ro_1cwrln91rks7wt-stroke" data-item-order="999990280" data-item-id="ro_1cwrln91rks7wt" data-item-class="Shape Stroke Fill" data-item-index="none" data-renderer-id="0" transform="translate(434, 135)"><g id="ro_1cwrln91rks7wt-stroke" fill="none" stroke-linecap="round" stroke-linejoin="round" stroke-miterlimit="4" stroke="#17b0e3" stroke-width="2"><g><path d="M 22 10L 178 10C 178 10 190 10 190 22L 190 52C 190 52 190 64 178 64L 22 64C 22 64 10 64 10 52L 10 22C 10 22 10 10 22 10"></path></g></g></g><g id="g-root-ro_1ly0vo51rkxuz1-stroke" data-item-order="999991576" data-item-id="ro_1ly0vo51rkxuz1" data-item-class="Shape Stroke Fill" data-item-index="none" data-renderer-id="0" transform="translate(26, 153)"><g id="ro_1ly0vo51rkxuz1-stroke" fill="none" stroke-linecap="round" stroke-linejoin="round" stroke-miterlimit="4" stroke="#dd8433" stroke-width="2"><g><path d="M 22 10L 154 10C 154 10 166 10 166 22L 166 52C 166 52 166 64 154 64L 22 64C 22 64 10 64 10 52L 10 22C 10 22 10 10 22 10"></path></g></g></g><g id="g-root-ro_1umsnyt1rkwgsu-stroke" data-item-order="999992872" data-item-id="ro_1umsnyt1rkwgsu" data-item-class="Shape Stroke Fill" data-item-index="none" data-renderer-id="0" transform="translate(50, 3)"><g id="ro_1umsnyt1rkwgsu-stroke" fill="none" stroke-linecap="round" stroke-linejoin="round" stroke-miterlimit="4" stroke="#4682e3" stroke-width="2"><g><path d="M 22 10L 130 10C 130 10 142 10 142 22L 142 52C 142 52 142 64 130 64L 22 64C 22 64 10 64 10 52L 10 22C 10 22 10 10 22 10"></path></g></g></g><g id="g-root-3_v2zot11rkqsjy-stroke" data-item-order="1000000000" data-item-id="3_v2zot11rkqsjy" data-item-class="Icon Stroke" data-item-index="none" data-renderer-id="0" transform="translate(446, 33)"><g id="3_v2zot11rkqsjy-stroke" fill="none" stroke-linecap="round" stroke-linejoin="round" stroke-miterlimit="4" stroke="#3bc482" stroke-width="2"><g><path d="M 26.875 28.125L 38.125 28.125C 38.815353 28.125 39.375 27.565357 39.375 26.875L 39.375 11.875C 39.375 11.184644 38.815353 10.625 38.125 10.625L 23.125 10.625M 28.502501 20.625L 33.125 20.625M 27.58 23.143751L 30.23875 16.0425C 30.330381 15.798846 30.563435 15.637501 30.82375 15.637501C 31.084063 15.637501 31.31712 15.798846 31.408751 16.0425L 34.067501 23.143751M 19.375 39.375L 20 31.875L 23.125 31.875L 23.125 27.5C 23.125 24.048222 20.32678 21.25 16.875 21.25C 13.423221 21.25 10.625 24.048222 10.625 27.5L 10.625 31.875L 13.75 31.875L 14.375 39.375ZM 12.5 15C 12.5 17.416246 14.458755 19.375 16.875 19.375C 19.291246 19.375 21.25 17.416246 21.25 15C 21.25 12.583755 19.291246 10.625 16.875 10.625C 14.458755 10.625 12.5 12.583755 12.5 15Z"></path></g></g></g><g id="g-root-cu_1d30cid1rkxte2-stroke" data-item-order="1000000000" data-item-id="cu_1d30cid1rkxte2" data-item-class="Curve Stroke ColorStrokeGray" data-item-index="none" data-renderer-id="0" transform="translate(140, 57)"><g id="cu_1d30cid1rkxte2-stroke" fill="none" stroke-linecap="round" stroke-linejoin="round" stroke-miterlimit="4" stroke="#888888" stroke-width="2" stroke-dasharray="5.0, 7.0"><g><path d="M 28 10L 28 22L 28 34L 19 34L 10 34"></path></g></g></g><g id="g-root-cu_1d30cid1rkxte5-stroke" data-item-order="1000000000" data-item-id="cu_1d30cid1rkxte5" data-item-class="Curve Stroke ColorStrokeGray" data-item-index="none" data-renderer-id="0" transform="translate(140, 57)"><g id="cu_1d30cid1rkxte5-stroke" fill="none" stroke-linecap="round" stroke-linejoin="round" stroke-miterlimit="4" stroke="#888888" stroke-width="2" stroke-dasharray="5.0, 7.0"><g><path d="M 28 10L 28 17.5L 28 58C 27.999999 64.627415 22.627416 69.999998 16 69.999998L 15.9 70L 10 70"></path></g></g></g><g id="g-root-cu_1hi7djp1rkxvrd-stroke" data-item-order="1000000000" data-item-id="cu_1hi7djp1rkxvrd" data-item-class="Curve Stroke ColorStrokeGray" data-item-index="none" data-renderer-id="0" transform="translate(386, 48)"><g id="cu_1hi7djp1rkxvrd-stroke" fill="none" stroke-linecap="round" stroke-linejoin="round" stroke-miterlimit="4" stroke="#888888" stroke-width="2" stroke-dasharray="5.0, 7.0"><g><path d="M 10 60L 13 60L 13.1 60C 24.642753 59.999998 34.000001 50.642749 34.000001 39.099998L 34 39L 34 30.9C 33.999999 19.357249 43.357248 10.000001 54.899999 10.000002L 55 10L 58 10"></path></g></g></g><g id="g-root-tx_objetsde_18ntbh11rkpfkd-stroke" data-item-order="1000000000" data-item-id="tx_objetsde_18ntbh11rkpfkd" data-item-class="Label Stroke" data-item-index="none" data-renderer-id="0" transform="translate(482, 36)"></g><g id="g-root-tx_identit_74dw51rktlos-stroke" data-item-order="1000000000" data-item-id="tx_identit_74dw51rktlos" data-item-class="Label Stroke" data-item-index="none" data-renderer-id="0" transform="translate(62, 69)"></g><g id="g-root-lock_1hd7hp11rl93ia-stroke" data-item-order="1000000000" data-item-id="lock_1hd7hp11rl93ia" data-item-class="Icon Stroke" data-item-index="none" data-renderer-id="0" transform="translate(284, 72)"><g id="lock_1hd7hp11rl93ia-stroke" fill="none" stroke-linecap="round" stroke-linejoin="round" stroke-miterlimit="4" stroke="#484848" stroke-width="2"><g><path d="M 35.526001 45.495998L 15.378 45.495998C 13.069907 45.493793 11.199999 43.622093 11.2 41.314003L 11.2 15.182C 11.199999 12.873906 13.069907 11.002208 15.378 11L 46.737999 11C 49.046875 11.001104 50.918003 12.873126 50.918003 15.182L 50.917999 27.854M 11.196 19.166L 50.917999 19.166M 11.196 36.515999L 35.526001 36.515999M 11.196 27.854L 50.917999 27.854M 27.42 19.166L 27.42 45.495998M 39.052002 19.166L 39.052002 33.206001M 39.672001 45.104C 39.671997 43.461506 41.003502 42.130001 42.646 42.130001L 53.830002 42.130001C 55.470932 42.132206 56.799999 43.463066 56.799999 45.104L 56.799999 54.026001C 56.799999 55.666935 55.470932 56.997791 53.829998 57L 42.646 57C 41.003502 57 39.671997 55.668495 39.671997 54.026001ZM 48.237999 33.200001L 48.237999 33.200001C 45.019161 33.266701 42.463272 35.929119 42.528 39.147999L 42.528 42.124001L 53.948002 42.124001L 53.948002 39.153999C 54.01609 35.9328 51.459229 33.266678 48.237999 33.199997ZM 48.237999 47.481998C 47.359489 47.446079 46.547329 47.94772 46.186138 48.749352C 45.824951 49.550987 45.987244 50.49168 46.596161 51.125946C 47.205082 51.760212 48.138378 51.960716 48.954067 51.6325C 49.76976 51.304287 50.304085 50.513248 50.304001 49.634003C 50.327431 48.469349 49.40263 47.506054 48.237999 47.481998L 48.237999 47.481998"></path></g></g></g><g id="g-root-cu_18n6udx1rkxu6f-stroke" data-item-order="1000000000" data-item-id="cu_18n6udx1rkxu6f" data-item-class="Curve Stroke ColorStrokeGray" data-item-index="none" data-renderer-id="0" transform="translate(458, 75)"><g id="cu_18n6udx1rkxu6f-stroke" fill="none" stroke-linecap="round" stroke-linejoin="round" stroke-miterlimit="4" stroke="#888888" stroke-width="2" stroke-dasharray="5.0, 7.0"><g><path d="M 10 10L 10 13L 10 22C 10 28.627416 15.372583 33.999999 22 33.999999L 22.1 34L 28 34"></path></g></g></g><g id="g-root-tx_immutabi_1usexqt1rktm9y-stroke" data-item-order="1000000000" data-item-id="tx_immutabi_1usexqt1rktm9y" data-item-class="Label Stroke" data-item-index="none" data-renderer-id="0" transform="translate(482, 87)"></g><g id="g-root-tx_cycledev_1usexqt1rktm9x-stroke" data-item-order="1000000000" data-item-id="tx_cycledev_1usexqt1rktm9x" data-item-class="Label Stroke" data-item-index="none" data-renderer-id="0" transform="translate(14, 105)"></g><g id="g-root-tx_couchede_1lt0zth1rl92q1-stroke" data-item-order="1000000000" data-item-id="tx_couchede_1lt0zth1rl92q1" data-item-class="Label Stroke" data-item-index="none" data-renderer-id="0" transform="translate(254, 126)"></g><g id="g-root-cu_1ly0vo51rkxuz2-stroke" data-item-order="1000000000" data-item-id="cu_1ly0vo51rkxuz2" data-item-class="Curve Stroke ColorStrokeGray" data-item-index="none" data-renderer-id="0" transform="translate(182, 30)"><g id="cu_1ly0vo51rkxuz2-stroke" fill="none" stroke-linecap="round" stroke-linejoin="round" stroke-miterlimit="4" stroke="#888888" stroke-width="2" stroke-dasharray="5.0, 7.0"><g><path d="M 58 78L 55 78L 54.9 78C 43.357246 77.999994 33.999999 68.642747 33.999998 57.099996L 34 57L 34 30.9C 33.999998 19.357248 24.64275 10 13.1 10L 13 10L 10 10"></path></g></g></g><g id="g-root-1_4hbm8l1rkwg79-stroke" data-item-order="1000000000" data-item-id="1_4hbm8l1rkwg79" data-item-class="Icon Stroke" data-item-index="none" data-renderer-id="0" transform="translate(140, 15)"><g id="1_4hbm8l1rkwg79-stroke" fill="none" stroke-linecap="round" stroke-linejoin="round" stroke-miterlimit="4" stroke="#4682e3" stroke-width="2"><g><path d="M 31.25 30.19875C 29.238623 32.612053 26.018631 33.653442 22.975 32.875M 10.625 25C 10.625 32.939095 17.060907 39.375 25 39.375C 32.939095 39.375 39.375 32.939095 39.375 25C 39.375 17.060907 32.939095 10.625 25 10.625C 17.060907 10.625 10.625 17.060907 10.625 25ZM 38.232502 19.375L 37.079998 23.008749C 36.585285 24.568506 35.136333 25.627396 33.5 25.625L 28.2075 25.625C 27.768517 25.624653 27.361887 25.394056 27.13625 25.0175L 25.946251 23.036249C 25.747202 22.703354 25.387867 22.499538 25 22.499538C 24.612133 22.499538 24.252798 22.703354 24.053749 23.036249L 22.86375 25.0175C 22.638113 25.394056 22.231483 25.624653 21.7925 25.625L 16.5 25.625C 14.865514 25.625214 13.41916 24.566748 12.925 23.008751L 11.7675 19.375Z"></path></g></g></g><g id="g-root-cu_1hi7djp1rkxvrj-stroke" data-item-order="1000000000" data-item-id="cu_1hi7djp1rkxvrj" data-item-class="Curve Stroke ColorStrokeGray" data-item-index="none" data-renderer-id="0" transform="translate(182, 148)"><g id="cu_1hi7djp1rkxvrj-stroke" fill="none" stroke-linecap="round" stroke-linejoin="round" stroke-miterlimit="4" stroke="#888888" stroke-width="2" stroke-dasharray="5.0, 7.0"><g><path d="M 58 10L 55 10L 54.9 10C 50.611929 10.004962 45.995266 11.578824 41.700001 14.500001C 39.147207 16.234511 36.356002 20.403194 34.000002 26.000001C 31.644001 31.596807 28.852796 35.76549 26.300001 37.500001C 22.004737 40.421177 17.388073 41.995039 13.100001 42L 13 42L 10 42"></path></g></g></g><g id="g-root-cu_1hi7djp1rkxvrg-stroke" data-item-order="1000000000" data-item-id="cu_1hi7djp1rkxvrg" data-item-class="Curve Stroke ColorStrokeGray" data-item-index="none" data-renderer-id="0" transform="translate(386, 148)"><g id="cu_1hi7djp1rkxvrg-stroke" fill="none" stroke-linecap="round" stroke-linejoin="round" stroke-miterlimit="4" stroke="#888888" stroke-width="2" stroke-dasharray="5.0, 7.0"><g><path d="M 10 10L 13 10L 13.1 10C 16.47715 10.00393 20.199416 10.613028 24.1 11.8C 26.434787 12.503612 29.936878 14.343094 34 16.999999C 38.063122 19.656905 41.565214 21.496387 43.900001 22.199999C 47.800584 23.386973 51.52285 23.996071 54.900001 24.000001L 55 24L 58 24"></path></g></g></g><g id="g-root-brow_1lselw51rks744-stroke" data-item-order="1000000000" data-item-id="brow_1lselw51rks744" data-item-class="Icon Stroke" data-item-index="none" data-renderer-id="0" transform="translate(446, 147)"><g id="brow_1lselw51rks744-stroke" fill="none" stroke-linecap="round" stroke-linejoin="round" stroke-miterlimit="4" stroke="#17b0e3" stroke-width="2"><g><path d="M 39.375 12.5C 39.375 11.809644 38.815353 11.25 38.125 11.25L 11.875 11.25C 11.184644 11.25 10.625 11.809644 10.625 12.5L 10.625 32.5C 10.625 33.190353 11.184644 33.75 11.875 33.75L 30 33.75L 30 38.75L 35 33.75L 38.125 33.75C 38.815353 33.75 39.375 33.190353 39.375 32.5ZM 14.375 31.25C 14.375 28.143398 16.893398 25.625 20 25.625C 23.106602 25.625 25.625 28.143398 25.625 31.25M 16.5625 20.9375C 16.5625 22.835979 18.101522 24.375 20 24.375C 21.898479 24.375 23.4375 22.835979 23.4375 20.9375C 23.4375 19.039022 21.898479 17.5 20 17.5C 18.101522 17.5 16.5625 19.039022 16.5625 20.9375ZM 27.460001 26.23C 29.203947 25.347404 31.281042 25.43338 32.946083 26.457081C 34.611126 27.480782 35.625393 29.295433 35.625 31.25M 26.5625 20.9375C 26.5625 22.835979 28.101522 24.375 30 24.375C 31.898479 24.375 33.4375 22.835979 33.4375 20.9375C 33.4375 19.039022 31.898479 17.5 30 17.5C 28.101522 17.5 26.5625 19.039022 26.5625 20.9375Z"></path></g></g></g><g id="g-root-tx_vnements_1q7lmxh1rks9hn-stroke" data-item-order="1000000000" data-item-id="tx_vnements_1q7lmxh1rks9hn" data-item-class="Label Stroke" data-item-index="none" data-renderer-id="0" transform="translate(482, 150)"></g><g id="g-root-tx_politiqu_940cb91rkxssj-stroke" data-item-order="1000000000" data-item-id="tx_politiqu_940cb91rkxssj" data-item-class="Label Stroke" data-item-index="none" data-renderer-id="0" transform="translate(38, 168)"></g><g id="g-root-2_1utnvx11rkxu6c-stroke" data-item-order="1000000000" data-item-id="2_1utnvx11rkxu6c" data-item-class="Icon Stroke" data-item-index="none" data-renderer-id="0" transform="translate(140, 165)"><g id="2_1utnvx11rkxu6c-stroke" fill="none" stroke-linecap="round" stroke-linejoin="round" stroke-miterlimit="4" stroke="#dd8433" stroke-width="2"><g><path d="M 12.1875 21.5625C 12.1875 23.460979 13.726521 25 15.625 25C 17.523479 25 19.0625 23.460979 19.0625 21.5625C 19.0625 19.664022 17.523479 18.125 15.625 18.125C 13.726521 18.125 12.1875 19.664022 12.1875 21.5625M 17.5 39.375L 18.025 34.375L 20 34.375L 20 30.625C 20 28.208755 18.041246 26.250002 15.625 26.250002C 13.208755 26.250002 11.25 28.208755 11.25 30.625L 11.25 34.375L 13.225 34.375L 13.75 39.375M 30.9375 21.5625C 30.9375 23.460979 32.476524 25 34.375 25C 36.273479 25 37.8125 23.460979 37.8125 21.5625C 37.8125 19.664022 36.273479 18.125 34.375 18.125C 32.476524 18.125 30.9375 19.664022 30.9375 21.5625M 36.25 39.375L 36.775002 34.375L 38.75 34.375L 38.75 30.625C 38.75 28.208755 36.791245 26.250002 34.375 26.250002C 31.958755 26.250002 30 28.208755 30 30.625L 30 34.375L 31.975 34.375L 32.5 39.375M 22.5 19.525C 22.5 20.905712 23.619287 22.025 25 22.025C 26.380713 22.025 27.5 20.905712 27.5 19.525C 27.452477 18.190365 26.334814 17.145351 25 17.1875C 24.36005 17.211132 23.736965 16.979359 23.268028 16.543249C 22.799093 16.107138 22.522789 15.50248 22.5 14.8625C 22.5 13.481788 23.619287 12.3625 25 12.3625C 26.380713 12.3625 27.5 13.481788 27.5 14.8625M 25 10.625L 25 12.525M 25 21.862499L 25 23.75"></path></g></g></g><g id="g-root-cu_147dc9h1rkxuyq-stroke" data-item-order="1000000000" data-item-id="cu_147dc9h1rkxuyq" data-item-class="Curve Stroke ColorStrokeGray" data-item-index="none" data-renderer-id="0" transform="translate(458, 189)"><g id="cu_147dc9h1rkxuyq-stroke" fill="none" stroke-linecap="round" stroke-linejoin="round" stroke-miterlimit="4" stroke="#888888" stroke-width="2" stroke-dasharray="5.0, 7.0"><g><path d="M 10 10L 10 13L 10 22C 10 28.627416 15.372583 33.999999 22 33.999999L 22.1 34L 28 34"></path></g></g></g><g id="g-root-cu_vbqc0l1rkxvrh-stroke" data-item-order="1000000000" data-item-id="cu_vbqc0l1rkxvrh" data-item-class="Curve Stroke ColorStrokeGray" data-item-index="none" data-renderer-id="0" transform="translate(140, 207)"><g id="cu_vbqc0l1rkxvrh-stroke" fill="none" stroke-linecap="round" stroke-linejoin="round" stroke-miterlimit="4" stroke="#888888" stroke-width="2" stroke-dasharray="5.0, 7.0"><g><path d="M 28 10L 28 13L 28 22C 27.999999 28.627417 22.627416 34 15.999999 34L 15.9 34L 10 34"></path></g></g></g><g id="g-root-tx_communic_1lwrxhx1rktn2n-stroke" data-item-order="1000000000" data-item-id="tx_communic_1lwrxhx1rktn2n" data-item-class="Label Stroke" data-item-index="none" data-renderer-id="0" transform="translate(482, 201)"></g><g id="g-root-tx_entits_8x54d11rkwff0-stroke" data-item-order="1000000000" data-item-id="tx_entits_8x54d11rkwff0" data-item-class="Label Stroke" data-item-index="none" data-renderer-id="0" transform="translate(62, 18)"></g><g id="g-root-tx_rglesmti_1qclfmd1rktn28-stroke" data-item-order="1000000000" data-item-id="tx_rglesmti_1qclfmd1rktn28" data-item-class="Label Stroke" data-item-index="none" data-renderer-id="0" transform="translate(2, 219)"></g></g></g></svg>