<?xml version="1.0" encoding="utf-8" standalone="yes"?>
<!DOCTYPE svg PUBLIC "-//W3C//DTD SVG 1.1//EN" "http://www.w3.org/Graphics/SVG/1.1/DTD/svg11.dtd">
<svg width="960" height="260" viewBox="0 0 960 260" style="fill:none;stroke:none;fill-rule:evenodd;clip-rule:evenodd;stroke-linecap:round;stroke-linejoin:round;stroke-miterlimit:1.5;" version="1.1" xmlns="http://www.w3.org/2000/svg" xmlns:xlink="http://www.w3.org/1999/xlink"><style id="fontImports">@import url("https://fonts.googleapis.com/css2?family=Roboto:wght@400;700&amp;display=block");</style><rect id="" x="0" y="0" width="960" height="260" style="fill: #ffffff;"></rect><g id="items" style="isolation: isolate"><g id="blend" style="mix-blend-mode:normal"><g id="g-root-ro_qun9np1rkv18o-fill" data-item-order="999960040" data-item-id="ro_qun9np1rkv18o" data-item-class="Shape Stroke Fill" data-item-index="none" data-renderer-id="0" transform="translate(398, 15)"><g id="ro_qun9np1rkv18o-fill" stroke="none" fill="#f0f0f0"><g><path d="M 34 10L 166 10C 166 10 190 10 190 34L 190 208C 190 208 190 232 166 232L 34 232C 34 232 10 232 10 208L 10 34C 10 34 10 10 34 10"></path></g></g></g><g id="g-root-ro_hwid2d1rl3hms-fill" data-item-order="999992224" data-item-id="ro_hwid2d1rl3hms" data-item-class="Shape Stroke Fill" data-item-index="none" data-renderer-id="0" transform="translate(206, 3)"><g id="ro_hwid2d1rl3hms-fill" stroke="none" fill="#ffe7e6"><g><path d="M 22 10L 142 10C 142 10 154 10 154 22L 154 52C 154 52 154 64 142 64L 22 64C 22 64 10 64 10 52L 10 22C 10 22 10 10 22 10"></path></g></g></g><g id="g-root-ro_7q8x11rl0nig-fill" data-item-order="999993520" data-item-id="ro_7q8x11rl0nig" data-item-class="Shape Stroke Fill" data-item-index="none" data-renderer-id="0" transform="translate(626, 3)"><g id="ro_7q8x11rl0nig-fill" stroke="none" fill="#e9fbf3"><g><path d="M 22 10L 118 10C 118 10 130 10 130 22L 130 52C 130 52 130 64 118 64L 22 64C 22 64 10 64 10 52L 10 22C 10 22 10 10 22 10"></path></g></g></g><g id="g-root-tx_scurit_v7yvfp1rl3g1u-fill" data-item-order="1000000000" data-item-id="tx_scurit_v7yvfp1rl3g1u" data-item-class="Label Stroke" data-item-index="none" data-renderer-id="0" transform="translate(218, 18)"><g id="tx_scurit_v7yvfp1rl3g1u-fill" stroke="none" fill="#e15e5a"><g><text style="font: 20px Roboto, sans-serif; white-space: pre;" font-weight="20px" font-size="Roboto," font-family="sans-serif"><tspan x="15.64" y="33.75" dominant-baseline="ideographic">Sécurité</tspan></text></g></g></g><g id="g-root-1_4njr1h1rl0mq7-fill" data-item-order="1000000000" data-item-id="1_4njr1h1rl0mq7" data-item-class="Icon Stroke" data-item-index="none" data-renderer-id="0" transform="translate(638, 15)"></g><g id="g-root-cu_91htwl1rl3f9p-fill" data-item-order="1000000000" data-item-id="cu_91htwl1rl3f9p" data-item-class="Curve Stroke ColorStrokeGray" data-item-index="none" data-renderer-id="0" transform="translate(350, 30)"></g><g id="g-root-tx_cache_dj6rad1rl0lxi-fill" data-item-order="1000000000" data-item-id="tx_cache_dj6rad1rl0lxi" data-item-class="Label Stroke" data-item-index="none" data-renderer-id="0" transform="translate(674, 18)"><g id="tx_cache_dj6rad1rl0lxi-fill" stroke="none" fill="#3bc482"><g><text style="font: 20px Roboto, sans-serif; white-space: pre;" font-weight="20px" font-size="Roboto," font-family="sans-serif"><tspan x="12.01" y="33.75" dominant-baseline="ideographic">Cache</tspan></text></g></g></g><g id="g-root-lock_vagrs51rkv0gf-fill" data-item-order="1000000000" data-item-id="lock_vagrs51rkv0gf" data-item-class="Icon Stroke" data-item-index="none" data-renderer-id="0" transform="translate(464, 39)"></g><g id="g-root-cu_4lobs51rl3g20-fill" data-item-order="1000000000" data-item-id="cu_4lobs51rl3g20" data-item-class="Curve Stroke ColorStrokeGray" data-item-index="none" data-renderer-id="0" transform="translate(578, 30)"></g><g id="g-root-tx_authenti_7q8x11rl0nih-fill" data-item-order="1000000000" data-item-id="tx_authenti_7q8x11rl0nih" data-item-class="Label Stroke" data-item-index="none" data-renderer-id="0" transform="translate(14, 69)"><g id="tx_authenti_7q8x11rl0nih-fill" stroke="none" fill="#484848"><g><text style="font: 20px Roboto, sans-serif; white-space: pre;" font-weight="20px" font-size="Roboto," font-family="sans-serif"><tspan x="12.32" y="33.75" dominant-baseline="ideographic">Authentification des Utilisateurs</tspan></text></g></g></g><g id="g-root-cu_4lobs51rl3g23-fill" data-item-order="1000000000" data-item-id="cu_4lobs51rl3g23" data-item-class="Curve Stroke ColorStrokeGray" data-item-index="none" data-renderer-id="0" transform="translate(308, 57)"></g><g id="g-root-cu_4lobs51rl3g26-fill" data-item-order="1000000000" data-item-id="cu_4lobs51rl3g26" data-item-class="Curve Stroke ColorStrokeGray" data-item-index="none" data-renderer-id="0" transform="translate(308, 57)"></g><g id="g-root-cu_5utnp1rl3gug-fill" data-item-order="1000000000" data-item-id="cu_5utnp1rl3gug" data-item-class="Curve Stroke ColorStrokeGray" data-item-index="none" data-renderer-id="0" transform="translate(308, 57)"></g><g id="g-root-cu_5utnp1rl3gui-fill" data-item-order="1000000000" data-item-id="cu_5utnp1rl3gui" data-item-class="Curve Stroke ColorStrokeGray" data-item-index="none" data-renderer-id="0" transform="translate(650, 57)"></g><g id="g-root-cu_1ur5did1rl3hfp-fill" data-item-order="1000000000" data-item-id="cu_1ur5did1rl3hfp" data-item-class="Curve Stroke ColorStrokeGray" data-item-index="none" data-renderer-id="0" transform="translate(650, 57)"></g><g id="g-root-cu_1ur5did1rl3hfr-fill" data-item-order="1000000000" data-item-id="cu_1ur5did1rl3hfr" data-item-class="Curve Stroke ColorStrokeGray" data-item-index="none" data-renderer-id="0" transform="translate(650, 57)"></g><g id="g-root-tx_stratgie_1hi6rhh1rl0mis-fill" data-item-order="1000000000" data-item-id="tx_stratgie_1hi6rhh1rl0mis" data-item-class="Label Stroke" data-item-index="none" data-renderer-id="0" transform="translate(674, 69)"><g id="tx_stratgie_1hi6rhh1rl0mis-fill" stroke="none" fill="#484848"><g><text style="font: 20px Roboto, sans-serif; white-space: pre;" font-weight="20px" font-size="Roboto," font-family="sans-serif"><tspan x="15.86" y="33.75" dominant-baseline="ideographic">Stratégies de Mise en Cache</tspan></text></g></g></g><g id="g-root-tx_autorisa_1lxdsit1rl0owa-fill" data-item-order="1000000000" data-item-id="tx_autorisa_1lxdsit1rl0owa" data-item-class="Label Stroke" data-item-index="none" data-renderer-id="0" transform="translate(74, 105)"><g id="tx_autorisa_1lxdsit1rl0owa-fill" stroke="none" fill="#484848"><g><text style="font: 20px Roboto, sans-serif; white-space: pre;" font-weight="20px" font-size="Roboto," font-family="sans-serif"><tspan x="14.95" y="33.75" dominant-baseline="ideographic">Autorisation des Actions</tspan></text></g></g></g><g id="g-root-tx_applicat_18lat2d1rkv21a-fill" data-item-order="1000000000" data-item-id="tx_applicat_18lat2d1rkv21a" data-item-class="Label Stroke" data-item-index="none" data-renderer-id="0" transform="translate(422, 93)"><g id="tx_applicat_18lat2d1rkv21a-fill" stroke="none" fill="#484848"><g><text style="font: 20px Roboto, sans-serif; white-space: pre;" font-weight="20px" font-size="Roboto," font-family="sans-serif"><tspan x="25.82" y="33.74" dominant-baseline="ideographic">Application </tspan><tspan x="28.62" y="57.75" dominant-baseline="ideographic">Sécurité et </tspan><tspan x="19.13" y="81.75" dominant-baseline="ideographic">Optimisation </tspan><tspan x="59.91" y="105.75" dominant-baseline="ideographic">des </tspan><tspan x="13.03" y="129.76" dominant-baseline="ideographic">Performances</tspan></text></g></g></g><g id="g-root-tx_gestiond_18mjr8l1rl0nbh-fill" data-item-order="1000000000" data-item-id="tx_gestiond_18mjr8l1rl0nbh" data-item-class="Label Stroke" data-item-index="none" data-renderer-id="0" transform="translate(674, 105)"><g id="tx_gestiond_18mjr8l1rl0nbh-fill" stroke="none" fill="#484848"><g><text style="font: 20px Roboto, sans-serif; white-space: pre;" font-weight="20px" font-size="Roboto," font-family="sans-serif"><tspan x="17.6" y="33.75" dominant-baseline="ideographic">Gestion du Stockage Local</tspan></text></g></g></g><g id="g-root-tx_invalida_146q9451rl0o3q-fill" data-item-order="1000000000" data-item-id="tx_invalida_146q9451rl0o3q" data-item-class="Label Stroke" data-item-index="none" data-renderer-id="0" transform="translate(674, 141)"><g id="tx_invalida_146q9451rl0o3q-fill" stroke="none" fill="#484848"><g><text style="font: 20px Roboto, sans-serif; white-space: pre;" font-weight="20px" font-size="Roboto," font-family="sans-serif"><tspan x="15.16" y="33.75" dominant-baseline="ideographic">Invalidation Intelligente</tspan></text></g></g></g><g id="g-root-4_mcbv6t1rl3guj-fill" data-item-order="1000000000" data-item-id="4_mcbv6t1rl3guj" data-item-class="Icon Stroke" data-item-index="none" data-renderer-id="0" transform="translate(308, 15)"></g><g id="g-root-tx_cryptage_1lxdsit1rl0owb-fill" data-item-order="1000000000" data-item-id="tx_cryptage_1lxdsit1rl0owb" data-item-class="Label Stroke" data-item-index="none" data-renderer-id="0" transform="translate(2, 141)"><g id="tx_cryptage_1lxdsit1rl0owb-fill" stroke="none" fill="#484848"><g><text style="font: 20px Roboto, sans-serif; white-space: pre;" font-weight="20px" font-size="Roboto," font-family="sans-serif"><tspan x="14.67" y="33.75" dominant-baseline="ideographic">Cryptage des Données Sensibles</tspan></text></g></g></g><g id="g-root-ro_qun9np1rkv18o-stroke" data-item-order="999960040" data-item-id="ro_qun9np1rkv18o" data-item-class="Shape Stroke Fill" data-item-index="none" data-renderer-id="0" transform="translate(398, 15)"><g id="ro_qun9np1rkv18o-stroke" fill="none" stroke-linecap="round" stroke-linejoin="round" stroke-miterlimit="4" stroke="#484848" stroke-width="2"><g><path d="M 34 10L 166 10C 166 10 190 10 190 34L 190 208C 190 208 190 232 166 232L 34 232C 34 232 10 232 10 208L 10 34C 10 34 10 10 34 10"></path></g></g></g><g id="g-root-ro_hwid2d1rl3hms-stroke" data-item-order="999992224" data-item-id="ro_hwid2d1rl3hms" data-item-class="Shape Stroke Fill" data-item-index="none" data-renderer-id="0" transform="translate(206, 3)"><g id="ro_hwid2d1rl3hms-stroke" fill="none" stroke-linecap="round" stroke-linejoin="round" stroke-miterlimit="4" stroke="#e15e5a" stroke-width="2"><g><path d="M 22 10L 142 10C 142 10 154 10 154 22L 154 52C 154 52 154 64 142 64L 22 64C 22 64 10 64 10 52L 10 22C 10 22 10 10 22 10"></path></g></g></g><g id="g-root-ro_7q8x11rl0nig-stroke" data-item-order="999993520" data-item-id="ro_7q8x11rl0nig" data-item-class="Shape Stroke Fill" data-item-index="none" data-renderer-id="0" transform="translate(626, 3)"><g id="ro_7q8x11rl0nig-stroke" fill="none" stroke-linecap="round" stroke-linejoin="round" stroke-miterlimit="4" stroke="#3bc482" stroke-width="2"><g><path d="M 22 10L 118 10C 118 10 130 10 130 22L 130 52C 130 52 130 64 118 64L 22 64C 22 64 10 64 10 52L 10 22C 10 22 10 10 22 10"></path></g></g></g><g id="g-root-tx_scurit_v7yvfp1rl3g1u-stroke" data-item-order="1000000000" data-item-id="tx_scurit_v7yvfp1rl3g1u" data-item-class="Label Stroke" data-item-index="none" data-renderer-id="0" transform="translate(218, 18)"></g><g id="g-root-1_4njr1h1rl0mq7-stroke" data-item-order="1000000000" data-item-id="1_4njr1h1rl0mq7" data-item-class="Icon Stroke" data-item-index="none" data-renderer-id="0" transform="translate(638, 15)"><g id="1_4njr1h1rl0mq7-stroke" fill="none" stroke-linecap="round" stroke-linejoin="round" stroke-miterlimit="4" stroke="#3bc482" stroke-width="2"><g><path d="M 10.625 25C 10.625 32.939095 17.060907 39.375 25 39.375C 32.939095 39.375 39.375 32.939095 39.375 25C 39.375 17.060907 32.939095 10.625 25 10.625C 17.060907 10.625 10.625 17.060907 10.625 25ZM 26.7675 26.7675C 25.786552 27.714931 24.227287 27.701382 23.262955 26.737045C 22.298618 25.772713 22.285069 24.213448 23.2325 23.2325C 24.20875 22.25625 33.397499 16.6075 33.397499 16.6075C 33.397499 16.6075 27.75 25.79125 26.7675 26.7675ZM 14.375 25L 16.25 25M 17.487499 17.487499L 18.8125 18.8125M 25 14.375L 25 16.25M 35.625 25L 33.75 25M 35.791248 34.5C 32.623093 32.313686 28.848614 31.176926 25 31.25C 21.151384 31.176926 17.376905 32.313686 14.20875 34.5"></path></g></g></g><g id="g-root-cu_91htwl1rl3f9p-stroke" data-item-order="1000000000" data-item-id="cu_91htwl1rl3f9p" data-item-class="Curve Stroke ColorStrokeGray" data-item-index="none" data-renderer-id="0" transform="translate(350, 30)"><g id="cu_91htwl1rl3f9p-stroke" fill="none" stroke-linecap="round" stroke-linejoin="round" stroke-miterlimit="4" stroke="#888888" stroke-width="2" stroke-dasharray="5.0, 7.0"><g><path d="M 58 69L 55 69L 54.9 69C 43.35725 69.000001 34.000001 59.642752 34.000001 48.100001L 34 48L 34 30.9C 33.999998 19.357248 24.64275 10 13.1 10L 13 10L 10 10"></path></g></g></g><g id="g-root-tx_cache_dj6rad1rl0lxi-stroke" data-item-order="1000000000" data-item-id="tx_cache_dj6rad1rl0lxi" data-item-class="Label Stroke" data-item-index="none" data-renderer-id="0" transform="translate(674, 18)"></g><g id="g-root-lock_vagrs51rkv0gf-stroke" data-item-order="1000000000" data-item-id="lock_vagrs51rkv0gf" data-item-class="Icon Stroke" data-item-index="none" data-renderer-id="0" transform="translate(464, 39)"><g id="lock_vagrs51rkv0gf-stroke" fill="none" stroke-linecap="round" stroke-linejoin="round" stroke-miterlimit="4" stroke="#484848" stroke-width="2"><g><path d="M 51 37.812C 54.139717 36.359497 56.107956 33.171738 56.000004 29.714001C 55.962135 27.155087 54.884983 24.721664 53.01619 22.973211C 51.1474 21.224758 48.64777 20.311714 46.091999 20.444C 43.812824 15.857828 39.121201 12.969603 34 13C 27.021761 12.906301 21.174503 18.25687 20.65 25.216C 18.566479 24.757912 16.387331 25.257915 14.711922 26.578485C 13.036512 27.899057 12.041294 29.901115 12 32.034C 11.832671 35.152145 13.949627 37.932133 17 38.600002M 44 53C 44 54.104568 43.104568 55 42 55L 28 55C 26.89543 55 26 54.104568 26 53L 26 41C 26 39.895432 26.89543 39 28 39L 42 39C 43.104568 39 44 39.895432 44 41ZM 32.5 47.125999C 32.5 48.506714 33.619289 49.625999 35 49.625999C 36.380714 49.625999 37.5 48.506714 37.5 47.125999C 37.5 45.745289 36.380714 44.625999 35 44.625999C 33.619289 44.625999 32.5 45.745289 32.5 47.125999ZM 40 36C 40 33.238579 37.761425 31 35 31C 32.238579 31 30 33.238579 30 36L 30 39L 40 39Z"></path></g></g></g><g id="g-root-cu_4lobs51rl3g20-stroke" data-item-order="1000000000" data-item-id="cu_4lobs51rl3g20" data-item-class="Curve Stroke ColorStrokeGray" data-item-index="none" data-renderer-id="0" transform="translate(578, 30)"><g id="cu_4lobs51rl3g20-stroke" fill="none" stroke-linecap="round" stroke-linejoin="round" stroke-miterlimit="4" stroke="#888888" stroke-width="2" stroke-dasharray="5.0, 7.0"><g><path d="M 10 69L 13 69L 13.1 69C 24.642753 68.999998 34.000001 59.642749 34.000001 48.099998L 34 48L 34 30.9C 33.999999 19.357249 43.357248 10.000001 54.899999 10.000002L 55 10L 58 10"></path></g></g></g><g id="g-root-tx_authenti_7q8x11rl0nih-stroke" data-item-order="1000000000" data-item-id="tx_authenti_7q8x11rl0nih" data-item-class="Label Stroke" data-item-index="none" data-renderer-id="0" transform="translate(14, 69)"></g><g id="g-root-cu_4lobs51rl3g23-stroke" data-item-order="1000000000" data-item-id="cu_4lobs51rl3g23" data-item-class="Curve Stroke ColorStrokeGray" data-item-index="none" data-renderer-id="0" transform="translate(308, 57)"><g id="cu_4lobs51rl3g23-stroke" fill="none" stroke-linecap="round" stroke-linejoin="round" stroke-miterlimit="4" stroke="#888888" stroke-width="2" stroke-dasharray="5.0, 7.0"><g><path d="M 28 10L 28 22L 28 34L 19 34L 10 34"></path></g></g></g><g id="g-root-cu_4lobs51rl3g26-stroke" data-item-order="1000000000" data-item-id="cu_4lobs51rl3g26" data-item-class="Curve Stroke ColorStrokeGray" data-item-index="none" data-renderer-id="0" transform="translate(308, 57)"><g id="cu_4lobs51rl3g26-stroke" fill="none" stroke-linecap="round" stroke-linejoin="round" stroke-miterlimit="4" stroke="#888888" stroke-width="2" stroke-dasharray="5.0, 7.0"><g><path d="M 28 10L 28 40L 28 70L 19 70L 10 70"></path></g></g></g><g id="g-root-cu_5utnp1rl3gug-stroke" data-item-order="1000000000" data-item-id="cu_5utnp1rl3gug" data-item-class="Curve Stroke ColorStrokeGray" data-item-index="none" data-renderer-id="0" transform="translate(308, 57)"><g id="cu_5utnp1rl3gug-stroke" fill="none" stroke-linecap="round" stroke-linejoin="round" stroke-miterlimit="4" stroke="#888888" stroke-width="2" stroke-dasharray="5.0, 7.0"><g><path d="M 28 10L 28 22L 28 94C 28.000002 100.627415 22.627419 105.999998 16.000002 105.999998L 15.9 106L 10 106"></path></g></g></g><g id="g-root-cu_5utnp1rl3gui-stroke" data-item-order="1000000000" data-item-id="cu_5utnp1rl3gui" data-item-class="Curve Stroke ColorStrokeGray" data-item-index="none" data-renderer-id="0" transform="translate(650, 57)"><g id="cu_5utnp1rl3gui-stroke" fill="none" stroke-linecap="round" stroke-linejoin="round" stroke-miterlimit="4" stroke="#888888" stroke-width="2" stroke-dasharray="5.0, 7.0"><g><path d="M 10 10L 10 22L 10 34L 19 34L 28 34"></path></g></g></g><g id="g-root-cu_1ur5did1rl3hfp-stroke" data-item-order="1000000000" data-item-id="cu_1ur5did1rl3hfp" data-item-class="Curve Stroke ColorStrokeGray" data-item-index="none" data-renderer-id="0" transform="translate(650, 57)"><g id="cu_1ur5did1rl3hfp-stroke" fill="none" stroke-linecap="round" stroke-linejoin="round" stroke-miterlimit="4" stroke="#888888" stroke-width="2" stroke-dasharray="5.0, 7.0"><g><path d="M 10 10L 10 40L 10 70L 19 70L 28 70"></path></g></g></g><g id="g-root-cu_1ur5did1rl3hfr-stroke" data-item-order="1000000000" data-item-id="cu_1ur5did1rl3hfr" data-item-class="Curve Stroke ColorStrokeGray" data-item-index="none" data-renderer-id="0" transform="translate(650, 57)"><g id="cu_1ur5did1rl3hfr-stroke" fill="none" stroke-linecap="round" stroke-linejoin="round" stroke-miterlimit="4" stroke="#888888" stroke-width="2" stroke-dasharray="5.0, 7.0"><g><path d="M 10 10L 10 22L 10 94C 10.000004 100.627423 15.372587 106.000006 22.000005 106.000005L 22.1 106L 28 106"></path></g></g></g><g id="g-root-tx_stratgie_1hi6rhh1rl0mis-stroke" data-item-order="1000000000" data-item-id="tx_stratgie_1hi6rhh1rl0mis" data-item-class="Label Stroke" data-item-index="none" data-renderer-id="0" transform="translate(674, 69)"></g><g id="g-root-tx_autorisa_1lxdsit1rl0owa-stroke" data-item-order="1000000000" data-item-id="tx_autorisa_1lxdsit1rl0owa" data-item-class="Label Stroke" data-item-index="none" data-renderer-id="0" transform="translate(74, 105)"></g><g id="g-root-tx_applicat_18lat2d1rkv21a-stroke" data-item-order="1000000000" data-item-id="tx_applicat_18lat2d1rkv21a" data-item-class="Label Stroke" data-item-index="none" data-renderer-id="0" transform="translate(422, 93)"></g><g id="g-root-tx_gestiond_18mjr8l1rl0nbh-stroke" data-item-order="1000000000" data-item-id="tx_gestiond_18mjr8l1rl0nbh" data-item-class="Label Stroke" data-item-index="none" data-renderer-id="0" transform="translate(674, 105)"></g><g id="g-root-tx_invalida_146q9451rl0o3q-stroke" data-item-order="1000000000" data-item-id="tx_invalida_146q9451rl0o3q" data-item-class="Label Stroke" data-item-index="none" data-renderer-id="0" transform="translate(674, 141)"></g><g id="g-root-4_mcbv6t1rl3guj-stroke" data-item-order="1000000000" data-item-id="4_mcbv6t1rl3guj" data-item-class="Icon Stroke" data-item-index="none" data-renderer-id="0" transform="translate(308, 15)"><g id="4_mcbv6t1rl3guj-stroke" fill="none" stroke-linecap="round" stroke-linejoin="round" stroke-miterlimit="4" stroke="#e15e5a" stroke-width="2"><g><path d="M 25.771429 38.778572L 25.771429 38.778572C 25.274982 38.970135 24.725018 38.970135 24.228571 38.778572L 24.228571 38.778572C 16.298534 35.734089 11.066284 28.115799 11.071428 19.621428L 11.071428 14.028571C 11.069015 13.546792 11.38238 13.120267 11.842857 12.978571C 20.429016 10.429007 29.570982 10.429007 38.157143 12.978571C 38.617619 13.120267 38.930984 13.546792 38.92857 14.028571L 38.92857 19.621428C 38.933716 28.115799 33.701466 35.734089 25.771427 38.778568Z"></path></g></g></g><g id="g-root-tx_cryptage_1lxdsit1rl0owb-stroke" data-item-order="1000000000" data-item-id="tx_cryptage_1lxdsit1rl0owb" data-item-class="Label Stroke" data-item-index="none" data-renderer-id="0" transform="translate(2, 141)"></g></g></g></svg>