<?xml version="1.0" encoding="utf-8" standalone="yes"?>
<!DOCTYPE svg PUBLIC "-//W3C//DTD SVG 1.1//EN" "http://www.w3.org/Graphics/SVG/1.1/DTD/svg11.dtd">
<svg width="720" height="409" viewBox="0 0 720 409" style="fill:none;stroke:none;fill-rule:evenodd;clip-rule:evenodd;stroke-linecap:round;stroke-linejoin:round;stroke-miterlimit:1.5;" version="1.1" xmlns="http://www.w3.org/2000/svg" xmlns:xlink="http://www.w3.org/1999/xlink"><style id="fontImports">@import url("https://fonts.googleapis.com/css2?family=Roboto:wght@400;700&amp;display=block");</style><rect id="" x="0" y="0" width="720" height="409" style="fill: #ffffff;"></rect><g id="items" style="isolation: isolate"><g id="blend" style="mix-blend-mode:normal"><g id="g-root-ro_1hduhs51rkpg5e-fill" data-item-order="999987904" data-item-id="ro_1hduhs51rkpg5e" data-item-class="Shape Stroke Fill" data-item-index="none" data-renderer-id="0" transform="translate(326, 39)"><g id="ro_1hduhs51rkpg5e-fill" stroke="none" fill="#f0f0f0"><g><path d="M 34 10L 82 10C 82 10 106 10 106 34L 106 112C 106 112 106 136 82 136L 34 136C 34 136 10 136 10 112L 10 34C 10 34 10 10 34 10"></path></g></g></g><g id="g-root-ro_18mkt511rkwg0d-fill" data-item-order="999990280" data-item-id="ro_18mkt511rkwg0d" data-item-class="Shape Stroke Fill" data-item-index="none" data-renderer-id="0" transform="translate(98, 3)"><g id="ro_18mkt511rkwg0d-fill" stroke="none" fill="#e6efff"><g><path d="M 22 10L 178 10C 178 10 190 10 190 22L 190 52C 190 52 190 64 178 64L 22 64C 22 64 10 64 10 52L 10 22C 10 22 10 10 22 10"></path></g></g></g><g id="g-root-ro_v6qz5x1rktngv-fill" data-item-order="999991576" data-item-id="ro_v6qz5x1rktngv" data-item-class="Shape Stroke Fill" data-item-index="none" data-renderer-id="0" transform="translate(470, 21)"><g id="ro_v6qz5x1rktngv-fill" stroke="none" fill="#e9fbf3"><g><path d="M 22 10L 154 10C 154 10 166 10 166 22L 166 52C 166 52 166 64 154 64L 22 64C 22 64 10 64 10 52L 10 22C 10 22 10 10 22 10"></path></g></g></g><g id="g-root-ro_6icn91rkv0n9-fill" data-item-order="999993520" data-item-id="ro_6icn91rkv0n9" data-item-class="Shape Stroke Fill" data-item-index="none" data-renderer-id="0" transform="translate(314, 225)"><g id="ro_6icn91rkv0n9-fill" stroke="none" fill="#e6f9ff"><g><path d="M 22 10L 118 10C 118 10 130 10 130 22L 130 52C 130 52 130 64 118 64L 22 64C 22 64 10 64 10 52L 10 22C 10 22 10 10 22 10"></path></g></g></g><g id="g-root-cu_18mkt511rkwg0e-fill" data-item-order="1000000000" data-item-id="cu_18mkt511rkwg0e" data-item-class="Curve Stroke ColorStrokeGray" data-item-index="none" data-renderer-id="0" transform="translate(278, 30)"></g><g id="g-root-lock_142dzet1rktmo6-fill" data-item-order="1000000000" data-item-id="lock_142dzet1rktmo6" data-item-class="Icon Stroke" data-item-index="none" data-renderer-id="0" transform="translate(482, 33)"></g><g id="g-root-cu_zrk9z91rkwefe-fill" data-item-order="1000000000" data-item-id="cu_zrk9z91rkwefe" data-item-class="Curve Stroke ColorStrokeGray" data-item-index="none" data-renderer-id="0" transform="translate(236, 57)"></g><g id="g-root-cu_zrk9z91rkwefg-fill" data-item-order="1000000000" data-item-id="cu_zrk9z91rkwefg" data-item-class="Curve Stroke ColorStrokeGray" data-item-index="none" data-renderer-id="0" transform="translate(236, 57)"></g><g id="g-root-cu_146rb0l1rkwgsp-fill" data-item-order="1000000000" data-item-id="cu_146rb0l1rkwgsp" data-item-class="Curve Stroke ColorStrokeGray" data-item-index="none" data-renderer-id="0" transform="translate(422, 48)"></g><g id="g-root-tx_interfac_18i7hj91rktlvx-fill" data-item-order="1000000000" data-item-id="tx_interfac_18i7hj91rktlvx" data-item-class="Label Stroke" data-item-index="none" data-renderer-id="0" transform="translate(518, 36)"><g id="tx_interfac_18i7hj91rktlvx-fill" stroke="none" fill="#3bc482"><g><text style="font: 20px Roboto, sans-serif; white-space: pre;" font-weight="20px" font-size="Roboto," font-family="sans-serif"><tspan x="13.43" y="33.75" dominant-baseline="ideographic">interfaces</tspan></text></g></g></g><g id="g-root-tx_classesa_1qbzedh1rkv18u-fill" data-item-order="1000000000" data-item-id="tx_classesa_1qbzedh1rkv18u" data-item-class="Label Stroke" data-item-index="none" data-renderer-id="0" transform="translate(62, 69)"><g id="tx_classesa_1qbzedh1rkv18u-fill" stroke="none" fill="#484848"><g><text style="font: 20px Roboto, sans-serif; white-space: pre;" font-weight="20px" font-size="Roboto," font-family="sans-serif"><tspan x="13.4" y="33.75" dominant-baseline="ideographic">classes abstraites</tspan></text></g></g></g><g id="g-root-cu_146rb0l1rkwgsv-fill" data-item-order="1000000000" data-item-id="cu_146rb0l1rkwgsv" data-item-class="Curve Stroke ColorStrokeGray" data-item-index="none" data-renderer-id="0" transform="translate(236, 57)"></g><g id="g-root-cu_vbqrut1rkwf7q-fill" data-item-order="1000000000" data-item-id="cu_vbqrut1rkwf7q" data-item-class="Curve Stroke ColorStrokeGray" data-item-index="none" data-renderer-id="0" transform="translate(236, 57)"></g><g id="g-root-core_1ltnzwl1rkpfd5-fill" data-item-order="1000000000" data-item-id="core_1ltnzwl1rkpfd5" data-item-class="Icon Stroke" data-item-index="none" data-renderer-id="0" transform="translate(350, 63)"></g><g id="g-root-cu_vbqrut1rkwf7s-fill" data-item-order="1000000000" data-item-id="cu_vbqrut1rkwf7s" data-item-class="Curve Stroke ColorStrokeGray" data-item-index="none" data-renderer-id="0" transform="translate(494, 75)"></g><g id="g-root-cu_vbqrut1rkwf7v-fill" data-item-order="1000000000" data-item-id="cu_vbqrut1rkwf7v" data-item-class="Curve Stroke ColorStrokeGray" data-item-index="none" data-renderer-id="0" transform="translate(494, 75)"></g><g id="g-root-cu_qvx9qd1rkwg05-fill" data-item-order="1000000000" data-item-id="cu_qvx9qd1rkwg05" data-item-class="Curve Stroke ColorStrokeGray" data-item-index="none" data-renderer-id="0" transform="translate(494, 75)"></g><g id="g-root-tx_interfac_18lbuyt1rkv0ga-fill" data-item-order="1000000000" data-item-id="tx_interfac_18lbuyt1rkv0ga" data-item-class="Label Stroke" data-item-index="none" data-renderer-id="0" transform="translate(518, 87)"><g id="tx_interfac_18lbuyt1rkv0ga-fill" stroke="none" fill="#484848"><g><text style="font: 20px Roboto, sans-serif; white-space: pre;" font-weight="20px" font-size="Roboto," font-family="sans-serif"><tspan x="12.04" y="33.75" dominant-baseline="ideographic">interfaces de base</tspan></text></g></g></g><g id="g-root-tx_modlesde_1lw5w911rkv213-fill" data-item-order="1000000000" data-item-id="tx_modlesde_1lw5w911rkv213" data-item-class="Label Stroke" data-item-index="none" data-renderer-id="0" transform="translate(74, 105)"><g id="tx_modlesde_1lw5w911rkv213-fill" stroke="none" fill="#484848"><g><text style="font: 20px Roboto, sans-serif; white-space: pre;" font-weight="20px" font-size="Roboto," font-family="sans-serif"><tspan x="12.32" y="33.75" dominant-baseline="ideographic">modèles de base</tspan></text></g></g></g><g id="g-root-tx_core_1upb05h1rkpekg-fill" data-item-order="1000000000" data-item-id="tx_core_1upb05h1rkpekg" data-item-class="Label Stroke" data-item-index="none" data-renderer-id="0" transform="translate(350, 117)"><g id="tx_core_1upb05h1rkpekg-fill" stroke="none" fill="#484848"><g><text style="font: 20px Roboto, sans-serif; white-space: pre;" font-weight="20px" font-size="Roboto," font-family="sans-serif"><tspan x="13.2" y="33.75" dominant-baseline="ideographic">Core</tspan></text></g></g></g><g id="g-root-tx_typesgnr_18lbuyt1rkv0gb-fill" data-item-order="1000000000" data-item-id="tx_typesgnr_18lbuyt1rkv0gb" data-item-class="Label Stroke" data-item-index="none" data-renderer-id="0" transform="translate(518, 123)"><g id="tx_typesgnr_18lbuyt1rkv0gb-fill" stroke="none" fill="#484848"><g><text style="font: 20px Roboto, sans-serif; white-space: pre;" font-weight="20px" font-size="Roboto," font-family="sans-serif"><tspan x="12.28" y="33.75" dominant-baseline="ideographic">types génériques</tspan></text></g></g></g><g id="g-root-tx_abstract_1hgyv7p1rkuznk-fill" data-item-order="1000000000" data-item-id="tx_abstract_1hgyv7p1rkuznk" data-item-class="Label Stroke" data-item-index="none" data-renderer-id="0" transform="translate(2, 141)"><g id="tx_abstract_1hgyv7p1rkuznk-fill" stroke="none" fill="#484848"><g><text style="font: 20px Roboto, sans-serif; white-space: pre;" font-weight="20px" font-size="Roboto," font-family="sans-serif"><tspan x="12.38" y="33.75" dominant-baseline="ideographic">abstractions réutilisables</tspan></text></g></g></g><g id="g-root-tx_contrats_145icud1rkv18k-fill" data-item-order="1000000000" data-item-id="tx_contrats_145icud1rkv18k" data-item-class="Label Stroke" data-item-index="none" data-renderer-id="0" transform="translate(518, 159)"><g id="tx_contrats_145icud1rkv18k-fill" stroke="none" fill="#484848"><g><text style="font: 20px Roboto, sans-serif; white-space: pre;" font-weight="20px" font-size="Roboto," font-family="sans-serif"><tspan x="11.85" y="33.75" dominant-baseline="ideographic">contrats techniques</tspan></text></g></g></g><g id="g-root-tx_patterns_1hgyv7p1rkuznl-fill" data-item-order="1000000000" data-item-id="tx_patterns_1hgyv7p1rkuznl" data-item-class="Label Stroke" data-item-index="none" data-renderer-id="0" transform="translate(50, 177)"><g id="tx_patterns_1hgyv7p1rkuznl-fill" stroke="none" fill="#484848"><g><text style="font: 20px Roboto, sans-serif; white-space: pre;" font-weight="20px" font-size="Roboto," font-family="sans-serif"><tspan x="15.93" y="33.75" dominant-baseline="ideographic">patterns communs</tspan></text></g></g></g><g id="g-root-cu_146rb0l1rkwgss-fill" data-item-order="1000000000" data-item-id="cu_146rb0l1rkwgss" data-item-class="Curve Stroke ColorStrokeGray" data-item-index="none" data-renderer-id="0" transform="translate(374, 165)"></g><g id="g-root-bott_1hi7tdx1rkwf7o-fill" data-item-order="1000000000" data-item-id="bott_1hi7tdx1rkwf7o" data-item-class="Icon Stroke" data-item-index="none" data-renderer-id="0" transform="translate(236, 15)"></g><g id="g-root-pure_4mburp1rkuzv0-fill" data-item-order="1000000000" data-item-id="pure_4mburp1rkuzv0" data-item-class="Icon Stroke" data-item-index="none" data-renderer-id="0" transform="translate(326, 237)"></g><g id="g-root-tx_types_dhcdxh1rkv283-fill" data-item-order="1000000000" data-item-id="tx_types_dhcdxh1rkv283" data-item-class="Label Stroke" data-item-index="none" data-renderer-id="0" transform="translate(362, 240)"><g id="tx_types_dhcdxh1rkv283-fill" stroke="none" fill="#17b0e3"><g><text style="font: 20px Roboto, sans-serif; white-space: pre;" font-weight="20px" font-size="Roboto," font-family="sans-serif"><tspan x="15.94" y="33.75" dominant-baseline="ideographic">types</tspan></text></g></g></g><g id="g-root-cu_qvx9qd1rkwg07-fill" data-item-order="1000000000" data-item-id="cu_qvx9qd1rkwg07" data-item-class="Curve Stroke ColorStrokeGray" data-item-index="none" data-renderer-id="0" transform="translate(338, 279)"></g><g id="g-root-cu_mg3rlx1rkwgsi-fill" data-item-order="1000000000" data-item-id="cu_mg3rlx1rkwgsi" data-item-class="Curve Stroke ColorStrokeGray" data-item-index="none" data-renderer-id="0" transform="translate(338, 279)"></g><g id="g-root-cu_mg3rlx1rkwgsk-fill" data-item-order="1000000000" data-item-id="cu_mg3rlx1rkwgsk" data-item-class="Curve Stroke ColorStrokeGray" data-item-index="none" data-renderer-id="0" transform="translate(338, 279)"></g><g id="g-root-tx_typesuti_145icud1rkv18l-fill" data-item-order="1000000000" data-item-id="tx_typesuti_145icud1rkv18l" data-item-class="Label Stroke" data-item-index="none" data-renderer-id="0" transform="translate(362, 291)"><g id="tx_typesuti_145icud1rkv18l-fill" stroke="none" fill="#484848"><g><text style="font: 20px Roboto, sans-serif; white-space: pre;" font-weight="20px" font-size="Roboto," font-family="sans-serif"><tspan x="14.52" y="33.75" dominant-baseline="ideographic">types utilitaires</tspan></text></g></g></g><g id="g-root-tx_typesder_v9vclh1rkv21a-fill" data-item-order="1000000000" data-item-id="tx_typesder_v9vclh1rkv21a" data-item-class="Label Stroke" data-item-index="none" data-renderer-id="0" transform="translate(362, 327)"><g id="tx_typesder_v9vclh1rkv21a-fill" stroke="none" fill="#484848"><g><text style="font: 20px Roboto, sans-serif; white-space: pre;" font-weight="20px" font-size="Roboto," font-family="sans-serif"><tspan x="12.4" y="33.75" dominant-baseline="ideographic">types de résultats et erreurs</tspan></text></g></g></g><g id="g-root-tx_typesgnr_quobk51rkuznr-fill" data-item-order="1000000000" data-item-id="tx_typesgnr_quobk51rkuznr" data-item-class="Label Stroke" data-item-index="none" data-renderer-id="0" transform="translate(362, 363)"><g id="tx_typesgnr_quobk51rkuznr-fill" stroke="none" fill="#484848"><g><text style="font: 20px Roboto, sans-serif; white-space: pre;" font-weight="20px" font-size="Roboto," font-family="sans-serif"><tspan x="16.07" y="33.75" dominant-baseline="ideographic">types génériques réutilisables</tspan></text></g></g></g><g id="g-root-tx_baseclas_1ly1bid1rkweff-fill" data-item-order="1000000000" data-item-id="tx_baseclas_1ly1bid1rkweff" data-item-class="Label Stroke" data-item-index="none" data-renderer-id="0" transform="translate(110, 18)"><g id="tx_baseclas_1ly1bid1rkweff-fill" stroke="none" fill="#4682e3"><g><text style="font: 20px Roboto, sans-serif; white-space: pre;" font-weight="20px" font-size="Roboto," font-family="sans-serif"><tspan x="11.87" y="33.75" dominant-baseline="ideographic">base-classes</tspan></text></g></g></g><g id="g-root-ro_1hduhs51rkpg5e-stroke" data-item-order="999987904" data-item-id="ro_1hduhs51rkpg5e" data-item-class="Shape Stroke Fill" data-item-index="none" data-renderer-id="0" transform="translate(326, 39)"><g id="ro_1hduhs51rkpg5e-stroke" fill="none" stroke-linecap="round" stroke-linejoin="round" stroke-miterlimit="4" stroke="#484848" stroke-width="2"><g><path d="M 34 10L 82 10C 82 10 106 10 106 34L 106 112C 106 112 106 136 82 136L 34 136C 34 136 10 136 10 112L 10 34C 10 34 10 10 34 10"></path></g></g></g><g id="g-root-ro_18mkt511rkwg0d-stroke" data-item-order="999990280" data-item-id="ro_18mkt511rkwg0d" data-item-class="Shape Stroke Fill" data-item-index="none" data-renderer-id="0" transform="translate(98, 3)"><g id="ro_18mkt511rkwg0d-stroke" fill="none" stroke-linecap="round" stroke-linejoin="round" stroke-miterlimit="4" stroke="#4682e3" stroke-width="2"><g><path d="M 22 10L 178 10C 178 10 190 10 190 22L 190 52C 190 52 190 64 178 64L 22 64C 22 64 10 64 10 52L 10 22C 10 22 10 10 22 10"></path></g></g></g><g id="g-root-ro_v6qz5x1rktngv-stroke" data-item-order="999991576" data-item-id="ro_v6qz5x1rktngv" data-item-class="Shape Stroke Fill" data-item-index="none" data-renderer-id="0" transform="translate(470, 21)"><g id="ro_v6qz5x1rktngv-stroke" fill="none" stroke-linecap="round" stroke-linejoin="round" stroke-miterlimit="4" stroke="#3bc482" stroke-width="2"><g><path d="M 22 10L 154 10C 154 10 166 10 166 22L 166 52C 166 52 166 64 154 64L 22 64C 22 64 10 64 10 52L 10 22C 10 22 10 10 22 10"></path></g></g></g><g id="g-root-ro_6icn91rkv0n9-stroke" data-item-order="999993520" data-item-id="ro_6icn91rkv0n9" data-item-class="Shape Stroke Fill" data-item-index="none" data-renderer-id="0" transform="translate(314, 225)"><g id="ro_6icn91rkv0n9-stroke" fill="none" stroke-linecap="round" stroke-linejoin="round" stroke-miterlimit="4" stroke="#17b0e3" stroke-width="2"><g><path d="M 22 10L 118 10C 118 10 130 10 130 22L 130 52C 130 52 130 64 118 64L 22 64C 22 64 10 64 10 52L 10 22C 10 22 10 10 22 10"></path></g></g></g><g id="g-root-cu_18mkt511rkwg0e-stroke" data-item-order="1000000000" data-item-id="cu_18mkt511rkwg0e" data-item-class="Curve Stroke ColorStrokeGray" data-item-index="none" data-renderer-id="0" transform="translate(278, 30)"><g id="cu_18mkt511rkwg0e-stroke" fill="none" stroke-linecap="round" stroke-linejoin="round" stroke-miterlimit="4" stroke="#888888" stroke-width="2" stroke-dasharray="5.0, 7.0"><g><path d="M 58 61L 55 61L 54.9 61C 43.357252 61.000001 34.000002 51.642752 34.000002 40.1L 34 40L 34 30.9C 33.999998 19.357248 24.64275 10 13.1 10L 13 10L 10 10"></path></g></g></g><g id="g-root-lock_142dzet1rktmo6-stroke" data-item-order="1000000000" data-item-id="lock_142dzet1rktmo6" data-item-class="Icon Stroke" data-item-index="none" data-renderer-id="0" transform="translate(482, 33)"><g id="lock_142dzet1rktmo6-stroke" fill="none" stroke-linecap="round" stroke-linejoin="round" stroke-miterlimit="4" stroke="#3bc482" stroke-width="2"><g><path d="M 10.625 39.375L 10.625 26.875M 10.625 29.375L 19.375 29.375C 21.446068 29.375 23.125 31.053932 23.125 33.125L 30.625 33.125C 32.696068 33.125 34.375 34.803932 34.375 36.875L 10.625 36.875ZM 23.125 33.125L 19.375 33.125M 28.125 16.875L 38.125 16.875C 38.125 16.875 39.375 16.875 39.375 18.125L 39.375 26.875C 39.375 26.875 39.375 28.125 38.125 28.125L 28.125 28.125C 28.125 28.125 26.875 28.125 26.875 26.875L 26.875 18.125C 26.875 18.125 26.875 16.875 28.125 16.875M 29.375 16.875L 29.375 14.375C 29.375002 12.303932 31.053932 10.625 33.125 10.625C 35.196068 10.625 36.875 12.303932 36.875 14.375L 36.875 16.875M 31.25 22.5C 31.25 23.535534 32.089466 24.375 33.125 24.375C 34.160534 24.375 35 23.535534 35 22.5C 35 21.464466 34.160534 20.625 33.125 20.625C 32.089466 20.625 31.25 21.464466 31.25 22.5"></path></g></g></g><g id="g-root-cu_zrk9z91rkwefe-stroke" data-item-order="1000000000" data-item-id="cu_zrk9z91rkwefe" data-item-class="Curve Stroke ColorStrokeGray" data-item-index="none" data-renderer-id="0" transform="translate(236, 57)"><g id="cu_zrk9z91rkwefe-stroke" fill="none" stroke-linecap="round" stroke-linejoin="round" stroke-miterlimit="4" stroke="#888888" stroke-width="2" stroke-dasharray="5.0, 7.0"><g><path d="M 28 10L 28 40L 28 70L 19 70L 10 70"></path></g></g></g><g id="g-root-cu_zrk9z91rkwefg-stroke" data-item-order="1000000000" data-item-id="cu_zrk9z91rkwefg" data-item-class="Curve Stroke ColorStrokeGray" data-item-index="none" data-renderer-id="0" transform="translate(236, 57)"><g id="cu_zrk9z91rkwefg-stroke" fill="none" stroke-linecap="round" stroke-linejoin="round" stroke-miterlimit="4" stroke="#888888" stroke-width="2" stroke-dasharray="5.0, 7.0"><g><path d="M 28 10L 28 58L 28 106L 19 106L 10 106"></path></g></g></g><g id="g-root-cu_146rb0l1rkwgsp-stroke" data-item-order="1000000000" data-item-id="cu_146rb0l1rkwgsp" data-item-class="Curve Stroke ColorStrokeGray" data-item-index="none" data-renderer-id="0" transform="translate(422, 48)"><g id="cu_146rb0l1rkwgsp-stroke" fill="none" stroke-linecap="round" stroke-linejoin="round" stroke-miterlimit="4" stroke="#888888" stroke-width="2" stroke-dasharray="5.0, 7.0"><g><path d="M 10 43L 13 43L 13.1 43C 17.434507 43.002699 22.093115 41.391451 26.400001 38.399998C 28.989958 36.605501 31.751471 32.281553 34 26.500001C 36.248529 20.718449 39.010042 16.394501 41.6 14.6C 45.906888 11.608545 50.565496 9.997297 54.900002 9.999998L 55 10L 58 10"></path></g></g></g><g id="g-root-tx_interfac_18i7hj91rktlvx-stroke" data-item-order="1000000000" data-item-id="tx_interfac_18i7hj91rktlvx" data-item-class="Label Stroke" data-item-index="none" data-renderer-id="0" transform="translate(518, 36)"></g><g id="g-root-tx_classesa_1qbzedh1rkv18u-stroke" data-item-order="1000000000" data-item-id="tx_classesa_1qbzedh1rkv18u" data-item-class="Label Stroke" data-item-index="none" data-renderer-id="0" transform="translate(62, 69)"></g><g id="g-root-cu_146rb0l1rkwgsv-stroke" data-item-order="1000000000" data-item-id="cu_146rb0l1rkwgsv" data-item-class="Curve Stroke ColorStrokeGray" data-item-index="none" data-renderer-id="0" transform="translate(236, 57)"><g id="cu_146rb0l1rkwgsv-stroke" fill="none" stroke-linecap="round" stroke-linejoin="round" stroke-miterlimit="4" stroke="#888888" stroke-width="2" stroke-dasharray="5.0, 7.0"><g><path d="M 28 10L 28 22L 28 34L 19 34L 10 34"></path></g></g></g><g id="g-root-cu_vbqrut1rkwf7q-stroke" data-item-order="1000000000" data-item-id="cu_vbqrut1rkwf7q" data-item-class="Curve Stroke ColorStrokeGray" data-item-index="none" data-renderer-id="0" transform="translate(236, 57)"><g id="cu_vbqrut1rkwf7q-stroke" fill="none" stroke-linecap="round" stroke-linejoin="round" stroke-miterlimit="4" stroke="#888888" stroke-width="2" stroke-dasharray="5.0, 7.0"><g><path d="M 28 10L 28 26.5L 28 130C 28.000005 136.627421 22.627422 142.000005 16.000005 142.000005L 15.9 142L 10 142"></path></g></g></g><g id="g-root-core_1ltnzwl1rkpfd5-stroke" data-item-order="1000000000" data-item-id="core_1ltnzwl1rkpfd5" data-item-class="Icon Stroke" data-item-index="none" data-renderer-id="0" transform="translate(350, 63)"><g id="core_1ltnzwl1rkpfd5-stroke" fill="none" stroke-linecap="round" stroke-linejoin="round" stroke-miterlimit="4" stroke="#484848" stroke-width="2"><g><path d="M 23 11L 45 11C 45 11 47 11 47 13L 47 55C 47 55 47 57 45 57L 23 57C 23 57 21 57 21 55L 21 13C 21 13 21 11 23 11M 43 53L 37 53L 34 50L 31 53L 25 53L 25 15L 31 15L 34 18L 37 15L 43 15L 43 53ZM 47 19L 52 19M 47 25L 52 25M 47 31L 52 31M 47 37L 52 37M 47 43L 52 43M 47 49L 52 49M 16 19L 21 19M 16 25L 21 25M 16 31L 21 31M 16 37L 21 37M 16 43L 21 43M 16 49L 21 49"></path></g></g></g><g id="g-root-cu_vbqrut1rkwf7s-stroke" data-item-order="1000000000" data-item-id="cu_vbqrut1rkwf7s" data-item-class="Curve Stroke ColorStrokeGray" data-item-index="none" data-renderer-id="0" transform="translate(494, 75)"><g id="cu_vbqrut1rkwf7s-stroke" fill="none" stroke-linecap="round" stroke-linejoin="round" stroke-miterlimit="4" stroke="#888888" stroke-width="2" stroke-dasharray="5.0, 7.0"><g><path d="M 10 10L 10 22L 10 34L 19 34L 28 34"></path></g></g></g><g id="g-root-cu_vbqrut1rkwf7v-stroke" data-item-order="1000000000" data-item-id="cu_vbqrut1rkwf7v" data-item-class="Curve Stroke ColorStrokeGray" data-item-index="none" data-renderer-id="0" transform="translate(494, 75)"><g id="cu_vbqrut1rkwf7v-stroke" fill="none" stroke-linecap="round" stroke-linejoin="round" stroke-miterlimit="4" stroke="#888888" stroke-width="2" stroke-dasharray="5.0, 7.0"><g><path d="M 10 10L 10 40L 10 70L 19 70L 28 70"></path></g></g></g><g id="g-root-cu_qvx9qd1rkwg05-stroke" data-item-order="1000000000" data-item-id="cu_qvx9qd1rkwg05" data-item-class="Curve Stroke ColorStrokeGray" data-item-index="none" data-renderer-id="0" transform="translate(494, 75)"><g id="cu_qvx9qd1rkwg05-stroke" fill="none" stroke-linecap="round" stroke-linejoin="round" stroke-miterlimit="4" stroke="#888888" stroke-width="2" stroke-dasharray="5.0, 7.0"><g><path d="M 10 10L 10 22L 10 94C 10.000004 100.627423 15.372587 106.000006 22.000005 106.000005L 22.1 106L 28 106"></path></g></g></g><g id="g-root-tx_interfac_18lbuyt1rkv0ga-stroke" data-item-order="1000000000" data-item-id="tx_interfac_18lbuyt1rkv0ga" data-item-class="Label Stroke" data-item-index="none" data-renderer-id="0" transform="translate(518, 87)"></g><g id="g-root-tx_modlesde_1lw5w911rkv213-stroke" data-item-order="1000000000" data-item-id="tx_modlesde_1lw5w911rkv213" data-item-class="Label Stroke" data-item-index="none" data-renderer-id="0" transform="translate(74, 105)"></g><g id="g-root-tx_core_1upb05h1rkpekg-stroke" data-item-order="1000000000" data-item-id="tx_core_1upb05h1rkpekg" data-item-class="Label Stroke" data-item-index="none" data-renderer-id="0" transform="translate(350, 117)"></g><g id="g-root-tx_typesgnr_18lbuyt1rkv0gb-stroke" data-item-order="1000000000" data-item-id="tx_typesgnr_18lbuyt1rkv0gb" data-item-class="Label Stroke" data-item-index="none" data-renderer-id="0" transform="translate(518, 123)"></g><g id="g-root-tx_abstract_1hgyv7p1rkuznk-stroke" data-item-order="1000000000" data-item-id="tx_abstract_1hgyv7p1rkuznk" data-item-class="Label Stroke" data-item-index="none" data-renderer-id="0" transform="translate(2, 141)"></g><g id="g-root-tx_contrats_145icud1rkv18k-stroke" data-item-order="1000000000" data-item-id="tx_contrats_145icud1rkv18k" data-item-class="Label Stroke" data-item-index="none" data-renderer-id="0" transform="translate(518, 159)"></g><g id="g-root-tx_patterns_1hgyv7p1rkuznl-stroke" data-item-order="1000000000" data-item-id="tx_patterns_1hgyv7p1rkuznl" data-item-class="Label Stroke" data-item-index="none" data-renderer-id="0" transform="translate(50, 177)"></g><g id="g-root-cu_146rb0l1rkwgss-stroke" data-item-order="1000000000" data-item-id="cu_146rb0l1rkwgss" data-item-class="Curve Stroke ColorStrokeGray" data-item-index="none" data-renderer-id="0" transform="translate(374, 165)"><g id="cu_146rb0l1rkwgss-stroke" fill="none" stroke-linecap="round" stroke-linejoin="round" stroke-miterlimit="4" stroke="#888888" stroke-width="2" stroke-dasharray="5.0, 7.0"><g><path d="M 10 10L 10 40L 10 70"></path></g></g></g><g id="g-root-bott_1hi7tdx1rkwf7o-stroke" data-item-order="1000000000" data-item-id="bott_1hi7tdx1rkwf7o" data-item-class="Icon Stroke" data-item-index="none" data-renderer-id="0" transform="translate(236, 15)"><g id="bott_1hi7tdx1rkwf7o-stroke" fill="none" stroke-linecap="round" stroke-linejoin="round" stroke-miterlimit="4" stroke="#4682e3" stroke-width="2"><g><path d="M 34.642857 11.071428L 36.785713 11.071428C 37.969181 11.071428 38.92857 12.030818 38.92857 13.214286L 38.92857 15.357142M 11.071428 15.357142L 11.071428 13.214286C 11.071428 12.030818 12.030818 11.071428 13.214286 11.071428L 15.357142 11.071428M 21.785713 11.071428L 28.214285 11.071428M 11.071428 38.92857L 38.92857 38.92857M 38.92857 21.785713L 38.92857 30.357141M 11.071428 21.785713L 11.071428 30.357141M 25 21.785713L 25 28.214285M 28.214285 25L 21.785713 25M 38.92857 25L 34.642857 25M 15.357142 25L 11.071428 25M 25 11.071428L 25 15.357142"></path></g></g></g><g id="g-root-pure_4mburp1rkuzv0-stroke" data-item-order="1000000000" data-item-id="pure_4mburp1rkuzv0" data-item-class="Icon Stroke" data-item-index="none" data-renderer-id="0" transform="translate(326, 237)"><g id="pure_4mburp1rkuzv0-stroke" fill="none" stroke-linecap="round" stroke-linejoin="round" stroke-miterlimit="4" stroke="#17b0e3" stroke-width="2"><g><path d="M 21.25 23.75L 18.75 26.25L 28.75 26.25L 31.25 23.75L 21.25 23.75ZM 21.25 20.9375L 18.75 18.4375L 28.75 18.4375L 31.25 20.9375L 21.25 20.9375ZM 21.25 31.5625L 18.75 29.0625L 28.75 29.0625L 31.25 31.5625L 21.25 31.5625ZM 16.5625 33.950001L 10.9875 28.387501C 10.750859 28.152792 10.617752 27.833298 10.617752 27.5C 10.617752 27.166702 10.750859 26.847208 10.9875 26.612499L 16.5625 21.049999L 18.325001 22.8125L 13.6375 27.5L 18.325001 32.1875ZM 33.4375 16.049999L 39.012497 21.612499C 39.249142 21.847208 39.382248 22.166702 39.382248 22.5C 39.382248 22.833298 39.249142 23.152792 39.012497 23.387501L 33.4375 28.950001L 31.674999 27.1875L 36.362499 22.5L 31.674999 17.8125Z"></path></g></g></g><g id="g-root-tx_types_dhcdxh1rkv283-stroke" data-item-order="1000000000" data-item-id="tx_types_dhcdxh1rkv283" data-item-class="Label Stroke" data-item-index="none" data-renderer-id="0" transform="translate(362, 240)"></g><g id="g-root-cu_qvx9qd1rkwg07-stroke" data-item-order="1000000000" data-item-id="cu_qvx9qd1rkwg07" data-item-class="Curve Stroke ColorStrokeGray" data-item-index="none" data-renderer-id="0" transform="translate(338, 279)"><g id="cu_qvx9qd1rkwg07-stroke" fill="none" stroke-linecap="round" stroke-linejoin="round" stroke-miterlimit="4" stroke="#888888" stroke-width="2" stroke-dasharray="5.0, 7.0"><g><path d="M 10 10L 10 22L 10 34L 19 34L 28 34"></path></g></g></g><g id="g-root-cu_mg3rlx1rkwgsi-stroke" data-item-order="1000000000" data-item-id="cu_mg3rlx1rkwgsi" data-item-class="Curve Stroke ColorStrokeGray" data-item-index="none" data-renderer-id="0" transform="translate(338, 279)"><g id="cu_mg3rlx1rkwgsi-stroke" fill="none" stroke-linecap="round" stroke-linejoin="round" stroke-miterlimit="4" stroke="#888888" stroke-width="2" stroke-dasharray="5.0, 7.0"><g><path d="M 10 10L 10 40L 10 70L 19 70L 28 70"></path></g></g></g><g id="g-root-cu_mg3rlx1rkwgsk-stroke" data-item-order="1000000000" data-item-id="cu_mg3rlx1rkwgsk" data-item-class="Curve Stroke ColorStrokeGray" data-item-index="none" data-renderer-id="0" transform="translate(338, 279)"><g id="cu_mg3rlx1rkwgsk-stroke" fill="none" stroke-linecap="round" stroke-linejoin="round" stroke-miterlimit="4" stroke="#888888" stroke-width="2" stroke-dasharray="5.0, 7.0"><g><path d="M 10 10L 10 22L 10 94C 10.000004 100.627423 15.372587 106.000006 22.000005 106.000005L 22.1 106L 28 106"></path></g></g></g><g id="g-root-tx_typesuti_145icud1rkv18l-stroke" data-item-order="1000000000" data-item-id="tx_typesuti_145icud1rkv18l" data-item-class="Label Stroke" data-item-index="none" data-renderer-id="0" transform="translate(362, 291)"></g><g id="g-root-tx_typesder_v9vclh1rkv21a-stroke" data-item-order="1000000000" data-item-id="tx_typesder_v9vclh1rkv21a" data-item-class="Label Stroke" data-item-index="none" data-renderer-id="0" transform="translate(362, 327)"></g><g id="g-root-tx_typesgnr_quobk51rkuznr-stroke" data-item-order="1000000000" data-item-id="tx_typesgnr_quobk51rkuznr" data-item-class="Label Stroke" data-item-index="none" data-renderer-id="0" transform="translate(362, 363)"></g><g id="g-root-tx_baseclas_1ly1bid1rkweff-stroke" data-item-order="1000000000" data-item-id="tx_baseclas_1ly1bid1rkweff" data-item-class="Label Stroke" data-item-index="none" data-renderer-id="0" transform="translate(110, 18)"></g></g></g></svg>