<?xml version="1.0" encoding="utf-8" standalone="yes"?>
<!DOCTYPE svg PUBLIC "-//W3C//DTD SVG 1.1//EN" "http://www.w3.org/Graphics/SVG/1.1/DTD/svg11.dtd">
<svg width="696" height="571" viewBox="0 0 696 571" style="fill:none;stroke:none;fill-rule:evenodd;clip-rule:evenodd;stroke-linecap:round;stroke-linejoin:round;stroke-miterlimit:1.5;" version="1.1" xmlns="http://www.w3.org/2000/svg" xmlns:xlink="http://www.w3.org/1999/xlink"><style id="fontImports">@import url("https://fonts.googleapis.com/css2?family=Roboto:wght@400;700&amp;display=block");</style><rect id="" x="0" y="0" width="696" height="571" style="fill: #ffffff;"></rect><g id="items" style="isolation: isolate"><g id="blend" style="mix-blend-mode:normal"><g id="g-root--1.cu_sy_74h3p1qh3p53-fill" data-item-order="999815204" data-item-id="-1.cu_sy_74h3p1qh3p53" data-item-class="Part Fill Stroke ColorFillGray ColorStrokeGray" data-item-index="-1" data-renderer-id="0" transform="translate(302, 74)"><g id="-1.cu_sy_74h3p1qh3p53-fill" stroke="none" fill="#f6f6f6"><g><path d="M 65.766602 478C 80.754802 478 106.000002 373.235 106.000002 244C 106.000002 114.765 80.754802 10 65.766602 10C 80.775202 10.0122 92.941702 115.084 92.941702 244C 92.941702 372.916 80.775202 477.988 65.766602 478ZM 65.765897 478C 80.774597 477.988 92.941097 372.916 92.941097 244C 92.941097 115.084 80.774597 10.0122 65.765897 10L 51.957397 10C 66.060697 18.3945 77.199297 120.263 77.199297 244C 77.199297 367.737 65.382597 469.605 51.279297 478L 65.765897 478ZM 77.2 244C 77.2 367.737 65.3833 469.605 51.28 478L 50.0615 478C 35.0734 478 10 373.235 10 244C 10 114.765 35.0734 10 50.0615 10C 50.6991 10 51.9581 10 51.9581 10C 66.0614 18.3945 77.2 120.263 77.2 244Z"></path></g></g></g><g id="g-root-0.cr-medium_cr_1usf0yd1qh3pq8-fill" data-item-order="999815206" data-item-id="0.cr-medium_cr_1usf0yd1qh3pq8" data-item-class="Shape Stroke Fill Part Indexed_0" data-item-index="0" data-renderer-id="0" transform="translate(471, 272)"><g id="0.cr-medium_cr_1usf0yd1qh3pq8-fill" stroke="none" fill="#f0f0f0"><g><path d="M 10 46C 10 65.882251 26.117749 82 46 82C 65.882251 82 82 65.882251 82 46C 82 26.117749 65.882251 10 46 10C 26.117749 10 10 26.117749 10 46"></path></g></g></g><g id="g-root-6.line_sy_zqxg9h1qh3ncz-fill" data-item-order="999815209" data-item-id="6.line_sy_zqxg9h1qh3ncz" data-item-class="Curve Stroke Part Indexed" data-item-index="6" data-renderer-id="0" transform="translate(218, 350)"></g><g id="g-root-6.cr-small_cr_zqxg9h1qh3nd0-fill" data-item-order="999815210" data-item-id="6.cr-small_cr_zqxg9h1qh3nd0" data-item-class="Shape Stroke Fill Part Indexed" data-item-index="6" data-renderer-id="0" transform="translate(158, 488)"><g id="6.cr-small_cr_zqxg9h1qh3nd0-fill" stroke="none" fill="#fef2e6"><g><path d="M 10 40C 10.000002 56.568544 23.431459 70.000002 40.000002 70.000002C 56.568544 70.000002 70.000002 56.568544 70.000002 40.000002C 70.000002 23.431459 56.568544 10.000002 40.000002 10.000002C 23.431459 10.000002 10.000002 23.431459 10.000002 40.000002"></path></g></g></g><g id="g-root-5.line_sy_1464hat1qh3pqh-fill" data-item-order="999815213" data-item-id="5.line_sy_1464hat1qh3pqh" data-item-class="Curve Stroke Part Indexed" data-item-index="5" data-renderer-id="0" transform="translate(218, 336)"></g><g id="g-root-5.cr-small_cr_1464hat1qh3pqi-fill" data-item-order="999815214" data-item-id="5.cr-small_cr_1464hat1qh3pqi" data-item-class="Shape Stroke Fill Part Indexed" data-item-index="5" data-renderer-id="0" transform="translate(158, 404)"><g id="5.cr-small_cr_1464hat1qh3pqi-fill" stroke="none" fill="#fffce6"><g><path d="M 10 40C 10.000002 56.568544 23.431459 70.000002 40.000002 70.000002C 56.568544 70.000002 70.000002 56.568544 70.000002 40.000002C 70.000002 23.431459 56.568544 10.000002 40.000002 10.000002C 23.431459 10.000002 10.000002 23.431459 10.000002 40.000002"></path></g></g></g><g id="g-root-4.line_sy_18lxzf91qh3oy7-fill" data-item-order="999815217" data-item-id="4.line_sy_18lxzf91qh3oy7" data-item-class="Curve Stroke Part Indexed" data-item-index="4" data-renderer-id="0" transform="translate(218, 318)"></g><g id="g-root-4.cr-small_cr_1d1rhjp1qh3oxs-fill" data-item-order="999815218" data-item-id="4.cr-small_cr_1d1rhjp1qh3oxs" data-item-class="Shape Stroke Fill Part Indexed" data-item-index="4" data-renderer-id="0" transform="translate(158, 320)"><g id="4.cr-small_cr_1d1rhjp1qh3oxs-fill" stroke="none" fill="#ebe6ff"><g><path d="M 10 40C 10.000002 56.568544 23.431459 70.000002 40.000002 70.000002C 56.568544 70.000002 70.000002 56.568544 70.000002 40.000002C 70.000002 23.431459 56.568544 10.000002 40.000002 10.000002C 23.431459 10.000002 10.000002 23.431459 10.000002 40.000002"></path></g></g></g><g id="g-root-3.line_sy_1hhkzo51qh3o5h-fill" data-item-order="999815221" data-item-id="3.line_sy_1hhkzo51qh3o5h" data-item-class="Curve Stroke Part Indexed" data-item-index="3" data-renderer-id="0" transform="translate(218.10940551757812, 266)"></g><g id="g-root-3.cr-small_cr_1hhkzo51qh3o5i-fill" data-item-order="999815222" data-item-id="3.cr-small_cr_1hhkzo51qh3o5i" data-item-class="Shape Stroke Fill Part Indexed" data-item-index="3" data-renderer-id="0" transform="translate(158, 236)"><g id="3.cr-small_cr_1hhkzo51qh3o5i-fill" stroke="none" fill="#e6f9ff"><g><path d="M 10 40C 10.000002 56.568544 23.431459 70.000002 40.000002 70.000002C 56.568544 70.000002 70.000002 56.568544 70.000002 40.000002C 70.000002 23.431459 56.568544 10.000002 40.000002 10.000002C 23.431459 10.000002 10.000002 23.431459 10.000002 40.000002"></path></g></g></g><g id="g-root-2.line_sy_1lxehsl1qh3nd7-fill" data-item-order="999815225" data-item-id="2.line_sy_1lxehsl1qh3nd7" data-item-class="Curve Stroke Part Indexed" data-item-index="2" data-renderer-id="0" transform="translate(218, 182)"></g><g id="g-root-2.cr-small_cr_1hhkzo51qh3o5g-fill" data-item-order="999815226" data-item-id="2.cr-small_cr_1hhkzo51qh3o5g" data-item-class="Shape Stroke Fill Part Indexed" data-item-index="2" data-renderer-id="0" transform="translate(158, 152)"><g id="2.cr-small_cr_1hhkzo51qh3o5g-fill" stroke="none" fill="#f5fbe9"><g><path d="M 10 40C 10.000002 56.568544 23.431459 70.000002 40.000002 70.000002C 56.568544 70.000002 70.000002 56.568544 70.000002 40.000002C 70.000002 23.431459 56.568544 10.000002 40.000002 10.000002C 23.431459 10.000002 10.000002 23.431459 10.000002 40.000002"></path></g></g></g><g id="g-root-1.line_sy_1usf0yd1qh3pq9-fill" data-item-order="999815229" data-item-id="1.line_sy_1usf0yd1qh3pq9" data-item-class="Curve Stroke Part Indexed Indexed_1" data-item-index="1" data-renderer-id="0" transform="translate(218, 98)"></g><g id="g-root-1.cr-small_cr_1lxehsl1qh3nd6-fill" data-item-order="999815230" data-item-id="1.cr-small_cr_1lxehsl1qh3nd6" data-item-class="Shape Stroke Fill Part Indexed Indexed_1" data-item-index="1" data-renderer-id="0" transform="translate(158, 68)"><g id="1.cr-small_cr_1lxehsl1qh3nd6-fill" stroke="none" fill="#e9fbf3"><g><path d="M 10 40C 10.000002 56.568544 23.431459 70.000002 40.000002 70.000002C 56.568544 70.000002 70.000002 56.568544 70.000002 40.000002C 70.000002 23.431459 56.568544 10.000002 40.000002 10.000002C 23.431459 10.000002 10.000002 23.431459 10.000002 40.000002"></path></g></g></g><g id="g-root-cabi_zqxjf91qgsetr-fill" data-item-order="1000000000" data-item-id="cabi_zqxjf91qgsetr" data-item-class="Icon Stroke Indexed InsideFill InsideColorFill" data-item-index="2" data-renderer-id="0" transform="translate(170, 164)"></g><g id="g-root-tx_testabil_hxs0id1qh3pxn-fill" data-item-order="1000000000" data-item-id="tx_testabil_hxs0id1qh3pxn" data-item-class="Label Stroke Indexed" data-item-index="3" data-renderer-id="0" transform="translate(50, 254)"><g id="tx_testabil_hxs0id1qh3pxn-fill" stroke="none" fill="#484848"><g><text style="font: 20px Roboto, sans-serif; white-space: pre;" font-weight="20px" font-size="Roboto," font-family="sans-serif"><tspan x="11.79" y="33.75" dominant-baseline="ideographic">Testabilité</tspan></text></g></g></g><g id="g-root-tube_zqxjf91qgsetq-fill" data-item-order="1000000000" data-item-id="tube_zqxjf91qgsetq" data-item-class="Icon Stroke Indexed InsideFill InsideColorFill" data-item-index="3" data-renderer-id="0" transform="translate(170, 248)"></g><g id="g-root-1_vb41at1qgsfm0-fill" data-item-order="1000000000" data-item-id="1_vb41at1qgsfm0" data-item-class="Icon Stroke Indexed Indexed_1 InsideFill InsideColorFill" data-item-index="1" data-renderer-id="0" transform="translate(170, 80)"></g><g id="g-root-2_18ly2l11qgsh6t-fill" data-item-order="1000000000" data-item-id="2_18ly2l11qgsh6t" data-item-class="Icon Stroke InsideFill" data-item-index="none" data-renderer-id="0" transform="translate(482, 284)"></g><g id="g-root-tx_qualitet_18k2k5x1qh3pxj-fill" data-item-order="1000000000" data-item-id="tx_qualitet_18k2k5x1qh3pxj" data-item-class="Label Stroke" data-item-index="none" data-renderer-id="0" transform="translate(554, 272)"><g id="tx_qualitet_18k2k5x1qh3pxj-fill" stroke="none" fill="#484848"><g><text style="font: 20px Roboto, sans-serif; white-space: pre;" font-weight="20px" font-size="Roboto," font-family="sans-serif"><tspan x="12" y="33.75" dominant-baseline="ideographic">Qualité et </tspan><tspan x="12" y="57.75" dominant-baseline="ideographic">Efficacité du </tspan><tspan x="12" y="81.75" dominant-baseline="ideographic">Code</tspan></text></g></g></g><g id="g-root-tx_rutilisa_dikzh11qh3nk5-fill" data-item-order="1000000000" data-item-id="tx_rutilisa_dikzh11qh3nk5" data-item-class="Label Stroke Indexed Indexed_1" data-item-index="1" data-renderer-id="0" transform="translate(14, 86)"><g id="tx_rutilisa_dikzh11qh3nk5-fill" stroke="none" fill="#484848"><g><text style="font: 20px Roboto, sans-serif; white-space: pre;" font-weight="20px" font-size="Roboto," font-family="sans-serif"><tspan x="20.86" y="33.75" dominant-baseline="ideographic">Réutilisabilité</tspan></text></g></g></g><g id="g-root-tx_performa_hxs0id1qh3pxm-fill" data-item-order="1000000000" data-item-id="tx_performa_hxs0id1qh3pxm" data-item-class="Label Stroke Indexed" data-item-index="4" data-renderer-id="0" transform="translate(26, 338)"><g id="tx_performa_hxs0id1qh3pxm-fill" stroke="none" fill="#484848"><g><text style="font: 20px Roboto, sans-serif; white-space: pre;" font-weight="20px" font-size="Roboto," font-family="sans-serif"><tspan x="12.38" y="33.75" dominant-baseline="ideographic">Performance</tspan></text></g></g></g><g id="g-root-1_1d1rkph1qgsgej-fill" data-item-order="1000000000" data-item-id="1_1d1rkph1qgsgej" data-item-class="Icon Stroke Indexed InsideFill InsideColorFill" data-item-index="4" data-renderer-id="0" transform="translate(170, 332)"></g><g id="g-root-pin_1lxekyd1qgsflu-fill" data-item-order="1000000000" data-item-id="pin_1lxekyd1qgsflu" data-item-class="Icon Stroke Indexed InsideFill InsideColorFill" data-item-index="6" data-renderer-id="0" transform="translate(170, 500)"></g><g id="g-root-tx_nommage_qtf0r91qh3p4x-fill" data-item-order="1000000000" data-item-id="tx_nommage_qtf0r91qh3p4x" data-item-class="Label Stroke Indexed" data-item-index="5" data-renderer-id="0" transform="translate(38, 422)"><g id="tx_nommage_qtf0r91qh3p4x-fill" stroke="none" fill="#484848"><g><text style="font: 20px Roboto, sans-serif; white-space: pre;" font-weight="20px" font-size="Roboto," font-family="sans-serif"><tspan x="22.58" y="33.75" dominant-baseline="ideographic">Nommage</tspan></text></g></g></g><g id="g-root-libr_18ly2l11qgsh6s-fill" data-item-order="1000000000" data-item-id="libr_18ly2l11qgsh6s" data-item-class="Icon Stroke Indexed InsideFill InsideColorFill" data-item-index="5" data-renderer-id="0" transform="translate(170, 416)"></g><g id="g-root-tx_document_144vj4l1qh3nk0-fill" data-item-order="1000000000" data-item-id="tx_document_144vj4l1qh3nk0" data-item-class="Label Stroke Indexed" data-item-index="6" data-renderer-id="0" transform="translate(2, 506)"><g id="tx_document_144vj4l1qh3nk0-fill" stroke="none" fill="#484848"><g><text style="font: 20px Roboto, sans-serif; white-space: pre;" font-weight="20px" font-size="Roboto," font-family="sans-serif"><tspan x="15.57" y="33.75" dominant-baseline="ideographic">Documentation</tspan></text></g></g></g><g id="g-root-tx_construi_4mxz851qh3ocu-fill" data-item-order="1000000000" data-item-id="tx_construi_4mxz851qh3ocu" data-item-class="Label Stroke Title" data-item-index="none" data-renderer-id="0" transform="translate(224, 2)"><g id="tx_construi_4mxz851qh3ocu-fill" stroke="none" fill="#484848"><g><text style="font: 20px Roboto, sans-serif; white-space: pre;" font-weight="20px" font-size="Roboto," font-family="sans-serif"><tspan x="12.83" y="33.75" dominant-baseline="ideographic">Construire un Meilleur Code</tspan></text></g></g></g><g id="g-root-tx_maintena_dikzh11qh3nk4-fill" data-item-order="1000000000" data-item-id="tx_maintena_dikzh11qh3nk4" data-item-class="Label Stroke Indexed" data-item-index="2" data-renderer-id="0" transform="translate(14, 170)"><g id="tx_maintena_dikzh11qh3nk4-fill" stroke="none" fill="#484848"><g><text style="font: 20px Roboto, sans-serif; white-space: pre;" font-weight="20px" font-size="Roboto," font-family="sans-serif"><tspan x="13.81" y="33.75" dominant-baseline="ideographic">Maintenabilité</tspan></text></g></g></g><g id="g-root--1.cu_sy_74h3p1qh3p53-stroke" data-item-order="999815204" data-item-id="-1.cu_sy_74h3p1qh3p53" data-item-class="Part Fill Stroke ColorFillGray ColorStrokeGray" data-item-index="-1" data-renderer-id="0" transform="translate(302, 74)"><g id="-1.cu_sy_74h3p1qh3p53-stroke" fill="none" stroke-linecap="round" stroke-linejoin="round" stroke-miterlimit="4" stroke="#888888" stroke-width="2"><g><path d="M 65.766602 478C 80.754802 478 106.000002 373.2347 106.000002 244C 106.000002 114.7654 80.754802 10 65.766602 10C 80.775202 10.0122 92.941702 115.0836 92.941702 244C 92.941702 372.9165 80.775202 477.9878 65.766602 478ZM 65.765897 478C 80.774597 477.9878 92.941097 372.9165 92.941097 244C 92.941097 115.0836 80.774597 10.0122 65.765897 10L 51.957397 10C 66.060697 18.3945 77.199297 120.2626 77.199297 244C 77.199297 367.7375 65.382597 469.6055 51.279297 478L 65.765897 478ZM 77.2 244C 77.2 367.7375 65.3833 469.6055 51.28 478L 50.0615 478C 35.0734 478 10 373.2347 10 244C 10 114.7654 35.0734 10 50.0615 10C 50.6991 10 51.9581 10 51.9581 10C 66.0614 18.3945 77.2 120.2626 77.2 244Z"></path></g></g></g><g id="g-root-0.cr-medium_cr_1usf0yd1qh3pq8-stroke" data-item-order="999815206" data-item-id="0.cr-medium_cr_1usf0yd1qh3pq8" data-item-class="Shape Stroke Fill Part Indexed_0" data-item-index="0" data-renderer-id="0" transform="translate(471, 272)"><g id="0.cr-medium_cr_1usf0yd1qh3pq8-stroke" fill="none" stroke-linecap="round" stroke-linejoin="round" stroke-miterlimit="4" stroke="#484848" stroke-width="2"><g><path d="M 10 46C 10 65.882251 26.117749 82 46 82C 65.882251 82 82 65.882251 82 46C 82 26.117749 65.882251 10 46 10C 26.117749 10 10 26.117749 10 46"></path></g></g></g><g id="g-root-6.line_sy_zqxg9h1qh3ncz-stroke" data-item-order="999815209" data-item-id="6.line_sy_zqxg9h1qh3ncz" data-item-class="Curve Stroke Part Indexed" data-item-index="6" data-renderer-id="0" transform="translate(218, 350)"><g id="6.line_sy_zqxg9h1qh3ncz-stroke" fill="none" stroke-linecap="round" stroke-linejoin="round" stroke-miterlimit="4" stroke="#dd8433" stroke-width="2"><g><path d="M 272.7 11.52L 130 178L 10 178"></path><path d="M 273.7 20.3L 273 11.1L 263.9 11.8" stroke-dasharray="none"></path></g></g></g><g id="g-root-6.cr-small_cr_zqxg9h1qh3nd0-stroke" data-item-order="999815210" data-item-id="6.cr-small_cr_zqxg9h1qh3nd0" data-item-class="Shape Stroke Fill Part Indexed" data-item-index="6" data-renderer-id="0" transform="translate(158, 488)"><g id="6.cr-small_cr_zqxg9h1qh3nd0-stroke" fill="none" stroke-linecap="round" stroke-linejoin="round" stroke-miterlimit="4" stroke="#dd8433" stroke-width="2"><g><path d="M 10 40C 10.000002 56.568544 23.431459 70.000002 40.000002 70.000002C 56.568544 70.000002 70.000002 56.568544 70.000002 40.000002C 70.000002 23.431459 56.568544 10.000002 40.000002 10.000002C 23.431459 10.000002 10.000002 23.431459 10.000002 40.000002"></path></g></g></g><g id="g-root-5.line_sy_1464hat1qh3pqh-stroke" data-item-order="999815213" data-item-id="5.line_sy_1464hat1qh3pqh" data-item-class="Curve Stroke Part Indexed" data-item-index="5" data-renderer-id="0" transform="translate(218, 336)"><g id="5.line_sy_1464hat1qh3pqh-stroke" fill="none" stroke-linecap="round" stroke-linejoin="round" stroke-miterlimit="4" stroke="#e3cd09" stroke-width="2"><g><path d="M 257.41 11.21L 130 108L 10 108"></path><path d="M 256.6 20L 257.8 10.9L 248.7 9.7" stroke-dasharray="none"></path></g></g></g><g id="g-root-5.cr-small_cr_1464hat1qh3pqi-stroke" data-item-order="999815214" data-item-id="5.cr-small_cr_1464hat1qh3pqi" data-item-class="Shape Stroke Fill Part Indexed" data-item-index="5" data-renderer-id="0" transform="translate(158, 404)"><g id="5.cr-small_cr_1464hat1qh3pqi-stroke" fill="none" stroke-linecap="round" stroke-linejoin="round" stroke-miterlimit="4" stroke="#e3cd09" stroke-width="2"><g><path d="M 10 40C 10.000002 56.568544 23.431459 70.000002 40.000002 70.000002C 56.568544 70.000002 70.000002 56.568544 70.000002 40.000002C 70.000002 23.431459 56.568544 10.000002 40.000002 10.000002C 23.431459 10.000002 10.000002 23.431459 10.000002 40.000002"></path></g></g></g><g id="g-root-4.line_sy_18lxzf91qh3oy7-stroke" data-item-order="999815217" data-item-id="4.line_sy_18lxzf91qh3oy7" data-item-class="Curve Stroke Part Indexed" data-item-index="4" data-renderer-id="0" transform="translate(218, 318)"><g id="4.line_sy_18lxzf91qh3oy7-stroke" fill="none" stroke-linecap="round" stroke-linejoin="round" stroke-miterlimit="4" stroke="#795ee3" stroke-width="2"><g><path d="M 250.07 10.51L 130 42L 10 42"></path><path d="M 245.9 18.3L 250.5 10.4L 242.6 5.7" stroke-dasharray="none"></path></g></g></g><g id="g-root-4.cr-small_cr_1d1rhjp1qh3oxs-stroke" data-item-order="999815218" data-item-id="4.cr-small_cr_1d1rhjp1qh3oxs" data-item-class="Shape Stroke Fill Part Indexed" data-item-index="4" data-renderer-id="0" transform="translate(158, 320)"><g id="4.cr-small_cr_1d1rhjp1qh3oxs-stroke" fill="none" stroke-linecap="round" stroke-linejoin="round" stroke-miterlimit="4" stroke="#795ee3" stroke-width="2"><g><path d="M 10 40C 10.000002 56.568544 23.431459 70.000002 40.000002 70.000002C 56.568544 70.000002 70.000002 56.568544 70.000002 40.000002C 70.000002 23.431459 56.568544 10.000002 40.000002 10.000002C 23.431459 10.000002 10.000002 23.431459 10.000002 40.000002"></path></g></g></g><g id="g-root-3.line_sy_1hhkzo51qh3o5h-stroke" data-item-order="999815221" data-item-id="3.line_sy_1hhkzo51qh3o5h" data-item-class="Curve Stroke Part Indexed" data-item-index="3" data-renderer-id="0" transform="translate(218.10940551757812, 266)"><g id="3.line_sy_1hhkzo51qh3o5h-stroke" fill="none" stroke-linecap="round" stroke-linejoin="round" stroke-miterlimit="4" stroke="#17b0e3" stroke-width="2"><g><path d="M 249.960594 41.49L 129.890594 10L 10.000594 10"></path><path d="M 242.490594 46.3L 250.390594 41.6L 245.790594 33.7" stroke-dasharray="none"></path></g></g></g><g id="g-root-3.cr-small_cr_1hhkzo51qh3o5i-stroke" data-item-order="999815222" data-item-id="3.cr-small_cr_1hhkzo51qh3o5i" data-item-class="Shape Stroke Fill Part Indexed" data-item-index="3" data-renderer-id="0" transform="translate(158, 236)"><g id="3.cr-small_cr_1hhkzo51qh3o5i-stroke" fill="none" stroke-linecap="round" stroke-linejoin="round" stroke-miterlimit="4" stroke="#17b0e3" stroke-width="2"><g><path d="M 10 40C 10.000002 56.568544 23.431459 70.000002 40.000002 70.000002C 56.568544 70.000002 70.000002 56.568544 70.000002 40.000002C 70.000002 23.431459 56.568544 10.000002 40.000002 10.000002C 23.431459 10.000002 10.000002 23.431459 10.000002 40.000002"></path></g></g></g><g id="g-root-2.line_sy_1lxehsl1qh3nd7-stroke" data-item-order="999815225" data-item-id="2.line_sy_1lxehsl1qh3nd7" data-item-class="Curve Stroke Part Indexed" data-item-index="2" data-renderer-id="0" transform="translate(218, 182)"><g id="2.line_sy_1lxehsl1qh3nd7-stroke" fill="none" stroke-linecap="round" stroke-linejoin="round" stroke-miterlimit="4" stroke="#93c131" stroke-width="2"><g><path d="M 257.41 106.79L 130 10L 10 10"></path><path d="M 248.7 108.3L 257.8 107.1L 256.6 98" stroke-dasharray="none"></path></g></g></g><g id="g-root-2.cr-small_cr_1hhkzo51qh3o5g-stroke" data-item-order="999815226" data-item-id="2.cr-small_cr_1hhkzo51qh3o5g" data-item-class="Shape Stroke Fill Part Indexed" data-item-index="2" data-renderer-id="0" transform="translate(158, 152)"><g id="2.cr-small_cr_1hhkzo51qh3o5g-stroke" fill="none" stroke-linecap="round" stroke-linejoin="round" stroke-miterlimit="4" stroke="#93c131" stroke-width="2"><g><path d="M 10 40C 10.000002 56.568544 23.431459 70.000002 40.000002 70.000002C 56.568544 70.000002 70.000002 56.568544 70.000002 40.000002C 70.000002 23.431459 56.568544 10.000002 40.000002 10.000002C 23.431459 10.000002 10.000002 23.431459 10.000002 40.000002"></path></g></g></g><g id="g-root-1.line_sy_1usf0yd1qh3pq9-stroke" data-item-order="999815229" data-item-id="1.line_sy_1usf0yd1qh3pq9" data-item-class="Curve Stroke Part Indexed Indexed_1" data-item-index="1" data-renderer-id="0" transform="translate(218, 98)"><g id="1.line_sy_1usf0yd1qh3pq9-stroke" fill="none" stroke-linecap="round" stroke-linejoin="round" stroke-miterlimit="4" stroke="#3bc482" stroke-width="2"><g><path d="M 272.7 176.48L 130 10L 10 10"></path><path d="M 263.9 176.2L 273 176.9L 273.7 167.7" stroke-dasharray="none"></path></g></g></g><g id="g-root-1.cr-small_cr_1lxehsl1qh3nd6-stroke" data-item-order="999815230" data-item-id="1.cr-small_cr_1lxehsl1qh3nd6" data-item-class="Shape Stroke Fill Part Indexed Indexed_1" data-item-index="1" data-renderer-id="0" transform="translate(158, 68)"><g id="1.cr-small_cr_1lxehsl1qh3nd6-stroke" fill="none" stroke-linecap="round" stroke-linejoin="round" stroke-miterlimit="4" stroke="#3bc482" stroke-width="2"><g><path d="M 10 40C 10.000002 56.568544 23.431459 70.000002 40.000002 70.000002C 56.568544 70.000002 70.000002 56.568544 70.000002 40.000002C 70.000002 23.431459 56.568544 10.000002 40.000002 10.000002C 23.431459 10.000002 10.000002 23.431459 10.000002 40.000002"></path></g></g></g><g id="g-root-cabi_zqxjf91qgsetr-stroke" data-item-order="1000000000" data-item-id="cabi_zqxjf91qgsetr" data-item-class="Icon Stroke Indexed InsideFill InsideColorFill" data-item-index="2" data-renderer-id="0" transform="translate(170, 164)"><g id="cabi_zqxjf91qgsetr-stroke" fill="none" stroke-linecap="round" stroke-linejoin="round" stroke-miterlimit="4" stroke="#93c131" stroke-width="2"><g><path d="M 28 30.25L 45.25 30.25M 34.75 43.75C 34.75 44.578426 35.421574 45.25 36.25 45.25L 43.75 45.25C 44.578426 45.25 45.25 44.578426 45.25 43.75L 45.25 30.25L 34.75 30.25ZM 24.25 27.25L 24.25 34.75C 24.245058 36.404804 22.904802 37.74506 21.25 37.75L 15.25 37.75M 10.75 45.25L 10.75 31.75C 10.75 30.921572 11.421573 30.25 12.25 30.25L 20.5 30.25M 19.75 37.75L 19.75 43L 16 45.25M 19.75 43L 23.5 45.25M 45.25 30.25L 45.25 12.25C 45.25 11.421573 44.578426 10.75 43.75 10.75L 34.75 10.75L 34.75 30.25M 10.75 18.25L 10.75 12.25C 10.75 11.421573 11.421573 10.75 12.25 10.75L 34.75 10.75L 34.75 18.25M 19.75 10.75L 19.75 21.25M 27.25 10.75L 27.25 21.25M 34.75 18.25L 34.75 21.25L 12.25 21.25C 11.421573 21.25 10.75 20.578426 10.75 19.75L 10.75 18.25M 37.75 13.75L 37.75 15.25M 30.25 13.75L 30.25 15.25M 22.75 13.75L 22.75 15.25M 13.75 13.75L 13.75 15.25M 37.75 33.25L 37.75 34.75"></path></g></g></g><g id="g-root-tx_testabil_hxs0id1qh3pxn-stroke" data-item-order="1000000000" data-item-id="tx_testabil_hxs0id1qh3pxn" data-item-class="Label Stroke Indexed" data-item-index="3" data-renderer-id="0" transform="translate(50, 254)"></g><g id="g-root-tube_zqxjf91qgsetq-stroke" data-item-order="1000000000" data-item-id="tube_zqxjf91qgsetq" data-item-class="Icon Stroke Indexed InsideFill InsideColorFill" data-item-index="3" data-renderer-id="0" transform="translate(170, 248)"><g id="tube_zqxjf91qgsetq-stroke" fill="none" stroke-linecap="round" stroke-linejoin="round" stroke-miterlimit="4" stroke="#17b0e3" stroke-width="2"><g><path d="M 16.428572 11.285714L 39.571426 11.285714M 35.714287 11.285714L 35.714287 37C 35.714287 41.260483 32.260483 44.714287 28 44.714287C 23.739517 44.714287 20.285713 41.260483 20.285713 37L 20.285713 11.285714"></path></g></g></g><g id="g-root-1_vb41at1qgsfm0-stroke" data-item-order="1000000000" data-item-id="1_vb41at1qgsfm0" data-item-class="Icon Stroke Indexed Indexed_1 InsideFill InsideColorFill" data-item-index="1" data-renderer-id="0" transform="translate(170, 80)"><g id="1_vb41at1qgsfm0-stroke" fill="none" stroke-linecap="round" stroke-linejoin="round" stroke-miterlimit="4" stroke="#3bc482" stroke-width="2"><g><path d="M 10.75 19L 45.25 19L 45.25 43L 10.75 43ZM 22.75 19L 22.75 16C 22.754124 14.344856 24.094858 13.004123 25.750002 13L 30.25 13C 31.905146 13.004123 33.24588 14.344856 33.25 16L 33.25 19M 35.149002 31.612C 34.975334 31.472202 34.872864 31.262388 34.869385 31.039474C 34.865906 30.816557 34.961781 30.603649 35.131001 30.4585L 36.040001 29.68C 36.175858 29.56382 36.348743 29.499985 36.5275 29.5L 38.477501 29.5C 38.761581 29.5 39.021275 29.339499 39.148319 29.085411C 39.275368 28.831322 39.247948 28.527264 39.077499 28.299999C 38.088493 26.976545 36.450119 26.306545 34.817162 26.557772C 33.184196 26.808996 31.822973 27.940472 31.2775 29.500002L 24.723999 29.5C 24.094749 27.705362 22.401758 26.502953 20.5 26.500002C 19.135368 26.547546 17.861774 27.196701 17.0215 28.273001C 16.836857 28.497036 16.798096 28.807512 16.921991 29.070066C 17.045887 29.332623 17.310181 29.50009 17.6005 29.5L 19.4725 29.5C 19.651258 29.499985 19.824142 29.56382 19.959999 29.68L 20.868999 30.4585C 21.038219 30.603649 21.134094 30.816557 21.130615 31.039474C 21.127136 31.262388 21.024666 31.472202 20.851 31.612L 19.951 32.3335C 19.819244 32.439911 19.655354 32.498592 19.486 32.5L 17.6005 32.5C 17.310181 32.499908 17.045887 32.667377 16.921991 32.929932C 16.798096 33.19249 16.836857 33.502964 17.0215 33.727001C 17.861774 34.803299 19.135368 35.452454 20.5 35.5C 22.401758 35.497051 24.094749 34.294643 24.724001 32.5L 31.276001 32.5C 31.820641 34.060307 33.181988 35.192608 34.815399 35.443905C 36.448814 35.695198 38.087551 35.024445 39.076 33.700001C 39.246445 33.472736 39.273865 33.168678 39.14682 32.914589C 39.019775 32.660503 38.760078 32.5 38.475998 32.5L 36.514 32.5C 36.343102 32.499611 36.17746 32.440872 36.044502 32.3335Z"></path></g></g></g><g id="g-root-2_18ly2l11qgsh6t-stroke" data-item-order="1000000000" data-item-id="2_18ly2l11qgsh6t" data-item-class="Icon Stroke InsideFill" data-item-index="none" data-renderer-id="0" transform="translate(482, 284)"><g id="2_18ly2l11qgsh6t-stroke" fill="none" stroke-linecap="round" stroke-linejoin="round" stroke-miterlimit="4" stroke="#484848" stroke-width="2"><g><path d="M 57 49C 57 51.209141 55.209141 53 53 53L 15 53C 12.790861 53 11 51.209141 11 49L 11 47L 57 47ZM 15 53L 15 57M 53 53L 53 57M 34 47L 24 47L 24 13C 24 11.895431 24.895432 11 26 11L 32 11C 33.104568 11 34 11.895431 34 13ZM 44.287998 47L 40.312 14.188C 40.179146 13.091783 40.959839 12.095322 42.056 11.962L 48.012001 11.24C 49.10891 11.107193 50.105686 11.88903 50.237999 12.986L 54.360001 47M 40 47L 34 47L 34 17L 38 17C 39.104568 17 40 17.895432 40 19ZM 24 47L 14 47L 14 13C 14 11.895431 14.895431 11 16 11L 22 11C 23.104568 11 24 11.895431 24 13ZM 28 41L 30 41M 18 41L 20 41M 19 17L 19 35M 29 17L 29 35M 46 37C 46 38.104568 46.895432 39 48 39C 49.104568 39 50 38.104568 50 37C 50 35.895432 49.104568 35 48 35C 46.895432 35 46 35.895432 46 37Z"></path></g></g></g><g id="g-root-tx_qualitet_18k2k5x1qh3pxj-stroke" data-item-order="1000000000" data-item-id="tx_qualitet_18k2k5x1qh3pxj" data-item-class="Label Stroke" data-item-index="none" data-renderer-id="0" transform="translate(554, 272)"></g><g id="g-root-tx_rutilisa_dikzh11qh3nk5-stroke" data-item-order="1000000000" data-item-id="tx_rutilisa_dikzh11qh3nk5" data-item-class="Label Stroke Indexed Indexed_1" data-item-index="1" data-renderer-id="0" transform="translate(14, 86)"></g><g id="g-root-tx_performa_hxs0id1qh3pxm-stroke" data-item-order="1000000000" data-item-id="tx_performa_hxs0id1qh3pxm" data-item-class="Label Stroke Indexed" data-item-index="4" data-renderer-id="0" transform="translate(26, 338)"></g><g id="g-root-1_1d1rkph1qgsgej-stroke" data-item-order="1000000000" data-item-id="1_1d1rkph1qgsgej" data-item-class="Icon Stroke Indexed InsideFill InsideColorFill" data-item-index="4" data-renderer-id="0" transform="translate(170, 332)"><g id="1_1d1rkph1qgsgej-stroke" fill="none" stroke-linecap="round" stroke-linejoin="round" stroke-miterlimit="4" stroke="#795ee3" stroke-width="2"><g><path d="M 44.5 11.35L 31.228001 11.35C 29.286457 11.348791 27.397472 11.980735 25.8475 13.15C 14.3785 25.0285 14.3695 24.5755 14.3695 26.422001C 14.374453 28.396914 15.975082 29.996201 17.949999 29.9995L 44.5 29.9995M 23.4175 15.651999L 36.608501 15.651999L 32.305 19.957001C 31.627174 20.859589 30.564264 21.390764 29.435499 21.390999L 17.8255 21.390999M 19.9165 29.9995C 20.493082 29.152227 20.809072 28.15472 20.8255 27.130001C 20.738598 24.851099 19.210157 22.880533 17.0245 22.2295M 44.5 34.913498L 11.5 34.913498M 44.5 39.057999L 11.5 39.057999M 15.0865 44.653L 15.0865 39.057999L 19.3915 39.057999L 19.3915 44.653M 25.8475 44.653L 25.8475 39.057999L 30.1525 39.057999L 30.1525 44.653M 36.608501 44.653L 36.608501 39.057999L 40.913498 39.057999L 40.913498 44.653"></path></g></g></g><g id="g-root-pin_1lxekyd1qgsflu-stroke" data-item-order="1000000000" data-item-id="pin_1lxekyd1qgsflu" data-item-class="Icon Stroke Indexed InsideFill InsideColorFill" data-item-index="6" data-renderer-id="0" transform="translate(170, 500)"><g id="pin_1lxekyd1qgsflu-stroke" fill="none" stroke-linecap="round" stroke-linejoin="round" stroke-miterlimit="4" stroke="#dd8433" stroke-width="2"><g><path d="M 39.571426 22.857143C 39.571426 29.259998 28 44.714287 28 44.714287C 28 44.714287 16.428572 29.259998 16.428572 22.857143C 16.428572 16.466419 21.609276 11.285714 28 11.285714C 34.39072 11.285714 39.571426 16.466419 39.571426 22.857143ZM 24.142857 22.857143C 24.142857 24.987385 25.869759 26.714285 28 26.714285C 30.130241 26.714285 31.857143 24.987385 31.857143 22.857143C 31.857143 20.726902 30.130241 19 28 19C 25.869759 19 24.142857 20.726902 24.142857 22.857143"></path></g></g></g><g id="g-root-tx_nommage_qtf0r91qh3p4x-stroke" data-item-order="1000000000" data-item-id="tx_nommage_qtf0r91qh3p4x" data-item-class="Label Stroke Indexed" data-item-index="5" data-renderer-id="0" transform="translate(38, 422)"></g><g id="g-root-libr_18ly2l11qgsh6s-stroke" data-item-order="1000000000" data-item-id="libr_18ly2l11qgsh6s" data-item-class="Icon Stroke Indexed InsideFill InsideColorFill" data-item-index="5" data-renderer-id="0" transform="translate(170, 416)"><g id="libr_18ly2l11qgsh6s-stroke" fill="none" stroke-linecap="round" stroke-linejoin="round" stroke-miterlimit="4" stroke="#e3cd09" stroke-width="2"><g><path d="M 20.167 43.75C 20.167 44.578426 19.495426 45.25 18.667 45.25L 12.667 45.25C 11.838573 45.25 11.167 44.578426 11.167 43.75L 11.167 12.25C 11.167 11.421573 11.838573 10.75 12.667 10.75L 18.667 10.75C 19.495426 10.75 20.167 11.421573 20.167 12.25ZM 29.167 43.75C 29.167 44.578426 28.495428 45.25 27.667 45.25L 21.667 45.25C 20.838573 45.25 20.167 44.578426 20.167 43.75L 20.167 24.25C 20.167 23.421572 20.838573 22.75 21.667 22.75L 27.667 22.75C 28.495428 22.75 29.167 23.421572 29.167 24.25ZM 24.667 40L 24.667 42.25M 15.667 13.75L 15.667 33.25M 24.667 25.75L 24.667 37M 15.661 37L 15.661 41.5M 44.758003 41.031998C 45.015163 41.819416 44.585381 42.666225 43.798 42.9235L 38.098 44.785C 37.31015 45.042034 36.463142 44.611481 36.206501 43.823502L 27.826 18.1555C 27.568836 17.368084 27.998621 16.521275 28.785999 16.264L 34.486 14.4025C 35.273849 14.145464 36.120857 14.57602 36.377499 15.364ZM 32.569 18.185499L 37.222 32.445999M 38.380001 36.013L 39.775002 40.291"></path></g></g></g><g id="g-root-tx_document_144vj4l1qh3nk0-stroke" data-item-order="1000000000" data-item-id="tx_document_144vj4l1qh3nk0" data-item-class="Label Stroke Indexed" data-item-index="6" data-renderer-id="0" transform="translate(2, 506)"></g><g id="g-root-tx_construi_4mxz851qh3ocu-stroke" data-item-order="1000000000" data-item-id="tx_construi_4mxz851qh3ocu" data-item-class="Label Stroke Title" data-item-index="none" data-renderer-id="0" transform="translate(224, 2)"></g><g id="g-root-tx_maintena_dikzh11qh3nk4-stroke" data-item-order="1000000000" data-item-id="tx_maintena_dikzh11qh3nk4" data-item-class="Label Stroke Indexed" data-item-index="2" data-renderer-id="0" transform="translate(14, 170)"></g></g></g></svg>