<?xml version="1.0" encoding="utf-8" standalone="yes"?>
<!DOCTYPE svg PUBLIC "-//W3C//DTD SVG 1.1//EN" "http://www.w3.org/Graphics/SVG/1.1/DTD/svg11.dtd">
<svg width="888" height="325" viewBox="0 0 888 325" style="fill:none;stroke:none;fill-rule:evenodd;clip-rule:evenodd;stroke-linecap:round;stroke-linejoin:round;stroke-miterlimit:1.5;" version="1.1" xmlns="http://www.w3.org/2000/svg" xmlns:xlink="http://www.w3.org/1999/xlink"><style id="fontImports">@import url("https://fonts.googleapis.com/css2?family=Roboto:wght@400;700&amp;display=block");</style><rect id="" x="0" y="0" width="888" height="325" style="fill: #ffffff;"></rect><g id="items" style="isolation: isolate"><g id="blend" style="mix-blend-mode:normal"><g id="g-root-ro_vbpt5x1tiqsqz-fill" data-item-order="999977032" data-item-id="ro_vbpt5x1tiqsqz" data-item-class="Shape Stroke Fill" data-item-index="none" data-renderer-id="0" transform="translate(386, 66)"><g id="ro_vbpt5x1tiqsqz-fill" stroke="none" fill="#f0f0f0"><g><path d="M 34 10L 118 10C 118 10 142 10 142 34L 142 160C 142 160 142 184 118 184L 34 184C 34 184 10 184 10 160L 10 34C 10 34 10 10 34 10"></path></g></g></g><g id="g-root-ro_1q7l78l1tixszx-fill" data-item-order="999985096" data-item-id="ro_1q7l78l1tixszx" data-item-class="Shape Stroke Fill" data-item-index="none" data-renderer-id="0" transform="translate(62, 3)"><g id="ro_1q7l78l1tixszx-fill" stroke="none" fill="#e6efff"><g><path d="M 22 10L 274 10C 274 10 286 10 286 22L 286 52C 286 52 286 64 274 64L 22 64C 22 64 10 64 10 52L 10 22C 10 22 10 10 22 10"></path></g></g></g><g id="g-root-ro_1lt0nad1tj0nid-fill" data-item-order="999985096" data-item-id="ro_1lt0nad1tj0nid" data-item-class="Shape Stroke Fill" data-item-index="none" data-renderer-id="0" transform="translate(62, 177)"><g id="ro_1lt0nad1tj0nid-fill" stroke="none" fill="#fef2e6"><g><path d="M 22 10L 274 10C 274 10 286 10 286 22L 286 52C 286 52 286 64 274 64L 22 64C 22 64 10 64 10 52L 10 22C 10 22 10 10 22 10"></path></g></g></g><g id="g-root-ro_qqa4f91tipedc-fill" data-item-order="999985744" data-item-id="ro_qqa4f91tipedc" data-item-class="Shape Stroke Fill" data-item-index="none" data-renderer-id="0" transform="translate(566, 165)"><g id="ro_qqa4f91tipedc-fill" stroke="none" fill="#fffce6"><g><path d="M 22 10L 262 10C 262 10 274 10 274 22L 274 52C 274 52 274 64 262 64L 22 64C 22 64 10 64 10 52L 10 22C 10 22 10 10 22 10"></path></g></g></g><g id="g-root-ro_1cu96g51tj6802-fill" data-item-order="999987040" data-item-id="ro_1cu96g51tj6802" data-item-class="Shape Stroke Fill" data-item-index="none" data-renderer-id="0" transform="translate(566, 15)"><g id="ro_1cu96g51tj6802-fill" stroke="none" fill="#e9fbf3"><g><path d="M 22 10L 238 10C 238 10 250 10 250 22L 250 52C 250 52 250 64 238 64L 22 64C 22 64 10 64 10 52L 10 22C 10 22 10 10 22 10"></path></g></g></g><g id="g-root-puzz_1ha2okl1tj677t-fill" data-item-order="1000000000" data-item-id="puzz_1ha2okl1tj677t" data-item-class="Icon Stroke" data-item-index="none" data-renderer-id="0" transform="translate(578, 27)"></g><g id="g-root-cu_1hdtm911tj0l4x-fill" data-item-order="1000000000" data-item-id="cu_1hdtm911tj0l4x" data-item-class="Curve Stroke ColorStrokeGray" data-item-index="none" data-renderer-id="0" transform="translate(518, 42)"></g><g id="g-root-tx_variable_1uuwb8l1tj4u88-fill" data-item-order="1000000000" data-item-id="tx_variable_1uuwb8l1tj4u88" data-item-class="Label Stroke" data-item-index="none" data-renderer-id="0" transform="translate(614, 30)"><g id="tx_variable_1uuwb8l1tj4u88-fill" stroke="none" fill="#3bc482"><g><text style="font: 20px Roboto, sans-serif; white-space: pre;" font-weight="20px" font-size="Roboto," font-family="sans-serif"><tspan x="15.95" y="33.75" dominant-baseline="ideographic">Variables et Mixins</tspan></text></g></g></g><g id="g-root-tx_structur_dhxzhh1titmvj-fill" data-item-order="1000000000" data-item-id="tx_structur_dhxzhh1titmvj" data-item-class="Label Stroke" data-item-index="none" data-renderer-id="0" transform="translate(74, 69)"><g id="tx_structur_dhxzhh1titmvj-fill" stroke="none" fill="#484848"><g><text style="font: 20px Roboto, sans-serif; white-space: pre;" font-weight="20px" font-size="Roboto," font-family="sans-serif"><tspan x="13.04" y="33.75" dominant-baseline="ideographic">Structure Basée sur les </tspan><tspan x="58.7" y="57.75" dominant-baseline="ideographic">Composants</tspan></text></g></g></g><g id="g-root-cu_1cy044l1tj0lxe-fill" data-item-order="1000000000" data-item-id="cu_1cy044l1tj0lxe" data-item-class="Curve Stroke ColorStrokeGray" data-item-index="none" data-renderer-id="0" transform="translate(296, 57)"></g><g id="g-root-cu_1cy044l1tj0lxh-fill" data-item-order="1000000000" data-item-id="cu_1cy044l1tj0lxh" data-item-class="Curve Stroke ColorStrokeGray" data-item-index="none" data-renderer-id="0" transform="translate(296, 57)"></g><g id="g-root-cu_142d3vp1tj0mq7-fill" data-item-order="1000000000" data-item-id="cu_142d3vp1tj0mq7" data-item-class="Curve Stroke ColorStrokeGray" data-item-index="none" data-renderer-id="0" transform="translate(590, 69)"></g><g id="g-root-cu_18i6m051tj0mpu-fill" data-item-order="1000000000" data-item-id="cu_18i6m051tj0mpu" data-item-class="Curve Stroke ColorStrokeGray" data-item-index="none" data-renderer-id="0" transform="translate(590, 69)"></g><g id="g-root-1_147ctet1tiqrya-fill" data-item-order="1000000000" data-item-id="1_147ctet1tiqrya" data-item-class="Icon Stroke" data-item-index="none" data-renderer-id="0" transform="translate(428, 90)"></g><g id="g-root-tx_variable_4mxgbp1titla9-fill" data-item-order="1000000000" data-item-id="tx_variable_4mxgbp1titla9" data-item-class="Label Stroke" data-item-index="none" data-renderer-id="0" transform="translate(614, 81)"><g id="tx_variable_4mxgbp1titla9-fill" stroke="none" fill="#484848"><g><text style="font: 20px Roboto, sans-serif; white-space: pre;" font-weight="20px" font-size="Roboto," font-family="sans-serif"><tspan x="13.11" y="33.75" dominant-baseline="ideographic">Variables Dynamiques</tspan></text></g></g></g><g id="g-root-tx_sparatio_92qyg51titki0-fill" data-item-order="1000000000" data-item-id="tx_sparatio_92qyg51titki0" data-item-class="Label Stroke" data-item-index="none" data-renderer-id="0" transform="translate(2, 129)"><g id="tx_sparatio_92qyg51titki0-fill" stroke="none" fill="#484848"><g><text style="font: 20px Roboto, sans-serif; white-space: pre;" font-weight="20px" font-size="Roboto," font-family="sans-serif"><tspan x="15.43" y="33.75" dominant-baseline="ideographic">Séparation des Préoccupations</tspan></text></g></g></g><g id="g-root-tx_mixinsru_1usei1x1titlvu-fill" data-item-order="1000000000" data-item-id="tx_mixinsru_1usei1x1titlvu" data-item-class="Label Stroke" data-item-index="none" data-renderer-id="0" transform="translate(614, 117)"><g id="tx_mixinsru_1usei1x1titlvu-fill" stroke="none" fill="#484848"><g><text style="font: 20px Roboto, sans-serif; white-space: pre;" font-weight="20px" font-size="Roboto," font-family="sans-serif"><tspan x="17.71" y="33.75" dominant-baseline="ideographic">Mixins Réutilisables</tspan></text></g></g></g><g id="g-root-tx_styleset_1hi6up11tiqtj5-fill" data-item-order="1000000000" data-item-id="tx_styleset_1hi6up11tiqtj5" data-item-class="Label Stroke" data-item-index="none" data-renderer-id="0" transform="translate(410, 144)"><g id="tx_styleset_1hi6up11tiqtj5-fill" stroke="none" fill="#484848"><g><text style="font: 20px Roboto, sans-serif; white-space: pre;" font-weight="20px" font-size="Roboto," font-family="sans-serif"><tspan x="11.86" y="33.75" dominant-baseline="ideographic">Styles et </tspan><tspan x="13.72" y="57.75" dominant-baseline="ideographic">Thèmes </tspan><tspan x="25.42" y="81.75" dominant-baseline="ideographic">SCSS</tspan></text></g></g></g><g id="g-root-cu_1cy044l1tj0l5a-fill" data-item-order="1000000000" data-item-id="cu_1cy044l1tj0l5a" data-item-class="Curve Stroke ColorStrokeGray" data-item-index="none" data-renderer-id="0" transform="translate(338, 30)"></g><g id="g-root-2_1q7l78l1tixszw-fill" data-item-order="1000000000" data-item-id="2_1q7l78l1tixszw" data-item-class="Icon Stroke" data-item-index="none" data-renderer-id="0" transform="translate(296, 15)"></g><g id="g-root-wren_v63mjp1tipdl3-fill" data-item-order="1000000000" data-item-id="wren_v63mjp1tipdl3" data-item-class="Icon Stroke" data-item-index="none" data-renderer-id="0" transform="translate(578, 177)"></g><g id="g-root-tx_utilitai_3d3ol1tj0m4j-fill" data-item-order="1000000000" data-item-id="tx_utilitai_3d3ol1tj0m4j" data-item-class="Label Stroke" data-item-index="none" data-renderer-id="0" transform="translate(74, 192)"><g id="tx_utilitai_3d3ol1tj0m4j-fill" stroke="none" fill="#dd8433"><g><text style="font: 20px Roboto, sans-serif; white-space: pre;" font-weight="20px" font-size="Roboto," font-family="sans-serif"><tspan x="17.01" y="33.75" dominant-baseline="ideographic">Utilitaires Réutilisables</tspan></text></g></g></g><g id="g-root-bin_1q8u5et1tj0mq4-fill" data-item-order="1000000000" data-item-id="bin_1q8u5et1tj0mq4" data-item-class="Icon Stroke" data-item-index="none" data-renderer-id="0" transform="translate(296, 189)"></g><g id="g-root-cu_1hdtm911tj0l53-fill" data-item-order="1000000000" data-item-id="cu_1hdtm911tj0l53" data-item-class="Curve Stroke ColorStrokeGray" data-item-index="none" data-renderer-id="0" transform="translate(338, 182)"></g><g id="g-root-cu_1hdtm911tj0l50-fill" data-item-order="1000000000" data-item-id="cu_1hdtm911tj0l50" data-item-class="Curve Stroke ColorStrokeGray" data-item-index="none" data-renderer-id="0" transform="translate(518, 182)"></g><g id="g-root-tx_thmescon_18gxntx1tipf5y-fill" data-item-order="1000000000" data-item-id="tx_thmescon_18gxntx1tipf5y" data-item-class="Label Stroke" data-item-index="none" data-renderer-id="0" transform="translate(614, 180)"><g id="tx_thmescon_18gxntx1tipf5y-fill" stroke="none" fill="#e3cd09"><g><text style="font: 20px Roboto, sans-serif; white-space: pre;" font-weight="20px" font-size="Roboto," font-family="sans-serif"><tspan x="12.02" y="33.75" dominant-baseline="ideographic">Thèmes Configurables</tspan></text></g></g></g><g id="g-root-cu_zmjlr91tj0nin-fill" data-item-order="1000000000" data-item-id="cu_zmjlr91tj0nin" data-item-class="Curve Stroke ColorStrokeGray" data-item-index="none" data-renderer-id="0" transform="translate(590, 219)"></g><g id="g-root-tx_classesu_1hhkgrp1titkb1-fill" data-item-order="1000000000" data-item-id="tx_classesu_1hhkgrp1titkb1" data-item-class="Label Stroke" data-item-index="none" data-renderer-id="0" transform="translate(122, 243)"><g id="tx_classesu_1hhkgrp1titkb1-fill" stroke="none" fill="#484848"><g><text style="font: 20px Roboto, sans-serif; white-space: pre;" font-weight="20px" font-size="Roboto," font-family="sans-serif"><tspan x="14.47" y="33.75" dominant-baseline="ideographic">Classes Utilitaires</tspan></text></g></g></g><g id="g-root-cu_142d3vp1tj0ni9-fill" data-item-order="1000000000" data-item-id="cu_142d3vp1tj0ni9" data-item-class="Curve Stroke ColorStrokeGray" data-item-index="none" data-renderer-id="0" transform="translate(296, 231)"></g><g id="g-root-cu_v7ckpx1tj0l58-fill" data-item-order="1000000000" data-item-id="cu_v7ckpx1tj0l58" data-item-class="Curve Stroke ColorStrokeGray" data-item-index="none" data-renderer-id="0" transform="translate(296, 231)"></g><g id="g-root-tx_commutat_1qckzxh1titmo3-fill" data-item-order="1000000000" data-item-id="tx_commutat_1qckzxh1titmo3" data-item-class="Label Stroke" data-item-index="none" data-renderer-id="0" transform="translate(614, 231)"><g id="tx_commutat_1qckzxh1titmo3-fill" stroke="none" fill="#484848"><g><text style="font: 20px Roboto, sans-serif; white-space: pre;" font-weight="20px" font-size="Roboto," font-family="sans-serif"><tspan x="16.05" y="33.75" dominant-baseline="ideographic">Commutateur de Thème</tspan></text></g></g></g><g id="g-root-tx_fonction_1d1qyn91titl3a-fill" data-item-order="1000000000" data-item-id="tx_fonction_1d1qyn91titl3a" data-item-class="Label Stroke" data-item-index="none" data-renderer-id="0" transform="translate(134, 279)"><g id="tx_fonction_1d1qyn91titl3a-fill" stroke="none" fill="#484848"><g><text style="font: 20px Roboto, sans-serif; white-space: pre;" font-weight="20px" font-size="Roboto," font-family="sans-serif"><tspan x="14.88" y="33.75" dominant-baseline="ideographic">Fonctions d'Aide</tspan></text></g></g></g><g id="g-root-tx_variable_1qckzxh1titmo4-fill" data-item-order="1000000000" data-item-id="tx_variable_1qckzxh1titmo4" data-item-class="Label Stroke" data-item-index="none" data-renderer-id="0" transform="translate(614, 267)"><g id="tx_variable_1qckzxh1titmo4-fill" stroke="none" fill="#484848"><g><text style="font: 20px Roboto, sans-serif; white-space: pre;" font-weight="20px" font-size="Roboto," font-family="sans-serif"><tspan x="16" y="33.75" dominant-baseline="ideographic">Variables Personnalisables</tspan></text></g></g></g><g id="g-root-tx_architec_dcy6sl1tixtz7-fill" data-item-order="1000000000" data-item-id="tx_architec_dcy6sl1tixtz7" data-item-class="Label Stroke" data-item-index="none" data-renderer-id="0" transform="translate(74, 18)"><g id="tx_architec_dcy6sl1tixtz7-fill" stroke="none" fill="#4682e3"><g><text style="font: 20px Roboto, sans-serif; white-space: pre;" font-weight="20px" font-size="Roboto," font-family="sans-serif"><tspan x="16.91" y="33.75" dominant-baseline="ideographic">Architecture Modulaire</tspan></text></g></g></g><g id="g-root-cu_18i6m051tj0mpw-fill" data-item-order="1000000000" data-item-id="cu_18i6m051tj0mpw" data-item-class="Curve Stroke ColorStrokeGray" data-item-index="none" data-renderer-id="0" transform="translate(590, 219)"></g><g id="g-root-ro_vbpt5x1tiqsqz-stroke" data-item-order="999977032" data-item-id="ro_vbpt5x1tiqsqz" data-item-class="Shape Stroke Fill" data-item-index="none" data-renderer-id="0" transform="translate(386, 66)"><g id="ro_vbpt5x1tiqsqz-stroke" fill="none" stroke-linecap="round" stroke-linejoin="round" stroke-miterlimit="4" stroke="#484848" stroke-width="2"><g><path d="M 34 10L 118 10C 118 10 142 10 142 34L 142 160C 142 160 142 184 118 184L 34 184C 34 184 10 184 10 160L 10 34C 10 34 10 10 34 10"></path></g></g></g><g id="g-root-ro_1q7l78l1tixszx-stroke" data-item-order="999985096" data-item-id="ro_1q7l78l1tixszx" data-item-class="Shape Stroke Fill" data-item-index="none" data-renderer-id="0" transform="translate(62, 3)"><g id="ro_1q7l78l1tixszx-stroke" fill="none" stroke-linecap="round" stroke-linejoin="round" stroke-miterlimit="4" stroke="#4682e3" stroke-width="2"><g><path d="M 22 10L 274 10C 274 10 286 10 286 22L 286 52C 286 52 286 64 274 64L 22 64C 22 64 10 64 10 52L 10 22C 10 22 10 10 22 10"></path></g></g></g><g id="g-root-ro_1lt0nad1tj0nid-stroke" data-item-order="999985096" data-item-id="ro_1lt0nad1tj0nid" data-item-class="Shape Stroke Fill" data-item-index="none" data-renderer-id="0" transform="translate(62, 177)"><g id="ro_1lt0nad1tj0nid-stroke" fill="none" stroke-linecap="round" stroke-linejoin="round" stroke-miterlimit="4" stroke="#dd8433" stroke-width="2"><g><path d="M 22 10L 274 10C 274 10 286 10 286 22L 286 52C 286 52 286 64 274 64L 22 64C 22 64 10 64 10 52L 10 22C 10 22 10 10 22 10"></path></g></g></g><g id="g-root-ro_qqa4f91tipedc-stroke" data-item-order="999985744" data-item-id="ro_qqa4f91tipedc" data-item-class="Shape Stroke Fill" data-item-index="none" data-renderer-id="0" transform="translate(566, 165)"><g id="ro_qqa4f91tipedc-stroke" fill="none" stroke-linecap="round" stroke-linejoin="round" stroke-miterlimit="4" stroke="#e3cd09" stroke-width="2"><g><path d="M 22 10L 262 10C 262 10 274 10 274 22L 274 52C 274 52 274 64 262 64L 22 64C 22 64 10 64 10 52L 10 22C 10 22 10 10 22 10"></path></g></g></g><g id="g-root-ro_1cu96g51tj6802-stroke" data-item-order="999987040" data-item-id="ro_1cu96g51tj6802" data-item-class="Shape Stroke Fill" data-item-index="none" data-renderer-id="0" transform="translate(566, 15)"><g id="ro_1cu96g51tj6802-stroke" fill="none" stroke-linecap="round" stroke-linejoin="round" stroke-miterlimit="4" stroke="#3bc482" stroke-width="2"><g><path d="M 22 10L 238 10C 238 10 250 10 250 22L 250 52C 250 52 250 64 238 64L 22 64C 22 64 10 64 10 52L 10 22C 10 22 10 10 22 10"></path></g></g></g><g id="g-root-puzz_1ha2okl1tj677t-stroke" data-item-order="1000000000" data-item-id="puzz_1ha2okl1tj677t" data-item-class="Icon Stroke" data-item-index="none" data-renderer-id="0" transform="translate(578, 27)"><g id="puzz_1ha2okl1tj677t-stroke" fill="none" stroke-linecap="round" stroke-linejoin="round" stroke-miterlimit="4" stroke="#3bc482" stroke-width="2"><g><path d="M 14.375 39.375L 11.8625 36.25C 11.058648 35.25531 10.61775 34.016388 10.6125 32.737499L 10.6125 26.25C 10.612489 25.750546 10.811748 25.271729 11.166087 24.919737C 11.520426 24.567743 12.000557 24.37167 12.5 24.375L 12.5 24.375C 13.535534 24.375 14.375 25.214466 14.375 26.25L 14.375 31.087502M 20 39.375L 20 35.450001C 20.002216 34.340767 19.671257 33.256432 19.049999 32.337498L 17.625 30.1875C 17.375448 29.772594 16.966204 29.478621 16.49334 29.37459C 16.020475 29.270559 15.52564 29.365637 15.125 29.637501L 15.125 29.637501C 14.39384 30.129101 14.142162 31.087616 14.5375 31.875L 16.25 34.6875M 35.625 39.375L 38.125 36.224998C 38.928852 35.230312 39.369751 33.99139 39.375 32.712502L 39.375 26.25C 39.375 25.214466 38.535534 24.375 37.5 24.375L 37.5 24.375C 36.464466 24.375 35.625 25.214466 35.625 26.25L 35.625 31.087502M 30 39.375L 30 35.450001C 29.997782 34.340767 30.328743 33.256432 30.950001 32.337498L 32.375 30.1875C 32.624554 29.772594 33.033794 29.478621 33.50666 29.37459C 33.979523 29.270559 34.474358 29.365637 34.875 29.637501L 34.875 29.637501C 35.606159 30.129101 35.857838 31.087616 35.462502 31.875L 33.75 34.6875M 26.9375 24.25C 25.960258 23.273212 25.960075 21.689102 26.937088 20.712088C 27.914103 19.735075 29.498213 19.735258 30.474998 20.7125C 30.715734 20.956764 30.906769 21.245438 31.037498 21.562498C 31.106373 21.76355 31.278456 21.911732 31.487501 21.949999C 31.694256 21.994572 31.909657 21.933697 32.0625 21.7875L 34.012497 19.825001C 34.497154 19.337454 34.497154 18.550047 34.012497 18.0625L 32 16.0625C 33.171562 15.748128 33.948406 14.638108 33.842541 13.42973C 33.736675 12.221352 32.778648 11.263325 31.570271 11.157458C 30.361891 11.051593 29.251873 11.828439 28.9375 13L 26.9375 10.9875C 26.449953 10.502846 25.662548 10.502846 25.175001 10.9875L 23.362499 12.8C 23.229273 12.935963 23.160969 13.122663 23.174999 13.3125C 23.197418 13.495162 23.297676 13.659225 23.450001 13.7625C 23.591726 13.860074 23.725479 13.968749 23.85 14.0875C 24.826466 15.06442 24.826283 16.647896 23.849588 17.624588C 22.872896 18.601282 21.289421 18.601465 20.3125 17.625C 20.198063 17.500017 20.093578 17.366276 20 17.225C 19.897915 17.066093 19.728226 16.963171 19.540131 16.946072C 19.352034 16.928972 19.166567 16.999607 19.0375 17.137501L 17.2125 18.950001C 16.727846 19.437546 16.727846 20.224953 17.2125 20.7125L 24.2875 27.787498C 24.775047 28.272154 25.562454 28.272154 26.049999 27.787498L 28 25.8375C 28.149708 25.688614 28.214127 25.474209 28.171265 25.267466C 28.128403 25.060724 27.984058 24.889599 27.787498 24.8125C 27.468546 24.685362 27.179199 24.493881 26.9375 24.25Z"></path></g></g></g><g id="g-root-cu_1hdtm911tj0l4x-stroke" data-item-order="1000000000" data-item-id="cu_1hdtm911tj0l4x" data-item-class="Curve Stroke ColorStrokeGray" data-item-index="none" data-renderer-id="0" transform="translate(518, 42)"><g id="cu_1hdtm911tj0l4x-stroke" fill="none" stroke-linecap="round" stroke-linejoin="round" stroke-miterlimit="4" stroke="#888888" stroke-width="2" stroke-dasharray="5.0, 7.0"><g><path d="M 10 92L 13 92L 13.1 92C 24.642748 92.000003 33.999998 82.642755 33.999998 71.100003L 34 71L 34 30.9C 33.999999 19.357249 43.357248 10.000001 54.899999 10.000002L 55 10L 58 10"></path></g></g></g><g id="g-root-tx_variable_1uuwb8l1tj4u88-stroke" data-item-order="1000000000" data-item-id="tx_variable_1uuwb8l1tj4u88" data-item-class="Label Stroke" data-item-index="none" data-renderer-id="0" transform="translate(614, 30)"></g><g id="g-root-tx_structur_dhxzhh1titmvj-stroke" data-item-order="1000000000" data-item-id="tx_structur_dhxzhh1titmvj" data-item-class="Label Stroke" data-item-index="none" data-renderer-id="0" transform="translate(74, 69)"></g><g id="g-root-cu_1cy044l1tj0lxe-stroke" data-item-order="1000000000" data-item-id="cu_1cy044l1tj0lxe" data-item-class="Curve Stroke ColorStrokeGray" data-item-index="none" data-renderer-id="0" transform="translate(296, 57)"><g id="cu_1cy044l1tj0lxe-stroke" fill="none" stroke-linecap="round" stroke-linejoin="round" stroke-miterlimit="4" stroke="#888888" stroke-width="2" stroke-dasharray="5.0, 7.0"><g><path d="M 28 10L 28 28L 28 46L 19 46L 10 46"></path></g></g></g><g id="g-root-cu_1cy044l1tj0lxh-stroke" data-item-order="1000000000" data-item-id="cu_1cy044l1tj0lxh" data-item-class="Curve Stroke ColorStrokeGray" data-item-index="none" data-renderer-id="0" transform="translate(296, 57)"><g id="cu_1cy044l1tj0lxh-stroke" fill="none" stroke-linecap="round" stroke-linejoin="round" stroke-miterlimit="4" stroke="#888888" stroke-width="2" stroke-dasharray="5.0, 7.0"><g><path d="M 28 10L 28 20.5L 28 82C 28.000001 88.627415 22.627418 93.999998 16.000002 93.999998L 15.9 94L 10 94"></path></g></g></g><g id="g-root-cu_142d3vp1tj0mq7-stroke" data-item-order="1000000000" data-item-id="cu_142d3vp1tj0mq7" data-item-class="Curve Stroke ColorStrokeGray" data-item-index="none" data-renderer-id="0" transform="translate(590, 69)"><g id="cu_142d3vp1tj0mq7-stroke" fill="none" stroke-linecap="round" stroke-linejoin="round" stroke-miterlimit="4" stroke="#888888" stroke-width="2" stroke-dasharray="5.0, 7.0"><g><path d="M 10 10L 10 22L 10 34L 19 34L 28 34"></path></g></g></g><g id="g-root-cu_18i6m051tj0mpu-stroke" data-item-order="1000000000" data-item-id="cu_18i6m051tj0mpu" data-item-class="Curve Stroke ColorStrokeGray" data-item-index="none" data-renderer-id="0" transform="translate(590, 69)"><g id="cu_18i6m051tj0mpu-stroke" fill="none" stroke-linecap="round" stroke-linejoin="round" stroke-miterlimit="4" stroke="#888888" stroke-width="2" stroke-dasharray="5.0, 7.0"><g><path d="M 10 10L 10 17.5L 10 58C 10.000002 64.627417 15.372585 70 22.000002 69.999999L 22.1 70L 28 70"></path></g></g></g><g id="g-root-1_147ctet1tiqrya-stroke" data-item-order="1000000000" data-item-id="1_147ctet1tiqrya" data-item-class="Icon Stroke" data-item-index="none" data-renderer-id="0" transform="translate(428, 90)"><g id="1_147ctet1tiqrya-stroke" fill="none" stroke-linecap="round" stroke-linejoin="round" stroke-miterlimit="4" stroke="#484848" stroke-width="2"><g><path d="M 49 35L 49 22.956001C 49.003315 16.353855 43.652145 10.999999 37.049999 11L 13 11C 11.895431 11 11 11.895431 11 13L 11 55C 11 56.104568 11.895431 57 13 57L 21 57M 39 11.168L 39 19C 39 20.104568 39.895432 21 41 21L 48.84 21M 33 57C 28.581722 57 25 53.418278 25 49C 25 44.581722 28.581722 41 33 41M 57 41L 52.708 41C 50.988789 41.000622 49.49548 42.182915 49.100517 43.856144C 48.705555 45.529377 49.512539 47.25465 51.050003 48.024002L 54.950001 49.973999C 56.489811 50.742203 57.298763 52.46883 56.903545 54.143627C 56.508324 55.818424 55.012798 57.00124 53.292 57L 49 57M 45 41L 40.708 41C 38.988789 41.000622 37.495476 42.182915 37.100517 43.856144C 36.705551 45.529377 37.512539 47.25465 39.050003 48.024002L 42.950001 49.973999C 44.489811 50.742203 45.298763 52.46883 44.903545 54.143627C 44.508324 55.818424 43.012798 57.00124 41.292 57L 37 57"></path></g></g></g><g id="g-root-tx_variable_4mxgbp1titla9-stroke" data-item-order="1000000000" data-item-id="tx_variable_4mxgbp1titla9" data-item-class="Label Stroke" data-item-index="none" data-renderer-id="0" transform="translate(614, 81)"></g><g id="g-root-tx_sparatio_92qyg51titki0-stroke" data-item-order="1000000000" data-item-id="tx_sparatio_92qyg51titki0" data-item-class="Label Stroke" data-item-index="none" data-renderer-id="0" transform="translate(2, 129)"></g><g id="g-root-tx_mixinsru_1usei1x1titlvu-stroke" data-item-order="1000000000" data-item-id="tx_mixinsru_1usei1x1titlvu" data-item-class="Label Stroke" data-item-index="none" data-renderer-id="0" transform="translate(614, 117)"></g><g id="g-root-tx_styleset_1hi6up11tiqtj5-stroke" data-item-order="1000000000" data-item-id="tx_styleset_1hi6up11tiqtj5" data-item-class="Label Stroke" data-item-index="none" data-renderer-id="0" transform="translate(410, 144)"></g><g id="g-root-cu_1cy044l1tj0l5a-stroke" data-item-order="1000000000" data-item-id="cu_1cy044l1tj0l5a" data-item-class="Curve Stroke ColorStrokeGray" data-item-index="none" data-renderer-id="0" transform="translate(338, 30)"><g id="cu_1cy044l1tj0l5a-stroke" fill="none" stroke-linecap="round" stroke-linejoin="round" stroke-miterlimit="4" stroke="#888888" stroke-width="2" stroke-dasharray="5.0, 7.0"><g><path d="M 58 104L 55 104L 54.9 104C 43.357245 103.999995 33.999997 94.642747 33.999997 83.099996L 34 83L 34 30.9C 33.999998 19.357248 24.64275 10 13.1 10L 13 10L 10 10"></path></g></g></g><g id="g-root-2_1q7l78l1tixszw-stroke" data-item-order="1000000000" data-item-id="2_1q7l78l1tixszw" data-item-class="Icon Stroke" data-item-index="none" data-renderer-id="0" transform="translate(296, 15)"><g id="2_1q7l78l1tixszw-stroke" fill="none" stroke-linecap="round" stroke-linejoin="round" stroke-miterlimit="4" stroke="#4682e3" stroke-width="2"><g><path d="M 11.875 10.62125L 36.875 10.62125C 36.875 10.62125 38.125 10.62125 38.125 11.87125L 38.125 36.87125C 38.125 36.87125 38.125 38.12125 36.875 38.12125L 11.875 38.12125C 11.875 38.12125 10.625 38.12125 10.625 36.87125L 10.625 11.87125C 10.625 11.87125 10.625 10.62125 11.875 10.62125M 24.375 10.62125L 24.375 38.12125M 38.125 24.37125L 10.625 24.37125"></path></g></g></g><g id="g-root-wren_v63mjp1tipdl3-stroke" data-item-order="1000000000" data-item-id="wren_v63mjp1tipdl3" data-item-class="Icon Stroke" data-item-index="none" data-renderer-id="0" transform="translate(578, 177)"><g id="wren_v63mjp1tipdl3-stroke" fill="none" stroke-linecap="round" stroke-linejoin="round" stroke-miterlimit="4" stroke="#e3cd09" stroke-width="2"><g><path d="M 38.778572 17.692856C 38.694824 17.23871 38.422211 16.841473 38.028572 16.6L 33.742855 20.885714C 33.338963 21.304754 32.781998 21.541483 32.199997 21.541483C 31.617998 21.541483 31.061035 21.304754 30.657143 20.885714L 29.02857 19.428572C 28.211838 18.595335 28.211838 17.261806 29.02857 16.428572L 33.314285 12.142857C 33.125065 11.698359 32.748264 11.360812 32.285713 11.221429C 29.234859 10.613027 26.103956 11.796065 24.217777 14.269967C 22.331598 16.74387 22.019789 20.076271 23.414286 22.857143L 11.714286 34.450001C 11.301972 34.853157 11.069552 35.405479 11.069552 35.982143C 11.069552 36.558804 11.301972 37.111126 11.714286 37.514286L 12.485714 38.285713C 12.888872 38.698029 13.441195 38.930447 14.017857 38.930447C 14.594519 38.930447 15.146842 38.698029 15.549999 38.285713L 27.25 26.607141C 30.030266 27.931759 33.319336 27.579166 35.75565 25.695324C 38.191967 23.811483 39.360905 20.71699 38.778572 17.692858Z"></path></g></g></g><g id="g-root-tx_utilitai_3d3ol1tj0m4j-stroke" data-item-order="1000000000" data-item-id="tx_utilitai_3d3ol1tj0m4j" data-item-class="Label Stroke" data-item-index="none" data-renderer-id="0" transform="translate(74, 192)"></g><g id="g-root-bin_1q8u5et1tj0mq4-stroke" data-item-order="1000000000" data-item-id="bin_1q8u5et1tj0mq4" data-item-class="Icon Stroke" data-item-index="none" data-renderer-id="0" transform="translate(296, 189)"><g id="bin_1q8u5et1tj0mq4-stroke" fill="none" stroke-linecap="round" stroke-linejoin="round" stroke-miterlimit="4" stroke="#dd8433" stroke-width="2"><g><path d="M 35.625 39.375C 36.315353 39.375 36.875 38.815353 36.875 38.125L 36.875 18.0975C 36.877071 13.971159 33.532593 10.624999 29.40625 10.625L 14.375 10.625C 13.684644 10.625 13.125 11.184644 13.125 11.875L 13.125 38.125C 13.125 38.815353 13.684644 39.375 14.375 39.375ZM 30.625 10.73L 30.625 15.625C 30.625 16.315355 31.184645 16.875 31.875 16.875L 36.775002 16.875M 25.625 25.629999L 25.625 33.130001M 24.375 33.130001L 26.875 33.130001M 24.375 25.629999L 26.875 25.629999M 21.875 27.5C 21.875 28.535534 21.035534 29.375002 20 29.375L 18.125 29.375L 18.125 25.625L 20 25.625C 21.035534 25.625 21.875 26.464466 21.875 27.5ZM 21.875 31.25C 21.875 32.285534 21.035534 33.125 20 33.125L 18.125 33.125L 18.125 29.375L 20 29.375C 21.035534 29.375 21.875 30.214466 21.875 31.25ZM 29.375 33.130001L 29.375 25.629999L 33.125 33.130001L 33.125 25.629999"></path></g></g></g><g id="g-root-cu_1hdtm911tj0l53-stroke" data-item-order="1000000000" data-item-id="cu_1hdtm911tj0l53" data-item-class="Curve Stroke ColorStrokeGray" data-item-index="none" data-renderer-id="0" transform="translate(338, 182)"><g id="cu_1hdtm911tj0l53-stroke" fill="none" stroke-linecap="round" stroke-linejoin="round" stroke-miterlimit="4" stroke="#888888" stroke-width="2" stroke-dasharray="5.0, 7.0"><g><path d="M 58 10L 55 10L 54.9 10C 51.195749 9.995057 47.149254 10.989534 43.099999 12.900002C 40.66532 14.065417 37.416401 16.957311 34.000003 21.000002C 30.583604 25.042692 27.334685 27.934586 24.900002 29.100001C 20.850744 31.010469 16.804249 32.004946 13.099999 31.999999L 13 32L 10 32"></path></g></g></g><g id="g-root-cu_1hdtm911tj0l50-stroke" data-item-order="1000000000" data-item-id="cu_1hdtm911tj0l50" data-item-class="Curve Stroke ColorStrokeGray" data-item-index="none" data-renderer-id="0" transform="translate(518, 182)"><g id="cu_1hdtm911tj0l50-stroke" fill="none" stroke-linecap="round" stroke-linejoin="round" stroke-miterlimit="4" stroke="#888888" stroke-width="2" stroke-dasharray="5.0, 7.0"><g><path d="M 10 10L 13 10L 13.1 10C 16.360602 10.01615 19.962923 10.453815 23.800001 11.3C 26.03452 11.745014 29.638043 13.052174 34 15.000001C 38.361958 16.947827 41.965481 18.254987 44.200001 18.700001C 48.03708 19.546186 51.639401 19.983851 54.900002 20.000001L 55 20L 58 20"></path></g></g></g><g id="g-root-tx_thmescon_18gxntx1tipf5y-stroke" data-item-order="1000000000" data-item-id="tx_thmescon_18gxntx1tipf5y" data-item-class="Label Stroke" data-item-index="none" data-renderer-id="0" transform="translate(614, 180)"></g><g id="g-root-cu_zmjlr91tj0nin-stroke" data-item-order="1000000000" data-item-id="cu_zmjlr91tj0nin" data-item-class="Curve Stroke ColorStrokeGray" data-item-index="none" data-renderer-id="0" transform="translate(590, 219)"><g id="cu_zmjlr91tj0nin-stroke" fill="none" stroke-linecap="round" stroke-linejoin="round" stroke-miterlimit="4" stroke="#888888" stroke-width="2" stroke-dasharray="5.0, 7.0"><g><path d="M 10 10L 10 17.5L 10 58C 10.000002 64.627417 15.372585 70 22.000002 69.999999L 22.1 70L 28 70"></path></g></g></g><g id="g-root-tx_classesu_1hhkgrp1titkb1-stroke" data-item-order="1000000000" data-item-id="tx_classesu_1hhkgrp1titkb1" data-item-class="Label Stroke" data-item-index="none" data-renderer-id="0" transform="translate(122, 243)"></g><g id="g-root-cu_142d3vp1tj0ni9-stroke" data-item-order="1000000000" data-item-id="cu_142d3vp1tj0ni9" data-item-class="Curve Stroke ColorStrokeGray" data-item-index="none" data-renderer-id="0" transform="translate(296, 231)"><g id="cu_142d3vp1tj0ni9-stroke" fill="none" stroke-linecap="round" stroke-linejoin="round" stroke-miterlimit="4" stroke="#888888" stroke-width="2" stroke-dasharray="5.0, 7.0"><g><path d="M 28 10L 28 22L 28 34L 19 34L 10 34"></path></g></g></g><g id="g-root-cu_v7ckpx1tj0l58-stroke" data-item-order="1000000000" data-item-id="cu_v7ckpx1tj0l58" data-item-class="Curve Stroke ColorStrokeGray" data-item-index="none" data-renderer-id="0" transform="translate(296, 231)"><g id="cu_v7ckpx1tj0l58-stroke" fill="none" stroke-linecap="round" stroke-linejoin="round" stroke-miterlimit="4" stroke="#888888" stroke-width="2" stroke-dasharray="5.0, 7.0"><g><path d="M 28 10L 28 17.5L 28 58C 27.999999 64.627415 22.627416 69.999998 16 69.999998L 15.9 70L 10 70"></path></g></g></g><g id="g-root-tx_commutat_1qckzxh1titmo3-stroke" data-item-order="1000000000" data-item-id="tx_commutat_1qckzxh1titmo3" data-item-class="Label Stroke" data-item-index="none" data-renderer-id="0" transform="translate(614, 231)"></g><g id="g-root-tx_fonction_1d1qyn91titl3a-stroke" data-item-order="1000000000" data-item-id="tx_fonction_1d1qyn91titl3a" data-item-class="Label Stroke" data-item-index="none" data-renderer-id="0" transform="translate(134, 279)"></g><g id="g-root-tx_variable_1qckzxh1titmo4-stroke" data-item-order="1000000000" data-item-id="tx_variable_1qckzxh1titmo4" data-item-class="Label Stroke" data-item-index="none" data-renderer-id="0" transform="translate(614, 267)"></g><g id="g-root-tx_architec_dcy6sl1tixtz7-stroke" data-item-order="1000000000" data-item-id="tx_architec_dcy6sl1tixtz7" data-item-class="Label Stroke" data-item-index="none" data-renderer-id="0" transform="translate(74, 18)"></g><g id="g-root-cu_18i6m051tj0mpw-stroke" data-item-order="1000000000" data-item-id="cu_18i6m051tj0mpw" data-item-class="Curve Stroke ColorStrokeGray" data-item-index="none" data-renderer-id="0" transform="translate(590, 219)"><g id="cu_18i6m051tj0mpw-stroke" fill="none" stroke-linecap="round" stroke-linejoin="round" stroke-miterlimit="4" stroke="#888888" stroke-width="2" stroke-dasharray="5.0, 7.0"><g><path d="M 10 10L 10 22L 10 34L 19 34L 28 34"></path></g></g></g></g></g></svg>