<?xml version="1.0" encoding="utf-8" standalone="yes"?>
<!DOCTYPE svg PUBLIC "-//W3C//DTD SVG 1.1//EN" "http://www.w3.org/Graphics/SVG/1.1/DTD/svg11.dtd">
<svg width="442" height="672" viewBox="0 0 442 672" style="fill:none;stroke:none;fill-rule:evenodd;clip-rule:evenodd;stroke-linecap:round;stroke-linejoin:round;stroke-miterlimit:1.5;" version="1.1" xmlns="http://www.w3.org/2000/svg" xmlns:xlink="http://www.w3.org/1999/xlink"><style id="fontImports">@import url("https://fonts.googleapis.com/css2?family=Roboto:wght@400;700&amp;display=block");</style><rect id="" x="0" y="0" width="442" height="672" style="fill: #ffffff;"></rect><g id="items" style="isolation: isolate"><g id="blend" style="mix-blend-mode:normal"><g id="g-root-ro_meu4831rb82rp-fill" data-item-order="999987904" data-item-id="ro_meu4831rb82rp" data-item-class="Shape Stroke Fill" data-item-index="none" data-renderer-id="0" transform="translate(3, 290)"><g id="ro_meu4831rb82rp-fill" stroke="none" fill="#f0f0f0"><g><path d="M 22 10L 166 10C 166 10 178 10 178 22L 178 70C 178 70 178 82 166 82L 22 82C 22 82 10 82 10 70L 10 22C 10 22 10 10 22 10"></path></g></g></g><g id="g-root-ro_zs650j1rb11xm-fill" data-item-order="999989632" data-item-id="ro_zs650j1rb11xm" data-item-class="Shape Stroke Fill" data-item-index="none" data-renderer-id="0" transform="translate(227, 595)"><g id="ro_zs650j1rb11xm-fill" stroke="none" fill="#e6f9ff"><g><path d="M 22 10L 190 10C 190 10 202 10 202 22L 202 52C 202 52 202 64 190 64L 22 64C 22 64 10 64 10 52L 10 22C 10 22 10 10 22 10"></path></g></g></g><g id="g-root-ro_htefhf1rb10jw-fill" data-item-order="999989632" data-item-id="ro_htefhf1rb10jw" data-item-class="Shape Stroke Fill" data-item-index="none" data-renderer-id="0" transform="translate(227, 521)"><g id="ro_htefhf1rb10jw-fill" stroke="none" fill="#e6f9ff"><g><path d="M 22 10L 190 10C 190 10 202 10 202 22L 202 52C 202 52 202 64 190 64L 22 64C 22 64 10 64 10 52L 10 22C 10 22 10 10 22 10"></path></g></g></g><g id="g-root-ro_magvs31razojq-fill" data-item-order="999989632" data-item-id="ro_magvs31razojq" data-item-class="Shape Stroke Fill" data-item-index="none" data-renderer-id="0" transform="translate(227, 447)"><g id="ro_magvs31razojq-fill" stroke="none" fill="#e6f9ff"><g><path d="M 22 10L 190 10C 190 10 202 10 202 22L 202 52C 202 52 202 64 190 64L 22 64C 22 64 10 64 10 52L 10 22C 10 22 10 10 22 10"></path></g></g></g><g id="g-root-ro_1448smb1rasmbk-fill" data-item-order="999989632" data-item-id="ro_1448smb1rasmbk" data-item-class="Shape Stroke Fill" data-item-index="none" data-renderer-id="0" transform="translate(227, 77)"><g id="ro_1448smb1rasmbk-fill" stroke="none" fill="#e6f9ff"><g><path d="M 22 10L 190 10C 190 10 202 10 202 22L 202 52C 202 52 202 64 190 64L 22 64C 22 64 10 64 10 52L 10 22C 10 22 10 10 22 10"></path></g></g></g><g id="g-root-ro_v7zbab1ray8lk-fill" data-item-order="999989632" data-item-id="ro_v7zbab1ray8lk" data-item-class="Shape Stroke Fill" data-item-index="none" data-renderer-id="0" transform="translate(227, 373)"><g id="ro_v7zbab1ray8lk-fill" stroke="none" fill="#e6f9ff"><g><path d="M 22 10L 190 10C 190 10 202 10 202 22L 202 52C 202 52 202 64 190 64L 22 64C 22 64 10 64 10 52L 10 22C 10 22 10 10 22 10"></path></g></g></g><g id="g-root-ro_1hgbs2r1rawu8a-fill" data-item-order="999989632" data-item-id="ro_1hgbs2r1rawu8a" data-item-class="Shape Stroke Fill" data-item-index="none" data-renderer-id="0" transform="translate(227, 299)"><g id="ro_1hgbs2r1rawu8a-fill" stroke="none" fill="#e6f9ff"><g><path d="M 22 10L 190 10C 190 10 202 10 202 22L 202 52C 202 52 202 64 190 64L 22 64C 22 64 10 64 10 52L 10 22C 10 22 10 10 22 10"></path></g></g></g><g id="g-root-ro_zqapr71raps75-fill" data-item-order="999989632" data-item-id="ro_zqapr71raps75" data-item-class="Shape Stroke Fill" data-item-index="none" data-renderer-id="0" transform="translate(227, 3)"><g id="ro_zqapr71raps75-fill" stroke="none" fill="#e6f9ff"><g><path d="M 22 10L 190 10C 190 10 202 10 202 22L 202 52C 202 52 202 64 190 64L 22 64C 22 64 10 64 10 52L 10 22C 10 22 10 10 22 10"></path></g></g></g><g id="g-root-ro_1qdu7kz1rau0w6-fill" data-item-order="999989632" data-item-id="ro_1qdu7kz1rau0w6" data-item-class="Shape Stroke Fill" data-item-index="none" data-renderer-id="0" transform="translate(227, 151)"><g id="ro_1qdu7kz1rau0w6-fill" stroke="none" fill="#e6f9ff"><g><path d="M 22 10L 190 10C 190 10 202 10 202 22L 202 52C 202 52 202 64 190 64L 22 64C 22 64 10 64 10 52L 10 22C 10 22 10 10 22 10"></path></g></g></g><g id="g-root-ro_1ursag31ravf9g-fill" data-item-order="999989632" data-item-id="ro_1ursag31ravf9g" data-item-class="Shape Stroke Fill" data-item-index="none" data-renderer-id="0" transform="translate(227, 225)"><g id="ro_1ursag31ravf9g-fill" stroke="none" fill="#e6f9ff"><g><path d="M 22 10L 190 10C 190 10 202 10 202 22L 202 52C 202 52 202 64 190 64L 22 64C 22 64 10 64 10 52L 10 22C 10 22 10 10 22 10"></path></g></g></g><g id="g-root-tx_docs_1utnppf1rau03w-fill" data-item-order="1000000000" data-item-id="tx_docs_1utnppf1rau03w" data-item-class="Label Stroke" data-item-index="none" data-renderer-id="0" transform="translate(275, 166)"><g id="tx_docs_1utnppf1rau03w-fill" stroke="none" fill="#17b0e3"><g><text style="font: 20px Roboto, sans-serif; white-space: pre;" font-weight="20px" font-size="Roboto," font-family="sans-serif"><tspan x="12" y="34" dominant-baseline="ideographic">docs/</tspan></text></g></g></g><g id="g-root-dele_qqadwj1raznrh-fill" data-item-order="1000000000" data-item-id="dele_qqadwj1raznrh" data-item-class="Icon Stroke" data-item-index="none" data-renderer-id="0" transform="translate(239, 459)"></g><g id="g-root-cog_1ursag31ravf9f-fill" data-item-order="1000000000" data-item-id="cog_1ursag31ravf9f" data-item-class="Icon Stroke" data-item-index="none" data-renderer-id="0" transform="translate(239, 237)"></g><g id="g-root-tx_shared_zlxe5f1razmys-fill" data-item-order="1000000000" data-item-id="tx_shared_zlxe5f1razmys" data-item-class="Label Stroke" data-item-index="none" data-renderer-id="0" transform="translate(275, 462)"><g id="tx_shared_zlxe5f1razmys-fill" stroke="none" fill="#17b0e3"><g><text style="font: 20px Roboto, sans-serif; white-space: pre;" font-weight="20px" font-size="Roboto," font-family="sans-serif"><tspan x="12" y="34" dominant-baseline="ideographic">shared/</tspan></text></g></g></g><g id="g-root-tx_infrastr_91i9r71ravh1e-fill" data-item-order="1000000000" data-item-id="tx_infrastr_91i9r71ravh1e" data-item-class="Label Stroke" data-item-index="none" data-renderer-id="0" transform="translate(275, 240)"><g id="tx_infrastr_91i9r71ravh1e-fill" stroke="none" fill="#17b0e3"><g><text style="font: 20px Roboto, sans-serif; white-space: pre;" font-weight="20px" font-size="Roboto," font-family="sans-serif"><tspan x="12" y="34" dominant-baseline="ideographic">infrastructure/</tspan></text></g></g></g><g id="g-root-tx_workers_1d306ar1rb13ig-fill" data-item-order="1000000000" data-item-id="tx_workers_1d306ar1rb13ig" data-item-class="Label Stroke" data-item-index="none" data-renderer-id="0" transform="translate(275, 610)"><g id="tx_workers_1d306ar1rb13ig-fill" stroke="none" fill="#17b0e3"><g><text style="font: 20px Roboto, sans-serif; white-space: pre;" font-weight="20px" font-size="Roboto," font-family="sans-serif"><tspan x="12" y="34" dominant-baseline="ideographic">workers/</tspan></text></g></g></g><g id="g-root-1_qunmcj1rb81zg-fill" data-item-order="1000000000" data-item-id="1_qunmcj1rb81zg" data-item-class="Icon Stroke" data-item-index="none" data-renderer-id="0" transform="translate(15, 311)"></g><g id="g-root-tx_rpertoir_zpo5ib1rb84cj-fill" data-item-order="1000000000" data-item-id="tx_rpertoir_zpo5ib1rb84cj" data-item-class="Label Stroke" data-item-index="none" data-renderer-id="0" transform="translate(51, 302)"><g id="tx_rpertoir_zpo5ib1rb84cj-fill" stroke="none" fill="#484848"><g><text style="font: 20px Roboto, sans-serif; white-space: pre;" font-weight="20px" font-size="Roboto," font-family="sans-serif"><tspan x="12" y="34" dominant-baseline="ideographic">Répertoire </tspan><tspan x="12" y="58" dominant-baseline="ideographic">racine</tspan></text></g></g></g><g id="g-root-uplo_1qdu7kz1rau0w5-fill" data-item-order="1000000000" data-item-id="uplo_1qdu7kz1rau0w5" data-item-class="Icon Stroke" data-item-index="none" data-renderer-id="0" transform="translate(239, 163)"></g><g id="g-root-laun_1qbysbn1rawtfl-fill" data-item-order="1000000000" data-item-id="laun_1qbysbn1rawtfl" data-item-class="Icon Stroke" data-item-index="none" data-renderer-id="0" transform="translate(239, 311)"></g><g id="g-root-tx_assets_1hgy95v1rapszr-fill" data-item-order="1000000000" data-item-id="tx_assets_1hgy95v1rapszr" data-item-class="Label Stroke" data-item-index="none" data-renderer-id="0" transform="translate(275, 18)"><g id="tx_assets_1hgy95v1rapszr-fill" stroke="none" fill="#17b0e3"><g><text style="font: 20px Roboto, sans-serif; white-space: pre;" font-weight="20px" font-size="Roboto," font-family="sans-serif"><tspan x="12" y="34" dominant-baseline="ideographic">assets/</tspan></text></g></g></g><g id="g-root-refr_htefhf1rb10jv-fill" data-item-order="1000000000" data-item-id="refr_htefhf1rb10jv" data-item-class="Icon Stroke" data-item-index="none" data-renderer-id="0" transform="translate(239, 533)"></g><g id="g-root-tx_store_qoeyn71rb12wy-fill" data-item-order="1000000000" data-item-id="tx_store_qoeyn71rb12wy" data-item-class="Label Stroke" data-item-index="none" data-renderer-id="0" transform="translate(275, 536)"><g id="tx_store_qoeyn71rb12wy-fill" stroke="none" fill="#17b0e3"><g><text style="font: 20px Roboto, sans-serif; white-space: pre;" font-weight="20px" font-size="Roboto," font-family="sans-serif"><tspan x="12" y="34" dominant-baseline="ideographic">store/</tspan></text></g></g></g><g id="g-root-tx_contexts_1luwc0z1rasn46-fill" data-item-order="1000000000" data-item-id="tx_contexts_1luwc0z1rasn46" data-item-class="Label Stroke" data-item-index="none" data-renderer-id="0" transform="translate(275, 92)"><g id="tx_contexts_1luwc0z1rasn46-fill" stroke="none" fill="#17b0e3"><g><text style="font: 20px Roboto, sans-serif; white-space: pre;" font-weight="20px" font-size="Roboto," font-family="sans-serif"><tspan x="12" y="34" dominant-baseline="ideographic">contexts/</tspan></text></g></g></g><g id="g-root-bloc_18nt59f1rb114x-fill" data-item-order="1000000000" data-item-id="bloc_18nt59f1rb114x" data-item-class="Icon Stroke" data-item-index="none" data-renderer-id="0" transform="translate(239, 607)"></g><g id="g-root-tx_initiali_1ur5tcz1rawvt4-fill" data-item-order="1000000000" data-item-id="tx_initiali_1ur5tcz1rawvt4" data-item-class="Label Stroke" data-item-index="none" data-renderer-id="0" transform="translate(275, 314)"><g id="tx_initiali_1ur5tcz1rawvt4-fill" stroke="none" fill="#17b0e3"><g><text style="font: 20px Roboto, sans-serif; white-space: pre;" font-weight="20px" font-size="Roboto," font-family="sans-serif"><tspan x="12" y="34" dominant-baseline="ideographic">initialization/</tspan></text></g></g></g><g id="g-root-bmp_145hqsj1rapuko-fill" data-item-order="1000000000" data-item-id="bmp_145hqsj1rapuko" data-item-class="Icon Stroke" data-item-index="none" data-renderer-id="0" transform="translate(239, 15)"></g><g id="g-root-char_znster1ray7tb-fill" data-item-order="1000000000" data-item-id="char_znster1ray7tb" data-item-class="Icon Stroke" data-item-index="none" data-renderer-id="0" transform="translate(239, 385)"></g><g id="g-root-tx_presenta_18itckj1raya6e-fill" data-item-order="1000000000" data-item-id="tx_presenta_18itckj1raya6e" data-item-class="Label Stroke" data-item-index="none" data-renderer-id="0" transform="translate(275, 388)"><g id="tx_presenta_18itckj1raya6e-fill" stroke="none" fill="#17b0e3"><g><text style="font: 20px Roboto, sans-serif; white-space: pre;" font-weight="20px" font-size="Roboto," font-family="sans-serif"><tspan x="12" y="34" dominant-baseline="ideographic">presentation/</tspan></text></g></g></g><g id="g-root-shar_18k2aqr1rasljb-fill" data-item-order="1000000000" data-item-id="shar_18k2aqr1rasljb" data-item-class="Icon Stroke" data-item-index="none" data-renderer-id="0" transform="translate(239, 89)"></g><g id="g-root-cu_8zqb1rb2i2w-fill" data-item-order="1000000002" data-item-id="cu_8zqb1rb2i2w" data-item-class="Curve Stroke" data-item-index="none" data-renderer-id="0" transform="translate(171, 178)"></g><g id="g-root-cu_4g2hur1rb2ham-fill" data-item-order="1000000002" data-item-id="cu_4g2hur1rb2ham" data-item-class="Curve Stroke" data-item-index="none" data-renderer-id="0" transform="translate(171, 252)"></g><g id="g-root-cu_4g2hur1rb2hab-fill" data-item-order="1000000002" data-item-id="cu_4g2hur1rb2hab" data-item-class="Curve Stroke" data-item-index="none" data-renderer-id="0" transform="translate(171, 326)"></g><g id="g-root-cu_4g2hur1rb2hae-fill" data-item-order="1000000002" data-item-id="cu_4g2hur1rb2hae" data-item-class="Curve Stroke" data-item-index="none" data-renderer-id="0" transform="translate(171, 326)"></g><g id="g-root-cu_4g2hur1rb2hag-fill" data-item-order="1000000002" data-item-id="cu_4g2hur1rb2hag" data-item-class="Curve Stroke" data-item-index="none" data-renderer-id="0" transform="translate(171, 326)"></g><g id="g-root-cu_4g2hur1rb2hai-fill" data-item-order="1000000002" data-item-id="cu_4g2hur1rb2hai" data-item-class="Curve Stroke" data-item-index="none" data-renderer-id="0" transform="translate(171, 326)"></g><g id="g-root-cu_4g2hur1rb2hak-fill" data-item-order="1000000002" data-item-id="cu_4g2hur1rb2hak" data-item-class="Curve Stroke" data-item-index="none" data-renderer-id="0" transform="translate(171, 326)"></g><g id="g-root-cu_8zqb1rb2i2y-fill" data-item-order="1000000002" data-item-id="cu_8zqb1rb2i2y" data-item-class="Curve Stroke" data-item-index="none" data-renderer-id="0" transform="translate(171, 104)"></g><g id="g-root-cu_8zqb1rb2i30-fill" data-item-order="1000000002" data-item-id="cu_8zqb1rb2i30" data-item-class="Curve Stroke" data-item-index="none" data-renderer-id="0" transform="translate(171, 30)"></g><g id="g-root-ro_meu4831rb82rp-stroke" data-item-order="999987904" data-item-id="ro_meu4831rb82rp" data-item-class="Shape Stroke Fill" data-item-index="none" data-renderer-id="0" transform="translate(3, 290)"><g id="ro_meu4831rb82rp-stroke" fill="none" stroke-linecap="round" stroke-linejoin="round" stroke-miterlimit="4" stroke="#484848" stroke-width="2"><g><path d="M 22 10L 166 10C 166 10 178 10 178 22L 178 70C 178 70 178 82 166 82L 22 82C 22 82 10 82 10 70L 10 22C 10 22 10 10 22 10"></path></g></g></g><g id="g-root-ro_zs650j1rb11xm-stroke" data-item-order="999989632" data-item-id="ro_zs650j1rb11xm" data-item-class="Shape Stroke Fill" data-item-index="none" data-renderer-id="0" transform="translate(227, 595)"><g id="ro_zs650j1rb11xm-stroke" fill="none" stroke-linecap="round" stroke-linejoin="round" stroke-miterlimit="4" stroke="#17b0e3" stroke-width="2"><g><path d="M 22 10L 190 10C 190 10 202 10 202 22L 202 52C 202 52 202 64 190 64L 22 64C 22 64 10 64 10 52L 10 22C 10 22 10 10 22 10"></path></g></g></g><g id="g-root-ro_htefhf1rb10jw-stroke" data-item-order="999989632" data-item-id="ro_htefhf1rb10jw" data-item-class="Shape Stroke Fill" data-item-index="none" data-renderer-id="0" transform="translate(227, 521)"><g id="ro_htefhf1rb10jw-stroke" fill="none" stroke-linecap="round" stroke-linejoin="round" stroke-miterlimit="4" stroke="#17b0e3" stroke-width="2"><g><path d="M 22 10L 190 10C 190 10 202 10 202 22L 202 52C 202 52 202 64 190 64L 22 64C 22 64 10 64 10 52L 10 22C 10 22 10 10 22 10"></path></g></g></g><g id="g-root-ro_magvs31razojq-stroke" data-item-order="999989632" data-item-id="ro_magvs31razojq" data-item-class="Shape Stroke Fill" data-item-index="none" data-renderer-id="0" transform="translate(227, 447)"><g id="ro_magvs31razojq-stroke" fill="none" stroke-linecap="round" stroke-linejoin="round" stroke-miterlimit="4" stroke="#17b0e3" stroke-width="2"><g><path d="M 22 10L 190 10C 190 10 202 10 202 22L 202 52C 202 52 202 64 190 64L 22 64C 22 64 10 64 10 52L 10 22C 10 22 10 10 22 10"></path></g></g></g><g id="g-root-ro_1448smb1rasmbk-stroke" data-item-order="999989632" data-item-id="ro_1448smb1rasmbk" data-item-class="Shape Stroke Fill" data-item-index="none" data-renderer-id="0" transform="translate(227, 77)"><g id="ro_1448smb1rasmbk-stroke" fill="none" stroke-linecap="round" stroke-linejoin="round" stroke-miterlimit="4" stroke="#17b0e3" stroke-width="2"><g><path d="M 22 10L 190 10C 190 10 202 10 202 22L 202 52C 202 52 202 64 190 64L 22 64C 22 64 10 64 10 52L 10 22C 10 22 10 10 22 10"></path></g></g></g><g id="g-root-ro_v7zbab1ray8lk-stroke" data-item-order="999989632" data-item-id="ro_v7zbab1ray8lk" data-item-class="Shape Stroke Fill" data-item-index="none" data-renderer-id="0" transform="translate(227, 373)"><g id="ro_v7zbab1ray8lk-stroke" fill="none" stroke-linecap="round" stroke-linejoin="round" stroke-miterlimit="4" stroke="#17b0e3" stroke-width="2"><g><path d="M 22 10L 190 10C 190 10 202 10 202 22L 202 52C 202 52 202 64 190 64L 22 64C 22 64 10 64 10 52L 10 22C 10 22 10 10 22 10"></path></g></g></g><g id="g-root-ro_1hgbs2r1rawu8a-stroke" data-item-order="999989632" data-item-id="ro_1hgbs2r1rawu8a" data-item-class="Shape Stroke Fill" data-item-index="none" data-renderer-id="0" transform="translate(227, 299)"><g id="ro_1hgbs2r1rawu8a-stroke" fill="none" stroke-linecap="round" stroke-linejoin="round" stroke-miterlimit="4" stroke="#17b0e3" stroke-width="2"><g><path d="M 22 10L 190 10C 190 10 202 10 202 22L 202 52C 202 52 202 64 190 64L 22 64C 22 64 10 64 10 52L 10 22C 10 22 10 10 22 10"></path></g></g></g><g id="g-root-ro_zqapr71raps75-stroke" data-item-order="999989632" data-item-id="ro_zqapr71raps75" data-item-class="Shape Stroke Fill" data-item-index="none" data-renderer-id="0" transform="translate(227, 3)"><g id="ro_zqapr71raps75-stroke" fill="none" stroke-linecap="round" stroke-linejoin="round" stroke-miterlimit="4" stroke="#17b0e3" stroke-width="2"><g><path d="M 22 10L 190 10C 190 10 202 10 202 22L 202 52C 202 52 202 64 190 64L 22 64C 22 64 10 64 10 52L 10 22C 10 22 10 10 22 10"></path></g></g></g><g id="g-root-ro_1qdu7kz1rau0w6-stroke" data-item-order="999989632" data-item-id="ro_1qdu7kz1rau0w6" data-item-class="Shape Stroke Fill" data-item-index="none" data-renderer-id="0" transform="translate(227, 151)"><g id="ro_1qdu7kz1rau0w6-stroke" fill="none" stroke-linecap="round" stroke-linejoin="round" stroke-miterlimit="4" stroke="#17b0e3" stroke-width="2"><g><path d="M 22 10L 190 10C 190 10 202 10 202 22L 202 52C 202 52 202 64 190 64L 22 64C 22 64 10 64 10 52L 10 22C 10 22 10 10 22 10"></path></g></g></g><g id="g-root-ro_1ursag31ravf9g-stroke" data-item-order="999989632" data-item-id="ro_1ursag31ravf9g" data-item-class="Shape Stroke Fill" data-item-index="none" data-renderer-id="0" transform="translate(227, 225)"><g id="ro_1ursag31ravf9g-stroke" fill="none" stroke-linecap="round" stroke-linejoin="round" stroke-miterlimit="4" stroke="#17b0e3" stroke-width="2"><g><path d="M 22 10L 190 10C 190 10 202 10 202 22L 202 52C 202 52 202 64 190 64L 22 64C 22 64 10 64 10 52L 10 22C 10 22 10 10 22 10"></path></g></g></g><g id="g-root-tx_docs_1utnppf1rau03w-stroke" data-item-order="1000000000" data-item-id="tx_docs_1utnppf1rau03w" data-item-class="Label Stroke" data-item-index="none" data-renderer-id="0" transform="translate(275, 166)"></g><g id="g-root-dele_qqadwj1raznrh-stroke" data-item-order="1000000000" data-item-id="dele_qqadwj1raznrh" data-item-class="Icon Stroke" data-item-index="none" data-renderer-id="0" transform="translate(239, 459)"><g id="dele_qqadwj1raznrh-stroke" fill="none" stroke-linecap="round" stroke-linejoin="round" stroke-miterlimit="4" stroke="#17b0e3" stroke-width="2"><g><path d="M 19.67375 24.473751L 33.75 10.625M 33.75 18.53875L 33.75 10.625L 25.706249 10.625M 23 16.25L 11.5 16.25C 11.016751 16.25 10.625 16.64175 10.625 17.125L 10.625 32.875C 10.624989 33.108589 10.718376 33.332485 10.884367 33.496834C 11.050359 33.661182 11.275173 33.752335 11.50875 33.75L 21.25 33.75"></path></g></g></g><g id="g-root-cog_1ursag31ravf9f-stroke" data-item-order="1000000000" data-item-id="cog_1ursag31ravf9f" data-item-class="Icon Stroke" data-item-index="none" data-renderer-id="0" transform="translate(239, 237)"><g id="cog_1ursag31ravf9f-stroke" fill="none" stroke-linecap="round" stroke-linejoin="round" stroke-miterlimit="4" stroke="#17b0e3" stroke-width="2"><g><path d="M 35.317501 26.875L 38.125 26.875C 38.815353 26.875 39.375 26.315357 39.375 25.625L 39.375 24.375C 39.375 23.684643 38.815353 23.125 38.125 23.125L 35.31625 23.125C 35.061398 21.857996 34.641132 20.62998 34.06625 19.4725L 36.052498 17.487499C 36.540478 16.999374 36.540478 16.208124 36.052498 15.72L 34.279999 13.9525C 33.791878 13.464522 33.000626 13.464522 32.512501 13.9525L 30.525 15.93875C 29.368481 15.363659 28.141266 14.943379 26.875 14.68875L 26.875 11.875C 26.875 11.184644 26.315357 10.625 25.625 10.625L 24.375 10.625C 23.684643 10.625 23.125 11.184644 23.125 11.875L 23.125 14.68625C 21.858337 14.940886 20.630707 15.361164 19.473749 15.93625L 17.48625 13.9525C 16.998125 13.464522 16.206875 13.464522 15.71875 13.9525L 13.95 15.721251C 13.462023 16.209375 13.462023 17.000626 13.95 17.48875L 15.9375 19.475C 15.363001 20.632202 14.942751 21.859753 14.6875 23.126251L 11.875 23.126251C 11.184644 23.126251 10.625 23.685894 10.625 24.376251L 10.625 25.626251C 10.625 26.316607 11.184644 26.876251 11.875 26.876251L 14.6825 26.876251C 14.937752 28.142746 15.358002 29.370296 15.9325 30.5275L 13.945 32.514999C 13.457023 33.003124 13.457023 33.794373 13.945 34.282501L 15.71875 36.049999C 16.206875 36.537975 16.998125 36.537975 17.48625 36.049999L 19.4725 34.0625C 20.62998 34.637383 21.857996 35.057648 23.125 35.3125L 23.125 38.125C 23.125 38.815353 23.684643 39.375 24.375 39.375L 25.625 39.375C 26.315357 39.375 26.875 38.815353 26.875 38.125L 26.875 35.318748C 28.141148 35.063686 29.368309 34.643425 30.525 34.068752L 32.513748 36.055C 33.001877 36.542976 33.793125 36.542976 34.28125 36.055L 36.048752 34.287498C 36.536728 33.799374 36.536728 33.008125 36.048752 32.52L 34.0625 30.532501C 34.63924 29.373571 35.061184 28.143877 35.317501 26.875ZM 19.375 25.001251C 19.375 28.107851 21.893398 30.626249 25 30.626249C 28.106602 30.626249 30.625 28.107851 30.625 25.001251C 30.625 21.894648 28.106602 19.376249 25 19.376249C 21.893398 19.376249 19.375 21.894648 19.375 25.001251Z"></path></g></g></g><g id="g-root-tx_shared_zlxe5f1razmys-stroke" data-item-order="1000000000" data-item-id="tx_shared_zlxe5f1razmys" data-item-class="Label Stroke" data-item-index="none" data-renderer-id="0" transform="translate(275, 462)"></g><g id="g-root-tx_infrastr_91i9r71ravh1e-stroke" data-item-order="1000000000" data-item-id="tx_infrastr_91i9r71ravh1e" data-item-class="Label Stroke" data-item-index="none" data-renderer-id="0" transform="translate(275, 240)"></g><g id="g-root-tx_workers_1d306ar1rb13ig-stroke" data-item-order="1000000000" data-item-id="tx_workers_1d306ar1rb13ig" data-item-class="Label Stroke" data-item-index="none" data-renderer-id="0" transform="translate(275, 610)"></g><g id="g-root-1_qunmcj1rb81zg-stroke" data-item-order="1000000000" data-item-id="1_qunmcj1rb81zg" data-item-class="Icon Stroke" data-item-index="none" data-renderer-id="0" transform="translate(15, 311)"><g id="1_qunmcj1rb81zg-stroke" fill="none" stroke-linecap="round" stroke-linejoin="round" stroke-miterlimit="4" stroke="#484848" stroke-width="2"><g><path d="M 39.375 22.1875C 39.375 20.806787 38.255714 19.6875 36.875 19.6875L 13.125 19.6875C 11.744288 19.6875 10.625 20.806787 10.625 22.1875M 11.875 11.5625C 11.184644 11.5625 10.625 12.122144 10.625 12.8125L 10.625 37.1875C 10.625 37.877853 11.184644 38.4375 11.875 38.4375L 38.125 38.4375C 38.815353 38.4375 39.375 37.877853 39.375 37.1875L 39.375 16.5625C 39.375 15.872144 38.815353 15.3125 38.125 15.3125L 24.762501 15.3125C 24.320911 15.312161 23.91227 15.078855 23.6875 14.69875L 22.094999 12.17625C 21.870005 11.795762 21.460785 11.562397 21.018749 11.5625Z"></path></g></g></g><g id="g-root-tx_rpertoir_zpo5ib1rb84cj-stroke" data-item-order="1000000000" data-item-id="tx_rpertoir_zpo5ib1rb84cj" data-item-class="Label Stroke" data-item-index="none" data-renderer-id="0" transform="translate(51, 302)"></g><g id="g-root-uplo_1qdu7kz1rau0w5-stroke" data-item-order="1000000000" data-item-id="uplo_1qdu7kz1rau0w5" data-item-class="Icon Stroke" data-item-index="none" data-renderer-id="0" transform="translate(239, 163)"><g id="uplo_1qdu7kz1rau0w5-stroke" fill="none" stroke-linecap="round" stroke-linejoin="round" stroke-miterlimit="4" stroke="#17b0e3" stroke-width="2"><g><path d="M 21.875 39.375L 14.375 39.375C 12.994288 39.375 11.875 38.255714 11.875 36.875L 11.875 13.125M 35.625 10.625L 14.375 10.625C 12.994288 10.625 11.875 11.744288 11.875 13.125C 11.875 14.505712 12.994288 15.625 14.375 15.625L 34.375 15.625C 35.065353 15.625 35.625 16.184645 35.625 16.875L 35.625 21.25M 14.375 13.125L 34.375 13.125M 23.12125 31.875C 23.12125 36.017136 26.479115 39.375 30.62125 39.375C 34.763386 39.375 38.12125 36.017136 38.12125 31.875C 38.12125 27.732864 34.763386 24.375002 30.62125 24.375002C 26.479115 24.375002 23.12125 27.732864 23.12125 31.875ZM 30.62125 35.625L 30.62125 28.125M 30.62125 28.125L 27.80875 30.9375M 30.62125 28.125L 33.43375 30.9375"></path></g></g></g><g id="g-root-laun_1qbysbn1rawtfl-stroke" data-item-order="1000000000" data-item-id="laun_1qbysbn1rawtfl" data-item-class="Icon Stroke" data-item-index="none" data-renderer-id="0" transform="translate(239, 311)"><g id="laun_1qbysbn1rawtfl-stroke" fill="none" stroke-linecap="round" stroke-linejoin="round" stroke-miterlimit="4" stroke="#17b0e3" stroke-width="2"><g><path d="M 20.337502 25.625L 27.162498 25.625M 26.25 34.212502C 26.25 36.412498 23.75 38.125 23.75 38.125C 23.75 38.125 21.25 36.412498 21.25 34.212502C 21.192207 33.546989 21.443441 32.891842 21.931389 32.435612C 22.419336 31.979378 23.08987 31.772678 23.75 31.875C 24.41013 31.772678 25.080664 31.979378 25.568611 32.435612C 26.056559 32.891842 26.307791 33.546989 26.25 34.212498ZM 33.75 10.625L 33.75 13.125M 35 11.875L 32.5 11.875M 38.75 21.875L 36.625 21.875C 35.727535 21.875 35 22.602537 35 23.5C 34.999062 24.046719 35.271034 24.55784 35.724998 24.862499L 38.025002 26.387499C 38.478962 26.69216 38.750938 27.203281 38.749996 27.749998C 38.75 28.647463 38.022465 29.375 37.125 29.375L 35 29.375M 37.5 21.875L 37.5 20.625M 36.25 30.625L 36.25 29.375M 15 11.875L 12.875 11.875C 11.977537 11.875 11.25 12.602537 11.25 13.5C 11.249062 14.046719 11.521034 14.55784 11.975 14.8625L 14.275 16.387501C 14.728965 16.69216 15.000938 17.203281 15 17.75C 15 18.647463 14.272463 19.375 13.375 19.375L 11.25 19.375M 13.75 11.875L 13.75 10.625M 12.5 20.625L 12.5 19.375M 23.75 10.625C 16.875 16.25 19.450001 22.5 21.25 28.75L 26.25 28.75C 28.049999 22.5 30.625 16.25 23.75 10.625ZM 20.137499 25L 18.887501 25.650002C 18.051216 26.117775 17.523785 26.992077 17.5 27.950001L 17.5 30C 17.493731 30.24029 17.618107 30.465126 17.824999 30.5875C 18.021933 30.718273 18.278067 30.718273 18.475 30.5875L 21.25 28.75M 27.362501 24.9125L 28.612501 25.5875C 29.467955 26.066395 29.998425 26.969625 30 27.950001L 30 30C 30.006268 30.24029 29.881891 30.465126 29.674999 30.5875C 29.478065 30.718273 29.221933 30.718273 29.025 30.5875L 26.25 28.75M 21.875 18.125C 21.875 19.160534 22.714466 20 23.75 20C 24.785534 20 25.625 19.160534 25.625 18.125C 25.625 17.089466 24.785534 16.25 23.75 16.25C 22.714466 16.25 21.875 17.089466 21.875 18.125M 18.125 33.75C 16.875 33.75 15.625 34.4375 15.625 35.625C 15.625 35.724998 15.625 36.162498 15.625 36.25L 15 36.25C 14.164996 36.229202 13.357999 36.551758 12.767379 37.14238C 12.176759 37.732998 11.854202 38.539997 11.875 39.375M 28.75 33.75C 29.9375 33.75 31.25 34.4375 31.25 35.625C 31.25 35.724998 31.25 36.162498 31.25 36.25L 31.875 36.25C 32.710003 36.229202 33.517002 36.551758 34.10762 37.14238C 34.698242 37.732998 35.020798 38.539997 35 39.375"></path></g></g></g><g id="g-root-tx_assets_1hgy95v1rapszr-stroke" data-item-order="1000000000" data-item-id="tx_assets_1hgy95v1rapszr" data-item-class="Label Stroke" data-item-index="none" data-renderer-id="0" transform="translate(275, 18)"></g><g id="g-root-refr_htefhf1rb10jv-stroke" data-item-order="1000000000" data-item-id="refr_htefhf1rb10jv" data-item-class="Icon Stroke" data-item-index="none" data-renderer-id="0" transform="translate(239, 533)"><g id="refr_htefhf1rb10jv-stroke" fill="none" stroke-linecap="round" stroke-linejoin="round" stroke-miterlimit="4" stroke="#17b0e3" stroke-width="2"><g><path d="M 10.65125 15.62625C 10.65125 18.387674 15.967869 20.626251 22.526249 20.626251C 29.084631 20.626251 34.401249 18.387674 34.401249 15.62625C 34.401249 12.864826 29.084631 10.62625 22.526249 10.62625C 15.967869 10.62625 10.65125 12.864826 10.65125 15.62625ZM 22.526249 25.625C 15.96875 25.625 10.65125 23.387501 10.65125 20.625M 21.276249 31.223751C 15.30625 30.961248 10.65125 28.834999 10.65125 26.25M 21.276249 36.848751C 15.30625 36.58625 10.65125 34.459999 10.65125 31.876249L 10.65125 15.625M 34.401249 15.62625L 34.401249 21.876251M 33.775002 29.376251L 39.400002 29.376251L 39.400002 23.751251M 38.9725 29.375C 37.833744 26.152079 34.659851 24.106853 31.254391 24.401524C 27.84893 24.696194 25.073523 27.256203 24.505295 30.626827C 23.937067 33.997452 25.719788 37.325882 28.840424 38.720737C 31.96106 40.115589 35.630054 39.223953 37.762501 36.552502"></path></g></g></g><g id="g-root-tx_store_qoeyn71rb12wy-stroke" data-item-order="1000000000" data-item-id="tx_store_qoeyn71rb12wy" data-item-class="Label Stroke" data-item-index="none" data-renderer-id="0" transform="translate(275, 536)"></g><g id="g-root-tx_contexts_1luwc0z1rasn46-stroke" data-item-order="1000000000" data-item-id="tx_contexts_1luwc0z1rasn46" data-item-class="Label Stroke" data-item-index="none" data-renderer-id="0" transform="translate(275, 92)"></g><g id="g-root-bloc_18nt59f1rb114x-stroke" data-item-order="1000000000" data-item-id="bloc_18nt59f1rb114x" data-item-class="Icon Stroke" data-item-index="none" data-renderer-id="0" transform="translate(239, 607)"><g id="bloc_18nt59f1rb114x-stroke" fill="none" stroke-linecap="round" stroke-linejoin="round" stroke-miterlimit="4" stroke="#17b0e3" stroke-width="2"><g><path d="M 36.67857 26.671429C 38.490837 25.13673 39.309406 22.72794 38.807453 20.406811C 38.3055 18.08568 36.564793 16.230343 34.280346 15.581576C 31.995897 14.932809 29.53986 15.596303 27.892857 17.307142C 26.912052 13.866679 23.897593 11.397226 20.331385 11.112764C 16.765175 10.828302 13.397367 12.788668 11.883573 16.030148C 10.369777 19.271627 11.02842 23.112375 13.535714 25.664286M 18.035713 31.964285C 18.035715 35.810555 21.15373 38.92857 25 38.92857C 28.84627 38.92857 31.964285 35.810555 31.964285 31.964285C 31.964285 28.118017 28.84627 25 25 25C 21.15373 25 18.035715 28.118017 18.035715 31.964285M 20.071428 36.892857L 29.928572 27.035713"></path></g></g></g><g id="g-root-tx_initiali_1ur5tcz1rawvt4-stroke" data-item-order="1000000000" data-item-id="tx_initiali_1ur5tcz1rawvt4" data-item-class="Label Stroke" data-item-index="none" data-renderer-id="0" transform="translate(275, 314)"></g><g id="g-root-bmp_145hqsj1rapuko-stroke" data-item-order="1000000000" data-item-id="bmp_145hqsj1rapuko" data-item-class="Icon Stroke" data-item-index="none" data-renderer-id="0" transform="translate(239, 15)"><g id="bmp_145hqsj1rapuko-stroke" fill="none" stroke-linecap="round" stroke-linejoin="round" stroke-miterlimit="4" stroke="#17b0e3" stroke-width="2"><g><path d="M 11.875 16.25L 38.125 16.25C 38.125 16.25 39.375 16.25 39.375 17.5L 39.375 32.5C 39.375 32.5 39.375 33.75 38.125 33.75L 11.875 33.75C 11.875 33.75 10.625 33.75 10.625 32.5L 10.625 17.5C 10.625 17.5 10.625 16.25 11.875 16.25M 20.625 23.125C 20.625 24.160534 19.785534 25 18.75 25L 16.875 25L 16.875 21.25L 18.75 21.25C 19.785534 21.25 20.625 22.089466 20.625 23.125ZM 20.625 26.875C 20.625 27.910534 19.785534 28.75 18.75 28.75L 16.875 28.75L 16.875 25L 18.75 25C 19.785534 25 20.625 25.839466 20.625 26.875ZM 23.125 28.75L 23.125 21.25L 25 25L 26.875 21.25L 26.875 28.75M 33.125 23.125C 33.125 24.160534 32.285534 25 31.25 25L 29.375 25L 29.375 21.25L 31.25 21.25C 32.285534 21.25 33.125 22.089466 33.125 23.125ZM 29.375 28.75L 29.375 25"></path></g></g></g><g id="g-root-char_znster1ray7tb-stroke" data-item-order="1000000000" data-item-id="char_znster1ray7tb" data-item-class="Icon Stroke" data-item-index="none" data-renderer-id="0" transform="translate(239, 385)"><g id="char_znster1ray7tb-stroke" fill="none" stroke-linecap="round" stroke-linejoin="round" stroke-miterlimit="4" stroke="#17b0e3" stroke-width="2"><g><path d="M 13.125 11.88L 36.875 11.88C 36.875 11.88 39.375 11.88 39.375 14.38L 39.375 35.630001C 39.375 35.630001 39.375 38.130001 36.875 38.130001L 13.125 38.130001C 13.125 38.130001 10.625 38.130001 10.625 35.630001L 10.625 14.38C 10.625 14.38 10.625 11.88 13.125 11.88M 10.625 18.130001L 39.375 18.130001M 15 14.6925C 15.126846 14.692516 15.241098 14.769207 15.28916 14.886595C 15.337221 15.003983 15.309555 15.138778 15.219142 15.227746C 15.128728 15.316713 14.993504 15.342201 14.876906 15.292253C 14.760308 15.242304 14.685471 15.12683 14.6875 15C 14.69023 14.829367 14.829345 14.692478 15 14.6925M 18.75 14.6925C 18.876846 14.692516 18.991098 14.769207 19.03916 14.886595C 19.087221 15.003983 19.059555 15.138778 18.969141 15.227746C 18.878727 15.316713 18.743504 15.342201 18.626905 15.292253C 18.510307 15.242304 18.435471 15.12683 18.4375 15C 18.440231 14.829367 18.579346 14.692478 18.75 14.6925M 22.5 14.6925C 22.626846 14.692516 22.741098 14.769207 22.78916 14.886595C 22.837221 15.003983 22.809555 15.138778 22.719141 15.227746C 22.628729 15.316713 22.493504 15.342201 22.376905 15.292253C 22.260307 15.242304 22.185471 15.12683 22.1875 15C 22.1875 14.827411 22.327412 14.6875 22.5 14.6875M 13.75 28.129999C 13.75 31.581781 16.54822 34.380001 20 34.380001C 23.45178 34.380001 26.25 31.581781 26.25 28.130001C 26.25 24.678221 23.45178 21.880001 20 21.880001C 16.54822 21.880001 13.75 24.678221 13.75 28.130001M 23.526251 22.970001L 20 28.129999L 24.00625 32.92625M 20 28.129999L 13.75 28.129999M 28.75 23.129999L 36.25 23.129999M 28.75 26.879999L 36.25 26.879999M 28.75 30.629999L 36.25 30.629999"></path></g></g></g><g id="g-root-tx_presenta_18itckj1raya6e-stroke" data-item-order="1000000000" data-item-id="tx_presenta_18itckj1raya6e" data-item-class="Label Stroke" data-item-index="none" data-renderer-id="0" transform="translate(275, 388)"></g><g id="g-root-shar_18k2aqr1rasljb-stroke" data-item-order="1000000000" data-item-id="shar_18k2aqr1rasljb" data-item-class="Icon Stroke" data-item-index="none" data-renderer-id="0" transform="translate(239, 89)"><g id="shar_18k2aqr1rasljb-stroke" fill="none" stroke-linecap="round" stroke-linejoin="round" stroke-miterlimit="4" stroke="#17b0e3" stroke-width="2"><g><path d="M 13.39125 38.169998L 20.471251 39.3125C 21.944168 39.516911 23.442823 39.214535 24.721249 38.454998L 32.135002 34.046249C 33.171566 33.429501 33.512306 32.089478 32.896252 31.052502L 32.896248 31.052498C 32.600037 30.552998 32.117165 30.191959 31.554276 30.049126C 30.991385 29.906294 30.394791 29.993416 29.896252 30.291252L 24.106251 33.733749M 13.39125 32.485001L 16.397499 30.6975C 17.510405 30.035622 18.794378 29.718107 20.0875 29.785L 23.081249 29.94125C 23.638916 29.943245 24.171425 30.173592 24.554741 30.57864C 24.938061 30.983686 25.138725 31.528072 25.110001 32.085003L 25.110001 32.084999C 25.056641 33.112114 24.247023 33.938881 23.221249 34.013752L 19.39875 34M 27.735001 17.280001C 27.735001 18.505383 28.728369 19.498751 29.953751 19.498751C 31.179132 19.498751 32.172501 18.505383 32.172501 17.280001C 32.172501 16.054619 31.179132 15.061251 29.953751 15.061251C 28.728369 15.061251 27.735001 16.054619 27.735001 17.280001M 33.83625 23.38125L 26.071251 23.38125C 26.071533 21.237206 27.809704 19.499264 29.953749 19.499264C 32.097794 19.499264 33.835968 21.237206 33.83625 23.38125ZM 22.188749 10.625L 34.389999 10.625C 34.389999 10.625 36.608749 10.625 36.608749 12.84375L 36.608749 25.6C 36.608749 25.6 36.608749 27.81875 34.389999 27.81875L 22.188749 27.81875C 22.188749 27.81875 19.969999 27.81875 19.969999 25.6L 19.969999 12.84375C 19.969999 12.84375 19.969999 10.625 22.188749 10.625M 23.29875 10.625L 23.29875 27.81875"></path></g></g></g><g id="g-root-cu_8zqb1rb2i2w-stroke" data-item-order="1000000002" data-item-id="cu_8zqb1rb2i2w" data-item-class="Curve Stroke" data-item-index="none" data-renderer-id="0" transform="translate(171, 178)"><g id="cu_8zqb1rb2i2w-stroke" fill="none" stroke-linecap="round" stroke-linejoin="round" stroke-miterlimit="4" stroke="#484848" stroke-width="2"><g><path d="M 10 158L 24 158L 38 158L 38 84L 38 10L 52 10L 64 10"></path><path d="M 58 16.5L 64.5 10L 58 3.5" stroke-dasharray="none"></path></g></g></g><g id="g-root-cu_4g2hur1rb2ham-stroke" data-item-order="1000000002" data-item-id="cu_4g2hur1rb2ham" data-item-class="Curve Stroke" data-item-index="none" data-renderer-id="0" transform="translate(171, 252)"><g id="cu_4g2hur1rb2ham-stroke" fill="none" stroke-linecap="round" stroke-linejoin="round" stroke-miterlimit="4" stroke="#484848" stroke-width="2"><g><path d="M 10 84L 24 84L 38 84L 38 47L 38 10L 52 10L 64 10"></path><path d="M 58 16.5L 64.5 10L 58 3.5" stroke-dasharray="none"></path></g></g></g><g id="g-root-cu_4g2hur1rb2hab-stroke" data-item-order="1000000002" data-item-id="cu_4g2hur1rb2hab" data-item-class="Curve Stroke" data-item-index="none" data-renderer-id="0" transform="translate(171, 326)"><g id="cu_4g2hur1rb2hab-stroke" fill="none" stroke-linecap="round" stroke-linejoin="round" stroke-miterlimit="4" stroke="#484848" stroke-width="2"><g><path d="M 10 10L 24 10L 38 10L 38 158L 38 306L 52 306L 64 306"></path><path d="M 58 312.5L 64.5 306L 58 299.5" stroke-dasharray="none"></path></g></g></g><g id="g-root-cu_4g2hur1rb2hae-stroke" data-item-order="1000000002" data-item-id="cu_4g2hur1rb2hae" data-item-class="Curve Stroke" data-item-index="none" data-renderer-id="0" transform="translate(171, 326)"><g id="cu_4g2hur1rb2hae-stroke" fill="none" stroke-linecap="round" stroke-linejoin="round" stroke-miterlimit="4" stroke="#484848" stroke-width="2"><g><path d="M 10 10L 24 10L 38 10L 38 121L 38 232L 52 232L 64 232"></path><path d="M 58 238.5L 64.5 232L 58 225.5" stroke-dasharray="none"></path></g></g></g><g id="g-root-cu_4g2hur1rb2hag-stroke" data-item-order="1000000002" data-item-id="cu_4g2hur1rb2hag" data-item-class="Curve Stroke" data-item-index="none" data-renderer-id="0" transform="translate(171, 326)"><g id="cu_4g2hur1rb2hag-stroke" fill="none" stroke-linecap="round" stroke-linejoin="round" stroke-miterlimit="4" stroke="#484848" stroke-width="2"><g><path d="M 10 10L 24 10L 38 10L 38 84L 38 158L 52 158L 64 158"></path><path d="M 58 164.5L 64.5 158L 58 151.5" stroke-dasharray="none"></path></g></g></g><g id="g-root-cu_4g2hur1rb2hai-stroke" data-item-order="1000000002" data-item-id="cu_4g2hur1rb2hai" data-item-class="Curve Stroke" data-item-index="none" data-renderer-id="0" transform="translate(171, 326)"><g id="cu_4g2hur1rb2hai-stroke" fill="none" stroke-linecap="round" stroke-linejoin="round" stroke-miterlimit="4" stroke="#484848" stroke-width="2"><g><path d="M 10 10L 24 10L 38 10L 38 47L 38 84L 52 84L 64 84"></path><path d="M 58 90.5L 64.5 84L 58 77.5" stroke-dasharray="none"></path></g></g></g><g id="g-root-cu_4g2hur1rb2hak-stroke" data-item-order="1000000002" data-item-id="cu_4g2hur1rb2hak" data-item-class="Curve Stroke" data-item-index="none" data-renderer-id="0" transform="translate(171, 326)"><g id="cu_4g2hur1rb2hak-stroke" fill="none" stroke-linecap="round" stroke-linejoin="round" stroke-miterlimit="4" stroke="#484848" stroke-width="2"><g><path d="M 10 10L 38 10L 64 10"></path><path d="M 58 16.5L 64.5 10L 58 3.5" stroke-dasharray="none"></path></g></g></g><g id="g-root-cu_8zqb1rb2i2y-stroke" data-item-order="1000000002" data-item-id="cu_8zqb1rb2i2y" data-item-class="Curve Stroke" data-item-index="none" data-renderer-id="0" transform="translate(171, 104)"><g id="cu_8zqb1rb2i2y-stroke" fill="none" stroke-linecap="round" stroke-linejoin="round" stroke-miterlimit="4" stroke="#484848" stroke-width="2"><g><path d="M 10 232L 24 232L 38 232L 38 121L 38 10L 52 10L 64 10"></path><path d="M 58 16.5L 64.5 10L 58 3.5" stroke-dasharray="none"></path></g></g></g><g id="g-root-cu_8zqb1rb2i30-stroke" data-item-order="1000000002" data-item-id="cu_8zqb1rb2i30" data-item-class="Curve Stroke" data-item-index="none" data-renderer-id="0" transform="translate(171, 30)"><g id="cu_8zqb1rb2i30-stroke" fill="none" stroke-linecap="round" stroke-linejoin="round" stroke-miterlimit="4" stroke="#484848" stroke-width="2"><g><path d="M 10 306L 24 306L 38 306L 38 158L 38 10L 52 10L 64 10"></path><path d="M 58 16.5L 64.5 10L 58 3.5" stroke-dasharray="none"></path></g></g></g></g></g></svg>