<?xml version="1.0" encoding="utf-8" standalone="yes"?>
<!DOCTYPE svg PUBLIC "-//W3C//DTD SVG 1.1//EN" "http://www.w3.org/Graphics/SVG/1.1/DTD/svg11.dtd">
<svg width="889" height="301" viewBox="0 0 889 301" style="fill:none;stroke:none;fill-rule:evenodd;clip-rule:evenodd;stroke-linecap:round;stroke-linejoin:round;stroke-miterlimit:1.5;" version="1.1" xmlns="http://www.w3.org/2000/svg" xmlns:xlink="http://www.w3.org/1999/xlink"><style id="fontImports">@import url("https://fonts.googleapis.com/css2?family=Roboto:wght@400;700&amp;display=block");</style><rect id="" x="0" y="0" width="889" height="301" style="fill: #ffffff;"></rect><g id="items" style="isolation: isolate"><g id="blend" style="mix-blend-mode:normal"><g id="g-root-ro_18fosrp1tixsll-fill" data-item-order="999976600" data-item-id="ro_18fosrp1tixsll" data-item-class="Shape Stroke Fill" data-item-index="none" data-renderer-id="0" transform="translate(339, 66)"><g id="ro_18fosrp1tixsll-fill" stroke="none" fill="#f0f0f0"><g><path d="M 34 10L 142 10C 142 10 166 10 166 34L 166 136C 166 136 166 160 142 160L 34 160C 34 160 10 160 10 136L 10 34C 10 34 10 10 34 10"></path></g></g></g><g id="g-root-ro_1qdu17p1tj3eod-fill" data-item-order="999984448" data-item-id="ro_1qdu17p1tj3eod" data-item-class="Shape Stroke Fill" data-item-index="none" data-renderer-id="0" transform="translate(543, 3)"><g id="ro_1qdu17p1tj3eod-fill" stroke="none" fill="#e9fbf3"><g><path d="M 22 10L 286 10C 286 10 298 10 298 22L 298 52C 298 52 298 64 286 64L 22 64C 22 64 10 64 10 52L 10 22C 10 22 10 10 22 10"></path></g></g></g><g id="g-root-ro_145hnl11tiuz9h-fill" data-item-order="999984448" data-item-id="ro_145hnl11tiuz9h" data-item-class="Shape Stroke Fill" data-item-index="none" data-renderer-id="0" transform="translate(3, 153)"><g id="ro_145hnl11tiuz9h-fill" stroke="none" fill="#f7e6fe"><g><path d="M 22 10L 286 10C 286 10 298 10 298 22L 298 52C 298 52 298 64 286 64L 22 64C 22 64 10 64 10 52L 10 22C 10 22 10 10 22 10"></path></g></g></g><g id="g-root-ro_4jt95x1timkg9-fill" data-item-order="999985744" data-item-id="ro_4jt95x1timkg9" data-item-class="Shape Stroke Fill" data-item-index="none" data-renderer-id="0" transform="translate(543, 153)"><g id="ro_4jt95x1timkg9-fill" stroke="none" fill="#ffe7e6"><g><path d="M 22 10L 262 10C 262 10 274 10 274 22L 274 52C 274 52 274 64 262 64L 22 64C 22 64 10 64 10 52L 10 22C 10 22 10 10 22 10"></path></g></g></g><g id="g-root-ro_6hndx1tis745-fill" data-item-order="999987040" data-item-id="ro_6hndx1tis745" data-item-class="Shape Stroke Fill" data-item-index="none" data-renderer-id="0" transform="translate(51, 3)"><g id="ro_6hndx1tis745-fill" stroke="none" fill="#e6efff"><g><path d="M 22 10L 238 10C 238 10 250 10 250 22L 250 52C 250 52 250 64 238 64L 22 64C 22 64 10 64 10 52L 10 22C 10 22 10 10 22 10"></path></g></g></g><g id="g-root-cu_zpo5gl1tiv01t-fill" data-item-order="1000000000" data-item-id="cu_zpo5gl1tiv01t" data-item-class="Curve Stroke ColorStrokeGray" data-item-index="none" data-renderer-id="0" transform="translate(495, 30)"></g><g id="g-root-tx_configur_4nk0it1tj3ggb-fill" data-item-order="1000000000" data-item-id="tx_configur_4nk0it1tj3ggb" data-item-class="Label Stroke" data-item-index="none" data-renderer-id="0" transform="translate(591, 18)"><g id="tx_configur_4nk0it1tj3ggb-fill" stroke="none" fill="#3bc482"><g><text style="font: 20px Roboto, sans-serif; white-space: pre;" font-weight="20px" font-size="Roboto," font-family="sans-serif"><tspan x="11.93" y="33.75" dominant-baseline="ideographic">Configuration des Routes</tspan></text></g></g></g><g id="g-root-tx_gestiond_1q7ldid1tipedc-fill" data-item-order="1000000000" data-item-id="tx_gestiond_1q7ldid1tipedc" data-item-class="Label Stroke" data-item-index="none" data-renderer-id="0" transform="translate(63, 69)"><g id="tx_gestiond_1q7ldid1tipedc-fill" stroke="none" fill="#484848"><g><text style="font: 20px Roboto, sans-serif; white-space: pre;" font-weight="20px" font-size="Roboto," font-family="sans-serif"><tspan x="14.88" y="33.75" dominant-baseline="ideographic">Gestion du Routeur</tspan></text></g></g></g><g id="g-root-cu_v9unc51tiv0ua-fill" data-item-order="1000000000" data-item-id="cu_v9unc51tiv0ua" data-item-class="Curve Stroke ColorStrokeGray" data-item-index="none" data-renderer-id="0" transform="translate(249, 57)"></g><g id="g-root-cu_meu46d1tiuyh9-fill" data-item-order="1000000000" data-item-id="cu_meu46d1tiuyh9" data-item-class="Curve Stroke ColorStrokeGray" data-item-index="none" data-renderer-id="0" transform="translate(249, 57)"></g><g id="g-root-cu_v9unc51tiv026-fill" data-item-order="1000000000" data-item-id="cu_v9unc51tiv026" data-item-class="Curve Stroke ColorStrokeGray" data-item-index="none" data-renderer-id="0" transform="translate(291, 30)"></g><g id="g-root-cu_meu46d1tiuyhb-fill" data-item-order="1000000000" data-item-id="cu_meu46d1tiuyhb" data-item-class="Curve Stroke ColorStrokeGray" data-item-index="none" data-renderer-id="0" transform="translate(567, 57)"></g><g id="g-root-cu_hz0m1x1tiuz9m-fill" data-item-order="1000000000" data-item-id="cu_hz0m1x1tiuz9m" data-item-class="Curve Stroke ColorStrokeGray" data-item-index="none" data-renderer-id="0" transform="translate(567, 57)"></g><g id="g-root-tx_configur_1cwrc851tipcsi-fill" data-item-order="1000000000" data-item-id="tx_configur_1cwrc851tipcsi" data-item-class="Label Stroke" data-item-index="none" data-renderer-id="0" transform="translate(591, 69)"><g id="tx_configur_1cwrc851tipcsi-fill" stroke="none" fill="#484848"><g><text style="font: 20px Roboto, sans-serif; white-space: pre;" font-weight="20px" font-size="Roboto," font-family="sans-serif"><tspan x="11.93" y="33.75" dominant-baseline="ideographic">Configuration des Routes</tspan></text></g></g></g><g id="g-root-pin_1hbbt0l1tixrsw-fill" data-item-order="1000000000" data-item-id="pin_1hbbt0l1tixrsw" data-item-class="Icon Stroke" data-item-index="none" data-renderer-id="0" transform="translate(393, 90)"></g><g id="g-root-tx_gestiond_1hbyd9h1tipf61-fill" data-item-order="1000000000" data-item-id="tx_gestiond_1hbyd9h1tipf61" data-item-class="Label Stroke" data-item-index="none" data-renderer-id="0" transform="translate(63, 105)"><g id="tx_gestiond_1hbyd9h1tipf61-fill" stroke="none" fill="#484848"><g><text style="font: 20px Roboto, sans-serif; white-space: pre;" font-weight="20px" font-size="Roboto," font-family="sans-serif"><tspan x="13.68" y="33.75" dominant-baseline="ideographic">Gestion des Routes</tspan></text></g></g></g><g id="g-root-tx_configur_1cwrc851tipcsj-fill" data-item-order="1000000000" data-item-id="tx_configur_1cwrc851tipcsj" data-item-class="Label Stroke" data-item-index="none" data-renderer-id="0" transform="translate(591, 105)"><g id="tx_configur_1cwrc851tipcsj-fill" stroke="none" fill="#484848"><g><text style="font: 20px Roboto, sans-serif; white-space: pre;" font-weight="20px" font-size="Roboto," font-family="sans-serif"><tspan x="15.63" y="33.75" dominant-baseline="ideographic">Configuration des Paramètres</tspan></text></g></g></g><g id="g-root-1_8czhh1tj3e2s-fill" data-item-order="1000000000" data-item-id="1_8czhh1tj3e2s" data-item-class="Icon Stroke" data-item-index="none" data-renderer-id="0" transform="translate(555, 15)"></g><g id="g-root-tx_routinge_1q6cc6d1tixte7-fill" data-item-order="1000000000" data-item-id="tx_routinge_1q6cc6d1tixte7" data-item-class="Label Stroke" data-item-index="none" data-renderer-id="0" transform="translate(363, 144)"><g id="tx_routinge_1q6cc6d1tixte7-fill" stroke="none" fill="#484848"><g><text style="font: 20px Roboto, sans-serif; white-space: pre;" font-weight="20px" font-size="Roboto," font-family="sans-serif"><tspan x="17.54" y="33.75" dominant-baseline="ideographic">Routing et </tspan><tspan x="15.04" y="57.75" dominant-baseline="ideographic">Navigation</tspan></text></g></g></g><g id="g-root-sele_18lb5ph1tiuyh8-fill" data-item-order="1000000000" data-item-id="sele_18lb5ph1tiuyh8" data-item-class="Icon Stroke" data-item-index="none" data-renderer-id="0" transform="translate(249, 165)"></g><g id="g-root-cros_4mb5id1tis6bw-fill" data-item-order="1000000000" data-item-id="cros_4mb5id1tis6bw" data-item-class="Icon Stroke" data-item-index="none" data-renderer-id="0" transform="translate(249, 15)"></g><g id="g-root-tx_middlewa_1hgbov91tiv0ub-fill" data-item-order="1000000000" data-item-id="tx_middlewa_1hgbov91tiv0ub" data-item-class="Label Stroke" data-item-index="none" data-renderer-id="0" transform="translate(15, 168)"><g id="tx_middlewa_1hgbov91tiv0ub-fill" stroke="none" fill="#b65edf"><g><text style="font: 20px Roboto, sans-serif; white-space: pre;" font-weight="20px" font-size="Roboto," font-family="sans-serif"><tspan x="12.25" y="33.75" dominant-baseline="ideographic">Middleware Personnalisé</tspan></text></g></g></g><g id="g-root-cu_qu157p1tiv0un-fill" data-item-order="1000000000" data-item-id="cu_qu157p1tiv0un" data-item-class="Curve Stroke ColorStrokeGray" data-item-index="none" data-renderer-id="0" transform="translate(291, 166)"></g><g id="g-root-cu_zpo5gl1tiv01w-fill" data-item-order="1000000000" data-item-id="cu_zpo5gl1tiv01w" data-item-class="Curve Stroke ColorStrokeGray" data-item-index="none" data-renderer-id="0" transform="translate(495, 166)"></g><g id="g-root-pers_4jt95x1timkg8-fill" data-item-order="1000000000" data-item-id="pers_4jt95x1timkg8" data-item-class="Icon Stroke" data-item-index="none" data-renderer-id="0" transform="translate(555, 165)"></g><g id="g-root-tx_guardsde_hunag51timm13-fill" data-item-order="1000000000" data-item-id="tx_guardsde_hunag51timm13" data-item-class="Label Stroke" data-item-index="none" data-renderer-id="0" transform="translate(591, 168)"><g id="tx_guardsde_hunag51timm13-fill" stroke="none" fill="#e15e5a"><g><text style="font: 20px Roboto, sans-serif; white-space: pre;" font-weight="20px" font-size="Roboto," font-family="sans-serif"><tspan x="16.53" y="33.75" dominant-baseline="ideographic">Guards de Navigation</tspan></text></g></g></g><g id="g-root-tx_traiteme_zlatut1tipedi-fill" data-item-order="1000000000" data-item-id="tx_traiteme_zlatut1tipedi" data-item-class="Label Stroke" data-item-index="none" data-renderer-id="0" transform="translate(15, 219)"><g id="tx_traiteme_zlatut1tipedi-fill" stroke="none" fill="#484848"><g><text style="font: 20px Roboto, sans-serif; white-space: pre;" font-weight="20px" font-size="Roboto," font-family="sans-serif"><tspan x="13.22" y="33.75" dominant-baseline="ideographic">Traitement des Requêtes</tspan></text></g></g></g><g id="g-root-tx_protecti_zlatut1tipedh-fill" data-item-order="1000000000" data-item-id="tx_protecti_zlatut1tipedh" data-item-class="Label Stroke" data-item-index="none" data-renderer-id="0" transform="translate(591, 255)"><g id="tx_protecti_zlatut1tipedh-fill" stroke="none" fill="#484848"><g><text style="font: 20px Roboto, sans-serif; white-space: pre;" font-weight="20px" font-size="Roboto," font-family="sans-serif"><tspan x="13.85" y="33.75" dominant-baseline="ideographic">Protection des Routes</tspan></text></g></g></g><g id="g-root-cu_dj73xh1tiv024-fill" data-item-order="1000000000" data-item-id="cu_dj73xh1tiv024" data-item-class="Curve Stroke ColorStrokeGray" data-item-index="none" data-renderer-id="0" transform="translate(249, 207)"></g><g id="g-root-cu_hz0m1x1tiuz9o-fill" data-item-order="1000000000" data-item-id="cu_hz0m1x1tiuz9o" data-item-class="Curve Stroke ColorStrokeGray" data-item-index="none" data-renderer-id="0" transform="translate(567, 207)"></g><g id="g-root-cu_hz0m1x1tiuz9r-fill" data-item-order="1000000000" data-item-id="cu_hz0m1x1tiuz9r" data-item-class="Curve Stroke ColorStrokeGray" data-item-index="none" data-renderer-id="0" transform="translate(567, 207)"></g><g id="g-root-tx_contrled_1414bz91tipdl8-fill" data-item-order="1000000000" data-item-id="tx_contrled_1414bz91tipdl8" data-item-class="Label Stroke" data-item-index="none" data-renderer-id="0" transform="translate(591, 219)"><g id="tx_contrled_1414bz91tipdl8-fill" stroke="none" fill="#484848"><g><text style="font: 20px Roboto, sans-serif; white-space: pre;" font-weight="20px" font-size="Roboto," font-family="sans-serif"><tspan x="13.57" y="33.75" dominant-baseline="ideographic">Contrôle d'Accès</tspan></text></g></g></g><g id="g-root-tx_gestiond_qpntlx1tipf67-fill" data-item-order="1000000000" data-item-id="tx_gestiond_qpntlx1tipf67" data-item-class="Label Stroke" data-item-index="none" data-renderer-id="0" transform="translate(39, 255)"><g id="tx_gestiond_qpntlx1tipf67-fill" stroke="none" fill="#484848"><g><text style="font: 20px Roboto, sans-serif; white-space: pre;" font-weight="20px" font-size="Roboto," font-family="sans-serif"><tspan x="12.88" y="33.75" dominant-baseline="ideographic">Gestion des Réponses</tspan></text></g></g></g><g id="g-root-tx_gestiond_dhy5r91tis5j7-fill" data-item-order="1000000000" data-item-id="tx_gestiond_dhy5r91tis5j7" data-item-class="Label Stroke" data-item-index="none" data-renderer-id="0" transform="translate(63, 18)"><g id="tx_gestiond_dhy5r91tis5j7-fill" stroke="none" fill="#4682e3"><g><text style="font: 20px Roboto, sans-serif; white-space: pre;" font-weight="20px" font-size="Roboto," font-family="sans-serif"><tspan x="13.68" y="33.75" dominant-baseline="ideographic">Gestion des Routes</tspan></text></g></g></g><g id="g-root-cu_dj73xh1tiv021-fill" data-item-order="1000000000" data-item-id="cu_dj73xh1tiv021" data-item-class="Curve Stroke ColorStrokeGray" data-item-index="none" data-renderer-id="0" transform="translate(249, 207)"></g><g id="g-root-ro_18fosrp1tixsll-stroke" data-item-order="999976600" data-item-id="ro_18fosrp1tixsll" data-item-class="Shape Stroke Fill" data-item-index="none" data-renderer-id="0" transform="translate(339, 66)"><g id="ro_18fosrp1tixsll-stroke" fill="none" stroke-linecap="round" stroke-linejoin="round" stroke-miterlimit="4" stroke="#484848" stroke-width="2"><g><path d="M 34 10L 142 10C 142 10 166 10 166 34L 166 136C 166 136 166 160 142 160L 34 160C 34 160 10 160 10 136L 10 34C 10 34 10 10 34 10"></path></g></g></g><g id="g-root-ro_1qdu17p1tj3eod-stroke" data-item-order="999984448" data-item-id="ro_1qdu17p1tj3eod" data-item-class="Shape Stroke Fill" data-item-index="none" data-renderer-id="0" transform="translate(543, 3)"><g id="ro_1qdu17p1tj3eod-stroke" fill="none" stroke-linecap="round" stroke-linejoin="round" stroke-miterlimit="4" stroke="#3bc482" stroke-width="2"><g><path d="M 22 10L 286 10C 286 10 298 10 298 22L 298 52C 298 52 298 64 286 64L 22 64C 22 64 10 64 10 52L 10 22C 10 22 10 10 22 10"></path></g></g></g><g id="g-root-ro_145hnl11tiuz9h-stroke" data-item-order="999984448" data-item-id="ro_145hnl11tiuz9h" data-item-class="Shape Stroke Fill" data-item-index="none" data-renderer-id="0" transform="translate(3, 153)"><g id="ro_145hnl11tiuz9h-stroke" fill="none" stroke-linecap="round" stroke-linejoin="round" stroke-miterlimit="4" stroke="#b65edf" stroke-width="2"><g><path d="M 22 10L 286 10C 286 10 298 10 298 22L 298 52C 298 52 298 64 286 64L 22 64C 22 64 10 64 10 52L 10 22C 10 22 10 10 22 10"></path></g></g></g><g id="g-root-ro_4jt95x1timkg9-stroke" data-item-order="999985744" data-item-id="ro_4jt95x1timkg9" data-item-class="Shape Stroke Fill" data-item-index="none" data-renderer-id="0" transform="translate(543, 153)"><g id="ro_4jt95x1timkg9-stroke" fill="none" stroke-linecap="round" stroke-linejoin="round" stroke-miterlimit="4" stroke="#e15e5a" stroke-width="2"><g><path d="M 22 10L 262 10C 262 10 274 10 274 22L 274 52C 274 52 274 64 262 64L 22 64C 22 64 10 64 10 52L 10 22C 10 22 10 10 22 10"></path></g></g></g><g id="g-root-ro_6hndx1tis745-stroke" data-item-order="999987040" data-item-id="ro_6hndx1tis745" data-item-class="Shape Stroke Fill" data-item-index="none" data-renderer-id="0" transform="translate(51, 3)"><g id="ro_6hndx1tis745-stroke" fill="none" stroke-linecap="round" stroke-linejoin="round" stroke-miterlimit="4" stroke="#4682e3" stroke-width="2"><g><path d="M 22 10L 238 10C 238 10 250 10 250 22L 250 52C 250 52 250 64 238 64L 22 64C 22 64 10 64 10 52L 10 22C 10 22 10 10 22 10"></path></g></g></g><g id="g-root-cu_zpo5gl1tiv01t-stroke" data-item-order="1000000000" data-item-id="cu_zpo5gl1tiv01t" data-item-class="Curve Stroke ColorStrokeGray" data-item-index="none" data-renderer-id="0" transform="translate(495, 30)"><g id="cu_zpo5gl1tiv01t-stroke" fill="none" stroke-linecap="round" stroke-linejoin="round" stroke-miterlimit="4" stroke="#888888" stroke-width="2" stroke-dasharray="5.0, 7.0"><g><path d="M 10 96L 13 96L 13.1 96C 24.642748 96.000003 33.999998 86.642755 33.999998 75.100003L 34 75L 34 30.9C 33.999999 19.357249 43.357248 10.000001 54.899999 10.000002L 55 10L 58 10"></path></g></g></g><g id="g-root-tx_configur_4nk0it1tj3ggb-stroke" data-item-order="1000000000" data-item-id="tx_configur_4nk0it1tj3ggb" data-item-class="Label Stroke" data-item-index="none" data-renderer-id="0" transform="translate(591, 18)"></g><g id="g-root-tx_gestiond_1q7ldid1tipedc-stroke" data-item-order="1000000000" data-item-id="tx_gestiond_1q7ldid1tipedc" data-item-class="Label Stroke" data-item-index="none" data-renderer-id="0" transform="translate(63, 69)"></g><g id="g-root-cu_v9unc51tiv0ua-stroke" data-item-order="1000000000" data-item-id="cu_v9unc51tiv0ua" data-item-class="Curve Stroke ColorStrokeGray" data-item-index="none" data-renderer-id="0" transform="translate(249, 57)"><g id="cu_v9unc51tiv0ua-stroke" fill="none" stroke-linecap="round" stroke-linejoin="round" stroke-miterlimit="4" stroke="#888888" stroke-width="2" stroke-dasharray="5.0, 7.0"><g><path d="M 28 10L 28 22L 28 34L 19 34L 10 34"></path></g></g></g><g id="g-root-cu_meu46d1tiuyh9-stroke" data-item-order="1000000000" data-item-id="cu_meu46d1tiuyh9" data-item-class="Curve Stroke ColorStrokeGray" data-item-index="none" data-renderer-id="0" transform="translate(249, 57)"><g id="cu_meu46d1tiuyh9-stroke" fill="none" stroke-linecap="round" stroke-linejoin="round" stroke-miterlimit="4" stroke="#888888" stroke-width="2" stroke-dasharray="5.0, 7.0"><g><path d="M 28 10L 28 17.5L 28 58C 27.999999 64.627415 22.627416 69.999998 16 69.999998L 15.9 70L 10 70"></path></g></g></g><g id="g-root-cu_v9unc51tiv026-stroke" data-item-order="1000000000" data-item-id="cu_v9unc51tiv026" data-item-class="Curve Stroke ColorStrokeGray" data-item-index="none" data-renderer-id="0" transform="translate(291, 30)"><g id="cu_v9unc51tiv026-stroke" fill="none" stroke-linecap="round" stroke-linejoin="round" stroke-miterlimit="4" stroke="#888888" stroke-width="2" stroke-dasharray="5.0, 7.0"><g><path d="M 58 96L 55 96L 54.9 96C 43.357245 95.999996 33.999997 86.642747 33.999997 75.099997L 34 75L 34 30.9C 33.999998 19.357248 24.64275 10 13.1 10L 13 10L 10 10"></path></g></g></g><g id="g-root-cu_meu46d1tiuyhb-stroke" data-item-order="1000000000" data-item-id="cu_meu46d1tiuyhb" data-item-class="Curve Stroke ColorStrokeGray" data-item-index="none" data-renderer-id="0" transform="translate(567, 57)"><g id="cu_meu46d1tiuyhb-stroke" fill="none" stroke-linecap="round" stroke-linejoin="round" stroke-miterlimit="4" stroke="#888888" stroke-width="2" stroke-dasharray="5.0, 7.0"><g><path d="M 10 10L 10 22L 10 34L 19 34L 28 34"></path></g></g></g><g id="g-root-cu_hz0m1x1tiuz9m-stroke" data-item-order="1000000000" data-item-id="cu_hz0m1x1tiuz9m" data-item-class="Curve Stroke ColorStrokeGray" data-item-index="none" data-renderer-id="0" transform="translate(567, 57)"><g id="cu_hz0m1x1tiuz9m-stroke" fill="none" stroke-linecap="round" stroke-linejoin="round" stroke-miterlimit="4" stroke="#888888" stroke-width="2" stroke-dasharray="5.0, 7.0"><g><path d="M 10 10L 10 17.5L 10 58C 10.000002 64.627417 15.372585 70 22.000002 69.999999L 22.1 70L 28 70"></path></g></g></g><g id="g-root-tx_configur_1cwrc851tipcsi-stroke" data-item-order="1000000000" data-item-id="tx_configur_1cwrc851tipcsi" data-item-class="Label Stroke" data-item-index="none" data-renderer-id="0" transform="translate(591, 69)"></g><g id="g-root-pin_1hbbt0l1tixrsw-stroke" data-item-order="1000000000" data-item-id="pin_1hbbt0l1tixrsw" data-item-class="Icon Stroke" data-item-index="none" data-renderer-id="0" transform="translate(393, 90)"><g id="pin_1hbbt0l1tixrsw-stroke" fill="none" stroke-linecap="round" stroke-linejoin="round" stroke-miterlimit="4" stroke="#484848" stroke-width="2"><g><path d="M 49.428574 27.142857C 49.428574 35.68 34 56.285713 34 56.285713C 34 56.285713 18.571428 35.68 18.571428 27.142857C 18.571428 18.621893 25.479034 11.714286 34 11.714286C 42.520966 11.714286 49.428574 18.621893 49.428574 27.142857ZM 28.857143 27.142857C 28.857143 29.983179 31.159679 32.285713 34 32.285713C 36.840321 32.285713 39.142857 29.983179 39.142857 27.142857C 39.142857 24.302536 36.840321 22 34 22C 31.159679 22 28.857143 24.302536 28.857143 27.142857"></path></g></g></g><g id="g-root-tx_gestiond_1hbyd9h1tipf61-stroke" data-item-order="1000000000" data-item-id="tx_gestiond_1hbyd9h1tipf61" data-item-class="Label Stroke" data-item-index="none" data-renderer-id="0" transform="translate(63, 105)"></g><g id="g-root-tx_configur_1cwrc851tipcsj-stroke" data-item-order="1000000000" data-item-id="tx_configur_1cwrc851tipcsj" data-item-class="Label Stroke" data-item-index="none" data-renderer-id="0" transform="translate(591, 105)"></g><g id="g-root-1_8czhh1tj3e2s-stroke" data-item-order="1000000000" data-item-id="1_8czhh1tj3e2s" data-item-class="Icon Stroke" data-item-index="none" data-renderer-id="0" transform="translate(555, 15)"><g id="1_8czhh1tj3e2s-stroke" fill="none" stroke-linecap="round" stroke-linejoin="round" stroke-miterlimit="4" stroke="#3bc482" stroke-width="2"><g><path d="M 11.507856 24.116117L 24.114687 11.509286C 24.114687 11.509286 24.998569 10.625402 25.882452 11.509286L 38.489281 24.116117C 38.489281 24.116117 39.373165 25 38.489281 25.883883L 25.882452 38.490711C 25.882452 38.490711 24.998569 39.374596 24.114687 38.490711L 11.507856 25.883883C 11.507856 25.883883 10.623973 25 11.507856 24.116117M 21.875 30C 21.875 30.345177 22.154823 30.625 22.5 30.625L 25 30.625C 25.345177 30.625 25.625 30.345177 25.625 30L 25.625 26.875L 28.75 26.875C 29.095177 26.875 29.375 26.595177 29.375 26.25L 29.375 23.75C 29.375 23.404823 29.095177 23.125 28.75 23.125L 25.625 23.125L 25.625 20C 25.625 19.654821 25.345177 19.375 25 19.375L 22.5 19.375C 22.154823 19.375 21.875 19.654821 21.875 20Z"></path></g></g></g><g id="g-root-tx_routinge_1q6cc6d1tixte7-stroke" data-item-order="1000000000" data-item-id="tx_routinge_1q6cc6d1tixte7" data-item-class="Label Stroke" data-item-index="none" data-renderer-id="0" transform="translate(363, 144)"></g><g id="g-root-sele_18lb5ph1tiuyh8-stroke" data-item-order="1000000000" data-item-id="sele_18lb5ph1tiuyh8" data-item-class="Icon Stroke" data-item-index="none" data-renderer-id="0" transform="translate(249, 165)"><g id="sele_18lb5ph1tiuyh8-stroke" fill="none" stroke-linecap="round" stroke-linejoin="round" stroke-miterlimit="4" stroke="#b65edf" stroke-width="2"><g><path d="M 10.625 20.625L 10.625 38.125C 10.625 38.815353 11.184644 39.375 11.875 39.375L 29.375 39.375M 16.875 10.625C 16.184645 10.625 15.625 11.184644 15.625 11.875M 38.125 10.625C 38.815353 10.625 39.375 11.184644 39.375 11.875M 15.625 14.375L 15.625 15.625M 20.625 10.625L 19.375 10.625M 20.625 34.375L 19.375 34.375M 24.375 10.625L 23.125 10.625M 28.125 10.625L 26.875 10.625M 31.875 10.625L 30.625 10.625M 35.625 10.625L 34.375 10.625M 24.375 34.375L 23.125 34.375M 28.125 34.375L 26.875 34.375M 31.875 34.375L 30.625 34.375M 35.625 34.375L 34.375 34.375M 38.125 34.375C 38.815353 34.375 39.375 33.815353 39.375 33.125M 39.375 30.625L 39.375 29.375M 16.875 34.375C 16.184645 34.375 15.625 33.815353 15.625 33.125M 15.625 30.625L 15.625 29.375M 39.375 26.875L 39.375 25.625M 39.375 23.125L 39.375 21.875M 39.375 19.375L 39.375 18.125M 15.625 26.875L 15.625 25.625M 15.625 23.125L 15.625 21.875M 15.625 19.375L 15.625 18.125M 39.375 15.625L 39.375 14.375"></path></g></g></g><g id="g-root-cros_4mb5id1tis6bw-stroke" data-item-order="1000000000" data-item-id="cros_4mb5id1tis6bw" data-item-class="Icon Stroke" data-item-index="none" data-renderer-id="0" transform="translate(249, 15)"><g id="cros_4mb5id1tis6bw-stroke" fill="none" stroke-linecap="round" stroke-linejoin="round" stroke-miterlimit="4" stroke="#4682e3" stroke-width="2"><g><path d="M 24.375 30.625L 24.375 39.375M 24.375 10.625L 24.375 13.125M 24.375 20.625L 24.375 23.125M 35.807499 20.442501C 35.690369 20.559336 35.531689 20.624966 35.366249 20.625L 15 20.625C 14.654822 20.625 14.375 20.345177 14.375 20L 14.375 13.75C 14.375 13.404822 14.654822 13.125 15 13.125L 35.366249 13.125C 35.531689 13.125035 35.690369 13.190663 35.807499 13.3075L 38.932499 16.432499C 39.050053 16.549755 39.116119 16.708965 39.116119 16.875C 39.116119 17.041035 39.050053 17.200245 38.932499 17.317501ZM 14.1925 30.442501C 14.309632 30.559338 14.468309 30.624964 14.63375 30.625L 35 30.625C 35.345177 30.625 35.625 30.345177 35.625 30L 35.625 23.75C 35.625 23.404823 35.345177 23.125 35 23.125L 14.63375 23.125C 14.468309 23.125034 14.309632 23.190664 14.1925 23.307499L 11.0675 26.432499C 10.949948 26.549755 10.883883 26.708967 10.883883 26.875C 10.883883 27.041033 10.949948 27.200245 11.0675 27.317501Z"></path></g></g></g><g id="g-root-tx_middlewa_1hgbov91tiv0ub-stroke" data-item-order="1000000000" data-item-id="tx_middlewa_1hgbov91tiv0ub" data-item-class="Label Stroke" data-item-index="none" data-renderer-id="0" transform="translate(15, 168)"></g><g id="g-root-cu_qu157p1tiv0un-stroke" data-item-order="1000000000" data-item-id="cu_qu157p1tiv0un" data-item-class="Curve Stroke ColorStrokeGray" data-item-index="none" data-renderer-id="0" transform="translate(291, 166)"><g id="cu_qu157p1tiv0un-stroke" fill="none" stroke-linecap="round" stroke-linejoin="round" stroke-miterlimit="4" stroke="#888888" stroke-width="2" stroke-dasharray="5.0, 7.0"><g><path d="M 58 10L 55 10L 54.9 10C 51.522851 10.003929 47.800585 10.613027 43.900001 11.799999C 41.565213 12.503613 38.063122 14.343095 34 17.000001C 29.936878 19.656907 26.434787 21.496389 24.1 22.200001C 20.199417 23.386972 16.477151 23.99607 13.100001 24L 13 24L 10 24"></path></g></g></g><g id="g-root-cu_zpo5gl1tiv01w-stroke" data-item-order="1000000000" data-item-id="cu_zpo5gl1tiv01w" data-item-class="Curve Stroke ColorStrokeGray" data-item-index="none" data-renderer-id="0" transform="translate(495, 166)"><g id="cu_zpo5gl1tiv01w-stroke" fill="none" stroke-linecap="round" stroke-linejoin="round" stroke-miterlimit="4" stroke="#888888" stroke-width="2" stroke-dasharray="5.0, 7.0"><g><path d="M 10 10L 13 10L 13.1 10C 16.47715 10.00393 20.199416 10.613028 24.1 11.8C 26.434787 12.503612 29.936878 14.343094 34 16.999999C 38.063122 19.656905 41.565214 21.496387 43.900001 22.199999C 47.800584 23.386973 51.52285 23.996071 54.900001 24.000001L 55 24L 58 24"></path></g></g></g><g id="g-root-pers_4jt95x1timkg8-stroke" data-item-order="1000000000" data-item-id="pers_4jt95x1timkg8" data-item-class="Icon Stroke" data-item-index="none" data-renderer-id="0" transform="translate(555, 165)"><g id="pers_4jt95x1timkg8-stroke" fill="none" stroke-linecap="round" stroke-linejoin="round" stroke-miterlimit="4" stroke="#e15e5a" stroke-width="2"><g><path d="M 15.892857 15.892857C 15.892857 18.555658 18.051483 20.714285 20.714285 20.714285C 23.377087 20.714285 25.535713 18.555658 25.535713 15.892857C 25.535713 13.230056 23.377087 11.071428 20.714285 11.071428C 18.051483 11.071428 15.892857 13.230056 15.892857 15.892857M 22.857143 24.164286C 19.994532 23.503403 16.986841 24.18663 14.690684 26.019381C 12.394527 27.852131 11.061563 30.633533 11.071428 33.571426L 11.071428 36.785713L 22.857143 36.785713M 32.864285 38.864285L 32.864285 38.864285C 32.628883 38.94939 32.371113 38.94939 32.135712 38.864285L 32.135712 38.864285C 28.479042 37.415695 26.07589 33.883148 26.071428 29.950001L 26.071428 27.142857C 26.052269 26.853247 26.158983 26.569448 26.364218 26.364218C 26.569448 26.158983 26.853247 26.052269 27.142857 26.071428L 37.857143 26.071428C 38.146751 26.052269 38.43055 26.158983 38.63578 26.364218C 38.841015 26.569448 38.947731 26.853247 38.92857 27.142857L 38.92857 29.950001C 38.92411 33.883148 36.520958 37.415695 32.864285 38.864285Z"></path></g></g></g><g id="g-root-tx_guardsde_hunag51timm13-stroke" data-item-order="1000000000" data-item-id="tx_guardsde_hunag51timm13" data-item-class="Label Stroke" data-item-index="none" data-renderer-id="0" transform="translate(591, 168)"></g><g id="g-root-tx_traiteme_zlatut1tipedi-stroke" data-item-order="1000000000" data-item-id="tx_traiteme_zlatut1tipedi" data-item-class="Label Stroke" data-item-index="none" data-renderer-id="0" transform="translate(15, 219)"></g><g id="g-root-tx_protecti_zlatut1tipedh-stroke" data-item-order="1000000000" data-item-id="tx_protecti_zlatut1tipedh" data-item-class="Label Stroke" data-item-index="none" data-renderer-id="0" transform="translate(591, 255)"></g><g id="g-root-cu_dj73xh1tiv024-stroke" data-item-order="1000000000" data-item-id="cu_dj73xh1tiv024" data-item-class="Curve Stroke ColorStrokeGray" data-item-index="none" data-renderer-id="0" transform="translate(249, 207)"><g id="cu_dj73xh1tiv024-stroke" fill="none" stroke-linecap="round" stroke-linejoin="round" stroke-miterlimit="4" stroke="#888888" stroke-width="2" stroke-dasharray="5.0, 7.0"><g><path d="M 28 10L 28 17.5L 28 58C 27.999999 64.627415 22.627416 69.999998 16 69.999998L 15.9 70L 10 70"></path></g></g></g><g id="g-root-cu_hz0m1x1tiuz9o-stroke" data-item-order="1000000000" data-item-id="cu_hz0m1x1tiuz9o" data-item-class="Curve Stroke ColorStrokeGray" data-item-index="none" data-renderer-id="0" transform="translate(567, 207)"><g id="cu_hz0m1x1tiuz9o-stroke" fill="none" stroke-linecap="round" stroke-linejoin="round" stroke-miterlimit="4" stroke="#888888" stroke-width="2" stroke-dasharray="5.0, 7.0"><g><path d="M 10 10L 10 22L 10 34L 19 34L 28 34"></path></g></g></g><g id="g-root-cu_hz0m1x1tiuz9r-stroke" data-item-order="1000000000" data-item-id="cu_hz0m1x1tiuz9r" data-item-class="Curve Stroke ColorStrokeGray" data-item-index="none" data-renderer-id="0" transform="translate(567, 207)"><g id="cu_hz0m1x1tiuz9r-stroke" fill="none" stroke-linecap="round" stroke-linejoin="round" stroke-miterlimit="4" stroke="#888888" stroke-width="2" stroke-dasharray="5.0, 7.0"><g><path d="M 10 10L 10 17.5L 10 58C 10.000002 64.627417 15.372585 70 22.000002 69.999999L 22.1 70L 28 70"></path></g></g></g><g id="g-root-tx_contrled_1414bz91tipdl8-stroke" data-item-order="1000000000" data-item-id="tx_contrled_1414bz91tipdl8" data-item-class="Label Stroke" data-item-index="none" data-renderer-id="0" transform="translate(591, 219)"></g><g id="g-root-tx_gestiond_qpntlx1tipf67-stroke" data-item-order="1000000000" data-item-id="tx_gestiond_qpntlx1tipf67" data-item-class="Label Stroke" data-item-index="none" data-renderer-id="0" transform="translate(39, 255)"></g><g id="g-root-tx_gestiond_dhy5r91tis5j7-stroke" data-item-order="1000000000" data-item-id="tx_gestiond_dhy5r91tis5j7" data-item-class="Label Stroke" data-item-index="none" data-renderer-id="0" transform="translate(63, 18)"></g><g id="g-root-cu_dj73xh1tiv021-stroke" data-item-order="1000000000" data-item-id="cu_dj73xh1tiv021" data-item-class="Curve Stroke ColorStrokeGray" data-item-index="none" data-renderer-id="0" transform="translate(249, 207)"><g id="cu_dj73xh1tiv021-stroke" fill="none" stroke-linecap="round" stroke-linejoin="round" stroke-miterlimit="4" stroke="#888888" stroke-width="2" stroke-dasharray="5.0, 7.0"><g><path d="M 28 10L 28 22L 28 34L 19 34L 10 34"></path></g></g></g></g></g></svg>