<?xml version="1.0" encoding="utf-8" standalone="yes"?>
<!DOCTYPE svg PUBLIC "-//W3C//DTD SVG 1.1//EN" "http://www.w3.org/Graphics/SVG/1.1/DTD/svg11.dtd">
<svg width="984" height="211" viewBox="0 0 984 211" style="fill:none;stroke:none;fill-rule:evenodd;clip-rule:evenodd;stroke-linecap:round;stroke-linejoin:round;stroke-miterlimit:1.5;" version="1.1" xmlns="http://www.w3.org/2000/svg" xmlns:xlink="http://www.w3.org/1999/xlink"><style id="fontImports">@import url("https://fonts.googleapis.com/css2?family=Roboto:wght@400;700&amp;display=block");</style><rect id="" x="0" y="0" width="984" height="211" style="fill: #ffffff;"></rect><g id="items" style="isolation: isolate"><g id="blend" style="mix-blend-mode:normal"><g id="g-root-ro_1cuvkbp1qqs2rw-fill" data-item-order="999969400" data-item-id="ro_1cuvkbp1qqs2rw" data-item-class="Shape Stroke Fill" data-item-index="none" data-renderer-id="0" transform="translate(362, 21)"><g id="ro_1cuvkbp1qqs2rw-fill" stroke="none" fill="#f0f0f0"><g><path d="M 34 10L 190 10C 190 10 214 10 214 34L 214 136C 214 136 214 160 190 160L 34 160C 34 160 10 160 10 136L 10 34C 10 34 10 10 34 10"></path></g></g></g><g id="g-root-ro_m7c2hx1qraadn-fill" data-item-order="999983152" data-item-id="ro_m7c2hx1qraadn" data-item-class="Shape Stroke Fill" data-item-index="none" data-renderer-id="0" transform="translate(614, 3)"><g id="ro_m7c2hx1qraadn-fill" stroke="none" fill="#e9fbf3"><g><path d="M 22 10L 310 10C 310 10 322 10 322 22L 322 52C 322 52 322 64 310 64L 22 64C 22 64 10 64 10 52L 10 22C 10 22 10 10 22 10"></path></g></g></g><g id="g-root-ro_1d3map11qqqm0x-fill" data-item-order="999985744" data-item-id="ro_1d3map11qqqm0x" data-item-class="Shape Stroke Fill" data-item-index="none" data-renderer-id="0" transform="translate(50, 9)"><g id="ro_1d3map11qqqm0x-fill" stroke="none" fill="#e6efff"><g><path d="M 22 10L 262 10C 262 10 274 10 274 22L 274 52C 274 52 274 64 262 64L 22 64C 22 64 10 64 10 52L 10 22C 10 22 10 10 22 10"></path></g></g></g><g id="g-root-http_1hjfsth1qqql8o-fill" data-item-order="1000000000" data-item-id="http_1hjfsth1qqql8o" data-item-class="Icon Stroke" data-item-index="none" data-renderer-id="0" transform="translate(272, 21)"></g><g id="g-root-sync_v2z2qt1qra9ky-fill" data-item-order="1000000000" data-item-id="sync_v2z2qt1qra9ky" data-item-class="Icon Stroke" data-item-index="none" data-renderer-id="0" transform="translate(626, 15)"></g><g id="g-root-tx_communic_18nspet1qr8wld-fill" data-item-order="1000000000" data-item-id="tx_communic_18nspet1qr8wld" data-item-class="Label Stroke" data-item-index="none" data-renderer-id="0" transform="translate(662, 18)"><g id="tx_communic_18nspet1qr8wld-fill" stroke="none" fill="#3bc482"><g><text style="font: 20px Roboto, sans-serif; white-space: pre;" font-weight="20px" font-size="Roboto," font-family="sans-serif"><tspan x="15.85" y="33.75" dominant-baseline="ideographic">Communication temps réel</tspan></text></g></g></g><g id="g-root-cu_147zag51qqqmtm-fill" data-item-order="1000000000" data-item-id="cu_147zag51qqqmtm" data-item-class="Curve Stroke ColorStrokeGray" data-item-index="none" data-renderer-id="0" transform="translate(314, 36)"></g><g id="g-root-cu_zs5sbp1qqqnlx-fill" data-item-order="1000000000" data-item-id="cu_zs5sbp1qqqnlx" data-item-class="Curve Stroke ColorStrokeGray" data-item-index="none" data-renderer-id="0" transform="translate(566, 30)"></g><g id="g-root-1_1cuvkbp1qqs2rv-fill" data-item-order="1000000000" data-item-id="1_1cuvkbp1qqs2rv" data-item-class="Icon Stroke" data-item-index="none" data-renderer-id="0" transform="translate(440, 45)"></g><g id="g-root-tx_clientht_hrikdh1qrab5w-fill" data-item-order="1000000000" data-item-id="tx_clientht_hrikdh1qrab5w" data-item-class="Label Stroke" data-item-index="none" data-renderer-id="0" transform="translate(62, 75)"><g id="tx_clientht_hrikdh1qrab5w-fill" stroke="none" fill="#484848"><g><text style="font: 20px Roboto, sans-serif; white-space: pre;" font-weight="20px" font-size="Roboto," font-family="sans-serif"><tspan x="13.04" y="33.75" dominant-baseline="ideographic">Client HTTP centralisé</tspan></text></g></g></g><g id="g-root-cu_zs5sbp1qqqnm0-fill" data-item-order="1000000000" data-item-id="cu_zs5sbp1qqqnm0" data-item-class="Curve Stroke ColorStrokeGray" data-item-index="none" data-renderer-id="0" transform="translate(272, 63)"></g><g id="g-root-tx_reconnex_v0yt1qraadd-fill" data-item-order="1000000000" data-item-id="tx_reconnex_v0yt1qraadd" data-item-class="Label Stroke" data-item-index="none" data-renderer-id="0" transform="translate(662, 165)"><g id="tx_reconnex_v0yt1qraadd-fill" stroke="none" fill="#484848"><g><text style="font: 20px Roboto, sans-serif; white-space: pre;" font-weight="20px" font-size="Roboto," font-family="sans-serif"><tspan x="13.97" y="33.75" dominant-baseline="ideographic">Reconnexion automatique</tspan></text></g></g></g><g id="g-root-cu_hrinj91qqs1dx-fill" data-item-order="1000000000" data-item-id="cu_hrinj91qqs1dx" data-item-class="Curve Stroke ColorStrokeGray" data-item-index="none" data-renderer-id="0" transform="translate(272, 63)"></g><g id="g-root-cu_hrinj91qqs1dz-fill" data-item-order="1000000000" data-item-id="cu_hrinj91qqs1dz" data-item-class="Curve Stroke ColorStrokeGray" data-item-index="none" data-renderer-id="0" transform="translate(638, 57)"></g><g id="g-root-cu_hrinj91qqs1e2-fill" data-item-order="1000000000" data-item-id="cu_hrinj91qqs1e2" data-item-class="Curve Stroke ColorStrokeGray" data-item-index="none" data-renderer-id="0" transform="translate(638, 57)"></g><g id="g-root-cu_dbp5et1qqs26c-fill" data-item-order="1000000000" data-item-id="cu_dbp5et1qqs26c" data-item-class="Curve Stroke ColorStrokeGray" data-item-index="none" data-renderer-id="0" transform="translate(638, 57)"></g><g id="g-root-tx_clientwe_4goj391qra9l3-fill" data-item-order="1000000000" data-item-id="tx_clientwe_4goj391qra9l3" data-item-class="Label Stroke" data-item-index="none" data-renderer-id="0" transform="translate(662, 69)"><g id="tx_clientwe_4goj391qra9l3-fill" stroke="none" fill="#484848"><g><text style="font: 20px Roboto, sans-serif; white-space: pre;" font-weight="20px" font-size="Roboto," font-family="sans-serif"><tspan x="13.27" y="33.75" dominant-baseline="ideographic">Client WebSocket unifié</tspan></text></g></g></g><g id="g-root-tx_intercep_8vvk4l1qrabyl-fill" data-item-order="1000000000" data-item-id="tx_intercep_8vvk4l1qrabyl" data-item-class="Label Stroke" data-item-index="none" data-renderer-id="0" transform="translate(134, 111)"><g id="tx_intercep_8vvk4l1qrabyl-fill" stroke="none" fill="#484848"><g><text style="font: 20px Roboto, sans-serif; white-space: pre;" font-weight="20px" font-size="Roboto," font-family="sans-serif"><tspan x="17.14" y="33.75" dominant-baseline="ideographic">Intercepteurs</tspan></text></g></g></g><g id="g-root-tx_apietcom_v0yt1qqs0le-fill" data-item-order="1000000000" data-item-id="tx_apietcom_v0yt1qqs0le" data-item-class="Label Stroke" data-item-index="none" data-renderer-id="0" transform="translate(386, 99)"><g id="tx_apietcom_v0yt1qqs0le-fill" stroke="none" fill="#484848"><g><text style="font: 20px Roboto, sans-serif; white-space: pre;" font-weight="20px" font-size="Roboto," font-family="sans-serif"><tspan x="61.41" y="33.75" dominant-baseline="ideographic">API et </tspan><tspan x="17.21" y="57.75" dominant-baseline="ideographic">Communication</tspan></text></g></g></g><g id="g-root-tx_gestiond_4goj391qra9l4-fill" data-item-order="1000000000" data-item-id="tx_gestiond_4goj391qra9l4" data-item-class="Label Stroke" data-item-index="none" data-renderer-id="0" transform="translate(662, 105)"><g id="tx_gestiond_4goj391qra9l4-fill" stroke="none" fill="#484848"><g><text style="font: 20px Roboto, sans-serif; white-space: pre;" font-weight="20px" font-size="Roboto," font-family="sans-serif"><tspan x="12.55" y="33.75" dominant-baseline="ideographic">Gestion des messages en temps </tspan><tspan x="141.2" y="57.75" dominant-baseline="ideographic">réel</tspan></text></g></g></g><g id="g-root-tx_configur_8vvk4l1qrabym-fill" data-item-order="1000000000" data-item-id="tx_configur_8vvk4l1qrabym" data-item-class="Label Stroke" data-item-index="none" data-renderer-id="0" transform="translate(2, 147)"><g id="tx_configur_8vvk4l1qrabym-fill" stroke="none" fill="#484848"><g><text style="font: 20px Roboto, sans-serif; white-space: pre;" font-weight="20px" font-size="Roboto," font-family="sans-serif"><tspan x="16.88" y="33.75" dominant-baseline="ideographic">Configuration des endpoints</tspan></text></g></g></g><g id="g-root-tx_communic_hydvhh1qqqlmv-fill" data-item-order="1000000000" data-item-id="tx_communic_hydvhh1qqqlmv" data-item-class="Label Stroke" data-item-index="none" data-renderer-id="0" transform="translate(62, 24)"><g id="tx_communic_hydvhh1qqqlmv-fill" stroke="none" fill="#4682e3"><g><text style="font: 20px Roboto, sans-serif; white-space: pre;" font-weight="20px" font-size="Roboto," font-family="sans-serif"><tspan x="13.43" y="33.75" dominant-baseline="ideographic">Communication HTTP</tspan></text></g></g></g><g id="g-root-cu_m7c5np1qqs0ln-fill" data-item-order="1000000000" data-item-id="cu_m7c5np1qqs0ln" data-item-class="Curve Stroke ColorStrokeGray" data-item-index="none" data-renderer-id="0" transform="translate(272, 63)"></g><g id="g-root-ro_1cuvkbp1qqs2rw-stroke" data-item-order="999969400" data-item-id="ro_1cuvkbp1qqs2rw" data-item-class="Shape Stroke Fill" data-item-index="none" data-renderer-id="0" transform="translate(362, 21)"><g id="ro_1cuvkbp1qqs2rw-stroke" fill="none" stroke-linecap="round" stroke-linejoin="round" stroke-miterlimit="4" stroke="#484848" stroke-width="2"><g><path d="M 34 10L 190 10C 190 10 214 10 214 34L 214 136C 214 136 214 160 190 160L 34 160C 34 160 10 160 10 136L 10 34C 10 34 10 10 34 10"></path></g></g></g><g id="g-root-ro_m7c2hx1qraadn-stroke" data-item-order="999983152" data-item-id="ro_m7c2hx1qraadn" data-item-class="Shape Stroke Fill" data-item-index="none" data-renderer-id="0" transform="translate(614, 3)"><g id="ro_m7c2hx1qraadn-stroke" fill="none" stroke-linecap="round" stroke-linejoin="round" stroke-miterlimit="4" stroke="#3bc482" stroke-width="2"><g><path d="M 22 10L 310 10C 310 10 322 10 322 22L 322 52C 322 52 322 64 310 64L 22 64C 22 64 10 64 10 52L 10 22C 10 22 10 10 22 10"></path></g></g></g><g id="g-root-ro_1d3map11qqqm0x-stroke" data-item-order="999985744" data-item-id="ro_1d3map11qqqm0x" data-item-class="Shape Stroke Fill" data-item-index="none" data-renderer-id="0" transform="translate(50, 9)"><g id="ro_1d3map11qqqm0x-stroke" fill="none" stroke-linecap="round" stroke-linejoin="round" stroke-miterlimit="4" stroke="#4682e3" stroke-width="2"><g><path d="M 22 10L 262 10C 262 10 274 10 274 22L 274 52C 274 52 274 64 262 64L 22 64C 22 64 10 64 10 52L 10 22C 10 22 10 10 22 10"></path></g></g></g><g id="g-root-http_1hjfsth1qqql8o-stroke" data-item-order="1000000000" data-item-id="http_1hjfsth1qqql8o" data-item-class="Icon Stroke" data-item-index="none" data-renderer-id="0" transform="translate(272, 21)"><g id="http_1hjfsth1qqql8o-stroke" fill="none" stroke-linecap="round" stroke-linejoin="round" stroke-miterlimit="4" stroke="#4682e3" stroke-width="2"><g><path d="M 13.125 13.75L 36.875 13.75C 36.875 13.75 39.375 13.75 39.375 16.25L 39.375 33.75C 39.375 33.75 39.375 36.25 36.875 36.25L 13.125 36.25C 13.125 36.25 10.625 36.25 10.625 33.75L 10.625 16.25C 10.625 16.25 10.625 13.75 13.125 13.75M 10.625 20L 39.375 20M 15 16.5625C 15.172588 16.5625 15.3125 16.702412 15.3125 16.875C 15.3125 17.047588 15.172588 17.1875 15 17.1875C 14.827411 17.1875 14.6875 17.047588 14.6875 16.875C 14.6875 16.702412 14.827411 16.5625 15 16.5625M 18.75 16.5625C 18.922588 16.5625 19.0625 16.702412 19.0625 16.875C 19.0625 17.047588 18.922588 17.1875 18.75 17.1875C 18.577412 17.1875 18.4375 17.047588 18.4375 16.875C 18.4375 16.702412 18.577412 16.5625 18.75 16.5625M 22.5 16.5625C 22.672588 16.5625 22.8125 16.702412 22.8125 16.875C 22.8125 17.047588 22.672588 17.1875 22.5 17.1875C 22.327412 17.1875 22.1875 17.047588 22.1875 16.875C 22.1875 16.702412 22.327412 16.5625 22.5 16.5625M 21.875 31.25L 21.875 25M 20.625 25L 23.125 25M 26.875 31.25L 26.875 25M 25.625 25L 28.125 25M 15.625 31.25L 15.625 25M 18.125 31.25L 18.125 25M 15.625 28.75L 18.125 28.75M 30.625 31.25L 30.625 25M 30.625 25L 31.25 25C 32.285534 25 33.125 25.839466 33.125 26.875C 33.125 27.910534 32.285534 28.75 31.25 28.75L 30.625 28.75"></path></g></g></g><g id="g-root-sync_v2z2qt1qra9ky-stroke" data-item-order="1000000000" data-item-id="sync_v2z2qt1qra9ky" data-item-class="Icon Stroke" data-item-index="none" data-renderer-id="0" transform="translate(626, 15)"><g id="sync_v2z2qt1qra9ky-stroke" fill="none" stroke-linecap="round" stroke-linejoin="round" stroke-miterlimit="4" stroke="#3bc482" stroke-width="2"><g><path d="M 34.375 12.82375L 15.625 12.82375C 12.863576 12.82375 10.625 15.062326 10.625 17.82375L 10.625 27.82375C 10.625 30.585175 12.863576 32.82375 15.625 32.82375L 16.875 32.82375L 16.9725 36.57375C 16.979139 36.819481 17.129206 37.038494 17.355963 37.133404C 17.58272 37.228313 17.844053 37.181488 18.02375 37.013748L 22.5 32.82375L 27.5 32.82375L 32.18 37C 32.365971 37.166195 32.632946 37.20591 32.859241 37.101051C 33.085537 36.996189 33.227825 36.766823 33.221249 36.517502L 33.125 32.82375L 34.375 32.82375C 37.136425 32.82375 39.375 30.585175 39.375 27.82375L 39.375 17.82375C 39.375 15.062326 37.136425 12.82375 34.375 12.82375ZM 22.5 24.07375L 19.375 24.07375L 19.375 27.19875M 28.88875 24.684999C 28.20845 26.673792 26.276802 27.957376 24.179762 27.814137C 22.082722 27.670897 20.343554 26.136574 19.940001 24.073751M 27.5 21.57375L 30.625 21.57375L 30.625 18.44875M 21.11125 20.962502C 21.791552 18.973709 23.7232 17.690125 25.82024 17.833364C 27.91728 17.976604 29.656448 19.510927 30.060001 21.573751"></path></g></g></g><g id="g-root-tx_communic_18nspet1qr8wld-stroke" data-item-order="1000000000" data-item-id="tx_communic_18nspet1qr8wld" data-item-class="Label Stroke" data-item-index="none" data-renderer-id="0" transform="translate(662, 18)"></g><g id="g-root-cu_147zag51qqqmtm-stroke" data-item-order="1000000000" data-item-id="cu_147zag51qqqmtm" data-item-class="Curve Stroke ColorStrokeGray" data-item-index="none" data-renderer-id="0" transform="translate(314, 36)"><g id="cu_147zag51qqqmtm-stroke" fill="none" stroke-linecap="round" stroke-linejoin="round" stroke-miterlimit="4" stroke="#888888" stroke-width="2" stroke-dasharray="5.0, 7.0"><g><path d="M 58 45L 55 45L 54.9 45C 50.422131 44.972593 45.63978 43.214375 41.299999 40C 38.67988 38.118536 36.018569 33.561496 33.999999 27.499999C 31.98143 21.438501 29.320119 16.881461 26.699999 15C 22.360218 11.785625 17.577867 10.027408 13.1 10L 13 10L 10 10"></path></g></g></g><g id="g-root-cu_zs5sbp1qqqnlx-stroke" data-item-order="1000000000" data-item-id="cu_zs5sbp1qqqnlx" data-item-class="Curve Stroke ColorStrokeGray" data-item-index="none" data-renderer-id="0" transform="translate(566, 30)"><g id="cu_zs5sbp1qqqnlx-stroke" fill="none" stroke-linecap="round" stroke-linejoin="round" stroke-miterlimit="4" stroke="#888888" stroke-width="2" stroke-dasharray="5.0, 7.0"><g><path d="M 10 51L 13 51L 13.1 51C 17.997497 50.986259 23.191603 48.851695 27.700003 45C 30.434671 42.702644 32.750804 37.371862 33.999999 30.5C 35.249193 23.628138 37.565326 18.297356 40.299998 16C 44.808402 12.148305 50.002508 10.013741 54.900003 9.999999L 55 10L 58 10"></path></g></g></g><g id="g-root-1_1cuvkbp1qqs2rv-stroke" data-item-order="1000000000" data-item-id="1_1cuvkbp1qqs2rv" data-item-class="Icon Stroke" data-item-index="none" data-renderer-id="0" transform="translate(440, 45)"><g id="1_1cuvkbp1qqs2rv-stroke" fill="none" stroke-linecap="round" stroke-linejoin="round" stroke-miterlimit="4" stroke="#484848" stroke-width="2"><g><path d="M 28 34.998001C 28 38.311707 30.686293 40.998001 34 40.998001C 37.313709 40.998001 40 38.311707 40 34.998001C 40 31.684292 37.313709 28.998001 34 28.998001C 30.686293 28.998001 28 31.684292 28 34.998001ZM 43 57C 42.375999 50.216 38.534 45 34 45C 29.466 45 25.624001 50.216 25 57ZM 44.599998 44.599998C 50.46323 38.744064 50.467171 29.243198 44.608803 23.382401C 38.750435 17.521603 29.249567 17.521603 23.391201 23.382401C 17.532833 29.243198 17.536774 38.744064 23.400002 44.600002M 50.264 50.262001C 59.245617 41.279785 59.245293 26.717268 50.263275 17.735451C 41.281258 8.753635 26.718742 8.753635 17.736725 17.735451C 8.754709 26.717268 8.754384 41.279785 17.736 50.262001"></path></g></g></g><g id="g-root-tx_clientht_hrikdh1qrab5w-stroke" data-item-order="1000000000" data-item-id="tx_clientht_hrikdh1qrab5w" data-item-class="Label Stroke" data-item-index="none" data-renderer-id="0" transform="translate(62, 75)"></g><g id="g-root-cu_zs5sbp1qqqnm0-stroke" data-item-order="1000000000" data-item-id="cu_zs5sbp1qqqnm0" data-item-class="Curve Stroke ColorStrokeGray" data-item-index="none" data-renderer-id="0" transform="translate(272, 63)"><g id="cu_zs5sbp1qqqnm0-stroke" fill="none" stroke-linecap="round" stroke-linejoin="round" stroke-miterlimit="4" stroke="#888888" stroke-width="2" stroke-dasharray="5.0, 7.0"><g><path d="M 28 10L 28 22L 28 34L 19 34L 10 34"></path></g></g></g><g id="g-root-tx_reconnex_v0yt1qraadd-stroke" data-item-order="1000000000" data-item-id="tx_reconnex_v0yt1qraadd" data-item-class="Label Stroke" data-item-index="none" data-renderer-id="0" transform="translate(662, 165)"></g><g id="g-root-cu_hrinj91qqs1dx-stroke" data-item-order="1000000000" data-item-id="cu_hrinj91qqs1dx" data-item-class="Curve Stroke ColorStrokeGray" data-item-index="none" data-renderer-id="0" transform="translate(272, 63)"><g id="cu_hrinj91qqs1dx-stroke" fill="none" stroke-linecap="round" stroke-linejoin="round" stroke-miterlimit="4" stroke="#888888" stroke-width="2" stroke-dasharray="5.0, 7.0"><g><path d="M 28 10L 28 22L 28 94C 28.000002 100.627415 22.627419 105.999998 16.000002 105.999998L 15.9 106L 10 106"></path></g></g></g><g id="g-root-cu_hrinj91qqs1dz-stroke" data-item-order="1000000000" data-item-id="cu_hrinj91qqs1dz" data-item-class="Curve Stroke ColorStrokeGray" data-item-index="none" data-renderer-id="0" transform="translate(638, 57)"><g id="cu_hrinj91qqs1dz-stroke" fill="none" stroke-linecap="round" stroke-linejoin="round" stroke-miterlimit="4" stroke="#888888" stroke-width="2" stroke-dasharray="5.0, 7.0"><g><path d="M 10 10L 10 22L 10 34L 19 34L 28 34"></path></g></g></g><g id="g-root-cu_hrinj91qqs1e2-stroke" data-item-order="1000000000" data-item-id="cu_hrinj91qqs1e2" data-item-class="Curve Stroke ColorStrokeGray" data-item-index="none" data-renderer-id="0" transform="translate(638, 57)"><g id="cu_hrinj91qqs1e2-stroke" fill="none" stroke-linecap="round" stroke-linejoin="round" stroke-miterlimit="4" stroke="#888888" stroke-width="2" stroke-dasharray="5.0, 7.0"><g><path d="M 10 10L 10 46L 10 82L 19 82L 28 82"></path></g></g></g><g id="g-root-cu_dbp5et1qqs26c-stroke" data-item-order="1000000000" data-item-id="cu_dbp5et1qqs26c" data-item-class="Curve Stroke ColorStrokeGray" data-item-index="none" data-renderer-id="0" transform="translate(638, 57)"><g id="cu_dbp5et1qqs26c-stroke" fill="none" stroke-linecap="round" stroke-linejoin="round" stroke-miterlimit="4" stroke="#888888" stroke-width="2" stroke-dasharray="5.0, 7.0"><g><path d="M 10 10L 10 25L 10 118C 10.000002 124.627414 15.372585 129.999997 22.000002 129.999997L 22.1 130L 28 130"></path></g></g></g><g id="g-root-tx_clientwe_4goj391qra9l3-stroke" data-item-order="1000000000" data-item-id="tx_clientwe_4goj391qra9l3" data-item-class="Label Stroke" data-item-index="none" data-renderer-id="0" transform="translate(662, 69)"></g><g id="g-root-tx_intercep_8vvk4l1qrabyl-stroke" data-item-order="1000000000" data-item-id="tx_intercep_8vvk4l1qrabyl" data-item-class="Label Stroke" data-item-index="none" data-renderer-id="0" transform="translate(134, 111)"></g><g id="g-root-tx_apietcom_v0yt1qqs0le-stroke" data-item-order="1000000000" data-item-id="tx_apietcom_v0yt1qqs0le" data-item-class="Label Stroke" data-item-index="none" data-renderer-id="0" transform="translate(386, 99)"></g><g id="g-root-tx_gestiond_4goj391qra9l4-stroke" data-item-order="1000000000" data-item-id="tx_gestiond_4goj391qra9l4" data-item-class="Label Stroke" data-item-index="none" data-renderer-id="0" transform="translate(662, 105)"></g><g id="g-root-tx_configur_8vvk4l1qrabym-stroke" data-item-order="1000000000" data-item-id="tx_configur_8vvk4l1qrabym" data-item-class="Label Stroke" data-item-index="none" data-renderer-id="0" transform="translate(2, 147)"></g><g id="g-root-tx_communic_hydvhh1qqqlmv-stroke" data-item-order="1000000000" data-item-id="tx_communic_hydvhh1qqqlmv" data-item-class="Label Stroke" data-item-index="none" data-renderer-id="0" transform="translate(62, 24)"></g><g id="g-root-cu_m7c5np1qqs0ln-stroke" data-item-order="1000000000" data-item-id="cu_m7c5np1qqs0ln" data-item-class="Curve Stroke ColorStrokeGray" data-item-index="none" data-renderer-id="0" transform="translate(272, 63)"><g id="cu_m7c5np1qqs0ln-stroke" fill="none" stroke-linecap="round" stroke-linejoin="round" stroke-miterlimit="4" stroke="#888888" stroke-width="2" stroke-dasharray="5.0, 7.0"><g><path d="M 28 10L 28 40L 28 70L 19 70L 10 70"></path></g></g></g></g></g></svg>