<?xml version="1.0" encoding="utf-8" standalone="yes"?>
<!DOCTYPE svg PUBLIC "-//W3C//DTD SVG 1.1//EN" "http://www.w3.org/Graphics/SVG/1.1/DTD/svg11.dtd">
<svg width="660" height="481" viewBox="0 0 660 481" style="fill:none;stroke:none;fill-rule:evenodd;clip-rule:evenodd;stroke-linecap:round;stroke-linejoin:round;stroke-miterlimit:1.5;" version="1.1" xmlns="http://www.w3.org/2000/svg" xmlns:xlink="http://www.w3.org/1999/xlink"><style id="fontImports">@import url("https://fonts.googleapis.com/css2?family=Roboto:wght@400;700&amp;display=block");</style><rect id="" x="0" y="0" width="660" height="481" style="fill: #ffffff;"></rect><g id="items" style="isolation: isolate"><g id="blend" style="mix-blend-mode:normal"><g id="g-root--1.cu_sy_1uljjjp1qh7v2g-fill" data-item-order="999852548" data-item-id="-1.cu_sy_1uljjjp1qh7v2g" data-item-class="Part Fill Stroke ColorFillGray ColorStrokeGray" data-item-index="-1" data-renderer-id="0" transform="translate(290, 74)"><g id="-1.cu_sy_1uljjjp1qh7v2g-fill" stroke="none" fill="#f6f6f6"><g><path d="M 65.766602 394C 80.754802 394 106.000002 308.039 106.000002 202C 106.000002 95.9613 80.754802 10 65.766602 10C 80.775202 10.01 92.941702 96.2224 92.941702 202C 92.941702 307.778 80.775202 393.99 65.766602 394ZM 65.765897 394C 80.774597 393.99 92.941097 307.778 92.941097 202C 92.941097 96.2224 80.774597 10.01 65.765897 10L 51.957397 10C 66.060697 16.8878 77.199297 100.4719 77.199297 202C 77.199297 303.528 65.382597 387.112 51.279297 394L 65.765897 394ZM 77.2 202C 77.2 303.528 65.3833 387.112 51.28 394L 50.0615 394C 35.0734 394 10 308.039 10 202C 10 95.9613 35.0734 10 50.0615 10C 50.6991 10 51.9581 10 51.9581 10C 66.0614 16.8878 77.2 100.4719 77.2 202Z"></path></g></g></g><g id="g-root-0.cr-medium_cr_1uljjjp1qh7v2h-fill" data-item-order="999852550" data-item-id="0.cr-medium_cr_1uljjjp1qh7v2h" data-item-class="Shape Stroke Fill Part Indexed_0" data-item-index="0" data-renderer-id="0" transform="translate(458, 230)"><g id="0.cr-medium_cr_1uljjjp1qh7v2h-fill" stroke="none" fill="#f0f0f0"><g><path d="M 10 46C 10 65.882251 26.117749 82 46 82C 65.882251 82 82 65.882251 82 46C 82 26.117749 65.882251 10 46 10C 26.117749 10 10 26.117749 10 46"></path></g></g></g><g id="g-root-4.line_sy_1cu9j1x1qh7xfs-fill" data-item-order="999852553" data-item-id="4.line_sy_1cu9j1x1qh7xfs" data-item-class="Curve Stroke Part Indexed" data-item-index="4" data-renderer-id="0" transform="translate(206, 301)"></g><g id="g-root-4.cr-small_cr_1cu9j1x1qh7xft-fill" data-item-order="999852554" data-item-id="4.cr-small_cr_1cu9j1x1qh7xft" data-item-class="Shape Stroke Fill Part Indexed" data-item-index="4" data-renderer-id="0" transform="translate(146, 363)"><g id="4.cr-small_cr_1cu9j1x1qh7xft-fill" stroke="none" fill="#f7e6fe"><g><path d="M 10 40C 10.000002 56.568544 23.431459 70.000002 40.000002 70.000002C 56.568544 70.000002 70.000002 56.568544 70.000002 40.000002C 70.000002 23.431459 56.568544 10.000002 40.000002 10.000002C 23.431459 10.000002 10.000002 23.431459 10.000002 40.000002"></path></g></g></g><g id="g-root-3.line_sy_1ha316d1qh7wni-fill" data-item-order="999852557" data-item-id="3.line_sy_1ha316d1qh7wni" data-item-class="Curve Stroke Part Indexed" data-item-index="3" data-renderer-id="0" transform="translate(206.10940551757812, 278)"></g><g id="g-root-3.cr-small_cr_1ha316d1qh7wnj-fill" data-item-order="999852558" data-item-id="3.cr-small_cr_1ha316d1qh7wnj" data-item-class="Shape Stroke Fill Part Indexed" data-item-index="3" data-renderer-id="0" transform="translate(146, 279)"><g id="3.cr-small_cr_1ha316d1qh7wnj-fill" stroke="none" fill="#e9fbf3"><g><path d="M 10 40C 10.000002 56.568544 23.431459 70.000002 40.000002 70.000002C 56.568544 70.000002 70.000002 56.568544 70.000002 40.000002C 70.000002 23.431459 56.568544 10.000002 40.000002 10.000002C 23.431459 10.000002 10.000002 23.431459 10.000002 40.000002"></path></g></g></g><g id="g-root-2.line_sy_1q5q1f91qh7vus-fill" data-item-order="999852561" data-item-id="2.line_sy_1q5q1f91qh7vus" data-item-class="Curve Stroke Part Indexed" data-item-index="2" data-renderer-id="0" transform="translate(206, 224)"></g><g id="g-root-2.cr-small_cr_1ha316d1qh7wnh-fill" data-item-order="999852562" data-item-id="2.cr-small_cr_1ha316d1qh7wnh" data-item-class="Shape Stroke Fill Part Indexed" data-item-index="2" data-renderer-id="0" transform="translate(146, 195)"><g id="2.cr-small_cr_1ha316d1qh7wnh-fill" stroke="none" fill="#ffe7e6"><g><path d="M 10 40C 10.000002 56.568544 23.431459 70.000002 40.000002 70.000002C 56.568544 70.000002 70.000002 56.568544 70.000002 40.000002C 70.000002 23.431459 56.568544 10.000002 40.000002 10.000002C 23.431459 10.000002 10.000002 23.431459 10.000002 40.000002"></path></g></g></g><g id="g-root-1.line_sy_1q5q1f91qh7vuq-fill" data-item-order="999852565" data-item-id="1.line_sy_1q5q1f91qh7vuq" data-item-class="Curve Stroke Part Indexed Indexed_1" data-item-index="1" data-renderer-id="0" transform="translate(206, 140)"></g><g id="g-root-1.cr-small_cr_1q5q1f91qh7vur-fill" data-item-order="999852566" data-item-id="1.cr-small_cr_1q5q1f91qh7vur" data-item-class="Shape Stroke Fill Part Indexed Indexed_1" data-item-index="1" data-renderer-id="0" transform="translate(146, 111)"><g id="1.cr-small_cr_1q5q1f91qh7vur-fill" stroke="none" fill="#fffce6"><g><path d="M 10 40C 10.000002 56.568544 23.431459 70.000002 40.000002 70.000002C 56.568544 70.000002 70.000002 56.568544 70.000002 40.000002C 70.000002 23.431459 56.568544 10.000002 40.000002 10.000002C 23.431459 10.000002 10.000002 23.431459 10.000002 40.000002"></path></g></g></g><g id="g-root-tx_construi_9m3zp1qh6j2n-fill" data-item-order="1000000000" data-item-id="tx_construi_9m3zp1qh6j2n" data-item-class="Label Stroke Title" data-item-index="none" data-renderer-id="0" transform="translate(194, 2)"><g id="tx_construi_9m3zp1qh6j2n-fill" stroke="none" fill="#484848"><g><text style="font: 20px Roboto, sans-serif; white-space: pre;" font-weight="20px" font-size="Roboto," font-family="sans-serif"><tspan x="13.05" y="33.75" dominant-baseline="ideographic">Construire un Système Résilient</tspan></text></g></g></g><g id="g-root-tx_configur_95948l1qh6i9y-fill" data-item-order="1000000000" data-item-id="tx_configur_95948l1qh6i9y" data-item-class="Label Stroke Indexed Indexed_1" data-item-index="1" data-renderer-id="0" transform="translate(2, 128)"><g id="tx_configur_95948l1qh6i9y-fill" stroke="none" fill="#484848"><g><text style="font: 20px Roboto, sans-serif; white-space: pre;" font-weight="20px" font-size="Roboto," font-family="sans-serif"><tspan x="20.14" y="33.75" dominant-baseline="ideographic">Configuration</tspan></text></g></g></g><g id="g-root-buil_18eg4391qgr11n-fill" data-item-order="1000000000" data-item-id="buil_18eg4391qgr11n" data-item-class="Icon Stroke Indexed Indexed_1 InsideFill InsideColorFill" data-item-index="1" data-renderer-id="0" transform="translate(158, 122)"></g><g id="g-root-tx_scurit_95948l1qh6i9x-fill" data-item-order="1000000000" data-item-id="tx_scurit_95948l1qh6i9x" data-item-class="Label Stroke Indexed" data-item-index="2" data-renderer-id="0" transform="translate(50, 212)"><g id="tx_scurit_95948l1qh6i9x-fill" stroke="none" fill="#484848"><g><text style="font: 20px Roboto, sans-serif; white-space: pre;" font-weight="20px" font-size="Roboto," font-family="sans-serif"><tspan x="19.29" y="33.75" dominant-baseline="ideographic">Sécurité</tspan></text></g></g></g><g id="g-root-shie_140i1851qgr0uk-fill" data-item-order="1000000000" data-item-id="shie_140i1851qgr0uk" data-item-class="Icon Stroke Indexed InsideFill InsideColorFill" data-item-index="2" data-renderer-id="0" transform="translate(158, 206)"></g><g id="g-root-hurr_qvwnn91qhapkz-fill" data-item-order="1000000000" data-item-id="hurr_qvwnn91qhapkz" data-item-class="Icon Stroke InsideFill" data-item-index="none" data-renderer-id="0" transform="translate(470, 242)"></g><g id="g-root-tx_systmero_qvwnn91qh6j2i-fill" data-item-order="1000000000" data-item-id="tx_systmero_qvwnn91qh6j2i" data-item-class="Label Stroke" data-item-index="none" data-renderer-id="0" transform="translate(542, 242)"><g id="tx_systmero_qvwnn91qh6j2i-fill" stroke="none" fill="#484848"><g><text style="font: 20px Roboto, sans-serif; white-space: pre;" font-weight="20px" font-size="Roboto," font-family="sans-serif"><tspan x="12" y="33.75" dominant-baseline="ideographic">Système </tspan><tspan x="12" y="57.75" dominant-baseline="ideographic">Robuste</tspan></text></g></g></g><g id="g-root-tx_performa_dl2md11qh6hho-fill" data-item-order="1000000000" data-item-id="tx_performa_dl2md11qh6hho" data-item-class="Label Stroke Indexed" data-item-index="3" data-renderer-id="0" transform="translate(14, 296)"><g id="tx_performa_dl2md11qh6hho-fill" stroke="none" fill="#484848"><g><text style="font: 20px Roboto, sans-serif; white-space: pre;" font-weight="20px" font-size="Roboto," font-family="sans-serif"><tspan x="12.38" y="33.75" dominant-baseline="ideographic">Performance</tspan></text></g></g></g><g id="g-root-spee_1lz9qr91qgpo21-fill" data-item-order="1000000000" data-item-id="spee_1lz9qr91qgpo21" data-item-class="Icon Stroke Indexed InsideFill InsideColorFill" data-item-index="3" data-renderer-id="0" transform="translate(158, 290)"></g><g id="g-root-tx_surveill_mgpmlx1qh6goz-fill" data-item-order="1000000000" data-item-id="tx_surveill_mgpmlx1qh6goz" data-item-class="Label Stroke Indexed" data-item-index="4" data-renderer-id="0" transform="translate(14, 380)"><g id="tx_surveill_mgpmlx1qh6goz-fill" stroke="none" fill="#484848"><g><text style="font: 20px Roboto, sans-serif; white-space: pre;" font-weight="20px" font-size="Roboto," font-family="sans-serif"><tspan x="20.46" y="33.75" dominant-baseline="ideographic">Surveillance</tspan></text></g></g></g><g id="g-root-find_1ha34c51qgr08y-fill" data-item-order="1000000000" data-item-id="find_1ha34c51qgr08y" data-item-class="Icon Stroke Indexed InsideFill InsideColorFill" data-item-index="4" data-renderer-id="0" transform="translate(158, 374)"></g><g id="g-root--1.cu_sy_1uljjjp1qh7v2g-stroke" data-item-order="999852548" data-item-id="-1.cu_sy_1uljjjp1qh7v2g" data-item-class="Part Fill Stroke ColorFillGray ColorStrokeGray" data-item-index="-1" data-renderer-id="0" transform="translate(290, 74)"><g id="-1.cu_sy_1uljjjp1qh7v2g-stroke" fill="none" stroke-linecap="round" stroke-linejoin="round" stroke-miterlimit="4" stroke="#888888" stroke-width="2"><g><path d="M 65.766602 394C 80.754802 394 106.000002 308.0387 106.000002 202C 106.000002 95.9613 80.754802 10 65.766602 10C 80.775202 10.01 92.941702 96.2224 92.941702 202C 92.941702 307.7776 80.775202 393.99 65.766602 394ZM 65.765897 394C 80.774597 393.99 92.941097 307.7776 92.941097 202C 92.941097 96.2224 80.774597 10.01 65.765897 10L 51.957397 10C 66.060697 16.8878 77.199297 100.4719 77.199297 202C 77.199297 303.5282 65.382597 387.1122 51.279297 394L 65.765897 394ZM 77.2 202C 77.2 303.5282 65.3833 387.1122 51.28 394L 50.0615 394C 35.0734 394 10 308.0387 10 202C 10 95.9613 35.0734 10 50.0615 10C 50.6991 10 51.9581 10 51.9581 10C 66.0614 16.8878 77.2 100.4719 77.2 202Z"></path></g></g></g><g id="g-root-0.cr-medium_cr_1uljjjp1qh7v2h-stroke" data-item-order="999852550" data-item-id="0.cr-medium_cr_1uljjjp1qh7v2h" data-item-class="Shape Stroke Fill Part Indexed_0" data-item-index="0" data-renderer-id="0" transform="translate(458, 230)"><g id="0.cr-medium_cr_1uljjjp1qh7v2h-stroke" fill="none" stroke-linecap="round" stroke-linejoin="round" stroke-miterlimit="4" stroke="#484848" stroke-width="2"><g><path d="M 10 46C 10 65.882251 26.117749 82 46 82C 65.882251 82 82 65.882251 82 46C 82 26.117749 65.882251 10 46 10C 26.117749 10 10 26.117749 10 46"></path></g></g></g><g id="g-root-4.line_sy_1cu9j1x1qh7xfs-stroke" data-item-order="999852553" data-item-id="4.line_sy_1cu9j1x1qh7xfs" data-item-class="Curve Stroke Part Indexed" data-item-index="4" data-renderer-id="0" transform="translate(206, 301)"><g id="4.line_sy_1cu9j1x1qh7xfs-stroke" fill="none" stroke-linecap="round" stroke-linejoin="round" stroke-miterlimit="4" stroke="#b65edf" stroke-width="2"><g><path d="M 260.35 11.14L 130 101L 10 101"></path><path d="M 259.1 19.9L 260.8 10.9L 251.7 9.2" stroke-dasharray="none"></path></g></g></g><g id="g-root-4.cr-small_cr_1cu9j1x1qh7xft-stroke" data-item-order="999852554" data-item-id="4.cr-small_cr_1cu9j1x1qh7xft" data-item-class="Shape Stroke Fill Part Indexed" data-item-index="4" data-renderer-id="0" transform="translate(146, 363)"><g id="4.cr-small_cr_1cu9j1x1qh7xft-stroke" fill="none" stroke-linecap="round" stroke-linejoin="round" stroke-miterlimit="4" stroke="#b65edf" stroke-width="2"><g><path d="M 10 40C 10.000002 56.568544 23.431459 70.000002 40.000002 70.000002C 56.568544 70.000002 70.000002 56.568544 70.000002 40.000002C 70.000002 23.431459 56.568544 10.000002 40.000002 10.000002C 23.431459 10.000002 10.000002 23.431459 10.000002 40.000002"></path></g></g></g><g id="g-root-3.line_sy_1ha316d1qh7wni-stroke" data-item-order="999852557" data-item-id="3.line_sy_1ha316d1qh7wni" data-item-class="Curve Stroke Part Indexed" data-item-index="3" data-renderer-id="0" transform="translate(206.10940551757812, 278)"><g id="3.line_sy_1ha316d1qh7wni-stroke" fill="none" stroke-linecap="round" stroke-linejoin="round" stroke-miterlimit="4" stroke="#3bc482" stroke-width="2"><g><path d="M 249.950594 10.48L 129.890594 40L 10.000594 40"></path><path d="M 245.690594 18.2L 250.390594 10.4L 242.590594 5.6" stroke-dasharray="none"></path></g></g></g><g id="g-root-3.cr-small_cr_1ha316d1qh7wnj-stroke" data-item-order="999852558" data-item-id="3.cr-small_cr_1ha316d1qh7wnj" data-item-class="Shape Stroke Fill Part Indexed" data-item-index="3" data-renderer-id="0" transform="translate(146, 279)"><g id="3.cr-small_cr_1ha316d1qh7wnj-stroke" fill="none" stroke-linecap="round" stroke-linejoin="round" stroke-miterlimit="4" stroke="#3bc482" stroke-width="2"><g><path d="M 10 40C 10.000002 56.568544 23.431459 70.000002 40.000002 70.000002C 56.568544 70.000002 70.000002 56.568544 70.000002 40.000002C 70.000002 23.431459 56.568544 10.000002 40.000002 10.000002C 23.431459 10.000002 10.000002 23.431459 10.000002 40.000002"></path></g></g></g><g id="g-root-2.line_sy_1q5q1f91qh7vus-stroke" data-item-order="999852561" data-item-id="2.line_sy_1q5q1f91qh7vus" data-item-class="Curve Stroke Part Indexed" data-item-index="2" data-renderer-id="0" transform="translate(206, 224)"><g id="2.line_sy_1q5q1f91qh7vus-stroke" fill="none" stroke-linecap="round" stroke-linejoin="round" stroke-miterlimit="4" stroke="#e15e5a" stroke-width="2"><g><path d="M 250.06 39.52L 130 10L 10 10"></path><path d="M 242.7 44.4L 250.5 39.6L 245.8 31.8" stroke-dasharray="none"></path></g></g></g><g id="g-root-2.cr-small_cr_1ha316d1qh7wnh-stroke" data-item-order="999852562" data-item-id="2.cr-small_cr_1ha316d1qh7wnh" data-item-class="Shape Stroke Fill Part Indexed" data-item-index="2" data-renderer-id="0" transform="translate(146, 195)"><g id="2.cr-small_cr_1ha316d1qh7wnh-stroke" fill="none" stroke-linecap="round" stroke-linejoin="round" stroke-miterlimit="4" stroke="#e15e5a" stroke-width="2"><g><path d="M 10 40C 10.000002 56.568544 23.431459 70.000002 40.000002 70.000002C 56.568544 70.000002 70.000002 56.568544 70.000002 40.000002C 70.000002 23.431459 56.568544 10.000002 40.000002 10.000002C 23.431459 10.000002 10.000002 23.431459 10.000002 40.000002"></path></g></g></g><g id="g-root-1.line_sy_1q5q1f91qh7vuq-stroke" data-item-order="999852565" data-item-id="1.line_sy_1q5q1f91qh7vuq" data-item-class="Curve Stroke Part Indexed Indexed_1" data-item-index="1" data-renderer-id="0" transform="translate(206, 140)"><g id="1.line_sy_1q5q1f91qh7vuq-stroke" fill="none" stroke-linecap="round" stroke-linejoin="round" stroke-miterlimit="4" stroke="#e3cd09" stroke-width="2"><g><path d="M 260.35 99.86L 130 10L 10 10"></path><path d="M 251.7 101.8L 260.8 100.1L 259.1 91.1" stroke-dasharray="none"></path></g></g></g><g id="g-root-1.cr-small_cr_1q5q1f91qh7vur-stroke" data-item-order="999852566" data-item-id="1.cr-small_cr_1q5q1f91qh7vur" data-item-class="Shape Stroke Fill Part Indexed Indexed_1" data-item-index="1" data-renderer-id="0" transform="translate(146, 111)"><g id="1.cr-small_cr_1q5q1f91qh7vur-stroke" fill="none" stroke-linecap="round" stroke-linejoin="round" stroke-miterlimit="4" stroke="#e3cd09" stroke-width="2"><g><path d="M 10 40C 10.000002 56.568544 23.431459 70.000002 40.000002 70.000002C 56.568544 70.000002 70.000002 56.568544 70.000002 40.000002C 70.000002 23.431459 56.568544 10.000002 40.000002 10.000002C 23.431459 10.000002 10.000002 23.431459 10.000002 40.000002"></path></g></g></g><g id="g-root-tx_construi_9m3zp1qh6j2n-stroke" data-item-order="1000000000" data-item-id="tx_construi_9m3zp1qh6j2n" data-item-class="Label Stroke Title" data-item-index="none" data-renderer-id="0" transform="translate(194, 2)"></g><g id="g-root-tx_configur_95948l1qh6i9y-stroke" data-item-order="1000000000" data-item-id="tx_configur_95948l1qh6i9y" data-item-class="Label Stroke Indexed Indexed_1" data-item-index="1" data-renderer-id="0" transform="translate(2, 128)"></g><g id="g-root-buil_18eg4391qgr11n-stroke" data-item-order="1000000000" data-item-id="buil_18eg4391qgr11n" data-item-class="Icon Stroke Indexed Indexed_1 InsideFill InsideColorFill" data-item-index="1" data-renderer-id="0" transform="translate(158, 122)"><g id="buil_18eg4391qgr11n-stroke" fill="none" stroke-linecap="round" stroke-linejoin="round" stroke-miterlimit="4" stroke="#e3cd09" stroke-width="2"><g><path d="M 39.884499 20.818001C 39.542656 21.536531 39.521351 22.366278 39.825867 23.101408C 40.130383 23.836536 40.732189 24.408169 41.481998 24.6745L 43.379501 25.349499C 44.501549 25.747751 45.251251 26.809376 45.251251 28.000002C 45.251251 29.190626 44.501549 30.252251 43.379501 30.650501L 41.482002 31.3255C 40.732189 31.591829 40.130383 32.163464 39.825867 32.89859C 39.521351 33.63372 39.542656 34.463467 39.884499 35.181999L 40.75 37C 41.265686 38.075577 41.046398 39.359505 40.202953 40.202953C 39.359505 41.046398 38.075577 41.265686 36.999996 40.749996L 35.1805 39.886002C 34.461967 39.544155 33.632221 39.52285 32.897091 39.827366C 32.161961 40.131882 31.590328 40.733688 31.323999 41.483498L 30.649 43.381001C 30.250751 44.503048 29.189127 45.252754 27.998501 45.252754C 26.807877 45.252754 25.74625 44.503048 25.348 43.381004L 24.673 41.483501C 24.406668 40.733688 23.835035 40.131882 23.099907 39.827366C 22.364779 39.52285 21.535032 39.544155 20.8165 39.886002L 19 40.75C 17.924419 41.265686 16.640493 41.046398 15.797047 40.202953C 14.953599 39.359505 14.734312 38.075577 15.25 36.999996L 16.114 35.1805C 16.455843 34.461967 16.477148 33.632221 16.172632 32.897091C 15.868115 32.161961 15.266308 31.590328 14.5165 31.323999L 12.619 30.649C 11.496955 30.250751 10.747248 29.189127 10.747248 27.998501C 10.747248 26.807877 11.496955 25.74625 12.619 25.348L 14.5165 24.673C 15.266177 24.406929 15.868019 23.83568 16.1728 23.100887C 16.477581 22.366096 16.45676 21.536575 16.115499 20.817999L 15.25 19C 14.734312 17.924419 14.953599 16.640493 15.797047 15.797047C 16.640493 14.953599 17.924419 14.734312 19 15.25L 20.8195 16.114C 21.537682 16.455389 22.366858 16.476627 23.101576 16.172447C 23.836292 15.868269 24.407803 15.267138 24.6745 14.518L 25.349499 12.6205C 25.747751 11.498455 26.809376 10.748747 28.000002 10.748747C 29.190626 10.748747 30.252251 11.498455 30.650501 12.620501L 31.3255 14.518C 31.591829 15.267808 32.163464 15.869616 32.89859 16.174131C 33.63372 16.478649 34.463467 16.457342 35.181999 16.115499L 37 15.25C 38.075577 14.734312 39.359505 14.953599 40.202953 15.797047C 41.046398 16.640493 41.265686 17.924419 40.749996 19ZM 28.75 34.75L 22 34.75C 21.585787 34.75 21.25 34.414215 21.25 34L 21.25 21.713501C 21.250008 21.453453 21.384722 21.211971 21.605993 21.075357C 21.827263 20.938744 22.10351 20.926498 22.336 21.042999L 28.75 24.25ZM 28.75 25.75L 35.5 25.75C 35.914215 25.75 36.25 26.085787 36.25 26.5L 36.25 34C 36.25 34.414215 35.914215 34.75 35.5 34.75L 28.75 34.75M 21.25 25.75L 25 25.75M 21.25 28.75L 25 28.75M 28.75 24.25L 28.75 20.5M 34.75 25.75L 34.75 22M 28.75 28.75L 32.5 28.75M 28.75 31.75L 32.5 31.75"></path></g></g></g><g id="g-root-tx_scurit_95948l1qh6i9x-stroke" data-item-order="1000000000" data-item-id="tx_scurit_95948l1qh6i9x" data-item-class="Label Stroke Indexed" data-item-index="2" data-renderer-id="0" transform="translate(50, 212)"></g><g id="g-root-shie_140i1851qgr0uk-stroke" data-item-order="1000000000" data-item-id="shie_140i1851qgr0uk" data-item-class="Icon Stroke Indexed InsideFill InsideColorFill" data-item-index="2" data-renderer-id="0" transform="translate(158, 206)"><g id="shie_140i1851qgr0uk-stroke" fill="none" stroke-linecap="round" stroke-linejoin="round" stroke-miterlimit="4" stroke="#e15e5a" stroke-width="2"><g><path d="M 43.75 10.795C 44.578426 10.795 45.25 11.466573 45.25 12.295L 45.237999 23.650002C 45.306343 33.995483 38.172844 42.997353 28.085501 45.295002C 17.979446 43.08902 10.765322 34.15448 10.738 23.810499L 10.7575 12.3025C 10.7575 11.474072 11.429073 10.8025 12.2575 10.8025ZM 34.774002 31.764999C 34.775993 32.164124 34.618843 32.547585 34.337318 32.830513C 34.055798 33.113441 33.673126 33.272507 33.273998 33.272499L 22.774 33.319C 21.948494 33.319012 21.278128 32.651997 21.274 31.8265L 21.2335 23.015499C 21.2335 22.187073 21.905073 21.515499 22.733501 21.515499L 33.233501 21.469C 34.059006 21.46899 34.72937 22.136003 34.733501 22.9615ZM 27.948999 15.295L 27.948999 15.295C 25.463707 15.306571 23.458374 17.330708 23.470001 19.816L 23.469999 21.505001L 32.470001 21.4645L 32.470001 19.775501C 32.459255 17.289619 30.434875 15.283376 27.949001 15.295ZM 26.129501 27.3895C 26.129501 28.425034 26.968966 29.2645 28.004501 29.2645C 29.040035 29.2645 29.879501 28.425034 29.879501 27.3895C 29.879501 26.353966 29.040035 25.5145 28.004501 25.5145C 26.968966 25.5145 26.129501 26.353966 26.129501 27.3895Z"></path></g></g></g><g id="g-root-hurr_qvwnn91qhapkz-stroke" data-item-order="1000000000" data-item-id="hurr_qvwnn91qhapkz" data-item-class="Icon Stroke InsideFill" data-item-index="none" data-renderer-id="0" transform="translate(470, 242)"><g id="hurr_qvwnn91qhapkz-stroke" fill="none" stroke-linecap="round" stroke-linejoin="round" stroke-miterlimit="4" stroke="#484848" stroke-width="2"><g><path d="M 17 47L 17 56C 17 56.552284 17.447716 57 18 57L 38 57C 38.552284 57 39 56.552284 39 56L 39 47M 11 46L 28 27L 45 46M 26 37L 30 37C 30 37 31 37 31 38L 31 42C 31 42 31 43 30 43L 26 43C 26 43 25 43 25 42L 25 38C 25 38 25 37 26 37M 31 11L 53 11M 35 15L 55 15M 39 19L 57 19M 33 23L 53 23M 35 27L 49 27M 41 31L 53 31M 45 35L 55 35M 49 39L 53 39M 50 43L 52 43"></path></g></g></g><g id="g-root-tx_systmero_qvwnn91qh6j2i-stroke" data-item-order="1000000000" data-item-id="tx_systmero_qvwnn91qh6j2i" data-item-class="Label Stroke" data-item-index="none" data-renderer-id="0" transform="translate(542, 242)"></g><g id="g-root-tx_performa_dl2md11qh6hho-stroke" data-item-order="1000000000" data-item-id="tx_performa_dl2md11qh6hho" data-item-class="Label Stroke Indexed" data-item-index="3" data-renderer-id="0" transform="translate(14, 296)"></g><g id="g-root-spee_1lz9qr91qgpo21-stroke" data-item-order="1000000000" data-item-id="spee_1lz9qr91qgpo21" data-item-class="Icon Stroke Indexed InsideFill InsideColorFill" data-item-index="3" data-renderer-id="0" transform="translate(158, 290)"><g id="spee_1lz9qr91qgpo21-stroke" fill="none" stroke-linecap="round" stroke-linejoin="round" stroke-miterlimit="4" stroke="#3bc482" stroke-width="2"><g><path d="M 10.75 28C 10.75 37.526913 18.473087 45.25 28 45.25C 37.526913 45.25 45.25 37.526913 45.25 28C 45.25 18.473087 37.526913 10.75 28 10.75C 18.473087 10.75 10.75 18.473087 10.75 28M 25.75 28C 25.75 29.242641 26.75736 30.25 28 30.25C 29.242641 30.25 30.25 29.242641 30.25 28C 30.25 26.75736 29.242641 25.75 28 25.75C 26.75736 25.75 25.75 26.75736 25.75 28M 29.591499 26.41L 37.014999 18.985001M 13.666 27.25L 16.666 27.25M 14.833 33.452499L 17.606501 32.305M 41.163998 33.453999L 38.393501 32.305M 42.248501 27.25L 39.25 27.248499M 41.163998 22.547501L 38.393501 23.695M 34.399002 14.836L 33.25 17.605M 28.75 14.0275L 28.75 17.0275M 22.547501 14.8345L 23.695 17.605M 17.9245 17.923L 20.044001 20.044001M 14.836 22.546001L 17.606501 23.695M 22 34.75L 34 34.75C 34 34.75 34.75 34.75 34.75 35.5L 34.75 38.5C 34.75 38.5 34.75 39.25 34 39.25L 22 39.25C 22 39.25 21.25 39.25 21.25 38.5L 21.25 35.5C 21.25 35.5 21.25 34.75 22 34.75"></path></g></g></g><g id="g-root-tx_surveill_mgpmlx1qh6goz-stroke" data-item-order="1000000000" data-item-id="tx_surveill_mgpmlx1qh6goz" data-item-class="Label Stroke Indexed" data-item-index="4" data-renderer-id="0" transform="translate(14, 380)"></g><g id="g-root-find_1ha34c51qgr08y-stroke" data-item-order="1000000000" data-item-id="find_1ha34c51qgr08y" data-item-class="Icon Stroke Indexed InsideFill InsideColorFill" data-item-index="4" data-renderer-id="0" transform="translate(158, 374)"><g id="find_1ha34c51qgr08y-stroke" fill="none" stroke-linecap="round" stroke-linejoin="round" stroke-miterlimit="4" stroke="#b65edf" stroke-width="2"><g><path d="M 18.25 36.25L 25.75 36.25M 10.75 27.25L 28.75 27.25M 22.75 31.75L 22.75 34C 22.75 35.242641 21.742641 36.25 20.5 36.25M 40.75 27.25L 40.75 12.25C 40.75 11.421573 40.078426 10.75 39.25 10.75L 12.25 10.75C 11.421573 10.75 10.75 11.421573 10.75 12.25L 10.75 30.25C 10.75 31.078428 11.421573 31.75 12.25 31.75L 25.75 31.75M 28.75 35.543499C 28.75 39.295444 31.791553 42.336998 35.543499 42.336998C 39.295444 42.336998 42.336998 39.295444 42.336998 35.543499C 42.336998 31.791553 39.295444 28.75 35.543499 28.75C 31.791553 28.75 28.75 31.791553 28.75 35.543499ZM 45.25 45.25L 40.348 40.348"></path></g></g></g></g></g></svg>