<?xml version="1.0" encoding="utf-8" standalone="yes"?>
<!DOCTYPE svg PUBLIC "-//W3C//DTD SVG 1.1//EN" "http://www.w3.org/Graphics/SVG/1.1/DTD/svg11.dtd">
<svg width="828" height="301" viewBox="0 0 828 301" style="fill:none;stroke:none;fill-rule:evenodd;clip-rule:evenodd;stroke-linecap:round;stroke-linejoin:round;stroke-miterlimit:1.5;" version="1.1" xmlns="http://www.w3.org/2000/svg" xmlns:xlink="http://www.w3.org/1999/xlink"><style id="fontImports">@import url("https://fonts.googleapis.com/css2?family=Roboto:wght@400;700&amp;display=block");</style><rect id="" x="0" y="0" width="828" height="301" style="fill: #ffffff;"></rect><g id="items" style="isolation: isolate"><g id="blend" style="mix-blend-mode:normal"><g id="g-root-ro_1ha3ap11sz730n-fill" data-item-order="999970768" data-item-id="ro_1ha3ap11sz730n" data-item-class="Shape Stroke Fill" data-item-index="none" data-renderer-id="0" transform="translate(314, 54)"><g id="ro_1ha3ap11sz730n-fill" stroke="none" fill="#f0f0f0"><g><path d="M 34 10L 154 10C 154 10 178 10 178 34L 178 160C 178 160 178 184 154 184L 34 184C 34 184 10 184 10 160L 10 34C 10 34 10 10 34 10"></path></g></g></g><g id="g-root-ro_mg3i791syrklr-fill" data-item-order="999986392" data-item-id="ro_mg3i791syrklr" data-item-class="Shape Stroke Fill" data-item-index="none" data-renderer-id="0" transform="translate(530, 3)"><g id="ro_mg3i791syrklr-fill" stroke="none" fill="#e9fbf3"><g><path d="M 22 10L 250 10C 250 10 262 10 262 22L 262 52C 262 52 262 64 250 64L 22 64C 22 64 10 64 10 52L 10 22C 10 22 10 10 22 10"></path></g></g></g><g id="g-root-ro_1qd83511sz49ok-fill" data-item-order="999987040" data-item-id="ro_1qd83511sz49ok" data-item-class="Shape Stroke Fill" data-item-index="none" data-renderer-id="0" transform="translate(26, 3)"><g id="ro_1qd83511sz49ok-fill" stroke="none" fill="#e6efff"><g><path d="M 22 10L 238 10C 238 10 250 10 250 22L 250 52C 250 52 250 64 238 64L 22 64C 22 64 10 64 10 52L 10 22C 10 22 10 10 22 10"></path></g></g></g><g id="g-root-ro_406w51syvtag-fill" data-item-order="999989632" data-item-id="ro_406w51syvtag" data-item-class="Shape Stroke Fill" data-item-index="none" data-renderer-id="0" transform="translate(530, 153)"><g id="ro_406w51syvtag-fill" stroke="none" fill="#fef2e6"><g><path d="M 22 10L 190 10C 190 10 202 10 202 22L 202 52C 202 52 202 64 190 64L 22 64C 22 64 10 64 10 52L 10 22C 10 22 10 10 22 10"></path></g></g></g><g id="g-root-ro_1hegsmd1sym0b0-fill" data-item-order="999990280" data-item-id="ro_1hegsmd1sym0b0" data-item-class="Shape Stroke Fill ColorFillGray ColorStrokeGray" data-item-index="none" data-renderer-id="0" transform="translate(86, 153)"><g id="ro_1hegsmd1sym0b0-fill" stroke="none" fill="#f6f6f6"><g><path d="M 22 10L 178 10C 178 10 190 10 190 22L 190 52C 190 52 190 64 178 64L 22 64C 22 64 10 64 10 52L 10 22C 10 22 10 10 22 10"></path></g></g></g><g id="g-root-cu_1cz9rl11sylxxk-fill" data-item-order="1000000000" data-item-id="cu_1cz9rl11sylxxk" data-item-class="Curve Stroke ColorStrokeGray" data-item-index="none" data-renderer-id="0" transform="translate(482, 30)"></g><g id="g-root-tx_responsi_18mkjqd1syrldx-fill" data-item-order="1000000000" data-item-id="tx_responsi_18mkjqd1syrldx" data-item-class="Label Stroke" data-item-index="none" data-renderer-id="0" transform="translate(578, 18)"><g id="tx_responsi_18mkjqd1syrldx-fill" stroke="none" fill="#3bc482"><g><text style="font: 20px Roboto, sans-serif; white-space: pre;" font-weight="20px" font-size="Roboto," font-family="sans-serif"><tspan x="13.63" y="33.75" dominant-baseline="ideographic">Responsive Versions</tspan></text></g></g></g><g id="g-root-cu_1hegsmd1sym0b1-fill" data-item-order="1000000000" data-item-id="cu_1hegsmd1sym0b1" data-item-class="Curve Stroke ColorStrokeGray" data-item-index="none" data-renderer-id="0" transform="translate(266, 30)"></g><g id="g-root-tx_webpform_hznizp1syymmj-fill" data-item-order="1000000000" data-item-id="tx_webpform_hznizp1syymmj" data-item-class="Label Stroke" data-item-index="none" data-renderer-id="0" transform="translate(86, 69)"><g id="tx_webpform_hznizp1syymmj-fill" stroke="none" fill="#484848"><g><text style="font: 20px Roboto, sans-serif; white-space: pre;" font-weight="20px" font-size="Roboto," font-family="sans-serif"><tspan x="15.6" y="33.75" dominant-baseline="ideographic">WebP Format</tspan></text></g></g></g><g id="g-root-tx_enhanced_8zzl11syylu0-fill" data-item-order="1000000000" data-item-id="tx_enhanced_8zzl11syylu0" data-item-class="Label Stroke" data-item-index="none" data-renderer-id="0" transform="translate(578, 255)"><g id="tx_enhanced_8zzl11syylu0-fill" stroke="none" fill="#484848"><g><text style="font: 20px Roboto, sans-serif; white-space: pre;" font-weight="20px" font-size="Roboto," font-family="sans-serif"><tspan x="13.87" y="33.75" dominant-baseline="ideographic">Enhanced Performance</tspan></text></g></g></g><g id="g-root-cu_143mrc51sylzic-fill" data-item-order="1000000000" data-item-id="cu_143mrc51sylzic" data-item-class="Curve Stroke ColorStrokeGray" data-item-index="none" data-renderer-id="0" transform="translate(224, 57)"></g><g id="g-root-cu_143mrc51sylzie-fill" data-item-order="1000000000" data-item-id="cu_143mrc51sylzie" data-item-class="Curve Stroke ColorStrokeGray" data-item-index="none" data-renderer-id="0" transform="translate(554, 57)"></g><g id="g-root-cu_znt97p1sym0ap-fill" data-item-order="1000000000" data-item-id="cu_znt97p1sym0ap" data-item-class="Curve Stroke ColorStrokeGray" data-item-index="none" data-renderer-id="0" transform="translate(554, 57)"></g><g id="g-root-uplo_1lpwsth1sz728e-fill" data-item-order="1000000000" data-item-id="uplo_1lpwsth1sz728e" data-item-class="Icon Stroke" data-item-index="none" data-renderer-id="0" transform="translate(374, 78)"></g><g id="g-root-tx_differen_dju0v91syynet-fill" data-item-order="1000000000" data-item-id="tx_differen_dju0v91syynet" data-item-class="Label Stroke" data-item-index="none" data-renderer-id="0" transform="translate(578, 69)"><g id="tx_differen_dju0v91syynet-fill" stroke="none" fill="#484848"><g><text style="font: 20px Roboto, sans-serif; white-space: pre;" font-weight="20px" font-size="Roboto," font-family="sans-serif"><tspan x="12.72" y="33.75" dominant-baseline="ideographic">Different Resolutions</tspan></text></g></g></g><g id="g-root-tx_reducedf_dju0v91syynes-fill" data-item-order="1000000000" data-item-id="tx_reducedf_dju0v91syynes" data-item-class="Label Stroke" data-item-index="none" data-renderer-id="0" transform="translate(50, 105)"><g id="tx_reducedf_dju0v91syynes-fill" stroke="none" fill="#484848"><g><text style="font: 20px Roboto, sans-serif; white-space: pre;" font-weight="20px" font-size="Roboto," font-family="sans-serif"><tspan x="16.05" y="33.75" dominant-baseline="ideographic">Reduced File Size</tspan></text></g></g></g><g id="g-root-tx_devicead_4othph1syyl1q-fill" data-item-order="1000000000" data-item-id="tx_devicead_4othph1syyl1q" data-item-class="Label Stroke" data-item-index="none" data-renderer-id="0" transform="translate(578, 105)"><g id="tx_devicead_4othph1syyl1q-fill" stroke="none" fill="#484848"><g><text style="font: 20px Roboto, sans-serif; white-space: pre;" font-weight="20px" font-size="Roboto," font-family="sans-serif"><tspan x="13.09" y="33.75" dominant-baseline="ideographic">Device Adaptation</tspan></text></g></g></g><g id="g-root-tx_imageopt_1uljt2d1sz71fp-fill" data-item-order="1000000000" data-item-id="tx_imageopt_1uljt2d1sz71fp" data-item-class="Label Stroke" data-item-index="none" data-renderer-id="0" transform="translate(338, 132)"><g id="tx_imageopt_1uljt2d1sz71fp-fill" stroke="none" fill="#484848"><g><text style="font: 20px Roboto, sans-serif; white-space: pre;" font-weight="20px" font-size="Roboto," font-family="sans-serif"><tspan x="40.76" y="33.75" dominant-baseline="ideographic">Image </tspan><tspan x="11.91" y="57.75" dominant-baseline="ideographic">Optimization </tspan><tspan x="23.71" y="81.75" dominant-baseline="ideographic">Strategies</tspan></text></g></g></g><g id="g-root-1_vb41d11syrmyu-fill" data-item-order="1000000000" data-item-id="1_vb41d11syrmyu" data-item-class="Icon Stroke" data-item-index="none" data-renderer-id="0" transform="translate(542, 15)"></g><g id="g-root-2_1qa3sv91sylzib-fill" data-item-order="1000000000" data-item-id="2_1qa3sv91sylzib" data-item-class="Icon Stroke ColorFillGray ColorStrokeGray" data-item-index="none" data-renderer-id="0" transform="translate(224, 165)"></g><g id="g-root-1_1qd83511sz49oj-fill" data-item-order="1000000000" data-item-id="1_1qd83511sz49oj" data-item-class="Icon Stroke" data-item-index="none" data-renderer-id="0" transform="translate(224, 15)"></g><g id="g-root-tx_placehol_4kg99h1syly4i-fill" data-item-order="1000000000" data-item-id="tx_placehol_4kg99h1syly4i" data-item-class="Label Stroke ColorFillGray ColorStrokeGray" data-item-index="none" data-renderer-id="0" transform="translate(98, 168)"><g id="tx_placehol_4kg99h1syly4i-fill" stroke="none" fill="#888888"><g><text style="font: 20px Roboto, sans-serif; white-space: pre;" font-weight="20px" font-size="Roboto," font-family="sans-serif"><tspan x="12.18" y="33.75" dominant-baseline="ideographic">Placeholders</tspan></text></g></g></g><g id="g-root-cu_18jg9gl1sylypy-fill" data-item-order="1000000000" data-item-id="cu_18jg9gl1sylypy" data-item-class="Curve Stroke ColorStrokeGray" data-item-index="none" data-renderer-id="0" transform="translate(266, 170)"></g><g id="g-root-cu_1cz9rl11sylxxn-fill" data-item-order="1000000000" data-item-id="cu_1cz9rl11sylxxn" data-item-class="Curve Stroke ColorStrokeGray" data-item-index="none" data-renderer-id="0" transform="translate(482, 170)"></g><g id="g-root-midn_4jtp0l1syvsi7-fill" data-item-order="1000000000" data-item-id="midn_4jtp0l1syvsi7" data-item-class="Icon Stroke" data-item-index="none" data-renderer-id="0" transform="translate(542, 165)"></g><g id="g-root-tx_lazyload_dfgp9h1syvrpi-fill" data-item-order="1000000000" data-item-id="tx_lazyload_dfgp9h1syvrpi" data-item-class="Label Stroke" data-item-index="none" data-renderer-id="0" transform="translate(578, 168)"><g id="tx_lazyload_dfgp9h1syvrpi-fill" stroke="none" fill="#dd8433"><g><text style="font: 20px Roboto, sans-serif; white-space: pre;" font-weight="20px" font-size="Roboto," font-family="sans-serif"><tspan x="17.3" y="33.75" dominant-baseline="ideographic">Lazy Loading</tspan></text></g></g></g><g id="g-root-tx_betterus_8zzl11syylu1-fill" data-item-order="1000000000" data-item-id="tx_betterus_8zzl11syylu1" data-item-class="Label Stroke" data-item-index="none" data-renderer-id="0" transform="translate(2, 219)"><g id="tx_betterus_8zzl11syylu1-fill" stroke="none" fill="#484848"><g><text style="font: 20px Roboto, sans-serif; white-space: pre;" font-weight="20px" font-size="Roboto," font-family="sans-serif"><tspan x="17.28" y="33.75" dominant-baseline="ideographic">Better User Experience</tspan></text></g></g></g><g id="g-root-cu_v8m86d1sylxxc-fill" data-item-order="1000000000" data-item-id="cu_v8m86d1sylxxc" data-item-class="Curve Stroke ColorStrokeGray" data-item-index="none" data-renderer-id="0" transform="translate(224, 207)"></g><g id="g-root-cu_v8m86d1sylxxf-fill" data-item-order="1000000000" data-item-id="cu_v8m86d1sylxxf" data-item-class="Curve Stroke ColorStrokeGray" data-item-index="none" data-renderer-id="0" transform="translate(224, 207)"></g><g id="g-root-cu_znt97p1sym0ar-fill" data-item-order="1000000000" data-item-id="cu_znt97p1sym0ar" data-item-class="Curve Stroke ColorStrokeGray" data-item-index="none" data-renderer-id="0" transform="translate(554, 207)"></g><g id="g-root-cu_znt97p1sym0au-fill" data-item-order="1000000000" data-item-id="cu_znt97p1sym0au" data-item-class="Curve Stroke ColorStrokeGray" data-item-index="none" data-renderer-id="0" transform="translate(554, 207)"></g><g id="g-root-tx_improved_4othph1syyl1r-fill" data-item-order="1000000000" data-item-id="tx_improved_4othph1syyl1r" data-item-class="Label Stroke" data-item-index="none" data-renderer-id="0" transform="translate(578, 219)"><g id="tx_improved_4othph1syyl1r-fill" stroke="none" fill="#484848"><g><text style="font: 20px Roboto, sans-serif; white-space: pre;" font-weight="20px" font-size="Roboto," font-family="sans-serif"><tspan x="14.19" y="33.75" dominant-baseline="ideographic">Improved Loading Times</tspan></text></g></g></g><g id="g-root-tx_visualst_1uuajfp1syymf6-fill" data-item-order="1000000000" data-item-id="tx_visualst_1uuajfp1syymf6" data-item-class="Label Stroke" data-item-index="none" data-renderer-id="0" transform="translate(74, 255)"><g id="tx_visualst_1uuajfp1syymf6-fill" stroke="none" fill="#484848"><g><text style="font: 20px Roboto, sans-serif; white-space: pre;" font-weight="20px" font-size="Roboto," font-family="sans-serif"><tspan x="16.67" y="33.75" dominant-baseline="ideographic">Visual Stability</tspan></text></g></g></g><g id="g-root-tx_optimize_1ut1l9h1sz48wa-fill" data-item-order="1000000000" data-item-id="tx_optimize_1ut1l9h1sz48wa" data-item-class="Label Stroke" data-item-index="none" data-renderer-id="0" transform="translate(38, 18)"><g id="tx_optimize_1ut1l9h1sz48wa-fill" stroke="none" fill="#4682e3"><g><text style="font: 20px Roboto, sans-serif; white-space: pre;" font-weight="20px" font-size="Roboto," font-family="sans-serif"><tspan x="15.2" y="33.75" dominant-baseline="ideographic">Optimized Formats</tspan></text></g></g></g><g id="g-root-cu_18jg9gl1sylyq1-fill" data-item-order="1000000000" data-item-id="cu_18jg9gl1sylyq1" data-item-class="Curve Stroke ColorStrokeGray" data-item-index="none" data-renderer-id="0" transform="translate(224, 57)"></g><g id="g-root-ro_1ha3ap11sz730n-stroke" data-item-order="999970768" data-item-id="ro_1ha3ap11sz730n" data-item-class="Shape Stroke Fill" data-item-index="none" data-renderer-id="0" transform="translate(314, 54)"><g id="ro_1ha3ap11sz730n-stroke" fill="none" stroke-linecap="round" stroke-linejoin="round" stroke-miterlimit="4" stroke="#484848" stroke-width="2"><g><path d="M 34 10L 154 10C 154 10 178 10 178 34L 178 160C 178 160 178 184 154 184L 34 184C 34 184 10 184 10 160L 10 34C 10 34 10 10 34 10"></path></g></g></g><g id="g-root-ro_mg3i791syrklr-stroke" data-item-order="999986392" data-item-id="ro_mg3i791syrklr" data-item-class="Shape Stroke Fill" data-item-index="none" data-renderer-id="0" transform="translate(530, 3)"><g id="ro_mg3i791syrklr-stroke" fill="none" stroke-linecap="round" stroke-linejoin="round" stroke-miterlimit="4" stroke="#3bc482" stroke-width="2"><g><path d="M 22 10L 250 10C 250 10 262 10 262 22L 262 52C 262 52 262 64 250 64L 22 64C 22 64 10 64 10 52L 10 22C 10 22 10 10 22 10"></path></g></g></g><g id="g-root-ro_1qd83511sz49ok-stroke" data-item-order="999987040" data-item-id="ro_1qd83511sz49ok" data-item-class="Shape Stroke Fill" data-item-index="none" data-renderer-id="0" transform="translate(26, 3)"><g id="ro_1qd83511sz49ok-stroke" fill="none" stroke-linecap="round" stroke-linejoin="round" stroke-miterlimit="4" stroke="#4682e3" stroke-width="2"><g><path d="M 22 10L 238 10C 238 10 250 10 250 22L 250 52C 250 52 250 64 238 64L 22 64C 22 64 10 64 10 52L 10 22C 10 22 10 10 22 10"></path></g></g></g><g id="g-root-ro_406w51syvtag-stroke" data-item-order="999989632" data-item-id="ro_406w51syvtag" data-item-class="Shape Stroke Fill" data-item-index="none" data-renderer-id="0" transform="translate(530, 153)"><g id="ro_406w51syvtag-stroke" fill="none" stroke-linecap="round" stroke-linejoin="round" stroke-miterlimit="4" stroke="#dd8433" stroke-width="2"><g><path d="M 22 10L 190 10C 190 10 202 10 202 22L 202 52C 202 52 202 64 190 64L 22 64C 22 64 10 64 10 52L 10 22C 10 22 10 10 22 10"></path></g></g></g><g id="g-root-ro_1hegsmd1sym0b0-stroke" data-item-order="999990280" data-item-id="ro_1hegsmd1sym0b0" data-item-class="Shape Stroke Fill ColorFillGray ColorStrokeGray" data-item-index="none" data-renderer-id="0" transform="translate(86, 153)"><g id="ro_1hegsmd1sym0b0-stroke" fill="none" stroke-linecap="round" stroke-linejoin="round" stroke-miterlimit="4" stroke="#888888" stroke-width="2"><g><path d="M 22 10L 178 10C 178 10 190 10 190 22L 190 52C 190 52 190 64 178 64L 22 64C 22 64 10 64 10 52L 10 22C 10 22 10 10 22 10"></path></g></g></g><g id="g-root-cu_1cz9rl11sylxxk-stroke" data-item-order="1000000000" data-item-id="cu_1cz9rl11sylxxk" data-item-class="Curve Stroke ColorStrokeGray" data-item-index="none" data-renderer-id="0" transform="translate(482, 30)"><g id="cu_1cz9rl11sylxxk-stroke" fill="none" stroke-linecap="round" stroke-linejoin="round" stroke-miterlimit="4" stroke="#888888" stroke-width="2" stroke-dasharray="5.0, 7.0"><g><path d="M 10 92L 13 92L 13.1 92C 24.642748 92.000003 33.999998 82.642755 33.999998 71.100003L 34 71L 34 30.9C 33.999999 19.357249 43.357248 10.000001 54.899999 10.000002L 55 10L 58 10"></path></g></g></g><g id="g-root-tx_responsi_18mkjqd1syrldx-stroke" data-item-order="1000000000" data-item-id="tx_responsi_18mkjqd1syrldx" data-item-class="Label Stroke" data-item-index="none" data-renderer-id="0" transform="translate(578, 18)"></g><g id="g-root-cu_1hegsmd1sym0b1-stroke" data-item-order="1000000000" data-item-id="cu_1hegsmd1sym0b1" data-item-class="Curve Stroke ColorStrokeGray" data-item-index="none" data-renderer-id="0" transform="translate(266, 30)"><g id="cu_1hegsmd1sym0b1-stroke" fill="none" stroke-linecap="round" stroke-linejoin="round" stroke-miterlimit="4" stroke="#888888" stroke-width="2" stroke-dasharray="5.0, 7.0"><g><path d="M 58 92L 55 92L 54.9 92C 43.357247 92 33.999998 82.642751 33.999998 71.1L 34 71L 34 30.9C 33.999998 19.357248 24.64275 10 13.1 10L 13 10L 10 10"></path></g></g></g><g id="g-root-tx_webpform_hznizp1syymmj-stroke" data-item-order="1000000000" data-item-id="tx_webpform_hznizp1syymmj" data-item-class="Label Stroke" data-item-index="none" data-renderer-id="0" transform="translate(86, 69)"></g><g id="g-root-tx_enhanced_8zzl11syylu0-stroke" data-item-order="1000000000" data-item-id="tx_enhanced_8zzl11syylu0" data-item-class="Label Stroke" data-item-index="none" data-renderer-id="0" transform="translate(578, 255)"></g><g id="g-root-cu_143mrc51sylzic-stroke" data-item-order="1000000000" data-item-id="cu_143mrc51sylzic" data-item-class="Curve Stroke ColorStrokeGray" data-item-index="none" data-renderer-id="0" transform="translate(224, 57)"><g id="cu_143mrc51sylzic-stroke" fill="none" stroke-linecap="round" stroke-linejoin="round" stroke-miterlimit="4" stroke="#888888" stroke-width="2" stroke-dasharray="5.0, 7.0"><g><path d="M 28 10L 28 17.5L 28 58C 27.999999 64.627415 22.627416 69.999998 16 69.999998L 15.9 70L 10 70"></path></g></g></g><g id="g-root-cu_143mrc51sylzie-stroke" data-item-order="1000000000" data-item-id="cu_143mrc51sylzie" data-item-class="Curve Stroke ColorStrokeGray" data-item-index="none" data-renderer-id="0" transform="translate(554, 57)"><g id="cu_143mrc51sylzie-stroke" fill="none" stroke-linecap="round" stroke-linejoin="round" stroke-miterlimit="4" stroke="#888888" stroke-width="2" stroke-dasharray="5.0, 7.0"><g><path d="M 10 10L 10 22L 10 34L 19 34L 28 34"></path></g></g></g><g id="g-root-cu_znt97p1sym0ap-stroke" data-item-order="1000000000" data-item-id="cu_znt97p1sym0ap" data-item-class="Curve Stroke ColorStrokeGray" data-item-index="none" data-renderer-id="0" transform="translate(554, 57)"><g id="cu_znt97p1sym0ap-stroke" fill="none" stroke-linecap="round" stroke-linejoin="round" stroke-miterlimit="4" stroke="#888888" stroke-width="2" stroke-dasharray="5.0, 7.0"><g><path d="M 10 10L 10 17.5L 10 58C 10.000002 64.627417 15.372585 70 22.000002 69.999999L 22.1 70L 28 70"></path></g></g></g><g id="g-root-uplo_1lpwsth1sz728e-stroke" data-item-order="1000000000" data-item-id="uplo_1lpwsth1sz728e" data-item-class="Icon Stroke" data-item-index="none" data-renderer-id="0" transform="translate(374, 78)"><g id="uplo_1lpwsth1sz728e-stroke" fill="none" stroke-linecap="round" stroke-linejoin="round" stroke-miterlimit="4" stroke="#484848" stroke-width="2"><g><path d="M 36 50.014L 14 50.014C 12.343145 50.014 11 48.670856 11 47.014L 11 14.014C 11 12.357145 12.343145 11.014 14 11.014L 35.257999 11.014C 36.053383 11.0147 36.815933 11.33123 37.377998 11.894L 43.122002 17.636C 43.684528 18.198887 44.000362 18.962212 44 19.757999L 44 26.014M 57 43.456001L 46 30.514L 35 43.456001L 41 43.456001L 41 56.986L 51 56.986L 51 43.456001L 57 43.456001Z"></path></g></g></g><g id="g-root-tx_differen_dju0v91syynet-stroke" data-item-order="1000000000" data-item-id="tx_differen_dju0v91syynet" data-item-class="Label Stroke" data-item-index="none" data-renderer-id="0" transform="translate(578, 69)"></g><g id="g-root-tx_reducedf_dju0v91syynes-stroke" data-item-order="1000000000" data-item-id="tx_reducedf_dju0v91syynes" data-item-class="Label Stroke" data-item-index="none" data-renderer-id="0" transform="translate(50, 105)"></g><g id="g-root-tx_devicead_4othph1syyl1q-stroke" data-item-order="1000000000" data-item-id="tx_devicead_4othph1syyl1q" data-item-class="Label Stroke" data-item-index="none" data-renderer-id="0" transform="translate(578, 105)"></g><g id="g-root-tx_imageopt_1uljt2d1sz71fp-stroke" data-item-order="1000000000" data-item-id="tx_imageopt_1uljt2d1sz71fp" data-item-class="Label Stroke" data-item-index="none" data-renderer-id="0" transform="translate(338, 132)"></g><g id="g-root-1_vb41d11syrmyu-stroke" data-item-order="1000000000" data-item-id="1_vb41d11syrmyu" data-item-class="Icon Stroke" data-item-index="none" data-renderer-id="0" transform="translate(542, 15)"><g id="1_vb41d11syrmyu-stroke" fill="none" stroke-linecap="round" stroke-linejoin="round" stroke-miterlimit="4" stroke="#3bc482" stroke-width="2"><g><path d="M 13.125 35.625L 13.125 23.125C 13.125 22.434643 13.684644 21.875 14.375 21.875M 31.875 35.625L 31.875 30.625M 18.125 10.625L 25.625 10.625C 25.625 10.625 26.875 10.625 26.875 11.875L 26.875 26.875C 26.875 26.875 26.875 28.125 25.625 28.125L 18.125 28.125C 18.125 28.125 16.875 28.125 16.875 26.875L 16.875 11.875C 16.875 11.875 16.875 10.625 18.125 10.625M 30.625 10.625L 38.125 10.625C 38.125 10.625 39.375 10.625 39.375 11.875L 39.375 26.875C 39.375 26.875 39.375 28.125 38.125 28.125L 30.625 28.125C 30.625 28.125 29.375 28.125 29.375 26.875L 29.375 11.875C 29.375 11.875 29.375 10.625 30.625 10.625M 34.375 25L 34.375 25C 34.547588 25 34.6875 25.139912 34.6875 25.3125L 34.6875 25.3125C 34.6875 25.485088 34.547588 25.625 34.375 25.625L 34.375 25.625C 34.202412 25.625 34.0625 25.485088 34.0625 25.3125L 34.0625 25.3125C 34.0625 25.139912 34.202412 25 34.375 25M 24.375 35.625C 24.375 36.660534 23.535534 37.5 22.5 37.5C 21.464466 37.5 20.625 36.660534 20.625 35.625L 10.625 35.625L 10.625 36.875C 10.625 38.255714 11.744288 39.375 13.125 39.375L 31.875 39.375C 33.255714 39.375 34.375 38.255714 34.375 36.875L 34.375 35.625ZM 18.125 10.625L 20 13.125L 23.75 13.125L 25.625 10.625"></path></g></g></g><g id="g-root-2_1qa3sv91sylzib-stroke" data-item-order="1000000000" data-item-id="2_1qa3sv91sylzib" data-item-class="Icon Stroke ColorFillGray ColorStrokeGray" data-item-index="none" data-renderer-id="0" transform="translate(224, 165)"><g id="2_1qa3sv91sylzib-stroke" fill="none" stroke-linecap="round" stroke-linejoin="round" stroke-miterlimit="4" stroke="#888888" stroke-width="2"><g><path d="M 14.671429 21.657143C 15.233276 22.057161 15.568239 22.703163 15.571428 23.392857C 15.659604 24.024035 15.430271 24.658018 14.958703 25.086716C 14.487134 25.515415 13.834228 25.683468 13.214286 25.535713C 11.157143 25 10.192857 21.935715 12.142857 16.964285M 22.214285 21.657143C 22.784254 22.052477 23.127604 22.699251 23.135714 23.392857C 23.22389 24.024035 22.994556 24.658018 22.522987 25.086716C 22.05142 25.515415 21.398514 25.683468 20.778572 25.535713C 18.635714 25.128571 17.757143 21.978571 19.642857 16.964285M 35.328571 28.342857C 34.766724 27.942837 34.431759 27.296837 34.42857 26.607141C 34.340397 25.975965 34.569729 25.341982 35.041298 24.913284C 35.512863 24.484585 36.165771 24.316532 36.785713 24.464285C 38.92857 24.871428 39.80714 28.021427 37.900002 33.035713M 27.785713 28.342857C 27.215746 27.947521 26.872396 27.300747 26.864285 26.607141C 26.77611 25.975965 27.005444 25.341982 27.477013 24.913284C 27.94858 24.484585 28.601486 24.316532 29.221428 24.464285C 31.364286 24.871428 32.242855 28.021427 30.357141 33.035713"></path></g></g></g><g id="g-root-1_1qd83511sz49oj-stroke" data-item-order="1000000000" data-item-id="1_1qd83511sz49oj" data-item-class="Icon Stroke" data-item-index="none" data-renderer-id="0" transform="translate(224, 15)"><g id="1_1qd83511sz49oj-stroke" fill="none" stroke-linecap="round" stroke-linejoin="round" stroke-miterlimit="4" stroke="#4682e3" stroke-width="2"><g><path d="M 10.625 10.625L 39.375 10.625L 39.375 39.375L 10.625 39.375ZM 20 26.875C 20 28.255713 18.880713 29.375 17.5 29.375L 15.625 29.375L 15.625 24.375L 17.5 24.375C 18.880713 24.375 20 25.494287 20 26.875ZM 20 31.875C 20 33.255714 18.880713 34.375 17.5 34.375L 15.625 34.375L 15.625 29.375L 17.5 29.375C 18.880713 29.375 20 30.494287 20 31.875ZM 23.125 34.375L 23.125 24.375L 25.625 29.375L 28.125 24.375L 28.125 34.375M 35.625 26.875C 35.625 28.255713 34.505714 29.375 33.125 29.375L 30.625 29.375L 30.625 24.375L 33.125 24.375C 34.505714 24.375 35.625 25.494287 35.625 26.875ZM 30.625 34.375L 30.625 29.375"></path></g></g></g><g id="g-root-tx_placehol_4kg99h1syly4i-stroke" data-item-order="1000000000" data-item-id="tx_placehol_4kg99h1syly4i" data-item-class="Label Stroke ColorFillGray ColorStrokeGray" data-item-index="none" data-renderer-id="0" transform="translate(98, 168)"></g><g id="g-root-cu_18jg9gl1sylypy-stroke" data-item-order="1000000000" data-item-id="cu_18jg9gl1sylypy" data-item-class="Curve Stroke ColorStrokeGray" data-item-index="none" data-renderer-id="0" transform="translate(266, 170)"><g id="cu_18jg9gl1sylypy-stroke" fill="none" stroke-linecap="round" stroke-linejoin="round" stroke-miterlimit="4" stroke="#888888" stroke-width="2" stroke-dasharray="5.0, 7.0"><g><path d="M 58 10L 55 10L 54.9 10C 51.639401 10.016148 48.03708 10.453814 44.200002 11.299999C 41.965481 11.745013 38.361958 13.052173 34 14.999999C 29.638043 16.947825 26.03452 18.254985 23.8 18.699999C 19.962923 19.546185 16.360601 19.98385 13.1 20L 13 20L 10 20"></path></g></g></g><g id="g-root-cu_1cz9rl11sylxxn-stroke" data-item-order="1000000000" data-item-id="cu_1cz9rl11sylxxn" data-item-class="Curve Stroke ColorStrokeGray" data-item-index="none" data-renderer-id="0" transform="translate(482, 170)"><g id="cu_1cz9rl11sylxxn-stroke" fill="none" stroke-linecap="round" stroke-linejoin="round" stroke-miterlimit="4" stroke="#888888" stroke-width="2" stroke-dasharray="5.0, 7.0"><g><path d="M 10 10L 13 10L 13.1 10C 16.360602 10.01615 19.962923 10.453815 23.800001 11.3C 26.03452 11.745014 29.638043 13.052174 34 15.000001C 38.361958 16.947827 41.965481 18.254987 44.200001 18.700001C 48.03708 19.546186 51.639401 19.983851 54.900002 20.000001L 55 20L 58 20"></path></g></g></g><g id="g-root-midn_4jtp0l1syvsi7-stroke" data-item-order="1000000000" data-item-id="midn_4jtp0l1syvsi7" data-item-class="Icon Stroke" data-item-index="none" data-renderer-id="0" transform="translate(542, 165)"><g id="midn_4jtp0l1syvsi7-stroke" fill="none" stroke-linecap="round" stroke-linejoin="round" stroke-miterlimit="4" stroke="#dd8433" stroke-width="2"><g><path d="M 14.285714 25L 11.071428 25M 17.414286 17.414286L 15.142858 15.142858M 17.414286 32.585712L 15.142858 34.857143M 35.714287 25L 38.92857 25M 32.585712 32.585712L 34.857143 34.857143M 25 35.714287L 25 38.92857M 32.585712 17.414286L 34.857143 15.142858M 25 14.285714L 25 11.071428"></path></g></g></g><g id="g-root-tx_lazyload_dfgp9h1syvrpi-stroke" data-item-order="1000000000" data-item-id="tx_lazyload_dfgp9h1syvrpi" data-item-class="Label Stroke" data-item-index="none" data-renderer-id="0" transform="translate(578, 168)"></g><g id="g-root-tx_betterus_8zzl11syylu1-stroke" data-item-order="1000000000" data-item-id="tx_betterus_8zzl11syylu1" data-item-class="Label Stroke" data-item-index="none" data-renderer-id="0" transform="translate(2, 219)"></g><g id="g-root-cu_v8m86d1sylxxc-stroke" data-item-order="1000000000" data-item-id="cu_v8m86d1sylxxc" data-item-class="Curve Stroke ColorStrokeGray" data-item-index="none" data-renderer-id="0" transform="translate(224, 207)"><g id="cu_v8m86d1sylxxc-stroke" fill="none" stroke-linecap="round" stroke-linejoin="round" stroke-miterlimit="4" stroke="#888888" stroke-width="2" stroke-dasharray="5.0, 7.0"><g><path d="M 28 10L 28 22L 28 34L 19 34L 10 34"></path></g></g></g><g id="g-root-cu_v8m86d1sylxxf-stroke" data-item-order="1000000000" data-item-id="cu_v8m86d1sylxxf" data-item-class="Curve Stroke ColorStrokeGray" data-item-index="none" data-renderer-id="0" transform="translate(224, 207)"><g id="cu_v8m86d1sylxxf-stroke" fill="none" stroke-linecap="round" stroke-linejoin="round" stroke-miterlimit="4" stroke="#888888" stroke-width="2" stroke-dasharray="5.0, 7.0"><g><path d="M 28 10L 28 17.5L 28 58C 27.999999 64.627415 22.627416 69.999998 16 69.999998L 15.9 70L 10 70"></path></g></g></g><g id="g-root-cu_znt97p1sym0ar-stroke" data-item-order="1000000000" data-item-id="cu_znt97p1sym0ar" data-item-class="Curve Stroke ColorStrokeGray" data-item-index="none" data-renderer-id="0" transform="translate(554, 207)"><g id="cu_znt97p1sym0ar-stroke" fill="none" stroke-linecap="round" stroke-linejoin="round" stroke-miterlimit="4" stroke="#888888" stroke-width="2" stroke-dasharray="5.0, 7.0"><g><path d="M 10 10L 10 22L 10 34L 19 34L 28 34"></path></g></g></g><g id="g-root-cu_znt97p1sym0au-stroke" data-item-order="1000000000" data-item-id="cu_znt97p1sym0au" data-item-class="Curve Stroke ColorStrokeGray" data-item-index="none" data-renderer-id="0" transform="translate(554, 207)"><g id="cu_znt97p1sym0au-stroke" fill="none" stroke-linecap="round" stroke-linejoin="round" stroke-miterlimit="4" stroke="#888888" stroke-width="2" stroke-dasharray="5.0, 7.0"><g><path d="M 10 10L 10 17.5L 10 58C 10.000002 64.627417 15.372585 70 22.000002 69.999999L 22.1 70L 28 70"></path></g></g></g><g id="g-root-tx_improved_4othph1syyl1r-stroke" data-item-order="1000000000" data-item-id="tx_improved_4othph1syyl1r" data-item-class="Label Stroke" data-item-index="none" data-renderer-id="0" transform="translate(578, 219)"></g><g id="g-root-tx_visualst_1uuajfp1syymf6-stroke" data-item-order="1000000000" data-item-id="tx_visualst_1uuajfp1syymf6" data-item-class="Label Stroke" data-item-index="none" data-renderer-id="0" transform="translate(74, 255)"></g><g id="g-root-tx_optimize_1ut1l9h1sz48wa-stroke" data-item-order="1000000000" data-item-id="tx_optimize_1ut1l9h1sz48wa" data-item-class="Label Stroke" data-item-index="none" data-renderer-id="0" transform="translate(38, 18)"></g><g id="g-root-cu_18jg9gl1sylyq1-stroke" data-item-order="1000000000" data-item-id="cu_18jg9gl1sylyq1" data-item-class="Curve Stroke ColorStrokeGray" data-item-index="none" data-renderer-id="0" transform="translate(224, 57)"><g id="cu_18jg9gl1sylyq1-stroke" fill="none" stroke-linecap="round" stroke-linejoin="round" stroke-miterlimit="4" stroke="#888888" stroke-width="2" stroke-dasharray="5.0, 7.0"><g><path d="M 28 10L 28 22L 28 34L 19 34L 10 34"></path></g></g></g></g></g></svg>