<?xml version="1.0" encoding="utf-8" standalone="yes"?>
<!DOCTYPE svg PUBLIC "-//W3C//DTD SVG 1.1//EN" "http://www.w3.org/Graphics/SVG/1.1/DTD/svg11.dtd">
<svg width="913" height="223" viewBox="0 0 913 223" style="fill:none;stroke:none;fill-rule:evenodd;clip-rule:evenodd;stroke-linecap:round;stroke-linejoin:round;stroke-miterlimit:1.5;" version="1.1" xmlns="http://www.w3.org/2000/svg" xmlns:xlink="http://www.w3.org/1999/xlink"><style id="fontImports">@import url("https://fonts.googleapis.com/css2?family=Roboto:wght@400;700&amp;display=block");</style><rect id="" x="0" y="0" width="913" height="223" style="fill: #ffffff;"></rect><g id="items" style="isolation: isolate"><g id="blend" style="mix-blend-mode:normal"><g id="g-root-ro_me7q911s56ux9-fill" data-item-order="999970768" data-item-id="ro_me7q911s56ux9" data-item-class="Shape Stroke Fill" data-item-index="none" data-renderer-id="0" transform="translate(351, 15)"><g id="ro_me7q911s56ux9-fill" stroke="none" fill="#f0f0f0"><g><path d="M 34 10L 154 10C 154 10 178 10 178 34L 178 160C 178 160 178 184 154 184L 34 184C 34 184 10 184 10 160L 10 34C 10 34 10 10 34 10"></path></g></g></g><g id="g-root-ro_145htwl1s4sumb-fill" data-item-order="999983800" data-item-id="ro_145htwl1s4sumb" data-item-class="Shape Stroke Fill" data-item-index="none" data-renderer-id="0" transform="translate(3, 3)"><g id="ro_145htwl1s4sumb-fill" stroke="none" fill="#e6efff"><g><path d="M 22 10L 298 10C 298 10 310 10 310 22L 310 52C 310 52 310 64 298 64L 22 64C 22 64 10 64 10 52L 10 22C 10 22 10 10 22 10"></path></g></g></g><g id="g-root-ro_1cw51gl1s4rg91-fill" data-item-order="999990280" data-item-id="ro_1cw51gl1s4rg91" data-item-class="Shape Stroke Fill" data-item-index="none" data-renderer-id="0" transform="translate(567, 3)"><g id="ro_1cw51gl1s4rg91-fill" stroke="none" fill="#e9fbf3"><g><path d="M 22 10L 178 10C 178 10 190 10 190 22L 190 52C 190 52 190 64 178 64L 22 64C 22 64 10 64 10 52L 10 22C 10 22 10 10 22 10"></path></g></g></g><g id="g-root-tx_internat_18lbc111s4stu1-fill" data-item-order="1000000000" data-item-id="tx_internat_18lbc111s4stu1" data-item-class="Label Stroke" data-item-index="none" data-renderer-id="0" transform="translate(15, 18)"><g id="tx_internat_18lbc111s4stu1-fill" stroke="none" fill="#4682e3"><g><text style="font: 20px Roboto, sans-serif; white-space: pre;" font-weight="20px" font-size="Roboto," font-family="sans-serif"><tspan x="15.6" y="33.75" dominant-baseline="ideographic">Internationalisation (i18n)</tspan></text></g></g></g><g id="g-root-1_1cw51gl1s4rg90-fill" data-item-order="1000000000" data-item-id="1_1cw51gl1s4rg90" data-item-class="Icon Stroke" data-item-index="none" data-renderer-id="0" transform="translate(579, 15)"></g><g id="g-root-cu_vahaqt1s4ss98-fill" data-item-order="1000000000" data-item-id="cu_vahaqt1s4ss98" data-item-class="Curve Stroke ColorStrokeGray" data-item-index="none" data-renderer-id="0" transform="translate(303, 30)"></g><g id="g-root-cu_vahaqt1s4ss9b-fill" data-item-order="1000000000" data-item-id="cu_vahaqt1s4ss9b" data-item-class="Curve Stroke ColorStrokeGray" data-item-index="none" data-renderer-id="0" transform="translate(519, 30)"></g><g id="g-root-tx_vnements_i0w7mt1s4q1aj-fill" data-item-order="1000000000" data-item-id="tx_vnements_i0w7mt1s4q1aj" data-item-class="Label Stroke" data-item-index="none" data-renderer-id="0" transform="translate(615, 18)"><g id="tx_vnements_i0w7mt1s4q1aj-fill" stroke="none" fill="#3bc482"><g><text style="font: 20px Roboto, sans-serif; white-space: pre;" font-weight="20px" font-size="Roboto," font-family="sans-serif"><tspan x="15.55" y="33.75" dominant-baseline="ideographic">Événements</tspan></text></g></g></g><g id="g-root-inte_v9uqhx1s56u4k-fill" data-item-order="1000000000" data-item-id="inte_v9uqhx1s56u4k" data-item-class="Icon Stroke" data-item-index="none" data-renderer-id="0" transform="translate(411, 39)"></g><g id="g-root-tx_supportm_1414iat1s4rdvy-fill" data-item-order="1000000000" data-item-id="tx_supportm_1414iat1s4rdvy" data-item-class="Label Stroke" data-item-index="none" data-renderer-id="0" transform="translate(75, 69)"><g id="tx_supportm_1414iat1s4rdvy-fill" stroke="none" fill="#484848"><g><text style="font: 20px Roboto, sans-serif; white-space: pre;" font-weight="20px" font-size="Roboto," font-family="sans-serif"><tspan x="13.11" y="33.75" dominant-baseline="ideographic">Support Multilingue</tspan></text></g></g></g><g id="g-root-cu_qunsmd1s4st1m-fill" data-item-order="1000000000" data-item-id="cu_qunsmd1s4st1m" data-item-class="Curve Stroke ColorStrokeGray" data-item-index="none" data-renderer-id="0" transform="translate(261, 57)"></g><g id="g-root-cu_qunsmd1s4st1p-fill" data-item-order="1000000000" data-item-id="cu_qunsmd1s4st1p" data-item-class="Curve Stroke ColorStrokeGray" data-item-index="none" data-renderer-id="0" transform="translate(261, 57)"></g><g id="g-root-cu_qunsmd1s4st1r-fill" data-item-order="1000000000" data-item-id="cu_qunsmd1s4st1r" data-item-class="Curve Stroke ColorStrokeGray" data-item-index="none" data-renderer-id="0" transform="translate(261, 57)"></g><g id="g-root-cu_meuahx1s4stu1-fill" data-item-order="1000000000" data-item-id="cu_meuahx1s4stu1" data-item-class="Curve Stroke ColorStrokeGray" data-item-index="none" data-renderer-id="0" transform="translate(261, 57)"></g><g id="g-root-cu_meuahx1s4stu3-fill" data-item-order="1000000000" data-item-id="cu_meuahx1s4stu3" data-item-class="Curve Stroke ColorStrokeGray" data-item-index="none" data-renderer-id="0" transform="translate(591, 57)"></g><g id="g-root-cu_hz0sdh1s4sume-fill" data-item-order="1000000000" data-item-id="cu_hz0sdh1s4sume" data-item-class="Curve Stroke ColorStrokeGray" data-item-index="none" data-renderer-id="0" transform="translate(591, 57)"></g><g id="g-root-cu_hz0sdh1s4sumg-fill" data-item-order="1000000000" data-item-id="cu_hz0sdh1s4sumg" data-item-class="Curve Stroke ColorStrokeGray" data-item-index="none" data-renderer-id="0" transform="translate(591, 57)"></g><g id="g-root-cu_hz0sdh1s4sumi-fill" data-item-order="1000000000" data-item-id="cu_hz0sdh1s4sumi" data-item-class="Curve Stroke ColorStrokeGray" data-item-index="none" data-renderer-id="0" transform="translate(591, 57)"></g><g id="g-root-tx_communic_8z0git1s4reod-fill" data-item-order="1000000000" data-item-id="tx_communic_8z0git1s4reod" data-item-class="Label Stroke" data-item-index="none" data-renderer-id="0" transform="translate(615, 177)"><g id="tx_communic_8z0git1s4reod-fill" stroke="none" fill="#484848"><g><text style="font: 20px Roboto, sans-serif; white-space: pre;" font-weight="20px" font-size="Roboto," font-family="sans-serif"><tspan x="13.29" y="33.75" dominant-baseline="ideographic">Communication Inter-modules</tspan></text></g></g></g><g id="g-root-tx_chargeme_zlb06d1s4reo7-fill" data-item-order="1000000000" data-item-id="tx_chargeme_zlb06d1s4reo7" data-item-class="Label Stroke" data-item-index="none" data-renderer-id="0" transform="translate(27, 105)"><g id="tx_chargeme_zlb06d1s4reo7-fill" stroke="none" fill="#484848"><g><text style="font: 20px Roboto, sans-serif; white-space: pre;" font-weight="20px" font-size="Roboto," font-family="sans-serif"><tspan x="17.09" y="33.75" dominant-baseline="ideographic">Chargement Dynamique</tspan></text></g></g></g><g id="g-root-tx_internat_zp1rj91s56wi3-fill" data-item-order="1000000000" data-item-id="tx_internat_zp1rj91s56wi3" data-item-class="Label Stroke" data-item-index="none" data-renderer-id="0" transform="translate(375, 93)"><g id="tx_internat_zp1rj91s56wi3-fill" stroke="none" fill="#484848"><g><text style="font: 20px Roboto, sans-serif; white-space: pre;" font-weight="20px" font-size="Roboto," font-family="sans-serif"><tspan x="14.07" y="33.75" dominant-baseline="ideographic">International</tspan><tspan x="29.01" y="57.75" dominant-baseline="ideographic">isation et </tspan><tspan x="15.54" y="81.75" dominant-baseline="ideographic">Événements</tspan></text></g></g></g><g id="g-root-tx_busdvnem_m9uht11s4rg97-fill" data-item-order="1000000000" data-item-id="tx_busdvnem_m9uht11s4rg97" data-item-class="Label Stroke" data-item-index="none" data-renderer-id="0" transform="translate(615, 105)"><g id="tx_busdvnem_m9uht11s4rg97-fill" stroke="none" fill="#484848"><g><text style="font: 20px Roboto, sans-serif; white-space: pre;" font-weight="20px" font-size="Roboto," font-family="sans-serif"><tspan x="11.9" y="33.75" dominant-baseline="ideographic">Bus d'Événements Global</tspan></text></g></g></g><g id="g-root-tx_gestiond_v5hi1x1s4rfgg-fill" data-item-order="1000000000" data-item-id="tx_gestiond_v5hi1x1s4rfgg" data-item-class="Label Stroke" data-item-index="none" data-renderer-id="0" transform="translate(27, 141)"><g id="tx_gestiond_v5hi1x1s4rfgg-fill" stroke="none" fill="#484848"><g><text style="font: 20px Roboto, sans-serif; white-space: pre;" font-weight="20px" font-size="Roboto," font-family="sans-serif"><tspan x="16.29" y="33.75" dominant-baseline="ideographic">Gestion des Traductions</tspan></text></g></g></g><g id="g-root-tx_handlers_hungrp1s4rdvo-fill" data-item-order="1000000000" data-item-id="tx_handlers_hungrp1s4rdvo" data-item-class="Label Stroke" data-item-index="none" data-renderer-id="0" transform="translate(615, 141)"><g id="tx_handlers_hungrp1s4rdvo-fill" stroke="none" fill="#484848"><g><text style="font: 20px Roboto, sans-serif; white-space: pre;" font-weight="20px" font-size="Roboto," font-family="sans-serif"><tspan x="13.13" y="33.75" dominant-baseline="ideographic">Handlers Spécialisés</tspan></text></g></g></g><g id="g-root-tx_formatag_v5hi1x1s4rfgh-fill" data-item-order="1000000000" data-item-id="tx_formatag_v5hi1x1s4rfgh" data-item-class="Label Stroke" data-item-index="none" data-renderer-id="0" transform="translate(75, 177)"><g id="tx_formatag_v5hi1x1s4rfgh-fill" stroke="none" fill="#484848"><g><text style="font: 20px Roboto, sans-serif; white-space: pre;" font-weight="20px" font-size="Roboto," font-family="sans-serif"><tspan x="12.13" y="33.75" dominant-baseline="ideographic">Formatage Localisé</tspan></text></g></g></g><g id="g-root-add_145htwl1s4suma-fill" data-item-order="1000000000" data-item-id="add_145htwl1s4suma" data-item-class="Icon Stroke" data-item-index="none" data-renderer-id="0" transform="translate(261, 15)"></g><g id="g-root-tx_communic_m9uht11s4rg96-fill" data-item-order="1000000000" data-item-id="tx_communic_m9uht11s4rg96" data-item-class="Label Stroke" data-item-index="none" data-renderer-id="0" transform="translate(615, 69)"><g id="tx_communic_m9uht11s4rg96-fill" stroke="none" fill="#484848"><g><text style="font: 20px Roboto, sans-serif; white-space: pre;" font-weight="20px" font-size="Roboto," font-family="sans-serif"><tspan x="13.73" y="33.75" dominant-baseline="ideographic">Communication Interne</tspan></text></g></g></g><g id="g-root-ro_me7q911s56ux9-stroke" data-item-order="999970768" data-item-id="ro_me7q911s56ux9" data-item-class="Shape Stroke Fill" data-item-index="none" data-renderer-id="0" transform="translate(351, 15)"><g id="ro_me7q911s56ux9-stroke" fill="none" stroke-linecap="round" stroke-linejoin="round" stroke-miterlimit="4" stroke="#484848" stroke-width="2"><g><path d="M 34 10L 154 10C 154 10 178 10 178 34L 178 160C 178 160 178 184 154 184L 34 184C 34 184 10 184 10 160L 10 34C 10 34 10 10 34 10"></path></g></g></g><g id="g-root-ro_145htwl1s4sumb-stroke" data-item-order="999983800" data-item-id="ro_145htwl1s4sumb" data-item-class="Shape Stroke Fill" data-item-index="none" data-renderer-id="0" transform="translate(3, 3)"><g id="ro_145htwl1s4sumb-stroke" fill="none" stroke-linecap="round" stroke-linejoin="round" stroke-miterlimit="4" stroke="#4682e3" stroke-width="2"><g><path d="M 22 10L 298 10C 298 10 310 10 310 22L 310 52C 310 52 310 64 298 64L 22 64C 22 64 10 64 10 52L 10 22C 10 22 10 10 22 10"></path></g></g></g><g id="g-root-ro_1cw51gl1s4rg91-stroke" data-item-order="999990280" data-item-id="ro_1cw51gl1s4rg91" data-item-class="Shape Stroke Fill" data-item-index="none" data-renderer-id="0" transform="translate(567, 3)"><g id="ro_1cw51gl1s4rg91-stroke" fill="none" stroke-linecap="round" stroke-linejoin="round" stroke-miterlimit="4" stroke="#3bc482" stroke-width="2"><g><path d="M 22 10L 178 10C 178 10 190 10 190 22L 190 52C 190 52 190 64 178 64L 22 64C 22 64 10 64 10 52L 10 22C 10 22 10 10 22 10"></path></g></g></g><g id="g-root-tx_internat_18lbc111s4stu1-stroke" data-item-order="1000000000" data-item-id="tx_internat_18lbc111s4stu1" data-item-class="Label Stroke" data-item-index="none" data-renderer-id="0" transform="translate(15, 18)"></g><g id="g-root-1_1cw51gl1s4rg90-stroke" data-item-order="1000000000" data-item-id="1_1cw51gl1s4rg90" data-item-class="Icon Stroke" data-item-index="none" data-renderer-id="0" transform="translate(579, 15)"><g id="1_1cw51gl1s4rg90-stroke" fill="none" stroke-linecap="round" stroke-linejoin="round" stroke-miterlimit="4" stroke="#3bc482" stroke-width="2"><g><path d="M 21.25 25.623749C 21.25 27.694818 22.928932 29.373751 25 29.373751C 27.071068 29.373751 28.75 27.694818 28.75 25.623751C 28.75 23.552683 27.071068 21.873751 25 21.873751C 22.928932 21.873751 21.25 23.552683 21.25 25.623751ZM 30.625 39.375C 30.235001 35.134998 27.83375 31.875 25 31.875C 22.16625 31.875 19.764999 35.134998 19.375 39.375ZM 31.625 31.625C 35.28952 27.965042 35.291981 22.026999 31.630501 18.364C 27.969021 14.701002 22.030979 14.701002 18.369499 18.364C 14.708021 22.026999 14.710484 27.965042 18.375 31.625002M 35.165001 35.16375C 40.778511 29.549864 40.778309 20.448292 35.164547 14.834658C 29.550785 9.221022 20.449215 9.221022 14.835454 14.834658C 9.221693 20.448292 9.22149 29.549864 14.835 35.16375"></path></g></g></g><g id="g-root-cu_vahaqt1s4ss98-stroke" data-item-order="1000000000" data-item-id="cu_vahaqt1s4ss98" data-item-class="Curve Stroke ColorStrokeGray" data-item-index="none" data-renderer-id="0" transform="translate(303, 30)"><g id="cu_vahaqt1s4ss98-stroke" fill="none" stroke-linecap="round" stroke-linejoin="round" stroke-miterlimit="4" stroke="#888888" stroke-width="2" stroke-dasharray="5.0, 7.0"><g><path d="M 58 53L 55 53L 54.9 53C 43.357252 53.000001 34.000002 43.642752 34.000002 32.1L 34 32L 34 30.9C 33.999998 19.357248 24.64275 10 13.1 10L 13 10L 10 10"></path></g></g></g><g id="g-root-cu_vahaqt1s4ss9b-stroke" data-item-order="1000000000" data-item-id="cu_vahaqt1s4ss9b" data-item-class="Curve Stroke ColorStrokeGray" data-item-index="none" data-renderer-id="0" transform="translate(519, 30)"><g id="cu_vahaqt1s4ss9b-stroke" fill="none" stroke-linecap="round" stroke-linejoin="round" stroke-miterlimit="4" stroke="#888888" stroke-width="2" stroke-dasharray="5.0, 7.0"><g><path d="M 10 53L 13 53L 13.1 53C 24.642753 52.999998 34.000001 43.642749 34 32.099998L 34 32L 34 30.9C 33.999999 19.357249 43.357248 10.000001 54.899999 10.000002L 55 10L 58 10"></path></g></g></g><g id="g-root-tx_vnements_i0w7mt1s4q1aj-stroke" data-item-order="1000000000" data-item-id="tx_vnements_i0w7mt1s4q1aj" data-item-class="Label Stroke" data-item-index="none" data-renderer-id="0" transform="translate(615, 18)"></g><g id="g-root-inte_v9uqhx1s56u4k-stroke" data-item-order="1000000000" data-item-id="inte_v9uqhx1s56u4k" data-item-class="Icon Stroke" data-item-index="none" data-renderer-id="0" transform="translate(411, 39)"><g id="inte_v9uqhx1s56u4k-stroke" fill="none" stroke-linecap="round" stroke-linejoin="round" stroke-miterlimit="4" stroke="#484848" stroke-width="2"><g><path d="M 33.368 45.316002L 28.521999 43.147999C 28.230017 43.01759 27.893274 43.034687 27.615999 43.194L 25.470001 44.428001C 25.167236 44.6017 24.976955 44.920696 24.967968 45.269634C 24.958977 45.618568 25.132584 45.946941 25.425999 46.136002L 32.739998 50.855999C 33.010544 51.030384 33.348488 51.063881 33.648003 50.945999L 42.248001 47.546001L 39.346001 55.082001C 39.194725 55.471275 39.301292 55.913567 39.613266 56.191219C 39.925236 56.468876 40.376904 56.523415 40.746002 56.327999L 42.68 55.327999C 42.854965 55.238445 42.999657 55.099319 43.096001 54.928001L 48.495998 45.071999L 55.400002 42.021999C 56.701633 41.475727 57.314022 39.977737 56.767838 38.676067C 56.221653 37.374397 54.723709 36.761906 53.422001 37.307999ZM 46.068001 40.246002L 38.414001 35.445999C 38.11216 35.254192 37.730862 35.238178 37.414001 35.403999L 35.362 36.464001C 35.046654 36.626266 34.840843 36.94342 34.821098 37.297523C 34.801361 37.651619 34.970642 37.989685 35.265999 38.186001L 41.243999 42.161999M 23.082001 41.256001C 15.344946 39.684357 10.150548 32.384312 11.20149 24.559505C 12.252434 16.734699 19.188927 11.063944 27.066483 11.589481C 34.944038 12.11502 41.065784 18.656935 41.068001 26.552M 16.723999 38.274002L 18.068001 31.552L 19.507999 31.552C 20.123581 31.55183 20.704786 31.268192 21.083689 30.783041C 21.462591 30.297892 21.59697 29.665283 21.448 29.068001L 20.448 25.068001C 20.225859 24.177343 19.425941 23.552254 18.507999 23.552L 11.37 23.552M 38.048 17.552L 32.629997 17.552C 31.712059 17.552254 30.912142 18.177343 30.690001 19.068001L 29.690001 23.068001C 29.541029 23.665283 29.675409 24.29789 30.054312 24.783043C 30.433214 25.268192 31.01442 25.55183 31.629999 25.552L 33.736 25.552L 34.790001 31.882"></path></g></g></g><g id="g-root-tx_supportm_1414iat1s4rdvy-stroke" data-item-order="1000000000" data-item-id="tx_supportm_1414iat1s4rdvy" data-item-class="Label Stroke" data-item-index="none" data-renderer-id="0" transform="translate(75, 69)"></g><g id="g-root-cu_qunsmd1s4st1m-stroke" data-item-order="1000000000" data-item-id="cu_qunsmd1s4st1m" data-item-class="Curve Stroke ColorStrokeGray" data-item-index="none" data-renderer-id="0" transform="translate(261, 57)"><g id="cu_qunsmd1s4st1m-stroke" fill="none" stroke-linecap="round" stroke-linejoin="round" stroke-miterlimit="4" stroke="#888888" stroke-width="2" stroke-dasharray="5.0, 7.0"><g><path d="M 28 10L 28 22L 28 34L 19 34L 10 34"></path></g></g></g><g id="g-root-cu_qunsmd1s4st1p-stroke" data-item-order="1000000000" data-item-id="cu_qunsmd1s4st1p" data-item-class="Curve Stroke ColorStrokeGray" data-item-index="none" data-renderer-id="0" transform="translate(261, 57)"><g id="cu_qunsmd1s4st1p-stroke" fill="none" stroke-linecap="round" stroke-linejoin="round" stroke-miterlimit="4" stroke="#888888" stroke-width="2" stroke-dasharray="5.0, 7.0"><g><path d="M 28 10L 28 40L 28 70L 19 70L 10 70"></path></g></g></g><g id="g-root-cu_qunsmd1s4st1r-stroke" data-item-order="1000000000" data-item-id="cu_qunsmd1s4st1r" data-item-class="Curve Stroke ColorStrokeGray" data-item-index="none" data-renderer-id="0" transform="translate(261, 57)"><g id="cu_qunsmd1s4st1r-stroke" fill="none" stroke-linecap="round" stroke-linejoin="round" stroke-miterlimit="4" stroke="#888888" stroke-width="2" stroke-dasharray="5.0, 7.0"><g><path d="M 28 10L 28 58L 28 106L 19 106L 10 106"></path></g></g></g><g id="g-root-cu_meuahx1s4stu1-stroke" data-item-order="1000000000" data-item-id="cu_meuahx1s4stu1" data-item-class="Curve Stroke ColorStrokeGray" data-item-index="none" data-renderer-id="0" transform="translate(261, 57)"><g id="cu_meuahx1s4stu1-stroke" fill="none" stroke-linecap="round" stroke-linejoin="round" stroke-miterlimit="4" stroke="#888888" stroke-width="2" stroke-dasharray="5.0, 7.0"><g><path d="M 28 10L 28 26.5L 28 130C 28.000005 136.627421 22.627422 142.000005 16.000005 142.000005L 15.9 142L 10 142"></path></g></g></g><g id="g-root-cu_meuahx1s4stu3-stroke" data-item-order="1000000000" data-item-id="cu_meuahx1s4stu3" data-item-class="Curve Stroke ColorStrokeGray" data-item-index="none" data-renderer-id="0" transform="translate(591, 57)"><g id="cu_meuahx1s4stu3-stroke" fill="none" stroke-linecap="round" stroke-linejoin="round" stroke-miterlimit="4" stroke="#888888" stroke-width="2" stroke-dasharray="5.0, 7.0"><g><path d="M 10 10L 10 22L 10 34L 19 34L 28 34"></path></g></g></g><g id="g-root-cu_hz0sdh1s4sume-stroke" data-item-order="1000000000" data-item-id="cu_hz0sdh1s4sume" data-item-class="Curve Stroke ColorStrokeGray" data-item-index="none" data-renderer-id="0" transform="translate(591, 57)"><g id="cu_hz0sdh1s4sume-stroke" fill="none" stroke-linecap="round" stroke-linejoin="round" stroke-miterlimit="4" stroke="#888888" stroke-width="2" stroke-dasharray="5.0, 7.0"><g><path d="M 10 10L 10 40L 10 70L 19 70L 28 70"></path></g></g></g><g id="g-root-cu_hz0sdh1s4sumg-stroke" data-item-order="1000000000" data-item-id="cu_hz0sdh1s4sumg" data-item-class="Curve Stroke ColorStrokeGray" data-item-index="none" data-renderer-id="0" transform="translate(591, 57)"><g id="cu_hz0sdh1s4sumg-stroke" fill="none" stroke-linecap="round" stroke-linejoin="round" stroke-miterlimit="4" stroke="#888888" stroke-width="2" stroke-dasharray="5.0, 7.0"><g><path d="M 10 10L 10 58L 10 106L 19 106L 28 106"></path></g></g></g><g id="g-root-cu_hz0sdh1s4sumi-stroke" data-item-order="1000000000" data-item-id="cu_hz0sdh1s4sumi" data-item-class="Curve Stroke ColorStrokeGray" data-item-index="none" data-renderer-id="0" transform="translate(591, 57)"><g id="cu_hz0sdh1s4sumi-stroke" fill="none" stroke-linecap="round" stroke-linejoin="round" stroke-miterlimit="4" stroke="#888888" stroke-width="2" stroke-dasharray="5.0, 7.0"><g><path d="M 10 10L 10 26.5L 10 130C 10.000005 136.627425 15.372589 142.000008 22.000006 142.000007L 22.1 142L 28 142"></path></g></g></g><g id="g-root-tx_communic_8z0git1s4reod-stroke" data-item-order="1000000000" data-item-id="tx_communic_8z0git1s4reod" data-item-class="Label Stroke" data-item-index="none" data-renderer-id="0" transform="translate(615, 177)"></g><g id="g-root-tx_chargeme_zlb06d1s4reo7-stroke" data-item-order="1000000000" data-item-id="tx_chargeme_zlb06d1s4reo7" data-item-class="Label Stroke" data-item-index="none" data-renderer-id="0" transform="translate(27, 105)"></g><g id="g-root-tx_internat_zp1rj91s56wi3-stroke" data-item-order="1000000000" data-item-id="tx_internat_zp1rj91s56wi3" data-item-class="Label Stroke" data-item-index="none" data-renderer-id="0" transform="translate(375, 93)"></g><g id="g-root-tx_busdvnem_m9uht11s4rg97-stroke" data-item-order="1000000000" data-item-id="tx_busdvnem_m9uht11s4rg97" data-item-class="Label Stroke" data-item-index="none" data-renderer-id="0" transform="translate(615, 105)"></g><g id="g-root-tx_gestiond_v5hi1x1s4rfgg-stroke" data-item-order="1000000000" data-item-id="tx_gestiond_v5hi1x1s4rfgg" data-item-class="Label Stroke" data-item-index="none" data-renderer-id="0" transform="translate(27, 141)"></g><g id="g-root-tx_handlers_hungrp1s4rdvo-stroke" data-item-order="1000000000" data-item-id="tx_handlers_hungrp1s4rdvo" data-item-class="Label Stroke" data-item-index="none" data-renderer-id="0" transform="translate(615, 141)"></g><g id="g-root-tx_formatag_v5hi1x1s4rfgh-stroke" data-item-order="1000000000" data-item-id="tx_formatag_v5hi1x1s4rfgh" data-item-class="Label Stroke" data-item-index="none" data-renderer-id="0" transform="translate(75, 177)"></g><g id="g-root-add_145htwl1s4suma-stroke" data-item-order="1000000000" data-item-id="add_145htwl1s4suma" data-item-class="Icon Stroke" data-item-index="none" data-renderer-id="0" transform="translate(261, 15)"><g id="add_145htwl1s4suma-stroke" fill="none" stroke-linecap="round" stroke-linejoin="round" stroke-miterlimit="4" stroke="#4682e3" stroke-width="2"><g><path d="M 25 11.25L 25 38.75M 38.75 25L 11.25 25"></path></g></g></g><g id="g-root-tx_communic_m9uht11s4rg96-stroke" data-item-order="1000000000" data-item-id="tx_communic_m9uht11s4rg96" data-item-class="Label Stroke" data-item-index="none" data-renderer-id="0" transform="translate(615, 69)"></g></g></g></svg>