<?xml version="1.0" encoding="utf-8" standalone="yes"?>
<!DOCTYPE svg PUBLIC "-//W3C//DTD SVG 1.1//EN" "http://www.w3.org/Graphics/SVG/1.1/DTD/svg11.dtd">
<svg width="876" height="223" viewBox="0 0 876 223" style="fill:none;stroke:none;fill-rule:evenodd;clip-rule:evenodd;stroke-linecap:round;stroke-linejoin:round;stroke-miterlimit:1.5;" version="1.1" xmlns="http://www.w3.org/2000/svg" xmlns:xlink="http://www.w3.org/1999/xlink"><style id="fontImports">@import url("https://fonts.googleapis.com/css2?family=Roboto:wght@400;700&amp;display=block");</style><rect id="" x="0" y="0" width="876" height="223" style="fill: #ffffff;"></rect><g id="items" style="isolation: isolate"><g id="blend" style="mix-blend-mode:normal"><g id="g-root-ro_1hjfz511ruqdjh-fill" data-item-order="999974800" data-item-id="ro_1hjfz511ruqdjh" data-item-class="Shape Stroke Fill" data-item-index="none" data-renderer-id="0" transform="translate(374, 27)"><g id="ro_1hjfz511ruqdjh-fill" stroke="none" fill="#f0f0f0"><g><path d="M 34 10L 154 10C 154 10 178 10 178 34L 178 136C 178 136 178 160 154 160L 34 160C 34 160 10 160 10 136L 10 34C 10 34 10 10 34 10"></path></g></g></g><g id="g-root-ro_1usel5x1ruul1l-fill" data-item-order="999990280" data-item-id="ro_1usel5x1ruul1l" data-item-class="Shape Stroke Fill" data-item-index="none" data-renderer-id="0" transform="translate(590, 15)"><g id="ro_1usel5x1ruul1l-fill" stroke="none" fill="#e9fbf3"><g><path d="M 22 10L 178 10C 178 10 190 10 190 22L 190 52C 190 52 190 64 178 64L 22 64C 22 64 10 64 10 52L 10 22C 10 22 10 10 22 10"></path></g></g></g><g id="g-root-ro_1lt0qed1rv09ak-fill" data-item-order="999991576" data-item-id="ro_1lt0qed1rv09ak" data-item-class="Shape Stroke Fill" data-item-index="none" data-renderer-id="0" transform="translate(170, 3)"><g id="ro_1lt0qed1rv09ak-fill" stroke="none" fill="#e6efff"><g><path d="M 22 10L 154 10C 154 10 166 10 166 22L 166 52C 166 52 166 64 154 64L 22 64C 22 64 10 64 10 52L 10 22C 10 22 10 10 22 10"></path></g></g></g><g id="g-root-conv_1uonqn91rv08hv-fill" data-item-order="1000000000" data-item-id="conv_1uonqn91rv08hv" data-item-class="Icon Stroke" data-item-index="none" data-renderer-id="0" transform="translate(284, 15)"></g><g id="g-root-cu_1hd789x1rv0a2t-fill" data-item-order="1000000000" data-item-id="cu_1hd789x1rv0a2t" data-item-class="Curve Stroke ColorStrokeGray" data-item-index="none" data-renderer-id="0" transform="translate(326, 30)"></g><g id="g-root-2_4mb2cl1ruunls-fill" data-item-order="1000000000" data-item-id="2_4mb2cl1ruunls" data-item-class="Icon Stroke" data-item-index="none" data-renderer-id="0" transform="translate(602, 27)"></g><g id="g-root-tx_surveill_924kh11ruumtj-fill" data-item-order="1000000000" data-item-id="tx_surveill_924kh11ruumtj" data-item-class="Label Stroke" data-item-index="none" data-renderer-id="0" transform="translate(638, 30)"><g id="tx_surveill_924kh11ruumtj-fill" stroke="none" fill="#3bc482"><g><text style="font: 20px Roboto, sans-serif; white-space: pre;" font-weight="20px" font-size="Roboto," font-family="sans-serif"><tspan x="16.23" y="33.75" dominant-baseline="ideographic">Surveillance</tspan></text></g></g></g><g id="g-root-acti_1qegiat1ruqfwk-fill" data-item-order="1000000000" data-item-id="acti_1qegiat1ruqfwk" data-item-class="Icon Stroke" data-item-index="none" data-renderer-id="0" transform="translate(434, 51)"></g><g id="g-root-tx_traabili_1usel5x1ruul1m-fill" data-item-order="1000000000" data-item-id="tx_traabili_1usel5x1ruul1m" data-item-class="Label Stroke" data-item-index="none" data-renderer-id="0" transform="translate(170, 69)"><g id="tx_traabili_1usel5x1ruul1m-fill" stroke="none" fill="#484848"><g><text style="font: 20px Roboto, sans-serif; white-space: pre;" font-weight="20px" font-size="Roboto," font-family="sans-serif"><tspan x="17.64" y="33.75" dominant-baseline="ideographic">Traçabilité</tspan></text></g></g></g><g id="g-root-cu_1cy078l1rv07pf-fill" data-item-order="1000000000" data-item-id="cu_1cy078l1rv07pf" data-item-class="Curve Stroke ColorStrokeGray" data-item-index="none" data-renderer-id="0" transform="translate(284, 57)"></g><g id="g-root-cu_142d6zp1rv08i6-fill" data-item-order="1000000000" data-item-id="cu_142d6zp1rv08i6" data-item-class="Curve Stroke ColorStrokeGray" data-item-index="none" data-renderer-id="0" transform="translate(284, 57)"></g><g id="g-root-cu_18i6p451rv08hs-fill" data-item-order="1000000000" data-item-id="cu_18i6p451rv08hs" data-item-class="Curve Stroke ColorStrokeGray" data-item-index="none" data-renderer-id="0" transform="translate(284, 57)"></g><g id="g-root-cu_zmjov91rv09ai-fill" data-item-order="1000000000" data-item-id="cu_zmjov91rv09ai" data-item-class="Curve Stroke ColorStrokeGray" data-item-index="none" data-renderer-id="0" transform="translate(284, 57)"></g><g id="g-root-cu_zmjov91rv09ak-fill" data-item-order="1000000000" data-item-id="cu_zmjov91rv09ak" data-item-class="Curve Stroke ColorStrokeGray" data-item-index="none" data-renderer-id="0" transform="translate(614, 69)"></g><g id="g-root-cu_v6q6qt1rv0a2v-fill" data-item-order="1000000000" data-item-id="cu_v6q6qt1rv0a2v" data-item-class="Curve Stroke ColorStrokeGray" data-item-index="none" data-renderer-id="0" transform="translate(614, 69)"></g><g id="g-root-cu_v6q6qt1rv0a2x-fill" data-item-order="1000000000" data-item-id="cu_v6q6qt1rv0a2x" data-item-class="Curve Stroke ColorStrokeGray" data-item-index="none" data-renderer-id="0" transform="translate(614, 69)"></g><g id="g-root-tx_mtriques_1d14ko51ruuneu-fill" data-item-order="1000000000" data-item-id="tx_mtriques_1d14ko51ruuneu" data-item-class="Label Stroke" data-item-index="none" data-renderer-id="0" transform="translate(638, 81)"><g id="tx_mtriques_1d14ko51ruuneu-fill" stroke="none" fill="#484848"><g><text style="font: 20px Roboto, sans-serif; white-space: pre;" font-weight="20px" font-size="Roboto," font-family="sans-serif"><tspan x="16.56" y="33.75" dominant-baseline="ideographic">Métriques Applicatives</tspan></text></g></g></g><g id="g-root-tx_journaux_1qcl31h1ruultv-fill" data-item-order="1000000000" data-item-id="tx_journaux_1qcl31h1ruultv" data-item-class="Label Stroke" data-item-index="none" data-renderer-id="0" transform="translate(86, 105)"><g id="tx_journaux_1qcl31h1ruultv-fill" stroke="none" fill="#484848"><g><text style="font: 20px Roboto, sans-serif; white-space: pre;" font-weight="20px" font-size="Roboto," font-family="sans-serif"><tspan x="16.13" y="33.75" dominant-baseline="ideographic">Journaux Structurés</tspan></text></g></g></g><g id="g-root-tx_surveill_1uua0f91ruqf4b-fill" data-item-order="1000000000" data-item-id="tx_surveill_1uua0f91ruqf4b" data-item-class="Label Stroke" data-item-index="none" data-renderer-id="0" transform="translate(398, 105)"><g id="tx_surveill_1uua0f91ruqf4b-fill" stroke="none" fill="#484848"><g><text style="font: 20px Roboto, sans-serif; white-space: pre;" font-weight="20px" font-size="Roboto," font-family="sans-serif"><tspan x="14.11" y="33.75" dominant-baseline="ideographic">Surveillance </tspan><tspan x="15.3" y="57.75" dominant-baseline="ideographic">et Journaux</tspan></text></g></g></g><g id="g-root-tx_tlmtrie_14641id1ruul1r-fill" data-item-order="1000000000" data-item-id="tx_tlmtrie_14641id1ruul1r" data-item-class="Label Stroke" data-item-index="none" data-renderer-id="0" transform="translate(638, 117)"><g id="tx_tlmtrie_14641id1ruul1r-fill" stroke="none" fill="#484848"><g><text style="font: 20px Roboto, sans-serif; white-space: pre;" font-weight="20px" font-size="Roboto," font-family="sans-serif"><tspan x="17.06" y="33.75" dominant-baseline="ideographic">Télémétrie</tspan></text></g></g></g><g id="g-root-tx_niveauxd_1hgy2sl1ruummk-fill" data-item-order="1000000000" data-item-id="tx_niveauxd_1hgy2sl1ruummk" data-item-class="Label Stroke" data-item-index="none" data-renderer-id="0" transform="translate(2, 141)"><g id="tx_niveauxd_1hgy2sl1ruummk-fill" stroke="none" fill="#484848"><g><text style="font: 20px Roboto, sans-serif; white-space: pre;" font-weight="20px" font-size="Roboto," font-family="sans-serif"><tspan x="15.89" y="33.75" dominant-baseline="ideographic">Niveaux de Log Configurables</tspan></text></g></g></g><g id="g-root-tx_alertese_zqajdx1ruulu0-fill" data-item-order="1000000000" data-item-id="tx_alertese_zqajdx1ruulu0" data-item-class="Label Stroke" data-item-index="none" data-renderer-id="0" transform="translate(638, 153)"><g id="tx_alertese_zqajdx1ruulu0-fill" stroke="none" fill="#484848"><g><text style="font: 20px Roboto, sans-serif; white-space: pre;" font-weight="20px" font-size="Roboto," font-family="sans-serif"><tspan x="16.08" y="33.75" dominant-baseline="ideographic">Alertes et Notifications</tspan></text></g></g></g><g id="g-root-tx_formatag_1d14ko51ruunet-fill" data-item-order="1000000000" data-item-id="tx_formatag_1d14ko51ruunet" data-item-class="Label Stroke" data-item-index="none" data-renderer-id="0" transform="translate(50, 177)"><g id="tx_formatag_1d14ko51ruunet-fill" stroke="none" fill="#484848"><g><text style="font: 20px Roboto, sans-serif; white-space: pre;" font-weight="20px" font-size="Roboto," font-family="sans-serif"><tspan x="15.62" y="33.75" dominant-baseline="ideographic">Formatage Personnalisé</tspan></text></g></g></g><g id="g-root-tx_journaux_3d6sl1rv07wq-fill" data-item-order="1000000000" data-item-id="tx_journaux_3d6sl1rv07wq" data-item-class="Label Stroke" data-item-index="none" data-renderer-id="0" transform="translate(182, 18)"><g id="tx_journaux_3d6sl1rv07wq-fill" stroke="none" fill="#4682e3"><g><text style="font: 20px Roboto, sans-serif; white-space: pre;" font-weight="20px" font-size="Roboto," font-family="sans-serif"><tspan x="16.46" y="33.75" dominant-baseline="ideographic">Journaux</tspan></text></g></g></g><g id="g-root-cu_1cy078l1rv07pc-fill" data-item-order="1000000000" data-item-id="cu_1cy078l1rv07pc" data-item-class="Curve Stroke ColorStrokeGray" data-item-index="none" data-renderer-id="0" transform="translate(542, 42)"></g><g id="g-root-ro_1hjfz511ruqdjh-stroke" data-item-order="999974800" data-item-id="ro_1hjfz511ruqdjh" data-item-class="Shape Stroke Fill" data-item-index="none" data-renderer-id="0" transform="translate(374, 27)"><g id="ro_1hjfz511ruqdjh-stroke" fill="none" stroke-linecap="round" stroke-linejoin="round" stroke-miterlimit="4" stroke="#484848" stroke-width="2"><g><path d="M 34 10L 154 10C 154 10 178 10 178 34L 178 136C 178 136 178 160 154 160L 34 160C 34 160 10 160 10 136L 10 34C 10 34 10 10 34 10"></path></g></g></g><g id="g-root-ro_1usel5x1ruul1l-stroke" data-item-order="999990280" data-item-id="ro_1usel5x1ruul1l" data-item-class="Shape Stroke Fill" data-item-index="none" data-renderer-id="0" transform="translate(590, 15)"><g id="ro_1usel5x1ruul1l-stroke" fill="none" stroke-linecap="round" stroke-linejoin="round" stroke-miterlimit="4" stroke="#3bc482" stroke-width="2"><g><path d="M 22 10L 178 10C 178 10 190 10 190 22L 190 52C 190 52 190 64 178 64L 22 64C 22 64 10 64 10 52L 10 22C 10 22 10 10 22 10"></path></g></g></g><g id="g-root-ro_1lt0qed1rv09ak-stroke" data-item-order="999991576" data-item-id="ro_1lt0qed1rv09ak" data-item-class="Shape Stroke Fill" data-item-index="none" data-renderer-id="0" transform="translate(170, 3)"><g id="ro_1lt0qed1rv09ak-stroke" fill="none" stroke-linecap="round" stroke-linejoin="round" stroke-miterlimit="4" stroke="#4682e3" stroke-width="2"><g><path d="M 22 10L 154 10C 154 10 166 10 166 22L 166 52C 166 52 166 64 154 64L 22 64C 22 64 10 64 10 52L 10 22C 10 22 10 10 22 10"></path></g></g></g><g id="g-root-conv_1uonqn91rv08hv-stroke" data-item-order="1000000000" data-item-id="conv_1uonqn91rv08hv" data-item-class="Icon Stroke" data-item-index="none" data-renderer-id="0" transform="translate(284, 15)"><g id="conv_1uonqn91rv08hv-stroke" fill="none" stroke-linecap="round" stroke-linejoin="round" stroke-miterlimit="4" stroke="#4682e3" stroke-width="2"><g><path d="M 35.599998 14.865C 35.859882 15.203821 35.859882 15.674929 35.599998 16.01375C 34.625 17.289999 31.949999 20.25 28.092501 20.25C 24.234999 20.25 21.55875 17.28875 20.585001 16.012501C 20.324886 15.674221 20.324886 15.203279 20.585001 14.865C 21.55875 13.5875 24.234999 10.625 28.092501 10.625C 31.949999 10.625 34.625 13.58875 35.599998 14.865ZM 28.092501 13.31125C 29.266106 13.311251 30.217503 14.262646 30.217503 15.436251C 30.217503 16.609856 29.266106 17.561251 28.092501 17.561251C 26.918896 17.561251 25.967501 16.609856 25.967501 15.436251C 25.967501 14.262646 26.918896 13.311251 28.092501 13.311251M 12.30625 29.74625C 12.305905 31.873482 14.03027 33.598125 16.157499 33.598125C 18.284731 33.598125 20.009094 31.873482 20.008751 29.74625C 20.009094 27.61902 18.284731 25.894377 16.157499 25.894377C 14.03027 25.894377 12.305905 27.61902 12.30625 29.74625M 21.581251 39.375C 20.770643 37.074718 18.597052 35.536076 16.158125 35.536076C 13.719197 35.536076 11.545605 37.074718 10.735 39.374996M 37.041248 28.2575C 37.793411 30.05949 37.078434 32.139244 35.377239 33.09782C 33.676048 34.056396 31.52672 33.590599 30.375 32.013748M 38.911251 39.375C 38.100643 37.074718 35.927052 35.536076 33.488125 35.536076C 31.049196 35.536076 28.875603 37.074718 28.064999 39.374996M 37.34 10.625C 38.403633 10.625 39.26569 11.487614 39.264999 12.55125L 39.264999 21.537498C 39.264999 22.600647 38.403145 23.4625 37.34 23.4625L 31.5625 23.462502L 25.786249 29.24L 25.786249 23.462502L 18.786249 23.462502C 17.723101 23.4625 16.86125 22.600647 16.86125 21.537498L 16.86125 12.55125C 16.860559 11.488102 17.721851 10.62569 18.785 10.625M 13.36375 27.098749C 15.032662 28.986719 17.498562 29.970573 20.008751 29.75"></path></g></g></g><g id="g-root-cu_1hd789x1rv0a2t-stroke" data-item-order="1000000000" data-item-id="cu_1hd789x1rv0a2t" data-item-class="Curve Stroke ColorStrokeGray" data-item-index="none" data-renderer-id="0" transform="translate(326, 30)"><g id="cu_1hd789x1rv0a2t-stroke" fill="none" stroke-linecap="round" stroke-linejoin="round" stroke-miterlimit="4" stroke="#888888" stroke-width="2" stroke-dasharray="5.0, 7.0"><g><path d="M 58 57L 55 57L 54.9 57C 43.357246 56.999996 33.999999 47.642748 33.999998 36.099998L 34 36L 34 30.9C 33.999998 19.357248 24.64275 10 13.1 10L 13 10L 10 10"></path></g></g></g><g id="g-root-2_4mb2cl1ruunls-stroke" data-item-order="1000000000" data-item-id="2_4mb2cl1ruunls" data-item-class="Icon Stroke" data-item-index="none" data-renderer-id="0" transform="translate(602, 27)"><g id="2_4mb2cl1ruunls-stroke" fill="none" stroke-linecap="round" stroke-linejoin="round" stroke-miterlimit="4" stroke="#3bc482" stroke-width="2"><g><path d="M 12.142857 13.214286L 37.857143 13.214286C 37.857143 13.214286 38.92857 13.214286 38.92857 14.285714L 38.92857 31.42857C 38.92857 31.42857 38.92857 32.5 37.857143 32.5L 12.142857 32.5C 12.142857 32.5 11.071428 32.5 11.071428 31.42857L 11.071428 14.285714C 11.071428 14.285714 11.071428 13.214286 12.142857 13.214286M 17.564285 38.92857C 18.123802 35.254189 21.283262 32.539417 25 32.539417C 28.716736 32.539417 31.876196 35.254189 32.435711 38.92857"></path></g></g></g><g id="g-root-tx_surveill_924kh11ruumtj-stroke" data-item-order="1000000000" data-item-id="tx_surveill_924kh11ruumtj" data-item-class="Label Stroke" data-item-index="none" data-renderer-id="0" transform="translate(638, 30)"></g><g id="g-root-acti_1qegiat1ruqfwk-stroke" data-item-order="1000000000" data-item-id="acti_1qegiat1ruqfwk" data-item-class="Icon Stroke" data-item-index="none" data-renderer-id="0" transform="translate(434, 51)"><g id="acti_1qegiat1ruqfwk-stroke" fill="none" stroke-linecap="round" stroke-linejoin="round" stroke-miterlimit="4" stroke="#484848" stroke-width="2"><g><path d="M 20.285715 11.714286L 47.714287 11.714286C 47.714287 11.714286 51.142857 11.714286 51.142857 15.142858L 51.142857 42.57143C 51.142857 42.57143 51.142857 46 47.714287 46L 20.285715 46C 20.285715 46 16.857143 46 16.857143 42.57143L 16.857143 15.142858C 16.857143 15.142858 16.857143 11.714286 20.285715 11.714286M 25.428572 28.857143C 25.428572 33.591011 29.266132 37.428574 34 37.428574C 38.733868 37.428574 42.57143 33.591011 42.57143 28.857143C 42.57143 24.123276 38.733868 20.285715 34 20.285715C 29.266132 20.285715 25.428572 24.123276 25.428572 28.857143M 39.142857 46L 39.142857 56.285713M 28.857143 46L 28.857143 56.285713M 23.714287 56.285713L 44.285713 56.285713"></path></g></g></g><g id="g-root-tx_traabili_1usel5x1ruul1m-stroke" data-item-order="1000000000" data-item-id="tx_traabili_1usel5x1ruul1m" data-item-class="Label Stroke" data-item-index="none" data-renderer-id="0" transform="translate(170, 69)"></g><g id="g-root-cu_1cy078l1rv07pf-stroke" data-item-order="1000000000" data-item-id="cu_1cy078l1rv07pf" data-item-class="Curve Stroke ColorStrokeGray" data-item-index="none" data-renderer-id="0" transform="translate(284, 57)"><g id="cu_1cy078l1rv07pf-stroke" fill="none" stroke-linecap="round" stroke-linejoin="round" stroke-miterlimit="4" stroke="#888888" stroke-width="2" stroke-dasharray="5.0, 7.0"><g><path d="M 28 10L 28 22L 28 34L 19 34L 10 34"></path></g></g></g><g id="g-root-cu_142d6zp1rv08i6-stroke" data-item-order="1000000000" data-item-id="cu_142d6zp1rv08i6" data-item-class="Curve Stroke ColorStrokeGray" data-item-index="none" data-renderer-id="0" transform="translate(284, 57)"><g id="cu_142d6zp1rv08i6-stroke" fill="none" stroke-linecap="round" stroke-linejoin="round" stroke-miterlimit="4" stroke="#888888" stroke-width="2" stroke-dasharray="5.0, 7.0"><g><path d="M 28 10L 28 40L 28 70L 19 70L 10 70"></path></g></g></g><g id="g-root-cu_18i6p451rv08hs-stroke" data-item-order="1000000000" data-item-id="cu_18i6p451rv08hs" data-item-class="Curve Stroke ColorStrokeGray" data-item-index="none" data-renderer-id="0" transform="translate(284, 57)"><g id="cu_18i6p451rv08hs-stroke" fill="none" stroke-linecap="round" stroke-linejoin="round" stroke-miterlimit="4" stroke="#888888" stroke-width="2" stroke-dasharray="5.0, 7.0"><g><path d="M 28 10L 28 58L 28 106L 19 106L 10 106"></path></g></g></g><g id="g-root-cu_zmjov91rv09ai-stroke" data-item-order="1000000000" data-item-id="cu_zmjov91rv09ai" data-item-class="Curve Stroke ColorStrokeGray" data-item-index="none" data-renderer-id="0" transform="translate(284, 57)"><g id="cu_zmjov91rv09ai-stroke" fill="none" stroke-linecap="round" stroke-linejoin="round" stroke-miterlimit="4" stroke="#888888" stroke-width="2" stroke-dasharray="5.0, 7.0"><g><path d="M 28 10L 28 26.5L 28 130C 28.000005 136.627421 22.627422 142.000005 16.000005 142.000005L 15.9 142L 10 142"></path></g></g></g><g id="g-root-cu_zmjov91rv09ak-stroke" data-item-order="1000000000" data-item-id="cu_zmjov91rv09ak" data-item-class="Curve Stroke ColorStrokeGray" data-item-index="none" data-renderer-id="0" transform="translate(614, 69)"><g id="cu_zmjov91rv09ak-stroke" fill="none" stroke-linecap="round" stroke-linejoin="round" stroke-miterlimit="4" stroke="#888888" stroke-width="2" stroke-dasharray="5.0, 7.0"><g><path d="M 10 10L 10 22L 10 34L 19 34L 28 34"></path></g></g></g><g id="g-root-cu_v6q6qt1rv0a2v-stroke" data-item-order="1000000000" data-item-id="cu_v6q6qt1rv0a2v" data-item-class="Curve Stroke ColorStrokeGray" data-item-index="none" data-renderer-id="0" transform="translate(614, 69)"><g id="cu_v6q6qt1rv0a2v-stroke" fill="none" stroke-linecap="round" stroke-linejoin="round" stroke-miterlimit="4" stroke="#888888" stroke-width="2" stroke-dasharray="5.0, 7.0"><g><path d="M 10 10L 10 40L 10 70L 19 70L 28 70"></path></g></g></g><g id="g-root-cu_v6q6qt1rv0a2x-stroke" data-item-order="1000000000" data-item-id="cu_v6q6qt1rv0a2x" data-item-class="Curve Stroke ColorStrokeGray" data-item-index="none" data-renderer-id="0" transform="translate(614, 69)"><g id="cu_v6q6qt1rv0a2x-stroke" fill="none" stroke-linecap="round" stroke-linejoin="round" stroke-miterlimit="4" stroke="#888888" stroke-width="2" stroke-dasharray="5.0, 7.0"><g><path d="M 10 10L 10 22L 10 94C 10.000004 100.627423 15.372587 106.000006 22.000005 106.000005L 22.1 106L 28 106"></path></g></g></g><g id="g-root-tx_mtriques_1d14ko51ruuneu-stroke" data-item-order="1000000000" data-item-id="tx_mtriques_1d14ko51ruuneu" data-item-class="Label Stroke" data-item-index="none" data-renderer-id="0" transform="translate(638, 81)"></g><g id="g-root-tx_journaux_1qcl31h1ruultv-stroke" data-item-order="1000000000" data-item-id="tx_journaux_1qcl31h1ruultv" data-item-class="Label Stroke" data-item-index="none" data-renderer-id="0" transform="translate(86, 105)"></g><g id="g-root-tx_surveill_1uua0f91ruqf4b-stroke" data-item-order="1000000000" data-item-id="tx_surveill_1uua0f91ruqf4b" data-item-class="Label Stroke" data-item-index="none" data-renderer-id="0" transform="translate(398, 105)"></g><g id="g-root-tx_tlmtrie_14641id1ruul1r-stroke" data-item-order="1000000000" data-item-id="tx_tlmtrie_14641id1ruul1r" data-item-class="Label Stroke" data-item-index="none" data-renderer-id="0" transform="translate(638, 117)"></g><g id="g-root-tx_niveauxd_1hgy2sl1ruummk-stroke" data-item-order="1000000000" data-item-id="tx_niveauxd_1hgy2sl1ruummk" data-item-class="Label Stroke" data-item-index="none" data-renderer-id="0" transform="translate(2, 141)"></g><g id="g-root-tx_alertese_zqajdx1ruulu0-stroke" data-item-order="1000000000" data-item-id="tx_alertese_zqajdx1ruulu0" data-item-class="Label Stroke" data-item-index="none" data-renderer-id="0" transform="translate(638, 153)"></g><g id="g-root-tx_formatag_1d14ko51ruunet-stroke" data-item-order="1000000000" data-item-id="tx_formatag_1d14ko51ruunet" data-item-class="Label Stroke" data-item-index="none" data-renderer-id="0" transform="translate(50, 177)"></g><g id="g-root-tx_journaux_3d6sl1rv07wq-stroke" data-item-order="1000000000" data-item-id="tx_journaux_3d6sl1rv07wq" data-item-class="Label Stroke" data-item-index="none" data-renderer-id="0" transform="translate(182, 18)"></g><g id="g-root-cu_1cy078l1rv07pc-stroke" data-item-order="1000000000" data-item-id="cu_1cy078l1rv07pc" data-item-class="Curve Stroke ColorStrokeGray" data-item-index="none" data-renderer-id="0" transform="translate(542, 42)"><g id="cu_1cy078l1rv07pc-stroke" fill="none" stroke-linecap="round" stroke-linejoin="round" stroke-miterlimit="4" stroke="#888888" stroke-width="2" stroke-dasharray="5.0, 7.0"><g><path d="M 10 45L 13 45L 13.1 45C 17.577866 44.972592 22.360217 43.214375 26.699999 40C 29.320119 38.118536 31.98143 33.561497 33.999999 27.499999C 36.018569 21.438502 38.67988 16.881462 41.299999 15C 45.63978 11.785625 50.422131 10.027407 54.899998 9.999999L 55 10L 58 10"></path></g></g></g></g></g></svg>