<?xml version="1.0" encoding="utf-8" standalone="yes"?>
<!DOCTYPE svg PUBLIC "-//W3C//DTD SVG 1.1//EN" "http://www.w3.org/Graphics/SVG/1.1/DTD/svg11.dtd">
<svg width="816" height="481" viewBox="0 0 816 481" style="fill:none;stroke:none;fill-rule:evenodd;clip-rule:evenodd;stroke-linecap:round;stroke-linejoin:round;stroke-miterlimit:1.5;" version="1.1" xmlns="http://www.w3.org/2000/svg" xmlns:xlink="http://www.w3.org/1999/xlink"><style id="fontImports">@import url("https://fonts.googleapis.com/css2?family=Roboto:wght@400;700&amp;display=block");</style><rect id="" x="0" y="0" width="816" height="481" style="fill: #ffffff;"></rect><g id="items" style="isolation: isolate"><g id="blend" style="mix-blend-mode:normal"><g id="g-root-ro_8vvk3p1s4u8si-fill" data-item-order="999974800" data-item-id="ro_8vvk3p1s4u8si" data-item-class="Shape Stroke Fill" data-item-index="none" data-renderer-id="0" transform="translate(290, 45)"><g id="ro_8vvk3p1s4u8si-fill" stroke="none" fill="#f0f0f0"><g><path d="M 34 10L 154 10C 154 10 178 10 178 34L 178 136C 178 136 178 160 154 160L 34 160C 34 160 10 160 10 136L 10 34C 10 34 10 10 34 10"></path></g></g></g><g id="g-root-ro_v6px8l1s52m13-fill" data-item-order="999990280" data-item-id="ro_v6px8l1s52m13" data-item-class="Shape Stroke Fill" data-item-index="none" data-renderer-id="0" transform="translate(506, 3)"><g id="ro_v6px8l1s52m13-fill" stroke="none" fill="#ffe7e6"><g><path d="M 22 10L 178 10C 178 10 190 10 190 22L 190 52C 190 52 190 64 178 64L 22 64C 22 64 10 64 10 52L 10 22C 10 22 10 10 22 10"></path></g></g></g><g id="g-root-ro_958oed1s4ztvn-fill" data-item-order="999991576" data-item-id="ro_958oed1s4ztvn" data-item-class="Shape Stroke Fill" data-item-index="none" data-renderer-id="0" transform="translate(296, 261)"><g id="ro_958oed1s4ztvn-fill" stroke="none" fill="#e9fbf3"><g><path d="M 22 10L 154 10C 154 10 166 10 166 22L 166 52C 166 52 166 64 154 64L 22 64C 22 64 10 64 10 52L 10 22C 10 22 10 10 22 10"></path></g></g></g><g id="g-root-ro_qs5dad1s542dn-fill" data-item-order="999992224" data-item-id="ro_qs5dad1s542dn" data-item-class="Shape Stroke Fill" data-item-index="none" data-renderer-id="0" transform="translate(98, 3)"><g id="ro_qs5dad1s542dn-fill" stroke="none" fill="#e6efff"><g><path d="M 22 10L 142 10C 142 10 154 10 154 22L 154 52C 154 52 154 64 142 64L 22 64C 22 64 10 64 10 52L 10 22C 10 22 10 10 22 10"></path></g></g></g><g id="g-root-cu_qs5dad1s542do-fill" data-item-order="1000000000" data-item-id="cu_qs5dad1s542do" data-item-class="Curve Stroke ColorStrokeGray" data-item-index="none" data-renderer-id="0" transform="translate(242, 30)"></g><g id="g-root-cu_mcbv5x1s54362-fill" data-item-order="1000000000" data-item-id="cu_mcbv5x1s54362" data-item-class="Curve Stroke ColorStrokeGray" data-item-index="none" data-renderer-id="0" transform="translate(458, 30)"></g><g id="g-root-tx_organism_18hjyit1s52nlx-fill" data-item-order="1000000000" data-item-id="tx_organism_18hjyit1s52nlx" data-item-class="Label Stroke" data-item-index="none" data-renderer-id="0" transform="translate(554, 18)"><g id="tx_organism_18hjyit1s52nlx-fill" stroke="none" fill="#e15e5a"><g><text style="font: 20px Roboto, sans-serif; white-space: pre;" font-weight="20px" font-size="Roboto," font-family="sans-serif"><tspan x="16.46" y="33.75" dominant-baseline="ideographic">Organismes</tspan></text></g></g></g><g id="g-root-cu_mcbv5x1s54365-fill" data-item-order="1000000000" data-item-id="cu_mcbv5x1s54365" data-item-class="Curve Stroke ColorStrokeGray" data-item-index="none" data-renderer-id="0" transform="translate(200, 57)"></g><g id="g-root-cu_hx4u4l1s540so-fill" data-item-order="1000000000" data-item-id="cu_hx4u4l1s540so" data-item-class="Curve Stroke ColorStrokeGray" data-item-index="none" data-renderer-id="0" transform="translate(200, 57)"></g><g id="g-root-cu_hx4u4l1s540sq-fill" data-item-order="1000000000" data-item-id="cu_hx4u4l1s540sq" data-item-class="Curve Stroke ColorStrokeGray" data-item-index="none" data-renderer-id="0" transform="translate(200, 57)"></g><g id="g-root-cu_dhbc051s541l0-fill" data-item-order="1000000000" data-item-id="cu_dhbc051s541l0" data-item-class="Curve Stroke ColorStrokeGray" data-item-index="none" data-renderer-id="0" transform="translate(200, 57)"></g><g id="g-root-cu_dhbc051s541l2-fill" data-item-order="1000000000" data-item-id="cu_dhbc051s541l2" data-item-class="Curve Stroke ColorStrokeGray" data-item-index="none" data-renderer-id="0" transform="translate(200, 57)"></g><g id="g-root-1_zlwy9x1s52oem-fill" data-item-order="1000000000" data-item-id="1_zlwy9x1s52oem" data-item-class="Icon Stroke" data-item-index="none" data-renderer-id="0" transform="translate(518, 15)"></g><g id="g-root-tx_boutons_v6px8l1s52m14-fill" data-item-order="1000000000" data-item-id="tx_boutons_v6px8l1s52m14" data-item-class="Label Stroke" data-item-index="none" data-renderer-id="0" transform="translate(110, 69)"><g id="tx_boutons_v6px8l1s52m14-fill" stroke="none" fill="#484848"><g><text style="font: 20px Roboto, sans-serif; white-space: pre;" font-weight="20px" font-size="Roboto," font-family="sans-serif"><tspan x="15.01" y="33.75" dominant-baseline="ideographic">Boutons</tspan></text></g></g></g><g id="g-root-play_8vvk3p1s4u8sh-fill" data-item-order="1000000000" data-item-id="play_8vvk3p1s4u8sh" data-item-class="Icon Stroke" data-item-index="none" data-renderer-id="0" transform="translate(350, 69)"></g><g id="g-root-cu_4lobr91s5435t-fill" data-item-order="1000000000" data-item-id="cu_4lobr91s5435t" data-item-class="Curve Stroke ColorStrokeGray" data-item-index="none" data-renderer-id="0" transform="translate(530, 57)"></g><g id="g-root-cu_4lobr91s5435w-fill" data-item-order="1000000000" data-item-id="cu_4lobr91s5435w" data-item-class="Curve Stroke ColorStrokeGray" data-item-index="none" data-renderer-id="0" transform="translate(530, 57)"></g><g id="g-root-cu_4lobr91s5435y-fill" data-item-order="1000000000" data-item-id="cu_4lobr91s5435y" data-item-class="Curve Stroke ColorStrokeGray" data-item-index="none" data-renderer-id="0" transform="translate(530, 57)"></g><g id="g-root-cu_6hapx1s540sg-fill" data-item-order="1000000000" data-item-id="cu_6hapx1s540sg" data-item-class="Curve Stroke ColorStrokeGray" data-item-index="none" data-renderer-id="0" transform="translate(530, 57)"></g><g id="g-root-cu_6hapx1s540si-fill" data-item-order="1000000000" data-item-id="cu_6hapx1s540si" data-item-class="Curve Stroke ColorStrokeGray" data-item-index="none" data-renderer-id="0" transform="translate(530, 57)"></g><g id="g-root-tx_datatabl_1upwfb91s52nep-fill" data-item-order="1000000000" data-item-id="tx_datatabl_1upwfb91s52nep" data-item-class="Label Stroke" data-item-index="none" data-renderer-id="0" transform="translate(554, 69)"><g id="tx_datatabl_1upwfb91s52nep-fill" stroke="none" fill="#484848"><g><text style="font: 20px Roboto, sans-serif; white-space: pre;" font-weight="20px" font-size="Roboto," font-family="sans-serif"><tspan x="13.95" y="33.75" dominant-baseline="ideographic">DataTables</tspan></text></g></g></g><g id="g-root-tx_inputs_qqwf451s52mtd-fill" data-item-order="1000000000" data-item-id="tx_inputs_qqwf451s52mtd" data-item-class="Label Stroke" data-item-index="none" data-renderer-id="0" transform="translate(134, 105)"><g id="tx_inputs_qqwf451s52mtd-fill" stroke="none" fill="#484848"><g><text style="font: 20px Roboto, sans-serif; white-space: pre;" font-weight="20px" font-size="Roboto," font-family="sans-serif"><tspan x="12.22" y="33.75" dominant-baseline="ideographic">Inputs</tspan></text></g></g></g><g id="g-root-tx_modals_1lu9f2d1s52o7e-fill" data-item-order="1000000000" data-item-id="tx_modals_1lu9f2d1s52o7e" data-item-class="Label Stroke" data-item-index="none" data-renderer-id="0" transform="translate(554, 105)"><g id="tx_modals_1lu9f2d1s52o7e-fill" stroke="none" fill="#484848"><g><text style="font: 20px Roboto, sans-serif; white-space: pre;" font-weight="20px" font-size="Roboto," font-family="sans-serif"><tspan x="12.9" y="33.75" dominant-baseline="ideographic">Modals</tspan></text></g></g></g><g id="g-root-tx_composan_m7c2h11s4u77k-fill" data-item-order="1000000000" data-item-id="tx_composan_m7c2h11s4u77k" data-item-class="Label Stroke" data-item-index="none" data-renderer-id="0" transform="translate(314, 123)"><g id="tx_composan_m7c2h11s4u77k-fill" stroke="none" fill="#484848"><g><text style="font: 20px Roboto, sans-serif; white-space: pre;" font-weight="20px" font-size="Roboto," font-family="sans-serif"><tspan x="11.84" y="33.75" dominant-baseline="ideographic">Composants </tspan><tspan x="59.45" y="57.75" dominant-baseline="ideographic">UI</tspan></text></g></g></g><g id="g-root-tx_labels_hv9ev91s52nm2-fill" data-item-order="1000000000" data-item-id="tx_labels_hv9ev91s52nm2" data-item-class="Label Stroke" data-item-index="none" data-renderer-id="0" transform="translate(122, 141)"><g id="tx_labels_hv9ev91s52nm2-fill" stroke="none" fill="#484848"><g><text style="font: 20px Roboto, sans-serif; white-space: pre;" font-weight="20px" font-size="Roboto," font-family="sans-serif"><tspan x="16.68" y="33.75" dominant-baseline="ideographic">Labels</tspan></text></g></g></g><g id="g-root-tx_wizards_1lu9f2d1s52o7f-fill" data-item-order="1000000000" data-item-id="tx_wizards_1lu9f2d1s52o7f" data-item-class="Label Stroke" data-item-index="none" data-renderer-id="0" transform="translate(554, 141)"><g id="tx_wizards_1lu9f2d1s52o7f-fill" stroke="none" fill="#484848"><g><text style="font: 20px Roboto, sans-serif; white-space: pre;" font-weight="20px" font-size="Roboto," font-family="sans-serif"><tspan x="16.22" y="33.75" dominant-baseline="ideographic">Wizards</tspan></text></g></g></g><g id="g-root-tx_lmentsui_dffwqt1s52oeb-fill" data-item-order="1000000000" data-item-id="tx_lmentsui_dffwqt1s52oeb" data-item-class="Label Stroke" data-item-index="none" data-renderer-id="0" transform="translate(2, 177)"><g id="tx_lmentsui_dffwqt1s52oeb-fill" stroke="none" fill="#484848"><g><text style="font: 20px Roboto, sans-serif; white-space: pre;" font-weight="20px" font-size="Roboto," font-family="sans-serif"><tspan x="15.51" y="33.75" dominant-baseline="ideographic">Éléments UI de base</tspan></text></g></g></g><g id="g-root-tx_composan_1hf2e111s52ltw-fill" data-item-order="1000000000" data-item-id="tx_composan_1hf2e111s52ltw" data-item-class="Label Stroke" data-item-index="none" data-renderer-id="0" transform="translate(554, 177)"><g id="tx_composan_1hf2e111s52ltw-fill" stroke="none" fill="#484848"><g><text style="font: 20px Roboto, sans-serif; white-space: pre;" font-weight="20px" font-size="Roboto," font-family="sans-serif"><tspan x="14.43" y="33.75" dominant-baseline="ideographic">Composants autonomes</tspan></text></g></g></g><g id="g-root-cu_mcbv5x1s5435z-fill" data-item-order="1000000000" data-item-id="cu_mcbv5x1s5435z" data-item-class="Curve Stroke ColorStrokeGray" data-item-index="none" data-renderer-id="0" transform="translate(374, 195)"></g><g id="g-root-tx_sansdpen_dffwqt1s52oec-fill" data-item-order="1000000000" data-item-id="tx_sansdpen_dffwqt1s52oec" data-item-class="Label Stroke" data-item-index="none" data-renderer-id="0" transform="translate(14, 213)"><g id="tx_sansdpen_dffwqt1s52oec-fill" stroke="none" fill="#484848"><g><text style="font: 20px Roboto, sans-serif; white-space: pre;" font-weight="20px" font-size="Roboto," font-family="sans-serif"><tspan x="15.83" y="33.75" dominant-baseline="ideographic">Sans dépendances</tspan></text></g></g></g><g id="g-root-tx_fonction_1hf2e111s52ltx-fill" data-item-order="1000000000" data-item-id="tx_fonction_1hf2e111s52ltx" data-item-class="Label Stroke" data-item-index="none" data-renderer-id="0" transform="translate(554, 213)"><g id="tx_fonction_1hf2e111s52ltx-fill" stroke="none" fill="#484848"><g><text style="font: 20px Roboto, sans-serif; white-space: pre;" font-weight="20px" font-size="Roboto," font-family="sans-serif"><tspan x="12.44" y="33.75" dominant-baseline="ideographic">Fonctionnalités complètes</tspan></text></g></g></g><g id="g-root-asta_znsdj91s541ky-fill" data-item-order="1000000000" data-item-id="asta_znsdj91s541ky" data-item-class="Icon Stroke" data-item-index="none" data-renderer-id="0" transform="translate(200, 15)"></g><g id="g-root-mole_dl26it1s4zt3e-fill" data-item-order="1000000000" data-item-id="mole_dl26it1s4zt3e" data-item-class="Icon Stroke" data-item-index="none" data-renderer-id="0" transform="translate(308, 273)"></g><g id="g-root-tx_molcules_mg2pol1s4zvgh-fill" data-item-order="1000000000" data-item-id="tx_molcules_mg2pol1s4zvgh" data-item-class="Label Stroke" data-item-index="none" data-renderer-id="0" transform="translate(344, 276)"><g id="tx_molcules_mg2pol1s4zvgh-fill" stroke="none" fill="#3bc482"><g><text style="font: 20px Roboto, sans-serif; white-space: pre;" font-weight="20px" font-size="Roboto," font-family="sans-serif"><tspan x="12.21" y="33.75" dominant-baseline="ideographic">Molécules</tspan></text></g></g></g><g id="g-root-cu_dhbc051s541l4-fill" data-item-order="1000000000" data-item-id="cu_dhbc051s541l4" data-item-class="Curve Stroke ColorStrokeGray" data-item-index="none" data-renderer-id="0" transform="translate(320, 315)"></g><g id="g-root-cu_91htvp1s542df-fill" data-item-order="1000000000" data-item-id="cu_91htvp1s542df" data-item-class="Curve Stroke ColorStrokeGray" data-item-index="none" data-renderer-id="0" transform="translate(320, 315)"></g><g id="g-root-cu_91htvp1s542dh-fill" data-item-order="1000000000" data-item-id="cu_91htvp1s542dh" data-item-class="Curve Stroke ColorStrokeGray" data-item-index="none" data-renderer-id="0" transform="translate(320, 315)"></g><g id="g-root-cu_91htvp1s542dj-fill" data-item-order="1000000000" data-item-id="cu_91htvp1s542dj" data-item-class="Curve Stroke ColorStrokeGray" data-item-index="none" data-renderer-id="0" transform="translate(320, 315)"></g><g id="g-root-tx_formulai_4kfdl11s52m19-fill" data-item-order="1000000000" data-item-id="tx_formulai_4kfdl11s52m19" data-item-class="Label Stroke" data-item-index="none" data-renderer-id="0" transform="translate(344, 327)"><g id="tx_formulai_4kfdl11s52m19-fill" stroke="none" fill="#484848"><g><text style="font: 20px Roboto, sans-serif; white-space: pre;" font-weight="20px" font-size="Roboto," font-family="sans-serif"><tspan x="17.17" y="33.75" dominant-baseline="ideographic">Formulaires</tspan></text></g></g></g><g id="g-root-tx_cards_4kfdl11s52m1a-fill" data-item-order="1000000000" data-item-id="tx_cards_4kfdl11s52m1a" data-item-class="Label Stroke" data-item-index="none" data-renderer-id="0" transform="translate(344, 363)"><g id="tx_cards_4kfdl11s52m1a-fill" stroke="none" fill="#484848"><g><text style="font: 20px Roboto, sans-serif; white-space: pre;" font-weight="20px" font-size="Roboto," font-family="sans-serif"><tspan x="13.96" y="33.75" dominant-baseline="ideographic">Cards</tspan></text></g></g></g><g id="g-root-tx_listes_4lvgl1s52mtj-fill" data-item-order="1000000000" data-item-id="tx_listes_4lvgl1s52mtj" data-item-class="Label Stroke" data-item-index="none" data-renderer-id="0" transform="translate(344, 399)"><g id="tx_listes_4lvgl1s52mtj-fill" stroke="none" fill="#484848"><g><text style="font: 20px Roboto, sans-serif; white-space: pre;" font-weight="20px" font-size="Roboto," font-family="sans-serif"><tspan x="13.31" y="33.75" dominant-baseline="ideographic">Listes</tspan></text></g></g></g><g id="g-root-tx_atomes_1cymeth1s5435t-fill" data-item-order="1000000000" data-item-id="tx_atomes_1cymeth1s5435t" data-item-class="Label Stroke" data-item-index="none" data-renderer-id="0" transform="translate(110, 18)"><g id="tx_atomes_1cymeth1s5435t-fill" stroke="none" fill="#4682e3"><g><text style="font: 20px Roboto, sans-serif; white-space: pre;" font-weight="20px" font-size="Roboto," font-family="sans-serif"><tspan x="17.47" y="33.75" dominant-baseline="ideographic">Atomes</tspan></text></g></g></g><g id="g-root-tx_patterns_1upwfb91s52neo-fill" data-item-order="1000000000" data-item-id="tx_patterns_1upwfb91s52neo" data-item-class="Label Stroke" data-item-index="none" data-renderer-id="0" transform="translate(344, 435)"><g id="tx_patterns_1upwfb91s52neo-fill" stroke="none" fill="#484848"><g><text style="font: 20px Roboto, sans-serif; white-space: pre;" font-weight="20px" font-size="Roboto," font-family="sans-serif"><tspan x="12.2" y="33.75" dominant-baseline="ideographic">Patterns réutilisables</tspan></text></g></g></g><g id="g-root-ro_8vvk3p1s4u8si-stroke" data-item-order="999974800" data-item-id="ro_8vvk3p1s4u8si" data-item-class="Shape Stroke Fill" data-item-index="none" data-renderer-id="0" transform="translate(290, 45)"><g id="ro_8vvk3p1s4u8si-stroke" fill="none" stroke-linecap="round" stroke-linejoin="round" stroke-miterlimit="4" stroke="#484848" stroke-width="2"><g><path d="M 34 10L 154 10C 154 10 178 10 178 34L 178 136C 178 136 178 160 154 160L 34 160C 34 160 10 160 10 136L 10 34C 10 34 10 10 34 10"></path></g></g></g><g id="g-root-ro_v6px8l1s52m13-stroke" data-item-order="999990280" data-item-id="ro_v6px8l1s52m13" data-item-class="Shape Stroke Fill" data-item-index="none" data-renderer-id="0" transform="translate(506, 3)"><g id="ro_v6px8l1s52m13-stroke" fill="none" stroke-linecap="round" stroke-linejoin="round" stroke-miterlimit="4" stroke="#e15e5a" stroke-width="2"><g><path d="M 22 10L 178 10C 178 10 190 10 190 22L 190 52C 190 52 190 64 178 64L 22 64C 22 64 10 64 10 52L 10 22C 10 22 10 10 22 10"></path></g></g></g><g id="g-root-ro_958oed1s4ztvn-stroke" data-item-order="999991576" data-item-id="ro_958oed1s4ztvn" data-item-class="Shape Stroke Fill" data-item-index="none" data-renderer-id="0" transform="translate(296, 261)"><g id="ro_958oed1s4ztvn-stroke" fill="none" stroke-linecap="round" stroke-linejoin="round" stroke-miterlimit="4" stroke="#3bc482" stroke-width="2"><g><path d="M 22 10L 154 10C 154 10 166 10 166 22L 166 52C 166 52 166 64 154 64L 22 64C 22 64 10 64 10 52L 10 22C 10 22 10 10 22 10"></path></g></g></g><g id="g-root-ro_qs5dad1s542dn-stroke" data-item-order="999992224" data-item-id="ro_qs5dad1s542dn" data-item-class="Shape Stroke Fill" data-item-index="none" data-renderer-id="0" transform="translate(98, 3)"><g id="ro_qs5dad1s542dn-stroke" fill="none" stroke-linecap="round" stroke-linejoin="round" stroke-miterlimit="4" stroke="#4682e3" stroke-width="2"><g><path d="M 22 10L 142 10C 142 10 154 10 154 22L 154 52C 154 52 154 64 142 64L 22 64C 22 64 10 64 10 52L 10 22C 10 22 10 10 22 10"></path></g></g></g><g id="g-root-cu_qs5dad1s542do-stroke" data-item-order="1000000000" data-item-id="cu_qs5dad1s542do" data-item-class="Curve Stroke ColorStrokeGray" data-item-index="none" data-renderer-id="0" transform="translate(242, 30)"><g id="cu_qs5dad1s542do-stroke" fill="none" stroke-linecap="round" stroke-linejoin="round" stroke-miterlimit="4" stroke="#888888" stroke-width="2" stroke-dasharray="5.0, 7.0"><g><path d="M 58 75L 55 75L 54.9 75C 43.357246 74.999995 33.999999 65.642747 33.999998 54.099997L 34 54L 34 30.9C 33.999998 19.357248 24.64275 10 13.1 10L 13 10L 10 10"></path></g></g></g><g id="g-root-cu_mcbv5x1s54362-stroke" data-item-order="1000000000" data-item-id="cu_mcbv5x1s54362" data-item-class="Curve Stroke ColorStrokeGray" data-item-index="none" data-renderer-id="0" transform="translate(458, 30)"><g id="cu_mcbv5x1s54362-stroke" fill="none" stroke-linecap="round" stroke-linejoin="round" stroke-miterlimit="4" stroke="#888888" stroke-width="2" stroke-dasharray="5.0, 7.0"><g><path d="M 10 75L 13 75L 13.1 75C 24.642754 74.999998 34.000002 65.642749 34.000001 54.099998L 34 54L 34 30.9C 33.999999 19.357249 43.357248 10.000001 54.899999 10.000002L 55 10L 58 10"></path></g></g></g><g id="g-root-tx_organism_18hjyit1s52nlx-stroke" data-item-order="1000000000" data-item-id="tx_organism_18hjyit1s52nlx" data-item-class="Label Stroke" data-item-index="none" data-renderer-id="0" transform="translate(554, 18)"></g><g id="g-root-cu_mcbv5x1s54365-stroke" data-item-order="1000000000" data-item-id="cu_mcbv5x1s54365" data-item-class="Curve Stroke ColorStrokeGray" data-item-index="none" data-renderer-id="0" transform="translate(200, 57)"><g id="cu_mcbv5x1s54365-stroke" fill="none" stroke-linecap="round" stroke-linejoin="round" stroke-miterlimit="4" stroke="#888888" stroke-width="2" stroke-dasharray="5.0, 7.0"><g><path d="M 28 10L 28 22L 28 34L 19 34L 10 34"></path></g></g></g><g id="g-root-cu_hx4u4l1s540so-stroke" data-item-order="1000000000" data-item-id="cu_hx4u4l1s540so" data-item-class="Curve Stroke ColorStrokeGray" data-item-index="none" data-renderer-id="0" transform="translate(200, 57)"><g id="cu_hx4u4l1s540so-stroke" fill="none" stroke-linecap="round" stroke-linejoin="round" stroke-miterlimit="4" stroke="#888888" stroke-width="2" stroke-dasharray="5.0, 7.0"><g><path d="M 28 10L 28 40L 28 70L 19 70L 10 70"></path></g></g></g><g id="g-root-cu_hx4u4l1s540sq-stroke" data-item-order="1000000000" data-item-id="cu_hx4u4l1s540sq" data-item-class="Curve Stroke ColorStrokeGray" data-item-index="none" data-renderer-id="0" transform="translate(200, 57)"><g id="cu_hx4u4l1s540sq-stroke" fill="none" stroke-linecap="round" stroke-linejoin="round" stroke-miterlimit="4" stroke="#888888" stroke-width="2" stroke-dasharray="5.0, 7.0"><g><path d="M 28 10L 28 58L 28 106L 19 106L 10 106"></path></g></g></g><g id="g-root-cu_dhbc051s541l0-stroke" data-item-order="1000000000" data-item-id="cu_dhbc051s541l0" data-item-class="Curve Stroke ColorStrokeGray" data-item-index="none" data-renderer-id="0" transform="translate(200, 57)"><g id="cu_dhbc051s541l0-stroke" fill="none" stroke-linecap="round" stroke-linejoin="round" stroke-miterlimit="4" stroke="#888888" stroke-width="2" stroke-dasharray="5.0, 7.0"><g><path d="M 28 10L 28 76L 28 142L 19 142L 10 142"></path></g></g></g><g id="g-root-cu_dhbc051s541l2-stroke" data-item-order="1000000000" data-item-id="cu_dhbc051s541l2" data-item-class="Curve Stroke ColorStrokeGray" data-item-index="none" data-renderer-id="0" transform="translate(200, 57)"><g id="cu_dhbc051s541l2-stroke" fill="none" stroke-linecap="round" stroke-linejoin="round" stroke-miterlimit="4" stroke="#888888" stroke-width="2" stroke-dasharray="5.0, 7.0"><g><path d="M 28 10L 28 31L 28 166C 28.000011 172.627427 22.627428 178.000011 16.00001 178.000011L 15.9 178L 10 178"></path></g></g></g><g id="g-root-1_zlwy9x1s52oem-stroke" data-item-order="1000000000" data-item-id="1_zlwy9x1s52oem" data-item-class="Icon Stroke" data-item-index="none" data-renderer-id="0" transform="translate(518, 15)"><g id="1_zlwy9x1s52oem-stroke" fill="none" stroke-linecap="round" stroke-linejoin="round" stroke-miterlimit="4" stroke="#e15e5a" stroke-width="2"><g><path d="M 10 10M 17.5 22.1875L 25 27.8125L 32.5 22.1875M 25 27.8125L 25 34.0625M 17.5 22.1875C 17.050953 19.917244 17.626041 17.564505 19.071735 15.757388C 20.517429 13.950272 22.686546 12.872755 24.999998 12.8125C 27.312006 12.876637 29.478582 13.95518 30.923439 15.761249C 32.368294 17.567318 32.944939 19.917805 32.499996 22.187498M 32.5 22.1875C 36.129185 22.836348 38.766232 26.000803 38.75 29.6875C 38.75 33.829636 35.392136 37.1875 31.25 37.1875C 28.766376 37.297031 26.40255 36.115116 25 34.0625M 25 34.0625C 23.584473 36.100189 21.229465 37.277687 18.75 37.187496C 14.607864 37.1875 11.25 33.829636 11.25 29.6875C 11.234791 26.001171 13.87136 22.837288 17.5 22.1875"></path></g></g></g><g id="g-root-tx_boutons_v6px8l1s52m14-stroke" data-item-order="1000000000" data-item-id="tx_boutons_v6px8l1s52m14" data-item-class="Label Stroke" data-item-index="none" data-renderer-id="0" transform="translate(110, 69)"></g><g id="g-root-play_8vvk3p1s4u8sh-stroke" data-item-order="1000000000" data-item-id="play_8vvk3p1s4u8sh" data-item-class="Icon Stroke" data-item-index="none" data-renderer-id="0" transform="translate(350, 69)"><g id="play_8vvk3p1s4u8sh-stroke" fill="none" stroke-linecap="round" stroke-linejoin="round" stroke-miterlimit="4" stroke="#484848" stroke-width="2"><g><path d="M 32.529999 43.956001C 32.221733 43.763332 31.833185 43.753128 31.51523 43.929356C 31.197275 44.105583 31 44.440475 31 44.804001L 31 51.203999C 31 51.567524 31.197275 51.90242 31.51523 52.078644C 31.833185 52.254871 32.221733 52.244667 32.529999 52.051998L 37.643997 48.852001C 37.936382 48.669262 38.114006 48.348793 38.114006 48.004002C 38.114006 47.65921 37.936382 47.338737 37.643997 47.155998ZM 13 11L 55 11C 55 11 57 11 57 13L 57 55C 57 55 57 57 55 57L 13 57C 13 57 11 57 11 55L 11 13C 11 13 11 11 13 11M 48 46L 51 49L 48 52M 43 46L 46 49L 43 52M 20 52L 17 49L 20 46M 25 52L 22 49L 25 46M 17 39L 17 17L 51 17L 51 39Z"></path></g></g></g><g id="g-root-cu_4lobr91s5435t-stroke" data-item-order="1000000000" data-item-id="cu_4lobr91s5435t" data-item-class="Curve Stroke ColorStrokeGray" data-item-index="none" data-renderer-id="0" transform="translate(530, 57)"><g id="cu_4lobr91s5435t-stroke" fill="none" stroke-linecap="round" stroke-linejoin="round" stroke-miterlimit="4" stroke="#888888" stroke-width="2" stroke-dasharray="5.0, 7.0"><g><path d="M 10 10L 10 22L 10 34L 19 34L 28 34"></path></g></g></g><g id="g-root-cu_4lobr91s5435w-stroke" data-item-order="1000000000" data-item-id="cu_4lobr91s5435w" data-item-class="Curve Stroke ColorStrokeGray" data-item-index="none" data-renderer-id="0" transform="translate(530, 57)"><g id="cu_4lobr91s5435w-stroke" fill="none" stroke-linecap="round" stroke-linejoin="round" stroke-miterlimit="4" stroke="#888888" stroke-width="2" stroke-dasharray="5.0, 7.0"><g><path d="M 10 10L 10 40L 10 70L 19 70L 28 70"></path></g></g></g><g id="g-root-cu_4lobr91s5435y-stroke" data-item-order="1000000000" data-item-id="cu_4lobr91s5435y" data-item-class="Curve Stroke ColorStrokeGray" data-item-index="none" data-renderer-id="0" transform="translate(530, 57)"><g id="cu_4lobr91s5435y-stroke" fill="none" stroke-linecap="round" stroke-linejoin="round" stroke-miterlimit="4" stroke="#888888" stroke-width="2" stroke-dasharray="5.0, 7.0"><g><path d="M 10 10L 10 58L 10 106L 19 106L 28 106"></path></g></g></g><g id="g-root-cu_6hapx1s540sg-stroke" data-item-order="1000000000" data-item-id="cu_6hapx1s540sg" data-item-class="Curve Stroke ColorStrokeGray" data-item-index="none" data-renderer-id="0" transform="translate(530, 57)"><g id="cu_6hapx1s540sg-stroke" fill="none" stroke-linecap="round" stroke-linejoin="round" stroke-miterlimit="4" stroke="#888888" stroke-width="2" stroke-dasharray="5.0, 7.0"><g><path d="M 10 10L 10 76L 10 142L 19 142L 28 142"></path></g></g></g><g id="g-root-cu_6hapx1s540si-stroke" data-item-order="1000000000" data-item-id="cu_6hapx1s540si" data-item-class="Curve Stroke ColorStrokeGray" data-item-index="none" data-renderer-id="0" transform="translate(530, 57)"><g id="cu_6hapx1s540si-stroke" fill="none" stroke-linecap="round" stroke-linejoin="round" stroke-miterlimit="4" stroke="#888888" stroke-width="2" stroke-dasharray="5.0, 7.0"><g><path d="M 10 10L 10 31L 10 166C 10 172.627425 15.372584 178.000009 22.000001 178.000008L 22.1 178L 28 178"></path></g></g></g><g id="g-root-tx_datatabl_1upwfb91s52nep-stroke" data-item-order="1000000000" data-item-id="tx_datatabl_1upwfb91s52nep" data-item-class="Label Stroke" data-item-index="none" data-renderer-id="0" transform="translate(554, 69)"></g><g id="g-root-tx_inputs_qqwf451s52mtd-stroke" data-item-order="1000000000" data-item-id="tx_inputs_qqwf451s52mtd" data-item-class="Label Stroke" data-item-index="none" data-renderer-id="0" transform="translate(134, 105)"></g><g id="g-root-tx_modals_1lu9f2d1s52o7e-stroke" data-item-order="1000000000" data-item-id="tx_modals_1lu9f2d1s52o7e" data-item-class="Label Stroke" data-item-index="none" data-renderer-id="0" transform="translate(554, 105)"></g><g id="g-root-tx_composan_m7c2h11s4u77k-stroke" data-item-order="1000000000" data-item-id="tx_composan_m7c2h11s4u77k" data-item-class="Label Stroke" data-item-index="none" data-renderer-id="0" transform="translate(314, 123)"></g><g id="g-root-tx_labels_hv9ev91s52nm2-stroke" data-item-order="1000000000" data-item-id="tx_labels_hv9ev91s52nm2" data-item-class="Label Stroke" data-item-index="none" data-renderer-id="0" transform="translate(122, 141)"></g><g id="g-root-tx_wizards_1lu9f2d1s52o7f-stroke" data-item-order="1000000000" data-item-id="tx_wizards_1lu9f2d1s52o7f" data-item-class="Label Stroke" data-item-index="none" data-renderer-id="0" transform="translate(554, 141)"></g><g id="g-root-tx_lmentsui_dffwqt1s52oeb-stroke" data-item-order="1000000000" data-item-id="tx_lmentsui_dffwqt1s52oeb" data-item-class="Label Stroke" data-item-index="none" data-renderer-id="0" transform="translate(2, 177)"></g><g id="g-root-tx_composan_1hf2e111s52ltw-stroke" data-item-order="1000000000" data-item-id="tx_composan_1hf2e111s52ltw" data-item-class="Label Stroke" data-item-index="none" data-renderer-id="0" transform="translate(554, 177)"></g><g id="g-root-cu_mcbv5x1s5435z-stroke" data-item-order="1000000000" data-item-id="cu_mcbv5x1s5435z" data-item-class="Curve Stroke ColorStrokeGray" data-item-index="none" data-renderer-id="0" transform="translate(374, 195)"><g id="cu_mcbv5x1s5435z-stroke" fill="none" stroke-linecap="round" stroke-linejoin="round" stroke-miterlimit="4" stroke="#888888" stroke-width="2" stroke-dasharray="5.0, 7.0"><g><path d="M 10 10L 10 43L 10 76"></path></g></g></g><g id="g-root-tx_sansdpen_dffwqt1s52oec-stroke" data-item-order="1000000000" data-item-id="tx_sansdpen_dffwqt1s52oec" data-item-class="Label Stroke" data-item-index="none" data-renderer-id="0" transform="translate(14, 213)"></g><g id="g-root-tx_fonction_1hf2e111s52ltx-stroke" data-item-order="1000000000" data-item-id="tx_fonction_1hf2e111s52ltx" data-item-class="Label Stroke" data-item-index="none" data-renderer-id="0" transform="translate(554, 213)"></g><g id="g-root-asta_znsdj91s541ky-stroke" data-item-order="1000000000" data-item-id="asta_znsdj91s541ky" data-item-class="Icon Stroke" data-item-index="none" data-renderer-id="0" transform="translate(200, 15)"><g id="asta_znsdj91s541ky-stroke" fill="none" stroke-linecap="round" stroke-linejoin="round" stroke-miterlimit="4" stroke="#4682e3" stroke-width="2"><g><path d="M 11.875 10.625L 38.125 10.625C 38.125 10.625 39.375 10.625 39.375 11.875L 39.375 38.125C 39.375 38.125 39.375 39.375 38.125 39.375L 11.875 39.375C 11.875 39.375 10.625 39.375 10.625 38.125L 10.625 11.875C 10.625 11.875 10.625 10.625 11.875 10.625M 18.75 33.75L 31.25 33.75M 17.5 30.625L 20.084999 20.285C 20.218218 19.750084 20.698746 19.374739 21.249998 19.375L 21.25 19.375C 21.799999 19.375 22.28125 19.75 22.415001 20.285L 25 30.625M 18.4375 26.875L 24.0625 26.875M 28.90625 19.375L 28.90625 28.75C 28.90625 29.785534 29.745716 30.625 30.78125 30.625M 26.5625 22.1875L 31.25 22.1875"></path></g></g></g><g id="g-root-mole_dl26it1s4zt3e-stroke" data-item-order="1000000000" data-item-id="mole_dl26it1s4zt3e" data-item-class="Icon Stroke" data-item-index="none" data-renderer-id="0" transform="translate(308, 273)"><g id="mole_dl26it1s4zt3e-stroke" fill="none" stroke-linecap="round" stroke-linejoin="round" stroke-miterlimit="4" stroke="#3bc482" stroke-width="2"><g><path d="M 27.5 21.875L 23.991249 21.875C 23.586672 21.842566 23.188227 21.989229 22.901228 22.276228C 22.614229 22.563227 22.467566 22.961672 22.500002 23.366251C 22.5 25 27.5 26.25 27.5 27.883751C 27.507193 28.281418 27.35239 28.664915 27.071152 28.946152C 26.789915 29.22739 26.406416 29.382193 26.008751 29.375002L 22.5 29.375M 25 21.875L 25 20M 25 31.25L 25 29.375M 13.75 20.625L 13.75 29.375M 23.125 12.5C 23.125 13.535534 23.964466 14.375 25 14.375C 26.035534 14.375 26.875 13.535534 26.875 12.5C 26.875 11.464466 26.035534 10.625 25 10.625C 23.964466 10.625 23.125 11.464466 23.125 12.5ZM 11.875 18.75C 11.875 19.785534 12.714466 20.625 13.75 20.625C 14.785534 20.625 15.625 19.785534 15.625 18.75C 15.625 17.714466 14.785534 16.875 13.75 16.875C 12.714466 16.875 11.875 17.714466 11.875 18.75ZM 11.875 31.25C 11.875 32.285534 12.714466 33.125 13.75 33.125C 14.785534 33.125 15.625 32.285534 15.625 31.25C 15.625 30.214466 14.785534 29.375002 13.75 29.375002C 12.714466 29.375002 11.875 30.214466 11.875 31.25ZM 34.375 18.75C 34.375 19.785534 35.214466 20.625 36.25 20.625C 37.285534 20.625 38.125 19.785534 38.125 18.75C 38.125 17.714466 37.285534 16.875 36.25 16.875C 35.214466 16.875 34.375 17.714466 34.375 18.75ZM 34.375 31.25C 34.375 32.285534 35.214466 33.125 36.25 33.125C 37.285534 33.125 38.125 32.285534 38.125 31.25C 38.125 30.214466 37.285534 29.375002 36.25 29.375002C 35.214466 29.375002 34.375 30.214466 34.375 31.25ZM 23.125 37.5C 23.125 38.535534 23.964466 39.375 25 39.375C 26.035534 39.375 26.875 38.535534 26.875 37.5C 26.875 36.464466 26.035534 35.625 25 35.625C 23.964466 35.625 23.125 36.464466 23.125 37.5ZM 15.38875 32.161251L 23.36125 36.588749M 26.63875 36.588749L 34.611248 32.161251M 36.25 29.375L 36.25 20.625M 34.611248 17.838749L 26.63875 13.41125M 23.36125 13.41125L 15.38875 17.838749"></path></g></g></g><g id="g-root-tx_molcules_mg2pol1s4zvgh-stroke" data-item-order="1000000000" data-item-id="tx_molcules_mg2pol1s4zvgh" data-item-class="Label Stroke" data-item-index="none" data-renderer-id="0" transform="translate(344, 276)"></g><g id="g-root-cu_dhbc051s541l4-stroke" data-item-order="1000000000" data-item-id="cu_dhbc051s541l4" data-item-class="Curve Stroke ColorStrokeGray" data-item-index="none" data-renderer-id="0" transform="translate(320, 315)"><g id="cu_dhbc051s541l4-stroke" fill="none" stroke-linecap="round" stroke-linejoin="round" stroke-miterlimit="4" stroke="#888888" stroke-width="2" stroke-dasharray="5.0, 7.0"><g><path d="M 10 10L 10 22L 10 34L 19 34L 28 34"></path></g></g></g><g id="g-root-cu_91htvp1s542df-stroke" data-item-order="1000000000" data-item-id="cu_91htvp1s542df" data-item-class="Curve Stroke ColorStrokeGray" data-item-index="none" data-renderer-id="0" transform="translate(320, 315)"><g id="cu_91htvp1s542df-stroke" fill="none" stroke-linecap="round" stroke-linejoin="round" stroke-miterlimit="4" stroke="#888888" stroke-width="2" stroke-dasharray="5.0, 7.0"><g><path d="M 10 10L 10 40L 10 70L 19 70L 28 70"></path></g></g></g><g id="g-root-cu_91htvp1s542dh-stroke" data-item-order="1000000000" data-item-id="cu_91htvp1s542dh" data-item-class="Curve Stroke ColorStrokeGray" data-item-index="none" data-renderer-id="0" transform="translate(320, 315)"><g id="cu_91htvp1s542dh-stroke" fill="none" stroke-linecap="round" stroke-linejoin="round" stroke-miterlimit="4" stroke="#888888" stroke-width="2" stroke-dasharray="5.0, 7.0"><g><path d="M 10 10L 10 58L 10 106L 19 106L 28 106"></path></g></g></g><g id="g-root-cu_91htvp1s542dj-stroke" data-item-order="1000000000" data-item-id="cu_91htvp1s542dj" data-item-class="Curve Stroke ColorStrokeGray" data-item-index="none" data-renderer-id="0" transform="translate(320, 315)"><g id="cu_91htvp1s542dj-stroke" fill="none" stroke-linecap="round" stroke-linejoin="round" stroke-miterlimit="4" stroke="#888888" stroke-width="2" stroke-dasharray="5.0, 7.0"><g><path d="M 10 10L 10 26.5L 10 130C 10.000005 136.627425 15.372589 142.000008 22.000006 142.000007L 22.1 142L 28 142"></path></g></g></g><g id="g-root-tx_formulai_4kfdl11s52m19-stroke" data-item-order="1000000000" data-item-id="tx_formulai_4kfdl11s52m19" data-item-class="Label Stroke" data-item-index="none" data-renderer-id="0" transform="translate(344, 327)"></g><g id="g-root-tx_cards_4kfdl11s52m1a-stroke" data-item-order="1000000000" data-item-id="tx_cards_4kfdl11s52m1a" data-item-class="Label Stroke" data-item-index="none" data-renderer-id="0" transform="translate(344, 363)"></g><g id="g-root-tx_listes_4lvgl1s52mtj-stroke" data-item-order="1000000000" data-item-id="tx_listes_4lvgl1s52mtj" data-item-class="Label Stroke" data-item-index="none" data-renderer-id="0" transform="translate(344, 399)"></g><g id="g-root-tx_atomes_1cymeth1s5435t-stroke" data-item-order="1000000000" data-item-id="tx_atomes_1cymeth1s5435t" data-item-class="Label Stroke" data-item-index="none" data-renderer-id="0" transform="translate(110, 18)"></g><g id="g-root-tx_patterns_1upwfb91s52neo-stroke" data-item-order="1000000000" data-item-id="tx_patterns_1upwfb91s52neo" data-item-class="Label Stroke" data-item-index="none" data-renderer-id="0" transform="translate(344, 435)"></g></g></g></svg>