<?xml version="1.0" encoding="utf-8" standalone="yes"?>
<!DOCTYPE svg PUBLIC "-//W3C//DTD SVG 1.1//EN" "http://www.w3.org/Graphics/SVG/1.1/DTD/svg11.dtd">
<svg width="758" height="265" viewBox="0 0 758 265" style="fill:none;stroke:none;fill-rule:evenodd;clip-rule:evenodd;stroke-linecap:round;stroke-linejoin:round;stroke-miterlimit:1.5;" version="1.1" xmlns="http://www.w3.org/2000/svg" xmlns:xlink="http://www.w3.org/1999/xlink"><style id="fontImports">@import url("https://fonts.googleapis.com/css2?family=Roboto:wght@400;700&amp;display=block");</style><rect id="" x="0" y="0" width="758" height="265" style="fill: #ffffff;"></rect><g id="items" style="isolation: isolate"><g id="blend" style="mix-blend-mode:normal"><g id="g-root-ro_4pfp791sf52bo-fill" data-item-order="999974800" data-item-id="ro_4pfp791sf52bo" data-item-class="Shape Stroke Fill" data-item-index="none" data-renderer-id="0" transform="translate(267, 48)"><g id="ro_4pfp791sf52bo-fill" stroke="none" fill="#f0f0f0"><g><path d="M 34 10L 154 10C 154 10 178 10 178 34L 178 136C 178 136 178 160 154 160L 34 160C 34 160 10 160 10 136L 10 34C 10 34 10 10 34 10"></path></g></g></g><g id="g-root-ro_1q6z5ud1sf0u86-fill" data-item-order="999986392" data-item-id="ro_1q6z5ud1sf0u86" data-item-class="Shape Stroke Fill" data-item-index="none" data-renderer-id="0" transform="translate(483, 135)"><g id="ro_1q6z5ud1sf0u86-fill" stroke="none" fill="#f7e6fe"><g><path d="M 22 10L 250 10C 250 10 262 10 262 22L 262 52C 262 52 262 64 250 64L 22 64C 22 64 10 64 10 52L 10 22C 10 22 10 10 22 10"></path></g></g></g><g id="g-root-ro_1cviqmt1seqz2f-fill" data-item-order="999988336" data-item-id="ro_1cviqmt1seqz2f" data-item-class="Shape Stroke Fill" data-item-index="none" data-renderer-id="0" transform="translate(3, 153)"><g id="ro_1cviqmt1seqz2f-fill" stroke="none" fill="#e6f9ff"><g><path d="M 22 10L 214 10C 214 10 226 10 226 22L 226 52C 226 52 226 64 214 64L 22 64C 22 64 10 64 10 52L 10 22C 10 22 10 10 22 10"></path></g></g></g><g id="g-root-ro_1cz9hzp1seqyod-fill" data-item-order="999989632" data-item-id="ro_1cz9hzp1seqyod" data-item-class="Shape Stroke Fill" data-item-index="none" data-renderer-id="0" transform="translate(483, 21)"><g id="ro_1cz9hzp1seqyod-fill" stroke="none" fill="#e9fbf3"><g><path d="M 22 10L 190 10C 190 10 202 10 202 22L 202 52C 202 52 202 64 190 64L 22 64C 22 64 10 64 10 52L 10 22C 10 22 10 10 22 10"></path></g></g></g><g id="g-root-ro_v9uzx11semr60-fill" data-item-order="999990280" data-item-id="ro_v9uzx11semr60" data-item-class="Shape Stroke Fill" data-item-index="none" data-renderer-id="0" transform="translate(39, 3)"><g id="ro_v9uzx11semr60-fill" stroke="none" fill="#e6efff"><g><path d="M 22 10L 178 10C 178 10 190 10 190 22L 190 52C 190 52 190 64 178 64L 22 64C 22 64 10 64 10 52L 10 22C 10 22 10 10 22 10"></path></g></g></g><g id="g-root-cu_13zvqdx1ser0n8-fill" data-item-order="1000000000" data-item-id="cu_13zvqdx1ser0n8" data-item-class="Curve Stroke ColorStrokeGray" data-item-index="none" data-renderer-id="0" transform="translate(177, 57)"></g><g id="g-root-cu_18fp8id1seqzuo-fill" data-item-order="1000000000" data-item-id="cu_18fp8id1seqzuo" data-item-class="Curve Stroke ColorStrokeGray" data-item-index="none" data-renderer-id="0" transform="translate(219, 30)"></g><g id="g-root-cu_zk289h1ser0nf-fill" data-item-order="1000000000" data-item-id="cu_zk289h1ser0nf" data-item-class="Curve Stroke ColorStrokeGray" data-item-index="none" data-renderer-id="0" transform="translate(435, 48)"></g><g id="g-root-tx_gestiond_4kfzo51seqyvf-fill" data-item-order="1000000000" data-item-id="tx_gestiond_4kfzo51seqyvf" data-item-class="Label Stroke" data-item-index="none" data-renderer-id="0" transform="translate(531, 36)"><g id="tx_gestiond_4kfzo51seqyvf-fill" stroke="none" fill="#3bc482"><g><text style="font: 20px Roboto, sans-serif; white-space: pre;" font-weight="20px" font-size="Roboto," font-family="sans-serif"><tspan x="14.3" y="33.75" dominant-baseline="ideographic">Gestion d'État</tspan></text></g></g></g><g id="g-root-tx_componen_v4v42d1sf6fpi-fill" data-item-order="1000000000" data-item-id="tx_componen_v4v42d1sf6fpi" data-item-class="Label Stroke" data-item-index="none" data-renderer-id="0" transform="translate(39, 69)"><g id="tx_componen_v4v42d1sf6fpi-fill" stroke="none" fill="#484848"><g><text style="font: 20px Roboto, sans-serif; white-space: pre;" font-weight="20px" font-size="Roboto," font-family="sans-serif"><tspan x="16.11" y="33.75" dominant-baseline="ideographic">components/</tspan></text></g></g></g><g id="g-root-cu_v48q511ser1fz-fill" data-item-order="1000000000" data-item-id="cu_v48q511ser1fz" data-item-class="Curve Stroke ColorStrokeGray" data-item-index="none" data-renderer-id="0" transform="translate(177, 57)"></g><g id="g-root-fron_9597bp1sf51jf-fill" data-item-order="1000000000" data-item-id="fron_9597bp1sf51jf" data-item-class="Icon Stroke" data-item-index="none" data-renderer-id="0" transform="translate(327, 72)"></g><g id="g-root-cu_zk289h1ser1fl-fill" data-item-order="1000000000" data-item-id="cu_zk289h1ser1fl" data-item-class="Curve Stroke ColorStrokeGray" data-item-index="none" data-renderer-id="0" transform="translate(507, 75)"></g><g id="g-root-2_1qa3j9x1ser098-fill" data-item-order="1000000000" data-item-id="2_1qa3j9x1ser098" data-item-class="Icon Stroke" data-item-index="none" data-renderer-id="0" transform="translate(495, 33)"></g><g id="g-root-tx_composab_m983th1sf6gi7-fill" data-item-order="1000000000" data-item-id="tx_composab_m983th1sf6gi7" data-item-class="Label Stroke" data-item-index="none" data-renderer-id="0" transform="translate(39, 105)"><g id="tx_composab_m983th1sf6gi7-fill" stroke="none" fill="#484848"><g><text style="font: 20px Roboto, sans-serif; white-space: pre;" font-weight="20px" font-size="Roboto," font-family="sans-serif"><tspan x="11.77" y="33.75" dominant-baseline="ideographic">composables/</tspan></text></g></g></g><g id="g-root-tx_couchede_i0w7kl1sf50qq-fill" data-item-order="1000000000" data-item-id="tx_couchede_i0w7kl1sf50qq" data-item-class="Label Stroke" data-item-index="none" data-renderer-id="0" transform="translate(291, 126)"><g id="tx_couchede_i0w7kl1sf50qq-fill" stroke="none" fill="#484848"><g><text style="font: 20px Roboto, sans-serif; white-space: pre;" font-weight="20px" font-size="Roboto," font-family="sans-serif"><tspan x="22.82" y="33.75" dominant-baseline="ideographic">Couche de </tspan><tspan x="13.51" y="57.75" dominant-baseline="ideographic">Présentation</tspan></text></g></g></g><g id="g-root-play_zp20yd1semtjj-fill" data-item-order="1000000000" data-item-id="play_zp20yd1semtjj" data-item-class="Icon Stroke" data-item-index="none" data-renderer-id="0" transform="translate(177, 15)"></g><g id="g-root-tx_lmentsui_18kp1791semsqu-fill" data-item-order="1000000000" data-item-id="tx_lmentsui_18kp1791semsqu" data-item-class="Label Stroke" data-item-index="none" data-renderer-id="0" transform="translate(51, 18)"><g id="tx_lmentsui_18kp1791semsqu-fill" stroke="none" fill="#4682e3"><g><text style="font: 20px Roboto, sans-serif; white-space: pre;" font-weight="20px" font-size="Roboto," font-family="sans-serif"><tspan x="16.9" y="33.75" dominant-baseline="ideographic">Éléments UI</tspan></text></g></g></g><g id="g-root-cu_13zvqdx1ser0n5-fill" data-item-order="1000000000" data-item-id="cu_13zvqdx1ser0n5" data-item-class="Curve Stroke ColorStrokeGray" data-item-index="none" data-renderer-id="0" transform="translate(219, 148)"></g><g id="g-root-cu_zk289h1ser0ni-fill" data-item-order="1000000000" data-item-id="cu_zk289h1ser0ni" data-item-class="Curve Stroke ColorStrokeGray" data-item-index="none" data-renderer-id="0" transform="translate(435, 148)"></g><g id="g-root-loop_1umsnyt1sf0tfx-fill" data-item-order="1000000000" data-item-id="loop_1umsnyt1sf0tfx" data-item-class="Icon Stroke" data-item-index="none" data-renderer-id="0" transform="translate(495, 147)"></g><g id="g-root-tx_logiquer_dl2slx1sezeh0-fill" data-item-order="1000000000" data-item-id="tx_logiquer_dl2slx1sezeh0" data-item-class="Label Stroke" data-item-index="none" data-renderer-id="0" transform="translate(531, 150)"><g id="tx_logiquer_dl2slx1sezeh0-fill" stroke="none" fill="#b65edf"><g><text style="font: 20px Roboto, sans-serif; white-space: pre;" font-weight="20px" font-size="Roboto," font-family="sans-serif"><tspan x="16.46" y="33.75" dominant-baseline="ideographic">Logique Réutilisable</tspan></text></g></g></g><g id="g-root-tx_vuesprin_1q6crx11ser0n9-fill" data-item-order="1000000000" data-item-id="tx_vuesprin_1q6crx11ser0n9" data-item-class="Label Stroke" data-item-index="none" data-renderer-id="0" transform="translate(15, 168)"><g id="tx_vuesprin_1q6crx11ser0n9-fill" stroke="none" fill="#17b0e3"><g><text style="font: 20px Roboto, sans-serif; white-space: pre;" font-weight="20px" font-size="Roboto," font-family="sans-serif"><tspan x="14.1" y="33.75" dominant-baseline="ideographic">Vues Principales</tspan></text></g></g></g><g id="g-root-page_1cviqmt1seqz2e-fill" data-item-order="1000000000" data-item-id="page_1cviqmt1seqz2e" data-item-class="Icon Stroke" data-item-index="none" data-renderer-id="0" transform="translate(177, 165)"></g><g id="g-root-cu_qp1p3p1seqz2k-fill" data-item-order="1000000000" data-item-id="cu_qp1p3p1seqz2k" data-item-class="Curve Stroke ColorStrokeGray" data-item-index="none" data-renderer-id="0" transform="translate(507, 189)"></g><g id="g-root-tx_composit_de7knp1sf6ewx-fill" data-item-order="1000000000" data-item-id="tx_composit_de7knp1sf6ewx" data-item-class="Label Stroke" data-item-index="none" data-renderer-id="0" transform="translate(531, 201)"><g id="tx_composit_de7knp1sf6ewx-fill" stroke="none" fill="#484848"><g><text style="font: 20px Roboto, sans-serif; white-space: pre;" font-weight="20px" font-size="Roboto," font-family="sans-serif"><tspan x="13.19" y="33.75" dominant-baseline="ideographic">Composition API</tspan></text></g></g></g><g id="g-root-tx_views_de7knp1sf6ewy-fill" data-item-order="1000000000" data-item-id="tx_views_de7knp1sf6ewy" data-item-class="Label Stroke" data-item-index="none" data-renderer-id="0" transform="translate(99, 219)"><g id="tx_views_de7knp1sf6ewy-fill" stroke="none" fill="#484848"><g><text style="font: 20px Roboto, sans-serif; white-space: pre;" font-weight="20px" font-size="Roboto," font-family="sans-serif"><tspan x="16.63" y="33.75" dominant-baseline="ideographic">views/</tspan></text></g></g></g><g id="g-root-cu_qp1p3p1seqz2n-fill" data-item-order="1000000000" data-item-id="cu_qp1p3p1seqz2n" data-item-class="Curve Stroke ColorStrokeGray" data-item-index="none" data-renderer-id="0" transform="translate(177, 207)"></g><g id="g-root-tx_stores_htelp11sf6hag-fill" data-item-order="1000000000" data-item-id="tx_stores_htelp11sf6hag" data-item-class="Label Stroke" data-item-index="none" data-renderer-id="0" transform="translate(531, 87)"><g id="tx_stores_htelp11sf6hag-fill" stroke="none" fill="#484848"><g><text style="font: 20px Roboto, sans-serif; white-space: pre;" font-weight="20px" font-size="Roboto," font-family="sans-serif"><tspan x="14.11" y="33.75" dominant-baseline="ideographic">stores/</tspan></text></g></g></g><g id="g-root-ro_4pfp791sf52bo-stroke" data-item-order="999974800" data-item-id="ro_4pfp791sf52bo" data-item-class="Shape Stroke Fill" data-item-index="none" data-renderer-id="0" transform="translate(267, 48)"><g id="ro_4pfp791sf52bo-stroke" fill="none" stroke-linecap="round" stroke-linejoin="round" stroke-miterlimit="4" stroke="#484848" stroke-width="2"><g><path d="M 34 10L 154 10C 154 10 178 10 178 34L 178 136C 178 136 178 160 154 160L 34 160C 34 160 10 160 10 136L 10 34C 10 34 10 10 34 10"></path></g></g></g><g id="g-root-ro_1q6z5ud1sf0u86-stroke" data-item-order="999986392" data-item-id="ro_1q6z5ud1sf0u86" data-item-class="Shape Stroke Fill" data-item-index="none" data-renderer-id="0" transform="translate(483, 135)"><g id="ro_1q6z5ud1sf0u86-stroke" fill="none" stroke-linecap="round" stroke-linejoin="round" stroke-miterlimit="4" stroke="#b65edf" stroke-width="2"><g><path d="M 22 10L 250 10C 250 10 262 10 262 22L 262 52C 262 52 262 64 250 64L 22 64C 22 64 10 64 10 52L 10 22C 10 22 10 10 22 10"></path></g></g></g><g id="g-root-ro_1cviqmt1seqz2f-stroke" data-item-order="999988336" data-item-id="ro_1cviqmt1seqz2f" data-item-class="Shape Stroke Fill" data-item-index="none" data-renderer-id="0" transform="translate(3, 153)"><g id="ro_1cviqmt1seqz2f-stroke" fill="none" stroke-linecap="round" stroke-linejoin="round" stroke-miterlimit="4" stroke="#17b0e3" stroke-width="2"><g><path d="M 22 10L 214 10C 214 10 226 10 226 22L 226 52C 226 52 226 64 214 64L 22 64C 22 64 10 64 10 52L 10 22C 10 22 10 10 22 10"></path></g></g></g><g id="g-root-ro_1cz9hzp1seqyod-stroke" data-item-order="999989632" data-item-id="ro_1cz9hzp1seqyod" data-item-class="Shape Stroke Fill" data-item-index="none" data-renderer-id="0" transform="translate(483, 21)"><g id="ro_1cz9hzp1seqyod-stroke" fill="none" stroke-linecap="round" stroke-linejoin="round" stroke-miterlimit="4" stroke="#3bc482" stroke-width="2"><g><path d="M 22 10L 190 10C 190 10 202 10 202 22L 202 52C 202 52 202 64 190 64L 22 64C 22 64 10 64 10 52L 10 22C 10 22 10 10 22 10"></path></g></g></g><g id="g-root-ro_v9uzx11semr60-stroke" data-item-order="999990280" data-item-id="ro_v9uzx11semr60" data-item-class="Shape Stroke Fill" data-item-index="none" data-renderer-id="0" transform="translate(39, 3)"><g id="ro_v9uzx11semr60-stroke" fill="none" stroke-linecap="round" stroke-linejoin="round" stroke-miterlimit="4" stroke="#4682e3" stroke-width="2"><g><path d="M 22 10L 178 10C 178 10 190 10 190 22L 190 52C 190 52 190 64 178 64L 22 64C 22 64 10 64 10 52L 10 22C 10 22 10 10 22 10"></path></g></g></g><g id="g-root-cu_13zvqdx1ser0n8-stroke" data-item-order="1000000000" data-item-id="cu_13zvqdx1ser0n8" data-item-class="Curve Stroke ColorStrokeGray" data-item-index="none" data-renderer-id="0" transform="translate(177, 57)"><g id="cu_13zvqdx1ser0n8-stroke" fill="none" stroke-linecap="round" stroke-linejoin="round" stroke-miterlimit="4" stroke="#888888" stroke-width="2" stroke-dasharray="5.0, 7.0"><g><path d="M 28 10L 28 22L 28 34L 19 34L 10 34"></path></g></g></g><g id="g-root-cu_18fp8id1seqzuo-stroke" data-item-order="1000000000" data-item-id="cu_18fp8id1seqzuo" data-item-class="Curve Stroke ColorStrokeGray" data-item-index="none" data-renderer-id="0" transform="translate(219, 30)"><g id="cu_18fp8id1seqzuo-stroke" fill="none" stroke-linecap="round" stroke-linejoin="round" stroke-miterlimit="4" stroke="#888888" stroke-width="2" stroke-dasharray="5.0, 7.0"><g><path d="M 58 78L 55 78L 54.9 78C 43.357246 77.999994 33.999999 68.642747 33.999998 57.099996L 34 57L 34 30.9C 33.999998 19.357248 24.64275 10 13.1 10L 13 10L 10 10"></path></g></g></g><g id="g-root-cu_zk289h1ser0nf-stroke" data-item-order="1000000000" data-item-id="cu_zk289h1ser0nf" data-item-class="Curve Stroke ColorStrokeGray" data-item-index="none" data-renderer-id="0" transform="translate(435, 48)"><g id="cu_zk289h1ser0nf-stroke" fill="none" stroke-linecap="round" stroke-linejoin="round" stroke-miterlimit="4" stroke="#888888" stroke-width="2" stroke-dasharray="5.0, 7.0"><g><path d="M 10 60L 13 60L 13.1 60C 24.642753 59.999998 34.000001 50.642749 34.000001 39.099998L 34 39L 34 30.9C 33.999999 19.357249 43.357248 10.000001 54.899999 10.000002L 55 10L 58 10"></path></g></g></g><g id="g-root-tx_gestiond_4kfzo51seqyvf-stroke" data-item-order="1000000000" data-item-id="tx_gestiond_4kfzo51seqyvf" data-item-class="Label Stroke" data-item-index="none" data-renderer-id="0" transform="translate(531, 36)"></g><g id="g-root-tx_componen_v4v42d1sf6fpi-stroke" data-item-order="1000000000" data-item-id="tx_componen_v4v42d1sf6fpi" data-item-class="Label Stroke" data-item-index="none" data-renderer-id="0" transform="translate(39, 69)"></g><g id="g-root-cu_v48q511ser1fz-stroke" data-item-order="1000000000" data-item-id="cu_v48q511ser1fz" data-item-class="Curve Stroke ColorStrokeGray" data-item-index="none" data-renderer-id="0" transform="translate(177, 57)"><g id="cu_v48q511ser1fz-stroke" fill="none" stroke-linecap="round" stroke-linejoin="round" stroke-miterlimit="4" stroke="#888888" stroke-width="2" stroke-dasharray="5.0, 7.0"><g><path d="M 28 10L 28 17.5L 28 58C 27.999999 64.627415 22.627416 69.999998 16 69.999998L 15.9 70L 10 70"></path></g></g></g><g id="g-root-fron_9597bp1sf51jf-stroke" data-item-order="1000000000" data-item-id="fron_9597bp1sf51jf" data-item-class="Icon Stroke" data-item-index="none" data-renderer-id="0" transform="translate(327, 72)"><g id="fron_9597bp1sf51jf-stroke" fill="none" stroke-linecap="round" stroke-linejoin="round" stroke-miterlimit="4" stroke="#484848" stroke-width="2"><g><path d="M 25.428572 11.714286L 52.857143 11.714286C 52.857143 11.714286 56.285713 11.714286 56.285713 15.142858L 56.285713 42.57143C 56.285713 42.57143 56.285713 46 52.857143 46L 25.428572 46C 25.428572 46 22 46 22 42.57143L 22 15.142858C 22 15.142858 22 11.714286 25.428572 11.714286M 11.714286 52.857143C 11.714286 54.750694 13.24931 56.285713 15.142858 56.285713M 25.428572 56.285713L 30.571428 56.285713M 40.857143 56.285713L 46 56.285713M 11.714286 37.428574L 11.714286 42.57143M 11.714286 22L 11.714286 27.142857"></path></g></g></g><g id="g-root-cu_zk289h1ser1fl-stroke" data-item-order="1000000000" data-item-id="cu_zk289h1ser1fl" data-item-class="Curve Stroke ColorStrokeGray" data-item-index="none" data-renderer-id="0" transform="translate(507, 75)"><g id="cu_zk289h1ser1fl-stroke" fill="none" stroke-linecap="round" stroke-linejoin="round" stroke-miterlimit="4" stroke="#888888" stroke-width="2" stroke-dasharray="5.0, 7.0"><g><path d="M 10 10L 10 13L 10 22C 10 28.627416 15.372583 33.999999 22 33.999999L 22.1 34L 28 34"></path></g></g></g><g id="g-root-2_1qa3j9x1ser098-stroke" data-item-order="1000000000" data-item-id="2_1qa3j9x1ser098" data-item-class="Icon Stroke" data-item-index="none" data-renderer-id="0" transform="translate(495, 33)"><g id="2_1qa3j9x1ser098-stroke" fill="none" stroke-linecap="round" stroke-linejoin="round" stroke-miterlimit="4" stroke="#3bc482" stroke-width="2"><g><path d="M 10.625 31.397499C 10.625 33.249725 12.126525 34.751251 13.97875 34.751251C 15.830976 34.751251 17.3325 33.249725 17.3325 31.397499C 17.3325 29.545277 15.830976 28.043751 13.97875 28.043751C 12.126525 28.043751 10.625 29.545277 10.625 31.397499M 19.268749 39.201248C 18.583487 37.59642 17.206522 36.38961 15.525685 35.920723C 13.84485 35.451843 12.042029 35.771622 10.625 36.790001M 32.6675 31.397499C 32.6675 33.249725 34.169025 34.751251 36.021252 34.751251C 37.873474 34.751251 39.375004 33.249725 39.375004 31.397499C 39.375004 29.545277 37.873474 28.043751 36.021252 28.043751C 34.169025 28.043751 32.6675 29.545277 32.6675 31.397499M 30.731249 39.201248C 31.416512 37.59642 32.793476 36.38961 34.474312 35.920723C 36.155151 35.451843 37.95797 35.771622 39.374996 36.790001M 20.6875 30.438749C 20.68689 32.820908 22.61784 34.752354 25 34.752354C 27.38216 34.752354 29.31311 32.820908 29.3125 30.438749C 29.31311 28.056591 27.38216 26.125145 25 26.125145C 22.61784 26.125145 20.68689 28.056591 20.6875 30.438749M 30.731249 39.201248C 29.262579 37.587753 27.181822 36.668076 24.999998 36.668076C 22.818176 36.668076 20.737419 37.587753 19.268749 39.201248M 23.08375 19.42375C 23.08375 20.482065 23.941685 21.34 25 21.34C 26.058315 21.34 26.91625 20.482065 26.91625 19.42375C 26.91625 18.365435 26.058315 17.5075 25 17.5075C 23.941685 17.5075 23.08375 18.365435 23.08375 19.42375M 21.307499 24.11125L 19.424999 24.547499C 18.693716 24.711058 17.941133 24.379435 17.568363 23.72938C 17.195593 23.079327 17.289486 22.262299 17.800001 21.713751L 19.11375 20.293749C 19.568741 19.8025 19.568741 19.043749 19.11375 18.5525L 17.797501 17.133749C 17.287766 16.584837 17.19429 15.768196 17.566805 15.118299C 17.939322 14.468402 18.691231 14.136329 19.422499 14.29875L 21.305 14.735001C 21.957451 14.88414 22.613667 14.501347 22.805 13.86L 23.375 12.00875C 23.590919 11.289978 24.252623 10.79784 25.003124 10.79784C 25.753628 10.79784 26.415331 11.289978 26.63125 12.00875L 27.196251 13.865C 27.387583 14.506347 28.0438 14.88914 28.696251 14.74L 30.571251 14.30375C 31.302517 14.141329 32.054428 14.473402 32.426945 15.123299C 32.799458 15.773195 32.705986 16.589838 32.196247 17.13875L 30.885 18.5525C 30.431215 19.044222 30.431215 19.802027 30.884998 20.293749L 32.202499 21.713751C 32.713017 22.262299 32.806908 23.079327 32.434135 23.72938C 32.061367 24.379435 31.308786 24.711058 30.577499 24.547501L 28.702499 24.11125M 21.625 27.75C 23.741421 29.608793 26.49777 30.571655 29.311251 30.435001M 11.345 29.327499C 13.000301 30.762785 15.145448 31.50425 17.33375 31.397499M 33.38625 29.327499C 35.04155 30.762785 37.186699 31.50425 39.375004 31.397499"></path></g></g></g><g id="g-root-tx_composab_m983th1sf6gi7-stroke" data-item-order="1000000000" data-item-id="tx_composab_m983th1sf6gi7" data-item-class="Label Stroke" data-item-index="none" data-renderer-id="0" transform="translate(39, 105)"></g><g id="g-root-tx_couchede_i0w7kl1sf50qq-stroke" data-item-order="1000000000" data-item-id="tx_couchede_i0w7kl1sf50qq" data-item-class="Label Stroke" data-item-index="none" data-renderer-id="0" transform="translate(291, 126)"></g><g id="g-root-play_zp20yd1semtjj-stroke" data-item-order="1000000000" data-item-id="play_zp20yd1semtjj" data-item-class="Icon Stroke" data-item-index="none" data-renderer-id="0" transform="translate(177, 15)"><g id="play_zp20yd1semtjj-stroke" fill="none" stroke-linecap="round" stroke-linejoin="round" stroke-miterlimit="4" stroke="#4682e3" stroke-width="2"><g><path d="M 24.081251 31.2225C 23.888582 31.102083 23.645741 31.095705 23.44702 31.205847C 23.248297 31.31599 23.125 31.525297 23.125 31.752501L 23.125 35.752499C 23.125 35.979702 23.248297 36.189011 23.44702 36.299152C 23.645741 36.409294 23.888582 36.402916 24.081251 36.282497L 27.2775 34.282501C 27.460239 34.168289 27.571253 33.967995 27.571253 33.752502C 27.571253 33.537006 27.460239 33.336712 27.2775 33.2225ZM 11.875 10.625L 38.125 10.625C 38.125 10.625 39.375 10.625 39.375 11.875L 39.375 38.125C 39.375 38.125 39.375 39.375 38.125 39.375L 11.875 39.375C 11.875 39.375 10.625 39.375 10.625 38.125L 10.625 11.875C 10.625 11.875 10.625 10.625 11.875 10.625M 33.75 32.5L 35.625 34.375L 33.75 36.25M 30.625 32.5L 32.5 34.375L 30.625 36.25M 16.25 36.25L 14.375 34.375L 16.25 32.5M 19.375 36.25L 17.5 34.375L 19.375 32.5M 14.375 28.125L 14.375 14.375L 35.625 14.375L 35.625 28.125Z"></path></g></g></g><g id="g-root-tx_lmentsui_18kp1791semsqu-stroke" data-item-order="1000000000" data-item-id="tx_lmentsui_18kp1791semsqu" data-item-class="Label Stroke" data-item-index="none" data-renderer-id="0" transform="translate(51, 18)"></g><g id="g-root-cu_13zvqdx1ser0n5-stroke" data-item-order="1000000000" data-item-id="cu_13zvqdx1ser0n5" data-item-class="Curve Stroke ColorStrokeGray" data-item-index="none" data-renderer-id="0" transform="translate(219, 148)"><g id="cu_13zvqdx1ser0n5-stroke" fill="none" stroke-linecap="round" stroke-linejoin="round" stroke-miterlimit="4" stroke="#888888" stroke-width="2" stroke-dasharray="5.0, 7.0"><g><path d="M 58 10L 55 10L 54.9 10C 50.611929 10.004962 45.995266 11.578824 41.700001 14.500001C 39.147207 16.234511 36.356002 20.403194 34.000002 26.000001C 31.644001 31.596807 28.852796 35.76549 26.300001 37.500001C 22.004737 40.421177 17.388073 41.995039 13.100001 42L 13 42L 10 42"></path></g></g></g><g id="g-root-cu_zk289h1ser0ni-stroke" data-item-order="1000000000" data-item-id="cu_zk289h1ser0ni" data-item-class="Curve Stroke ColorStrokeGray" data-item-index="none" data-renderer-id="0" transform="translate(435, 148)"><g id="cu_zk289h1ser0ni-stroke" fill="none" stroke-linecap="round" stroke-linejoin="round" stroke-miterlimit="4" stroke="#888888" stroke-width="2" stroke-dasharray="5.0, 7.0"><g><path d="M 10 10L 13 10L 13.1 10C 16.47715 10.00393 20.199416 10.613028 24.1 11.8C 26.434787 12.503612 29.936878 14.343094 34 16.999999C 38.063122 19.656905 41.565214 21.496387 43.900001 22.199999C 47.800584 23.386973 51.52285 23.996071 54.900001 24.000001L 55 24L 58 24"></path></g></g></g><g id="g-root-loop_1umsnyt1sf0tfx-stroke" data-item-order="1000000000" data-item-id="loop_1umsnyt1sf0tfx" data-item-class="Icon Stroke" data-item-index="none" data-renderer-id="0" transform="translate(495, 147)"><g id="loop_1umsnyt1sf0tfx-stroke" fill="none" stroke-linecap="round" stroke-linejoin="round" stroke-miterlimit="4" stroke="#b65edf" stroke-width="2"><g><path d="M 20.714285 32.349998C 19.817474 33.118504 18.680859 33.550419 17.5 33.571426C 15.748919 33.739384 14.014369 33.116257 12.770485 31.872372C 11.526603 30.628489 10.903473 28.893938 11.071428 27.142857C 10.903473 25.391777 11.526603 23.657225 12.770485 22.413343C 14.014369 21.16946 15.748919 20.546329 17.5 20.714285C 23.392857 20.714285 26.607141 33.571426 32.5 33.571426C 34.25108 33.739384 35.98563 33.116257 37.229515 31.872372C 38.473396 30.628489 39.096527 28.893938 38.92857 27.142857C 39.096527 25.391777 38.473396 23.657225 37.229515 22.413343C 35.98563 21.16946 34.25108 20.546329 32.5 20.714285L 28.214285 20.714285L 32.5 16.428572"></path></g></g></g><g id="g-root-tx_logiquer_dl2slx1sezeh0-stroke" data-item-order="1000000000" data-item-id="tx_logiquer_dl2slx1sezeh0" data-item-class="Label Stroke" data-item-index="none" data-renderer-id="0" transform="translate(531, 150)"></g><g id="g-root-tx_vuesprin_1q6crx11ser0n9-stroke" data-item-order="1000000000" data-item-id="tx_vuesprin_1q6crx11ser0n9" data-item-class="Label Stroke" data-item-index="none" data-renderer-id="0" transform="translate(15, 168)"></g><g id="g-root-page_1cviqmt1seqz2e-stroke" data-item-order="1000000000" data-item-id="page_1cviqmt1seqz2e" data-item-class="Icon Stroke" data-item-index="none" data-renderer-id="0" transform="translate(177, 165)"><g id="page_1cviqmt1seqz2e-stroke" fill="none" stroke-linecap="round" stroke-linejoin="round" stroke-miterlimit="4" stroke="#17b0e3" stroke-width="2"><g><path d="M 15.54375 11.14125L 26.713751 15.6075C 27.188313 15.797093 27.499678 16.256466 27.5 16.7675L 27.5 37.827499C 27.499325 38.241825 27.29339 38.628891 26.950161 38.86097C 26.60693 39.093044 26.171005 39.139965 25.786249 38.986248L 15.78625 34.986252C 15.31211 34.796825 15.000834 34.338078 15 33.827499L 15 12.17375C 15 11.483394 15.559644 10.92375 16.25 10.92375L 33.75 10.92375C 34.440353 10.92375 35 11.483394 35 12.17375L 35 33.423752C 35 34.114105 34.440353 34.673752 33.75 34.673752L 31.25 34.673752M 15.690001 11.05625L 30.235001 13.8525C 30.823967 13.965237 31.249897 14.480339 31.25 15.08L 31.25 35.923752C 31.25 36.614105 30.690355 37.173752 30 37.173752L 27.5 37.173752"></path></g></g></g><g id="g-root-cu_qp1p3p1seqz2k-stroke" data-item-order="1000000000" data-item-id="cu_qp1p3p1seqz2k" data-item-class="Curve Stroke ColorStrokeGray" data-item-index="none" data-renderer-id="0" transform="translate(507, 189)"><g id="cu_qp1p3p1seqz2k-stroke" fill="none" stroke-linecap="round" stroke-linejoin="round" stroke-miterlimit="4" stroke="#888888" stroke-width="2" stroke-dasharray="5.0, 7.0"><g><path d="M 10 10L 10 13L 10 22C 10 28.627416 15.372583 33.999999 22 33.999999L 22.1 34L 28 34"></path></g></g></g><g id="g-root-tx_composit_de7knp1sf6ewx-stroke" data-item-order="1000000000" data-item-id="tx_composit_de7knp1sf6ewx" data-item-class="Label Stroke" data-item-index="none" data-renderer-id="0" transform="translate(531, 201)"></g><g id="g-root-tx_views_de7knp1sf6ewy-stroke" data-item-order="1000000000" data-item-id="tx_views_de7knp1sf6ewy" data-item-class="Label Stroke" data-item-index="none" data-renderer-id="0" transform="translate(99, 219)"></g><g id="g-root-cu_qp1p3p1seqz2n-stroke" data-item-order="1000000000" data-item-id="cu_qp1p3p1seqz2n" data-item-class="Curve Stroke ColorStrokeGray" data-item-index="none" data-renderer-id="0" transform="translate(177, 207)"><g id="cu_qp1p3p1seqz2n-stroke" fill="none" stroke-linecap="round" stroke-linejoin="round" stroke-miterlimit="4" stroke="#888888" stroke-width="2" stroke-dasharray="5.0, 7.0"><g><path d="M 28 10L 28 13L 28 22C 27.999999 28.627417 22.627416 34 15.999999 34L 15.9 34L 10 34"></path></g></g></g><g id="g-root-tx_stores_htelp11sf6hag-stroke" data-item-order="1000000000" data-item-id="tx_stores_htelp11sf6hag" data-item-class="Label Stroke" data-item-index="none" data-renderer-id="0" transform="translate(531, 87)"></g></g></g></svg>