<?xml version="1.0" encoding="utf-8" standalone="yes"?>
<!DOCTYPE svg PUBLIC "-//W3C//DTD SVG 1.1//EN" "http://www.w3.org/Graphics/SVG/1.1/DTD/svg11.dtd">
<svg width="937" height="301" viewBox="0 0 937 301" style="fill:none;stroke:none;fill-rule:evenodd;clip-rule:evenodd;stroke-linecap:round;stroke-linejoin:round;stroke-miterlimit:1.5;" version="1.1" xmlns="http://www.w3.org/2000/svg" xmlns:xlink="http://www.w3.org/1999/xlink"><style id="fontImports">@import url("https://fonts.googleapis.com/css2?family=Roboto:wght@400;700&amp;display=block");</style><rect id="" x="0" y="0" width="937" height="301" style="fill: #ffffff;"></rect><g id="items" style="isolation: isolate"><g id="blend" style="mix-blend-mode:normal"><g id="g-root-ro_1upwycl1somcqp-fill" data-item-order="999978832" data-item-id="ro_1upwycl1somcqp" data-item-class="Shape Stroke Fill" data-item-index="none" data-renderer-id="0" transform="translate(398, 78)"><g id="ro_1upwycl1somcqp-fill" stroke="none" fill="#f0f0f0"><g><path d="M 34 10L 154 10C 154 10 178 10 178 34L 178 112C 178 112 178 136 154 136L 34 136C 34 136 10 136 10 112L 10 34C 10 34 10 10 34 10"></path></g></g></g><g id="g-root-ro_909eqt1soterv-fill" data-item-order="999983800" data-item-id="ro_909eqt1soterv" data-item-class="Shape Stroke Fill" data-item-index="none" data-renderer-id="0" transform="translate(614, 153)"><g id="ro_909eqt1soterv-fill" stroke="none" fill="#fef2e6"><g><path d="M 22 10L 298 10C 298 10 310 10 310 22L 310 52C 310 52 310 64 298 64L 22 64C 22 64 10 64 10 52L 10 22C 10 22 10 10 22 10"></path></g></g></g><g id="g-root-ro_vahasl1soqm11-fill" data-item-order="999985096" data-item-id="ro_vahasl1soqm11" data-item-class="Shape Stroke Fill" data-item-index="none" data-renderer-id="0" transform="translate(614, 3)"><g id="ro_vahasl1soqm11-fill" stroke="none" fill="#e9fbf3"><g><path d="M 22 10L 274 10C 274 10 286 10 286 22L 286 52C 286 52 286 64 274 64L 22 64C 22 64 10 64 10 52L 10 22C 10 22 10 10 22 10"></path></g></g></g><g id="g-root-ro_hyebc51sp0ete-fill" data-item-order="999985744" data-item-id="ro_hyebc51sp0ete" data-item-class="Shape Stroke Fill ColorFillGray ColorStrokeGray" data-item-index="none" data-renderer-id="0" transform="translate(86, 153)"><g id="ro_hyebc51sp0ete-fill" stroke="none" fill="#f6f6f6"><g><path d="M 22 10L 262 10C 262 10 274 10 274 22L 274 52C 274 52 274 64 262 64L 22 64C 22 64 10 64 10 52L 10 22C 10 22 10 10 22 10"></path></g></g></g><g id="g-root-ro_me7tgl1soxlov-fill" data-item-order="999988984" data-item-id="ro_me7tgl1soxlov" data-item-class="Shape Stroke Fill" data-item-index="none" data-renderer-id="0" transform="translate(146, 3)"><g id="ro_me7tgl1soxlov-fill" stroke="none" fill="#e6efff"><g><path d="M 22 10L 202 10C 202 10 214 10 214 22L 214 52C 214 52 214 64 202 64L 22 64C 22 64 10 64 10 52L 10 22C 10 22 10 10 22 10"></path></g></g></g><g id="g-root-tx_groupeth_93ds6d1soutc7-fill" data-item-order="1000000000" data-item-id="tx_groupeth_93ds6d1soutc7" data-item-class="Label Stroke" data-item-index="none" data-renderer-id="0" transform="translate(662, 255)"><g id="tx_groupeth_93ds6d1soutc7-fill" stroke="none" fill="#484848"><g><text style="font: 20px Roboto, sans-serif; white-space: pre;" font-weight="20px" font-size="Roboto," font-family="sans-serif"><tspan x="14.83" y="33.75" dominant-baseline="ideographic">Groupe thématique</tspan></text></g></g></g><g id="g-root-cu_92rb391sp0fm6-fill" data-item-order="1000000000" data-item-id="cu_92rb391sp0fm6" data-item-class="Curve Stroke ColorStrokeGray" data-item-index="none" data-renderer-id="0" transform="translate(566, 30)"></g><g id="g-root-tx_setsdicn_18lxt5x1soqkg3-fill" data-item-order="1000000000" data-item-id="tx_setsdicn_18lxt5x1soqkg3" data-item-class="Label Stroke" data-item-index="none" data-renderer-id="0" transform="translate(662, 18)"><g id="tx_setsdicn_18lxt5x1soqkg3-fill" stroke="none" fill="#3bc482"><g><text style="font: 20px Roboto, sans-serif; white-space: pre;" font-weight="20px" font-size="Roboto," font-family="sans-serif"><tspan x="12.4" y="33.75" dominant-baseline="ideographic">Sets d'icônes cohérents</tspan></text></g></g></g><g id="g-root-tx_taillede_qu1bl11souu4q-fill" data-item-order="1000000000" data-item-id="tx_taillede_qu1bl11souu4q" data-item-class="Label Stroke" data-item-index="none" data-renderer-id="0" transform="translate(98, 69)"><g id="tx_taillede_qu1bl11souu4q-fill" stroke="none" fill="#484848"><g><text style="font: 20px Roboto, sans-serif; white-space: pre;" font-weight="20px" font-size="Roboto," font-family="sans-serif"><tspan x="12.08" y="33.75" dominant-baseline="ideographic">Taille de fichier réduite</tspan></text></g></g></g><g id="g-root-cu_4mxsyt1sp0gen-fill" data-item-order="1000000000" data-item-id="cu_4mxsyt1sp0gen" data-item-class="Curve Stroke ColorStrokeGray" data-item-index="none" data-renderer-id="0" transform="translate(308, 57)"></g><g id="g-root-cu_7qrxh1sp0e16-fill" data-item-order="1000000000" data-item-id="cu_7qrxh1sp0e16" data-item-class="Curve Stroke ColorStrokeGray" data-item-index="none" data-renderer-id="0" transform="translate(308, 57)"></g><g id="g-root-cu_7qrxh1sp0e18-fill" data-item-order="1000000000" data-item-id="cu_7qrxh1sp0e18" data-item-class="Curve Stroke ColorStrokeGray" data-item-index="none" data-renderer-id="0" transform="translate(638, 57)"></g><g id="g-root-cu_1ut1bs51sp0emf-fill" data-item-order="1000000000" data-item-id="cu_1ut1bs51sp0emf" data-item-class="Curve Stroke ColorStrokeGray" data-item-index="none" data-renderer-id="0" transform="translate(638, 57)"></g><g id="g-root-cu_92rb391sp0fm3-fill" data-item-order="1000000000" data-item-id="cu_92rb391sp0fm3" data-item-class="Curve Stroke ColorStrokeGray" data-item-index="none" data-renderer-id="0" transform="translate(350, 30)"></g><g id="g-root-tx_harmonie_meuajp1sourr8-fill" data-item-order="1000000000" data-item-id="tx_harmonie_meuajp1sourr8" data-item-class="Label Stroke" data-item-index="none" data-renderer-id="0" transform="translate(662, 69)"><g id="tx_harmonie_meuajp1sourr8-fill" stroke="none" fill="#484848"><g><text style="font: 20px Roboto, sans-serif; white-space: pre;" font-weight="20px" font-size="Roboto," font-family="sans-serif"><tspan x="16.8" y="33.75" dominant-baseline="ideographic">Harmonie de design</tspan></text></g></g></g><g id="g-root-tx_tempsdec_qu1bl11souu4r-fill" data-item-order="1000000000" data-item-id="tx_tempsdec_qu1bl11souu4r" data-item-class="Label Stroke" data-item-index="none" data-renderer-id="0" transform="translate(2, 105)"><g id="tx_tempsdec_qu1bl11souu4r-fill" stroke="none" fill="#484848"><g><text style="font: 20px Roboto, sans-serif; white-space: pre;" font-weight="20px" font-size="Roboto," font-family="sans-serif"><tspan x="14.29" y="33.75" dominant-baseline="ideographic">Temps de chargement améliorés</tspan></text></g></g></g><g id="g-root-mana_3zxet1somfbc-fill" data-item-order="1000000000" data-item-id="mana_3zxet1somfbc" data-item-class="Icon Stroke" data-item-index="none" data-renderer-id="0" transform="translate(458, 102)"></g><g id="g-root-tx_identitd_dj7aat1sousjx-fill" data-item-order="1000000000" data-item-id="tx_identitd_dj7aat1sousjx" data-item-class="Label Stroke" data-item-index="none" data-renderer-id="0" transform="translate(662, 105)"><g id="tx_identitd_dj7aat1sousjx-fill" stroke="none" fill="#484848"><g><text style="font: 20px Roboto, sans-serif; white-space: pre;" font-weight="20px" font-size="Roboto," font-family="sans-serif"><tspan x="16.69" y="33.75" dominant-baseline="ideographic">Identité de marque</tspan></text></g></g></g><g id="g-root-cont_vahasl1soqm10-fill" data-item-order="1000000000" data-item-id="cont_vahasl1soqm10" data-item-class="Icon Stroke" data-item-index="none" data-renderer-id="0" transform="translate(626, 15)"></g><g id="g-root-ligh_v98cmd1sp0ge9-fill" data-item-order="1000000000" data-item-id="ligh_v98cmd1sp0ge9" data-item-class="Icon Stroke ColorFillGray ColorStrokeGray" data-item-index="none" data-renderer-id="0" transform="translate(308, 165)"></g><g id="g-root-cu_4mxsyt1sp0gek-fill" data-item-order="1000000000" data-item-id="cu_4mxsyt1sp0gek" data-item-class="Curve Stroke ColorStrokeGray" data-item-index="none" data-renderer-id="0" transform="translate(350, 162)"></g><g id="g-root-tx_iconogra_4jtfj91somej3-fill" data-item-order="1000000000" data-item-id="tx_iconogra_4jtfj91somej3" data-item-class="Label Stroke" data-item-index="none" data-renderer-id="0" transform="translate(422, 156)"><g id="tx_iconogra_4jtfj91somej3-fill" stroke="none" fill="#484848"><g><text style="font: 20px Roboto, sans-serif; white-space: pre;" font-weight="20px" font-size="Roboto," font-family="sans-serif"><tspan x="12.04" y="33.75" dominant-baseline="ideographic">Iconographie</tspan></text></g></g></g><g id="g-root-vect_v9utph1soxkw6-fill" data-item-order="1000000000" data-item-id="vect_v9utph1soxkw6" data-item-class="Icon Stroke" data-item-index="none" data-renderer-id="0" transform="translate(308, 15)"></g><g id="g-root-tx_supportd_zp1uqt1sp0fm0-fill" data-item-order="1000000000" data-item-id="tx_supportd_zp1uqt1sp0fm0" data-item-class="Label Stroke ColorFillGray ColorStrokeGray" data-item-index="none" data-renderer-id="0" transform="translate(98, 168)"><g id="tx_supportd_zp1uqt1sp0fm0-fill" stroke="none" fill="#888888"><g><text style="font: 20px Roboto, sans-serif; white-space: pre;" font-weight="20px" font-size="Roboto," font-family="sans-serif"><tspan x="13.22" y="33.75" dominant-baseline="ideographic">Support du dark mode</tspan></text></g></g></g><g id="g-root-cu_dikt7p1sp0flt-fill" data-item-order="1000000000" data-item-id="cu_dikt7p1sp0flt" data-item-class="Curve Stroke ColorStrokeGray" data-item-index="none" data-renderer-id="0" transform="translate(566, 162)"></g><g id="g-root-6_909eqt1soteru-fill" data-item-order="1000000000" data-item-id="6_909eqt1soteru" data-item-class="Icon Stroke" data-item-index="none" data-renderer-id="0" transform="translate(626, 165)"></g><g id="g-root-tx_organisa_mbpx451sotd6x-fill" data-item-order="1000000000" data-item-id="tx_organisa_mbpx451sotd6x" data-item-class="Label Stroke" data-item-index="none" data-renderer-id="0" transform="translate(662, 168)"><g id="tx_organisa_mbpx451sotd6x-fill" stroke="none" fill="#dd8433"><g><text style="font: 20px Roboto, sans-serif; white-space: pre;" font-weight="20px" font-size="Roboto," font-family="sans-serif"><tspan x="15.4" y="33.75" dominant-baseline="ideographic">Organisation par contexte</tspan></text></g></g></g><g id="g-root-tx_confortv_93ds6d1soutc8-fill" data-item-order="1000000000" data-item-id="tx_confortv_93ds6d1soutc8" data-item-class="Label Stroke" data-item-index="none" data-renderer-id="0" transform="translate(170, 219)"><g id="tx_confortv_93ds6d1soutc8-fill" stroke="none" fill="#484848"><g><text style="font: 20px Roboto, sans-serif; white-space: pre;" font-weight="20px" font-size="Roboto," font-family="sans-serif"><tspan x="14.06" y="33.75" dominant-baseline="ideographic">Confort visuel</tspan></text></g></g></g><g id="g-root-cu_1qd7tnp1sp0feu-fill" data-item-order="1000000000" data-item-id="cu_1qd7tnp1sp0feu" data-item-class="Curve Stroke ColorStrokeGray" data-item-index="none" data-renderer-id="0" transform="translate(308, 207)"></g><g id="g-root-cu_1qd7tnp1sp0fex-fill" data-item-order="1000000000" data-item-id="cu_1qd7tnp1sp0fex" data-item-class="Curve Stroke ColorStrokeGray" data-item-index="none" data-renderer-id="0" transform="translate(308, 207)"></g><g id="g-root-cu_1ut1bs51sp0emh-fill" data-item-order="1000000000" data-item-id="cu_1ut1bs51sp0emh" data-item-class="Curve Stroke ColorStrokeGray" data-item-index="none" data-renderer-id="0" transform="translate(638, 207)"></g><g id="g-root-cu_1ut1bs51sp0emk-fill" data-item-order="1000000000" data-item-id="cu_1ut1bs51sp0emk" data-item-class="Curve Stroke ColorStrokeGray" data-item-index="none" data-renderer-id="0" transform="translate(638, 207)"></g><g id="g-root-tx_scnarios_dj7aat1sousjy-fill" data-item-order="1000000000" data-item-id="tx_scnarios_dj7aat1sousjy" data-item-class="Label Stroke" data-item-index="none" data-renderer-id="0" transform="translate(662, 219)"><g id="tx_scnarios_dj7aat1sousjy-fill" stroke="none" fill="#484848"><g><text style="font: 20px Roboto, sans-serif; white-space: pre;" font-weight="20px" font-size="Roboto," font-family="sans-serif"><tspan x="14.48" y="33.75" dominant-baseline="ideographic">Scénarios d'utilisation</tspan></text></g></g></g><g id="g-root-tx_accessib_4nka1x1souu4h-fill" data-item-order="1000000000" data-item-id="tx_accessib_4nka1x1souu4h" data-item-class="Label Stroke" data-item-index="none" data-renderer-id="0" transform="translate(182, 255)"><g id="tx_accessib_4nka1x1souu4h-fill" stroke="none" fill="#484848"><g><text style="font: 20px Roboto, sans-serif; white-space: pre;" font-weight="20px" font-size="Roboto," font-family="sans-serif"><tspan x="13.52" y="33.75" dominant-baseline="ideographic">Accessibilité</tspan></text></g></g></g><g id="g-root-tx_svgoptim_zp1uqt1soxn9p-fill" data-item-order="1000000000" data-item-id="tx_svgoptim_zp1uqt1soxn9p" data-item-class="Label Stroke" data-item-index="none" data-renderer-id="0" transform="translate(158, 18)"><g id="tx_svgoptim_zp1uqt1soxn9p-fill" stroke="none" fill="#4682e3"><g><text style="font: 20px Roboto, sans-serif; white-space: pre;" font-weight="20px" font-size="Roboto," font-family="sans-serif"><tspan x="16.67" y="33.75" dominant-baseline="ideographic">SVG optimisés</tspan></text></g></g></g><g id="g-root-ro_1upwycl1somcqp-stroke" data-item-order="999978832" data-item-id="ro_1upwycl1somcqp" data-item-class="Shape Stroke Fill" data-item-index="none" data-renderer-id="0" transform="translate(398, 78)"><g id="ro_1upwycl1somcqp-stroke" fill="none" stroke-linecap="round" stroke-linejoin="round" stroke-miterlimit="4" stroke="#484848" stroke-width="2"><g><path d="M 34 10L 154 10C 154 10 178 10 178 34L 178 112C 178 112 178 136 154 136L 34 136C 34 136 10 136 10 112L 10 34C 10 34 10 10 34 10"></path></g></g></g><g id="g-root-ro_909eqt1soterv-stroke" data-item-order="999983800" data-item-id="ro_909eqt1soterv" data-item-class="Shape Stroke Fill" data-item-index="none" data-renderer-id="0" transform="translate(614, 153)"><g id="ro_909eqt1soterv-stroke" fill="none" stroke-linecap="round" stroke-linejoin="round" stroke-miterlimit="4" stroke="#dd8433" stroke-width="2"><g><path d="M 22 10L 298 10C 298 10 310 10 310 22L 310 52C 310 52 310 64 298 64L 22 64C 22 64 10 64 10 52L 10 22C 10 22 10 10 22 10"></path></g></g></g><g id="g-root-ro_vahasl1soqm11-stroke" data-item-order="999985096" data-item-id="ro_vahasl1soqm11" data-item-class="Shape Stroke Fill" data-item-index="none" data-renderer-id="0" transform="translate(614, 3)"><g id="ro_vahasl1soqm11-stroke" fill="none" stroke-linecap="round" stroke-linejoin="round" stroke-miterlimit="4" stroke="#3bc482" stroke-width="2"><g><path d="M 22 10L 274 10C 274 10 286 10 286 22L 286 52C 286 52 286 64 274 64L 22 64C 22 64 10 64 10 52L 10 22C 10 22 10 10 22 10"></path></g></g></g><g id="g-root-ro_hyebc51sp0ete-stroke" data-item-order="999985744" data-item-id="ro_hyebc51sp0ete" data-item-class="Shape Stroke Fill ColorFillGray ColorStrokeGray" data-item-index="none" data-renderer-id="0" transform="translate(86, 153)"><g id="ro_hyebc51sp0ete-stroke" fill="none" stroke-linecap="round" stroke-linejoin="round" stroke-miterlimit="4" stroke="#888888" stroke-width="2"><g><path d="M 22 10L 262 10C 262 10 274 10 274 22L 274 52C 274 52 274 64 262 64L 22 64C 22 64 10 64 10 52L 10 22C 10 22 10 10 22 10"></path></g></g></g><g id="g-root-ro_me7tgl1soxlov-stroke" data-item-order="999988984" data-item-id="ro_me7tgl1soxlov" data-item-class="Shape Stroke Fill" data-item-index="none" data-renderer-id="0" transform="translate(146, 3)"><g id="ro_me7tgl1soxlov-stroke" fill="none" stroke-linecap="round" stroke-linejoin="round" stroke-miterlimit="4" stroke="#4682e3" stroke-width="2"><g><path d="M 22 10L 202 10C 202 10 214 10 214 22L 214 52C 214 52 214 64 202 64L 22 64C 22 64 10 64 10 52L 10 22C 10 22 10 10 22 10"></path></g></g></g><g id="g-root-tx_groupeth_93ds6d1soutc7-stroke" data-item-order="1000000000" data-item-id="tx_groupeth_93ds6d1soutc7" data-item-class="Label Stroke" data-item-index="none" data-renderer-id="0" transform="translate(662, 255)"></g><g id="g-root-cu_92rb391sp0fm6-stroke" data-item-order="1000000000" data-item-id="cu_92rb391sp0fm6" data-item-class="Curve Stroke ColorStrokeGray" data-item-index="none" data-renderer-id="0" transform="translate(566, 30)"><g id="cu_92rb391sp0fm6-stroke" fill="none" stroke-linecap="round" stroke-linejoin="round" stroke-miterlimit="4" stroke="#888888" stroke-width="2" stroke-dasharray="5.0, 7.0"><g><path d="M 10 100L 13 100L 13.1 100C 24.642748 100.000004 33.999997 90.642755 33.999998 79.100003L 34 79L 34 30.9C 33.999999 19.357249 43.357248 10.000001 54.899999 10.000002L 55 10L 58 10"></path></g></g></g><g id="g-root-tx_setsdicn_18lxt5x1soqkg3-stroke" data-item-order="1000000000" data-item-id="tx_setsdicn_18lxt5x1soqkg3" data-item-class="Label Stroke" data-item-index="none" data-renderer-id="0" transform="translate(662, 18)"></g><g id="g-root-tx_taillede_qu1bl11souu4q-stroke" data-item-order="1000000000" data-item-id="tx_taillede_qu1bl11souu4q" data-item-class="Label Stroke" data-item-index="none" data-renderer-id="0" transform="translate(98, 69)"></g><g id="g-root-cu_4mxsyt1sp0gen-stroke" data-item-order="1000000000" data-item-id="cu_4mxsyt1sp0gen" data-item-class="Curve Stroke ColorStrokeGray" data-item-index="none" data-renderer-id="0" transform="translate(308, 57)"><g id="cu_4mxsyt1sp0gen-stroke" fill="none" stroke-linecap="round" stroke-linejoin="round" stroke-miterlimit="4" stroke="#888888" stroke-width="2" stroke-dasharray="5.0, 7.0"><g><path d="M 28 10L 28 22L 28 34L 19 34L 10 34"></path></g></g></g><g id="g-root-cu_7qrxh1sp0e16-stroke" data-item-order="1000000000" data-item-id="cu_7qrxh1sp0e16" data-item-class="Curve Stroke ColorStrokeGray" data-item-index="none" data-renderer-id="0" transform="translate(308, 57)"><g id="cu_7qrxh1sp0e16-stroke" fill="none" stroke-linecap="round" stroke-linejoin="round" stroke-miterlimit="4" stroke="#888888" stroke-width="2" stroke-dasharray="5.0, 7.0"><g><path d="M 28 10L 28 17.5L 28 58C 27.999999 64.627415 22.627416 69.999998 16 69.999998L 15.9 70L 10 70"></path></g></g></g><g id="g-root-cu_7qrxh1sp0e18-stroke" data-item-order="1000000000" data-item-id="cu_7qrxh1sp0e18" data-item-class="Curve Stroke ColorStrokeGray" data-item-index="none" data-renderer-id="0" transform="translate(638, 57)"><g id="cu_7qrxh1sp0e18-stroke" fill="none" stroke-linecap="round" stroke-linejoin="round" stroke-miterlimit="4" stroke="#888888" stroke-width="2" stroke-dasharray="5.0, 7.0"><g><path d="M 10 10L 10 22L 10 34L 19 34L 28 34"></path></g></g></g><g id="g-root-cu_1ut1bs51sp0emf-stroke" data-item-order="1000000000" data-item-id="cu_1ut1bs51sp0emf" data-item-class="Curve Stroke ColorStrokeGray" data-item-index="none" data-renderer-id="0" transform="translate(638, 57)"><g id="cu_1ut1bs51sp0emf-stroke" fill="none" stroke-linecap="round" stroke-linejoin="round" stroke-miterlimit="4" stroke="#888888" stroke-width="2" stroke-dasharray="5.0, 7.0"><g><path d="M 10 10L 10 17.5L 10 58C 10.000002 64.627417 15.372585 70 22.000002 69.999999L 22.1 70L 28 70"></path></g></g></g><g id="g-root-cu_92rb391sp0fm3-stroke" data-item-order="1000000000" data-item-id="cu_92rb391sp0fm3" data-item-class="Curve Stroke ColorStrokeGray" data-item-index="none" data-renderer-id="0" transform="translate(350, 30)"><g id="cu_92rb391sp0fm3-stroke" fill="none" stroke-linecap="round" stroke-linejoin="round" stroke-miterlimit="4" stroke="#888888" stroke-width="2" stroke-dasharray="5.0, 7.0"><g><path d="M 58 100L 55 100L 54.9 100C 43.357252 100 34.000003 90.642751 34.000003 79.1L 34 79L 34 30.9C 33.999998 19.357248 24.64275 10 13.1 10L 13 10L 10 10"></path></g></g></g><g id="g-root-tx_harmonie_meuajp1sourr8-stroke" data-item-order="1000000000" data-item-id="tx_harmonie_meuajp1sourr8" data-item-class="Label Stroke" data-item-index="none" data-renderer-id="0" transform="translate(662, 69)"></g><g id="g-root-tx_tempsdec_qu1bl11souu4r-stroke" data-item-order="1000000000" data-item-id="tx_tempsdec_qu1bl11souu4r" data-item-class="Label Stroke" data-item-index="none" data-renderer-id="0" transform="translate(2, 105)"></g><g id="g-root-mana_3zxet1somfbc-stroke" data-item-order="1000000000" data-item-id="mana_3zxet1somfbc" data-item-class="Icon Stroke" data-item-index="none" data-renderer-id="0" transform="translate(458, 102)"><g id="mana_3zxet1somfbc-stroke" fill="none" stroke-linecap="round" stroke-linejoin="round" stroke-miterlimit="4" stroke="#484848" stroke-width="2"><g><path d="M 10 10M 34 28L 43 19M 34 40L 25 49M 57 34C 56.999382 34.636688 56.747879 35.247482 56.300003 35.700001L 35.700001 56.299999C 34.757553 57.230236 33.242451 57.230236 32.300003 56.300003L 11.7 35.700001C 10.769766 34.757553 10.769766 33.242451 11.7 32.300003L 32.299999 11.7C 33.242451 10.769766 34.757553 10.769766 35.700001 11.7L 56.299999 32.299999C 56.747879 32.752522 56.999382 33.363316 57.000004 34ZM 28.004 34L 34 28.004L 39.996002 34L 34 39.996002Z"></path></g></g></g><g id="g-root-tx_identitd_dj7aat1sousjx-stroke" data-item-order="1000000000" data-item-id="tx_identitd_dj7aat1sousjx" data-item-class="Label Stroke" data-item-index="none" data-renderer-id="0" transform="translate(662, 105)"></g><g id="g-root-cont_vahasl1soqm10-stroke" data-item-order="1000000000" data-item-id="cont_vahasl1soqm10" data-item-class="Icon Stroke" data-item-index="none" data-renderer-id="0" transform="translate(626, 15)"><g id="cont_vahasl1soqm10-stroke" fill="none" stroke-linecap="round" stroke-linejoin="round" stroke-miterlimit="4" stroke="#3bc482" stroke-width="2"><g><path d="M 23.125 21.875C 23.125 22.565357 22.565357 23.125 21.875 23.125L 11.875 23.125C 11.184644 23.125 10.625 22.565357 10.625 21.875L 10.625 11.875C 10.625 11.184644 11.184644 10.625 11.875 10.625L 21.875 10.625C 22.565357 10.625 23.125 11.184644 23.125 11.875ZM 23.125 38.125C 23.125 38.815353 22.565357 39.375 21.875 39.375L 11.875 39.375C 11.184644 39.375 10.625 38.815353 10.625 38.125L 10.625 28.125C 10.625 27.434643 11.184644 26.875 11.875 26.875L 21.875 26.875C 22.565357 26.875 23.125 27.434643 23.125 28.125ZM 26.87125 13.12125L 39.37125 13.12125M 26.87125 16.87125L 39.37125 16.87125M 26.87125 20.62125L 39.37125 20.62125M 26.87125 29.37125L 39.37125 29.37125M 26.87125 33.12125L 39.37125 33.12125M 26.87125 36.87125L 39.37125 36.87125"></path></g></g></g><g id="g-root-ligh_v98cmd1sp0ge9-stroke" data-item-order="1000000000" data-item-id="ligh_v98cmd1sp0ge9" data-item-class="Icon Stroke ColorFillGray ColorStrokeGray" data-item-index="none" data-renderer-id="0" transform="translate(308, 165)"><g id="ligh_v98cmd1sp0ge9-stroke" fill="none" stroke-linecap="round" stroke-linejoin="round" stroke-miterlimit="4" stroke="#888888" stroke-width="2"><g><path d="M 17.5 25C 17.5 29.142136 20.857864 32.5 25 32.5C 29.142136 32.5 32.5 29.142136 32.5 25C 32.5 20.857864 29.142136 17.5 25 17.5C 20.857864 17.5 17.5 20.857864 17.5 25M 23.075001 17.75C 21.98089 20.385323 22.476971 23.413206 24.354834 25.561609C 26.232697 27.710011 29.166994 28.606712 31.925001 27.875M 25 11.25L 25 17.5M 34.725002 15.275L 30.299999 19.700001M 38.75 25L 32.5 25M 34.725002 34.725002L 30.299999 30.299999M 25 38.75L 25 32.5M 15.275 34.725002L 19.700001 30.299999M 11.25 25L 17.5 25M 15.275 15.275L 19.700001 19.700001M 15 25L 17.5 25"></path></g></g></g><g id="g-root-cu_4mxsyt1sp0gek-stroke" data-item-order="1000000000" data-item-id="cu_4mxsyt1sp0gek" data-item-class="Curve Stroke ColorStrokeGray" data-item-index="none" data-renderer-id="0" transform="translate(350, 162)"><g id="cu_4mxsyt1sp0gek-stroke" fill="none" stroke-linecap="round" stroke-linejoin="round" stroke-miterlimit="4" stroke="#888888" stroke-width="2" stroke-dasharray="5.0, 7.0"><g><path d="M 58 10L 55 10L 54.9 10C 51.367721 9.979924 47.485254 10.763229 43.500001 12.299998C 41.115703 13.264006 37.743204 15.642505 34.000001 19C 30.256797 22.357494 26.884298 24.735994 24.5 25.7C 20.514747 27.236768 16.632281 28.020072 13.100001 28L 13 28L 10 28"></path></g></g></g><g id="g-root-tx_iconogra_4jtfj91somej3-stroke" data-item-order="1000000000" data-item-id="tx_iconogra_4jtfj91somej3" data-item-class="Label Stroke" data-item-index="none" data-renderer-id="0" transform="translate(422, 156)"></g><g id="g-root-vect_v9utph1soxkw6-stroke" data-item-order="1000000000" data-item-id="vect_v9utph1soxkw6" data-item-class="Icon Stroke" data-item-index="none" data-renderer-id="0" transform="translate(308, 15)"><g id="vect_v9utph1soxkw6-stroke" fill="none" stroke-linecap="round" stroke-linejoin="round" stroke-miterlimit="4" stroke="#4682e3" stroke-width="2"><g><path d="M 36.512497 15.625C 36.746483 15.860899 36.876923 16.180246 36.875 16.512501L 36.875 38.125C 36.875 38.815353 36.315353 39.375 35.625 39.375L 14.375 39.375C 13.684644 39.375 13.125 38.815353 13.125 38.125L 13.125 11.875C 13.125 11.184644 13.684644 10.625 14.375 10.625L 30.987501 10.625C 31.319754 10.623079 31.639101 10.753517 31.875 10.9875ZM 28.2875 20.762499L 19.450001 29.6M 27.737499 19.4375C 27.737501 20.473034 28.576967 21.3125 29.612501 21.3125C 30.648033 21.3125 31.487501 20.473034 31.487501 19.4375C 31.487501 18.401966 30.648033 17.5625 29.612501 17.5625C 28.576967 17.5625 27.737501 18.401966 27.737501 19.4375M 20 30.924999C 20 31.960535 19.160534 32.799999 18.125 32.799999C 17.089466 32.799999 16.25 31.960535 16.25 30.924999C 16.25 29.889467 17.089466 29.050001 18.125 29.050001C 19.160534 29.050001 20 29.889467 20 30.924999ZM 24.75 32.525002L 26 32.525002C 26 32.525002 26.625 32.525002 26.625 33.150002L 26.625 34.400002C 26.625 34.400002 26.625 35.025002 26 35.025002L 24.75 35.025002C 24.75 35.025002 24.125 35.025002 24.125 34.400002L 24.125 33.150002C 24.125 33.150002 24.125 32.525002 24.75 32.525002M 31.8125 25.449999L 33.0625 25.449999C 33.0625 25.449999 33.6875 25.449999 33.6875 26.074999L 33.6875 27.324999C 33.6875 27.324999 33.6875 27.949999 33.0625 27.949999L 31.8125 27.949999C 31.8125 27.949999 31.1875 27.949999 31.1875 27.324999L 31.1875 26.074999C 31.1875 26.074999 31.1875 25.449999 31.8125 25.449999M 24.299999 32.712502C 22.35 30.75 23.112499 26.825001 24.299999 25.637501C 25.487501 24.450001 29.424999 23.6875 31.375 25.637501"></path></g></g></g><g id="g-root-tx_supportd_zp1uqt1sp0fm0-stroke" data-item-order="1000000000" data-item-id="tx_supportd_zp1uqt1sp0fm0" data-item-class="Label Stroke ColorFillGray ColorStrokeGray" data-item-index="none" data-renderer-id="0" transform="translate(98, 168)"></g><g id="g-root-cu_dikt7p1sp0flt-stroke" data-item-order="1000000000" data-item-id="cu_dikt7p1sp0flt" data-item-class="Curve Stroke ColorStrokeGray" data-item-index="none" data-renderer-id="0" transform="translate(566, 162)"><g id="cu_dikt7p1sp0flt-stroke" fill="none" stroke-linecap="round" stroke-linejoin="round" stroke-miterlimit="4" stroke="#888888" stroke-width="2" stroke-dasharray="5.0, 7.0"><g><path d="M 10 10L 13 10L 13.1 10C 16.63228 9.979927 20.514747 10.763232 24.5 12.300001C 26.884298 13.264007 30.256797 15.642506 34.000001 19.000001C 37.743204 22.357495 41.115704 24.735995 43.500001 25.700001C 47.485253 27.236771 51.36772 28.020075 54.9 28.000003L 55 28L 58 28"></path></g></g></g><g id="g-root-6_909eqt1soteru-stroke" data-item-order="1000000000" data-item-id="6_909eqt1soteru" data-item-class="Icon Stroke" data-item-index="none" data-renderer-id="0" transform="translate(626, 165)"><g id="6_909eqt1soteru-stroke" fill="none" stroke-linecap="round" stroke-linejoin="round" stroke-miterlimit="4" stroke="#dd8433" stroke-width="2"><g><path d="M 14.285714 34.642857C 14.285714 37.009792 16.204494 38.92857 18.571428 38.92857C 20.938362 38.92857 22.857143 37.009792 22.857143 34.642857C 22.857143 32.275921 20.938362 30.357141 18.571428 30.357141C 16.204494 30.357141 14.285714 32.275921 14.285714 34.642857M 14.285714 15.357142C 14.285714 17.724077 16.204494 19.642857 18.571428 19.642857C 20.938362 19.642857 22.857143 17.724077 22.857143 15.357142C 22.857143 12.990208 20.938362 11.071428 18.571428 11.071428C 16.204494 11.071428 14.285714 12.990208 14.285714 15.357142M 27.142857 17.5C 27.142857 19.866934 29.061636 21.785713 31.42857 21.785713C 33.795506 21.785713 35.714287 19.866934 35.714287 17.5C 35.714287 15.133065 33.795506 13.214286 31.42857 13.214286C 29.061636 13.214286 27.142857 15.133065 27.142857 17.5M 18.571428 30.357141L 18.571428 19.642857M 31.42857 21.785713L 31.42857 22.857143C 31.42857 25.224077 29.50979 27.142857 27.142857 27.142857L 21.785713 27.142857C 20.010513 27.142857 18.571428 28.581942 18.571428 30.357141"></path></g></g></g><g id="g-root-tx_organisa_mbpx451sotd6x-stroke" data-item-order="1000000000" data-item-id="tx_organisa_mbpx451sotd6x" data-item-class="Label Stroke" data-item-index="none" data-renderer-id="0" transform="translate(662, 168)"></g><g id="g-root-tx_confortv_93ds6d1soutc8-stroke" data-item-order="1000000000" data-item-id="tx_confortv_93ds6d1soutc8" data-item-class="Label Stroke" data-item-index="none" data-renderer-id="0" transform="translate(170, 219)"></g><g id="g-root-cu_1qd7tnp1sp0feu-stroke" data-item-order="1000000000" data-item-id="cu_1qd7tnp1sp0feu" data-item-class="Curve Stroke ColorStrokeGray" data-item-index="none" data-renderer-id="0" transform="translate(308, 207)"><g id="cu_1qd7tnp1sp0feu-stroke" fill="none" stroke-linecap="round" stroke-linejoin="round" stroke-miterlimit="4" stroke="#888888" stroke-width="2" stroke-dasharray="5.0, 7.0"><g><path d="M 28 10L 28 22L 28 34L 19 34L 10 34"></path></g></g></g><g id="g-root-cu_1qd7tnp1sp0fex-stroke" data-item-order="1000000000" data-item-id="cu_1qd7tnp1sp0fex" data-item-class="Curve Stroke ColorStrokeGray" data-item-index="none" data-renderer-id="0" transform="translate(308, 207)"><g id="cu_1qd7tnp1sp0fex-stroke" fill="none" stroke-linecap="round" stroke-linejoin="round" stroke-miterlimit="4" stroke="#888888" stroke-width="2" stroke-dasharray="5.0, 7.0"><g><path d="M 28 10L 28 17.5L 28 58C 27.999999 64.627415 22.627416 69.999998 16 69.999998L 15.9 70L 10 70"></path></g></g></g><g id="g-root-cu_1ut1bs51sp0emh-stroke" data-item-order="1000000000" data-item-id="cu_1ut1bs51sp0emh" data-item-class="Curve Stroke ColorStrokeGray" data-item-index="none" data-renderer-id="0" transform="translate(638, 207)"><g id="cu_1ut1bs51sp0emh-stroke" fill="none" stroke-linecap="round" stroke-linejoin="round" stroke-miterlimit="4" stroke="#888888" stroke-width="2" stroke-dasharray="5.0, 7.0"><g><path d="M 10 10L 10 22L 10 34L 19 34L 28 34"></path></g></g></g><g id="g-root-cu_1ut1bs51sp0emk-stroke" data-item-order="1000000000" data-item-id="cu_1ut1bs51sp0emk" data-item-class="Curve Stroke ColorStrokeGray" data-item-index="none" data-renderer-id="0" transform="translate(638, 207)"><g id="cu_1ut1bs51sp0emk-stroke" fill="none" stroke-linecap="round" stroke-linejoin="round" stroke-miterlimit="4" stroke="#888888" stroke-width="2" stroke-dasharray="5.0, 7.0"><g><path d="M 10 10L 10 17.5L 10 58C 10.000002 64.627417 15.372585 70 22.000002 69.999999L 22.1 70L 28 70"></path></g></g></g><g id="g-root-tx_scnarios_dj7aat1sousjy-stroke" data-item-order="1000000000" data-item-id="tx_scnarios_dj7aat1sousjy" data-item-class="Label Stroke" data-item-index="none" data-renderer-id="0" transform="translate(662, 219)"></g><g id="g-root-tx_accessib_4nka1x1souu4h-stroke" data-item-order="1000000000" data-item-id="tx_accessib_4nka1x1souu4h" data-item-class="Label Stroke" data-item-index="none" data-renderer-id="0" transform="translate(182, 255)"></g><g id="g-root-tx_svgoptim_zp1uqt1soxn9p-stroke" data-item-order="1000000000" data-item-id="tx_svgoptim_zp1uqt1soxn9p" data-item-class="Label Stroke" data-item-index="none" data-renderer-id="0" transform="translate(158, 18)"></g></g></g></svg>