<?xml version="1.0" encoding="utf-8" standalone="yes"?>
<!DOCTYPE svg PUBLIC "-//W3C//DTD SVG 1.1//EN" "http://www.w3.org/Graphics/SVG/1.1/DTD/svg11.dtd">
<svg width="660" height="572" viewBox="0 0 660 572" style="fill:none;stroke:none;fill-rule:evenodd;clip-rule:evenodd;stroke-linecap:round;stroke-linejoin:round;stroke-miterlimit:1.5;" version="1.1" xmlns="http://www.w3.org/2000/svg" xmlns:xlink="http://www.w3.org/1999/xlink"><style id="fontImports">@import url("https://fonts.googleapis.com/css2?family=Roboto:wght@400;700&amp;display=block");</style><rect id="" x="0" y="0" width="660" height="571" style="fill: #ffffff;"></rect><g id="items" style="isolation: isolate"><g id="blend" style="mix-blend-mode:normal"><g id="g-root--1.cu_sy_dcc5it1rkwemi-fill" data-item-order="999815204" data-item-id="-1.cu_sy_dcc5it1rkwemi" data-item-class="Part Fill Stroke ColorFillGray ColorStrokeGray" data-item-index="-1" data-renderer-id="0" transform="translate(278, 74)"><g id="-1.cu_sy_dcc5it1rkwemi-fill" stroke="none" fill="#f6f6f6"><g><path d="M 65.766602 478C 80.754802 478 106.000002 373.235 106.000002 244C 106.000002 114.765 80.754802 10 65.766602 10C 80.775202 10.0122 92.941702 115.084 92.941702 244C 92.941702 372.916 80.775202 477.988 65.766602 478ZM 65.765897 478C 80.774597 477.988 92.941097 372.916 92.941097 244C 92.941097 115.084 80.774597 10.0122 65.765897 10L 51.957397 10C 66.060697 18.3945 77.199297 120.263 77.199297 244C 77.199297 367.737 65.382597 469.605 51.279297 478L 65.765897 478ZM 77.2 244C 77.2 367.737 65.3833 469.605 51.28 478L 50.0615 478C 35.0734 478 10 373.235 10 244C 10 114.765 35.0734 10 50.0615 10C 50.6991 10 51.9581 10 51.9581 10C 66.0614 18.3945 77.2 120.263 77.2 244Z"></path></g></g></g><g id="g-root-0.cr-medium_cr_dcc5it1rkwemj-fill" data-item-order="999815206" data-item-id="0.cr-medium_cr_dcc5it1rkwemj" data-item-class="Shape Stroke Fill Part Indexed_0" data-item-index="0" data-renderer-id="0" transform="translate(447, 272)"><g id="0.cr-medium_cr_dcc5it1rkwemj-fill" stroke="none" fill="#f0f0f0"><g><path d="M 10 46C 10 65.882251 26.117749 82 46 82C 65.882251 82 82 65.882251 82 46C 82 26.117749 65.882251 10 46 10C 26.117749 10 10 26.117749 10 46"></path></g></g></g><g id="g-root-6.line_sy_1q6z5yt1rkwefa-fill" data-item-order="999815209" data-item-id="6.line_sy_1q6z5yt1rkwefa" data-item-class="Curve Stroke Part Indexed" data-item-index="6" data-renderer-id="0" transform="translate(194, 349.99951171875)"></g><g id="g-root-6.cr-small_cr_1q6z5yt1rkwefb-fill" data-item-order="999815210" data-item-id="6.cr-small_cr_1q6z5yt1rkwefb" data-item-class="Shape Stroke Fill Part Indexed" data-item-index="6" data-renderer-id="0" transform="translate(134, 488.00048828125)"><g id="6.cr-small_cr_1q6z5yt1rkwefb-fill" stroke="none" fill="#e6f9ff"><g><path d="M 10 40C 10.000002 56.568544 23.431459 70.000002 40.000002 70.000002C 56.568544 70.000002 70.000002 56.568544 70.000002 40.000002C 70.000002 23.431459 56.568544 10.000002 40.000002 10.000002C 23.431459 10.000002 10.000002 23.431459 10.000002 40.000002"></path></g></g></g><g id="g-root-5.line_sy_1um67051rkwgss-fill" data-item-order="999815213" data-item-id="5.line_sy_1um67051rkwgss" data-item-class="Curve Stroke Part Indexed" data-item-index="5" data-renderer-id="0" transform="translate(194, 336.00048828125)"></g><g id="g-root-5.cr-small_cr_1q6z5yt1rkwef9-fill" data-item-order="999815214" data-item-id="5.cr-small_cr_1q6z5yt1rkwef9" data-item-class="Shape Stroke Fill Part Indexed" data-item-index="5" data-renderer-id="0" transform="translate(134, 404.00048828125)"><g id="5.cr-small_cr_1q6z5yt1rkwef9-fill" stroke="none" fill="#fffce6"><g><path d="M 10 40C 10.000002 56.568544 23.431459 70.000002 40.000002 70.000002C 56.568544 70.000002 70.000002 56.568544 70.000002 40.000002C 70.000002 23.431459 56.568544 10.000002 40.000002 10.000002C 23.431459 10.000002 10.000002 23.431459 10.000002 40.000002"></path></g></g></g><g id="g-root-4.line_sy_1um67051rkwgsq-fill" data-item-order="999815217" data-item-id="4.line_sy_1um67051rkwgsq" data-item-class="Curve Stroke Part Indexed" data-item-index="4" data-renderer-id="0" transform="translate(194, 318.00048828125)"></g><g id="g-root-4.cr-small_cr_1um67051rkwgsr-fill" data-item-order="999815218" data-item-id="4.cr-small_cr_1um67051rkwgsr" data-item-class="Shape Stroke Fill Part Indexed" data-item-index="4" data-renderer-id="0" transform="translate(134, 320.00048828125)"><g id="4.cr-small_cr_1um67051rkwgsr-fill" stroke="none" fill="#f5fbe9"><g><path d="M 10 40C 10.000002 56.568544 23.431459 70.000002 40.000002 70.000002C 56.568544 70.000002 70.000002 56.568544 70.000002 40.000002C 70.000002 23.431459 56.568544 10.000002 40.000002 10.000002C 23.431459 10.000002 10.000002 23.431459 10.000002 40.000002"></path></g></g></g><g id="g-root-3.line_sy_4gp59x1rkwg74-fill" data-item-order="999815221" data-item-id="3.line_sy_4gp59x1rkwg74" data-item-class="Curve Stroke Part Indexed" data-item-index="3" data-renderer-id="0" transform="translate(194.10940551757812, 266)"></g><g id="g-root-3.cr-small_cr_4gp59x1rkwg75-fill" data-item-order="999815222" data-item-id="3.cr-small_cr_4gp59x1rkwg75" data-item-class="Shape Stroke Fill Part Indexed" data-item-index="3" data-renderer-id="0" transform="translate(134, 236)"><g id="3.cr-small_cr_4gp59x1rkwg75-fill" stroke="none" fill="#e9fbf3"><g><path d="M 10 40C 10.000002 56.568544 23.431459 70.000002 40.000002 70.000002C 56.568544 70.000002 70.000002 56.568544 70.000002 40.000002C 70.000002 23.431459 56.568544 10.000002 40.000002 10.000002C 23.431459 10.000002 10.000002 23.431459 10.000002 40.000002"></path></g></g></g><g id="g-root-2.line_sy_8wined1rkwfeu-fill" data-item-order="999815225" data-item-id="2.line_sy_8wined1rkwfeu" data-item-class="Curve Stroke Part Indexed" data-item-index="2" data-renderer-id="0" transform="translate(194, 182)"></g><g id="g-root-2.cr-small_cr_vn5h1rkwg7j-fill" data-item-order="999815226" data-item-id="2.cr-small_cr_vn5h1rkwg7j" data-item-class="Shape Stroke Fill Part Indexed" data-item-index="2" data-renderer-id="0" transform="translate(134, 152)"><g id="2.cr-small_cr_vn5h1rkwg7j-fill" stroke="none" fill="#fee7f5"><g><path d="M 10 40C 10.000002 56.568544 23.431459 70.000002 40.000002 70.000002C 56.568544 70.000002 70.000002 56.568544 70.000002 40.000002C 70.000002 23.431459 56.568544 10.000002 40.000002 10.000002C 23.431459 10.000002 10.000002 23.431459 10.000002 40.000002"></path></g></g></g><g id="g-root-1.line_sy_dcc5it1rkwemk-fill" data-item-order="999815229" data-item-id="1.line_sy_dcc5it1rkwemk" data-item-class="Curve Stroke Part Indexed Indexed_1" data-item-index="1" data-renderer-id="0" transform="translate(194, 98)"></g><g id="g-root-1.cr-small_cr_8wined1rkwfet-fill" data-item-order="999815230" data-item-id="1.cr-small_cr_8wined1rkwfet" data-item-class="Shape Stroke Fill Part Indexed Indexed_1" data-item-index="1" data-renderer-id="0" transform="translate(134, 68)"><g id="1.cr-small_cr_8wined1rkwfet-fill" stroke="none" fill="#ffe7e6"><g><path d="M 10 40C 10.000002 56.568544 23.431459 70.000002 40.000002 70.000002C 56.568544 70.000002 70.000002 56.568544 70.000002 40.000002C 70.000002 23.431459 56.568544 10.000002 40.000002 10.000002C 23.431459 10.000002 10.000002 23.431459 10.000002 40.000002"></path></g></g></g><g id="g-root-tx_cohrence_18ntblh1rkv2fj-fill" data-item-order="1000000000" data-item-id="tx_cohrence_18ntblh1rkv2fj" data-item-class="Label Stroke Indexed" data-item-index="2" data-renderer-id="0" transform="translate(14, 158)"><g id="tx_cohrence_18ntblh1rkv2fj-fill" stroke="none" fill="#484848"><g><text style="font: 20px Roboto, sans-serif; white-space: pre;" font-weight="20px" font-size="Roboto," font-family="sans-serif"><tspan x="20.69" y="33.75" dominant-baseline="ideographic">Cohérence </tspan><tspan x="46.18" y="57.75" dominant-baseline="ideographic">Visuelle</tspan></text></g></g></g><g id="g-root-1_dfgiyd1rl92ix-fill" data-item-order="1000000000" data-item-id="1_dfgiyd1rl92ix" data-item-class="Icon Stroke Indexed InsideFill InsideColorFill" data-item-index="6" data-renderer-id="0" transform="translate(146, 500.00048828125)"></g><g id="g-root-samp_8zn0tx1rl93b6-fill" data-item-order="1000000000" data-item-id="samp_8zn0tx1rl93b6" data-item-class="Icon Stroke Indexed InsideFill InsideColorFill" data-item-index="2" data-renderer-id="0" transform="translate(146, 164)"></g><g id="g-root-tx_supportr_1hjgbud1rkv1mu-fill" data-item-order="1000000000" data-item-id="tx_supportr_1hjgbud1rkv1mu" data-item-class="Label Stroke Indexed" data-item-index="3" data-renderer-id="0" transform="translate(14, 242)"><g id="tx_supportr_1hjgbud1rkv1mu-fill" stroke="none" fill="#484848"><g><text style="font: 20px Roboto, sans-serif; white-space: pre;" font-weight="20px" font-size="Roboto," font-family="sans-serif"><tspan x="45.47" y="33.75" dominant-baseline="ideographic">Support </tspan><tspan x="13.79" y="57.75" dominant-baseline="ideographic">Responsive</tspan></text></g></g></g><g id="g-root-grap_dfgiyd1rl92iw-fill" data-item-order="1000000000" data-item-id="grap_dfgiyd1rl92iw" data-item-class="Icon Stroke Indexed Indexed_1 InsideFill InsideColorFill" data-item-index="1" data-renderer-id="0" transform="translate(146, 80)"></g><g id="g-root-1_qqak8l1rl943q-fill" data-item-order="1000000000" data-item-id="1_qqak8l1rl943q" data-item-class="Icon Stroke Indexed InsideFill InsideColorFill" data-item-index="3" data-renderer-id="0" transform="translate(146, 248)"></g><g id="g-root-phon_400l11rl943w-fill" data-item-order="1000000000" data-item-id="phon_400l11rl943w" data-item-class="Icon Stroke InsideFill" data-item-index="none" data-renderer-id="0" transform="translate(458, 284)"></g><g id="g-root-tx_exprienc_mg3bw51rkv08y-fill" data-item-order="1000000000" data-item-id="tx_exprienc_mg3bw51rkv08y" data-item-class="Label Stroke" data-item-index="none" data-renderer-id="0" transform="translate(530, 272)"><g id="tx_exprienc_mg3bw51rkv08y-fill" stroke="none" fill="#484848"><g><text style="font: 20px Roboto, sans-serif; white-space: pre;" font-weight="20px" font-size="Roboto," font-family="sans-serif"><tspan x="12" y="33.75" dominant-baseline="ideographic">Expérience </tspan><tspan x="12" y="57.75" dominant-baseline="ideographic">Utilisateur </tspan><tspan x="12" y="81.75" dominant-baseline="ideographic">Améliorée</tspan></text></g></g></g><g id="g-root-tx_thmesdyn_1uuwu7p1rkv01x-fill" data-item-order="1000000000" data-item-id="tx_thmesdyn_1uuwu7p1rkv01x" data-item-class="Label Stroke Indexed" data-item-index="4" data-renderer-id="0" transform="translate(2, 326.00048828125)"><g id="tx_thmesdyn_1uuwu7p1rkv01x-fill" stroke="none" fill="#484848"><g><text style="font: 20px Roboto, sans-serif; white-space: pre;" font-weight="20px" font-size="Roboto," font-family="sans-serif"><tspan x="56.01" y="33.75" dominant-baseline="ideographic">Thèmes </tspan><tspan x="17.82" y="57.75" dominant-baseline="ideographic">Dynamiques</tspan></text></g></g></g><g id="g-root-1_hva12t1rl91qn-fill" data-item-order="1000000000" data-item-id="1_hva12t1rl91qn" data-item-class="Icon Stroke Indexed InsideFill InsideColorFill" data-item-index="4" data-renderer-id="0" transform="translate(146, 332.00048828125)"></g><g id="g-root-tx_accessib_8zt9x1rkv2mk-fill" data-item-order="1000000000" data-item-id="tx_accessib_8zt9x1rkv2mk" data-item-class="Label Stroke Indexed" data-item-index="5" data-renderer-id="0" transform="translate(2, 410.00048828125)"><g id="tx_accessib_8zt9x1rkv2mk-fill" stroke="none" fill="#484848"><g><text style="font: 20px Roboto, sans-serif; white-space: pre;" font-weight="20px" font-size="Roboto," font-family="sans-serif"><tspan x="15.03" y="33.75" dominant-baseline="ideographic">Accessibilité </tspan><tspan x="37.94" y="57.75" dominant-baseline="ideographic">Améliorée</tspan></text></g></g></g><g id="g-root-tx_performa_zit71x1rkwfeo-fill" data-item-order="1000000000" data-item-id="tx_performa_zit71x1rkwfeo" data-item-class="Label Stroke Indexed Indexed_1" data-item-index="1" data-renderer-id="0" transform="translate(2, 74)"><g id="tx_performa_zit71x1rkwfeo-fill" stroke="none" fill="#484848"><g><text style="font: 20px Roboto, sans-serif; white-space: pre;" font-weight="20px" font-size="Roboto," font-family="sans-serif"><tspan x="12.38" y="33.75" dominant-baseline="ideographic">Performance </tspan><tspan x="37.75" y="57.75" dominant-baseline="ideographic">Optimisée</tspan></text></g></g></g><g id="g-root-cc_8zn0tx1rl93b7-fill" data-item-order="1000000000" data-item-id="cc_8zn0tx1rl93b7" data-item-class="Icon Stroke Indexed InsideFill InsideColorFill" data-item-index="5" data-renderer-id="0" transform="translate(146, 416.00048828125)"></g><g id="g-root-tx_maintena_dkgbn91rkv11n-fill" data-item-order="1000000000" data-item-id="tx_maintena_dkgbn91rkv11n" data-item-class="Label Stroke Indexed" data-item-index="6" data-renderer-id="0" transform="translate(2, 494.00048828125)"><g id="tx_maintena_dkgbn91rkv11n-fill" stroke="none" fill="#484848"><g><text style="font: 20px Roboto, sans-serif; white-space: pre;" font-weight="20px" font-size="Roboto," font-family="sans-serif"><tspan x="12.63" y="33.75" dominant-baseline="ideographic">Maintenance </tspan><tspan x="40.56" y="57.75" dominant-baseline="ideographic">Simplifiée</tspan></text></g></g></g><g id="g-root-tx_avantage_qn66t11rkwg7d-fill" data-item-order="1000000000" data-item-id="tx_avantage_qn66t11rkwg7d" data-item-class="Label Stroke Title" data-item-index="none" data-renderer-id="0" transform="translate(194, 2)"><g id="tx_avantage_qn66t11rkwg7d-fill" stroke="none" fill="#484848"><g><text style="font: 20px Roboto, sans-serif; white-space: pre;" font-weight="20px" font-size="Roboto," font-family="sans-serif"><tspan x="13.55" y="33.75" dominant-baseline="ideographic">Avantages d'un Design Unifié</tspan></text></g></g></g><g id="g-root--1.cu_sy_dcc5it1rkwemi-stroke" data-item-order="999815204" data-item-id="-1.cu_sy_dcc5it1rkwemi" data-item-class="Part Fill Stroke ColorFillGray ColorStrokeGray" data-item-index="-1" data-renderer-id="0" transform="translate(278, 74)"><g id="-1.cu_sy_dcc5it1rkwemi-stroke" fill="none" stroke-linecap="round" stroke-linejoin="round" stroke-miterlimit="4" stroke="#888888" stroke-width="2"><g><path d="M 65.766602 478C 80.754802 478 106.000002 373.2347 106.000002 244C 106.000002 114.7654 80.754802 10 65.766602 10C 80.775202 10.0122 92.941702 115.0836 92.941702 244C 92.941702 372.9165 80.775202 477.9878 65.766602 478ZM 65.765897 478C 80.774597 477.9878 92.941097 372.9165 92.941097 244C 92.941097 115.0836 80.774597 10.0122 65.765897 10L 51.957397 10C 66.060697 18.3945 77.199297 120.2626 77.199297 244C 77.199297 367.7375 65.382597 469.6055 51.279297 478L 65.765897 478ZM 77.2 244C 77.2 367.7375 65.3833 469.6055 51.28 478L 50.0615 478C 35.0734 478 10 373.2347 10 244C 10 114.7654 35.0734 10 50.0615 10C 50.6991 10 51.9581 10 51.9581 10C 66.0614 18.3945 77.2 120.2626 77.2 244Z"></path></g></g></g><g id="g-root-0.cr-medium_cr_dcc5it1rkwemj-stroke" data-item-order="999815206" data-item-id="0.cr-medium_cr_dcc5it1rkwemj" data-item-class="Shape Stroke Fill Part Indexed_0" data-item-index="0" data-renderer-id="0" transform="translate(447, 272)"><g id="0.cr-medium_cr_dcc5it1rkwemj-stroke" fill="none" stroke-linecap="round" stroke-linejoin="round" stroke-miterlimit="4" stroke="#484848" stroke-width="2"><g><path d="M 10 46C 10 65.882251 26.117749 82 46 82C 65.882251 82 82 65.882251 82 46C 82 26.117749 65.882251 10 46 10C 26.117749 10 10 26.117749 10 46"></path></g></g></g><g id="g-root-6.line_sy_1q6z5yt1rkwefa-stroke" data-item-order="999815209" data-item-id="6.line_sy_1q6z5yt1rkwefa" data-item-class="Curve Stroke Part Indexed" data-item-index="6" data-renderer-id="0" transform="translate(194, 349.99951171875)"><g id="6.line_sy_1q6z5yt1rkwefa-stroke" fill="none" stroke-linecap="round" stroke-linejoin="round" stroke-miterlimit="4" stroke="#17b0e3" stroke-width="2"><g><path d="M 272.7 11.520488L 130 178.000488L 10 178.000488"></path><path d="M 273.7 20.300488L 273 11.100488L 263.9 11.800488" stroke-dasharray="none"></path></g></g></g><g id="g-root-6.cr-small_cr_1q6z5yt1rkwefb-stroke" data-item-order="999815210" data-item-id="6.cr-small_cr_1q6z5yt1rkwefb" data-item-class="Shape Stroke Fill Part Indexed" data-item-index="6" data-renderer-id="0" transform="translate(134, 488.00048828125)"><g id="6.cr-small_cr_1q6z5yt1rkwefb-stroke" fill="none" stroke-linecap="round" stroke-linejoin="round" stroke-miterlimit="4" stroke="#17b0e3" stroke-width="2"><g><path d="M 10 40C 10.000002 56.568544 23.431459 70.000002 40.000002 70.000002C 56.568544 70.000002 70.000002 56.568544 70.000002 40.000002C 70.000002 23.431459 56.568544 10.000002 40.000002 10.000002C 23.431459 10.000002 10.000002 23.431459 10.000002 40.000002"></path></g></g></g><g id="g-root-5.line_sy_1um67051rkwgss-stroke" data-item-order="999815213" data-item-id="5.line_sy_1um67051rkwgss" data-item-class="Curve Stroke Part Indexed" data-item-index="5" data-renderer-id="0" transform="translate(194, 336.00048828125)"><g id="5.line_sy_1um67051rkwgss-stroke" fill="none" stroke-linecap="round" stroke-linejoin="round" stroke-miterlimit="4" stroke="#e3cd09" stroke-width="2"><g><path d="M 257.41 11.209512L 130 107.999512L 10 107.999512"></path><path d="M 256.6 19.999512L 257.8 10.899512L 248.7 9.699512" stroke-dasharray="none"></path></g></g></g><g id="g-root-5.cr-small_cr_1q6z5yt1rkwef9-stroke" data-item-order="999815214" data-item-id="5.cr-small_cr_1q6z5yt1rkwef9" data-item-class="Shape Stroke Fill Part Indexed" data-item-index="5" data-renderer-id="0" transform="translate(134, 404.00048828125)"><g id="5.cr-small_cr_1q6z5yt1rkwef9-stroke" fill="none" stroke-linecap="round" stroke-linejoin="round" stroke-miterlimit="4" stroke="#e3cd09" stroke-width="2"><g><path d="M 10 40C 10.000002 56.568544 23.431459 70.000002 40.000002 70.000002C 56.568544 70.000002 70.000002 56.568544 70.000002 40.000002C 70.000002 23.431459 56.568544 10.000002 40.000002 10.000002C 23.431459 10.000002 10.000002 23.431459 10.000002 40.000002"></path></g></g></g><g id="g-root-4.line_sy_1um67051rkwgsq-stroke" data-item-order="999815217" data-item-id="4.line_sy_1um67051rkwgsq" data-item-class="Curve Stroke Part Indexed" data-item-index="4" data-renderer-id="0" transform="translate(194, 318.00048828125)"><g id="4.line_sy_1um67051rkwgsq-stroke" fill="none" stroke-linecap="round" stroke-linejoin="round" stroke-miterlimit="4" stroke="#93c131" stroke-width="2"><g><path d="M 250.07 10.509512L 130 41.999512L 10 41.999512"></path><path d="M 245.9 18.299512L 250.5 10.399512L 242.6 5.699512" stroke-dasharray="none"></path></g></g></g><g id="g-root-4.cr-small_cr_1um67051rkwgsr-stroke" data-item-order="999815218" data-item-id="4.cr-small_cr_1um67051rkwgsr" data-item-class="Shape Stroke Fill Part Indexed" data-item-index="4" data-renderer-id="0" transform="translate(134, 320.00048828125)"><g id="4.cr-small_cr_1um67051rkwgsr-stroke" fill="none" stroke-linecap="round" stroke-linejoin="round" stroke-miterlimit="4" stroke="#93c131" stroke-width="2"><g><path d="M 10 40C 10.000002 56.568544 23.431459 70.000002 40.000002 70.000002C 56.568544 70.000002 70.000002 56.568544 70.000002 40.000002C 70.000002 23.431459 56.568544 10.000002 40.000002 10.000002C 23.431459 10.000002 10.000002 23.431459 10.000002 40.000002"></path></g></g></g><g id="g-root-3.line_sy_4gp59x1rkwg74-stroke" data-item-order="999815221" data-item-id="3.line_sy_4gp59x1rkwg74" data-item-class="Curve Stroke Part Indexed" data-item-index="3" data-renderer-id="0" transform="translate(194.10940551757812, 266)"><g id="3.line_sy_4gp59x1rkwg74-stroke" fill="none" stroke-linecap="round" stroke-linejoin="round" stroke-miterlimit="4" stroke="#3bc482" stroke-width="2"><g><path d="M 249.960594 41.49L 129.890594 10L 10.000594 10"></path><path d="M 242.490594 46.3L 250.390594 41.6L 245.790594 33.7" stroke-dasharray="none"></path></g></g></g><g id="g-root-3.cr-small_cr_4gp59x1rkwg75-stroke" data-item-order="999815222" data-item-id="3.cr-small_cr_4gp59x1rkwg75" data-item-class="Shape Stroke Fill Part Indexed" data-item-index="3" data-renderer-id="0" transform="translate(134, 236)"><g id="3.cr-small_cr_4gp59x1rkwg75-stroke" fill="none" stroke-linecap="round" stroke-linejoin="round" stroke-miterlimit="4" stroke="#3bc482" stroke-width="2"><g><path d="M 10 40C 10.000002 56.568544 23.431459 70.000002 40.000002 70.000002C 56.568544 70.000002 70.000002 56.568544 70.000002 40.000002C 70.000002 23.431459 56.568544 10.000002 40.000002 10.000002C 23.431459 10.000002 10.000002 23.431459 10.000002 40.000002"></path></g></g></g><g id="g-root-2.line_sy_8wined1rkwfeu-stroke" data-item-order="999815225" data-item-id="2.line_sy_8wined1rkwfeu" data-item-class="Curve Stroke Part Indexed" data-item-index="2" data-renderer-id="0" transform="translate(194, 182)"><g id="2.line_sy_8wined1rkwfeu-stroke" fill="none" stroke-linecap="round" stroke-linejoin="round" stroke-miterlimit="4" stroke="#da5da8" stroke-width="2"><g><path d="M 257.41 106.79L 130 10L 10 10"></path><path d="M 248.7 108.3L 257.8 107.1L 256.6 98" stroke-dasharray="none"></path></g></g></g><g id="g-root-2.cr-small_cr_vn5h1rkwg7j-stroke" data-item-order="999815226" data-item-id="2.cr-small_cr_vn5h1rkwg7j" data-item-class="Shape Stroke Fill Part Indexed" data-item-index="2" data-renderer-id="0" transform="translate(134, 152)"><g id="2.cr-small_cr_vn5h1rkwg7j-stroke" fill="none" stroke-linecap="round" stroke-linejoin="round" stroke-miterlimit="4" stroke="#da5da8" stroke-width="2"><g><path d="M 10 40C 10.000002 56.568544 23.431459 70.000002 40.000002 70.000002C 56.568544 70.000002 70.000002 56.568544 70.000002 40.000002C 70.000002 23.431459 56.568544 10.000002 40.000002 10.000002C 23.431459 10.000002 10.000002 23.431459 10.000002 40.000002"></path></g></g></g><g id="g-root-1.line_sy_dcc5it1rkwemk-stroke" data-item-order="999815229" data-item-id="1.line_sy_dcc5it1rkwemk" data-item-class="Curve Stroke Part Indexed Indexed_1" data-item-index="1" data-renderer-id="0" transform="translate(194, 98)"><g id="1.line_sy_dcc5it1rkwemk-stroke" fill="none" stroke-linecap="round" stroke-linejoin="round" stroke-miterlimit="4" stroke="#e15e5a" stroke-width="2"><g><path d="M 272.7 176.48L 130 10L 10 10"></path><path d="M 263.9 176.2L 273 176.9L 273.7 167.7" stroke-dasharray="none"></path></g></g></g><g id="g-root-1.cr-small_cr_8wined1rkwfet-stroke" data-item-order="999815230" data-item-id="1.cr-small_cr_8wined1rkwfet" data-item-class="Shape Stroke Fill Part Indexed Indexed_1" data-item-index="1" data-renderer-id="0" transform="translate(134, 68)"><g id="1.cr-small_cr_8wined1rkwfet-stroke" fill="none" stroke-linecap="round" stroke-linejoin="round" stroke-miterlimit="4" stroke="#e15e5a" stroke-width="2"><g><path d="M 10 40C 10.000002 56.568544 23.431459 70.000002 40.000002 70.000002C 56.568544 70.000002 70.000002 56.568544 70.000002 40.000002C 70.000002 23.431459 56.568544 10.000002 40.000002 10.000002C 23.431459 10.000002 10.000002 23.431459 10.000002 40.000002"></path></g></g></g><g id="g-root-tx_cohrence_18ntblh1rkv2fj-stroke" data-item-order="1000000000" data-item-id="tx_cohrence_18ntblh1rkv2fj" data-item-class="Label Stroke Indexed" data-item-index="2" data-renderer-id="0" transform="translate(14, 158)"></g><g id="g-root-1_dfgiyd1rl92ix-stroke" data-item-order="1000000000" data-item-id="1_dfgiyd1rl92ix" data-item-class="Icon Stroke Indexed InsideFill InsideColorFill" data-item-index="6" data-renderer-id="0" transform="translate(146, 500.00048828125)"><g id="1_dfgiyd1rl92ix-stroke" fill="none" stroke-linecap="round" stroke-linejoin="round" stroke-miterlimit="4" stroke="#17b0e3" stroke-width="2"><g><path d="M 22.8685 35.5825C 23.592396 35.602379 24.269974 35.227543 24.637781 34.603733C 25.005589 33.979923 25.005589 33.205574 24.637781 32.581768C 24.269974 31.957958 23.592396 31.583122 22.8685 31.603001M 33.226002 31.599998C 32.502106 31.580122 31.824528 31.95496 31.456718 32.57877C 31.088911 33.202576 31.088911 33.976925 31.456718 34.600731C 31.824528 35.224541 32.502106 35.599377 33.226002 35.579498M 24.859001 33.593498L 31.2265 33.593498M 28.042 25.6105L 22.711 25.6105C 21.330189 25.610332 20.076769 26.417404 19.505501 27.6745L 17.509001 32.066502L 13.4335 34.331501C 12.688259 34.745502 12.22604 35.530987 12.226 36.383499L 12.226 38.524002C 12.226 39.820492 13.277012 40.871502 14.573501 40.871502L 15.751 40.871498L 15.751 40.898502C 15.787061 42.493469 17.090372 43.767651 18.685751 43.767651C 20.281128 43.767651 21.58444 42.493469 21.620501 40.898502L 21.620501 40.871498L 30.43 40.871498L 30.43 40.898502C 30.466061 42.493469 31.769371 43.767651 33.36475 43.767651C 34.960129 43.767651 36.263443 42.493469 36.2995 40.898502L 36.2995 40.871498L 36.889 40.871498C 38.18549 40.871502 39.236504 39.820492 39.236504 38.524002L 39.2365 34.7215M 37.184498 12.586L 32.661999 22.0765C 32.556477 22.298115 32.568539 22.557777 32.69416 22.76865C 32.819782 22.979527 33.042374 23.113773 33.287502 23.126501L 37.787498 23.362L 37.787498 29.401001C 37.787857 29.744116 38.025558 30.041334 38.360207 30.117096C 38.694855 30.192858 39.037395 30.027004 39.185501 29.717501L 43.706501 20.226999C 43.812836 20.005444 43.801147 19.745359 43.675377 19.534231C 43.549603 19.323105 43.326462 19.18899 43.081001 19.177L 38.581001 18.9415L 38.581001 12.9025C 38.579205 12.560612 38.341904 12.265107 38.008469 12.189537C 37.675034 12.113968 37.333519 12.278292 37.184502 12.586Z"></path></g></g></g><g id="g-root-samp_8zn0tx1rl93b6-stroke" data-item-order="1000000000" data-item-id="samp_8zn0tx1rl93b6" data-item-class="Icon Stroke Indexed InsideFill InsideColorFill" data-item-index="2" data-renderer-id="0" transform="translate(146, 164)"><g id="samp_8zn0tx1rl93b6-stroke" fill="none" stroke-linecap="round" stroke-linejoin="round" stroke-miterlimit="4" stroke="#da5da8" stroke-width="2"><g><path d="M 15.25 13.75L 21.25 13.75C 21.25 13.75 22 13.75 22 14.5L 22 19C 22 19 22 19.75 21.25 19.75L 15.25 19.75C 15.25 19.75 14.5 19.75 14.5 19L 14.5 14.5C 14.5 14.5 14.5 13.75 15.25 13.75M 15.25 22.75L 21.25 22.75C 21.25 22.75 22 22.75 22 23.5L 22 28C 22 28 22 28.75 21.25 28.75L 15.25 28.75C 15.25 28.75 14.5 28.75 14.5 28L 14.5 23.5C 14.5 23.5 14.5 22.75 15.25 22.75M 15.25 31.75L 21.25 31.75C 21.25 31.75 22 31.75 22 32.5L 22 37C 22 37 22 37.75 21.25 37.75L 15.25 37.75C 15.25 37.75 14.5 37.75 14.5 37L 14.5 32.5C 14.5 32.5 14.5 31.75 15.25 31.75M 16.75 41.5C 16.75 42.328426 17.421574 43 18.25 43C 19.078426 43 19.75 42.328426 19.75 41.5C 19.75 40.671574 19.078426 40 18.25 40C 17.421574 40 16.75 40.671574 16.75 41.5M 25.525002 44.5L 44.889999 23.41C 45.42852 22.780411 45.354645 21.833458 44.724998 21.295L 40 17.26M 12.25 10.75L 24.25 10.75C 24.25 10.75 25.75 10.75 25.75 12.25L 25.75 43.75C 25.75 43.75 25.75 45.25 24.25 45.25L 12.25 45.25C 12.25 45.25 10.75 45.25 10.75 43.75L 10.75 12.25C 10.75 12.25 10.75 10.75 12.25 10.75M 25.75 43.75L 36.834999 16.209999C 36.97551 15.836121 36.961105 15.421642 36.794983 15.058419C 36.628857 14.695196 36.32473 14.413227 35.949997 14.275L 29.275002 11.8"></path></g></g></g><g id="g-root-tx_supportr_1hjgbud1rkv1mu-stroke" data-item-order="1000000000" data-item-id="tx_supportr_1hjgbud1rkv1mu" data-item-class="Label Stroke Indexed" data-item-index="3" data-renderer-id="0" transform="translate(14, 242)"></g><g id="g-root-grap_dfgiyd1rl92iw-stroke" data-item-order="1000000000" data-item-id="grap_dfgiyd1rl92iw" data-item-class="Icon Stroke Indexed Indexed_1 InsideFill InsideColorFill" data-item-index="1" data-renderer-id="0" transform="translate(146, 80)"><g id="grap_dfgiyd1rl92iw-stroke" fill="none" stroke-linecap="round" stroke-linejoin="round" stroke-miterlimit="4" stroke="#e15e5a" stroke-width="2"><g><path d="M 10.75 29.950001L 27.25 29.950001M 11.5 22.450001L 13 22.450001C 13.414213 22.450001 13.75 22.785788 13.75 23.200001L 13.75 29.950001L 13.75 29.950001L 10.75 29.950001L 10.75 29.950001L 10.75 23.200001C 10.75 22.785788 11.085787 22.450001 11.5 22.450001ZM 17.5 18.700001L 19 18.700001C 19.414213 18.700001 19.75 19.035786 19.75 19.450001L 19.75 29.950001L 19.75 29.950001L 16.75 29.950001L 16.75 29.950001L 16.75 19.450001C 16.75 19.035786 17.085787 18.700001 17.5 18.700001ZM 23.5 14.2L 25 14.2C 25.414213 14.2 25.75 14.535787 25.75 14.95L 25.75 29.950001L 25.75 29.950001L 22.75 29.950001L 22.75 29.950001L 22.75 14.95C 22.75 14.535787 23.085787 14.2 23.5 14.2ZM 29.5 20.860001L 34.314999 17.02C 34.962055 16.509464 35.899818 16.616638 36.415001 17.26L 39.114998 20.5C 39.364971 20.811768 39.480209 21.210388 39.435154 21.607447C 39.390099 22.004503 39.188469 22.367168 38.875 22.615L 30.67 29.200001M 38.920002 20.32L 36.670002 17.5L 39.189999 15.445C 39.968704 14.806875 41.117294 14.920951 41.755268 15.699779C 42.393246 16.478605 42.278946 17.627174 41.5 18.264999ZM 41.739998 15.73L 44.32 13.72L 43.375 12.55M 45.25 14.89L 44.32 13.72M 14.559999 34.449997L 24.309999 34.449997M 17.559999 43.449997L 40.060001 43.449997M 36.400002 24.639999C 39.579494 28.157236 40.212543 33.290352 37.982849 37.474686C 35.753159 41.659012 31.139391 43.996269 26.446735 43.318695C 21.754078 42.641121 17.989939 39.094162 17.035 34.450001M 32.860001 27.460001C 34.813065 29.427645 35.364391 32.389416 34.25016 34.928032C 33.135937 37.466652 30.582758 39.065815 27.812389 38.960293C 25.042021 38.854771 22.617889 37.066017 21.700001 34.449997"></path></g></g></g><g id="g-root-1_qqak8l1rl943q-stroke" data-item-order="1000000000" data-item-id="1_qqak8l1rl943q" data-item-class="Icon Stroke Indexed InsideFill InsideColorFill" data-item-index="3" data-renderer-id="0" transform="translate(146, 248)"><g id="1_qqak8l1rl943q-stroke" fill="none" stroke-linecap="round" stroke-linejoin="round" stroke-miterlimit="4" stroke="#3bc482" stroke-width="2"><g><path d="M 16.75 22.75L 16.75 28.75M 13.75 25.75L 16.75 22.75L 19.75 25.75M 39.25 33.25L 33.25 33.25M 36.25 30.25L 39.25 33.25L 36.25 36.25M 16 38.5L 17.5 38.5C 17.5 38.5 18.25 38.5 18.25 39.25L 18.25 41.5C 18.25 41.5 18.25 42.25 17.5 42.25L 16 42.25C 16 42.25 15.25 42.25 15.25 41.5L 15.25 39.25C 15.25 39.25 15.25 38.5 16 38.5M 23.5 38.5L 25 38.5C 25 38.5 25.75 38.5 25.75 39.25L 25.75 41.5C 25.75 41.5 25.75 42.25 25 42.25L 23.5 42.25C 23.5 42.25 22.75 42.25 22.75 41.5L 22.75 39.25C 22.75 39.25 22.75 38.5 23.5 38.5M 24.25 21.25L 25.75 21.25C 25.75 21.25 26.5 21.25 26.5 22L 26.5 26.5C 26.5 26.5 26.5 27.25 25.75 27.25L 24.25 27.25C 24.25 27.25 23.5 27.25 23.5 26.5L 23.5 22C 23.5 22 23.5 21.25 24.25 21.25M 30.25 21.25L 31.75 21.25C 31.75 21.25 32.5 21.25 32.5 22L 32.5 26.5C 32.5 26.5 32.5 27.25 31.75 27.25L 30.25 27.25C 30.25 27.25 29.5 27.25 29.5 26.5L 29.5 22C 29.5 22 29.5 21.25 30.25 21.25M 36.25 21.25L 37.75 21.25C 37.75 21.25 38.5 21.25 38.5 22L 38.5 26.5C 38.5 26.5 38.5 27.25 37.75 27.25L 36.25 27.25C 36.25 27.25 35.5 27.25 35.5 26.5L 35.5 22C 35.5 22 35.5 21.25 36.25 21.25M 16.75 17.5L 45.25 17.5M 16.75 19L 16.75 13.75C 16.75 12.093145 18.093145 10.75 19.75 10.75L 42.25 10.75C 43.906857 10.75 45.25 12.093145 45.25 13.75L 45.25 30.25C 45.25 31.906855 43.906857 33.25 42.25 33.25M 21.625 13.75C 21.832108 13.75 22 13.917893 22 14.125C 22 14.332107 21.832108 14.5 21.625 14.5C 21.417892 14.5 21.25 14.332107 21.25 14.125C 21.25 13.917893 21.417892 13.75 21.625 13.75M 25.375 13.75C 25.582108 13.75 25.75 13.917893 25.75 14.125C 25.75 14.332107 25.582108 14.5 25.375 14.5C 25.167892 14.5 25 14.332107 25 14.125C 25 13.917893 25.167892 13.75 25.375 13.75M 29.125 13.75C 29.332108 13.75 29.5 13.917893 29.5 14.125C 29.5 14.332107 29.332108 14.5 29.125 14.5C 28.917892 14.5 28.75 14.332107 28.75 14.125C 28.75 13.917893 28.917892 13.75 29.125 13.75M 12.25 31.75L 28.75 31.75C 28.75 31.75 30.25 31.75 30.25 33.25L 30.25 43.75C 30.25 43.75 30.25 45.25 28.75 45.25L 12.25 45.25C 12.25 45.25 10.75 45.25 10.75 43.75L 10.75 33.25C 10.75 33.25 10.75 31.75 12.25 31.75M 10.75 35.5L 30.25 35.5"></path></g></g></g><g id="g-root-phon_400l11rl943w-stroke" data-item-order="1000000000" data-item-id="phon_400l11rl943w" data-item-class="Icon Stroke InsideFill" data-item-index="none" data-renderer-id="0" transform="translate(458, 284)"><g id="phon_400l11rl943w-stroke" fill="none" stroke-linecap="round" stroke-linejoin="round" stroke-miterlimit="4" stroke="#484848" stroke-width="2"><g><path d="M 44 35L 52 35M 30 49L 30 55C 30 56.104568 29.10457 57 28 57L 18 57C 16.895432 57 16 56.104568 16 55L 16 39C 16 37.895432 16.895432 37 18 37L 21 37M 16 53L 30 53M 26 33L 26 14C 26 12.343145 27.343145 11 29 11L 49 11C 50.656857 11 52 12.343145 52 14L 52 38C 52 39.656853 50.656857 41 49 41L 36 41M 38 31L 24 45M 32 31L 38 31L 38 37M 24 39L 24 45L 30 45"></path></g></g></g><g id="g-root-tx_exprienc_mg3bw51rkv08y-stroke" data-item-order="1000000000" data-item-id="tx_exprienc_mg3bw51rkv08y" data-item-class="Label Stroke" data-item-index="none" data-renderer-id="0" transform="translate(530, 272)"></g><g id="g-root-tx_thmesdyn_1uuwu7p1rkv01x-stroke" data-item-order="1000000000" data-item-id="tx_thmesdyn_1uuwu7p1rkv01x" data-item-class="Label Stroke Indexed" data-item-index="4" data-renderer-id="0" transform="translate(2, 326.00048828125)"></g><g id="g-root-1_hva12t1rl91qn-stroke" data-item-order="1000000000" data-item-id="1_hva12t1rl91qn" data-item-class="Icon Stroke Indexed InsideFill InsideColorFill" data-item-index="4" data-renderer-id="0" transform="translate(146, 332.00048828125)"><g id="1_hva12t1rl91qn-stroke" fill="none" stroke-linecap="round" stroke-linejoin="round" stroke-miterlimit="4" stroke="#93c131" stroke-width="2"><g><path d="M 14.5 19L 17.5 16.75C 17.5 13.4365 19.5145 10.75 22 10.75C 24.4855 10.75 26.5 13.4365 26.5 16.75L 30.25 19M 18.25 19L 16.75 22M 25.75 19L 27.25 22M 20.125 15.25C 20.332108 15.25 20.5 15.417893 20.5 15.625M 19.75 15.625C 19.75 15.417893 19.917892 15.25 20.125 15.25M 20.125 16C 19.917892 16 19.75 15.832107 19.75 15.625M 20.5 15.625C 20.5 15.832107 20.332108 16 20.125 16M 23.875 15.25C 24.082108 15.25 24.25 15.417893 24.25 15.625M 23.5 15.625C 23.5 15.417893 23.667892 15.25 23.875 15.25M 23.875 16C 23.667892 16 23.5 15.832107 23.5 15.625M 24.25 15.625C 24.25 15.832107 24.082108 16 23.875 16M 37 35.5C 37 40.884777 32.634777 45.250004 27.25 45.25C 22.75 45.25 19.75 43 18.25 37.75C 16.718254 33.673241 16.456783 29.22823 17.5 25M 26.681499 25.664499C 26.681499 25.664499 29.5 26.5 30.25 24.25M 26.282499 33.932499C 26.282499 33.932499 28.75 34.75 29.5 32.5M 17.300501 25.869999C 17.300501 25.869999 14.5 26.5 13.75 24.25M 17.23 33.908501C 17.23 33.908501 14.5 34.75 13.75 32.5M 26.5 25C 28 30.25 26.778999 31.101999 25.75 36.25C 25 40 27.099998 41.5 28.75 41.5C 29.550976 41.517799 30.324423 41.207451 30.890936 40.640938C 31.457451 40.074425 31.767801 39.300976 31.75 38.5L 31.75 33.25C 31.750002 30.350506 34.100506 28.000002 37 28.000002C 39.899494 28.000002 42.25 30.350506 42.25 33.25L 42.25 36.25C 42.236191 39.973209 40.234131 43.405312 37 45.25"></path></g></g></g><g id="g-root-tx_accessib_8zt9x1rkv2mk-stroke" data-item-order="1000000000" data-item-id="tx_accessib_8zt9x1rkv2mk" data-item-class="Label Stroke Indexed" data-item-index="5" data-renderer-id="0" transform="translate(2, 410.00048828125)"></g><g id="g-root-tx_performa_zit71x1rkwfeo-stroke" data-item-order="1000000000" data-item-id="tx_performa_zit71x1rkwfeo" data-item-class="Label Stroke Indexed Indexed_1" data-item-index="1" data-renderer-id="0" transform="translate(2, 74)"></g><g id="g-root-cc_8zn0tx1rl93b7-stroke" data-item-order="1000000000" data-item-id="cc_8zn0tx1rl93b7" data-item-class="Icon Stroke Indexed InsideFill InsideColorFill" data-item-index="5" data-renderer-id="0" transform="translate(146, 416.00048828125)"><g id="cc_8zn0tx1rl93b7-stroke" fill="none" stroke-linecap="round" stroke-linejoin="round" stroke-miterlimit="4" stroke="#e3cd09" stroke-width="2"><g><path d="M 20.696501 36.625C 15.933044 36.625 12.0715 32.763454 12.0715 28C 12.0715 23.236544 15.933044 19.375 20.696501 19.375C 22.038548 19.374113 23.3617 19.69128 24.557501 20.300501C 25.670906 20.863831 26.116831 22.223095 25.553501 23.3365C 24.99017 24.449905 23.630905 24.89583 22.5175 24.3325C 21.953979 24.043566 21.329777 23.892914 20.696501 23.893C 18.428669 23.893568 16.59053 25.732166 16.59053 27.999998C 16.59053 30.26783 18.428669 32.10643 20.696499 32.106998C 21.36154 32.107277 22.01602 31.940691 22.6 31.622501C 23.695187 31.063484 25.036343 31.482401 25.618641 32.565388C 26.200941 33.648376 25.810791 34.99818 24.740499 35.603497C 23.497316 36.27216 22.108097 36.62307 20.696501 36.625ZM 38.696503 36.625C 33.933044 36.625 30.071501 32.763454 30.071501 28C 30.071501 23.236544 33.933044 19.375 38.696503 19.375C 40.038551 19.374113 41.361702 19.69128 42.557503 20.300501C 43.670906 20.863831 44.116833 22.223095 43.553497 23.3365C 42.99017 24.449905 41.630905 24.89583 40.517498 24.3325C 39.953979 24.043566 39.329777 23.892914 38.696503 23.893C 36.428669 23.893568 34.59053 25.732166 34.59053 27.999998C 34.59053 30.26783 36.428669 32.10643 38.696499 32.106998C 39.361034 32.107025 40.014969 31.940449 40.598499 31.622501C 41.693687 31.063484 43.034843 31.482401 43.617142 32.565388C 44.19944 33.648376 43.809292 34.99818 42.738998 35.603497C 41.496265 36.271919 40.10759 36.622822 38.696503 36.625Z"></path></g></g></g><g id="g-root-tx_maintena_dkgbn91rkv11n-stroke" data-item-order="1000000000" data-item-id="tx_maintena_dkgbn91rkv11n" data-item-class="Label Stroke Indexed" data-item-index="6" data-renderer-id="0" transform="translate(2, 494.00048828125)"></g><g id="g-root-tx_avantage_qn66t11rkwg7d-stroke" data-item-order="1000000000" data-item-id="tx_avantage_qn66t11rkwg7d" data-item-class="Label Stroke Title" data-item-index="none" data-renderer-id="0" transform="translate(194, 2)"></g></g></g></svg>