<?xml version="1.0" encoding="utf-8" standalone="yes"?>
<!DOCTYPE svg PUBLIC "-//W3C//DTD SVG 1.1//EN" "http://www.w3.org/Graphics/SVG/1.1/DTD/svg11.dtd">
<svg width="684" height="481" viewBox="0 0 684 481" style="fill:none;stroke:none;fill-rule:evenodd;clip-rule:evenodd;stroke-linecap:round;stroke-linejoin:round;stroke-miterlimit:1.5;" version="1.1" xmlns="http://www.w3.org/2000/svg" xmlns:xlink="http://www.w3.org/1999/xlink"><style id="fontImports">@import url("https://fonts.googleapis.com/css2?family=Roboto:wght@400;700&amp;display=block");</style><rect id="" x="0" y="0" width="684" height="481" style="fill: #ffffff;"></rect><g id="items" style="isolation: isolate"><g id="blend" style="mix-blend-mode:normal"><g id="g-root--1.cu_sy_1uuwntx1u2x0co-fill" data-item-order="999852548" data-item-id="-1.cu_sy_1uuwntx1u2x0co" data-item-class="Part Fill Stroke ColorFillGray ColorStrokeGray" data-item-index="-1" data-renderer-id="0" transform="translate(290, 74)"><g id="-1.cu_sy_1uuwntx1u2x0co-fill" stroke="none" fill="#f6f6f6"><g><path d="M 65.766602 394C 80.754802 394 106.000002 308.039 106.000002 202C 106.000002 95.9613 80.754802 10 65.766602 10C 80.775202 10.01 92.941702 96.2224 92.941702 202C 92.941702 307.778 80.775202 393.99 65.766602 394ZM 65.765897 394C 80.774597 393.99 92.941097 307.778 92.941097 202C 92.941097 96.2224 80.774597 10.01 65.765897 10L 51.957397 10C 66.060697 16.8878 77.199297 100.4719 77.199297 202C 77.199297 303.528 65.382597 387.112 51.279297 394L 65.765897 394ZM 77.2 202C 77.2 303.528 65.3833 387.112 51.28 394L 50.0615 394C 35.0734 394 10 308.039 10 202C 10 95.9613 35.0734 10 50.0615 10C 50.6991 10 51.9581 10 51.9581 10C 66.0614 16.8878 77.2 100.4719 77.2 202Z"></path></g></g></g><g id="g-root-0.cr-medium_cr_1qf35ph1u2x14x-fill" data-item-order="999852550" data-item-id="0.cr-medium_cr_1qf35ph1u2x14x" data-item-class="Shape Stroke Fill Part Indexed_0" data-item-index="0" data-renderer-id="0" transform="translate(458, 230)"><g id="0.cr-medium_cr_1qf35ph1u2x14x-fill" stroke="none" fill="#f0f0f0"><g><path d="M 10 46C 10 65.882251 26.117749 82 46 82C 65.882251 82 82 65.882251 82 46C 82 26.117749 65.882251 10 46 10C 26.117749 10 10 26.117749 10 46"></path></g></g></g><g id="g-root-4.line_sy_1cu9j1h1u2ye4o-fill" data-item-order="999852553" data-item-id="4.line_sy_1cu9j1h1u2ye4o" data-item-class="Curve Stroke Part Indexed" data-item-index="4" data-renderer-id="0" transform="translate(206, 301)"></g><g id="g-root-4.cr-small_cr_1cu9j1h1u2ye4p-fill" data-item-order="999852554" data-item-id="4.cr-small_cr_1cu9j1h1u2ye4p" data-item-class="Shape Stroke Fill Part Indexed" data-item-index="4" data-renderer-id="0" transform="translate(146, 363)"><g id="4.cr-small_cr_1cu9j1h1u2ye4p-fill" stroke="none" fill="#f7e6fe"><g><path d="M 10 40C 10.000002 56.568544 23.431459 70.000002 40.000002 70.000002C 56.568544 70.000002 70.000002 56.568544 70.000002 40.000002C 70.000002 23.431459 56.568544 10.000002 40.000002 10.000002C 23.431459 10.000002 10.000002 23.431459 10.000002 40.000002"></path></g></g></g><g id="g-root-3.line_sy_1ha315x1u2ydce-fill" data-item-order="999852557" data-item-id="3.line_sy_1ha315x1u2ydce" data-item-class="Curve Stroke Part Indexed" data-item-index="3" data-renderer-id="0" transform="translate(206.109375, 278)"></g><g id="g-root-3.cr-small_cr_1cu9j1h1u2ye4n-fill" data-item-order="999852558" data-item-id="3.cr-small_cr_1cu9j1h1u2ye4n" data-item-class="Shape Stroke Fill Part Indexed" data-item-index="3" data-renderer-id="0" transform="translate(146, 279)"><g id="3.cr-small_cr_1cu9j1h1u2ye4n-fill" stroke="none" fill="#e9fbf3"><g><path d="M 10 40C 10.000002 56.568544 23.431459 70.000002 40.000002 70.000002C 56.568544 70.000002 70.000002 56.568544 70.000002 40.000002C 70.000002 23.431459 56.568544 10.000002 40.000002 10.000002C 23.431459 10.000002 10.000002 23.431459 10.000002 40.000002"></path></g></g></g><g id="g-root-2.line_sy_1ha315x1u2ydcc-fill" data-item-order="999852561" data-item-id="2.line_sy_1ha315x1u2ydcc" data-item-class="Curve Stroke Part Indexed" data-item-index="2" data-renderer-id="0" transform="translate(206, 224)"></g><g id="g-root-2.cr-small_cr_1ha315x1u2ydcd-fill" data-item-order="999852562" data-item-id="2.cr-small_cr_1ha315x1u2ydcd" data-item-class="Shape Stroke Fill Part Indexed" data-item-index="2" data-renderer-id="0" transform="translate(146, 195)"><g id="2.cr-small_cr_1ha315x1u2ydcd-fill" stroke="none" fill="#ffe7e6"><g><path d="M 10 40C 10.000002 56.568544 23.431459 70.000002 40.000002 70.000002C 56.568544 70.000002 70.000002 56.568544 70.000002 40.000002C 70.000002 23.431459 56.568544 10.000002 40.000002 10.000002C 23.431459 10.000002 10.000002 23.431459 10.000002 40.000002"></path></g></g></g><g id="g-root-1.line_sy_1qf35ph1u2x14y-fill" data-item-order="999852565" data-item-id="1.line_sy_1qf35ph1u2x14y" data-item-class="Curve Stroke Part Indexed Indexed_1" data-item-index="1" data-renderer-id="0" transform="translate(206, 140)"></g><g id="g-root-1.cr-small_cr_1qf35ph1u2x14z-fill" data-item-order="999852566" data-item-id="1.cr-small_cr_1qf35ph1u2x14z" data-item-class="Shape Stroke Fill Part Indexed Indexed_1" data-item-index="1" data-renderer-id="0" transform="translate(146, 111)"><g id="1.cr-small_cr_1qf35ph1u2x14z-fill" stroke="none" fill="#fffce6"><g><path d="M 10 40C 10.000002 56.568544 23.431459 70.000002 40.000002 70.000002C 56.568544 70.000002 70.000002 56.568544 70.000002 40.000002C 70.000002 23.431459 56.568544 10.000002 40.000002 10.000002C 23.431459 10.000002 10.000002 23.431459 10.000002 40.000002"></path></g></g></g><g id="g-root-tx_avantage_9m3z91u2wzrj-fill" data-item-order="1000000000" data-item-id="tx_avantage_9m3z91u2wzrj" data-item-class="Label Stroke Title" data-item-index="none" data-renderer-id="0" transform="translate(206, 2)"><g id="tx_avantage_9m3z91u2wzrj-fill" stroke="none" fill="#484848"><g><text style="font: 20px Roboto, sans-serif; white-space: pre;" font-weight="20px" font-size="Roboto," font-family="sans-serif"><tspan x="14.68" y="33.75" dominant-baseline="ideographic">Avantages du système unifié</tspan></text></g></g></g><g id="g-root-tx_modulari_9594851u2wyyu-fill" data-item-order="1000000000" data-item-id="tx_modulari_9594851u2wyyu" data-item-class="Label Stroke Indexed Indexed_1" data-item-index="1" data-renderer-id="0" transform="translate(26, 128)"><g id="tx_modulari_9594851u2wyyu-fill" stroke="none" fill="#484848"><g><text style="font: 20px Roboto, sans-serif; white-space: pre;" font-weight="20px" font-size="Roboto," font-family="sans-serif"><tspan x="20.34" y="33.75" dominant-baseline="ideographic">Modularité</tspan></text></g></g></g><g id="g-root-1_145hqqt1u2zrii-fill" data-item-order="1000000000" data-item-id="1_145hqqt1u2zrii" data-item-class="Icon Stroke Indexed Indexed_1 InsideFill InsideColorFill" data-item-index="1" data-renderer-id="0" transform="translate(158, 122)"></g><g id="g-root-tx_scurit_9594851u2wyyt-fill" data-item-order="1000000000" data-item-id="tx_scurit_9594851u2wyyt" data-item-class="Label Stroke Indexed" data-item-index="2" data-renderer-id="0" transform="translate(50, 212)"><g id="tx_scurit_9594851u2wyyt-fill" stroke="none" fill="#484848"><g><text style="font: 20px Roboto, sans-serif; white-space: pre;" font-weight="20px" font-size="Roboto," font-family="sans-serif"><tspan x="19.29" y="33.75" dominant-baseline="ideographic">Sécurité</tspan></text></g></g></g><g id="g-root-fort_1hgbs111u2zt3b-fill" data-item-order="1000000000" data-item-id="fort_1hgbs111u2zt3b" data-item-class="Icon Stroke Indexed InsideFill InsideColorFill" data-item-index="2" data-renderer-id="0" transform="translate(158, 206)"></g><g id="g-root-hier_1lw5a5h1u2zsb2-fill" data-item-order="1000000000" data-item-id="hier_1lw5a5h1u2zsb2" data-item-class="Icon Stroke InsideFill" data-item-index="none" data-renderer-id="0" transform="translate(470, 242)"></g><g id="g-root-tx_efficaci_qvwnmt1u2wzre-fill" data-item-order="1000000000" data-item-id="tx_efficaci_qvwnmt1u2wzre" data-item-class="Label Stroke" data-item-index="none" data-renderer-id="0" transform="translate(542, 242)"><g id="tx_efficaci_qvwnmt1u2wzre-fill" stroke="none" fill="#484848"><g><text style="font: 20px Roboto, sans-serif; white-space: pre;" font-weight="20px" font-size="Roboto," font-family="sans-serif"><tspan x="12" y="33.75" dominant-baseline="ideographic">Efficacité du </tspan><tspan x="12" y="57.75" dominant-baseline="ideographic">système</tspan></text></g></g></g><g id="g-root-tx_performa_dkg59h1u2x1cc-fill" data-item-order="1000000000" data-item-id="tx_performa_dkg59h1u2x1cc" data-item-class="Label Stroke Indexed" data-item-index="3" data-renderer-id="0" transform="translate(14, 296)"><g id="tx_performa_dkg59h1u2x1cc-fill" stroke="none" fill="#484848"><g><text style="font: 20px Roboto, sans-serif; white-space: pre;" font-weight="20px" font-size="Roboto," font-family="sans-serif"><tspan x="12.38" y="33.75" dominant-baseline="ideographic">Performance</tspan></text></g></g></g><g id="g-root-runn_1d0i9wl1u2ztvk-fill" data-item-order="1000000000" data-item-id="runn_1d0i9wl1u2ztvk" data-item-class="Icon Stroke Indexed InsideFill InsideColorFill" data-item-index="3" data-renderer-id="0" transform="translate(158, 290)"></g><g id="g-root-tx_maintena_mg35id1u2x0jn-fill" data-item-order="1000000000" data-item-id="tx_maintena_mg35id1u2x0jn" data-item-class="Label Stroke Indexed" data-item-index="4" data-renderer-id="0" transform="translate(2, 380)"><g id="tx_maintena_mg35id1u2x0jn-fill" stroke="none" fill="#484848"><g><text style="font: 20px Roboto, sans-serif; white-space: pre;" font-weight="20px" font-size="Roboto," font-family="sans-serif"><tspan x="13.81" y="33.75" dominant-baseline="ideographic">Maintenabilité</tspan></text></g></g></g><g id="g-root-2_1d0i9wl1u2ztvl-fill" data-item-order="1000000000" data-item-id="2_1d0i9wl1u2ztvl" data-item-class="Icon Stroke Indexed InsideFill InsideColorFill" data-item-index="4" data-renderer-id="0" transform="translate(158, 374)"></g><g id="g-root--1.cu_sy_1uuwntx1u2x0co-stroke" data-item-order="999852548" data-item-id="-1.cu_sy_1uuwntx1u2x0co" data-item-class="Part Fill Stroke ColorFillGray ColorStrokeGray" data-item-index="-1" data-renderer-id="0" transform="translate(290, 74)"><g id="-1.cu_sy_1uuwntx1u2x0co-stroke" fill="none" stroke-linecap="round" stroke-linejoin="round" stroke-miterlimit="4" stroke="#888888" stroke-width="2"><g><path d="M 65.766602 394C 80.754802 394 106.000002 308.0387 106.000002 202C 106.000002 95.9613 80.754802 10 65.766602 10C 80.775202 10.01 92.941702 96.2224 92.941702 202C 92.941702 307.7776 80.775202 393.99 65.766602 394ZM 65.765897 394C 80.774597 393.99 92.941097 307.7776 92.941097 202C 92.941097 96.2224 80.774597 10.01 65.765897 10L 51.957397 10C 66.060697 16.8878 77.199297 100.4719 77.199297 202C 77.199297 303.5282 65.382597 387.1122 51.279297 394L 65.765897 394ZM 77.2 202C 77.2 303.5282 65.3833 387.1122 51.28 394L 50.0615 394C 35.0734 394 10 308.0387 10 202C 10 95.9613 35.0734 10 50.0615 10C 50.6991 10 51.9581 10 51.9581 10C 66.0614 16.8878 77.2 100.4719 77.2 202Z"></path></g></g></g><g id="g-root-0.cr-medium_cr_1qf35ph1u2x14x-stroke" data-item-order="999852550" data-item-id="0.cr-medium_cr_1qf35ph1u2x14x" data-item-class="Shape Stroke Fill Part Indexed_0" data-item-index="0" data-renderer-id="0" transform="translate(458, 230)"><g id="0.cr-medium_cr_1qf35ph1u2x14x-stroke" fill="none" stroke-linecap="round" stroke-linejoin="round" stroke-miterlimit="4" stroke="#484848" stroke-width="2"><g><path d="M 10 46C 10 65.882251 26.117749 82 46 82C 65.882251 82 82 65.882251 82 46C 82 26.117749 65.882251 10 46 10C 26.117749 10 10 26.117749 10 46"></path></g></g></g><g id="g-root-4.line_sy_1cu9j1h1u2ye4o-stroke" data-item-order="999852553" data-item-id="4.line_sy_1cu9j1h1u2ye4o" data-item-class="Curve Stroke Part Indexed" data-item-index="4" data-renderer-id="0" transform="translate(206, 301)"><g id="4.line_sy_1cu9j1h1u2ye4o-stroke" fill="none" stroke-linecap="round" stroke-linejoin="round" stroke-miterlimit="4" stroke="#b65edf" stroke-width="2"><g><path d="M 260.35 11.140137L 130 101.000137L 10 101.000137"></path><path d="M 259.1 19.940137L 260.8 10.840137L 251.7 9.140137" stroke-dasharray="none"></path></g></g></g><g id="g-root-4.cr-small_cr_1cu9j1h1u2ye4p-stroke" data-item-order="999852554" data-item-id="4.cr-small_cr_1cu9j1h1u2ye4p" data-item-class="Shape Stroke Fill Part Indexed" data-item-index="4" data-renderer-id="0" transform="translate(146, 363)"><g id="4.cr-small_cr_1cu9j1h1u2ye4p-stroke" fill="none" stroke-linecap="round" stroke-linejoin="round" stroke-miterlimit="4" stroke="#b65edf" stroke-width="2"><g><path d="M 10 40C 10.000002 56.568544 23.431459 70.000002 40.000002 70.000002C 56.568544 70.000002 70.000002 56.568544 70.000002 40.000002C 70.000002 23.431459 56.568544 10.000002 40.000002 10.000002C 23.431459 10.000002 10.000002 23.431459 10.000002 40.000002"></path></g></g></g><g id="g-root-3.line_sy_1ha315x1u2ydce-stroke" data-item-order="999852557" data-item-id="3.line_sy_1ha315x1u2ydce" data-item-class="Curve Stroke Part Indexed" data-item-index="3" data-renderer-id="0" transform="translate(206.109375, 278)"><g id="3.line_sy_1ha315x1u2ydce-stroke" fill="none" stroke-linecap="round" stroke-linejoin="round" stroke-miterlimit="4" stroke="#3bc482" stroke-width="2"><g><path d="M 249.95061 10.47998L 129.89061 39.99998L 10.00061 39.99998"></path><path d="M 245.70061 18.17998L 250.40061 10.37998L 242.60061 5.57998" stroke-dasharray="none"></path></g></g></g><g id="g-root-3.cr-small_cr_1cu9j1h1u2ye4n-stroke" data-item-order="999852558" data-item-id="3.cr-small_cr_1cu9j1h1u2ye4n" data-item-class="Shape Stroke Fill Part Indexed" data-item-index="3" data-renderer-id="0" transform="translate(146, 279)"><g id="3.cr-small_cr_1cu9j1h1u2ye4n-stroke" fill="none" stroke-linecap="round" stroke-linejoin="round" stroke-miterlimit="4" stroke="#3bc482" stroke-width="2"><g><path d="M 10 40C 10.000002 56.568544 23.431459 70.000002 40.000002 70.000002C 56.568544 70.000002 70.000002 56.568544 70.000002 40.000002C 70.000002 23.431459 56.568544 10.000002 40.000002 10.000002C 23.431459 10.000002 10.000002 23.431459 10.000002 40.000002"></path></g></g></g><g id="g-root-2.line_sy_1ha315x1u2ydcc-stroke" data-item-order="999852561" data-item-id="2.line_sy_1ha315x1u2ydcc" data-item-class="Curve Stroke Part Indexed" data-item-index="2" data-renderer-id="0" transform="translate(206, 224)"><g id="2.line_sy_1ha315x1u2ydcc-stroke" fill="none" stroke-linecap="round" stroke-linejoin="round" stroke-miterlimit="4" stroke="#e15e5a" stroke-width="2"><g><path d="M 250.06 39.52L 130 10L 10 10"></path><path d="M 242.7 44.4L 250.5 39.6L 245.8 31.8" stroke-dasharray="none"></path></g></g></g><g id="g-root-2.cr-small_cr_1ha315x1u2ydcd-stroke" data-item-order="999852562" data-item-id="2.cr-small_cr_1ha315x1u2ydcd" data-item-class="Shape Stroke Fill Part Indexed" data-item-index="2" data-renderer-id="0" transform="translate(146, 195)"><g id="2.cr-small_cr_1ha315x1u2ydcd-stroke" fill="none" stroke-linecap="round" stroke-linejoin="round" stroke-miterlimit="4" stroke="#e15e5a" stroke-width="2"><g><path d="M 10 40C 10.000002 56.568544 23.431459 70.000002 40.000002 70.000002C 56.568544 70.000002 70.000002 56.568544 70.000002 40.000002C 70.000002 23.431459 56.568544 10.000002 40.000002 10.000002C 23.431459 10.000002 10.000002 23.431459 10.000002 40.000002"></path></g></g></g><g id="g-root-1.line_sy_1qf35ph1u2x14y-stroke" data-item-order="999852565" data-item-id="1.line_sy_1qf35ph1u2x14y" data-item-class="Curve Stroke Part Indexed Indexed_1" data-item-index="1" data-renderer-id="0" transform="translate(206, 140)"><g id="1.line_sy_1qf35ph1u2x14y-stroke" fill="none" stroke-linecap="round" stroke-linejoin="round" stroke-miterlimit="4" stroke="#e3cd09" stroke-width="2"><g><path d="M 260.35 99.86L 130 10L 10 10"></path><path d="M 251.7 101.8L 260.8 100.1L 259.1 91.1" stroke-dasharray="none"></path></g></g></g><g id="g-root-1.cr-small_cr_1qf35ph1u2x14z-stroke" data-item-order="999852566" data-item-id="1.cr-small_cr_1qf35ph1u2x14z" data-item-class="Shape Stroke Fill Part Indexed Indexed_1" data-item-index="1" data-renderer-id="0" transform="translate(146, 111)"><g id="1.cr-small_cr_1qf35ph1u2x14z-stroke" fill="none" stroke-linecap="round" stroke-linejoin="round" stroke-miterlimit="4" stroke="#e3cd09" stroke-width="2"><g><path d="M 10 40C 10.000002 56.568544 23.431459 70.000002 40.000002 70.000002C 56.568544 70.000002 70.000002 56.568544 70.000002 40.000002C 70.000002 23.431459 56.568544 10.000002 40.000002 10.000002C 23.431459 10.000002 10.000002 23.431459 10.000002 40.000002"></path></g></g></g><g id="g-root-tx_avantage_9m3z91u2wzrj-stroke" data-item-order="1000000000" data-item-id="tx_avantage_9m3z91u2wzrj" data-item-class="Label Stroke Title" data-item-index="none" data-renderer-id="0" transform="translate(206, 2)"></g><g id="g-root-tx_modulari_9594851u2wyyu-stroke" data-item-order="1000000000" data-item-id="tx_modulari_9594851u2wyyu" data-item-class="Label Stroke Indexed Indexed_1" data-item-index="1" data-renderer-id="0" transform="translate(26, 128)"></g><g id="g-root-1_145hqqt1u2zrii-stroke" data-item-order="1000000000" data-item-id="1_145hqqt1u2zrii" data-item-class="Icon Stroke Indexed Indexed_1 InsideFill InsideColorFill" data-item-index="1" data-renderer-id="0" transform="translate(158, 122)"><g id="1_145hqqt1u2zrii-stroke" fill="none" stroke-linecap="round" stroke-linejoin="round" stroke-miterlimit="4" stroke="#e3cd09" stroke-width="2"><g><path d="M 20.517143 13.06C 21.443752 13.965035 21.994738 15.186387 22.059999 16.48L 26.765715 11.8C 27.0926 11.43352 27.560345 11.223954 28.051428 11.223954C 28.542511 11.223954 29.010256 11.43352 29.337143 11.8L 33.142857 15.76C 32.602329 16.022108 32.107449 16.369394 31.677143 16.788572C 29.774672 18.880758 29.851034 22.098373 31.850615 24.097954C 33.850193 26.097536 37.06781 26.173899 39.159996 24.271427C 39.579178 23.841125 39.926464 23.346241 40.188572 22.805714L 44.200001 26.765715C 44.566479 27.0926 44.776043 27.560345 44.776043 28.051428C 44.776043 28.542511 44.566479 29.010256 44.200001 29.337143L 39.519997 33.940002C 42.343624 34.110744 44.529121 36.479725 44.472176 39.307934C 44.41523 42.136143 42.136143 44.41523 39.307934 44.472176C 36.479725 44.529121 34.110744 42.343624 33.940002 39.519997L 29.234285 44.200001C 28.907398 44.566479 28.439653 44.776043 27.948572 44.776043C 27.457489 44.776043 26.989742 44.566479 26.662857 44.200001L 22.857143 40.240002C 23.397671 39.977894 23.892553 39.630608 24.322857 39.21143C 26.389193 37.130894 26.37768 33.769192 24.297144 31.702858C 22.216608 29.636524 18.854906 29.648037 16.788572 31.728573C 16.369394 32.158875 16.022108 32.653755 15.76 33.194286L 11.8 29.234285C 11.43352 28.907398 11.223954 28.439653 11.223954 27.948572C 11.223954 27.457489 11.43352 26.989742 11.8 26.662857L 16.48 22.059999C 15.186387 21.994738 13.965035 21.443752 13.06 20.517143C 11.001376 18.457806 11.001665 15.119626 13.060646 13.060646C 15.119626 11.001665 18.457806 11.001376 20.517141 13.059999Z"></path></g></g></g><g id="g-root-tx_scurit_9594851u2wyyt-stroke" data-item-order="1000000000" data-item-id="tx_scurit_9594851u2wyyt" data-item-class="Label Stroke Indexed" data-item-index="2" data-renderer-id="0" transform="translate(50, 212)"></g><g id="g-root-fort_1hgbs111u2zt3b-stroke" data-item-order="1000000000" data-item-id="fort_1hgbs111u2zt3b" data-item-class="Icon Stroke Indexed InsideFill InsideColorFill" data-item-index="2" data-renderer-id="0" transform="translate(158, 206)"><g id="fort_1hgbs111u2zt3b-stroke" fill="none" stroke-linecap="round" stroke-linejoin="round" stroke-miterlimit="4" stroke="#e15e5a" stroke-width="2"><g><path d="M 16.372 40L 16.372 36.120998C 16.372086 35.723209 16.530176 35.34174 16.811501 35.060501L 26.432499 25.439501C 26.713737 25.158176 27.095207 25.000084 27.493 25L 40.500999 25C 40.898792 25.000084 41.280262 25.158176 41.561501 25.439501L 44.432499 28.310499C 44.713825 28.59174 44.871918 28.973209 44.871998 29.370998L 44.871998 42.25L 34.7365 42.25M 22.372 29.5L 34.371998 29.5C 35.200428 29.5 35.871998 30.171572 35.871998 31C 35.871998 31.828428 35.200428 32.5 34.371998 32.5L 19.372 32.5M 34.371998 25L 34.371998 11.5M 34.371998 11.5L 38.871998 11.5L 38.871998 16L 34.371998 16M 38.871998 13L 43.371998 13L 41.871998 15.25L 43.371998 17.5L 38.871998 17.5L 38.871998 16M 35.871998 42.25L 35.871998 37C 35.871998 36.171574 36.543571 35.5 37.371998 35.5L 38.871998 35.5L 38.871998 42.25M 38.871998 35.5L 40.371998 35.5C 41.200428 35.5 41.871998 36.171574 41.871998 37L 41.871998 42.25M 21.25 42.625C 20.52392 43.790337 19.248028 44.498661 17.875 44.498661C 16.50197 44.498661 15.22608 43.790337 14.5 42.625M 28 42.625C 27.27392 43.790337 25.99803 44.498661 24.625 44.498661C 23.25197 44.498661 21.97608 43.790337 21.25 42.625M 31.366001 44.5C 29.989845 44.500267 28.711449 43.788727 27.9865 42.618999M 14.5 42.625C 13.775421 43.790592 12.50045 44.499538 11.128 44.5"></path></g></g></g><g id="g-root-hier_1lw5a5h1u2zsb2-stroke" data-item-order="1000000000" data-item-id="hier_1lw5a5h1u2zsb2" data-item-class="Icon Stroke InsideFill" data-item-index="none" data-renderer-id="0" transform="translate(470, 242)"><g id="hier_1lw5a5h1u2zsb2-stroke" fill="none" stroke-linecap="round" stroke-linejoin="round" stroke-miterlimit="4" stroke="#484848" stroke-width="2"><g><path d="M 18 45L 18 40C 18 39.447716 18.447716 39 19 39L 49 39C 49.552284 39 50 39.447716 50 40L 50 45M 34 33L 34 45M 12 51C 12 54.313709 14.686292 57 18 57C 21.313709 57 24 54.313709 24 51C 24 47.686295 21.313709 45 18 45C 14.686292 45 12 47.686295 12 51ZM 28 51C 28 54.313709 30.686293 57 34 57C 37.313709 57 40 54.313709 40 51C 40 47.686295 37.313709 45 34 45C 30.686293 45 28 47.686295 28 51ZM 44 51C 44 54.313709 46.686295 57 50 57C 53.313709 57 56 54.313709 56 51C 56 47.686295 53.313709 45 50 45C 46.686295 45 44 47.686295 44 51ZM 44 31C 44 32.104568 43.104568 33 42 33L 26 33C 24.895432 33 24 32.104568 24 31L 24 21C 24 19.895432 24.895432 19 26 19L 42 19C 43.104568 19 44 19.895432 44 21ZM 32 26C 32 27.10457 32.895432 28 34 28C 35.104568 28 36 27.10457 36 26C 36 24.895432 35.104568 24 34 24C 32.895432 24 32 24.895432 32 26ZM 40 19L 40 17C 40 13.686292 37.313709 11 34 11C 30.686293 11 28 13.686292 28 17L 28 19"></path></g></g></g><g id="g-root-tx_efficaci_qvwnmt1u2wzre-stroke" data-item-order="1000000000" data-item-id="tx_efficaci_qvwnmt1u2wzre" data-item-class="Label Stroke" data-item-index="none" data-renderer-id="0" transform="translate(542, 242)"></g><g id="g-root-tx_performa_dkg59h1u2x1cc-stroke" data-item-order="1000000000" data-item-id="tx_performa_dkg59h1u2x1cc" data-item-class="Label Stroke Indexed" data-item-index="3" data-renderer-id="0" transform="translate(14, 296)"></g><g id="g-root-runn_1d0i9wl1u2ztvk-stroke" data-item-order="1000000000" data-item-id="runn_1d0i9wl1u2ztvk" data-item-class="Icon Stroke Indexed InsideFill InsideColorFill" data-item-index="3" data-renderer-id="0" transform="translate(158, 290)"><g id="runn_1d0i9wl1u2ztvk-stroke" fill="none" stroke-linecap="round" stroke-linejoin="round" stroke-miterlimit="4" stroke="#3bc482" stroke-width="2"><g><path d="M 10 10M 26.239 27.025002L 28.189001 27.474998C 28.489 27.474998 28.789 27.775002 28.789 28.075001L 29.239 30.474998C 29.389 31.674999 30.589001 32.575001 31.789 32.275002C 32.988998 32.125 33.889 30.924999 33.589001 29.724998L 33.139 27.325001C 32.839001 25.224998 31.189001 23.424999 28.939001 22.974998C 20.389 21.325001 23.539 21.025 17.839001 25.525002C 17.539 25.674999 17.239 25.825001 17.089001 25.674999L 14.389 24.325001C 13.339 23.724998 11.989 24.174999 11.389 25.375C 10.789 26.424999 11.239 27.775002 12.439 28.375L 15.139 29.724998C 15.889 30.025002 16.639 30.325001 17.539 30.325001C 18.739 30.325001 19.938999 29.875 20.989 29.125L 21.889 28.375L 22.939001 32.125L 20.239 33.025002C 18.889 33.625 17.839001 34.675003 17.389 36.025002C 16.938999 37.375 16.938999 38.875 17.539 40.074997L 18.289 42.025002C 18.589001 42.925003 19.489 43.375 20.389 43.375C 20.688999 43.375 20.989 43.375 21.289 43.224998C 22.489 42.775002 22.939001 41.425003 22.489 40.224998L 21.589001 38.125C 21.289 37.633003 21.4615 37.093002 21.889 36.925003L 24.739 35.875L 29.389 43.824997C 29.839001 44.574997 30.589001 44.875 31.339001 44.875C 31.789 44.875 32.089001 44.724998 32.539001 44.574997C 33.589001 43.974998 34.038998 42.625 33.289001 41.425003L 29.689001 35.275002M 37.404999 20.535999L 44.868999 20.535999M 37.404999 28L 42.629501 28M 37.404999 35.464001L 39.644501 35.464001M 19.796501 20.424999C 22.281782 20.425001 24.296501 18.410282 24.296501 15.925C 24.296501 13.439719 22.281782 11.425 19.796501 11.425C 17.311218 11.425 15.2965 13.439719 15.2965 15.925C 15.2965 18.410282 17.311218 20.425001 19.796501 20.425001Z"></path></g></g></g><g id="g-root-tx_maintena_mg35id1u2x0jn-stroke" data-item-order="1000000000" data-item-id="tx_maintena_mg35id1u2x0jn" data-item-class="Label Stroke Indexed" data-item-index="4" data-renderer-id="0" transform="translate(2, 380)"></g><g id="g-root-2_1d0i9wl1u2ztvl-stroke" data-item-order="1000000000" data-item-id="2_1d0i9wl1u2ztvl" data-item-class="Icon Stroke Indexed InsideFill InsideColorFill" data-item-index="4" data-renderer-id="0" transform="translate(158, 374)"><g id="2_1d0i9wl1u2ztvl-stroke" fill="none" stroke-linecap="round" stroke-linejoin="round" stroke-miterlimit="4" stroke="#b65edf" stroke-width="2"><g><path d="M 45.25 39.25C 45.25 40.906857 43.906857 42.25 42.25 42.25L 13.75 42.25C 12.093145 42.25 10.75 40.906857 10.75 39.25L 10.75 37.75L 45.25 37.75ZM 13.75 42.25L 13.75 45.25M 42.25 42.25L 42.25 45.25M 28 37.75L 20.5 37.75L 20.5 12.25C 20.5 11.421573 21.171574 10.75 22 10.75L 26.5 10.75C 27.328428 10.75 28 11.421573 28 12.25ZM 35.716 37.75L 32.734001 13.141C 32.634357 12.318837 33.219879 11.571491 34.042 11.4715L 38.509003 10.93C 39.33168 10.830395 40.079266 11.416773 40.178497 12.2395L 43.27 37.75M 32.5 37.75L 28 37.75L 28 15.25L 31 15.25C 31.828428 15.25 32.5 15.921573 32.5 16.75ZM 20.5 37.75L 13 37.75L 13 12.25C 13 11.421573 13.671573 10.75 14.5 10.75L 19 10.75C 19.828426 10.75 20.5 11.421573 20.5 12.25ZM 23.5 33.25L 25 33.25M 16 33.25L 17.5 33.25M 16.75 15.25L 16.75 28.75M 24.25 15.25L 24.25 28.75M 37 30.25C 37 31.078428 37.671574 31.75 38.5 31.75C 39.328426 31.75 40 31.078428 40 30.25C 40 29.421572 39.328426 28.75 38.5 28.75C 37.671574 28.75 37 29.421572 37 30.25Z"></path></g></g></g></g></g></svg>