<?xml version="1.0" encoding="utf-8" standalone="yes"?>
<!DOCTYPE svg PUBLIC "-//W3C//DTD SVG 1.1//EN" "http://www.w3.org/Graphics/SVG/1.1/DTD/svg11.dtd">
<svg width="936" height="188" viewBox="0 0 936 188" style="fill:none;stroke:none;fill-rule:evenodd;clip-rule:evenodd;stroke-linecap:round;stroke-linejoin:round;stroke-miterlimit:1.5;" version="1.1" xmlns="http://www.w3.org/2000/svg" xmlns:xlink="http://www.w3.org/1999/xlink"><style id="fontImports">@import url("https://fonts.googleapis.com/css2?family=Roboto:wght@400;700&amp;display=block");</style><rect id="" x="0" y="0" width="936" height="188" style="fill: #ffffff;"></rect><g id="items" style="isolation: isolate"><g id="blend" style="mix-blend-mode:normal"><g id="g-root-ro_qrjibp1sewm4h-fill" data-item-order="999974800" data-item-id="ro_qrjibp1sewm4h" data-item-class="Shape Stroke Fill" data-item-index="none" data-renderer-id="0" transform="translate(362, 15)"><g id="ro_qrjibp1sewm4h-fill" stroke="none" fill="#f0f0f0"><g><path d="M 34 10L 154 10C 154 10 178 10 178 34L 178 136C 178 136 178 160 154 160L 34 160C 34 160 10 160 10 136L 10 34C 10 34 10 10 34 10"></path></g></g></g><g id="g-root-ro_zkom851sf0tn1-fill" data-item-order="999990928" data-item-id="ro_zkom851sf0tn1" data-item-class="Shape Stroke Fill" data-item-index="none" data-renderer-id="0" transform="translate(578, 3)"><g id="ro_zkom851sf0tn1-fill" stroke="none" fill="#e9fbf3"><g><path d="M 22 10L 166 10C 166 10 178 10 178 22L 178 52C 178 52 178 64 166 64L 22 64C 22 64 10 64 10 52L 10 22C 10 22 10 10 22 10"></path></g></g></g><g id="g-root-ro_146qv7p1sf3lz5-fill" data-item-order="999991576" data-item-id="ro_146qv7p1sf3lz5" data-item-class="Shape Stroke Fill" data-item-index="none" data-renderer-id="0" transform="translate(158, 3)"><g id="ro_146qv7p1sf3lz5-fill" stroke="none" fill="#e6efff"><g><path d="M 22 10L 154 10C 154 10 166 10 166 22L 166 52C 166 52 166 64 154 64L 22 64C 22 64 10 64 10 52L 10 22C 10 22 10 10 22 10"></path></g></g></g><g id="g-root-tx_utilitai_1d1redh1sf3nkf-fill" data-item-order="1000000000" data-item-id="tx_utilitai_1d1redh1sf3nkf" data-item-class="Label Stroke" data-item-index="none" data-renderer-id="0" transform="translate(170, 18)"><g id="tx_utilitai_1d1redh1sf3nkf-fill" stroke="none" fill="#4682e3"><g><text style="font: 20px Roboto, sans-serif; white-space: pre;" font-weight="20px" font-size="Roboto," font-family="sans-serif"><tspan x="16.09" y="33.75" dominant-baseline="ideographic">Utilitaires</tspan></text></g></g></g><g id="g-root-chec_18gbmh11sf0suc-fill" data-item-order="1000000000" data-item-id="chec_18gbmh11sf0suc" data-item-class="Icon Stroke" data-item-index="none" data-renderer-id="0" transform="translate(590, 15)"></g><g id="g-root-cu_146qv7p1sf3lz6-fill" data-item-order="1000000000" data-item-id="cu_146qv7p1sf3lz6" data-item-class="Curve Stroke ColorStrokeGray" data-item-index="none" data-renderer-id="0" transform="translate(314, 30)"></g><g id="g-root-tx_validate_1cvinid1sf0v7v-fill" data-item-order="1000000000" data-item-id="tx_validate_1cvinid1sf0v7v" data-item-class="Label Stroke" data-item-index="none" data-renderer-id="0" transform="translate(626, 18)"><g id="tx_validate_1cvinid1sf0v7v-fill" stroke="none" fill="#3bc482"><g><text style="font: 20px Roboto, sans-serif; white-space: pre;" font-weight="20px" font-size="Roboto," font-family="sans-serif"><tspan x="13.87" y="33.75" dominant-baseline="ideographic">Validateurs</tspan></text></g></g></g><g id="g-root-1_v7d0g51sewlc8-fill" data-item-order="1000000000" data-item-id="1_v7d0g51sewlc8" data-item-class="Icon Stroke" data-item-index="none" data-renderer-id="0" transform="translate(422, 39)"></g><g id="g-root-cu_vb3uyt1sf3mrx-fill" data-item-order="1000000000" data-item-id="cu_vb3uyt1sf3mrx" data-item-class="Curve Stroke ColorStrokeGray" data-item-index="none" data-renderer-id="0" transform="translate(530, 30)"></g><g id="g-root-tx_manipula_v4v43p1sf0ufa-fill" data-item-order="1000000000" data-item-id="tx_manipula_v4v43p1sf0ufa" data-item-class="Label Stroke" data-item-index="none" data-renderer-id="0" transform="translate(62, 69)"><g id="tx_manipula_v4v43p1sf0ufa-fill" stroke="none" fill="#484848"><g><text style="font: 20px Roboto, sans-serif; white-space: pre;" font-weight="20px" font-size="Roboto," font-family="sans-serif"><tspan x="13.29" y="33.75" dominant-baseline="ideographic">Manipulation de dates</tspan></text></g></g></g><g id="g-root-cu_zqxd391sf3mrk-fill" data-item-order="1000000000" data-item-id="cu_zqxd391sf3mrk" data-item-class="Curve Stroke ColorStrokeGray" data-item-index="none" data-renderer-id="0" transform="translate(272, 57)"></g><g id="g-root-cu_qvacud1sf3nkb-fill" data-item-order="1000000000" data-item-id="cu_qvacud1sf3nkb" data-item-class="Curve Stroke ColorStrokeGray" data-item-index="none" data-renderer-id="0" transform="translate(272, 57)"></g><g id="g-root-cu_qvacud1sf3nkd-fill" data-item-order="1000000000" data-item-id="cu_qvacud1sf3nkd" data-item-class="Curve Stroke ColorStrokeGray" data-item-index="none" data-renderer-id="0" transform="translate(272, 57)"></g><g id="g-root-cu_mfgupx1sf3ocn-fill" data-item-order="1000000000" data-item-id="cu_mfgupx1sf3ocn" data-item-class="Curve Stroke ColorStrokeGray" data-item-index="none" data-renderer-id="0" transform="translate(602, 57)"></g><g id="g-root-cu_mfgupx1sf3ocq-fill" data-item-order="1000000000" data-item-id="cu_mfgupx1sf3ocq" data-item-class="Curve Stroke ColorStrokeGray" data-item-index="none" data-renderer-id="0" transform="translate(602, 57)"></g><g id="g-root-cu_i09tol1sf3lz8-fill" data-item-order="1000000000" data-item-id="cu_i09tol1sf3lz8" data-item-class="Curve Stroke ColorStrokeGray" data-item-index="none" data-renderer-id="0" transform="translate(602, 57)"></g><g id="g-root-tx_schmasde_4ikkg51sf0uff-fill" data-item-order="1000000000" data-item-id="tx_schmasde_4ikkg51sf0uff" data-item-class="Label Stroke" data-item-index="none" data-renderer-id="0" transform="translate(626, 141)"><g id="tx_schmasde_4ikkg51sf0uff-fill" stroke="none" fill="#484848"><g><text style="font: 20px Roboto, sans-serif; white-space: pre;" font-weight="20px" font-size="Roboto," font-family="sans-serif"><tspan x="17.72" y="33.75" dominant-baseline="ideographic">Schémas de validation</tspan></text></g></g></g><g id="g-root-tx_validate_de7kp11sf0tmp-fill" data-item-order="1000000000" data-item-id="tx_validate_de7kp11sf0tmp" data-item-class="Label Stroke" data-item-index="none" data-renderer-id="0" transform="translate(626, 69)"><g id="tx_validate_de7kp11sf0tmp-fill" stroke="none" fill="#484848"><g><text style="font: 20px Roboto, sans-serif; white-space: pre;" font-weight="20px" font-size="Roboto," font-family="sans-serif"><tspan x="13.85" y="33.75" dominant-baseline="ideographic">Validateurs de données</tspan></text></g></g></g><g id="g-root-tx_formatag_m983ut1sf0v7z-fill" data-item-order="1000000000" data-item-id="tx_formatag_m983ut1sf0v7z" data-item-class="Label Stroke" data-item-index="none" data-renderer-id="0" transform="translate(62, 105)"><g id="tx_formatag_m983ut1sf0v7z-fill" stroke="none" fill="#484848"><g><text style="font: 20px Roboto, sans-serif; white-space: pre;" font-weight="20px" font-size="Roboto," font-family="sans-serif"><tspan x="17.26" y="33.75" dominant-baseline="ideographic">Formatage de strings</tspan></text></g></g></g><g id="g-root-tx_utilitai_zmk1hh1sewnpr-fill" data-item-order="1000000000" data-item-id="tx_utilitai_zmk1hh1sewnpr" data-item-class="Label Stroke" data-item-index="none" data-renderer-id="0" transform="translate(386, 93)"><g id="tx_utilitai_zmk1hh1sewnpr-fill" stroke="none" fill="#484848"><g><text style="font: 20px Roboto, sans-serif; white-space: pre;" font-weight="20px" font-size="Roboto," font-family="sans-serif"><tspan x="14.57" y="33.75" dominant-baseline="ideographic">Utilitaires et </tspan><tspan x="23.11" y="57.75" dominant-baseline="ideographic">Validation</tspan></text></g></g></g><g id="g-root-tx_rglesdev_de7kp11sf0tmq-fill" data-item-order="1000000000" data-item-id="tx_rglesdev_de7kp11sf0tmq" data-item-class="Label Stroke" data-item-index="none" data-renderer-id="0" transform="translate(626, 105)"><g id="tx_rglesdev_de7kp11sf0tmq-fill" stroke="none" fill="#484848"><g><text style="font: 20px Roboto, sans-serif; white-space: pre;" font-weight="20px" font-size="Roboto," font-family="sans-serif"><tspan x="12.68" y="33.75" dominant-baseline="ideographic">Règles de validation communes</tspan></text></g></g></g><g id="g-root-tx_fonction_hu12th1sf0sug-fill" data-item-order="1000000000" data-item-id="tx_fonction_hu12th1sf0sug" data-item-class="Label Stroke" data-item-index="none" data-renderer-id="0" transform="translate(2, 141)"><g id="tx_fonction_hu12th1sf0sug-fill" stroke="none" fill="#484848"><g><text style="font: 20px Roboto, sans-serif; white-space: pre;" font-weight="20px" font-size="Roboto," font-family="sans-serif"><tspan x="14.49" y="33.75" dominant-baseline="ideographic">Fonctions pures réutilisables</tspan></text></g></g></g><g id="g-root-size_18lxw911sf3oco-fill" data-item-order="1000000000" data-item-id="size_18lxw911sf3oco" data-item-class="Icon Stroke" data-item-index="none" data-renderer-id="0" transform="translate(272, 15)"></g><g id="g-root-ro_qrjibp1sewm4h-stroke" data-item-order="999974800" data-item-id="ro_qrjibp1sewm4h" data-item-class="Shape Stroke Fill" data-item-index="none" data-renderer-id="0" transform="translate(362, 15)"><g id="ro_qrjibp1sewm4h-stroke" fill="none" stroke-linecap="round" stroke-linejoin="round" stroke-miterlimit="4" stroke="#484848" stroke-width="2"><g><path d="M 34 10L 154 10C 154 10 178 10 178 34L 178 136C 178 136 178 160 154 160L 34 160C 34 160 10 160 10 136L 10 34C 10 34 10 10 34 10"></path></g></g></g><g id="g-root-ro_zkom851sf0tn1-stroke" data-item-order="999990928" data-item-id="ro_zkom851sf0tn1" data-item-class="Shape Stroke Fill" data-item-index="none" data-renderer-id="0" transform="translate(578, 3)"><g id="ro_zkom851sf0tn1-stroke" fill="none" stroke-linecap="round" stroke-linejoin="round" stroke-miterlimit="4" stroke="#3bc482" stroke-width="2"><g><path d="M 22 10L 166 10C 166 10 178 10 178 22L 178 52C 178 52 178 64 166 64L 22 64C 22 64 10 64 10 52L 10 22C 10 22 10 10 22 10"></path></g></g></g><g id="g-root-ro_146qv7p1sf3lz5-stroke" data-item-order="999991576" data-item-id="ro_146qv7p1sf3lz5" data-item-class="Shape Stroke Fill" data-item-index="none" data-renderer-id="0" transform="translate(158, 3)"><g id="ro_146qv7p1sf3lz5-stroke" fill="none" stroke-linecap="round" stroke-linejoin="round" stroke-miterlimit="4" stroke="#4682e3" stroke-width="2"><g><path d="M 22 10L 154 10C 154 10 166 10 166 22L 166 52C 166 52 166 64 154 64L 22 64C 22 64 10 64 10 52L 10 22C 10 22 10 10 22 10"></path></g></g></g><g id="g-root-tx_utilitai_1d1redh1sf3nkf-stroke" data-item-order="1000000000" data-item-id="tx_utilitai_1d1redh1sf3nkf" data-item-class="Label Stroke" data-item-index="none" data-renderer-id="0" transform="translate(170, 18)"></g><g id="g-root-chec_18gbmh11sf0suc-stroke" data-item-order="1000000000" data-item-id="chec_18gbmh11sf0suc" data-item-class="Icon Stroke" data-item-index="none" data-renderer-id="0" transform="translate(590, 15)"><g id="chec_18gbmh11sf0suc-stroke" fill="none" stroke-linecap="round" stroke-linejoin="round" stroke-miterlimit="4" stroke="#3bc482" stroke-width="2"><g><path d="M 11.071428 28.321428L 16.921429 35.842857C 17.321363 36.362484 17.937195 36.670399 18.592857 36.67857C 19.237696 36.686031 19.851604 36.402687 20.264286 35.907143L 38.92857 13.321428"></path></g></g></g><g id="g-root-cu_146qv7p1sf3lz6-stroke" data-item-order="1000000000" data-item-id="cu_146qv7p1sf3lz6" data-item-class="Curve Stroke ColorStrokeGray" data-item-index="none" data-renderer-id="0" transform="translate(314, 30)"><g id="cu_146qv7p1sf3lz6-stroke" fill="none" stroke-linecap="round" stroke-linejoin="round" stroke-miterlimit="4" stroke="#888888" stroke-width="2" stroke-dasharray="5.0, 7.0"><g><path d="M 58 45L 55 45L 54.9 45C 50.422131 44.972593 45.63978 43.214375 41.299999 40C 38.67988 38.118536 36.018569 33.561496 33.999999 27.499999C 31.98143 21.438501 29.320119 16.881461 26.699999 15C 22.360218 11.785625 17.577867 10.027408 13.1 10L 13 10L 10 10"></path></g></g></g><g id="g-root-tx_validate_1cvinid1sf0v7v-stroke" data-item-order="1000000000" data-item-id="tx_validate_1cvinid1sf0v7v" data-item-class="Label Stroke" data-item-index="none" data-renderer-id="0" transform="translate(626, 18)"></g><g id="g-root-1_v7d0g51sewlc8-stroke" data-item-order="1000000000" data-item-id="1_v7d0g51sewlc8" data-item-class="Icon Stroke" data-item-index="none" data-renderer-id="0" transform="translate(422, 39)"><g id="1_v7d0g51sewlc8-stroke" fill="none" stroke-linecap="round" stroke-linejoin="round" stroke-miterlimit="4" stroke="#484848" stroke-width="2"><g><path d="M 22 11.714286L 46 11.714286C 46 11.714286 56.285713 11.714286 56.285713 22L 56.285713 46C 56.285713 46 56.285713 56.285713 46 56.285713L 22 56.285713C 22 56.285713 11.714286 56.285713 11.714286 46L 11.714286 22C 11.714286 22 11.714286 11.714286 22 11.714286M 23.714287 37.428574L 30.742859 43.05143C 31.125132 43.36623 31.628839 43.492157 32.114285 43.394287C 32.60397 43.302429 33.029465 43.002079 33.279999 42.57143L 44.285713 23.714287"></path></g></g></g><g id="g-root-cu_vb3uyt1sf3mrx-stroke" data-item-order="1000000000" data-item-id="cu_vb3uyt1sf3mrx" data-item-class="Curve Stroke ColorStrokeGray" data-item-index="none" data-renderer-id="0" transform="translate(530, 30)"><g id="cu_vb3uyt1sf3mrx-stroke" fill="none" stroke-linecap="round" stroke-linejoin="round" stroke-miterlimit="4" stroke="#888888" stroke-width="2" stroke-dasharray="5.0, 7.0"><g><path d="M 10 45L 13 45L 13.1 45C 17.577866 44.972592 22.360217 43.214375 26.699999 40C 29.320119 38.118536 31.98143 33.561497 33.999999 27.499999C 36.018569 21.438502 38.67988 16.881462 41.299999 15C 45.63978 11.785625 50.422131 10.027407 54.899998 9.999999L 55 10L 58 10"></path></g></g></g><g id="g-root-tx_manipula_v4v43p1sf0ufa-stroke" data-item-order="1000000000" data-item-id="tx_manipula_v4v43p1sf0ufa" data-item-class="Label Stroke" data-item-index="none" data-renderer-id="0" transform="translate(62, 69)"></g><g id="g-root-cu_zqxd391sf3mrk-stroke" data-item-order="1000000000" data-item-id="cu_zqxd391sf3mrk" data-item-class="Curve Stroke ColorStrokeGray" data-item-index="none" data-renderer-id="0" transform="translate(272, 57)"><g id="cu_zqxd391sf3mrk-stroke" fill="none" stroke-linecap="round" stroke-linejoin="round" stroke-miterlimit="4" stroke="#888888" stroke-width="2" stroke-dasharray="5.0, 7.0"><g><path d="M 28 10L 28 22L 28 34L 19 34L 10 34"></path></g></g></g><g id="g-root-cu_qvacud1sf3nkb-stroke" data-item-order="1000000000" data-item-id="cu_qvacud1sf3nkb" data-item-class="Curve Stroke ColorStrokeGray" data-item-index="none" data-renderer-id="0" transform="translate(272, 57)"><g id="cu_qvacud1sf3nkb-stroke" fill="none" stroke-linecap="round" stroke-linejoin="round" stroke-miterlimit="4" stroke="#888888" stroke-width="2" stroke-dasharray="5.0, 7.0"><g><path d="M 28 10L 28 40L 28 70L 19 70L 10 70"></path></g></g></g><g id="g-root-cu_qvacud1sf3nkd-stroke" data-item-order="1000000000" data-item-id="cu_qvacud1sf3nkd" data-item-class="Curve Stroke ColorStrokeGray" data-item-index="none" data-renderer-id="0" transform="translate(272, 57)"><g id="cu_qvacud1sf3nkd-stroke" fill="none" stroke-linecap="round" stroke-linejoin="round" stroke-miterlimit="4" stroke="#888888" stroke-width="2" stroke-dasharray="5.0, 7.0"><g><path d="M 28 10L 28 22L 28 94C 28.000002 100.627415 22.627419 105.999998 16.000002 105.999998L 15.9 106L 10 106"></path></g></g></g><g id="g-root-cu_mfgupx1sf3ocn-stroke" data-item-order="1000000000" data-item-id="cu_mfgupx1sf3ocn" data-item-class="Curve Stroke ColorStrokeGray" data-item-index="none" data-renderer-id="0" transform="translate(602, 57)"><g id="cu_mfgupx1sf3ocn-stroke" fill="none" stroke-linecap="round" stroke-linejoin="round" stroke-miterlimit="4" stroke="#888888" stroke-width="2" stroke-dasharray="5.0, 7.0"><g><path d="M 10 10L 10 22L 10 34L 19 34L 28 34"></path></g></g></g><g id="g-root-cu_mfgupx1sf3ocq-stroke" data-item-order="1000000000" data-item-id="cu_mfgupx1sf3ocq" data-item-class="Curve Stroke ColorStrokeGray" data-item-index="none" data-renderer-id="0" transform="translate(602, 57)"><g id="cu_mfgupx1sf3ocq-stroke" fill="none" stroke-linecap="round" stroke-linejoin="round" stroke-miterlimit="4" stroke="#888888" stroke-width="2" stroke-dasharray="5.0, 7.0"><g><path d="M 10 10L 10 40L 10 70L 19 70L 28 70"></path></g></g></g><g id="g-root-cu_i09tol1sf3lz8-stroke" data-item-order="1000000000" data-item-id="cu_i09tol1sf3lz8" data-item-class="Curve Stroke ColorStrokeGray" data-item-index="none" data-renderer-id="0" transform="translate(602, 57)"><g id="cu_i09tol1sf3lz8-stroke" fill="none" stroke-linecap="round" stroke-linejoin="round" stroke-miterlimit="4" stroke="#888888" stroke-width="2" stroke-dasharray="5.0, 7.0"><g><path d="M 10 10L 10 22L 10 94C 10.000004 100.627423 15.372587 106.000006 22.000005 106.000005L 22.1 106L 28 106"></path></g></g></g><g id="g-root-tx_schmasde_4ikkg51sf0uff-stroke" data-item-order="1000000000" data-item-id="tx_schmasde_4ikkg51sf0uff" data-item-class="Label Stroke" data-item-index="none" data-renderer-id="0" transform="translate(626, 141)"></g><g id="g-root-tx_validate_de7kp11sf0tmp-stroke" data-item-order="1000000000" data-item-id="tx_validate_de7kp11sf0tmp" data-item-class="Label Stroke" data-item-index="none" data-renderer-id="0" transform="translate(626, 69)"></g><g id="g-root-tx_formatag_m983ut1sf0v7z-stroke" data-item-order="1000000000" data-item-id="tx_formatag_m983ut1sf0v7z" data-item-class="Label Stroke" data-item-index="none" data-renderer-id="0" transform="translate(62, 105)"></g><g id="g-root-tx_utilitai_zmk1hh1sewnpr-stroke" data-item-order="1000000000" data-item-id="tx_utilitai_zmk1hh1sewnpr" data-item-class="Label Stroke" data-item-index="none" data-renderer-id="0" transform="translate(386, 93)"></g><g id="g-root-tx_rglesdev_de7kp11sf0tmq-stroke" data-item-order="1000000000" data-item-id="tx_rglesdev_de7kp11sf0tmq" data-item-class="Label Stroke" data-item-index="none" data-renderer-id="0" transform="translate(626, 105)"></g><g id="g-root-tx_fonction_hu12th1sf0sug-stroke" data-item-order="1000000000" data-item-id="tx_fonction_hu12th1sf0sug" data-item-class="Label Stroke" data-item-index="none" data-renderer-id="0" transform="translate(2, 141)"></g><g id="g-root-size_18lxw911sf3oco-stroke" data-item-order="1000000000" data-item-id="size_18lxw911sf3oco" data-item-class="Icon Stroke" data-item-index="none" data-renderer-id="0" transform="translate(272, 15)"><g id="size_18lxw911sf3oco-stroke" fill="none" stroke-linecap="round" stroke-linejoin="round" stroke-miterlimit="4" stroke="#4682e3" stroke-width="2"><g><path d="M 29.973751 37.15625L 21.81625 13.265C 21.729668 13.012331 21.492092 12.842605 21.224998 12.842605C 20.957907 12.842605 20.720333 13.012331 20.633751 13.265L 12.5 37.15625M 15.47875 28.40625L 26.987499 28.40625M 10.625 37.15625L 14.4 37.15625M 28.098751 37.15625L 31.875 37.15625M 38.125 37.15625L 32.971252 22.05875C 32.884666 21.80608 32.647091 21.636354 32.379997 21.636354C 32.112907 21.636354 31.875332 21.80608 31.78875 22.05875L 29.428751 28.987499M 31.15 30.90625L 35.9925 30.90625M 36.895 37.15625L 39.375 37.15625"></path></g></g></g></g></g></svg>