<?xml version="1.0" encoding="utf-8" standalone="yes"?>
<!DOCTYPE svg PUBLIC "-//W3C//DTD SVG 1.1//EN" "http://www.w3.org/Graphics/SVG/1.1/DTD/svg11.dtd">
<svg width="768" height="481" viewBox="0 0 768 481" style="fill:none;stroke:none;fill-rule:evenodd;clip-rule:evenodd;stroke-linecap:round;stroke-linejoin:round;stroke-miterlimit:1.5;" version="1.1" xmlns="http://www.w3.org/2000/svg" xmlns:xlink="http://www.w3.org/1999/xlink"><style id="fontImports">@import url("https://fonts.googleapis.com/css2?family=Roboto:wght@400;700&amp;display=block");</style><rect id="" x="0" y="0" width="768" height="481" style="fill: #ffffff;"></rect><g id="items" style="isolation: isolate"><g id="blend" style="mix-blend-mode:normal"><g id="g-root--1.cu_sy_74h6d1r19urx-fill" data-item-order="999852548" data-item-id="-1.cu_sy_74h6d1r19urx" data-item-class="Part Fill Stroke ColorFillGray ColorStrokeGray" data-item-index="-1" data-renderer-id="0" transform="translate(338, 74)"><g id="-1.cu_sy_74h6d1r19urx-fill" stroke="none" fill="#f6f6f6"><g><path d="M 65.766602 394C 80.754802 394 106.000002 308.039 106.000002 202C 106.000002 95.9613 80.754802 10 65.766602 10C 80.775202 10.01 92.941702 96.2224 92.941702 202C 92.941702 307.778 80.775202 393.99 65.766602 394ZM 65.765897 394C 80.774597 393.99 92.941097 307.778 92.941097 202C 92.941097 96.2224 80.774597 10.01 65.765897 10L 51.957397 10C 66.060697 16.8878 77.199297 100.4719 77.199297 202C 77.199297 303.528 65.382597 387.112 51.279297 394L 65.765897 394ZM 77.2 202C 77.2 303.528 65.3833 387.112 51.28 394L 50.0615 394C 35.0734 394 10 308.039 10 202C 10 95.9613 35.0734 10 50.0615 10C 50.6991 10 51.9581 10 51.9581 10C 66.0614 16.8878 77.2 100.4719 77.2 202Z"></path></g></g></g><g id="g-root-0.cr-medium_cr_1usf1111r19vd2-fill" data-item-order="999852550" data-item-id="0.cr-medium_cr_1usf1111r19vd2" data-item-class="Shape Stroke Fill Part Indexed_0" data-item-index="0" data-renderer-id="0" transform="translate(506, 230)"><g id="0.cr-medium_cr_1usf1111r19vd2-fill" stroke="none" fill="#f0f0f0"><g><path d="M 10 46C 10 65.882251 26.117749 82 46 82C 65.882251 82 82 65.882251 82 46C 82 26.117749 65.882251 10 46 10C 26.117749 10 10 26.117749 10 46"></path></g></g></g><g id="g-root-4.line_sy_1d1rhmd1r19ukl-fill" data-item-order="999852553" data-item-id="4.line_sy_1d1rhmd1r19ukl" data-item-class="Curve Stroke Part Indexed" data-item-index="4" data-renderer-id="0" transform="translate(254, 301)"></g><g id="g-root-4.cr-small_cr_1d1rhmd1r19ukm-fill" data-item-order="999852554" data-item-id="4.cr-small_cr_1d1rhmd1r19ukm" data-item-class="Shape Stroke Fill Part Indexed" data-item-index="4" data-renderer-id="0" transform="translate(194, 363)"><g id="4.cr-small_cr_1d1rhmd1r19ukm-fill" stroke="none" fill="#fef2e6"><g><path d="M 10 40C 10.000002 56.568544 23.431459 70.000002 40.000002 70.000002C 56.568544 70.000002 70.000002 56.568544 70.000002 40.000002C 70.000002 23.431459 56.568544 10.000002 40.000002 10.000002C 23.431459 10.000002 10.000002 23.431459 10.000002 40.000002"></path></g></g></g><g id="g-root-3.line_sy_1hgyinp1r19wy3-fill" data-item-order="999852557" data-item-id="3.line_sy_1hgyinp1r19wy3" data-item-class="Curve Stroke Part Indexed" data-item-index="3" data-renderer-id="0" transform="translate(254.10940551757812, 278)"></g><g id="g-root-3.cr-small_cr_1hgyinp1r19wy4-fill" data-item-order="999852558" data-item-id="3.cr-small_cr_1hgyinp1r19wy4" data-item-class="Shape Stroke Fill Part Indexed" data-item-index="3" data-renderer-id="0" transform="translate(194, 279)"><g id="3.cr-small_cr_1hgyinp1r19wy4-fill" stroke="none" fill="#ffe7e6"><g><path d="M 10 40C 10.000002 56.568544 23.431459 70.000002 40.000002 70.000002C 56.568544 70.000002 70.000002 56.568544 70.000002 40.000002C 70.000002 23.431459 56.568544 10.000002 40.000002 10.000002C 23.431459 10.000002 10.000002 23.431459 10.000002 40.000002"></path></g></g></g><g id="g-root-2.line_sy_1qcliwl1r19w5d-fill" data-item-order="999852561" data-item-id="2.line_sy_1qcliwl1r19w5d" data-item-class="Curve Stroke Part Indexed" data-item-index="2" data-renderer-id="0" transform="translate(254, 224)"></g><g id="g-root-2.cr-small_cr_1qcliwl1r19w5e-fill" data-item-order="999852562" data-item-id="2.cr-small_cr_1qcliwl1r19w5e" data-item-class="Shape Stroke Fill Part Indexed" data-item-index="2" data-renderer-id="0" transform="translate(194, 195)"><g id="2.cr-small_cr_1qcliwl1r19w5e-fill" stroke="none" fill="#fffce6"><g><path d="M 10 40C 10.000002 56.568544 23.431459 70.000002 40.000002 70.000002C 56.568544 70.000002 70.000002 56.568544 70.000002 40.000002C 70.000002 23.431459 56.568544 10.000002 40.000002 10.000002C 23.431459 10.000002 10.000002 23.431459 10.000002 40.000002"></path></g></g></g><g id="g-root-1.line_sy_1usf1111r19vd3-fill" data-item-order="999852565" data-item-id="1.line_sy_1usf1111r19vd3" data-item-class="Curve Stroke Part Indexed Indexed_1" data-item-index="1" data-renderer-id="0" transform="translate(254, 140)"></g><g id="g-root-1.cr-small_cr_1qcliwl1r19w5c-fill" data-item-order="999852566" data-item-id="1.cr-small_cr_1qcliwl1r19w5c" data-item-class="Shape Stroke Fill Part Indexed Indexed_1" data-item-index="1" data-renderer-id="0" transform="translate(194, 111)"><g id="1.cr-small_cr_1qcliwl1r19w5c-fill" stroke="none" fill="#e9fbf3"><g><path d="M 10 40C 10.000002 56.568544 23.431459 70.000002 40.000002 70.000002C 56.568544 70.000002 70.000002 56.568544 70.000002 40.000002C 70.000002 23.431459 56.568544 10.000002 40.000002 10.000002C 23.431459 10.000002 10.000002 23.431459 10.000002 40.000002"></path></g></g></g><g id="g-root-tx_meilleur_9250c51r19x50-fill" data-item-order="1000000000" data-item-id="tx_meilleur_9250c51r19x50" data-item-class="Label Stroke Title" data-item-index="none" data-renderer-id="0" transform="translate(176, 2)"><g id="tx_meilleur_9250c51r19x50-fill" stroke="none" fill="#484848"><g><text style="font: 20px Roboto, sans-serif; white-space: pre;" font-weight="20px" font-size="Roboto," font-family="sans-serif"><tspan x="11.81" y="33.75" dominant-baseline="ideographic">Meilleures Pratiques pour l'Efficacité des Actifs</tspan></text></g></g></g><g id="g-root-tx_techniqu_9250c51r19x4z-fill" data-item-order="1000000000" data-item-id="tx_techniqu_9250c51r19x4z" data-item-class="Label Stroke Indexed Indexed_1" data-item-index="1" data-renderer-id="0" transform="translate(38, 116)"><g id="tx_techniqu_9250c51r19x4z-fill" stroke="none" fill="#484848"><g><text style="font: 20px Roboto, sans-serif; white-space: pre;" font-weight="20px" font-size="Roboto," font-family="sans-serif"><tspan x="49.75" y="33.75" dominant-baseline="ideographic">Techniques </tspan><tspan x="23.46" y="57.75" dominant-baseline="ideographic">d'Optimisation</tspan></text></g></g></g><g id="g-root-play_qssmwl1r103kf-fill" data-item-order="1000000000" data-item-id="play_qssmwl1r103kf" data-item-class="Icon Stroke Indexed Indexed_1 InsideFill InsideColorFill" data-item-index="1" data-renderer-id="0" transform="translate(206, 122)"></g><g id="g-root-tx_stratgie_dhyigl1r19wcq-fill" data-item-order="1000000000" data-item-id="tx_stratgie_dhyigl1r19wcq" data-item-class="Label Stroke Indexed" data-item-index="2" data-renderer-id="0" transform="translate(2, 200)"><g id="tx_stratgie_dhyigl1r19wcq-fill" stroke="none" fill="#484848"><g><text style="font: 20px Roboto, sans-serif; white-space: pre;" font-weight="20px" font-size="Roboto," font-family="sans-serif"><tspan x="98.23" y="33.75" dominant-baseline="ideographic">Stratégies </tspan><tspan x="22.41" y="57.75" dominant-baseline="ideographic">Organisationnelles</tspan></text></g></g></g><g id="g-root-1_hxs3qt1r101z6-fill" data-item-order="1000000000" data-item-id="1_hxs3qt1r101z6" data-item-class="Icon Stroke Indexed InsideFill InsideColorFill" data-item-index="2" data-renderer-id="0" transform="translate(206, 206)"></g><g id="g-root-2_9253hx1r102rv-fill" data-item-order="1000000000" data-item-id="2_9253hx1r102rv" data-item-class="Icon Stroke InsideFill" data-item-index="none" data-renderer-id="0" transform="translate(518, 242)"></g><g id="g-root-tx_gestione_14492451r19wcn-fill" data-item-order="1000000000" data-item-id="tx_gestione_14492451r19wcn" data-item-class="Label Stroke" data-item-index="none" data-renderer-id="0" transform="translate(590, 242)"><g id="tx_gestione_14492451r19wcn-fill" stroke="none" fill="#484848"><g><text style="font: 20px Roboto, sans-serif; white-space: pre;" font-weight="20px" font-size="Roboto," font-family="sans-serif"><tspan x="12" y="33.75" dominant-baseline="ideographic">Gestion Efficace </tspan><tspan x="12" y="57.75" dominant-baseline="ideographic">des Actifs</tspan></text></g></g></g><g id="g-root-tx_amliorat_mdliph1r19vk1-fill" data-item-order="1000000000" data-item-id="tx_amliorat_mdliph1r19vk1" data-item-class="Label Stroke Indexed" data-item-index="3" data-renderer-id="0" transform="translate(26, 284)"><g id="tx_amliorat_mdliph1r19vk1-fill" stroke="none" fill="#484848"><g><text style="font: 20px Roboto, sans-serif; white-space: pre;" font-weight="20px" font-size="Roboto," font-family="sans-serif"><tspan x="13.49" y="33.75" dominant-baseline="ideographic">Améliorations de </tspan><tspan x="48.38" y="57.75" dominant-baseline="ideographic">Performance</tspan></text></g></g></g><g id="g-root-spee_hxs3qt1r101z5-fill" data-item-order="1000000000" data-item-id="spee_hxs3qt1r101z5" data-item-class="Icon Stroke Indexed InsideFill InsideColorFill" data-item-index="3" data-renderer-id="0" transform="translate(206, 290)"></g><g id="g-root-tx_pratique_qtf0tx1r19urs-fill" data-item-order="1000000000" data-item-id="tx_pratique_qtf0tx1r19urs" data-item-class="Label Stroke Indexed" data-item-index="4" data-renderer-id="0" transform="translate(62, 368)"><g id="tx_pratique_qtf0tx1r19urs-fill" stroke="none" fill="#484848"><g><text style="font: 20px Roboto, sans-serif; white-space: pre;" font-weight="20px" font-size="Roboto," font-family="sans-serif"><tspan x="16.61" y="33.75" dominant-baseline="ideographic">Pratiques de </tspan><tspan x="12.63" y="57.75" dominant-baseline="ideographic">Maintenance</tspan></text></g></g></g><g id="g-root-engi_mdllv91r1016w-fill" data-item-order="1000000000" data-item-id="engi_mdllv91r1016w" data-item-class="Icon Stroke Indexed InsideFill InsideColorFill" data-item-index="4" data-renderer-id="0" transform="translate(206, 374)"></g><g id="g-root--1.cu_sy_74h6d1r19urx-stroke" data-item-order="999852548" data-item-id="-1.cu_sy_74h6d1r19urx" data-item-class="Part Fill Stroke ColorFillGray ColorStrokeGray" data-item-index="-1" data-renderer-id="0" transform="translate(338, 74)"><g id="-1.cu_sy_74h6d1r19urx-stroke" fill="none" stroke-linecap="round" stroke-linejoin="round" stroke-miterlimit="4" stroke="#888888" stroke-width="2"><g><path d="M 65.766602 394C 80.754802 394 106.000002 308.0387 106.000002 202C 106.000002 95.9613 80.754802 10 65.766602 10C 80.775202 10.01 92.941702 96.2224 92.941702 202C 92.941702 307.7776 80.775202 393.99 65.766602 394ZM 65.765897 394C 80.774597 393.99 92.941097 307.7776 92.941097 202C 92.941097 96.2224 80.774597 10.01 65.765897 10L 51.957397 10C 66.060697 16.8878 77.199297 100.4719 77.199297 202C 77.199297 303.5282 65.382597 387.1122 51.279297 394L 65.765897 394ZM 77.2 202C 77.2 303.5282 65.3833 387.1122 51.28 394L 50.0615 394C 35.0734 394 10 308.0387 10 202C 10 95.9613 35.0734 10 50.0615 10C 50.6991 10 51.9581 10 51.9581 10C 66.0614 16.8878 77.2 100.4719 77.2 202Z"></path></g></g></g><g id="g-root-0.cr-medium_cr_1usf1111r19vd2-stroke" data-item-order="999852550" data-item-id="0.cr-medium_cr_1usf1111r19vd2" data-item-class="Shape Stroke Fill Part Indexed_0" data-item-index="0" data-renderer-id="0" transform="translate(506, 230)"><g id="0.cr-medium_cr_1usf1111r19vd2-stroke" fill="none" stroke-linecap="round" stroke-linejoin="round" stroke-miterlimit="4" stroke="#484848" stroke-width="2"><g><path d="M 10 46C 10 65.882251 26.117749 82 46 82C 65.882251 82 82 65.882251 82 46C 82 26.117749 65.882251 10 46 10C 26.117749 10 10 26.117749 10 46"></path></g></g></g><g id="g-root-4.line_sy_1d1rhmd1r19ukl-stroke" data-item-order="999852553" data-item-id="4.line_sy_1d1rhmd1r19ukl" data-item-class="Curve Stroke Part Indexed" data-item-index="4" data-renderer-id="0" transform="translate(254, 301)"><g id="4.line_sy_1d1rhmd1r19ukl-stroke" fill="none" stroke-linecap="round" stroke-linejoin="round" stroke-miterlimit="4" stroke="#dd8433" stroke-width="2"><g><path d="M 260.35 11.14L 130 101L 10 101"></path><path d="M 259.1 19.9L 260.8 10.9L 251.7 9.2" stroke-dasharray="none"></path></g></g></g><g id="g-root-4.cr-small_cr_1d1rhmd1r19ukm-stroke" data-item-order="999852554" data-item-id="4.cr-small_cr_1d1rhmd1r19ukm" data-item-class="Shape Stroke Fill Part Indexed" data-item-index="4" data-renderer-id="0" transform="translate(194, 363)"><g id="4.cr-small_cr_1d1rhmd1r19ukm-stroke" fill="none" stroke-linecap="round" stroke-linejoin="round" stroke-miterlimit="4" stroke="#dd8433" stroke-width="2"><g><path d="M 10 40C 10.000002 56.568544 23.431459 70.000002 40.000002 70.000002C 56.568544 70.000002 70.000002 56.568544 70.000002 40.000002C 70.000002 23.431459 56.568544 10.000002 40.000002 10.000002C 23.431459 10.000002 10.000002 23.431459 10.000002 40.000002"></path></g></g></g><g id="g-root-3.line_sy_1hgyinp1r19wy3-stroke" data-item-order="999852557" data-item-id="3.line_sy_1hgyinp1r19wy3" data-item-class="Curve Stroke Part Indexed" data-item-index="3" data-renderer-id="0" transform="translate(254.10940551757812, 278)"><g id="3.line_sy_1hgyinp1r19wy3-stroke" fill="none" stroke-linecap="round" stroke-linejoin="round" stroke-miterlimit="4" stroke="#e15e5a" stroke-width="2"><g><path d="M 249.950594 10.48L 129.890594 40L 10.000594 40"></path><path d="M 245.690594 18.2L 250.390594 10.4L 242.590594 5.6" stroke-dasharray="none"></path></g></g></g><g id="g-root-3.cr-small_cr_1hgyinp1r19wy4-stroke" data-item-order="999852558" data-item-id="3.cr-small_cr_1hgyinp1r19wy4" data-item-class="Shape Stroke Fill Part Indexed" data-item-index="3" data-renderer-id="0" transform="translate(194, 279)"><g id="3.cr-small_cr_1hgyinp1r19wy4-stroke" fill="none" stroke-linecap="round" stroke-linejoin="round" stroke-miterlimit="4" stroke="#e15e5a" stroke-width="2"><g><path d="M 10 40C 10.000002 56.568544 23.431459 70.000002 40.000002 70.000002C 56.568544 70.000002 70.000002 56.568544 70.000002 40.000002C 70.000002 23.431459 56.568544 10.000002 40.000002 10.000002C 23.431459 10.000002 10.000002 23.431459 10.000002 40.000002"></path></g></g></g><g id="g-root-2.line_sy_1qcliwl1r19w5d-stroke" data-item-order="999852561" data-item-id="2.line_sy_1qcliwl1r19w5d" data-item-class="Curve Stroke Part Indexed" data-item-index="2" data-renderer-id="0" transform="translate(254, 224)"><g id="2.line_sy_1qcliwl1r19w5d-stroke" fill="none" stroke-linecap="round" stroke-linejoin="round" stroke-miterlimit="4" stroke="#e3cd09" stroke-width="2"><g><path d="M 250.06 39.52L 130 10L 10 10"></path><path d="M 242.7 44.4L 250.5 39.6L 245.8 31.8" stroke-dasharray="none"></path></g></g></g><g id="g-root-2.cr-small_cr_1qcliwl1r19w5e-stroke" data-item-order="999852562" data-item-id="2.cr-small_cr_1qcliwl1r19w5e" data-item-class="Shape Stroke Fill Part Indexed" data-item-index="2" data-renderer-id="0" transform="translate(194, 195)"><g id="2.cr-small_cr_1qcliwl1r19w5e-stroke" fill="none" stroke-linecap="round" stroke-linejoin="round" stroke-miterlimit="4" stroke="#e3cd09" stroke-width="2"><g><path d="M 10 40C 10.000002 56.568544 23.431459 70.000002 40.000002 70.000002C 56.568544 70.000002 70.000002 56.568544 70.000002 40.000002C 70.000002 23.431459 56.568544 10.000002 40.000002 10.000002C 23.431459 10.000002 10.000002 23.431459 10.000002 40.000002"></path></g></g></g><g id="g-root-1.line_sy_1usf1111r19vd3-stroke" data-item-order="999852565" data-item-id="1.line_sy_1usf1111r19vd3" data-item-class="Curve Stroke Part Indexed Indexed_1" data-item-index="1" data-renderer-id="0" transform="translate(254, 140)"><g id="1.line_sy_1usf1111r19vd3-stroke" fill="none" stroke-linecap="round" stroke-linejoin="round" stroke-miterlimit="4" stroke="#3bc482" stroke-width="2"><g><path d="M 260.35 99.86L 130 10L 10 10"></path><path d="M 251.7 101.8L 260.8 100.1L 259.1 91.1" stroke-dasharray="none"></path></g></g></g><g id="g-root-1.cr-small_cr_1qcliwl1r19w5c-stroke" data-item-order="999852566" data-item-id="1.cr-small_cr_1qcliwl1r19w5c" data-item-class="Shape Stroke Fill Part Indexed Indexed_1" data-item-index="1" data-renderer-id="0" transform="translate(194, 111)"><g id="1.cr-small_cr_1qcliwl1r19w5c-stroke" fill="none" stroke-linecap="round" stroke-linejoin="round" stroke-miterlimit="4" stroke="#3bc482" stroke-width="2"><g><path d="M 10 40C 10.000002 56.568544 23.431459 70.000002 40.000002 70.000002C 56.568544 70.000002 70.000002 56.568544 70.000002 40.000002C 70.000002 23.431459 56.568544 10.000002 40.000002 10.000002C 23.431459 10.000002 10.000002 23.431459 10.000002 40.000002"></path></g></g></g><g id="g-root-tx_meilleur_9250c51r19x50-stroke" data-item-order="1000000000" data-item-id="tx_meilleur_9250c51r19x50" data-item-class="Label Stroke Title" data-item-index="none" data-renderer-id="0" transform="translate(176, 2)"></g><g id="g-root-tx_techniqu_9250c51r19x4z-stroke" data-item-order="1000000000" data-item-id="tx_techniqu_9250c51r19x4z" data-item-class="Label Stroke Indexed Indexed_1" data-item-index="1" data-renderer-id="0" transform="translate(38, 116)"></g><g id="g-root-play_qssmwl1r103kf-stroke" data-item-order="1000000000" data-item-id="play_qssmwl1r103kf" data-item-class="Icon Stroke Indexed Indexed_1 InsideFill InsideColorFill" data-item-index="1" data-renderer-id="0" transform="translate(206, 122)"><g id="play_qssmwl1r103kf-stroke" fill="none" stroke-linecap="round" stroke-linejoin="round" stroke-miterlimit="4" stroke="#3bc482" stroke-width="2"><g><path d="M 12.25 10.75L 43.75 10.75C 43.75 10.75 45.25 10.75 45.25 12.25L 45.25 43.75C 45.25 43.75 45.25 45.25 43.75 45.25L 12.25 45.25C 12.25 45.25 10.75 45.25 10.75 43.75L 10.75 12.25C 10.75 12.25 10.75 10.75 12.25 10.75M 14.5 26.506001L 17.5 22.006001L 21.25 30.25L 27.25 15.25L 32.5 28.756001L 37.75 21.25L 41.5 25.756001M 14.5 40L 41.5 40M 36.25 37.75L 36.25 42.25M 10.75 34.75L 44.5 34.75"></path></g></g></g><g id="g-root-tx_stratgie_dhyigl1r19wcq-stroke" data-item-order="1000000000" data-item-id="tx_stratgie_dhyigl1r19wcq" data-item-class="Label Stroke Indexed" data-item-index="2" data-renderer-id="0" transform="translate(2, 200)"></g><g id="g-root-1_hxs3qt1r101z6-stroke" data-item-order="1000000000" data-item-id="1_hxs3qt1r101z6" data-item-class="Icon Stroke Indexed InsideFill InsideColorFill" data-item-index="2" data-renderer-id="0" transform="translate(206, 206)"><g id="1_hxs3qt1r101z6-stroke" fill="none" stroke-linecap="round" stroke-linejoin="round" stroke-miterlimit="4" stroke="#e3cd09" stroke-width="2"><g><path d="M 45.25 43.75C 45.25 44.578426 44.578426 45.25 43.75 45.25L 12.25 45.25C 11.421573 45.25 10.75 44.578426 10.75 43.75L 10.75 12.25C 10.75 11.421573 11.421573 10.75 12.25 10.75L 43.75 10.75C 44.578426 10.75 45.25 11.421573 45.25 12.25ZM 10.75 28.75L 45.25 28.75M 21.25 45.25L 15.25 45.25L 15.25 32.5C 15.25 32.085785 15.585787 31.75 16 31.75L 20.5 31.75C 20.914213 31.75 21.25 32.085785 21.25 32.5ZM 30.25 16.75L 34.75 16.75L 34.75 28.75L 30.25 28.75ZM 38.926003 28.75L 34.243 15.109C 34.108818 14.717155 34.317673 14.290724 34.709499 14.1565L 37.547501 13.1815C 37.939346 13.047318 38.365776 13.25617 38.5 13.648L 43.683998 28.75M 30.25 28.75L 24.25 28.75L 24.25 16C 24.25 15.585787 24.585787 15.25 25 15.25L 29.5 15.25C 29.914213 15.25 30.25 15.585787 30.25 16ZM 27.25 45.25L 21.25 45.25L 21.25 32.5C 21.25 32.085785 21.585787 31.75 22 31.75L 26.5 31.75C 26.914213 31.75 27.25 32.085785 27.25 32.5ZM 40.75 45.25L 36.25 45.25L 36.25 32.5C 36.25 32.085785 36.585785 31.75 37 31.75L 40 31.75C 40.414215 31.75 40.75 32.085785 40.75 32.5ZM 36.25 45.25L 31.75 45.25L 31.75 34C 31.75 33.585785 32.085785 33.25 32.5 33.25L 35.5 33.25C 35.914215 33.25 36.25 33.585785 36.25 34ZM 18.25 36.25L 18.25 40.75M 24.25 36.25L 24.25 40.75"></path></g></g></g><g id="g-root-2_9253hx1r102rv-stroke" data-item-order="1000000000" data-item-id="2_9253hx1r102rv" data-item-class="Icon Stroke InsideFill" data-item-index="none" data-renderer-id="0" transform="translate(518, 242)"><g id="2_9253hx1r102rv-stroke" fill="none" stroke-linecap="round" stroke-linejoin="round" stroke-miterlimit="4" stroke="#484848" stroke-width="2"><g><path d="M 57 49C 57 51.209141 55.209141 53 53 53L 15 53C 12.790861 53 11 51.209141 11 49L 11 47L 57 47ZM 15 53L 15 57M 53 53L 53 57M 34 47L 24 47L 24 13C 24 11.895431 24.895432 11 26 11L 32 11C 33.104568 11 34 11.895431 34 13ZM 44.287998 47L 40.312 14.188C 40.179146 13.091783 40.959839 12.095322 42.056 11.962L 48.012001 11.24C 49.10891 11.107193 50.105686 11.88903 50.237999 12.986L 54.360001 47M 40 47L 34 47L 34 17L 38 17C 39.104568 17 40 17.895432 40 19ZM 24 47L 14 47L 14 13C 14 11.895431 14.895431 11 16 11L 22 11C 23.104568 11 24 11.895431 24 13ZM 28 41L 30 41M 18 41L 20 41M 19 17L 19 35M 29 17L 29 35M 46 37C 46 38.104568 46.895432 39 48 39C 49.104568 39 50 38.104568 50 37C 50 35.895432 49.104568 35 48 35C 46.895432 35 46 35.895432 46 37Z"></path></g></g></g><g id="g-root-tx_gestione_14492451r19wcn-stroke" data-item-order="1000000000" data-item-id="tx_gestione_14492451r19wcn" data-item-class="Label Stroke" data-item-index="none" data-renderer-id="0" transform="translate(590, 242)"></g><g id="g-root-tx_amliorat_mdliph1r19vk1-stroke" data-item-order="1000000000" data-item-id="tx_amliorat_mdliph1r19vk1" data-item-class="Label Stroke Indexed" data-item-index="3" data-renderer-id="0" transform="translate(26, 284)"></g><g id="g-root-spee_hxs3qt1r101z5-stroke" data-item-order="1000000000" data-item-id="spee_hxs3qt1r101z5" data-item-class="Icon Stroke Indexed InsideFill InsideColorFill" data-item-index="3" data-renderer-id="0" transform="translate(206, 290)"><g id="spee_hxs3qt1r101z5-stroke" fill="none" stroke-linecap="round" stroke-linejoin="round" stroke-miterlimit="4" stroke="#e15e5a" stroke-width="2"><g><path d="M 10.75 28C 10.75 37.526913 18.473087 45.25 28 45.25C 37.526913 45.25 45.25 37.526913 45.25 28C 45.25 18.473087 37.526913 10.75 28 10.75C 18.473087 10.75 10.75 18.473087 10.75 28M 25.75 28C 25.75 29.242641 26.75736 30.25 28 30.25C 29.242641 30.25 30.25 29.242641 30.25 28C 30.25 26.75736 29.242641 25.75 28 25.75C 26.75736 25.75 25.75 26.75736 25.75 28M 29.591499 26.41L 37.014999 18.985001M 13.666 27.25L 16.666 27.25M 14.833 33.452499L 17.606501 32.305M 41.163998 33.453999L 38.393501 32.305M 42.248501 27.25L 39.25 27.248499M 41.163998 22.547501L 38.393501 23.695M 34.399002 14.836L 33.25 17.605M 28.75 14.0275L 28.75 17.0275M 22.547501 14.8345L 23.695 17.605M 17.9245 17.923L 20.044001 20.044001M 14.836 22.546001L 17.606501 23.695M 22 34.75L 34 34.75C 34 34.75 34.75 34.75 34.75 35.5L 34.75 38.5C 34.75 38.5 34.75 39.25 34 39.25L 22 39.25C 22 39.25 21.25 39.25 21.25 38.5L 21.25 35.5C 21.25 35.5 21.25 34.75 22 34.75"></path></g></g></g><g id="g-root-tx_pratique_qtf0tx1r19urs-stroke" data-item-order="1000000000" data-item-id="tx_pratique_qtf0tx1r19urs" data-item-class="Label Stroke Indexed" data-item-index="4" data-renderer-id="0" transform="translate(62, 368)"></g><g id="g-root-engi_mdllv91r1016w-stroke" data-item-order="1000000000" data-item-id="engi_mdllv91r1016w" data-item-class="Icon Stroke Indexed InsideFill InsideColorFill" data-item-index="4" data-renderer-id="0" transform="translate(206, 374)"><g id="engi_mdllv91r1016w-stroke" fill="none" stroke-linecap="round" stroke-linejoin="round" stroke-miterlimit="4" stroke="#dd8433" stroke-width="2"><g><path d="M 40.348 35.6875L 41.384499 35.6875C 42.784515 35.687744 44.014996 34.759682 44.399498 33.413498L 44.399502 33.413502C 44.870804 31.763817 43.929153 30.041586 42.285999 29.548L 36.699997 27.4375L 32.349998 21.9895C 31.778355 21.173309 30.844467 20.687332 29.848 20.6875L 21.240999 20.6875C 20.131931 20.687632 19.110016 21.288725 18.570999 22.257999L 15.7 27.4375L 12.1105 30.337C 11.2619 30.867783 10.747477 31.799076 10.75 32.799999L 10.75 32.799999C 10.75 34.398865 12.046136 35.695 13.645 35.695L 14.151999 35.695M 35.152 35.6875L 19.348 35.6875M 34.75 37.1875C 34.75 38.844357 36.093143 40.1875 37.75 40.1875C 39.406857 40.1875 40.75 38.844357 40.75 37.1875C 40.75 35.530643 39.406857 34.1875 37.75 34.1875C 36.093143 34.1875 34.75 35.530643 34.75 37.1875ZM 13.75 37.1875C 13.75 38.844357 15.093145 40.1875 16.75 40.1875C 18.406855 40.1875 19.75 38.844357 19.75 37.1875C 19.75 35.530643 18.406855 34.1875 16.75 34.1875C 15.093145 34.1875 13.75 35.530643 13.75 37.1875ZM 32.5 28.1875L 29.98 24.407499C 29.679192 23.95632 29.172258 23.685955 28.629999 23.687498L 25 23.6875C 24.585787 23.6875 24.25 24.023287 24.25 24.4375L 24.25 27.4375C 24.25 27.851713 24.585787 28.1875 25 28.1875ZM 36.699997 27.4375L 40.557999 25.599998C 42.072411 24.878941 43.854382 25.007122 45.25 25.9375M 43.283501 20.3125C 43.582481 20.014456 43.750523 19.609661 43.750523 19.1875C 43.750523 18.765341 43.582481 18.360544 43.283501 18.0625L 43.283501 18.0625C 42.66246 17.441063 42.66246 16.433937 43.283501 15.8125M 39.533501 20.3125C 39.832481 20.014456 40.000523 19.609661 40.000523 19.1875C 40.000523 18.765341 39.832481 18.360544 39.533501 18.0625L 39.533501 18.0625C 38.91246 17.441063 38.91246 16.433937 39.533501 15.8125"></path></g></g></g></g></g></svg>