<?xml version="1.0" encoding="utf-8" standalone="yes"?>
<!DOCTYPE svg PUBLIC "-//W3C//DTD SVG 1.1//EN" "http://www.w3.org/Graphics/SVG/1.1/DTD/svg11.dtd">
<svg width="828" height="571" viewBox="0 0 828 571" style="fill:none;stroke:none;fill-rule:evenodd;clip-rule:evenodd;stroke-linecap:round;stroke-linejoin:round;stroke-miterlimit:1.5;" version="1.1" xmlns="http://www.w3.org/2000/svg" xmlns:xlink="http://www.w3.org/1999/xlink"><style id="fontImports">@import url("https://fonts.googleapis.com/css2?family=Roboto:wght@400;700&amp;display=block");</style><rect id="" x="0" y="0" width="828" height="571" style="fill: #ffffff;"></rect><g id="items" style="isolation: isolate"><g id="blend" style="mix-blend-mode:normal"><g id="g-root--1.cu_sy_1useul11tt4f7u-fill" data-item-order="999769604" data-item-id="-1.cu_sy_1useul11tt4f7u" data-item-class="Part Fill Stroke ColorFillGray ColorStrokeGray" data-item-index="-1" data-renderer-id="0" transform="translate(253, 206)"><g id="-1.cu_sy_1useul11tt4f7u-fill" stroke="none" fill="#f6f6f6"><g><path d="M 125 34L 101 10L 10 166L 34 190L 125 34ZM 125 34L 34 190L 216 190L 125 34Z"></path></g></g></g><g id="g-root-0.line-start_sy_1qclcgl1tt4g03-fill" data-item-order="999769607" data-item-id="0.line-start_sy_1qclcgl1tt4g03" data-item-class="Curve Stroke Part Indexed_0" data-item-index="0" data-renderer-id="0" transform="translate(230, 308)"></g><g id="g-root-0.cr-small_cr_1qclcgl1tt4g04-fill" data-item-order="999769608" data-item-id="0.cr-small_cr_1qclcgl1tt4g04" data-item-class="Shape Stroke Fill Part Indexed_0" data-item-index="0" data-renderer-id="0" transform="translate(158, 272)"><g id="0.cr-small_cr_1qclcgl1tt4g04-fill" stroke="none" fill="#f0f0f0"><g><path d="M 10 46C 10 65.882251 26.117749 82 46 82C 65.882251 82 82 65.882251 82 46C 82 26.117749 65.882251 10 46 10C 26.117749 10 10 26.117749 10 46"></path></g></g></g><g id="g-root-6.line_sy_zqast11tt4g0f-fill" data-item-order="999769611" data-item-id="6.line_sy_zqast11tt4g0f" data-item-class="Curve Stroke Part Indexed" data-item-index="6" data-renderer-id="0" transform="translate(322.5, 308)"></g><g id="g-root-6.cr-small_cr_vahaol1tt4gso-fill" data-item-order="999769612" data-item-id="6.cr-small_cr_vahaol1tt4gso" data-item-class="Shape Stroke Fill Part Indexed" data-item-index="6" data-renderer-id="0" transform="translate(578, 488)"><g id="6.cr-small_cr_vahaol1tt4gso-fill" stroke="none" fill="#ffe7e6"><g><path d="M 10 40C 10.000002 56.568544 23.431459 70.000002 40.000002 70.000002C 56.568544 70.000002 70.000002 56.568544 70.000002 40.000002C 70.000002 23.431459 56.568544 10.000002 40.000002 10.000002C 23.431459 10.000002 10.000002 23.431459 10.000002 40.000002"></path></g></g></g><g id="g-root-5.line_sy_zqast11tt4g0d-fill" data-item-order="999769615" data-item-id="5.line_sy_zqast11tt4g0d" data-item-class="Curve Stroke Part Indexed" data-item-index="5" data-renderer-id="0" transform="translate(322.5, 308)"></g><g id="g-root-5.cr-small_cr_zqast11tt4g0e-fill" data-item-order="999769616" data-item-id="5.cr-small_cr_zqast11tt4g0e" data-item-class="Shape Stroke Fill Part Indexed" data-item-index="5" data-renderer-id="0" transform="translate(578, 404)"><g id="5.cr-small_cr_zqast11tt4g0e-fill" stroke="none" fill="#fef2e6"><g><path d="M 10 40C 10.000002 56.568544 23.431459 70.000002 40.000002 70.000002C 56.568544 70.000002 70.000002 56.568544 70.000002 40.000002C 70.000002 23.431459 56.568544 10.000002 40.000002 10.000002C 23.431459 10.000002 10.000002 23.431459 10.000002 40.000002"></path></g></g></g><g id="g-root-4.line_sy_18lxt1x1tt4f7n-fill" data-item-order="999769619" data-item-id="4.line_sy_18lxt1x1tt4f7n" data-item-class="Curve Stroke Part Indexed" data-item-index="4" data-renderer-id="0" transform="translate(322.5, 308)"></g><g id="g-root-4.cr-small_cr_18lxt1x1tt4f7o-fill" data-item-order="999769620" data-item-id="4.cr-small_cr_18lxt1x1tt4f7o" data-item-class="Shape Stroke Fill Part Indexed" data-item-index="4" data-renderer-id="0" transform="translate(578, 320)"><g id="4.cr-small_cr_18lxt1x1tt4f7o-fill" stroke="none" fill="#fffce6"><g><path d="M 10 40C 10.000002 56.568544 23.431459 70.000002 40.000002 70.000002C 56.568544 70.000002 70.000002 56.568544 70.000002 40.000002C 70.000002 23.431459 56.568544 10.000002 40.000002 10.000002C 23.431459 10.000002 10.000002 23.431459 10.000002 40.000002"></path></g></g></g><g id="g-root-3.line_sy_1d1rb6d1tt4efd-fill" data-item-order="999769623" data-item-id="3.line_sy_1d1rb6d1tt4efd" data-item-class="Curve Stroke Part Indexed" data-item-index="3" data-renderer-id="0" transform="translate(323, 266)"></g><g id="g-root-3.cr-small_cr_18lxt1x1tt4f7m-fill" data-item-order="999769624" data-item-id="3.cr-small_cr_18lxt1x1tt4f7m" data-item-class="Shape Stroke Fill Part Indexed" data-item-index="3" data-renderer-id="0" transform="translate(578, 236)"><g id="3.cr-small_cr_18lxt1x1tt4f7m-fill" stroke="none" fill="#f5fbe9"><g><path d="M 10 40C 10.000002 56.568544 23.431459 70.000002 40.000002 70.000002C 56.568544 70.000002 70.000002 56.568544 70.000002 40.000002C 70.000002 23.431459 56.568544 10.000002 40.000002 10.000002C 23.431459 10.000002 10.000002 23.431459 10.000002 40.000002"></path></g></g></g><g id="g-root-2.line_sy_1d1rb6d1tt4efb-fill" data-item-order="999769627" data-item-id="2.line_sy_1d1rb6d1tt4efb" data-item-class="Curve Stroke Part Indexed" data-item-index="2" data-renderer-id="0" transform="translate(322.5, 182)"></g><g id="g-root-2.cr-small_cr_1d1rb6d1tt4efc-fill" data-item-order="999769628" data-item-id="2.cr-small_cr_1d1rb6d1tt4efc" data-item-class="Shape Stroke Fill Part Indexed" data-item-index="2" data-renderer-id="0" transform="translate(578, 152)"><g id="2.cr-small_cr_1d1rb6d1tt4efc-fill" stroke="none" fill="#e9fbf3"><g><path d="M 10 40C 10.000002 56.568544 23.431459 70.000002 40.000002 70.000002C 56.568544 70.000002 70.000002 56.568544 70.000002 40.000002C 70.000002 23.431459 56.568544 10.000002 40.000002 10.000002C 23.431459 10.000002 10.000002 23.431459 10.000002 40.000002"></path></g></g></g><g id="g-root-1.line_sy_1hgyc7p1tt4gst-fill" data-item-order="999769631" data-item-id="1.line_sy_1hgyc7p1tt4gst" data-item-class="Curve Stroke Part Indexed Indexed_1" data-item-index="1" data-renderer-id="0" transform="translate(322.5, 98)"></g><g id="g-root-1.cr-small_cr_1hgyc7p1tt4gsu-fill" data-item-order="999769632" data-item-id="1.cr-small_cr_1hgyc7p1tt4gsu" data-item-class="Shape Stroke Fill Part Indexed Indexed_1" data-item-index="1" data-renderer-id="0" transform="translate(578, 68)"><g id="1.cr-small_cr_1hgyc7p1tt4gsu-fill" stroke="none" fill="#e6f9ff"><g><path d="M 10 40C 10.000002 56.568544 23.431459 70.000002 40.000002 70.000002C 56.568544 70.000002 70.000002 56.568544 70.000002 40.000002C 70.000002 23.431459 56.568544 10.000002 40.000002 10.000002C 23.431459 10.000002 10.000002 23.431459 10.000002 40.000002"></path></g></g></g><g id="g-root-tx_testabil_92raz91tt4dtz-fill" data-item-order="1000000000" data-item-id="tx_testabil_92raz91tt4dtz" data-item-class="Label Stroke Indexed" data-item-index="2" data-renderer-id="0" transform="translate(650, 158)"><g id="tx_testabil_92raz91tt4dtz-fill" stroke="none" fill="#484848"><g><text style="font: 20px Roboto, sans-serif; white-space: pre;" font-weight="20px" font-size="Roboto," font-family="sans-serif"><tspan x="12" y="33.75" dominant-baseline="ideographic">Testabilité </tspan><tspan x="12" y="57.75" dominant-baseline="ideographic">Améliorée</tspan></text></g></g></g><g id="g-root-1_zqavyt1tsm5ft-fill" data-item-order="1000000000" data-item-id="1_zqavyt1tsm5ft" data-item-class="Icon Stroke Indexed InsideFill InsideColorFill" data-item-index="3" data-renderer-id="0" transform="translate(590, 248)"></g><g id="g-root-tx_maintena_dhyc0l1tt4g7i-fill" data-item-order="1000000000" data-item-id="tx_maintena_dhyc0l1tt4g7i" data-item-class="Label Stroke Indexed" data-item-index="3" data-renderer-id="0" transform="translate(650, 242)"><g id="tx_maintena_dhyc0l1tt4g7i-fill" stroke="none" fill="#484848"><g><text style="font: 20px Roboto, sans-serif; white-space: pre;" font-weight="20px" font-size="Roboto," font-family="sans-serif"><tspan x="12" y="33.75" dominant-baseline="ideographic">Maintenance </tspan><tspan x="12" y="57.75" dominant-baseline="ideographic">Facilitée</tspan></text></g></g></g><g id="g-root-tx_structur_zp1umt1tt4dtu-fill" data-item-order="1000000000" data-item-id="tx_structur_zp1umt1tt4dtu" data-item-class="Label Stroke" data-item-index="none" data-renderer-id="0" transform="translate(2, 284)"><g id="tx_structur_zp1umt1tt4dtu-fill" stroke="none" fill="#484848"><g><text style="font: 20px Roboto, sans-serif; white-space: pre;" font-weight="20px" font-size="Roboto," font-family="sans-serif"><tspan x="43.78" y="33.75" dominant-baseline="ideographic">Structure de </tspan><tspan x="16.9" y="57.75" dominant-baseline="ideographic">Design Logiciel</tspan></text></g></g></g><g id="g-root-2_1464e391tsm4nj-fill" data-item-order="1000000000" data-item-id="2_1464e391tsm4nj" data-item-class="Icon Stroke Indexed InsideFill InsideColorFill" data-item-index="2" data-renderer-id="0" transform="translate(590, 164)"></g><g id="g-root-layo_1d14x911tsm70m-fill" data-item-order="1000000000" data-item-id="layo_1d14x911tsm70m" data-item-class="Icon Stroke InsideFill" data-item-index="none" data-renderer-id="0" transform="translate(170, 284)"></g><g id="g-root-tx_sparatio_92raz91tt4du0-fill" data-item-order="1000000000" data-item-id="tx_sparatio_92raz91tt4du0" data-item-class="Label Stroke Indexed Indexed_1" data-item-index="1" data-renderer-id="0" transform="translate(650, 74)"><g id="tx_sparatio_92raz91tt4du0-fill" stroke="none" fill="#484848"><g><text style="font: 20px Roboto, sans-serif; white-space: pre;" font-weight="20px" font-size="Roboto," font-family="sans-serif"><tspan x="12" y="33.75" dominant-baseline="ideographic">Séparation des </tspan><tspan x="12" y="57.75" dominant-baseline="ideographic">Responsabilités</tspan></text></g></g></g><g id="g-root-expa_18lxw7p1tsm4n4-fill" data-item-order="1000000000" data-item-id="expa_18lxw7p1tsm4n4" data-item-class="Icon Stroke Indexed InsideFill InsideColorFill" data-item-index="4" data-renderer-id="0" transform="translate(590, 332)"></g><g id="g-root-tx_volutivi_dhyc0l1tt4g7h-fill" data-item-order="1000000000" data-item-id="tx_volutivi_dhyc0l1tt4g7h" data-item-class="Label Stroke Indexed" data-item-index="4" data-renderer-id="0" transform="translate(650, 326)"><g id="tx_volutivi_dhyc0l1tt4g7h-fill" stroke="none" fill="#484848"><g><text style="font: 20px Roboto, sans-serif; white-space: pre;" font-weight="20px" font-size="Roboto," font-family="sans-serif"><tspan x="12" y="33.75" dominant-baseline="ideographic">Évolutivité du </tspan><tspan x="12" y="57.75" dominant-baseline="ideographic">Code</tspan></text></g></g></g><g id="g-root-show_zqavyt1tsm5fu-fill" data-item-order="1000000000" data-item-id="show_zqavyt1tsm5fu" data-item-class="Icon Stroke Indexed Indexed_1 InsideFill InsideColorFill" data-item-index="1" data-renderer-id="0" transform="translate(590, 80)"></g><g id="g-root-1_vahdud1tsm684-fill" data-item-order="1000000000" data-item-id="1_vahdud1tsm684" data-item-class="Icon Stroke Indexed InsideFill InsideColorFill" data-item-index="5" data-renderer-id="0" transform="translate(590, 416)"></g><g id="g-root-tx_rutilisa_mdlc9h1tt4fes-fill" data-item-order="1000000000" data-item-id="tx_rutilisa_mdlc9h1tt4fes" data-item-class="Label Stroke Indexed" data-item-index="5" data-renderer-id="0" transform="translate(650, 410)"><g id="tx_rutilisa_mdlc9h1tt4fes-fill" stroke="none" fill="#484848"><g><text style="font: 20px Roboto, sans-serif; white-space: pre;" font-weight="20px" font-size="Roboto," font-family="sans-serif"><tspan x="12" y="33.75" dominant-baseline="ideographic">Réutilisation des </tspan><tspan x="12" y="57.75" dominant-baseline="ideographic">Composants</tspan></text></g></g></g><g id="g-root-1_vahdud1tsm683-fill" data-item-order="1000000000" data-item-id="1_vahdud1tsm683" data-item-class="Icon Stroke Indexed InsideFill InsideColorFill" data-item-index="6" data-renderer-id="0" transform="translate(590, 500)"></g><g id="g-root-tx_dvoilerl_4mxsut1tt4em9-fill" data-item-order="1000000000" data-item-id="tx_dvoilerl_4mxsut1tt4em9" data-item-class="Label Stroke Title" data-item-index="none" data-renderer-id="0" transform="translate(152, 2)"><g id="tx_dvoilerl_4mxsut1tt4em9-fill" stroke="none" fill="#484848"><g><text style="font: 20px Roboto, sans-serif; white-space: pre;" font-weight="20px" font-size="Roboto," font-family="sans-serif"><tspan x="17.05" y="33.75" dominant-baseline="ideographic">Dévoiler les Avantages et Principes du Design Logiciel</tspan></text></g></g></g><g id="g-root-tx_isolatio_qteudx1tt4emj-fill" data-item-order="1000000000" data-item-id="tx_isolatio_qteudx1tt4emj" data-item-class="Label Stroke Indexed" data-item-index="6" data-renderer-id="0" transform="translate(650, 494)"><g id="tx_isolatio_qteudx1tt4emj-fill" stroke="none" fill="#484848"><g><text style="font: 20px Roboto, sans-serif; white-space: pre;" font-weight="20px" font-size="Roboto," font-family="sans-serif"><tspan x="12" y="33.75" dominant-baseline="ideographic">Isolation des </tspan><tspan x="12" y="57.75" dominant-baseline="ideographic">Changements</tspan></text></g></g></g><g id="g-root--1.cu_sy_1useul11tt4f7u-stroke" data-item-order="999769604" data-item-id="-1.cu_sy_1useul11tt4f7u" data-item-class="Part Fill Stroke ColorFillGray ColorStrokeGray" data-item-index="-1" data-renderer-id="0" transform="translate(253, 206)"><g id="-1.cu_sy_1useul11tt4f7u-stroke" fill="none" stroke-linecap="round" stroke-linejoin="round" stroke-miterlimit="4" stroke="#888888" stroke-width="2"><g><path d="M 125 34L 101 10L 10 166L 34 190L 125 34ZM 125 34L 34 190L 216 190L 125 34Z"></path></g></g></g><g id="g-root-0.line-start_sy_1qclcgl1tt4g03-stroke" data-item-order="999769607" data-item-id="0.line-start_sy_1qclcgl1tt4g03" data-item-class="Curve Stroke Part Indexed_0" data-item-index="0" data-renderer-id="0" transform="translate(230, 308)"><g id="0.line-start_sy_1qclcgl1tt4g03-stroke" fill="none" stroke-linecap="round" stroke-linejoin="round" stroke-miterlimit="4" stroke="#484848" stroke-width="2"><g><path d="M 10 10.000031L 102.5 10.000031"></path></g></g></g><g id="g-root-0.cr-small_cr_1qclcgl1tt4g04-stroke" data-item-order="999769608" data-item-id="0.cr-small_cr_1qclcgl1tt4g04" data-item-class="Shape Stroke Fill Part Indexed_0" data-item-index="0" data-renderer-id="0" transform="translate(158, 272)"><g id="0.cr-small_cr_1qclcgl1tt4g04-stroke" fill="none" stroke-linecap="round" stroke-linejoin="round" stroke-miterlimit="4" stroke="#484848" stroke-width="2"><g><path d="M 10 46C 10 65.882251 26.117749 82 46 82C 65.882251 82 82 65.882251 82 46C 82 26.117749 65.882251 10 46 10C 26.117749 10 10 26.117749 10 46"></path></g></g></g><g id="g-root-6.line_sy_zqast11tt4g0f-stroke" data-item-order="999769611" data-item-id="6.line_sy_zqast11tt4g0f" data-item-class="Curve Stroke Part Indexed" data-item-index="6" data-renderer-id="0" transform="translate(322.5, 308)"><g id="6.line_sy_zqast11tt4g0f-stroke" fill="none" stroke-linecap="round" stroke-linejoin="round" stroke-miterlimit="4" stroke="#e15e5a" stroke-width="2"><g><path d="M 258.27 218.43L 118.5 40.25L 10 10"></path><path d="M 249.4 217.7L 258.6 218.8L 259.7 209.7" stroke-dasharray="none"></path></g></g></g><g id="g-root-6.cr-small_cr_vahaol1tt4gso-stroke" data-item-order="999769612" data-item-id="6.cr-small_cr_vahaol1tt4gso" data-item-class="Shape Stroke Fill Part Indexed" data-item-index="6" data-renderer-id="0" transform="translate(578, 488)"><g id="6.cr-small_cr_vahaol1tt4gso-stroke" fill="none" stroke-linecap="round" stroke-linejoin="round" stroke-miterlimit="4" stroke="#e15e5a" stroke-width="2"><g><path d="M 10 40C 10.000002 56.568544 23.431459 70.000002 40.000002 70.000002C 56.568544 70.000002 70.000002 56.568544 70.000002 40.000002C 70.000002 23.431459 56.568544 10.000002 40.000002 10.000002C 23.431459 10.000002 10.000002 23.431459 10.000002 40.000002"></path></g></g></g><g id="g-root-5.line_sy_zqast11tt4g0d-stroke" data-item-order="999769615" data-item-id="5.line_sy_zqast11tt4g0d" data-item-class="Curve Stroke Part Indexed" data-item-index="5" data-renderer-id="0" transform="translate(322.5, 308)"><g id="5.line_sy_zqast11tt4g0d-stroke" fill="none" stroke-linecap="round" stroke-linejoin="round" stroke-miterlimit="4" stroke="#dd8433" stroke-width="2"><g><path d="M 257.89 134.82L 112 28.25L 10 10"></path><path d="M 249.2 136.5L 258.3 135.1L 256.9 126" stroke-dasharray="none"></path></g></g></g><g id="g-root-5.cr-small_cr_zqast11tt4g0e-stroke" data-item-order="999769616" data-item-id="5.cr-small_cr_zqast11tt4g0e" data-item-class="Shape Stroke Fill Part Indexed" data-item-index="5" data-renderer-id="0" transform="translate(578, 404)"><g id="5.cr-small_cr_zqast11tt4g0e-stroke" fill="none" stroke-linecap="round" stroke-linejoin="round" stroke-miterlimit="4" stroke="#dd8433" stroke-width="2"><g><path d="M 10 40C 10.000002 56.568544 23.431459 70.000002 40.000002 70.000002C 56.568544 70.000002 70.000002 56.568544 70.000002 40.000002C 70.000002 23.431459 56.568544 10.000002 40.000002 10.000002C 23.431459 10.000002 10.000002 23.431459 10.000002 40.000002"></path></g></g></g><g id="g-root-4.line_sy_18lxt1x1tt4f7n-stroke" data-item-order="999769619" data-item-id="4.line_sy_18lxt1x1tt4f7n" data-item-class="Curve Stroke Part Indexed" data-item-index="4" data-renderer-id="0" transform="translate(322.5, 308)"><g id="4.line_sy_18lxt1x1tt4f7n-stroke" fill="none" stroke-linecap="round" stroke-linejoin="round" stroke-miterlimit="4" stroke="#e3cd09" stroke-width="2"><g><path d="M 257.55 52.04L 105 16L 10 10"></path><path d="M 250.2 57L 258 52.2L 253.2 44.3" stroke-dasharray="none"></path></g></g></g><g id="g-root-4.cr-small_cr_18lxt1x1tt4f7o-stroke" data-item-order="999769620" data-item-id="4.cr-small_cr_18lxt1x1tt4f7o" data-item-class="Shape Stroke Fill Part Indexed" data-item-index="4" data-renderer-id="0" transform="translate(578, 320)"><g id="4.cr-small_cr_18lxt1x1tt4f7o-stroke" fill="none" stroke-linecap="round" stroke-linejoin="round" stroke-miterlimit="4" stroke="#e3cd09" stroke-width="2"><g><path d="M 10 40C 10.000002 56.568544 23.431459 70.000002 40.000002 70.000002C 56.568544 70.000002 70.000002 56.568544 70.000002 40.000002C 70.000002 23.431459 56.568544 10.000002 40.000002 10.000002C 23.431459 10.000002 10.000002 23.431459 10.000002 40.000002"></path></g></g></g><g id="g-root-3.line_sy_1d1rb6d1tt4efd-stroke" data-item-order="999769623" data-item-id="3.line_sy_1d1rb6d1tt4efd" data-item-class="Curve Stroke Part Indexed" data-item-index="3" data-renderer-id="0" transform="translate(323, 266)"><g id="3.line_sy_1d1rb6d1tt4efd-stroke" fill="none" stroke-linecap="round" stroke-linejoin="round" stroke-miterlimit="4" stroke="#93c131" stroke-width="2"><g><path d="M 257.55 10.43L 97.75 45.75L 10 52"></path><path d="M 253.1 18.1L 258 10.3L 250.3 5.4" stroke-dasharray="none"></path></g></g></g><g id="g-root-3.cr-small_cr_18lxt1x1tt4f7m-stroke" data-item-order="999769624" data-item-id="3.cr-small_cr_18lxt1x1tt4f7m" data-item-class="Shape Stroke Fill Part Indexed" data-item-index="3" data-renderer-id="0" transform="translate(578, 236)"><g id="3.cr-small_cr_18lxt1x1tt4f7m-stroke" fill="none" stroke-linecap="round" stroke-linejoin="round" stroke-miterlimit="4" stroke="#93c131" stroke-width="2"><g><path d="M 10 40C 10.000002 56.568544 23.431459 70.000002 40.000002 70.000002C 56.568544 70.000002 70.000002 56.568544 70.000002 40.000002C 70.000002 23.431459 56.568544 10.000002 40.000002 10.000002C 23.431459 10.000002 10.000002 23.431459 10.000002 40.000002"></path></g></g></g><g id="g-root-2.line_sy_1d1rb6d1tt4efb-stroke" data-item-order="999769627" data-item-id="2.line_sy_1d1rb6d1tt4efb" data-item-class="Curve Stroke Part Indexed" data-item-index="2" data-renderer-id="0" transform="translate(322.5, 182)"><g id="2.line_sy_1d1rb6d1tt4efb-stroke" fill="none" stroke-linecap="round" stroke-linejoin="round" stroke-miterlimit="4" stroke="#3bc482" stroke-width="2"><g><path d="M 257.82 11.08L 90.75 118L 10 136"></path><path d="M 256.3 19.8L 258.2 10.8L 249.3 8.8" stroke-dasharray="none"></path></g></g></g><g id="g-root-2.cr-small_cr_1d1rb6d1tt4efc-stroke" data-item-order="999769628" data-item-id="2.cr-small_cr_1d1rb6d1tt4efc" data-item-class="Shape Stroke Fill Part Indexed" data-item-index="2" data-renderer-id="0" transform="translate(578, 152)"><g id="2.cr-small_cr_1d1rb6d1tt4efc-stroke" fill="none" stroke-linecap="round" stroke-linejoin="round" stroke-miterlimit="4" stroke="#3bc482" stroke-width="2"><g><path d="M 10 40C 10.000002 56.568544 23.431459 70.000002 40.000002 70.000002C 56.568544 70.000002 70.000002 56.568544 70.000002 40.000002C 70.000002 23.431459 56.568544 10.000002 40.000002 10.000002C 23.431459 10.000002 10.000002 23.431459 10.000002 40.000002"></path></g></g></g><g id="g-root-1.line_sy_1hgyc7p1tt4gst-stroke" data-item-order="999769631" data-item-id="1.line_sy_1hgyc7p1tt4gst" data-item-class="Curve Stroke Part Indexed Indexed_1" data-item-index="1" data-renderer-id="0" transform="translate(322.5, 98)"><g id="1.line_sy_1hgyc7p1tt4gst-stroke" fill="none" stroke-linecap="round" stroke-linejoin="round" stroke-miterlimit="4" stroke="#17b0e3" stroke-width="2"><g><path d="M 10 220L 83.5 190L 258.1 11.43"></path><path d="M 258.6 20.3L 258.5 11.1L 249.3 11.2" stroke-dasharray="none"></path></g></g></g><g id="g-root-1.cr-small_cr_1hgyc7p1tt4gsu-stroke" data-item-order="999769632" data-item-id="1.cr-small_cr_1hgyc7p1tt4gsu" data-item-class="Shape Stroke Fill Part Indexed Indexed_1" data-item-index="1" data-renderer-id="0" transform="translate(578, 68)"><g id="1.cr-small_cr_1hgyc7p1tt4gsu-stroke" fill="none" stroke-linecap="round" stroke-linejoin="round" stroke-miterlimit="4" stroke="#17b0e3" stroke-width="2"><g><path d="M 10 40C 10.000002 56.568544 23.431459 70.000002 40.000002 70.000002C 56.568544 70.000002 70.000002 56.568544 70.000002 40.000002C 70.000002 23.431459 56.568544 10.000002 40.000002 10.000002C 23.431459 10.000002 10.000002 23.431459 10.000002 40.000002"></path></g></g></g><g id="g-root-tx_testabil_92raz91tt4dtz-stroke" data-item-order="1000000000" data-item-id="tx_testabil_92raz91tt4dtz" data-item-class="Label Stroke Indexed" data-item-index="2" data-renderer-id="0" transform="translate(650, 158)"></g><g id="g-root-1_zqavyt1tsm5ft-stroke" data-item-order="1000000000" data-item-id="1_zqavyt1tsm5ft" data-item-class="Icon Stroke Indexed InsideFill InsideColorFill" data-item-index="3" data-renderer-id="0" transform="translate(590, 248)"><g id="1_zqavyt1tsm5ft-stroke" fill="none" stroke-linecap="round" stroke-linejoin="round" stroke-miterlimit="4" stroke="#93c131" stroke-width="2"><g><path d="M 22.8685 35.5825C 23.592396 35.602379 24.269974 35.227543 24.637781 34.603733C 25.005589 33.979923 25.005589 33.205574 24.637781 32.581768C 24.269974 31.957958 23.592396 31.583122 22.8685 31.603001M 33.226002 31.599998C 32.502106 31.580122 31.824528 31.95496 31.456718 32.57877C 31.088911 33.202576 31.088911 33.976925 31.456718 34.600731C 31.824528 35.224541 32.502106 35.599377 33.226002 35.579498M 24.859001 33.593498L 31.2265 33.593498M 28.042 25.6105L 22.711 25.6105C 21.330189 25.610332 20.076769 26.417404 19.505501 27.6745L 17.509001 32.066502L 13.4335 34.331501C 12.688259 34.745502 12.22604 35.530987 12.226 36.383499L 12.226 38.524002C 12.226 39.820492 13.277012 40.871502 14.573501 40.871502L 15.751 40.871498L 15.751 40.898502C 15.787061 42.493469 17.090372 43.767651 18.685751 43.767651C 20.281128 43.767651 21.58444 42.493469 21.620501 40.898502L 21.620501 40.871498L 30.43 40.871498L 30.43 40.898502C 30.466061 42.493469 31.769371 43.767651 33.36475 43.767651C 34.960129 43.767651 36.263443 42.493469 36.2995 40.898502L 36.2995 40.871498L 36.889 40.871498C 38.18549 40.871502 39.236504 39.820492 39.236504 38.524002L 39.2365 34.7215M 37.184498 12.586L 32.661999 22.0765C 32.556477 22.298115 32.568539 22.557777 32.69416 22.76865C 32.819782 22.979527 33.042374 23.113773 33.287502 23.126501L 37.787498 23.362L 37.787498 29.401001C 37.787857 29.744116 38.025558 30.041334 38.360207 30.117096C 38.694855 30.192858 39.037395 30.027004 39.185501 29.717501L 43.706501 20.226999C 43.812836 20.005444 43.801147 19.745359 43.675377 19.534231C 43.549603 19.323105 43.326462 19.18899 43.081001 19.177L 38.581001 18.9415L 38.581001 12.9025C 38.579205 12.560612 38.341904 12.265107 38.008469 12.189537C 37.675034 12.113968 37.333519 12.278292 37.184502 12.586Z"></path></g></g></g><g id="g-root-tx_maintena_dhyc0l1tt4g7i-stroke" data-item-order="1000000000" data-item-id="tx_maintena_dhyc0l1tt4g7i" data-item-class="Label Stroke Indexed" data-item-index="3" data-renderer-id="0" transform="translate(650, 242)"></g><g id="g-root-tx_structur_zp1umt1tt4dtu-stroke" data-item-order="1000000000" data-item-id="tx_structur_zp1umt1tt4dtu" data-item-class="Label Stroke" data-item-index="none" data-renderer-id="0" transform="translate(2, 284)"></g><g id="g-root-2_1464e391tsm4nj-stroke" data-item-order="1000000000" data-item-id="2_1464e391tsm4nj" data-item-class="Icon Stroke Indexed InsideFill InsideColorFill" data-item-index="2" data-renderer-id="0" transform="translate(590, 164)"><g id="2_1464e391tsm4nj-stroke" fill="none" stroke-linecap="round" stroke-linejoin="round" stroke-miterlimit="4" stroke="#3bc482" stroke-width="2"><g><path d="M 37 20.5L 27.43 33.489998C 27.186594 33.821335 26.817858 34.038235 26.41 34.09C 26.007839 34.14135 25.60202 34.027721 25.285 33.775002L 19 28.75M 12.25 10.75L 43.75 10.75C 43.75 10.75 45.25 10.75 45.25 12.25L 45.25 43.75C 45.25 43.75 45.25 45.25 43.75 45.25L 12.25 45.25C 12.25 45.25 10.75 45.25 10.75 43.75L 10.75 12.25C 10.75 12.25 10.75 10.75 12.25 10.75"></path></g></g></g><g id="g-root-layo_1d14x911tsm70m-stroke" data-item-order="1000000000" data-item-id="layo_1d14x911tsm70m" data-item-class="Icon Stroke InsideFill" data-item-index="none" data-renderer-id="0" transform="translate(170, 284)"><g id="layo_1d14x911tsm70m-stroke" fill="none" stroke-linecap="round" stroke-linejoin="round" stroke-miterlimit="4" stroke="#484848" stroke-width="2"><g><path d="M 15 14.007999L 53 14.007999C 53 14.007999 57 14.007999 57 18.007999L 57 50.007999C 57 50.007999 57 54.007999 53 54.007999L 15 54.007999C 15 54.007999 11 54.007999 11 50.007999L 11 18.007999C 11 18.007999 11 14.007999 15 14.007999M 11 24.007999L 57 24.007999M 18 18.507999C 18.276142 18.507999 18.5 18.731857 18.5 19.007999C 18.5 19.284142 18.276142 19.507999 18 19.507999C 17.723858 19.507999 17.5 19.284142 17.5 19.007999C 17.5 18.731857 17.723858 18.507999 18 18.507999M 24 18.507999C 24.276142 18.507999 24.5 18.731857 24.5 19.007999C 24.5 19.284142 24.276142 19.507999 24 19.507999C 23.723858 19.507999 23.5 19.284142 23.5 19.007999C 23.5 18.731857 23.723858 18.507999 24 18.507999M 30 18.507999C 30.276142 18.507999 30.5 18.731857 30.5 19.007999C 30.5 19.284142 30.276142 19.507999 30 19.507999C 29.723858 19.507999 29.5 19.284142 29.5 19.007999C 29.5 18.731857 29.723858 18.507999 30 18.507999M 19.998001 32.007999L 23.998001 32.007999C 23.998001 32.007999 24.998001 32.007999 24.998001 33.007999L 24.998001 37.007999C 24.998001 37.007999 24.998001 38.007999 23.998001 38.007999L 19.998001 38.007999C 19.998001 38.007999 18.998001 38.007999 18.998001 37.007999L 18.998001 33.007999C 18.998001 33.007999 18.998001 32.007999 19.998001 32.007999M 19.998001 42.007999L 23.998001 42.007999C 23.998001 42.007999 24.998001 42.007999 24.998001 43.007999L 24.998001 47.007999C 24.998001 47.007999 24.998001 48.007999 23.998001 48.007999L 19.998001 48.007999C 19.998001 48.007999 18.998001 48.007999 18.998001 47.007999L 18.998001 43.007999C 18.998001 43.007999 18.998001 42.007999 19.998001 42.007999M 31.997999 32.007999L 35.998001 32.007999C 35.998001 32.007999 36.998001 32.007999 36.998001 33.007999L 36.998001 37.007999C 36.998001 37.007999 36.998001 38.007999 35.998001 38.007999L 31.997999 38.007999C 31.997999 38.007999 30.997999 38.007999 30.997999 37.007999L 30.997999 33.007999C 30.997999 33.007999 30.997999 32.007999 31.997999 32.007999M 31.997999 42.007999L 35.998001 42.007999C 35.998001 42.007999 36.998001 42.007999 36.998001 43.007999L 36.998001 47.007999C 36.998001 47.007999 36.998001 48.007999 35.998001 48.007999L 31.997999 48.007999C 31.997999 48.007999 30.997999 48.007999 30.997999 47.007999L 30.997999 43.007999C 30.997999 43.007999 30.997999 42.007999 31.997999 42.007999M 43.998001 32.007999L 47.998001 32.007999C 47.998001 32.007999 48.998001 32.007999 48.998001 33.007999L 48.998001 37.007999C 48.998001 37.007999 48.998001 38.007999 47.998001 38.007999L 43.998001 38.007999C 43.998001 38.007999 42.998001 38.007999 42.998001 37.007999L 42.998001 33.007999C 42.998001 33.007999 42.998001 32.007999 43.998001 32.007999M 43.998001 42.007999L 47.998001 42.007999C 47.998001 42.007999 48.998001 42.007999 48.998001 43.007999L 48.998001 47.007999C 48.998001 47.007999 48.998001 48.007999 47.998001 48.007999L 43.998001 48.007999C 43.998001 48.007999 42.998001 48.007999 42.998001 47.007999L 42.998001 43.007999C 42.998001 43.007999 42.998001 42.007999 43.998001 42.007999"></path></g></g></g><g id="g-root-tx_sparatio_92raz91tt4du0-stroke" data-item-order="1000000000" data-item-id="tx_sparatio_92raz91tt4du0" data-item-class="Label Stroke Indexed Indexed_1" data-item-index="1" data-renderer-id="0" transform="translate(650, 74)"></g><g id="g-root-expa_18lxw7p1tsm4n4-stroke" data-item-order="1000000000" data-item-id="expa_18lxw7p1tsm4n4" data-item-class="Icon Stroke Indexed InsideFill InsideColorFill" data-item-index="4" data-renderer-id="0" transform="translate(590, 332)"><g id="expa_18lxw7p1tsm4n4-stroke" fill="none" stroke-linecap="round" stroke-linejoin="round" stroke-miterlimit="4" stroke="#e3cd09" stroke-width="2"><g><path d="M 16 14.131C 16.152214 14.13102 16.289318 14.223048 16.346992 14.363914C 16.404665 14.50478 16.371468 14.666533 16.26297 14.773294C 16.154472 14.880055 15.992205 14.910641 15.852287 14.850703C 15.71237 14.790765 15.622564 14.652196 15.625 14.5C 15.628277 14.29524 15.795214 14.130974 16 14.131M 10.75 18.256001L 45.25 18.256001M 20.5 14.131C 20.652214 14.13102 20.789318 14.223048 20.846992 14.363914C 20.904665 14.50478 20.871468 14.666533 20.76297 14.773294C 20.654472 14.880055 20.492205 14.910641 20.352287 14.850703C 20.21237 14.790765 20.122564 14.652196 20.125 14.5C 20.128277 14.29524 20.295214 14.130974 20.5 14.131M 25 14.131C 25.152214 14.13102 25.289318 14.223048 25.346992 14.363914C 25.404667 14.50478 25.371468 14.666533 25.26297 14.773294C 25.154474 14.880055 24.992205 14.910641 24.852287 14.850703C 24.71237 14.790765 24.622566 14.652196 24.625 14.5C 24.625 14.292893 24.792892 14.125 25 14.125M 30.25 40.75L 42.25 40.75C 43.906857 40.75 45.25 39.406857 45.25 37.75L 45.25 13.75C 45.25 12.093145 43.906857 10.75 42.25 10.75L 13.75 10.75C 12.093145 10.75 10.75 12.093145 10.75 13.75L 10.75 37M 33.25 22.756001L 19.129 36.853001M 33.25 28.693001L 33.25 22.756001L 26.5 22.756001M 10.75 40.756001L 21.25 40.756001L 21.25 45.256001L 10.75 45.256001Z"></path></g></g></g><g id="g-root-tx_volutivi_dhyc0l1tt4g7h-stroke" data-item-order="1000000000" data-item-id="tx_volutivi_dhyc0l1tt4g7h" data-item-class="Label Stroke Indexed" data-item-index="4" data-renderer-id="0" transform="translate(650, 326)"></g><g id="g-root-show_zqavyt1tsm5fu-stroke" data-item-order="1000000000" data-item-id="show_zqavyt1tsm5fu" data-item-class="Icon Stroke Indexed Indexed_1 InsideFill InsideColorFill" data-item-index="1" data-renderer-id="0" transform="translate(590, 80)"><g id="show_zqavyt1tsm5fu-stroke" fill="none" stroke-linecap="round" stroke-linejoin="round" stroke-miterlimit="4" stroke="#17b0e3" stroke-width="2"><g><path d="M 35.5 41.275002C 34.933674 41.894035 34.134003 42.247635 33.294998 42.25L 30.625 42.25M 12.25 33.25L 12.25 18.25C 12.25 16.593145 13.593145 15.25 15.25 15.25L 19 15.25M 29.5 15.25L 33.25 15.25C 34.906857 15.25 36.25 16.593145 36.25 18.25L 36.25 31.599998M 26.844999 12.25C 26.308304 11.324794 25.319603 10.755316 24.25 10.755316C 23.180397 10.755316 22.191696 11.324794 21.655001 12.25L 20.5 12.25C 19.671574 12.25 19 12.921573 19 13.75L 19 16.75C 19 17.578426 19.671574 18.25 20.5 18.25L 28 18.25C 28.828428 18.25 29.5 17.578426 29.5 16.75L 29.5 13.75C 29.5 12.921573 28.828428 12.25 28 12.25ZM 10.75 45.25L 10.75 41.244999C 10.75 38.486336 12.986338 36.25 15.745 36.25L 18.25 36.25L 18.25 29.5C 18.25 28.25736 19.25736 27.25 20.5 27.25C 21.742641 27.25 22.75 28.25736 22.75 29.5L 22.75 40L 24.684999 38.380001C 25.355289 37.613815 26.514486 37.522446 27.296539 38.174156C 28.07859 38.825867 28.197752 39.982533 27.565001 40.779999L 23.844999 45.279999M 39.564999 34.435001L 37.314999 32.185001C 36.635689 31.476694 35.510803 31.45319 34.802498 32.1325C 34.094193 32.81181 34.07069 33.936695 34.75 34.644997C 38.064999 38.079998 37.224998 39.775002 40 42.564999L 43 45.25M 36.25 23.5L 42.685001 30.684999C 43.367378 31.364084 43.750702 32.2873 43.750004 33.25L 43.75 35.5C 43.782963 36.672318 44.331924 37.770245 45.250004 38.500004"></path></g></g></g><g id="g-root-1_vahdud1tsm684-stroke" data-item-order="1000000000" data-item-id="1_vahdud1tsm684" data-item-class="Icon Stroke Indexed InsideFill InsideColorFill" data-item-index="5" data-renderer-id="0" transform="translate(590, 416)"><g id="1_vahdud1tsm684-stroke" fill="none" stroke-linecap="round" stroke-linejoin="round" stroke-miterlimit="4" stroke="#dd8433" stroke-width="2"><g><path d="M 13.75 14.506L 42.25 14.506C 42.25 14.506 45.25 14.506 45.25 17.506001L 45.25 38.506001C 45.25 38.506001 45.25 41.506001 42.25 41.506001L 13.75 41.506001C 13.75 41.506001 10.75 41.506001 10.75 38.506001L 10.75 17.506001C 10.75 17.506001 10.75 14.506 13.75 14.506M 10.75 22.006001L 45.25 22.006001M 16 17.881001C 16.207108 17.881001 16.375 18.048893 16.375 18.256001C 16.375 18.463106 16.207108 18.631001 16 18.631001C 15.792893 18.631001 15.625 18.463106 15.625 18.256001C 15.625 18.048893 15.792893 17.881001 16 17.881001M 20.5 17.881001C 20.707108 17.881001 20.875 18.048893 20.875 18.256001C 20.875 18.463106 20.707108 18.631001 20.5 18.631001C 20.292892 18.631001 20.125 18.463106 20.125 18.256001C 20.125 18.048893 20.292892 17.881001 20.5 17.881001M 25 17.881001C 25.207108 17.881001 25.375 18.048893 25.375 18.256001C 25.375 18.463106 25.207108 18.631001 25 18.631001C 24.792892 18.631001 24.625 18.463106 24.625 18.256001C 24.625 18.048893 24.792892 17.881001 25 17.881001M 16 26.506001L 19 26.506001C 19 26.506001 19.75 26.506001 19.75 27.256001L 19.75 28.756001C 19.75 28.756001 19.75 29.506001 19 29.506001L 16 29.506001C 16 29.506001 15.25 29.506001 15.25 28.756001L 15.25 27.256001C 15.25 27.256001 15.25 26.506001 16 26.506001M 16 34.006001L 19 34.006001C 19 34.006001 19.75 34.006001 19.75 34.756001L 19.75 36.256001C 19.75 36.256001 19.75 37.006001 19 37.006001L 16 37.006001C 16 37.006001 15.25 37.006001 15.25 36.256001L 15.25 34.756001C 15.25 34.756001 15.25 34.006001 16 34.006001M 24.25 28.006001L 40.75 28.006001M 24.25 35.506001L 40.75 35.506001"></path></g></g></g><g id="g-root-tx_rutilisa_mdlc9h1tt4fes-stroke" data-item-order="1000000000" data-item-id="tx_rutilisa_mdlc9h1tt4fes" data-item-class="Label Stroke Indexed" data-item-index="5" data-renderer-id="0" transform="translate(650, 410)"></g><g id="g-root-1_vahdud1tsm683-stroke" data-item-order="1000000000" data-item-id="1_vahdud1tsm683" data-item-class="Icon Stroke Indexed InsideFill InsideColorFill" data-item-index="6" data-renderer-id="0" transform="translate(590, 500)"><g id="1_vahdud1tsm683-stroke" fill="none" stroke-linecap="round" stroke-linejoin="round" stroke-miterlimit="4" stroke="#e15e5a" stroke-width="2"><g><path d="M 28 11.285714C 18.768955 11.285715 11.285715 18.768955 11.285715 28.000002C 11.285715 37.231045 18.768955 44.714287 28.000002 44.714287M 34.711426 12.7C 35.901794 13.211569 37.024551 13.867949 38.054283 14.654285C 39.085705 15.399127 40.026394 16.262142 40.857143 17.225714M 34.711426 43.42857C 35.901794 42.917 37.024551 42.26062 38.054283 41.474285C 39.085705 40.729443 40.026394 39.866428 40.857143 38.902855M 44.277142 24.142857C 44.860233 26.681231 44.860233 29.318769 44.277142 31.85714"></path></g></g></g><g id="g-root-tx_dvoilerl_4mxsut1tt4em9-stroke" data-item-order="1000000000" data-item-id="tx_dvoilerl_4mxsut1tt4em9" data-item-class="Label Stroke Title" data-item-index="none" data-renderer-id="0" transform="translate(152, 2)"></g><g id="g-root-tx_isolatio_qteudx1tt4emj-stroke" data-item-order="1000000000" data-item-id="tx_isolatio_qteudx1tt4emj" data-item-class="Label Stroke Indexed" data-item-index="6" data-renderer-id="0" transform="translate(650, 494)"></g></g></g></svg>