<?xml version="1.0" encoding="utf-8" standalone="yes"?>
<!DOCTYPE svg PUBLIC "-//W3C//DTD SVG 1.1//EN" "http://www.w3.org/Graphics/SVG/1.1/DTD/svg11.dtd">
<svg width="948" height="223" viewBox="0 0 948 223" style="fill:none;stroke:none;fill-rule:evenodd;clip-rule:evenodd;stroke-linecap:round;stroke-linejoin:round;stroke-miterlimit:1.5;" version="1.1" xmlns="http://www.w3.org/2000/svg" xmlns:xlink="http://www.w3.org/1999/xlink"><style id="fontImports">@import url("https://fonts.googleapis.com/css2?family=Roboto:wght@400;700&amp;display=block");</style><rect id="" x="0" y="0" width="948" height="223" style="fill: #ffffff;"></rect><g id="items" style="isolation: isolate"><g id="blend" style="mix-blend-mode:normal"><g id="g-root-ro_v5h2851rb3uvi-fill" data-item-order="999973000" data-item-id="ro_v5h2851rb3uvi" data-item-class="Shape Stroke Fill" data-item-index="none" data-renderer-id="0" transform="translate(350, 27)"><g id="ro_v5h2851rb3uvi-fill" stroke="none" fill="#f0f0f0"><g><path d="M 34 10L 166 10C 166 10 190 10 190 34L 190 136C 190 136 190 160 166 160L 34 160C 34 160 10 160 10 136L 10 34C 10 34 10 10 34 10"></path></g></g></g><g id="g-root-ro_9luh11ravfnt-fill" data-item-order="999989632" data-item-id="ro_9luh11ravfnt" data-item-class="Shape Stroke Fill" data-item-index="none" data-renderer-id="0" transform="translate(110, 3)"><g id="ro_9luh11ravfnt-fill" stroke="none" fill="#e6efff"><g><path d="M 22 10L 190 10C 190 10 202 10 202 22L 202 52C 202 52 202 64 190 64L 22 64C 22 64 10 64 10 52L 10 22C 10 22 10 10 22 10"></path></g></g></g><g id="g-root-ro_1uo16dh1ravh1o-fill" data-item-order="999990928" data-item-id="ro_1uo16dh1ravh1o" data-item-class="Shape Stroke Fill" data-item-index="none" data-renderer-id="0" transform="translate(578, 15)"><g id="ro_1uo16dh1ravh1o-fill" stroke="none" fill="#e9fbf3"><g><path d="M 22 10L 166 10C 166 10 178 10 178 22L 178 52C 178 52 178 64 166 64L 22 64C 22 64 10 64 10 52L 10 22C 10 22 10 10 22 10"></path></g></g></g><g id="g-root-sett_958upx1ravev4-fill" data-item-order="1000000000" data-item-id="sett_958upx1ravev4" data-item-class="Icon Stroke" data-item-index="none" data-renderer-id="0" transform="translate(260, 15)"></g><g id="g-root-cu_1uuwebp1ravg8y-fill" data-item-order="1000000000" data-item-id="cu_1uuwebp1ravg8y" data-item-class="Curve Stroke ColorStrokeGray" data-item-index="none" data-renderer-id="0" transform="translate(302, 30)"></g><g id="g-root-bull_1uo16dh1ravh1n-fill" data-item-order="1000000000" data-item-id="bull_1uo16dh1ravh1n" data-item-class="Icon Stroke" data-item-index="none" data-renderer-id="0" transform="translate(590, 27)"></g><g id="g-root-tx_constant_4ik4n91ravgg2-fill" data-item-order="1000000000" data-item-id="tx_constant_4ik4n91ravgg2" data-item-class="Label Stroke" data-item-index="none" data-renderer-id="0" transform="translate(626, 30)"><g id="tx_constant_4ik4n91ravgg2-fill" stroke="none" fill="#3bc482"><g><text style="font: 20px Roboto, sans-serif; white-space: pre;" font-weight="20px" font-size="Roboto," font-family="sans-serif"><tspan x="13.17" y="33.75" dominant-baseline="ideographic">Constantes</tspan></text></g></g></g><g id="g-root-1_v5h2851rb3uvh-fill" data-item-order="1000000000" data-item-id="1_v5h2851rb3uvh" data-item-class="Icon Stroke" data-item-index="none" data-renderer-id="0" transform="translate(416, 51)"></g><g id="g-root-cu_1uuwebp1ravg91-fill" data-item-order="1000000000" data-item-id="cu_1uuwebp1ravg91" data-item-class="Curve Stroke ColorStrokeGray" data-item-index="none" data-renderer-id="0" transform="translate(530, 42)"></g><g id="g-root-tx_configur_1q8u5c51raveo5-fill" data-item-order="1000000000" data-item-id="tx_configur_1q8u5c51raveo5" data-item-class="Label Stroke" data-item-index="none" data-renderer-id="0" transform="translate(38, 69)"><g id="tx_configur_1q8u5c51raveo5-fill" stroke="none" fill="#484848"><g><text style="font: 20px Roboto, sans-serif; white-space: pre;" font-weight="20px" font-size="Roboto," font-family="sans-serif"><tspan x="15.35" y="33.75" dominant-baseline="ideographic">Configuration Partagée</tspan></text></g></g></g><g id="g-root-cu_1qf2w791ravh1c-fill" data-item-order="1000000000" data-item-id="cu_1qf2w791ravh1c" data-item-class="Curve Stroke ColorStrokeGray" data-item-index="none" data-renderer-id="0" transform="translate(260, 57)"></g><g id="g-root-cu_1ha2rnp1rawt8r-fill" data-item-order="1000000000" data-item-id="cu_1ha2rnp1rawt8r" data-item-class="Curve Stroke ColorStrokeGray" data-item-index="none" data-renderer-id="0" transform="translate(260, 57)"></g><g id="g-root-cu_1ha2rnp1rawt8t-fill" data-item-order="1000000000" data-item-id="cu_1ha2rnp1rawt8t" data-item-class="Curve Stroke ColorStrokeGray" data-item-index="none" data-renderer-id="0" transform="translate(260, 57)"></g><g id="g-root-cu_1ha2rnp1rawt8v-fill" data-item-order="1000000000" data-item-id="cu_1ha2rnp1rawt8v" data-item-class="Curve Stroke ColorStrokeGray" data-item-index="none" data-renderer-id="0" transform="translate(260, 57)"></g><g id="g-root-cu_1cu99j91rawu15-fill" data-item-order="1000000000" data-item-id="cu_1cu99j91rawu15" data-item-class="Curve Stroke ColorStrokeGray" data-item-index="none" data-renderer-id="0" transform="translate(602, 69)"></g><g id="g-root-cu_1cu99j91rawu18-fill" data-item-order="1000000000" data-item-id="cu_1cu99j91rawu18" data-item-class="Curve Stroke ColorStrokeGray" data-item-index="none" data-renderer-id="0" transform="translate(602, 69)"></g><g id="g-root-cu_1cu99j91rawu1a-fill" data-item-order="1000000000" data-item-id="cu_1cu99j91rawu1a" data-item-class="Curve Stroke ColorStrokeGray" data-item-index="none" data-renderer-id="0" transform="translate(602, 69)"></g><g id="g-root-tx_valeursc_18hk4ud1ravh1d-fill" data-item-order="1000000000" data-item-id="tx_valeursc_18hk4ud1ravh1d" data-item-class="Label Stroke" data-item-index="none" data-renderer-id="0" transform="translate(626, 81)"><g id="tx_valeursc_18hk4ud1ravh1d-fill" stroke="none" fill="#484848"><g><text style="font: 20px Roboto, sans-serif; white-space: pre;" font-weight="20px" font-size="Roboto," font-family="sans-serif"><tspan x="13.34" y="33.75" dominant-baseline="ideographic">Valeurs Constantes</tspan></text></g></g></g><g id="g-root-tx_paramtre_1hd75391ravfgu-fill" data-item-order="1000000000" data-item-id="tx_paramtre_1hd75391ravfgu" data-item-class="Label Stroke" data-item-index="none" data-renderer-id="0" transform="translate(62, 105)"><g id="tx_paramtre_1hd75391ravfgu-fill" stroke="none" fill="#484848"><g><text style="font: 20px Roboto, sans-serif; white-space: pre;" font-weight="20px" font-size="Roboto," font-family="sans-serif"><tspan x="15.67" y="33.75" dominant-baseline="ideographic">Paramètres Globaux</tspan></text></g></g></g><g id="g-root-tx_configur_18gb3id1rb3wgc-fill" data-item-order="1000000000" data-item-id="tx_configur_18gb3id1rb3wgc" data-item-class="Label Stroke" data-item-index="none" data-renderer-id="0" transform="translate(374, 105)"><g id="tx_configur_18gb3id1rb3wgc-fill" stroke="none" fill="#484848"><g><text style="font: 20px Roboto, sans-serif; white-space: pre;" font-weight="20px" font-size="Roboto," font-family="sans-serif"><tspan x="15.75" y="33.75" dominant-baseline="ideographic">Configuration </tspan><tspan x="13.81" y="57.75" dominant-baseline="ideographic">et Constantes</tspan></text></g></g></g><g id="g-root-tx_messages_18hk4ud1ravh1e-fill" data-item-order="1000000000" data-item-id="tx_messages_18hk4ud1ravh1e" data-item-class="Label Stroke" data-item-index="none" data-renderer-id="0" transform="translate(626, 117)"><g id="tx_messages_18hk4ud1ravh1e-fill" stroke="none" fill="#484848"><g><text style="font: 20px Roboto, sans-serif; white-space: pre;" font-weight="20px" font-size="Roboto," font-family="sans-serif"><tspan x="17.06" y="33.75" dominant-baseline="ideographic">Messages d'Erreur Standardisés</tspan></text></g></g></g><g id="g-root-tx_settings_1hd75391ravfgv-fill" data-item-order="1000000000" data-item-id="tx_settings_1hd75391ravfgv" data-item-class="Label Stroke" data-item-index="none" data-renderer-id="0" transform="translate(50, 141)"><g id="tx_settings_1hd75391ravfgv-fill" stroke="none" fill="#484848"><g><text style="font: 20px Roboto, sans-serif; white-space: pre;" font-weight="20px" font-size="Roboto," font-family="sans-serif"><tspan x="16.44" y="33.75" dominant-baseline="ideographic">Settings Réutilisables</tspan></text></g></g></g><g id="g-root-tx_configur_1cxdmyt1ravg94-fill" data-item-order="1000000000" data-item-id="tx_configur_1cxdmyt1ravg94" data-item-class="Label Stroke" data-item-index="none" data-renderer-id="0" transform="translate(2, 177)"><g id="tx_configur_1cxdmyt1ravg94-fill" stroke="none" fill="#484848"><g><text style="font: 20px Roboto, sans-serif; white-space: pre;" font-weight="20px" font-size="Roboto," font-family="sans-serif"><tspan x="17.36" y="33.75" dominant-baseline="ideographic">Configuration des Services</tspan></text></g></g></g><g id="g-root-tx_configur_dkfvr91ravh8n-fill" data-item-order="1000000000" data-item-id="tx_configur_dkfvr91ravh8n" data-item-class="Label Stroke" data-item-index="none" data-renderer-id="0" transform="translate(122, 18)"><g id="tx_configur_dkfvr91ravh8n-fill" stroke="none" fill="#4682e3"><g><text style="font: 20px Roboto, sans-serif; white-space: pre;" font-weight="20px" font-size="Roboto," font-family="sans-serif"><tspan x="16.07" y="33.75" dominant-baseline="ideographic">Configuration</tspan></text></g></g></g><g id="g-root-tx_configur_zmjlol1raveob-fill" data-item-order="1000000000" data-item-id="tx_configur_zmjlol1raveob" data-item-class="Label Stroke" data-item-index="none" data-renderer-id="0" transform="translate(626, 153)"><g id="tx_configur_zmjlol1raveob-fill" stroke="none" fill="#484848"><g><text style="font: 20px Roboto, sans-serif; white-space: pre;" font-weight="20px" font-size="Roboto," font-family="sans-serif"><tspan x="14.45" y="33.75" dominant-baseline="ideographic">Configurations Statiques</tspan></text></g></g></g><g id="g-root-ro_v5h2851rb3uvi-stroke" data-item-order="999973000" data-item-id="ro_v5h2851rb3uvi" data-item-class="Shape Stroke Fill" data-item-index="none" data-renderer-id="0" transform="translate(350, 27)"><g id="ro_v5h2851rb3uvi-stroke" fill="none" stroke-linecap="round" stroke-linejoin="round" stroke-miterlimit="4" stroke="#484848" stroke-width="2"><g><path d="M 34 10L 166 10C 166 10 190 10 190 34L 190 136C 190 136 190 160 166 160L 34 160C 34 160 10 160 10 136L 10 34C 10 34 10 10 34 10"></path></g></g></g><g id="g-root-ro_9luh11ravfnt-stroke" data-item-order="999989632" data-item-id="ro_9luh11ravfnt" data-item-class="Shape Stroke Fill" data-item-index="none" data-renderer-id="0" transform="translate(110, 3)"><g id="ro_9luh11ravfnt-stroke" fill="none" stroke-linecap="round" stroke-linejoin="round" stroke-miterlimit="4" stroke="#4682e3" stroke-width="2"><g><path d="M 22 10L 190 10C 190 10 202 10 202 22L 202 52C 202 52 202 64 190 64L 22 64C 22 64 10 64 10 52L 10 22C 10 22 10 10 22 10"></path></g></g></g><g id="g-root-ro_1uo16dh1ravh1o-stroke" data-item-order="999990928" data-item-id="ro_1uo16dh1ravh1o" data-item-class="Shape Stroke Fill" data-item-index="none" data-renderer-id="0" transform="translate(578, 15)"><g id="ro_1uo16dh1ravh1o-stroke" fill="none" stroke-linecap="round" stroke-linejoin="round" stroke-miterlimit="4" stroke="#3bc482" stroke-width="2"><g><path d="M 22 10L 166 10C 166 10 178 10 178 22L 178 52C 178 52 178 64 166 64L 22 64C 22 64 10 64 10 52L 10 22C 10 22 10 10 22 10"></path></g></g></g><g id="g-root-sett_958upx1ravev4-stroke" data-item-order="1000000000" data-item-id="sett_958upx1ravev4" data-item-class="Icon Stroke" data-item-index="none" data-renderer-id="0" transform="translate(260, 15)"><g id="sett_958upx1ravev4-stroke" fill="none" stroke-linecap="round" stroke-linejoin="round" stroke-miterlimit="4" stroke="#4682e3" stroke-width="2"><g><path d="M 30.391251 31.28875C 30.391253 32.280792 31.195459 33.084999 32.1875 33.084999C 33.179543 33.084999 33.983749 32.280792 33.983749 31.28875C 33.983749 30.296709 33.179543 29.4925 32.1875 29.4925C 31.195459 29.4925 30.391253 30.296709 30.391253 31.28875ZM 33.713753 24.3375L 34.243752 26.077501C 34.424015 26.677155 35.038532 27.034166 35.64875 26.893751L 37.41375 26.485001C 38.099922 26.330338 38.806793 26.640841 39.157101 27.25079C 39.507404 27.860739 39.419376 28.627768 38.940002 29.1425L 37.704998 30.473749C 37.282448 30.933008 37.282448 31.63949 37.704998 32.098747L 38.940002 33.43C 39.419376 33.944733 39.507404 34.711761 39.157101 35.321709C 38.806793 35.93166 38.099922 36.242165 37.41375 36.087502L 35.64875 35.677498C 35.038982 35.542645 34.428581 35.901577 34.25 36.5L 33.720001 38.239998C 33.517448 38.913654 32.897194 39.37484 32.193748 39.37484C 31.490305 39.37484 30.870054 38.913654 30.6675 38.239998L 30.131248 36.5C 29.949949 35.901165 29.336269 35.54464 28.72625 35.68375L 26.96125 36.09375C 26.27508 36.248413 25.568207 35.937912 25.217901 35.327957C 24.867596 34.71801 24.955624 33.950981 25.435001 33.436249L 26.67 32.105C 27.092548 31.645739 27.092548 30.939259 26.67 30.48L 25.434999 29.14875C 24.955624 28.634018 24.867596 27.866989 25.217901 27.25704C 25.568207 26.647091 26.27508 26.336588 26.96125 26.491249L 28.72625 26.900002C 29.336468 27.040417 29.950985 26.683405 30.131248 26.083752L 30.661249 24.34375C 30.862419 23.669678 31.481728 23.207218 32.185177 23.205778C 32.888626 23.204338 33.509823 23.664257 33.713753 24.3375ZM 23.125 39.375L 11.875 39.375C 11.184644 39.375 10.625 38.815353 10.625 38.125L 10.625 11.875C 10.625 11.184644 11.184644 10.625 11.875 10.625L 28.491251 10.625C 28.822744 10.625071 29.140635 10.756813 29.375 10.99125L 34.008751 15.625C 34.243187 15.859366 34.374928 16.177258 34.375 16.508749L 34.375 20.625"></path></g></g></g><g id="g-root-cu_1uuwebp1ravg8y-stroke" data-item-order="1000000000" data-item-id="cu_1uuwebp1ravg8y" data-item-class="Curve Stroke ColorStrokeGray" data-item-index="none" data-renderer-id="0" transform="translate(302, 30)"><g id="cu_1uuwebp1ravg8y-stroke" fill="none" stroke-linecap="round" stroke-linejoin="round" stroke-miterlimit="4" stroke="#888888" stroke-width="2" stroke-dasharray="5.0, 7.0"><g><path d="M 58 57L 55 57L 54.9 57C 43.357246 56.999996 33.999999 47.642748 33.999998 36.099998L 34 36L 34 30.9C 33.999998 19.357248 24.64275 10 13.1 10L 13 10L 10 10"></path></g></g></g><g id="g-root-bull_1uo16dh1ravh1n-stroke" data-item-order="1000000000" data-item-id="bull_1uo16dh1ravh1n" data-item-class="Icon Stroke" data-item-index="none" data-renderer-id="0" transform="translate(590, 27)"><g id="bull_1uo16dh1ravh1n-stroke" fill="none" stroke-linecap="round" stroke-linejoin="round" stroke-miterlimit="4" stroke="#3bc482" stroke-width="2"><g><path d="M 10.625 15.6225C 10.625 17.003212 11.744288 18.122499 13.125 18.122499C 14.505712 18.122499 15.625 17.003212 15.625 15.6225C 15.625 14.241788 14.505712 13.122499 13.125 13.122499C 11.744288 13.122499 10.625 14.241788 10.625 15.6225ZM 20.625 15.6225L 39.375 15.6225M 10.625 25.622499C 10.625 27.003212 11.744288 28.122499 13.125 28.122499C 14.505712 28.122499 15.625 27.003212 15.625 25.622499C 15.625 24.241789 14.505712 23.122499 13.125 23.122499C 11.744288 23.122499 10.625 24.241789 10.625 25.622499ZM 20.625 25.622499L 39.375 25.622499M 10.625 35.622498C 10.625 37.003212 11.744288 38.122498 13.125 38.122498C 14.505712 38.122498 15.625 37.003212 15.625 35.622498C 15.625 34.241787 14.505712 33.122498 13.125 33.122498C 11.744288 33.122498 10.625 34.241787 10.625 35.622498ZM 20.625 35.622498L 39.375 35.622498"></path></g></g></g><g id="g-root-tx_constant_4ik4n91ravgg2-stroke" data-item-order="1000000000" data-item-id="tx_constant_4ik4n91ravgg2" data-item-class="Label Stroke" data-item-index="none" data-renderer-id="0" transform="translate(626, 30)"></g><g id="g-root-1_v5h2851rb3uvh-stroke" data-item-order="1000000000" data-item-id="1_v5h2851rb3uvh" data-item-class="Icon Stroke" data-item-index="none" data-renderer-id="0" transform="translate(416, 51)"><g id="1_v5h2851rb3uvh-stroke" fill="none" stroke-linecap="round" stroke-linejoin="round" stroke-miterlimit="4" stroke="#484848" stroke-width="2"><g><path d="M 30.5 35.75C 30.5 37.130714 31.619289 38.25 33 38.25C 34.380714 38.25 35.5 37.130714 35.5 35.75C 35.5 34.369289 34.380714 33.25 33 33.25C 31.619289 33.25 30.5 34.369289 30.5 35.75ZM 35.124001 26.077999L 35.860001 28.5C 36.111549 29.334187 36.967091 29.830189 37.816002 29.634001L 40.27 29.066C 41.225796 28.847431 42.212315 29.278202 42.701679 30.127813C 43.191044 30.977423 43.068657 32.046913 42.400002 32.764L 40.683998 34.613998C 40.090427 35.255028 40.090427 36.244972 40.683998 36.886002L 42.400002 38.736C 43.06662 39.452423 43.188824 40.519527 42.701431 41.368107C 42.214035 42.216686 41.230724 42.648819 40.276001 42.434002L 37.821999 41.865997C 36.973091 41.669815 36.11755 42.165817 35.866001 43.000004L 35.129997 45.422001C 34.848042 46.359409 33.984894 47.001133 33.005997 47.001133C 32.0271 47.001133 31.163958 46.359409 30.882 45.421997L 30.139999 43C 29.888453 42.165817 29.032913 41.669815 28.184002 41.866005L 25.73 42.433998C 24.774208 42.652573 23.787687 42.221802 23.298323 41.372192C 22.808958 40.522583 22.931347 39.453094 23.600002 38.736L 25.316 36.886002C 25.909573 36.244972 25.909573 35.255028 25.316 34.613998L 23.6 32.764C 22.931347 32.046913 22.808958 30.977423 23.298323 30.127813C 23.787687 29.278202 24.774208 28.847431 25.730001 29.066002L 28.184 29.634001C 29.032913 29.830189 29.888453 29.334187 30.140001 28.500002L 30.875999 26.077999C 31.157957 25.140589 32.021103 24.498863 33 24.498863C 33.978897 24.498863 34.842041 25.140589 35.124001 26.077999ZM 52.414001 19C 52.789101 19.374985 52.999886 19.88361 53 20.414L 53 55C 53 56.104568 52.104568 57 51 57L 17 57C 15.895431 57 15 56.104568 15 55L 15 13C 15 11.895431 15.895431 11 17 11L 43.585999 11C 44.11639 11.000113 44.625015 11.210901 45 11.586Z"></path></g></g></g><g id="g-root-cu_1uuwebp1ravg91-stroke" data-item-order="1000000000" data-item-id="cu_1uuwebp1ravg91" data-item-class="Curve Stroke ColorStrokeGray" data-item-index="none" data-renderer-id="0" transform="translate(530, 42)"><g id="cu_1uuwebp1ravg91-stroke" fill="none" stroke-linecap="round" stroke-linejoin="round" stroke-miterlimit="4" stroke="#888888" stroke-width="2" stroke-dasharray="5.0, 7.0"><g><path d="M 10 45L 13 45L 13.1 45C 17.577866 44.972592 22.360217 43.214375 26.699999 40C 29.320119 38.118536 31.98143 33.561497 33.999999 27.499999C 36.018569 21.438502 38.67988 16.881462 41.299999 15C 45.63978 11.785625 50.422131 10.027407 54.899998 9.999999L 55 10L 58 10"></path></g></g></g><g id="g-root-tx_configur_1q8u5c51raveo5-stroke" data-item-order="1000000000" data-item-id="tx_configur_1q8u5c51raveo5" data-item-class="Label Stroke" data-item-index="none" data-renderer-id="0" transform="translate(38, 69)"></g><g id="g-root-cu_1qf2w791ravh1c-stroke" data-item-order="1000000000" data-item-id="cu_1qf2w791ravh1c" data-item-class="Curve Stroke ColorStrokeGray" data-item-index="none" data-renderer-id="0" transform="translate(260, 57)"><g id="cu_1qf2w791ravh1c-stroke" fill="none" stroke-linecap="round" stroke-linejoin="round" stroke-miterlimit="4" stroke="#888888" stroke-width="2" stroke-dasharray="5.0, 7.0"><g><path d="M 28 10L 28 22L 28 34L 19 34L 10 34"></path></g></g></g><g id="g-root-cu_1ha2rnp1rawt8r-stroke" data-item-order="1000000000" data-item-id="cu_1ha2rnp1rawt8r" data-item-class="Curve Stroke ColorStrokeGray" data-item-index="none" data-renderer-id="0" transform="translate(260, 57)"><g id="cu_1ha2rnp1rawt8r-stroke" fill="none" stroke-linecap="round" stroke-linejoin="round" stroke-miterlimit="4" stroke="#888888" stroke-width="2" stroke-dasharray="5.0, 7.0"><g><path d="M 28 10L 28 40L 28 70L 19 70L 10 70"></path></g></g></g><g id="g-root-cu_1ha2rnp1rawt8t-stroke" data-item-order="1000000000" data-item-id="cu_1ha2rnp1rawt8t" data-item-class="Curve Stroke ColorStrokeGray" data-item-index="none" data-renderer-id="0" transform="translate(260, 57)"><g id="cu_1ha2rnp1rawt8t-stroke" fill="none" stroke-linecap="round" stroke-linejoin="round" stroke-miterlimit="4" stroke="#888888" stroke-width="2" stroke-dasharray="5.0, 7.0"><g><path d="M 28 10L 28 58L 28 106L 19 106L 10 106"></path></g></g></g><g id="g-root-cu_1ha2rnp1rawt8v-stroke" data-item-order="1000000000" data-item-id="cu_1ha2rnp1rawt8v" data-item-class="Curve Stroke ColorStrokeGray" data-item-index="none" data-renderer-id="0" transform="translate(260, 57)"><g id="cu_1ha2rnp1rawt8v-stroke" fill="none" stroke-linecap="round" stroke-linejoin="round" stroke-miterlimit="4" stroke="#888888" stroke-width="2" stroke-dasharray="5.0, 7.0"><g><path d="M 28 10L 28 26.5L 28 130C 28.000005 136.627421 22.627422 142.000005 16.000005 142.000005L 15.9 142L 10 142"></path></g></g></g><g id="g-root-cu_1cu99j91rawu15-stroke" data-item-order="1000000000" data-item-id="cu_1cu99j91rawu15" data-item-class="Curve Stroke ColorStrokeGray" data-item-index="none" data-renderer-id="0" transform="translate(602, 69)"><g id="cu_1cu99j91rawu15-stroke" fill="none" stroke-linecap="round" stroke-linejoin="round" stroke-miterlimit="4" stroke="#888888" stroke-width="2" stroke-dasharray="5.0, 7.0"><g><path d="M 10 10L 10 22L 10 34L 19 34L 28 34"></path></g></g></g><g id="g-root-cu_1cu99j91rawu18-stroke" data-item-order="1000000000" data-item-id="cu_1cu99j91rawu18" data-item-class="Curve Stroke ColorStrokeGray" data-item-index="none" data-renderer-id="0" transform="translate(602, 69)"><g id="cu_1cu99j91rawu18-stroke" fill="none" stroke-linecap="round" stroke-linejoin="round" stroke-miterlimit="4" stroke="#888888" stroke-width="2" stroke-dasharray="5.0, 7.0"><g><path d="M 10 10L 10 40L 10 70L 19 70L 28 70"></path></g></g></g><g id="g-root-cu_1cu99j91rawu1a-stroke" data-item-order="1000000000" data-item-id="cu_1cu99j91rawu1a" data-item-class="Curve Stroke ColorStrokeGray" data-item-index="none" data-renderer-id="0" transform="translate(602, 69)"><g id="cu_1cu99j91rawu1a-stroke" fill="none" stroke-linecap="round" stroke-linejoin="round" stroke-miterlimit="4" stroke="#888888" stroke-width="2" stroke-dasharray="5.0, 7.0"><g><path d="M 10 10L 10 22L 10 94C 10.000004 100.627423 15.372587 106.000006 22.000005 106.000005L 22.1 106L 28 106"></path></g></g></g><g id="g-root-tx_valeursc_18hk4ud1ravh1d-stroke" data-item-order="1000000000" data-item-id="tx_valeursc_18hk4ud1ravh1d" data-item-class="Label Stroke" data-item-index="none" data-renderer-id="0" transform="translate(626, 81)"></g><g id="g-root-tx_paramtre_1hd75391ravfgu-stroke" data-item-order="1000000000" data-item-id="tx_paramtre_1hd75391ravfgu" data-item-class="Label Stroke" data-item-index="none" data-renderer-id="0" transform="translate(62, 105)"></g><g id="g-root-tx_configur_18gb3id1rb3wgc-stroke" data-item-order="1000000000" data-item-id="tx_configur_18gb3id1rb3wgc" data-item-class="Label Stroke" data-item-index="none" data-renderer-id="0" transform="translate(374, 105)"></g><g id="g-root-tx_messages_18hk4ud1ravh1e-stroke" data-item-order="1000000000" data-item-id="tx_messages_18hk4ud1ravh1e" data-item-class="Label Stroke" data-item-index="none" data-renderer-id="0" transform="translate(626, 117)"></g><g id="g-root-tx_settings_1hd75391ravfgv-stroke" data-item-order="1000000000" data-item-id="tx_settings_1hd75391ravfgv" data-item-class="Label Stroke" data-item-index="none" data-renderer-id="0" transform="translate(50, 141)"></g><g id="g-root-tx_configur_1cxdmyt1ravg94-stroke" data-item-order="1000000000" data-item-id="tx_configur_1cxdmyt1ravg94" data-item-class="Label Stroke" data-item-index="none" data-renderer-id="0" transform="translate(2, 177)"></g><g id="g-root-tx_configur_dkfvr91ravh8n-stroke" data-item-order="1000000000" data-item-id="tx_configur_dkfvr91ravh8n" data-item-class="Label Stroke" data-item-index="none" data-renderer-id="0" transform="translate(122, 18)"></g><g id="g-root-tx_configur_zmjlol1raveob-stroke" data-item-order="1000000000" data-item-id="tx_configur_zmjlol1raveob" data-item-class="Label Stroke" data-item-index="none" data-renderer-id="0" transform="translate(626, 153)"></g></g></g></svg>