<?xml version="1.0" encoding="utf-8" standalone="yes"?>
<!DOCTYPE svg PUBLIC "-//W3C//DTD SVG 1.1//EN" "http://www.w3.org/Graphics/SVG/1.1/DTD/svg11.dtd">
<svg width="985" height="325" viewBox="0 0 985 325" style="fill:none;stroke:none;fill-rule:evenodd;clip-rule:evenodd;stroke-linecap:round;stroke-linejoin:round;stroke-miterlimit:1.5;" version="1.1" xmlns="http://www.w3.org/2000/svg" xmlns:xlink="http://www.w3.org/1999/xlink"><style id="fontImports">@import url("https://fonts.googleapis.com/css2?family=Roboto:wght@400;700&amp;display=block");</style><rect id="" x="0" y="0" width="985" height="325" style="fill: #ffffff;"></rect><g id="items" style="isolation: isolate"><g id="blend" style="mix-blend-mode:normal"><g id="g-root-ro_1qduqf91uco6ix-fill" data-item-order="999974800" data-item-id="ro_1qduqf91uco6ix" data-item-class="Shape Stroke Fill" data-item-index="none" data-renderer-id="0" transform="translate(410, 78)"><g id="ro_1qduqf91uco6ix-fill" stroke="none" fill="#f0f0f0"><g><path d="M 34 10L 154 10C 154 10 178 10 178 34L 178 136C 178 136 178 160 154 160L 34 160C 34 160 10 160 10 136L 10 34C 10 34 10 10 34 10"></path></g></g></g><g id="g-root-ro_74qit1ucxyq7-fill" data-item-order="999981856" data-item-id="ro_74qit1ucxyq7" data-item-class="Shape Stroke Fill" data-item-index="none" data-renderer-id="0" transform="translate(26, 3)"><g id="ro_74qit1ucxyq7-fill" stroke="none" fill="#e6efff"><g><path d="M 22 10L 334 10C 334 10 346 10 346 22L 346 52C 346 52 346 64 334 64L 22 64C 22 64 10 64 10 52L 10 22C 10 22 10 10 22 10"></path></g></g></g><g id="g-root-ro_hrjj2d1ucv763-fill" data-item-order="999981856" data-item-id="ro_hrjj2d1ucv763" data-item-class="Shape Stroke Fill" data-item-index="none" data-renderer-id="0" transform="translate(626, 165)"><g id="ro_hrjj2d1ucv763-fill" stroke="none" fill="#fef2e6"><g><path d="M 22 10L 334 10C 334 10 346 10 346 22L 346 52C 346 52 346 64 334 64L 22 64C 22 64 10 64 10 52L 10 22C 10 22 10 10 22 10"></path></g></g></g><g id="g-root-ro_144vsjp1ucsetp-fill" data-item-order="999982504" data-item-id="ro_144vsjp1ucsetp" data-item-class="Shape Stroke Fill" data-item-index="none" data-renderer-id="0" transform="translate(626, 15)"><g id="ro_144vsjp1ucsetp-fill" stroke="none" fill="#e9fbf3"><g><path d="M 22 10L 322 10C 322 10 334 10 334 22L 334 52C 334 52 334 64 322 64L 22 64C 22 64 10 64 10 52L 10 22C 10 22 10 10 22 10"></path></g></g></g><g id="g-root-ro_zqb8lh1uczdhh-fill" data-item-order="999983152" data-item-id="ro_zqb8lh1uczdhh" data-item-class="Shape Stroke Fill" data-item-index="none" data-renderer-id="0" transform="translate(50, 177)"><g id="ro_zqb8lh1uczdhh-fill" stroke="none" fill="#f7e6fe"><g><path d="M 22 10L 310 10C 310 10 322 10 322 22L 322 52C 322 52 322 64 310 64L 22 64C 22 64 10 64 10 52L 10 22C 10 22 10 10 22 10"></path></g></g></g><g id="g-root-cu_vahqh11ucze9t-fill" data-item-order="1000000000" data-item-id="cu_vahqh11ucze9t" data-item-class="Curve Stroke ColorStrokeGray" data-item-index="none" data-renderer-id="0" transform="translate(578, 42)"></g><g id="g-root-tx_implment_1hgcax11ucsd8r-fill" data-item-order="1000000000" data-item-id="tx_implment_1hgcax11ucsd8r" data-item-class="Label Stroke" data-item-index="none" data-renderer-id="0" transform="translate(674, 30)"><g id="tx_implment_1hgcax11ucsd8r-fill" stroke="none" fill="#3bc482"><g><text style="font: 20px Roboto, sans-serif; white-space: pre;" font-weight="20px" font-size="Roboto," font-family="sans-serif"><tspan x="16.63" y="33.75" dominant-baseline="ideographic">Implémente le pattern CQRS</tspan></text></g></g></g><g id="g-root-tx_implment_90wbid1ucwlj6-fill" data-item-order="1000000000" data-item-id="tx_implment_90wbid1ucwlj6" data-item-class="Label Stroke" data-item-index="none" data-renderer-id="0" transform="translate(86, 69)"><g id="tx_implment_90wbid1ucwlj6-fill" stroke="none" fill="#484848"><g><text style="font: 20px Roboto, sans-serif; white-space: pre;" font-weight="20px" font-size="Roboto," font-family="sans-serif"><tspan x="14.63" y="33.75" dominant-baseline="ideographic">Implémentation des cas </tspan><tspan x="70.56" y="57.75" dominant-baseline="ideographic">d'utilisation</tspan></text></g></g></g><g id="g-root-cu_quo8cl1uczf2a-fill" data-item-order="1000000000" data-item-id="cu_quo8cl1uczf2a" data-item-class="Curve Stroke ColorStrokeGray" data-item-index="none" data-renderer-id="0" transform="translate(320, 57)"></g><g id="g-root-cu_hz183p1uczfv1-fill" data-item-order="1000000000" data-item-id="cu_hz183p1uczfv1" data-item-class="Curve Stroke ColorStrokeGray" data-item-index="none" data-renderer-id="0" transform="translate(320, 57)"></g><g id="g-root-ques_1d0issl1ucse10-fill" data-item-order="1000000000" data-item-id="ques_1d0issl1ucse10" data-item-class="Icon Stroke" data-item-index="none" data-renderer-id="0" transform="translate(638, 27)"></g><g id="g-root-cu_hz183p1uczfv3-fill" data-item-order="1000000000" data-item-id="cu_hz183p1uczfv3" data-item-class="Curve Stroke ColorStrokeGray" data-item-index="none" data-renderer-id="0" transform="translate(650, 69)"></g><g id="g-root-cu_dju72d1uczdhm-fill" data-item-order="1000000000" data-item-id="cu_dju72d1uczdhm" data-item-class="Curve Stroke ColorStrokeGray" data-item-index="none" data-renderer-id="0" transform="translate(650, 69)"></g><g id="g-root-tx_commande_1ur6c791ucwjr8-fill" data-item-order="1000000000" data-item-id="tx_commande_1ur6c791ucwjr8" data-item-class="Label Stroke" data-item-index="none" data-renderer-id="0" transform="translate(674, 81)"><g id="tx_commande_1ur6c791ucwjr8-fill" stroke="none" fill="#484848"><g><text style="font: 20px Roboto, sans-serif; white-space: pre;" font-weight="20px" font-size="Roboto," font-family="sans-serif"><tspan x="13.2" y="33.75" dominant-baseline="ideographic">Commandes</tspan></text></g></g></g><g id="g-root-serv_1qduqf91uco6iw-fill" data-item-order="1000000000" data-item-id="serv_1qduqf91uco6iw" data-item-class="Icon Stroke" data-item-index="none" data-renderer-id="0" transform="translate(470, 102)"></g><g id="g-root-tx_interact_59b9h1ucwmbv-fill" data-item-order="1000000000" data-item-id="tx_interact_59b9h1ucwmbv" data-item-class="Label Stroke" data-item-index="none" data-renderer-id="0" transform="translate(110, 129)"><g id="tx_interact_59b9h1ucwmbv-fill" stroke="none" fill="#484848"><g><text style="font: 20px Roboto, sans-serif; white-space: pre;" font-weight="20px" font-size="Roboto," font-family="sans-serif"><tspan x="12.67" y="33.75" dominant-baseline="ideographic">Interactions utilisateur</tspan></text></g></g></g><g id="g-root-tx_requtes_1ur6c791ucwjr9-fill" data-item-order="1000000000" data-item-id="tx_requtes_1ur6c791ucwjr9" data-item-class="Label Stroke" data-item-index="none" data-renderer-id="0" transform="translate(674, 117)"><g id="tx_requtes_1ur6c791ucwjr9-fill" stroke="none" fill="#484848"><g><text style="font: 20px Roboto, sans-serif; white-space: pre;" font-weight="20px" font-size="Roboto," font-family="sans-serif"><tspan x="16.33" y="33.75" dominant-baseline="ideographic">Requêtes</tspan></text></g></g></g><g id="g-root-tx_applicat_4o76th1uco553-fill" data-item-order="1000000000" data-item-id="tx_applicat_4o76th1uco553" data-item-class="Label Stroke" data-item-index="none" data-renderer-id="0" transform="translate(434, 156)"><g id="tx_applicat_4o76th1uco553-fill" stroke="none" fill="#484848"><g><text style="font: 20px Roboto, sans-serif; white-space: pre;" font-weight="20px" font-size="Roboto," font-family="sans-serif"><tspan x="17.33" y="33.75" dominant-baseline="ideographic">Application </tspan><tspan x="43.41" y="57.75" dominant-baseline="ideographic">Layer</tspan></text></g></g></g><g id="g-root-cu_quo8cl1uczea6-fill" data-item-order="1000000000" data-item-id="cu_quo8cl1uczea6" data-item-class="Curve Stroke ColorStrokeGray" data-item-index="none" data-renderer-id="0" transform="translate(362, 30)"></g><g id="g-root-coll_9259ol1ucy13a-fill" data-item-order="1000000000" data-item-id="coll_9259ol1ucy13a" data-item-class="Icon Stroke" data-item-index="none" data-renderer-id="0" transform="translate(320, 15)"></g><g id="g-root-cu_meuq851uczf2n-fill" data-item-order="1000000000" data-item-id="cu_meuq851uczf2n" data-item-class="Curve Stroke ColorStrokeGray" data-item-index="none" data-renderer-id="0" transform="translate(362, 178)"></g><g id="g-root-1_qn6jb91ucv6de-fill" data-item-order="1000000000" data-item-id="1_qn6jb91ucv6de" data-item-class="Icon Stroke" data-item-index="none" data-renderer-id="0" transform="translate(638, 177)"></g><g id="g-root-tx_coordonn_1d159vp1uczf2b-fill" data-item-order="1000000000" data-item-id="tx_coordonn_1d159vp1uczf2b" data-item-class="Label Stroke" data-item-index="none" data-renderer-id="0" transform="translate(62, 192)"><g id="tx_coordonn_1d159vp1uczf2b-fill" stroke="none" fill="#b65edf"><g><text style="font: 20px Roboto, sans-serif; white-space: pre;" font-weight="20px" font-size="Roboto," font-family="sans-serif"><tspan x="16.84" y="33.75" dominant-baseline="ideographic">Coordonne les interactions</tspan></text></g></g></g><g id="g-root-1_zqb8lh1uczdhg-fill" data-item-order="1000000000" data-item-id="1_zqb8lh1uczdhg" data-item-class="Icon Stroke" data-item-index="none" data-renderer-id="0" transform="translate(320, 189)"></g><g id="g-root-cu_meuq851uczf2k-fill" data-item-order="1000000000" data-item-id="cu_meuq851uczf2k" data-item-class="Curve Stroke ColorStrokeGray" data-item-index="none" data-renderer-id="0" transform="translate(578, 178)"></g><g id="g-root-tx_grelaval_14805z91ucttdt-fill" data-item-order="1000000000" data-item-id="tx_grelaval_14805z91ucttdt" data-item-class="Label Stroke" data-item-index="none" data-renderer-id="0" transform="translate(674, 180)"><g id="tx_grelaval_14805z91ucttdt-fill" stroke="none" fill="#dd8433"><g><text style="font: 20px Roboto, sans-serif; white-space: pre;" font-weight="20px" font-size="Roboto," font-family="sans-serif"><tspan x="12.25" y="33.75" dominant-baseline="ideographic">Gère la validation des données</tspan></text></g></g></g><g id="g-root-cu_dju72d1uczdho-fill" data-item-order="1000000000" data-item-id="cu_dju72d1uczdho" data-item-class="Curve Stroke ColorStrokeGray" data-item-index="none" data-renderer-id="0" transform="translate(650, 219)"></g><g id="g-root-tx_transfor_1lvjbyd1ucwkjz-fill" data-item-order="1000000000" data-item-id="tx_transfor_1lvjbyd1ucwkjz" data-item-class="Label Stroke" data-item-index="none" data-renderer-id="0" transform="translate(674, 267)"><g id="tx_transfor_1lvjbyd1ucwkjz-fill" stroke="none" fill="#484848"><g><text style="font: 20px Roboto, sans-serif; white-space: pre;" font-weight="20px" font-size="Roboto," font-family="sans-serif"><tspan x="14.25" y="33.75" dominant-baseline="ideographic">Transformation des données</tspan></text></g></g></g><g id="g-root-tx_communic_1hfpttx1ucwlc8-fill" data-item-order="1000000000" data-item-id="tx_communic_1hfpttx1ucwlc8" data-item-class="Label Stroke" data-item-index="none" data-renderer-id="0" transform="translate(2, 243)"><g id="tx_communic_1hfpttx1ucwlc8-fill" stroke="none" fill="#484848"><g><text style="font: 20px Roboto, sans-serif; white-space: pre;" font-weight="20px" font-size="Roboto," font-family="sans-serif"><tspan x="14.58" y="33.75" dominant-baseline="ideographic">Communication entre les couches</tspan></text></g></g></g><g id="g-root-cu_940oxx1uczea1-fill" data-item-order="1000000000" data-item-id="cu_940oxx1uczea1" data-item-class="Curve Stroke ColorStrokeGray" data-item-index="none" data-renderer-id="0" transform="translate(320, 231)"></g><g id="g-root-cu_940oxx1uczea4-fill" data-item-order="1000000000" data-item-id="cu_940oxx1uczea4" data-item-class="Curve Stroke ColorStrokeGray" data-item-index="none" data-renderer-id="0" transform="translate(320, 231)"></g><g id="g-root-tx_rglesdev_1lvjbyd1ucwkjy-fill" data-item-order="1000000000" data-item-id="tx_rglesdev_1lvjbyd1ucwkjy" data-item-class="Label Stroke" data-item-index="none" data-renderer-id="0" transform="translate(674, 231)"><g id="tx_rglesdev_1lvjbyd1ucwkjy-fill" stroke="none" fill="#484848"><g><text style="font: 20px Roboto, sans-serif; white-space: pre;" font-weight="20px" font-size="Roboto," font-family="sans-serif"><tspan x="17.1" y="33.75" dominant-baseline="ideographic">Règles de validation</tspan></text></g></g></g><g id="g-root-tx_gestiond_1hfpttx1ucwlc9-fill" data-item-order="1000000000" data-item-id="tx_gestiond_1hfpttx1ucwlc9" data-item-class="Label Stroke" data-item-index="none" data-renderer-id="0" transform="translate(74, 279)"><g id="tx_gestiond_1hfpttx1ucwlc9-fill" stroke="none" fill="#484848"><g><text style="font: 20px Roboto, sans-serif; white-space: pre;" font-weight="20px" font-size="Roboto," font-family="sans-serif"><tspan x="15.13" y="33.75" dominant-baseline="ideographic">Gestion des dépendances</tspan></text></g></g></g><g id="g-root-tx_orchestr_dhyrt11ucy0b1-fill" data-item-order="1000000000" data-item-id="tx_orchestr_dhyrt11ucy0b1" data-item-class="Label Stroke" data-item-index="none" data-renderer-id="0" transform="translate(38, 18)"><g id="tx_orchestr_dhyrt11ucy0b1-fill" stroke="none" fill="#4682e3"><g><text style="font: 20px Roboto, sans-serif; white-space: pre;" font-weight="20px" font-size="Roboto," font-family="sans-serif"><tspan x="17.69" y="33.75" dominant-baseline="ideographic">Orchestre les cas d'utilisation</tspan></text></g></g></g><g id="g-root-cu_dju72d1uczdhr-fill" data-item-order="1000000000" data-item-id="cu_dju72d1uczdhr" data-item-class="Curve Stroke ColorStrokeGray" data-item-index="none" data-renderer-id="0" transform="translate(650, 219)"></g><g id="g-root-ro_1qduqf91uco6ix-stroke" data-item-order="999974800" data-item-id="ro_1qduqf91uco6ix" data-item-class="Shape Stroke Fill" data-item-index="none" data-renderer-id="0" transform="translate(410, 78)"><g id="ro_1qduqf91uco6ix-stroke" fill="none" stroke-linecap="round" stroke-linejoin="round" stroke-miterlimit="4" stroke="#484848" stroke-width="2"><g><path d="M 34 10L 154 10C 154 10 178 10 178 34L 178 136C 178 136 178 160 154 160L 34 160C 34 160 10 160 10 136L 10 34C 10 34 10 10 34 10"></path></g></g></g><g id="g-root-ro_74qit1ucxyq7-stroke" data-item-order="999981856" data-item-id="ro_74qit1ucxyq7" data-item-class="Shape Stroke Fill" data-item-index="none" data-renderer-id="0" transform="translate(26, 3)"><g id="ro_74qit1ucxyq7-stroke" fill="none" stroke-linecap="round" stroke-linejoin="round" stroke-miterlimit="4" stroke="#4682e3" stroke-width="2"><g><path d="M 22 10L 334 10C 334 10 346 10 346 22L 346 52C 346 52 346 64 334 64L 22 64C 22 64 10 64 10 52L 10 22C 10 22 10 10 22 10"></path></g></g></g><g id="g-root-ro_hrjj2d1ucv763-stroke" data-item-order="999981856" data-item-id="ro_hrjj2d1ucv763" data-item-class="Shape Stroke Fill" data-item-index="none" data-renderer-id="0" transform="translate(626, 165)"><g id="ro_hrjj2d1ucv763-stroke" fill="none" stroke-linecap="round" stroke-linejoin="round" stroke-miterlimit="4" stroke="#dd8433" stroke-width="2"><g><path d="M 22 10L 334 10C 334 10 346 10 346 22L 346 52C 346 52 346 64 334 64L 22 64C 22 64 10 64 10 52L 10 22C 10 22 10 10 22 10"></path></g></g></g><g id="g-root-ro_144vsjp1ucsetp-stroke" data-item-order="999982504" data-item-id="ro_144vsjp1ucsetp" data-item-class="Shape Stroke Fill" data-item-index="none" data-renderer-id="0" transform="translate(626, 15)"><g id="ro_144vsjp1ucsetp-stroke" fill="none" stroke-linecap="round" stroke-linejoin="round" stroke-miterlimit="4" stroke="#3bc482" stroke-width="2"><g><path d="M 22 10L 322 10C 322 10 334 10 334 22L 334 52C 334 52 334 64 322 64L 22 64C 22 64 10 64 10 52L 10 22C 10 22 10 10 22 10"></path></g></g></g><g id="g-root-ro_zqb8lh1uczdhh-stroke" data-item-order="999983152" data-item-id="ro_zqb8lh1uczdhh" data-item-class="Shape Stroke Fill" data-item-index="none" data-renderer-id="0" transform="translate(50, 177)"><g id="ro_zqb8lh1uczdhh-stroke" fill="none" stroke-linecap="round" stroke-linejoin="round" stroke-miterlimit="4" stroke="#b65edf" stroke-width="2"><g><path d="M 22 10L 310 10C 310 10 322 10 322 22L 322 52C 322 52 322 64 310 64L 22 64C 22 64 10 64 10 52L 10 22C 10 22 10 10 22 10"></path></g></g></g><g id="g-root-cu_vahqh11ucze9t-stroke" data-item-order="1000000000" data-item-id="cu_vahqh11ucze9t" data-item-class="Curve Stroke ColorStrokeGray" data-item-index="none" data-renderer-id="0" transform="translate(578, 42)"><g id="cu_vahqh11ucze9t-stroke" fill="none" stroke-linecap="round" stroke-linejoin="round" stroke-miterlimit="4" stroke="#888888" stroke-width="2" stroke-dasharray="5.0, 7.0"><g><path d="M 10 96L 13 96L 13.1 96C 24.642748 96.000003 33.999998 86.642755 33.999998 75.100003L 34 75L 34 30.9C 33.999999 19.357249 43.357248 10.000001 54.899999 10.000002L 55 10L 58 10"></path></g></g></g><g id="g-root-tx_implment_1hgcax11ucsd8r-stroke" data-item-order="1000000000" data-item-id="tx_implment_1hgcax11ucsd8r" data-item-class="Label Stroke" data-item-index="none" data-renderer-id="0" transform="translate(674, 30)"></g><g id="g-root-tx_implment_90wbid1ucwlj6-stroke" data-item-order="1000000000" data-item-id="tx_implment_90wbid1ucwlj6" data-item-class="Label Stroke" data-item-index="none" data-renderer-id="0" transform="translate(86, 69)"></g><g id="g-root-cu_quo8cl1uczf2a-stroke" data-item-order="1000000000" data-item-id="cu_quo8cl1uczf2a" data-item-class="Curve Stroke ColorStrokeGray" data-item-index="none" data-renderer-id="0" transform="translate(320, 57)"><g id="cu_quo8cl1uczf2a-stroke" fill="none" stroke-linecap="round" stroke-linejoin="round" stroke-miterlimit="4" stroke="#888888" stroke-width="2" stroke-dasharray="5.0, 7.0"><g><path d="M 28 10L 28 28L 28 46L 19 46L 10 46"></path></g></g></g><g id="g-root-cu_hz183p1uczfv1-stroke" data-item-order="1000000000" data-item-id="cu_hz183p1uczfv1" data-item-class="Curve Stroke ColorStrokeGray" data-item-index="none" data-renderer-id="0" transform="translate(320, 57)"><g id="cu_hz183p1uczfv1-stroke" fill="none" stroke-linecap="round" stroke-linejoin="round" stroke-miterlimit="4" stroke="#888888" stroke-width="2" stroke-dasharray="5.0, 7.0"><g><path d="M 28 10L 28 20.5L 28 82C 28.000001 88.627415 22.627418 93.999998 16.000002 93.999998L 15.9 94L 10 94"></path></g></g></g><g id="g-root-ques_1d0issl1ucse10-stroke" data-item-order="1000000000" data-item-id="ques_1d0issl1ucse10" data-item-class="Icon Stroke" data-item-index="none" data-renderer-id="0" transform="translate(638, 27)"><g id="ques_1d0issl1ucse10-stroke" fill="none" stroke-linecap="round" stroke-linejoin="round" stroke-miterlimit="4" stroke="#3bc482" stroke-width="2"><g><path d="M 23.125 39.375L 11.875 39.375C 11.184644 39.375 10.625 38.815353 10.625 38.125L 10.625 11.875C 10.625 11.184644 11.184644 10.625 11.875 10.625L 28.491251 10.625C 28.822922 10.625402 29.140839 10.757605 29.375 10.9925L 34.008751 15.625C 34.243187 15.859366 34.374928 16.177258 34.375 16.508749L 34.375 20.625M 21.22625 29.342501C 18.040915 29.007484 15.624363 26.318695 15.629994 23.115795C 15.635626 19.912895 18.061617 17.23262 21.248112 16.908808C 24.434605 16.584993 27.350178 18.722458 28 21.858751M 21.875 19.376249L 21.875 23.126251L 24.375 23.126251M 24.375 31.876249C 24.375002 36.018387 27.732864 39.376251 31.875 39.376251C 36.017136 39.376251 39.375 36.018387 39.375 31.876251C 39.375 27.734116 36.017136 24.376251 31.875 24.376251C 27.732864 24.376251 24.375002 27.734116 24.375002 31.876251ZM 29.53125 30.0525C 29.531252 28.758083 30.580582 27.708752 31.875 27.708752C 33.169418 27.708752 34.21875 28.758083 34.21875 30.052502C 34.21875 31.34692 33.169418 32.396252 31.875 32.396252L 31.875 33.646248M 31.875 36.146248C 32.047588 36.146248 32.1875 36.28616 32.1875 36.458748C 32.1875 36.63134 32.047588 36.771248 31.875 36.771248C 31.702412 36.771248 31.5625 36.63134 31.5625 36.458748C 31.5625 36.28616 31.702412 36.146248 31.875 36.146248"></path></g></g></g><g id="g-root-cu_hz183p1uczfv3-stroke" data-item-order="1000000000" data-item-id="cu_hz183p1uczfv3" data-item-class="Curve Stroke ColorStrokeGray" data-item-index="none" data-renderer-id="0" transform="translate(650, 69)"><g id="cu_hz183p1uczfv3-stroke" fill="none" stroke-linecap="round" stroke-linejoin="round" stroke-miterlimit="4" stroke="#888888" stroke-width="2" stroke-dasharray="5.0, 7.0"><g><path d="M 10 10L 10 22L 10 34L 19 34L 28 34"></path></g></g></g><g id="g-root-cu_dju72d1uczdhm-stroke" data-item-order="1000000000" data-item-id="cu_dju72d1uczdhm" data-item-class="Curve Stroke ColorStrokeGray" data-item-index="none" data-renderer-id="0" transform="translate(650, 69)"><g id="cu_dju72d1uczdhm-stroke" fill="none" stroke-linecap="round" stroke-linejoin="round" stroke-miterlimit="4" stroke="#888888" stroke-width="2" stroke-dasharray="5.0, 7.0"><g><path d="M 10 10L 10 17.5L 10 58C 10.000002 64.627417 15.372585 70 22.000002 69.999999L 22.1 70L 28 70"></path></g></g></g><g id="g-root-tx_commande_1ur6c791ucwjr8-stroke" data-item-order="1000000000" data-item-id="tx_commande_1ur6c791ucwjr8" data-item-class="Label Stroke" data-item-index="none" data-renderer-id="0" transform="translate(674, 81)"></g><g id="g-root-serv_1qduqf91uco6iw-stroke" data-item-order="1000000000" data-item-id="serv_1qduqf91uco6iw" data-item-class="Icon Stroke" data-item-index="none" data-renderer-id="0" transform="translate(470, 102)"><g id="serv_1qduqf91uco6iw-stroke" fill="none" stroke-linecap="round" stroke-linejoin="round" stroke-miterlimit="4" stroke="#484848" stroke-width="2"><g><path d="M 51 23.854C 50.966511 21.881111 50.131657 20.006788 48.687508 18.662231C 47.243355 17.317677 45.314247 16.618662 43.343998 16.726C 41.574951 13.192698 37.951328 10.972141 34 11C 28.620384 10.922284 24.105413 15.036353 23.684 20.4C 22.078552 20.044861 20.398424 20.42691 19.104412 21.441368C 17.810402 22.455822 17.038349 23.996189 17 25.639999C 17 31.084 22.911999 31 22.911999 31L 44.348 31C 44.348 31 51 30.158001 51 23.854ZM 23.5 51.498001C 23.224117 51.498001 23.00037 51.721455 23.000004 51.997337C 22.999638 52.273216 23.222792 52.497265 23.498672 52.497997C 23.774551 52.498734 23.998898 52.275879 24 52C 24.000534 51.867226 23.948027 51.739738 23.854143 51.645855C 23.760258 51.551971 23.632771 51.499466 23.5 51.5L 23.5 51.5M 28.5 51.498001C 28.224119 51.498001 28.00037 51.721455 28.000004 51.997337C 27.999638 52.273216 28.222792 52.497265 28.498672 52.497997C 28.774553 52.498734 28.998896 52.275879 29 52C 29.000534 51.867226 28.948027 51.739738 28.854143 51.645855C 28.760258 51.551971 28.632771 51.499466 28.5 51.5L 28.5 51.5M 51 54C 51 55.656857 49.656857 57 48 57L 20 57C 18.343147 57 17 55.656857 17 54L 17 50C 17 48.343147 18.343147 47 20 47L 48 47C 49.656857 47 51 48.343147 51 50ZM 23.5 41.498001C 23.224117 41.498001 23.00037 41.721455 23.000004 41.997337C 22.999638 42.273216 23.222792 42.497265 23.498672 42.497997C 23.774551 42.498734 23.998898 42.275879 24 42C 24.000534 41.867226 23.948027 41.739738 23.854143 41.645855C 23.760258 41.551971 23.632771 41.499466 23.5 41.5L 23.5 41.5M 28.5 41.498001C 28.224119 41.498001 28.00037 41.721455 28.000004 41.997337C 27.999638 42.273216 28.222792 42.497265 28.498672 42.497997C 28.774553 42.498734 28.998896 42.275879 29 42C 29.000534 41.867226 28.948027 41.739738 28.854143 41.645855C 28.760258 41.551971 28.632771 41.499466 28.5 41.5L 28.5 41.5M 51 44C 51 45.656857 49.656857 47 48 47L 20 47C 18.343147 47 17 45.656857 17 44L 17 40C 17 38.343147 18.343147 37 20 37L 48 37C 49.656857 37 51 38.343147 51 40Z"></path></g></g></g><g id="g-root-tx_interact_59b9h1ucwmbv-stroke" data-item-order="1000000000" data-item-id="tx_interact_59b9h1ucwmbv" data-item-class="Label Stroke" data-item-index="none" data-renderer-id="0" transform="translate(110, 129)"></g><g id="g-root-tx_requtes_1ur6c791ucwjr9-stroke" data-item-order="1000000000" data-item-id="tx_requtes_1ur6c791ucwjr9" data-item-class="Label Stroke" data-item-index="none" data-renderer-id="0" transform="translate(674, 117)"></g><g id="g-root-tx_applicat_4o76th1uco553-stroke" data-item-order="1000000000" data-item-id="tx_applicat_4o76th1uco553" data-item-class="Label Stroke" data-item-index="none" data-renderer-id="0" transform="translate(434, 156)"></g><g id="g-root-cu_quo8cl1uczea6-stroke" data-item-order="1000000000" data-item-id="cu_quo8cl1uczea6" data-item-class="Curve Stroke ColorStrokeGray" data-item-index="none" data-renderer-id="0" transform="translate(362, 30)"><g id="cu_quo8cl1uczea6-stroke" fill="none" stroke-linecap="round" stroke-linejoin="round" stroke-miterlimit="4" stroke="#888888" stroke-width="2" stroke-dasharray="5.0, 7.0"><g><path d="M 58 108L 55 108L 54.9 108C 43.357246 107.999992 33.999999 98.642744 33.999998 87.099994L 34 87L 34 30.9C 33.999998 19.357248 24.64275 10 13.1 10L 13 10L 10 10"></path></g></g></g><g id="g-root-coll_9259ol1ucy13a-stroke" data-item-order="1000000000" data-item-id="coll_9259ol1ucy13a" data-item-class="Icon Stroke" data-item-index="none" data-renderer-id="0" transform="translate(320, 15)"><g id="coll_9259ol1ucy13a-stroke" fill="none" stroke-linecap="round" stroke-linejoin="round" stroke-miterlimit="4" stroke="#4682e3" stroke-width="2"><g><path d="M 14.4575 14.45875C 14.456908 16.576488 16.17351 18.29357 18.291248 18.29357C 20.408989 18.29357 22.125591 16.576488 22.125 14.45875C 22.125591 12.34101 20.408989 10.623929 18.291248 10.623929C 16.17351 10.623929 14.456908 12.34101 14.4575 14.45875M 14.4575 35.541252C 14.456908 37.658989 16.17351 39.376068 18.291248 39.376068C 20.408989 39.376068 22.125591 37.658989 22.125 35.541248C 22.125591 33.423508 20.408989 31.706429 18.291248 31.706429C 16.17351 31.706429 14.456908 33.423508 14.4575 35.541248M 27.875 14.45875C 27.874409 16.576488 29.591009 18.29357 31.708748 18.29357C 33.826488 18.29357 35.543091 16.576488 35.542496 14.45875C 35.543091 12.34101 33.826488 10.623929 31.708748 10.623929C 29.591009 10.623929 27.874409 12.34101 27.875 14.45875M 18.29125 18.29125L 18.29125 31.708752M 18.29125 25.95875L 24.04125 25.95875C 28.275892 25.95875 31.708748 22.525892 31.708748 18.291248"></path></g></g></g><g id="g-root-cu_meuq851uczf2n-stroke" data-item-order="1000000000" data-item-id="cu_meuq851uczf2n" data-item-class="Curve Stroke ColorStrokeGray" data-item-index="none" data-renderer-id="0" transform="translate(362, 178)"><g id="cu_meuq851uczf2n-stroke" fill="none" stroke-linecap="round" stroke-linejoin="round" stroke-miterlimit="4" stroke="#888888" stroke-width="2" stroke-dasharray="5.0, 7.0"><g><path d="M 58 10L 55 10L 54.9 10C 50.984059 9.997797 46.734046 11.20715 42.600001 13.499999C 40.125469 14.874797 37.035088 18.288589 33.999998 22.999998C 30.964908 27.711408 27.874528 31.1252 25.399999 32.499998C 21.265957 34.792849 17.015944 36.002202 13.1 36L 13 36L 10 36"></path></g></g></g><g id="g-root-1_qn6jb91ucv6de-stroke" data-item-order="1000000000" data-item-id="1_qn6jb91ucv6de" data-item-class="Icon Stroke" data-item-index="none" data-renderer-id="0" transform="translate(638, 177)"><g id="1_qn6jb91ucv6de-stroke" fill="none" stroke-linecap="round" stroke-linejoin="round" stroke-miterlimit="4" stroke="#dd8433" stroke-width="2"><g><path d="M 17.5 11.071428L 32.5 11.071428C 32.5 11.071428 38.92857 11.071428 38.92857 17.5L 38.92857 32.5C 38.92857 32.5 38.92857 38.92857 32.5 38.92857L 17.5 38.92857C 17.5 38.92857 11.071428 38.92857 11.071428 32.5L 11.071428 17.5C 11.071428 17.5 11.071428 11.071428 17.5 11.071428M 18.571428 27.142857L 22.964285 30.657143C 23.203207 30.853893 23.518024 30.932598 23.821428 30.871428C 24.127481 30.814016 24.393415 30.626299 24.549999 30.357141L 31.42857 18.571428"></path></g></g></g><g id="g-root-tx_coordonn_1d159vp1uczf2b-stroke" data-item-order="1000000000" data-item-id="tx_coordonn_1d159vp1uczf2b" data-item-class="Label Stroke" data-item-index="none" data-renderer-id="0" transform="translate(62, 192)"></g><g id="g-root-1_zqb8lh1uczdhg-stroke" data-item-order="1000000000" data-item-id="1_zqb8lh1uczdhg" data-item-class="Icon Stroke" data-item-index="none" data-renderer-id="0" transform="translate(320, 189)"><g id="1_zqb8lh1uczdhg-stroke" fill="none" stroke-linecap="round" stroke-linejoin="round" stroke-miterlimit="4" stroke="#b65edf" stroke-width="2"><g><path d="M 21.25 25.623749C 21.25 27.694818 22.928932 29.373751 25 29.373751C 27.071068 29.373751 28.75 27.694818 28.75 25.623751C 28.75 23.552683 27.071068 21.873751 25 21.873751C 22.928932 21.873751 21.25 23.552683 21.25 25.623751ZM 30.625 39.375C 30.235001 35.134998 27.83375 31.875 25 31.875C 22.16625 31.875 19.764999 35.134998 19.375 39.375ZM 31.625 31.625C 35.28952 27.965042 35.291981 22.026999 31.630501 18.364C 27.969021 14.701002 22.030979 14.701002 18.369499 18.364C 14.708021 22.026999 14.710484 27.965042 18.375 31.625002M 35.165001 35.16375C 40.778511 29.549864 40.778309 20.448292 35.164547 14.834658C 29.550785 9.221022 20.449215 9.221022 14.835454 14.834658C 9.221693 20.448292 9.22149 29.549864 14.835 35.16375"></path></g></g></g><g id="g-root-cu_meuq851uczf2k-stroke" data-item-order="1000000000" data-item-id="cu_meuq851uczf2k" data-item-class="Curve Stroke ColorStrokeGray" data-item-index="none" data-renderer-id="0" transform="translate(578, 178)"><g id="cu_meuq851uczf2k-stroke" fill="none" stroke-linecap="round" stroke-linejoin="round" stroke-miterlimit="4" stroke="#888888" stroke-width="2" stroke-dasharray="5.0, 7.0"><g><path d="M 10 10L 13 10L 13.1 10C 16.47715 10.00393 20.199416 10.613028 24.1 11.8C 26.434787 12.503612 29.936878 14.343094 34 16.999999C 38.063122 19.656905 41.565214 21.496387 43.900001 22.199999C 47.800584 23.386973 51.52285 23.996071 54.900001 24.000001L 55 24L 58 24"></path></g></g></g><g id="g-root-tx_grelaval_14805z91ucttdt-stroke" data-item-order="1000000000" data-item-id="tx_grelaval_14805z91ucttdt" data-item-class="Label Stroke" data-item-index="none" data-renderer-id="0" transform="translate(674, 180)"></g><g id="g-root-cu_dju72d1uczdho-stroke" data-item-order="1000000000" data-item-id="cu_dju72d1uczdho" data-item-class="Curve Stroke ColorStrokeGray" data-item-index="none" data-renderer-id="0" transform="translate(650, 219)"><g id="cu_dju72d1uczdho-stroke" fill="none" stroke-linecap="round" stroke-linejoin="round" stroke-miterlimit="4" stroke="#888888" stroke-width="2" stroke-dasharray="5.0, 7.0"><g><path d="M 10 10L 10 22L 10 34L 19 34L 28 34"></path></g></g></g><g id="g-root-tx_transfor_1lvjbyd1ucwkjz-stroke" data-item-order="1000000000" data-item-id="tx_transfor_1lvjbyd1ucwkjz" data-item-class="Label Stroke" data-item-index="none" data-renderer-id="0" transform="translate(674, 267)"></g><g id="g-root-tx_communic_1hfpttx1ucwlc8-stroke" data-item-order="1000000000" data-item-id="tx_communic_1hfpttx1ucwlc8" data-item-class="Label Stroke" data-item-index="none" data-renderer-id="0" transform="translate(2, 243)"></g><g id="g-root-cu_940oxx1uczea1-stroke" data-item-order="1000000000" data-item-id="cu_940oxx1uczea1" data-item-class="Curve Stroke ColorStrokeGray" data-item-index="none" data-renderer-id="0" transform="translate(320, 231)"><g id="cu_940oxx1uczea1-stroke" fill="none" stroke-linecap="round" stroke-linejoin="round" stroke-miterlimit="4" stroke="#888888" stroke-width="2" stroke-dasharray="5.0, 7.0"><g><path d="M 28 10L 28 22L 28 34L 19 34L 10 34"></path></g></g></g><g id="g-root-cu_940oxx1uczea4-stroke" data-item-order="1000000000" data-item-id="cu_940oxx1uczea4" data-item-class="Curve Stroke ColorStrokeGray" data-item-index="none" data-renderer-id="0" transform="translate(320, 231)"><g id="cu_940oxx1uczea4-stroke" fill="none" stroke-linecap="round" stroke-linejoin="round" stroke-miterlimit="4" stroke="#888888" stroke-width="2" stroke-dasharray="5.0, 7.0"><g><path d="M 28 10L 28 17.5L 28 58C 27.999999 64.627415 22.627416 69.999998 16 69.999998L 15.9 70L 10 70"></path></g></g></g><g id="g-root-tx_rglesdev_1lvjbyd1ucwkjy-stroke" data-item-order="1000000000" data-item-id="tx_rglesdev_1lvjbyd1ucwkjy" data-item-class="Label Stroke" data-item-index="none" data-renderer-id="0" transform="translate(674, 231)"></g><g id="g-root-tx_gestiond_1hfpttx1ucwlc9-stroke" data-item-order="1000000000" data-item-id="tx_gestiond_1hfpttx1ucwlc9" data-item-class="Label Stroke" data-item-index="none" data-renderer-id="0" transform="translate(74, 279)"></g><g id="g-root-tx_orchestr_dhyrt11ucy0b1-stroke" data-item-order="1000000000" data-item-id="tx_orchestr_dhyrt11ucy0b1" data-item-class="Label Stroke" data-item-index="none" data-renderer-id="0" transform="translate(38, 18)"></g><g id="g-root-cu_dju72d1uczdhr-stroke" data-item-order="1000000000" data-item-id="cu_dju72d1uczdhr" data-item-class="Curve Stroke ColorStrokeGray" data-item-index="none" data-renderer-id="0" transform="translate(650, 219)"><g id="cu_dju72d1uczdhr-stroke" fill="none" stroke-linecap="round" stroke-linejoin="round" stroke-miterlimit="4" stroke="#888888" stroke-width="2" stroke-dasharray="5.0, 7.0"><g><path d="M 10 10L 10 17.5L 10 58C 10.000002 64.627417 15.372585 70 22.000002 69.999999L 22.1 70L 28 70"></path></g></g></g></g></g></svg>