<?xml version="1.0" encoding="utf-8" standalone="yes"?>
<!DOCTYPE svg PUBLIC "-//W3C//DTD SVG 1.1//EN" "http://www.w3.org/Graphics/SVG/1.1/DTD/svg11.dtd">
<svg width="900" height="301" viewBox="0 0 900 301" style="fill:none;stroke:none;fill-rule:evenodd;clip-rule:evenodd;stroke-linecap:round;stroke-linejoin:round;stroke-miterlimit:1.5;" version="1.1" xmlns="http://www.w3.org/2000/svg" xmlns:xlink="http://www.w3.org/1999/xlink"><style id="fontImports">@import url("https://fonts.googleapis.com/css2?family=Roboto:wght@400;700&amp;display=block");</style><rect id="" x="0" y="0" width="900" height="301" style="fill: #ffffff;"></rect><g id="items" style="isolation: isolate"><g id="blend" style="mix-blend-mode:normal"><g id="g-root-ro_1cyml3p1s4x2iu-fill" data-item-order="999973000" data-item-id="ro_1cyml3p1s4x2iu" data-item-class="Shape Stroke Fill" data-item-index="none" data-renderer-id="0" transform="translate(386, 66)"><g id="ro_1cyml3p1s4x2iu-fill" stroke="none" fill="#f0f0f0"><g><path d="M 34 10L 166 10C 166 10 190 10 190 34L 190 136C 190 136 190 160 166 160L 34 160C 34 160 10 160 10 136L 10 34C 10 34 10 10 34 10"></path></g></g></g><g id="g-root-ro_zlanh11s542dg-fill" data-item-order="999990280" data-item-id="ro_zlanh11s542dg" data-item-class="Shape Stroke Fill" data-item-index="none" data-renderer-id="0" transform="translate(614, 3)"><g id="ro_zlanh11s542dg-fill" stroke="none" fill="#e9fbf3"><g><path d="M 22 10L 178 10C 178 10 190 10 190 22L 190 52C 190 52 190 64 178 64L 22 64C 22 64 10 64 10 52L 10 22C 10 22 10 10 22 10"></path></g></g></g><g id="g-root-ro_1lwrhp11s55fya-fill" data-item-order="999990280" data-item-id="ro_1lwrhp11s55fya" data-item-class="Shape Stroke Fill" data-item-index="none" data-renderer-id="0" transform="translate(614, 153)"><g id="ro_1lwrhp11s55fya-fill" stroke="none" fill="#f7e6fe"><g><path d="M 22 10L 178 10C 178 10 190 10 190 22L 190 52C 190 52 190 64 178 64L 22 64C 22 64 10 64 10 52L 10 22C 10 22 10 10 22 10"></path></g></g></g><g id="g-root-ro_qp19at1s4oky6-fill" data-item-order="999991576" data-item-id="ro_qp19at1s4oky6" data-item-class="Shape Stroke Fill" data-item-index="none" data-renderer-id="0" transform="translate(182, 3)"><g id="ro_qp19at1s4oky6-fill" stroke="none" fill="#e6efff"><g><path d="M 22 10L 154 10C 154 10 166 10 166 22L 166 52C 166 52 166 64 154 64L 22 64C 22 64 10 64 10 52L 10 22C 10 22 10 10 22 10"></path></g></g></g><g id="g-root-ro_18nsytx1s4q0i6-fill" data-item-order="999992224" data-item-id="ro_18nsytx1s4q0i6" data-item-class="Shape Stroke Fill" data-item-index="none" data-renderer-id="0" transform="translate(194, 153)"><g id="ro_18nsytx1s4q0i6-fill" stroke="none" fill="#fef2e6"><g><path d="M 22 10L 142 10C 142 10 154 10 154 22L 154 52C 154 52 154 64 142 64L 22 64C 22 64 10 64 10 52L 10 22C 10 22 10 10 22 10"></path></g></g></g><g id="g-root-cu_147zgph1s4q1ai-fill" data-item-order="1000000000" data-item-id="cu_147zgph1s4q1ai" data-item-class="Curve Stroke ColorStrokeGray" data-item-index="none" data-renderer-id="0" transform="translate(566, 30)"></g><g id="g-root-tx_persiste_1lqiqtx1s540zm-fill" data-item-order="1000000000" data-item-id="tx_persiste_1lqiqtx1s540zm" data-item-class="Label Stroke" data-item-index="none" data-renderer-id="0" transform="translate(662, 18)"><g id="tx_persiste_1lqiqtx1s540zm-fill" stroke="none" fill="#3bc482"><g><text style="font: 20px Roboto, sans-serif; white-space: pre;" font-weight="20px" font-size="Roboto," font-family="sans-serif"><tspan x="17.71" y="33.75" dominant-baseline="ideographic">Persistence</tspan></text></g></g></g><g id="g-root-tx_external_hu0mz91s588w9-fill" data-item-order="1000000000" data-item-id="tx_external_hu0mz91s588w9" data-item-class="Label Stroke" data-item-index="none" data-renderer-id="0" transform="translate(74, 69)"><g id="tx_external_hu0mz91s588w9-fill" stroke="none" fill="#484848"><g><text style="font: 20px Roboto, sans-serif; white-space: pre;" font-weight="20px" font-size="Roboto," font-family="sans-serif"><tspan x="13.57" y="33.75" dominant-baseline="ideographic">External API Integration</tspan></text></g></g></g><g id="g-root-cu_zisuad1s4rdhn-fill" data-item-order="1000000000" data-item-id="cu_zisuad1s4rdhn" data-item-class="Curve Stroke ColorStrokeGray" data-item-index="none" data-renderer-id="0" transform="translate(296, 57)"></g><g id="g-root-cu_v2zc5x1s4re9y-fill" data-item-order="1000000000" data-item-id="cu_v2zc5x1s4re9y" data-item-class="Curve Stroke ColorStrokeGray" data-item-index="none" data-renderer-id="0" transform="translate(296, 57)"></g><g id="g-root-cu_147zgph1s4q1af-fill" data-item-order="1000000000" data-item-id="cu_147zgph1s4q1af" data-item-class="Curve Stroke ColorStrokeGray" data-item-index="none" data-renderer-id="0" transform="translate(338, 30)"></g><g id="g-root-cu_v2zc5x1s4rea0-fill" data-item-order="1000000000" data-item-id="cu_v2zc5x1s4rea0" data-item-class="Curve Stroke ColorStrokeGray" data-item-index="none" data-renderer-id="0" transform="translate(638, 57)"></g><g id="g-root-cu_v2zc5x1s4rea3-fill" data-item-order="1000000000" data-item-id="cu_v2zc5x1s4rea3" data-item-class="Curve Stroke ColorStrokeGray" data-item-index="none" data-renderer-id="0" transform="translate(638, 57)"></g><g id="g-root-tx_database_4ik4lx1s58ah7-fill" data-item-order="1000000000" data-item-id="tx_database_4ik4lx1s58ah7" data-item-class="Label Stroke" data-item-index="none" data-renderer-id="0" transform="translate(662, 69)"><g id="tx_database_4ik4lx1s58ah7-fill" stroke="none" fill="#484848"><g><text style="font: 20px Roboto, sans-serif; white-space: pre;" font-weight="20px" font-size="Roboto," font-family="sans-serif"><tspan x="14.44" y="33.75" dominant-baseline="ideographic">Database Management</tspan></text></g></g></g><g id="g-root-hier_1heg3851s4x1ql-fill" data-item-order="1000000000" data-item-id="hier_1heg3851s4x1ql" data-item-class="Icon Stroke" data-item-index="none" data-renderer-id="0" transform="translate(452, 90)"></g><g id="g-root-tx_thirdpar_de74ut1s589oi-fill" data-item-order="1000000000" data-item-id="tx_thirdpar_de74ut1s589oi" data-item-class="Label Stroke" data-item-index="none" data-renderer-id="0" transform="translate(2, 105)"><g id="tx_thirdpar_de74ut1s589oi-fill" stroke="none" fill="#484848"><g><text style="font: 20px Roboto, sans-serif; white-space: pre;" font-weight="20px" font-size="Roboto," font-family="sans-serif"><tspan x="17.58" y="33.75" dominant-baseline="ideographic">Third-party Service Connection</tspan></text></g></g></g><g id="g-root-tx_dataretr_3d3kl1s5883o-fill" data-item-order="1000000000" data-item-id="tx_dataretr_3d3kl1s5883o" data-item-class="Label Stroke" data-item-index="none" data-renderer-id="0" transform="translate(662, 105)"><g id="tx_dataretr_3d3kl1s5883o-fill" stroke="none" fill="#484848"><g><text style="font: 20px Roboto, sans-serif; white-space: pre;" font-weight="20px" font-size="Roboto," font-family="sans-serif"><tspan x="14.42" y="33.75" dominant-baseline="ideographic">Data Retrieval</tspan></text></g></g></g><g id="g-root-cloc_zlanh11s542df-fill" data-item-order="1000000000" data-item-id="cloc_zlanh11s542df" data-item-class="Icon Stroke" data-item-index="none" data-renderer-id="0" transform="translate(626, 15)"></g><g id="g-root-tx_infrastr_1qa33h11s4x0xw-fill" data-item-order="1000000000" data-item-id="tx_infrastr_1qa33h11s4x0xw" data-item-class="Label Stroke" data-item-index="none" data-renderer-id="0" transform="translate(410, 144)"><g id="tx_infrastr_1qa33h11s4x0xw-fill" stroke="none" fill="#484848"><g><text style="font: 20px Roboto, sans-serif; white-space: pre;" font-weight="20px" font-size="Roboto," font-family="sans-serif"><tspan x="14.37" y="33.75" dominant-baseline="ideographic">Infrastructure </tspan><tspan x="50.52" y="57.75" dominant-baseline="ideographic">Layer</tspan></text></g></g></g><g id="g-root-hand_1hjfz2t1s4pzph-fill" data-item-order="1000000000" data-item-id="hand_1hjfz2t1s4pzph" data-item-class="Icon Stroke" data-item-index="none" data-renderer-id="0" transform="translate(296, 165)"></g><g id="g-root-plug_qp19at1s4oky5-fill" data-item-order="1000000000" data-item-id="plug_qp19at1s4oky5" data-item-class="Icon Stroke" data-item-index="none" data-renderer-id="0" transform="translate(296, 15)"></g><g id="g-root-tx_services_1lz9h791s4pyx8-fill" data-item-order="1000000000" data-item-id="tx_services_1lz9h791s4pyx8" data-item-class="Label Stroke" data-item-index="none" data-renderer-id="0" transform="translate(206, 168)"><g id="tx_services_1lz9h791s4pyx8-fill" stroke="none" fill="#dd8433"><g><text style="font: 20px Roboto, sans-serif; white-space: pre;" font-weight="20px" font-size="Roboto," font-family="sans-serif"><tspan x="14.33" y="33.75" dominant-baseline="ideographic">Services</tspan></text></g></g></g><g id="g-root-cu_zisuad1s4rdhk-fill" data-item-order="1000000000" data-item-id="cu_zisuad1s4rdhk" data-item-class="Curve Stroke ColorStrokeGray" data-item-index="none" data-renderer-id="0" transform="translate(338, 166)"></g><g id="g-root-cu_147zgph1s4q1al-fill" data-item-order="1000000000" data-item-id="cu_147zgph1s4q1al" data-item-class="Curve Stroke ColorStrokeGray" data-item-index="none" data-renderer-id="0" transform="translate(566, 166)"></g><g id="g-root-draw_1qckzth1s55f61-fill" data-item-order="1000000000" data-item-id="draw_1qckzth1s55f61" data-item-class="Icon Stroke" data-item-index="none" data-renderer-id="0" transform="translate(626, 165)"></g><g id="g-root-tx_reposito_6hh051s55hq8-fill" data-item-order="1000000000" data-item-id="tx_reposito_6hh051s55hq8" data-item-class="Label Stroke" data-item-index="none" data-renderer-id="0" transform="translate(662, 168)"><g id="tx_reposito_6hh051s55hq8-fill" stroke="none" fill="#b65edf"><g><text style="font: 20px Roboto, sans-serif; white-space: pre;" font-weight="20px" font-size="Roboto," font-family="sans-serif"><tspan x="14.51" y="33.75" dominant-baseline="ideographic">Repositories</tspan></text></g></g></g><g id="g-root-tx_authenti_1lt0n6d1s589hj-fill" data-item-order="1000000000" data-item-id="tx_authenti_1lt0n6d1s589hj" data-item-class="Label Stroke" data-item-index="none" data-renderer-id="0" transform="translate(74, 219)"><g id="tx_authenti_1lt0n6d1s589hj-fill" stroke="none" fill="#484848"><g><text style="font: 20px Roboto, sans-serif; white-space: pre;" font-weight="20px" font-size="Roboto," font-family="sans-serif"><tspan x="13.01" y="33.75" dominant-baseline="ideographic">Authentication Services</tspan></text></g></g></g><g id="g-root-cu_qn5u1h1s4rf2i-fill" data-item-order="1000000000" data-item-id="cu_qn5u1h1s4rf2i" data-item-class="Curve Stroke ColorStrokeGray" data-item-index="none" data-renderer-id="0" transform="translate(296, 207)"></g><g id="g-root-cu_m7cbx11s4rfut-fill" data-item-order="1000000000" data-item-id="cu_m7cbx11s4rfut" data-item-class="Curve Stroke ColorStrokeGray" data-item-index="none" data-renderer-id="0" transform="translate(296, 207)"></g><g id="g-root-cu_qn5u1h1s4rf2d-fill" data-item-order="1000000000" data-item-id="cu_qn5u1h1s4rf2d" data-item-class="Curve Stroke ColorStrokeGray" data-item-index="none" data-renderer-id="0" transform="translate(638, 207)"></g><g id="g-root-cu_qn5u1h1s4rf2g-fill" data-item-order="1000000000" data-item-id="cu_qn5u1h1s4rf2g" data-item-class="Curve Stroke ColorStrokeGray" data-item-index="none" data-renderer-id="0" transform="translate(638, 207)"></g><g id="g-root-tx_dataacce_3d3kl1s5883p-fill" data-item-order="1000000000" data-item-id="tx_dataacce_3d3kl1s5883p" data-item-class="Label Stroke" data-item-index="none" data-renderer-id="0" transform="translate(662, 219)"><g id="tx_dataacce_3d3kl1s5883p-fill" stroke="none" fill="#484848"><g><text style="font: 20px Roboto, sans-serif; white-space: pre;" font-weight="20px" font-size="Roboto," font-family="sans-serif"><tspan x="17.38" y="33.75" dominant-baseline="ideographic">Data Access Logic</tspan></text></g></g></g><g id="g-root-tx_entityma_1q8u5at1s588pa-fill" data-item-order="1000000000" data-item-id="tx_entityma_1q8u5at1s588pa" data-item-class="Label Stroke" data-item-index="none" data-renderer-id="0" transform="translate(662, 255)"><g id="tx_entityma_1q8u5at1s588pa-fill" stroke="none" fill="#484848"><g><text style="font: 20px Roboto, sans-serif; white-space: pre;" font-weight="20px" font-size="Roboto," font-family="sans-serif"><tspan x="15.68" y="33.75" dominant-baseline="ideographic">Entity Mapping</tspan></text></g></g></g><g id="g-root-tx_adapters_13zval11s4omj0-fill" data-item-order="1000000000" data-item-id="tx_adapters_13zval11s4omj0" data-item-class="Label Stroke" data-item-index="none" data-renderer-id="0" transform="translate(194, 18)"><g id="tx_adapters_13zval11s4omj0-fill" stroke="none" fill="#4682e3"><g><text style="font: 20px Roboto, sans-serif; white-space: pre;" font-weight="20px" font-size="Roboto," font-family="sans-serif"><tspan x="17.68" y="33.75" dominant-baseline="ideographic">Adapters</tspan></text></g></g></g><g id="g-root-tx_notifica_1lt0n6d1s589hk-fill" data-item-order="1000000000" data-item-id="tx_notifica_1lt0n6d1s589hk" data-item-class="Label Stroke" data-item-index="none" data-renderer-id="0" transform="translate(98, 255)"><g id="tx_notifica_1lt0n6d1s589hk-fill" stroke="none" fill="#484848"><g><text style="font: 20px Roboto, sans-serif; white-space: pre;" font-weight="20px" font-size="Roboto," font-family="sans-serif"><tspan x="14.21" y="33.75" dominant-baseline="ideographic">Notification Services</tspan></text></g></g></g><g id="g-root-ro_1cyml3p1s4x2iu-stroke" data-item-order="999973000" data-item-id="ro_1cyml3p1s4x2iu" data-item-class="Shape Stroke Fill" data-item-index="none" data-renderer-id="0" transform="translate(386, 66)"><g id="ro_1cyml3p1s4x2iu-stroke" fill="none" stroke-linecap="round" stroke-linejoin="round" stroke-miterlimit="4" stroke="#484848" stroke-width="2"><g><path d="M 34 10L 166 10C 166 10 190 10 190 34L 190 136C 190 136 190 160 166 160L 34 160C 34 160 10 160 10 136L 10 34C 10 34 10 10 34 10"></path></g></g></g><g id="g-root-ro_zlanh11s542dg-stroke" data-item-order="999990280" data-item-id="ro_zlanh11s542dg" data-item-class="Shape Stroke Fill" data-item-index="none" data-renderer-id="0" transform="translate(614, 3)"><g id="ro_zlanh11s542dg-stroke" fill="none" stroke-linecap="round" stroke-linejoin="round" stroke-miterlimit="4" stroke="#3bc482" stroke-width="2"><g><path d="M 22 10L 178 10C 178 10 190 10 190 22L 190 52C 190 52 190 64 178 64L 22 64C 22 64 10 64 10 52L 10 22C 10 22 10 10 22 10"></path></g></g></g><g id="g-root-ro_1lwrhp11s55fya-stroke" data-item-order="999990280" data-item-id="ro_1lwrhp11s55fya" data-item-class="Shape Stroke Fill" data-item-index="none" data-renderer-id="0" transform="translate(614, 153)"><g id="ro_1lwrhp11s55fya-stroke" fill="none" stroke-linecap="round" stroke-linejoin="round" stroke-miterlimit="4" stroke="#b65edf" stroke-width="2"><g><path d="M 22 10L 178 10C 178 10 190 10 190 22L 190 52C 190 52 190 64 178 64L 22 64C 22 64 10 64 10 52L 10 22C 10 22 10 10 22 10"></path></g></g></g><g id="g-root-ro_qp19at1s4oky6-stroke" data-item-order="999991576" data-item-id="ro_qp19at1s4oky6" data-item-class="Shape Stroke Fill" data-item-index="none" data-renderer-id="0" transform="translate(182, 3)"><g id="ro_qp19at1s4oky6-stroke" fill="none" stroke-linecap="round" stroke-linejoin="round" stroke-miterlimit="4" stroke="#4682e3" stroke-width="2"><g><path d="M 22 10L 154 10C 154 10 166 10 166 22L 166 52C 166 52 166 64 154 64L 22 64C 22 64 10 64 10 52L 10 22C 10 22 10 10 22 10"></path></g></g></g><g id="g-root-ro_18nsytx1s4q0i6-stroke" data-item-order="999992224" data-item-id="ro_18nsytx1s4q0i6" data-item-class="Shape Stroke Fill" data-item-index="none" data-renderer-id="0" transform="translate(194, 153)"><g id="ro_18nsytx1s4q0i6-stroke" fill="none" stroke-linecap="round" stroke-linejoin="round" stroke-miterlimit="4" stroke="#dd8433" stroke-width="2"><g><path d="M 22 10L 142 10C 142 10 154 10 154 22L 154 52C 154 52 154 64 142 64L 22 64C 22 64 10 64 10 52L 10 22C 10 22 10 10 22 10"></path></g></g></g><g id="g-root-cu_147zgph1s4q1ai-stroke" data-item-order="1000000000" data-item-id="cu_147zgph1s4q1ai" data-item-class="Curve Stroke ColorStrokeGray" data-item-index="none" data-renderer-id="0" transform="translate(566, 30)"><g id="cu_147zgph1s4q1ai-stroke" fill="none" stroke-linecap="round" stroke-linejoin="round" stroke-miterlimit="4" stroke="#888888" stroke-width="2" stroke-dasharray="5.0, 7.0"><g><path d="M 10 96L 13 96L 13.1 96C 24.642748 96.000003 33.999998 86.642755 33.999998 75.100003L 34 75L 34 30.9C 33.999999 19.357249 43.357248 10.000001 54.899999 10.000002L 55 10L 58 10"></path></g></g></g><g id="g-root-tx_persiste_1lqiqtx1s540zm-stroke" data-item-order="1000000000" data-item-id="tx_persiste_1lqiqtx1s540zm" data-item-class="Label Stroke" data-item-index="none" data-renderer-id="0" transform="translate(662, 18)"></g><g id="g-root-tx_external_hu0mz91s588w9-stroke" data-item-order="1000000000" data-item-id="tx_external_hu0mz91s588w9" data-item-class="Label Stroke" data-item-index="none" data-renderer-id="0" transform="translate(74, 69)"></g><g id="g-root-cu_zisuad1s4rdhn-stroke" data-item-order="1000000000" data-item-id="cu_zisuad1s4rdhn" data-item-class="Curve Stroke ColorStrokeGray" data-item-index="none" data-renderer-id="0" transform="translate(296, 57)"><g id="cu_zisuad1s4rdhn-stroke" fill="none" stroke-linecap="round" stroke-linejoin="round" stroke-miterlimit="4" stroke="#888888" stroke-width="2" stroke-dasharray="5.0, 7.0"><g><path d="M 28 10L 28 22L 28 34L 19 34L 10 34"></path></g></g></g><g id="g-root-cu_v2zc5x1s4re9y-stroke" data-item-order="1000000000" data-item-id="cu_v2zc5x1s4re9y" data-item-class="Curve Stroke ColorStrokeGray" data-item-index="none" data-renderer-id="0" transform="translate(296, 57)"><g id="cu_v2zc5x1s4re9y-stroke" fill="none" stroke-linecap="round" stroke-linejoin="round" stroke-miterlimit="4" stroke="#888888" stroke-width="2" stroke-dasharray="5.0, 7.0"><g><path d="M 28 10L 28 17.5L 28 58C 27.999999 64.627415 22.627416 69.999998 16 69.999998L 15.9 70L 10 70"></path></g></g></g><g id="g-root-cu_147zgph1s4q1af-stroke" data-item-order="1000000000" data-item-id="cu_147zgph1s4q1af" data-item-class="Curve Stroke ColorStrokeGray" data-item-index="none" data-renderer-id="0" transform="translate(338, 30)"><g id="cu_147zgph1s4q1af-stroke" fill="none" stroke-linecap="round" stroke-linejoin="round" stroke-miterlimit="4" stroke="#888888" stroke-width="2" stroke-dasharray="5.0, 7.0"><g><path d="M 58 96L 55 96L 54.9 96C 43.357245 95.999996 33.999997 86.642747 33.999997 75.099997L 34 75L 34 30.9C 33.999998 19.357248 24.64275 10 13.1 10L 13 10L 10 10"></path></g></g></g><g id="g-root-cu_v2zc5x1s4rea0-stroke" data-item-order="1000000000" data-item-id="cu_v2zc5x1s4rea0" data-item-class="Curve Stroke ColorStrokeGray" data-item-index="none" data-renderer-id="0" transform="translate(638, 57)"><g id="cu_v2zc5x1s4rea0-stroke" fill="none" stroke-linecap="round" stroke-linejoin="round" stroke-miterlimit="4" stroke="#888888" stroke-width="2" stroke-dasharray="5.0, 7.0"><g><path d="M 10 10L 10 22L 10 34L 19 34L 28 34"></path></g></g></g><g id="g-root-cu_v2zc5x1s4rea3-stroke" data-item-order="1000000000" data-item-id="cu_v2zc5x1s4rea3" data-item-class="Curve Stroke ColorStrokeGray" data-item-index="none" data-renderer-id="0" transform="translate(638, 57)"><g id="cu_v2zc5x1s4rea3-stroke" fill="none" stroke-linecap="round" stroke-linejoin="round" stroke-miterlimit="4" stroke="#888888" stroke-width="2" stroke-dasharray="5.0, 7.0"><g><path d="M 10 10L 10 17.5L 10 58C 10.000002 64.627417 15.372585 70 22.000002 69.999999L 22.1 70L 28 70"></path></g></g></g><g id="g-root-tx_database_4ik4lx1s58ah7-stroke" data-item-order="1000000000" data-item-id="tx_database_4ik4lx1s58ah7" data-item-class="Label Stroke" data-item-index="none" data-renderer-id="0" transform="translate(662, 69)"></g><g id="g-root-hier_1heg3851s4x1ql-stroke" data-item-order="1000000000" data-item-id="hier_1heg3851s4x1ql" data-item-class="Icon Stroke" data-item-index="none" data-renderer-id="0" transform="translate(452, 90)"><g id="hier_1heg3851s4x1ql-stroke" fill="none" stroke-linecap="round" stroke-linejoin="round" stroke-miterlimit="4" stroke="#484848" stroke-width="2"><g><path d="M 18 45L 18 40C 18 39.447716 18.447716 39 19 39L 49 39C 49.552284 39 50 39.447716 50 40L 50 45M 34 33L 34 45M 12 51C 12 54.313709 14.686292 57 18 57C 21.313709 57 24 54.313709 24 51C 24 47.686295 21.313709 45 18 45C 14.686292 45 12 47.686295 12 51ZM 28 51C 28 54.313709 30.686293 57 34 57C 37.313709 57 40 54.313709 40 51C 40 47.686295 37.313709 45 34 45C 30.686293 45 28 47.686295 28 51ZM 44 51C 44 54.313709 46.686295 57 50 57C 53.313709 57 56 54.313709 56 51C 56 47.686295 53.313709 45 50 45C 46.686295 45 44 47.686295 44 51ZM 44 31C 44 32.104568 43.104568 33 42 33L 26 33C 24.895432 33 24 32.104568 24 31L 24 21C 24 19.895432 24.895432 19 26 19L 42 19C 43.104568 19 44 19.895432 44 21ZM 32 26C 32 27.10457 32.895432 28 34 28C 35.104568 28 36 27.10457 36 26C 36 24.895432 35.104568 24 34 24C 32.895432 24 32 24.895432 32 26ZM 40 19L 40 17C 40 13.686292 37.313709 11 34 11C 30.686293 11 28 13.686292 28 17L 28 19"></path></g></g></g><g id="g-root-tx_thirdpar_de74ut1s589oi-stroke" data-item-order="1000000000" data-item-id="tx_thirdpar_de74ut1s589oi" data-item-class="Label Stroke" data-item-index="none" data-renderer-id="0" transform="translate(2, 105)"></g><g id="g-root-tx_dataretr_3d3kl1s5883o-stroke" data-item-order="1000000000" data-item-id="tx_dataretr_3d3kl1s5883o" data-item-class="Label Stroke" data-item-index="none" data-renderer-id="0" transform="translate(662, 105)"></g><g id="g-root-cloc_zlanh11s542df-stroke" data-item-order="1000000000" data-item-id="cloc_zlanh11s542df" data-item-class="Icon Stroke" data-item-index="none" data-renderer-id="0" transform="translate(626, 15)"><g id="cloc_zlanh11s542df-stroke" fill="none" stroke-linecap="round" stroke-linejoin="round" stroke-miterlimit="4" stroke="#3bc482" stroke-width="2"><g><path d="M 10.6775 15.62625C 10.6775 18.387674 15.994119 20.626251 22.5525 20.626251C 29.110882 20.626251 34.427498 18.387674 34.427498 15.62625C 34.427498 12.864826 29.110882 10.62625 22.5525 10.62625C 15.994119 10.62625 10.6775 12.864826 10.6775 15.62625ZM 22.5525 25.625C 15.995 25.625 10.6775 23.387501 10.6775 20.625M 20.6775 31.1875C 15.01125 30.8125 10.6775 28.74375 10.6775 26.251251M 21.3025 36.849998C 15.3325 36.58625 10.6775 34.459999 10.6775 31.876249L 10.6775 15.625M 34.427498 15.62625L 34.427498 21.251251M 24.421249 31.876249C 24.421251 36.018387 27.779116 39.376251 31.921251 39.376251C 36.063389 39.376251 39.421249 36.018387 39.421249 31.876251C 39.421249 27.734116 36.063389 24.376251 31.921251 24.376251C 27.779116 24.376251 24.421251 27.734116 24.421251 31.876251ZM 34.421249 31.876249L 31.921251 31.876249L 31.921251 28.126251"></path></g></g></g><g id="g-root-tx_infrastr_1qa33h11s4x0xw-stroke" data-item-order="1000000000" data-item-id="tx_infrastr_1qa33h11s4x0xw" data-item-class="Label Stroke" data-item-index="none" data-renderer-id="0" transform="translate(410, 144)"></g><g id="g-root-hand_1hjfz2t1s4pzph-stroke" data-item-order="1000000000" data-item-id="hand_1hjfz2t1s4pzph" data-item-class="Icon Stroke" data-item-index="none" data-renderer-id="0" transform="translate(296, 165)"><g id="hand_1hjfz2t1s4pzph-stroke" fill="none" stroke-linecap="round" stroke-linejoin="round" stroke-miterlimit="4" stroke="#dd8433" stroke-width="2"><g><path d="M 35.235001 22.397501C 35.242428 19.689741 34.160275 17.092827 32.232235 15.191594C 30.304199 13.29036 27.692389 12.244664 24.985001 12.29C 23.463749 12.29 21.1975 12.62875 21.860001 15.372499L 21.860001 15.372499C 23.002501 18.46875 28.66375 13.935 30.462502 21.29875C 31.800001 26.772501 27.096251 27.785 25.971251 26.66L 23.4025 24.091249C 22.670418 23.358555 21.482946 23.358168 20.750383 24.090384C 20.017822 24.822599 20.017651 26.010071 20.75 26.7425L 25.41 32.022499C 26.347748 32.959965 26.874716 34.231525 26.875 35.557499L 26.875 37.709999M 34 17.408751C 36.2425 17.408751 39.375 19.38625 39.375 21.772501L 39.375 37.709999M 15.20625 19.8925C 15.206045 20.73695 15.89055 21.421619 16.735001 21.421619C 17.579451 21.421619 18.263954 20.73695 18.26375 19.8925C 18.263954 19.04805 17.579451 18.36338 16.735001 18.36338C 15.89055 18.36338 15.206045 19.04805 15.20625 19.8925M 20.940001 23.92375L 19.678749 23.6325C 19.159851 23.512266 18.636644 23.815145 18.4825 24.325001L 18.032499 25.806252C 17.860067 26.379417 17.332293 26.77178 16.733749 26.77178C 16.135208 26.77178 15.607434 26.379417 15.435 25.806252L 14.98625 24.325001C 14.832106 23.815145 14.3089 23.512266 13.79 23.632502L 12.29 23.98C 11.706289 24.111059 11.105257 23.84676 10.807303 23.327995C 10.50935 22.809227 10.583915 22.156898 10.99125 21.71875L 12.04 20.59375C 12.402578 20.201832 12.402578 19.59692 12.04 19.205L 10.99125 18.067499C 10.583494 17.629213 10.508891 16.976389 10.807255 16.457409C 11.105618 15.938429 11.707316 15.674411 12.29125 15.80625L 13.79125 16.153749C 14.310101 16.27313 14.832648 15.969769 14.98625 15.460001L 15.43625 13.98C 15.611376 13.410971 16.137131 13.022686 16.7325 13.022686C 17.327869 13.022686 17.853624 13.410971 18.028751 13.98L 18.47875 15.46C 18.632895 15.969947 19.155834 16.273218 19.674999 16.153749L 21.174999 15.80625C 21.75938 15.672847 22.362415 15.936296 22.6616 16.455706C 22.960785 16.975115 22.886105 17.628935 22.477501 18.067499L 21.428749 19.19875C 21.064959 19.590193 21.064959 20.196056 21.428749 20.5875L 22.477501 21.7125C 22.968395 22.237259 22.968395 23.052742 22.477501 23.577501"></path></g></g></g><g id="g-root-plug_qp19at1s4oky5-stroke" data-item-order="1000000000" data-item-id="plug_qp19at1s4oky5" data-item-class="Icon Stroke" data-item-index="none" data-renderer-id="0" transform="translate(296, 15)"><g id="plug_qp19at1s4oky5-stroke" fill="none" stroke-linecap="round" stroke-linejoin="round" stroke-miterlimit="4" stroke="#4682e3" stroke-width="2"><g><path d="M 24.36125 23.08375L 24.36125 16.055C 24.361938 15.349742 24.933493 14.778189 25.63875 14.7775L 28.195 14.7775M 23.08375 18.61125L 26.2775 18.61125M 21.61375 39.375L 19.6975 39.375C 17.227957 39.374222 15.226411 37.37204 15.226411 34.9025C 15.226411 32.432957 17.227957 30.430779 19.6975 30.43L 21.61375 30.43ZM 21.61375 32.981251L 24.36125 32.981251M 21.61375 36.82375L 24.36125 36.82375M 34.92625 34.9025L 38.736252 34.9025M 14.841249 34.9025L 11.26375 34.9025M 27.421249 30.43L 30.32625 30.43C 32.795792 30.430779 34.79734 32.432957 34.79734 34.9025C 34.79734 37.37204 32.795792 39.374222 30.32625 39.375L 27.421249 39.375ZM 19.56875 10.625L 31.07 10.625C 31.07 10.625 33.625 10.625 33.625 13.18L 33.625 24.68125C 33.625 24.68125 33.625 27.23625 31.07 27.23625L 19.56875 27.23625C 19.56875 27.23625 17.01375 27.23625 17.01375 24.68125L 17.01375 13.18C 17.01375 13.18 17.01375 10.625 19.56875 10.625"></path></g></g></g><g id="g-root-tx_services_1lz9h791s4pyx8-stroke" data-item-order="1000000000" data-item-id="tx_services_1lz9h791s4pyx8" data-item-class="Label Stroke" data-item-index="none" data-renderer-id="0" transform="translate(206, 168)"></g><g id="g-root-cu_zisuad1s4rdhk-stroke" data-item-order="1000000000" data-item-id="cu_zisuad1s4rdhk" data-item-class="Curve Stroke ColorStrokeGray" data-item-index="none" data-renderer-id="0" transform="translate(338, 166)"><g id="cu_zisuad1s4rdhk-stroke" fill="none" stroke-linecap="round" stroke-linejoin="round" stroke-miterlimit="4" stroke="#888888" stroke-width="2" stroke-dasharray="5.0, 7.0"><g><path d="M 58 10L 55 10L 54.9 10C 51.522851 10.003929 47.800585 10.613027 43.900001 11.799999C 41.565213 12.503613 38.063122 14.343095 34 17.000001C 29.936878 19.656907 26.434787 21.496389 24.1 22.200001C 20.199417 23.386972 16.477151 23.99607 13.100001 24L 13 24L 10 24"></path></g></g></g><g id="g-root-cu_147zgph1s4q1al-stroke" data-item-order="1000000000" data-item-id="cu_147zgph1s4q1al" data-item-class="Curve Stroke ColorStrokeGray" data-item-index="none" data-renderer-id="0" transform="translate(566, 166)"><g id="cu_147zgph1s4q1al-stroke" fill="none" stroke-linecap="round" stroke-linejoin="round" stroke-miterlimit="4" stroke="#888888" stroke-width="2" stroke-dasharray="5.0, 7.0"><g><path d="M 10 10L 13 10L 13.1 10C 16.47715 10.00393 20.199416 10.613028 24.1 11.8C 26.434787 12.503612 29.936878 14.343094 34 16.999999C 38.063122 19.656905 41.565214 21.496387 43.900001 22.199999C 47.800584 23.386973 51.52285 23.996071 54.900001 24.000001L 55 24L 58 24"></path></g></g></g><g id="g-root-draw_1qckzth1s55f61-stroke" data-item-order="1000000000" data-item-id="draw_1qckzth1s55f61" data-item-class="Icon Stroke" data-item-index="none" data-renderer-id="0" transform="translate(626, 165)"><g id="draw_1qckzth1s55f61-stroke" fill="none" stroke-linecap="round" stroke-linejoin="round" stroke-miterlimit="4" stroke="#b65edf" stroke-width="2"><g><path d="M 31.875 29.375C 31.184645 29.375 30.625 29.934643 30.625 30.625C 30.625 31.315355 30.065355 31.875 29.375 31.875L 20.625 31.875C 19.934645 31.875 19.375 31.315355 19.375 30.625C 19.375 29.934643 18.815355 29.375 18.125 29.375L 11.875 29.375C 11.184644 29.375 10.625 29.934643 10.625 30.625L 10.625 38.125C 10.625 38.815353 11.184644 39.375 11.875 39.375L 38.125 39.375C 38.815353 39.375 39.375 38.815353 39.375 38.125L 39.375 30.625C 39.375 29.934643 38.815353 29.375 38.125 29.375ZM 19.375 26.875L 19.375 11.875C 19.375 11.184644 19.934645 10.625 20.625 10.625L 34.375 10.625C 35.065353 10.625 35.625 11.184644 35.625 11.875L 35.625 29.375M 14.375 29.375L 14.375 14.375C 14.375 13.684644 14.934644 13.125 15.625 13.125L 16.875 13.125M 25.625 15.625L 31.875 15.625M 23.125 19.375L 31.875 19.375M 23.125 23.125L 31.875 23.125"></path></g></g></g><g id="g-root-tx_reposito_6hh051s55hq8-stroke" data-item-order="1000000000" data-item-id="tx_reposito_6hh051s55hq8" data-item-class="Label Stroke" data-item-index="none" data-renderer-id="0" transform="translate(662, 168)"></g><g id="g-root-tx_authenti_1lt0n6d1s589hj-stroke" data-item-order="1000000000" data-item-id="tx_authenti_1lt0n6d1s589hj" data-item-class="Label Stroke" data-item-index="none" data-renderer-id="0" transform="translate(74, 219)"></g><g id="g-root-cu_qn5u1h1s4rf2i-stroke" data-item-order="1000000000" data-item-id="cu_qn5u1h1s4rf2i" data-item-class="Curve Stroke ColorStrokeGray" data-item-index="none" data-renderer-id="0" transform="translate(296, 207)"><g id="cu_qn5u1h1s4rf2i-stroke" fill="none" stroke-linecap="round" stroke-linejoin="round" stroke-miterlimit="4" stroke="#888888" stroke-width="2" stroke-dasharray="5.0, 7.0"><g><path d="M 28 10L 28 22L 28 34L 19 34L 10 34"></path></g></g></g><g id="g-root-cu_m7cbx11s4rfut-stroke" data-item-order="1000000000" data-item-id="cu_m7cbx11s4rfut" data-item-class="Curve Stroke ColorStrokeGray" data-item-index="none" data-renderer-id="0" transform="translate(296, 207)"><g id="cu_m7cbx11s4rfut-stroke" fill="none" stroke-linecap="round" stroke-linejoin="round" stroke-miterlimit="4" stroke="#888888" stroke-width="2" stroke-dasharray="5.0, 7.0"><g><path d="M 28 10L 28 17.5L 28 58C 27.999999 64.627415 22.627416 69.999998 16 69.999998L 15.9 70L 10 70"></path></g></g></g><g id="g-root-cu_qn5u1h1s4rf2d-stroke" data-item-order="1000000000" data-item-id="cu_qn5u1h1s4rf2d" data-item-class="Curve Stroke ColorStrokeGray" data-item-index="none" data-renderer-id="0" transform="translate(638, 207)"><g id="cu_qn5u1h1s4rf2d-stroke" fill="none" stroke-linecap="round" stroke-linejoin="round" stroke-miterlimit="4" stroke="#888888" stroke-width="2" stroke-dasharray="5.0, 7.0"><g><path d="M 10 10L 10 22L 10 34L 19 34L 28 34"></path></g></g></g><g id="g-root-cu_qn5u1h1s4rf2g-stroke" data-item-order="1000000000" data-item-id="cu_qn5u1h1s4rf2g" data-item-class="Curve Stroke ColorStrokeGray" data-item-index="none" data-renderer-id="0" transform="translate(638, 207)"><g id="cu_qn5u1h1s4rf2g-stroke" fill="none" stroke-linecap="round" stroke-linejoin="round" stroke-miterlimit="4" stroke="#888888" stroke-width="2" stroke-dasharray="5.0, 7.0"><g><path d="M 10 10L 10 17.5L 10 58C 10.000002 64.627417 15.372585 70 22.000002 69.999999L 22.1 70L 28 70"></path></g></g></g><g id="g-root-tx_dataacce_3d3kl1s5883p-stroke" data-item-order="1000000000" data-item-id="tx_dataacce_3d3kl1s5883p" data-item-class="Label Stroke" data-item-index="none" data-renderer-id="0" transform="translate(662, 219)"></g><g id="g-root-tx_entityma_1q8u5at1s588pa-stroke" data-item-order="1000000000" data-item-id="tx_entityma_1q8u5at1s588pa" data-item-class="Label Stroke" data-item-index="none" data-renderer-id="0" transform="translate(662, 255)"></g><g id="g-root-tx_adapters_13zval11s4omj0-stroke" data-item-order="1000000000" data-item-id="tx_adapters_13zval11s4omj0" data-item-class="Label Stroke" data-item-index="none" data-renderer-id="0" transform="translate(194, 18)"></g><g id="g-root-tx_notifica_1lt0n6d1s589hk-stroke" data-item-order="1000000000" data-item-id="tx_notifica_1lt0n6d1s589hk" data-item-class="Label Stroke" data-item-index="none" data-renderer-id="0" transform="translate(98, 255)"></g></g></g></svg>