<?xml version="1.0" encoding="utf-8" standalone="yes"?>
<!DOCTYPE svg PUBLIC "-//W3C//DTD SVG 1.1//EN" "http://www.w3.org/Graphics/SVG/1.1/DTD/svg11.dtd">
<svg width="889" height="451" viewBox="0 0 889 451" style="fill:none;stroke:none;fill-rule:evenodd;clip-rule:evenodd;stroke-linecap:round;stroke-linejoin:round;stroke-miterlimit:1.5;" version="1.1" xmlns="http://www.w3.org/2000/svg" xmlns:xlink="http://www.w3.org/1999/xlink"><style id="fontImports">@import url("https://fonts.googleapis.com/css2?family=Roboto:wght@400;700&amp;display=block");</style><rect id="" x="0" y="0" width="889" height="451" style="fill: #ffffff;"></rect><g id="items" style="isolation: isolate"><g id="blend" style="mix-blend-mode:normal"><g id="g-root-ro_1ly06hx1rv33f2-fill" data-item-order="999978832" data-item-id="ro_1ly06hx1rv33f2" data-item-class="Shape Stroke Fill" data-item-index="none" data-renderer-id="0" transform="translate(350, 78)"><g id="ro_1ly06hx1rv33f2-fill" stroke="none" fill="#f0f0f0"><g><path d="M 34 10L 154 10C 154 10 178 10 178 34L 178 112C 178 112 178 136 154 136L 34 136C 34 136 10 136 10 112L 10 34C 10 34 10 10 34 10"></path></g></g></g><g id="g-root-ro_hydsdh1ruozk7-fill" data-item-order="999983800" data-item-id="ro_hydsdh1ruozk7" data-item-class="Shape Stroke Fill" data-item-index="none" data-renderer-id="0" transform="translate(566, 153)"><g id="ro_hydsdh1ruozk7-fill" stroke="none" fill="#f7e6fe"><g><path d="M 22 10L 298 10C 298 10 310 10 310 22L 310 52C 310 52 310 64 298 64L 22 64C 22 64 10 64 10 52L 10 22C 10 22 10 10 22 10"></path></g></g></g><g id="g-root-ro_1heftut1rv8pab-fill" data-item-order="999984448" data-item-id="ro_1heftut1rv8pab" data-item-class="Shape Stroke Fill" data-item-index="none" data-renderer-id="0" transform="translate(566, 3)"><g id="ro_1heftut1rv8pab-fill" stroke="none" fill="#e9fbf3"><g><path d="M 22 10L 286 10C 286 10 298 10 298 22L 298 52C 298 52 298 64 286 64L 22 64C 22 64 10 64 10 52L 10 22C 10 22 10 10 22 10"></path></g></g></g><g id="g-root-ro_i097mt1ruyubz-fill" data-item-order="999985744" data-item-id="ro_i097mt1ruyubz" data-item-class="Shape Stroke Fill" data-item-index="none" data-renderer-id="0" transform="translate(38, 153)"><g id="ro_i097mt1ruyubz-fill" stroke="none" fill="#fef2e6"><g><path d="M 22 10L 262 10C 262 10 274 10 274 22L 274 52C 274 52 274 64 262 64L 22 64C 22 64 10 64 10 52L 10 22C 10 22 10 10 22 10"></path></g></g></g><g id="g-root-ro_924b1h1rut8g3-fill" data-item-order="999987040" data-item-id="ro_924b1h1rut8g3" data-item-class="Shape Stroke Fill" data-item-index="none" data-renderer-id="0" transform="translate(314, 303)"><g id="ro_924b1h1rut8g3-fill" stroke="none" fill="#e6f9ff"><g><path d="M 22 10L 238 10C 238 10 250 10 250 22L 250 52C 250 52 250 64 238 64L 22 64C 22 64 10 64 10 52L 10 22C 10 22 10 10 22 10"></path></g></g></g><g id="g-root-ro_1uonh7p1ruw07f-fill" data-item-order="999992872" data-item-id="ro_1uonh7p1ruw07f" data-item-class="Shape Stroke Fill" data-item-index="none" data-renderer-id="0" transform="translate(170, 3)"><g id="ro_1uonh7p1ruw07f-fill" stroke="none" fill="#e6efff"><g><path d="M 22 10L 130 10C 130 10 142 10 142 22L 142 52C 142 52 142 64 130 64L 22 64C 22 64 10 64 10 52L 10 22C 10 22 10 10 22 10"></path></g></g></g><g id="g-root-tx_policesw_1upwc851rv8npd-fill" data-item-order="1000000000" data-item-id="tx_policesw_1upwc851rv8npd" data-item-class="Label Stroke" data-item-index="none" data-renderer-id="0" transform="translate(614, 18)"><g id="tx_policesw_1upwc851rv8npd-fill" stroke="none" fill="#3bc482"><g><text style="font: 20px Roboto, sans-serif; white-space: pre;" font-weight="20px" font-size="Roboto," font-family="sans-serif"><tspan x="16.65" y="33.75" dominant-baseline="ideographic">Polices Web Optimisées</tspan></text></g></g></g><g id="g-root-tx_typesdep_6hasl1rut98s-fill" data-item-order="1000000000" data-item-id="tx_typesdep_6hasl1rut98s" data-item-class="Label Stroke" data-item-index="none" data-renderer-id="0" transform="translate(98, 69)"><g id="tx_typesdep_6hasl1rut98s-fill" stroke="none" fill="#484848"><g><text style="font: 20px Roboto, sans-serif; white-space: pre;" font-weight="20px" font-size="Roboto," font-family="sans-serif"><tspan x="13.21" y="33.75" dominant-baseline="ideographic">Types de Polices</tspan></text></g></g></g><g id="g-root-cu_958oh11ruysr3-fill" data-item-order="1000000000" data-item-id="cu_958oh11ruysr3" data-item-class="Curve Stroke ColorStrokeGray" data-item-index="none" data-renderer-id="0" transform="translate(260, 57)"></g><g id="g-root-cu_dl26lh1ruysqq-fill" data-item-order="1000000000" data-item-id="cu_dl26lh1ruysqq" data-item-class="Curve Stroke ColorStrokeGray" data-item-index="none" data-renderer-id="0" transform="translate(260, 57)"></g><g id="g-root-cu_4pf6cl1ruytjg-fill" data-item-order="1000000000" data-item-id="cu_4pf6cl1ruytjg" data-item-class="Curve Stroke ColorStrokeGray" data-item-index="none" data-renderer-id="0" transform="translate(590, 57)"></g><g id="g-root-cu_4pf6cl1ruytjj-fill" data-item-order="1000000000" data-item-id="cu_4pf6cl1ruytjj" data-item-class="Curve Stroke ColorStrokeGray" data-item-index="none" data-renderer-id="0" transform="translate(590, 57)"></g><g id="g-root-1_1lu9bz91rv8oi2-fill" data-item-order="1000000000" data-item-id="1_1lu9bz91rv8oi2" data-item-class="Icon Stroke" data-item-index="none" data-renderer-id="0" transform="translate(578, 15)"></g><g id="g-root-tx_formatwo_1usebqd1rut6o6-fill" data-item-order="1000000000" data-item-id="tx_formatwo_1usebqd1rut6o6" data-item-class="Label Stroke" data-item-index="none" data-renderer-id="0" transform="translate(614, 69)"><g id="tx_formatwo_1usebqd1rut6o6-fill" stroke="none" fill="#484848"><g><text style="font: 20px Roboto, sans-serif; white-space: pre;" font-weight="20px" font-size="Roboto," font-family="sans-serif"><tspan x="15.13" y="33.75" dominant-baseline="ideographic">Format WOFF2</tspan></text></g></g></g><g id="g-root-tx_licences_6hasl1rut98t-fill" data-item-order="1000000000" data-item-id="tx_licences_6hasl1rut98t" data-item-class="Label Stroke" data-item-index="none" data-renderer-id="0" transform="translate(74, 105)"><g id="tx_licences_6hasl1rut98t-fill" stroke="none" fill="#484848"><g><text style="font: 20px Roboto, sans-serif; white-space: pre;" font-weight="20px" font-size="Roboto," font-family="sans-serif"><tspan x="12.07" y="33.75" dominant-baseline="ideographic">Licences de Polices</tspan></text></g></g></g><g id="g-root-hash_1ly06hx1rv33f1-fill" data-item-order="1000000000" data-item-id="hash_1ly06hx1rv33f1" data-item-class="Icon Stroke" data-item-index="none" data-renderer-id="0" transform="translate(410, 102)"></g><g id="g-root-tx_avantage_1usebqd1rut6o7-fill" data-item-order="1000000000" data-item-id="tx_avantage_1usebqd1rut6o7" data-item-class="Label Stroke" data-item-index="none" data-renderer-id="0" transform="translate(614, 105)"><g id="tx_avantage_1usebqd1rut6o7-fill" stroke="none" fill="#484848"><g><text style="font: 20px Roboto, sans-serif; white-space: pre;" font-weight="20px" font-size="Roboto," font-family="sans-serif"><tspan x="17.22" y="33.75" dominant-baseline="ideographic">Avantages</tspan></text></g></g></g><g id="g-root-ttf_4j6fhh1ruvzlu-fill" data-item-order="1000000000" data-item-id="ttf_4j6fhh1ruvzlu" data-item-class="Icon Stroke" data-item-index="none" data-renderer-id="0" transform="translate(260, 15)"></g><g id="g-root-tx_chargeme_146q95x1ruyv45-fill" data-item-order="1000000000" data-item-id="tx_chargeme_146q95x1ruyv45" data-item-class="Label Stroke" data-item-index="none" data-renderer-id="0" transform="translate(50, 168)"><g id="tx_chargeme_146q95x1ruyv45-fill" stroke="none" fill="#dd8433"><g><text style="font: 20px Roboto, sans-serif; white-space: pre;" font-weight="20px" font-size="Roboto," font-family="sans-serif"><tspan x="15.19" y="33.75" dominant-baseline="ideographic">Chargement Optimisé</tspan></text></g></g></g><g id="g-root-midn_qvw7vp1ruytja-fill" data-item-order="1000000000" data-item-id="midn_qvw7vp1ruytja" data-item-class="Icon Stroke" data-item-index="none" data-renderer-id="0" transform="translate(260, 165)"></g><g id="g-root-cu_i097mt1ruyv41-fill" data-item-order="1000000000" data-item-id="cu_i097mt1ruyv41" data-item-class="Curve Stroke ColorStrokeGray" data-item-index="none" data-renderer-id="0" transform="translate(302, 162)"></g><g id="g-root-tx_typograp_1utn6qt1rv32mc-fill" data-item-order="1000000000" data-item-id="tx_typograp_1utn6qt1rv32mc" data-item-class="Label Stroke" data-item-index="none" data-renderer-id="0" transform="translate(374, 156)"><g id="tx_typograp_1utn6qt1rv32mc-fill" stroke="none" fill="#484848"><g><text style="font: 20px Roboto, sans-serif; white-space: pre;" font-weight="20px" font-size="Roboto," font-family="sans-serif"><tspan x="15.25" y="33.75" dominant-baseline="ideographic">Typographie</tspan></text></g></g></g><g id="g-root-cu_dkfpid1ruyv4e-fill" data-item-order="1000000000" data-item-id="cu_dkfpid1ruyv4e" data-item-class="Curve Stroke ColorStrokeGray" data-item-index="none" data-renderer-id="0" transform="translate(518, 162)"></g><g id="g-root-cu_dkfpid1ruyv4b-fill" data-item-order="1000000000" data-item-id="cu_dkfpid1ruyv4b" data-item-class="Curve Stroke ColorStrokeGray" data-item-index="none" data-renderer-id="0" transform="translate(518, 30)"></g><g id="g-root-1_me7ahx1ruoyry-fill" data-item-order="1000000000" data-item-id="1_me7ahx1ruoyry" data-item-class="Icon Stroke" data-item-index="none" data-renderer-id="0" transform="translate(578, 165)"></g><g id="g-root-tx_variante_zp1bs51rup0ct-fill" data-item-order="1000000000" data-item-id="tx_variante_zp1bs51rup0ct" data-item-class="Label Stroke" data-item-index="none" data-renderer-id="0" transform="translate(614, 168)"><g id="tx_variante_zp1bs51rup0ct-fill" stroke="none" fill="#b65edf"><g><text style="font: 20px Roboto, sans-serif; white-space: pre;" font-weight="20px" font-size="Roboto," font-family="sans-serif"><tspan x="14.56" y="33.75" dominant-baseline="ideographic">Variantes Typographiques</tspan></text></g></g></g><g id="g-root-cu_9lo851ruyuby-fill" data-item-order="1000000000" data-item-id="cu_9lo851ruyuby" data-item-class="Curve Stroke ColorStrokeGray" data-item-index="none" data-renderer-id="0" transform="translate(260, 207)"></g><g id="g-root-cu_1uuw82t1ruyux5-fill" data-item-order="1000000000" data-item-id="cu_1uuw82t1ruyux5" data-item-class="Curve Stroke ColorStrokeGray" data-item-index="none" data-renderer-id="0" transform="translate(260, 207)"></g><g id="g-root-cu_i097mt1ruyv44-fill" data-item-order="1000000000" data-item-id="cu_i097mt1ruyv44" data-item-class="Curve Stroke ColorStrokeGray" data-item-index="none" data-renderer-id="0" transform="translate(434, 204)"></g><g id="g-root-tx_chargeme_1hgxtd11rut896-fill" data-item-order="1000000000" data-item-id="tx_chargeme_1hgxtd11rut896" data-item-class="Label Stroke" data-item-index="none" data-renderer-id="0" transform="translate(38, 219)"><g id="tx_chargeme_1hgxtd11rut896-fill" stroke="none" fill="#484848"><g><text style="font: 20px Roboto, sans-serif; white-space: pre;" font-weight="20px" font-size="Roboto," font-family="sans-serif"><tspan x="14.66" y="33.75" dominant-baseline="ideographic">Chargement Paresseux</tspan></text></g></g></g><g id="g-root-cu_958oh11ruytj5-fill" data-item-order="1000000000" data-item-id="cu_958oh11ruytj5" data-item-class="Curve Stroke ColorStrokeGray" data-item-index="none" data-renderer-id="0" transform="translate(590, 207)"></g><g id="g-root-cu_9lo851ruyubw-fill" data-item-order="1000000000" data-item-id="cu_9lo851ruyubw" data-item-class="Curve Stroke ColorStrokeGray" data-item-index="none" data-renderer-id="0" transform="translate(590, 207)"></g><g id="g-root-tx_grasital_1qcktlx1rut7gg-fill" data-item-order="1000000000" data-item-id="tx_grasital_1qcktlx1rut7gg" data-item-class="Label Stroke" data-item-index="none" data-renderer-id="0" transform="translate(614, 219)"><g id="tx_grasital_1qcktlx1rut7gg-fill" stroke="none" fill="#484848"><g><text style="font: 20px Roboto, sans-serif; white-space: pre;" font-weight="20px" font-size="Roboto," font-family="sans-serif"><tspan x="15.32" y="33.75" dominant-baseline="ideographic">Gras, Italique, etc.</tspan></text></g></g></g><g id="g-root-tx_sousense_1d14b8l1rut91f-fill" data-item-order="1000000000" data-item-id="tx_sousense_1d14b8l1rut91f" data-item-class="Label Stroke" data-item-index="none" data-renderer-id="0" transform="translate(2, 255)"><g id="tx_sousense_1d14b8l1rut91f-fill" stroke="none" fill="#484848"><g><text style="font: 20px Roboto, sans-serif; white-space: pre;" font-weight="20px" font-size="Roboto," font-family="sans-serif"><tspan x="14.03" y="33.75" dominant-baseline="ideographic">Sous-ensembles de Polices</tspan></text></g></g></g><g id="g-root-tx_variante_1hgxtd11rut895-fill" data-item-order="1000000000" data-item-id="tx_variante_1hgxtd11rut895" data-item-class="Label Stroke" data-item-index="none" data-renderer-id="0" transform="translate(614, 255)"><g id="tx_variante_1hgxtd11rut895-fill" stroke="none" fill="#484848"><g><text style="font: 20px Roboto, sans-serif; white-space: pre;" font-weight="20px" font-size="Roboto," font-family="sans-serif"><tspan x="17.43" y="33.75" dominant-baseline="ideographic">Variantes Personnalisées</tspan></text></g></g></g><g id="g-root-tx_policess_1463s2t1rut6od-fill" data-item-order="1000000000" data-item-id="tx_policess_1463s2t1rut6od" data-item-class="Label Stroke" data-item-index="none" data-renderer-id="0" transform="translate(362, 405)"><g id="tx_policess_1463s2t1rut6od-fill" stroke="none" fill="#484848"><g><text style="font: 20px Roboto, sans-serif; white-space: pre;" font-weight="20px" font-size="Roboto," font-family="sans-serif"><tspan x="14.57" y="33.75" dominant-baseline="ideographic">Polices Spécifiques aux Langues</tspan></text></g></g></g><g id="g-root-tran_dhxt5x1rut7nu-fill" data-item-order="1000000000" data-item-id="tran_dhxt5x1rut7nu" data-item-class="Icon Stroke" data-item-index="none" data-renderer-id="0" transform="translate(326, 315)"></g><g id="g-root-tx_supportm_mdktet1rut6v5-fill" data-item-order="1000000000" data-item-id="tx_supportm_mdktet1rut6v5" data-item-class="Label Stroke" data-item-index="none" data-renderer-id="0" transform="translate(362, 318)"><g id="tx_supportm_mdktet1rut6v5-fill" stroke="none" fill="#17b0e3"><g><text style="font: 20px Roboto, sans-serif; white-space: pre;" font-weight="20px" font-size="Roboto," font-family="sans-serif"><tspan x="13.11" y="33.75" dominant-baseline="ideographic">Support Multilingue</tspan></text></g></g></g><g id="g-root-cu_1uuw82t1ruyux7-fill" data-item-order="1000000000" data-item-id="cu_1uuw82t1ruyux7" data-item-class="Curve Stroke ColorStrokeGray" data-item-index="none" data-renderer-id="0" transform="translate(338, 357)"></g><g id="g-root-cu_1uuw82t1ruyuxa-fill" data-item-order="1000000000" data-item-id="cu_1uuw82t1ruyuxa" data-item-class="Curve Stroke ColorStrokeGray" data-item-index="none" data-renderer-id="0" transform="translate(338, 357)"></g><g id="g-root-tx_jeuxdeca_1463s2t1rut6oc-fill" data-item-order="1000000000" data-item-id="tx_jeuxdeca_1463s2t1rut6oc" data-item-class="Label Stroke" data-item-index="none" data-renderer-id="0" transform="translate(362, 369)"><g id="tx_jeuxdeca_1463s2t1rut6oc-fill" stroke="none" fill="#484848"><g><text style="font: 20px Roboto, sans-serif; white-space: pre;" font-weight="20px" font-size="Roboto," font-family="sans-serif"><tspan x="14.71" y="33.75" dominant-baseline="ideographic">Jeux de Caractères</tspan></text></g></g></g><g id="g-root-cu_mg2pr91ruyubk-fill" data-item-order="1000000000" data-item-id="cu_mg2pr91ruyubk" data-item-class="Curve Stroke ColorStrokeGray" data-item-index="none" data-renderer-id="0" transform="translate(302, 30)"></g><g id="g-root-tx_polices_8ydgit1ruw1zd-fill" data-item-order="1000000000" data-item-id="tx_polices_8ydgit1ruw1zd" data-item-class="Label Stroke" data-item-index="none" data-renderer-id="0" transform="translate(182, 18)"><g id="tx_polices_8ydgit1ruw1zd-fill" stroke="none" fill="#4682e3"><g><text style="font: 20px Roboto, sans-serif; white-space: pre;" font-weight="20px" font-size="Roboto," font-family="sans-serif"><tspan x="13.51" y="33.75" dominant-baseline="ideographic">Polices</tspan></text></g></g></g><g id="g-root-ro_1ly06hx1rv33f2-stroke" data-item-order="999978832" data-item-id="ro_1ly06hx1rv33f2" data-item-class="Shape Stroke Fill" data-item-index="none" data-renderer-id="0" transform="translate(350, 78)"><g id="ro_1ly06hx1rv33f2-stroke" fill="none" stroke-linecap="round" stroke-linejoin="round" stroke-miterlimit="4" stroke="#484848" stroke-width="2"><g><path d="M 34 10L 154 10C 154 10 178 10 178 34L 178 112C 178 112 178 136 154 136L 34 136C 34 136 10 136 10 112L 10 34C 10 34 10 10 34 10"></path></g></g></g><g id="g-root-ro_hydsdh1ruozk7-stroke" data-item-order="999983800" data-item-id="ro_hydsdh1ruozk7" data-item-class="Shape Stroke Fill" data-item-index="none" data-renderer-id="0" transform="translate(566, 153)"><g id="ro_hydsdh1ruozk7-stroke" fill="none" stroke-linecap="round" stroke-linejoin="round" stroke-miterlimit="4" stroke="#b65edf" stroke-width="2"><g><path d="M 22 10L 298 10C 298 10 310 10 310 22L 310 52C 310 52 310 64 298 64L 22 64C 22 64 10 64 10 52L 10 22C 10 22 10 10 22 10"></path></g></g></g><g id="g-root-ro_1heftut1rv8pab-stroke" data-item-order="999984448" data-item-id="ro_1heftut1rv8pab" data-item-class="Shape Stroke Fill" data-item-index="none" data-renderer-id="0" transform="translate(566, 3)"><g id="ro_1heftut1rv8pab-stroke" fill="none" stroke-linecap="round" stroke-linejoin="round" stroke-miterlimit="4" stroke="#3bc482" stroke-width="2"><g><path d="M 22 10L 286 10C 286 10 298 10 298 22L 298 52C 298 52 298 64 286 64L 22 64C 22 64 10 64 10 52L 10 22C 10 22 10 10 22 10"></path></g></g></g><g id="g-root-ro_i097mt1ruyubz-stroke" data-item-order="999985744" data-item-id="ro_i097mt1ruyubz" data-item-class="Shape Stroke Fill" data-item-index="none" data-renderer-id="0" transform="translate(38, 153)"><g id="ro_i097mt1ruyubz-stroke" fill="none" stroke-linecap="round" stroke-linejoin="round" stroke-miterlimit="4" stroke="#dd8433" stroke-width="2"><g><path d="M 22 10L 262 10C 262 10 274 10 274 22L 274 52C 274 52 274 64 262 64L 22 64C 22 64 10 64 10 52L 10 22C 10 22 10 10 22 10"></path></g></g></g><g id="g-root-ro_924b1h1rut8g3-stroke" data-item-order="999987040" data-item-id="ro_924b1h1rut8g3" data-item-class="Shape Stroke Fill" data-item-index="none" data-renderer-id="0" transform="translate(314, 303)"><g id="ro_924b1h1rut8g3-stroke" fill="none" stroke-linecap="round" stroke-linejoin="round" stroke-miterlimit="4" stroke="#17b0e3" stroke-width="2"><g><path d="M 22 10L 238 10C 238 10 250 10 250 22L 250 52C 250 52 250 64 238 64L 22 64C 22 64 10 64 10 52L 10 22C 10 22 10 10 22 10"></path></g></g></g><g id="g-root-ro_1uonh7p1ruw07f-stroke" data-item-order="999992872" data-item-id="ro_1uonh7p1ruw07f" data-item-class="Shape Stroke Fill" data-item-index="none" data-renderer-id="0" transform="translate(170, 3)"><g id="ro_1uonh7p1ruw07f-stroke" fill="none" stroke-linecap="round" stroke-linejoin="round" stroke-miterlimit="4" stroke="#4682e3" stroke-width="2"><g><path d="M 22 10L 130 10C 130 10 142 10 142 22L 142 52C 142 52 142 64 130 64L 22 64C 22 64 10 64 10 52L 10 22C 10 22 10 10 22 10"></path></g></g></g><g id="g-root-tx_policesw_1upwc851rv8npd-stroke" data-item-order="1000000000" data-item-id="tx_policesw_1upwc851rv8npd" data-item-class="Label Stroke" data-item-index="none" data-renderer-id="0" transform="translate(614, 18)"></g><g id="g-root-tx_typesdep_6hasl1rut98s-stroke" data-item-order="1000000000" data-item-id="tx_typesdep_6hasl1rut98s" data-item-class="Label Stroke" data-item-index="none" data-renderer-id="0" transform="translate(98, 69)"></g><g id="g-root-cu_958oh11ruysr3-stroke" data-item-order="1000000000" data-item-id="cu_958oh11ruysr3" data-item-class="Curve Stroke ColorStrokeGray" data-item-index="none" data-renderer-id="0" transform="translate(260, 57)"><g id="cu_958oh11ruysr3-stroke" fill="none" stroke-linecap="round" stroke-linejoin="round" stroke-miterlimit="4" stroke="#888888" stroke-width="2" stroke-dasharray="5.0, 7.0"><g><path d="M 28 10L 28 22L 28 34L 19 34L 10 34"></path></g></g></g><g id="g-root-cu_dl26lh1ruysqq-stroke" data-item-order="1000000000" data-item-id="cu_dl26lh1ruysqq" data-item-class="Curve Stroke ColorStrokeGray" data-item-index="none" data-renderer-id="0" transform="translate(260, 57)"><g id="cu_dl26lh1ruysqq-stroke" fill="none" stroke-linecap="round" stroke-linejoin="round" stroke-miterlimit="4" stroke="#888888" stroke-width="2" stroke-dasharray="5.0, 7.0"><g><path d="M 28 10L 28 17.5L 28 58C 27.999999 64.627415 22.627416 69.999998 16 69.999998L 15.9 70L 10 70"></path></g></g></g><g id="g-root-cu_4pf6cl1ruytjg-stroke" data-item-order="1000000000" data-item-id="cu_4pf6cl1ruytjg" data-item-class="Curve Stroke ColorStrokeGray" data-item-index="none" data-renderer-id="0" transform="translate(590, 57)"><g id="cu_4pf6cl1ruytjg-stroke" fill="none" stroke-linecap="round" stroke-linejoin="round" stroke-miterlimit="4" stroke="#888888" stroke-width="2" stroke-dasharray="5.0, 7.0"><g><path d="M 10 10L 10 22L 10 34L 19 34L 28 34"></path></g></g></g><g id="g-root-cu_4pf6cl1ruytjj-stroke" data-item-order="1000000000" data-item-id="cu_4pf6cl1ruytjj" data-item-class="Curve Stroke ColorStrokeGray" data-item-index="none" data-renderer-id="0" transform="translate(590, 57)"><g id="cu_4pf6cl1ruytjj-stroke" fill="none" stroke-linecap="round" stroke-linejoin="round" stroke-miterlimit="4" stroke="#888888" stroke-width="2" stroke-dasharray="5.0, 7.0"><g><path d="M 10 10L 10 17.5L 10 58C 10.000002 64.627417 15.372585 70 22.000002 69.999999L 22.1 70L 28 70"></path></g></g></g><g id="g-root-1_1lu9bz91rv8oi2-stroke" data-item-order="1000000000" data-item-id="1_1lu9bz91rv8oi2" data-item-class="Icon Stroke" data-item-index="none" data-renderer-id="0" transform="translate(578, 15)"><g id="1_1lu9bz91rv8oi2-stroke" fill="none" stroke-linecap="round" stroke-linejoin="round" stroke-miterlimit="4" stroke="#3bc482" stroke-width="2"><g><path d="M 13.125 35.625L 13.125 23.125C 13.125 22.434643 13.684644 21.875 14.375 21.875M 31.875 35.625L 31.875 30.625M 18.125 10.625L 25.625 10.625C 25.625 10.625 26.875 10.625 26.875 11.875L 26.875 26.875C 26.875 26.875 26.875 28.125 25.625 28.125L 18.125 28.125C 18.125 28.125 16.875 28.125 16.875 26.875L 16.875 11.875C 16.875 11.875 16.875 10.625 18.125 10.625M 30.625 10.625L 38.125 10.625C 38.125 10.625 39.375 10.625 39.375 11.875L 39.375 26.875C 39.375 26.875 39.375 28.125 38.125 28.125L 30.625 28.125C 30.625 28.125 29.375 28.125 29.375 26.875L 29.375 11.875C 29.375 11.875 29.375 10.625 30.625 10.625M 34.375 25L 34.375 25C 34.547588 25 34.6875 25.139912 34.6875 25.3125L 34.6875 25.3125C 34.6875 25.485088 34.547588 25.625 34.375 25.625L 34.375 25.625C 34.202412 25.625 34.0625 25.485088 34.0625 25.3125L 34.0625 25.3125C 34.0625 25.139912 34.202412 25 34.375 25M 24.375 35.625C 24.375 36.660534 23.535534 37.5 22.5 37.5C 21.464466 37.5 20.625 36.660534 20.625 35.625L 10.625 35.625L 10.625 36.875C 10.625 38.255714 11.744288 39.375 13.125 39.375L 31.875 39.375C 33.255714 39.375 34.375 38.255714 34.375 36.875L 34.375 35.625ZM 18.125 10.625L 20 13.125L 23.75 13.125L 25.625 10.625"></path></g></g></g><g id="g-root-tx_formatwo_1usebqd1rut6o6-stroke" data-item-order="1000000000" data-item-id="tx_formatwo_1usebqd1rut6o6" data-item-class="Label Stroke" data-item-index="none" data-renderer-id="0" transform="translate(614, 69)"></g><g id="g-root-tx_licences_6hasl1rut98t-stroke" data-item-order="1000000000" data-item-id="tx_licences_6hasl1rut98t" data-item-class="Label Stroke" data-item-index="none" data-renderer-id="0" transform="translate(74, 105)"></g><g id="g-root-hash_1ly06hx1rv33f1-stroke" data-item-order="1000000000" data-item-id="hash_1ly06hx1rv33f1" data-item-class="Icon Stroke" data-item-index="none" data-renderer-id="0" transform="translate(410, 102)"><g id="hash_1ly06hx1rv33f1-stroke" fill="none" stroke-linecap="round" stroke-linejoin="round" stroke-miterlimit="4" stroke="#484848" stroke-width="2"><g><path d="M 15 26.996L 57 26.996M 11 40.996002L 53 40.996002M 23.042 56.995998L 31.062 10.996M 37.042 56.995998L 45.062 10.996"></path></g></g></g><g id="g-root-tx_avantage_1usebqd1rut6o7-stroke" data-item-order="1000000000" data-item-id="tx_avantage_1usebqd1rut6o7" data-item-class="Label Stroke" data-item-index="none" data-renderer-id="0" transform="translate(614, 105)"></g><g id="g-root-ttf_4j6fhh1ruvzlu-stroke" data-item-order="1000000000" data-item-id="ttf_4j6fhh1ruvzlu" data-item-class="Icon Stroke" data-item-index="none" data-renderer-id="0" transform="translate(260, 15)"><g id="ttf_4j6fhh1ruvzlu-stroke" fill="none" stroke-linecap="round" stroke-linejoin="round" stroke-miterlimit="4" stroke="#4682e3" stroke-width="2"><g><path d="M 35.625 39.375C 36.315353 39.375 36.875 38.815353 36.875 38.125L 36.875 18.09375C 36.875 13.968873 33.531128 10.625 29.40625 10.625L 14.375 10.625C 13.684644 10.625 13.125 11.184644 13.125 11.875L 13.125 38.125C 13.125 38.815353 13.684644 39.375 14.375 39.375ZM 30.625 10.725L 30.625 15.625C 30.625 16.315355 31.184645 16.875 31.875 16.875L 36.775002 16.875M 15.625 25.625L 20.625 25.625M 18.125 25.625L 18.125 33.125M 23.125 25.625L 28.125 25.625M 25.625 25.625L 25.625 33.125M 30.625 33.125L 30.625 26.875C 30.625 26.184643 31.184645 25.625 31.875 25.625L 34.375 25.625M 30.625 29.375L 33.125 29.375"></path></g></g></g><g id="g-root-tx_chargeme_146q95x1ruyv45-stroke" data-item-order="1000000000" data-item-id="tx_chargeme_146q95x1ruyv45" data-item-class="Label Stroke" data-item-index="none" data-renderer-id="0" transform="translate(50, 168)"></g><g id="g-root-midn_qvw7vp1ruytja-stroke" data-item-order="1000000000" data-item-id="midn_qvw7vp1ruytja" data-item-class="Icon Stroke" data-item-index="none" data-renderer-id="0" transform="translate(260, 165)"><g id="midn_qvw7vp1ruytja-stroke" fill="none" stroke-linecap="round" stroke-linejoin="round" stroke-miterlimit="4" stroke="#dd8433" stroke-width="2"><g><path d="M 14.285714 25L 11.071428 25M 17.414286 17.414286L 15.142858 15.142858M 17.414286 32.585712L 15.142858 34.857143M 35.714287 25L 38.92857 25M 32.585712 32.585712L 34.857143 34.857143M 25 35.714287L 25 38.92857M 32.585712 17.414286L 34.857143 15.142858M 25 14.285714L 25 11.071428"></path></g></g></g><g id="g-root-cu_i097mt1ruyv41-stroke" data-item-order="1000000000" data-item-id="cu_i097mt1ruyv41" data-item-class="Curve Stroke ColorStrokeGray" data-item-index="none" data-renderer-id="0" transform="translate(302, 162)"><g id="cu_i097mt1ruyv41-stroke" fill="none" stroke-linecap="round" stroke-linejoin="round" stroke-miterlimit="4" stroke="#888888" stroke-width="2" stroke-dasharray="5.0, 7.0"><g><path d="M 58 10L 55 10L 54.9 10C 51.367721 9.979924 47.485254 10.763229 43.500001 12.299998C 41.115703 13.264006 37.743204 15.642505 34.000001 19C 30.256797 22.357494 26.884298 24.735994 24.5 25.7C 20.514747 27.236768 16.632281 28.020072 13.100001 28L 13 28L 10 28"></path></g></g></g><g id="g-root-tx_typograp_1utn6qt1rv32mc-stroke" data-item-order="1000000000" data-item-id="tx_typograp_1utn6qt1rv32mc" data-item-class="Label Stroke" data-item-index="none" data-renderer-id="0" transform="translate(374, 156)"></g><g id="g-root-cu_dkfpid1ruyv4e-stroke" data-item-order="1000000000" data-item-id="cu_dkfpid1ruyv4e" data-item-class="Curve Stroke ColorStrokeGray" data-item-index="none" data-renderer-id="0" transform="translate(518, 162)"><g id="cu_dkfpid1ruyv4e-stroke" fill="none" stroke-linecap="round" stroke-linejoin="round" stroke-miterlimit="4" stroke="#888888" stroke-width="2" stroke-dasharray="5.0, 7.0"><g><path d="M 10 10L 13 10L 13.1 10C 16.63228 9.979927 20.514747 10.763232 24.5 12.300001C 26.884298 13.264007 30.256797 15.642506 34.000001 19.000001C 37.743204 22.357495 41.115704 24.735995 43.500001 25.700001C 47.485253 27.236771 51.36772 28.020075 54.9 28.000003L 55 28L 58 28"></path></g></g></g><g id="g-root-cu_dkfpid1ruyv4b-stroke" data-item-order="1000000000" data-item-id="cu_dkfpid1ruyv4b" data-item-class="Curve Stroke ColorStrokeGray" data-item-index="none" data-renderer-id="0" transform="translate(518, 30)"><g id="cu_dkfpid1ruyv4b-stroke" fill="none" stroke-linecap="round" stroke-linejoin="round" stroke-miterlimit="4" stroke="#888888" stroke-width="2" stroke-dasharray="5.0, 7.0"><g><path d="M 10 100L 13 100L 13.1 100C 24.642748 100.000004 33.999997 90.642755 33.999998 79.100003L 34 79L 34 30.9C 33.999999 19.357249 43.357248 10.000001 54.899999 10.000002L 55 10L 58 10"></path></g></g></g><g id="g-root-1_me7ahx1ruoyry-stroke" data-item-order="1000000000" data-item-id="1_me7ahx1ruoyry" data-item-class="Icon Stroke" data-item-index="none" data-renderer-id="0" transform="translate(578, 165)"><g id="1_me7ahx1ruoyry-stroke" fill="none" stroke-linecap="round" stroke-linejoin="round" stroke-miterlimit="4" stroke="#b65edf" stroke-width="2"><g><path d="M 34.375 25.625L 34.375 18.09375C 34.375 13.968873 31.031128 10.625 26.90625 10.625L 11.875 10.625C 11.184644 10.625 10.625 11.184644 10.625 11.875L 10.625 38.125C 10.625 38.815353 11.184644 39.375 11.875 39.375L 15.625 39.375M 28.125 10.725L 28.125 15.625C 28.125 16.315355 28.684643 16.875 29.375 16.875L 34.275002 16.875M 24.375 36.875C 24.375 38.255714 23.255713 39.375 21.875 39.375C 20.494287 39.375 19.375 38.255714 19.375 36.875L 19.375 31.875C 19.375 30.494287 20.494287 29.375 21.875 29.375C 23.255713 29.375 24.375 30.494287 24.375 31.875ZM 26.875 29.375L 31.875 29.375M 29.375 29.375L 29.375 39.375M 34.375 39.375L 34.375 31.25C 34.375 30.214466 35.214466 29.375 36.25 29.375L 39.375 29.375M 34.375 34.375L 37.5 34.375"></path></g></g></g><g id="g-root-tx_variante_zp1bs51rup0ct-stroke" data-item-order="1000000000" data-item-id="tx_variante_zp1bs51rup0ct" data-item-class="Label Stroke" data-item-index="none" data-renderer-id="0" transform="translate(614, 168)"></g><g id="g-root-cu_9lo851ruyuby-stroke" data-item-order="1000000000" data-item-id="cu_9lo851ruyuby" data-item-class="Curve Stroke ColorStrokeGray" data-item-index="none" data-renderer-id="0" transform="translate(260, 207)"><g id="cu_9lo851ruyuby-stroke" fill="none" stroke-linecap="round" stroke-linejoin="round" stroke-miterlimit="4" stroke="#888888" stroke-width="2" stroke-dasharray="5.0, 7.0"><g><path d="M 28 10L 28 22L 28 34L 19 34L 10 34"></path></g></g></g><g id="g-root-cu_1uuw82t1ruyux5-stroke" data-item-order="1000000000" data-item-id="cu_1uuw82t1ruyux5" data-item-class="Curve Stroke ColorStrokeGray" data-item-index="none" data-renderer-id="0" transform="translate(260, 207)"><g id="cu_1uuw82t1ruyux5-stroke" fill="none" stroke-linecap="round" stroke-linejoin="round" stroke-miterlimit="4" stroke="#888888" stroke-width="2" stroke-dasharray="5.0, 7.0"><g><path d="M 28 10L 28 17.5L 28 58C 27.999999 64.627415 22.627416 69.999998 16 69.999998L 15.9 70L 10 70"></path></g></g></g><g id="g-root-cu_i097mt1ruyv44-stroke" data-item-order="1000000000" data-item-id="cu_i097mt1ruyv44" data-item-class="Curve Stroke ColorStrokeGray" data-item-index="none" data-renderer-id="0" transform="translate(434, 204)"><g id="cu_i097mt1ruyv44-stroke" fill="none" stroke-linecap="round" stroke-linejoin="round" stroke-miterlimit="4" stroke="#888888" stroke-width="2" stroke-dasharray="5.0, 7.0"><g><path d="M 10 10L 10 59.5L 10 109"></path></g></g></g><g id="g-root-tx_chargeme_1hgxtd11rut896-stroke" data-item-order="1000000000" data-item-id="tx_chargeme_1hgxtd11rut896" data-item-class="Label Stroke" data-item-index="none" data-renderer-id="0" transform="translate(38, 219)"></g><g id="g-root-cu_958oh11ruytj5-stroke" data-item-order="1000000000" data-item-id="cu_958oh11ruytj5" data-item-class="Curve Stroke ColorStrokeGray" data-item-index="none" data-renderer-id="0" transform="translate(590, 207)"><g id="cu_958oh11ruytj5-stroke" fill="none" stroke-linecap="round" stroke-linejoin="round" stroke-miterlimit="4" stroke="#888888" stroke-width="2" stroke-dasharray="5.0, 7.0"><g><path d="M 10 10L 10 22L 10 34L 19 34L 28 34"></path></g></g></g><g id="g-root-cu_9lo851ruyubw-stroke" data-item-order="1000000000" data-item-id="cu_9lo851ruyubw" data-item-class="Curve Stroke ColorStrokeGray" data-item-index="none" data-renderer-id="0" transform="translate(590, 207)"><g id="cu_9lo851ruyubw-stroke" fill="none" stroke-linecap="round" stroke-linejoin="round" stroke-miterlimit="4" stroke="#888888" stroke-width="2" stroke-dasharray="5.0, 7.0"><g><path d="M 10 10L 10 17.5L 10 58C 10.000002 64.627417 15.372585 70 22.000002 69.999999L 22.1 70L 28 70"></path></g></g></g><g id="g-root-tx_grasital_1qcktlx1rut7gg-stroke" data-item-order="1000000000" data-item-id="tx_grasital_1qcktlx1rut7gg" data-item-class="Label Stroke" data-item-index="none" data-renderer-id="0" transform="translate(614, 219)"></g><g id="g-root-tx_sousense_1d14b8l1rut91f-stroke" data-item-order="1000000000" data-item-id="tx_sousense_1d14b8l1rut91f" data-item-class="Label Stroke" data-item-index="none" data-renderer-id="0" transform="translate(2, 255)"></g><g id="g-root-tx_variante_1hgxtd11rut895-stroke" data-item-order="1000000000" data-item-id="tx_variante_1hgxtd11rut895" data-item-class="Label Stroke" data-item-index="none" data-renderer-id="0" transform="translate(614, 255)"></g><g id="g-root-tx_policess_1463s2t1rut6od-stroke" data-item-order="1000000000" data-item-id="tx_policess_1463s2t1rut6od" data-item-class="Label Stroke" data-item-index="none" data-renderer-id="0" transform="translate(362, 405)"></g><g id="g-root-tran_dhxt5x1rut7nu-stroke" data-item-order="1000000000" data-item-id="tran_dhxt5x1rut7nu" data-item-class="Icon Stroke" data-item-index="none" data-renderer-id="0" transform="translate(326, 315)"><g id="tran_dhxt5x1rut7nu-stroke" fill="none" stroke-linecap="round" stroke-linejoin="round" stroke-miterlimit="4" stroke="#17b0e3" stroke-width="2"><g><path d="M 23.928572 38.92857L 30.657143 23.221428C 30.786903 22.910002 31.091192 22.707142 31.42857 22.707142C 31.765949 22.707142 32.07024 22.910002 32.199997 23.221428L 38.92857 38.92857M 26.949999 31.878571L 35.907143 31.878571M 11.071428 15.357142L 30.357141 15.357142M 20.714285 11.071428L 20.714285 15.357142M 27.142857 15.357142L 14.285714 30.357141M 14.285714 15.357142L 22.728571 25.214285"></path></g></g></g><g id="g-root-tx_supportm_mdktet1rut6v5-stroke" data-item-order="1000000000" data-item-id="tx_supportm_mdktet1rut6v5" data-item-class="Label Stroke" data-item-index="none" data-renderer-id="0" transform="translate(362, 318)"></g><g id="g-root-cu_1uuw82t1ruyux7-stroke" data-item-order="1000000000" data-item-id="cu_1uuw82t1ruyux7" data-item-class="Curve Stroke ColorStrokeGray" data-item-index="none" data-renderer-id="0" transform="translate(338, 357)"><g id="cu_1uuw82t1ruyux7-stroke" fill="none" stroke-linecap="round" stroke-linejoin="round" stroke-miterlimit="4" stroke="#888888" stroke-width="2" stroke-dasharray="5.0, 7.0"><g><path d="M 10 10L 10 22L 10 34L 19 34L 28 34"></path></g></g></g><g id="g-root-cu_1uuw82t1ruyuxa-stroke" data-item-order="1000000000" data-item-id="cu_1uuw82t1ruyuxa" data-item-class="Curve Stroke ColorStrokeGray" data-item-index="none" data-renderer-id="0" transform="translate(338, 357)"><g id="cu_1uuw82t1ruyuxa-stroke" fill="none" stroke-linecap="round" stroke-linejoin="round" stroke-miterlimit="4" stroke="#888888" stroke-width="2" stroke-dasharray="5.0, 7.0"><g><path d="M 10 10L 10 17.5L 10 58C 10.000002 64.627417 15.372585 70 22.000002 69.999999L 22.1 70L 28 70"></path></g></g></g><g id="g-root-tx_jeuxdeca_1463s2t1rut6oc-stroke" data-item-order="1000000000" data-item-id="tx_jeuxdeca_1463s2t1rut6oc" data-item-class="Label Stroke" data-item-index="none" data-renderer-id="0" transform="translate(362, 369)"></g><g id="g-root-cu_mg2pr91ruyubk-stroke" data-item-order="1000000000" data-item-id="cu_mg2pr91ruyubk" data-item-class="Curve Stroke ColorStrokeGray" data-item-index="none" data-renderer-id="0" transform="translate(302, 30)"><g id="cu_mg2pr91ruyubk-stroke" fill="none" stroke-linecap="round" stroke-linejoin="round" stroke-miterlimit="4" stroke="#888888" stroke-width="2" stroke-dasharray="5.0, 7.0"><g><path d="M 58 100L 55 100L 54.9 100C 43.357252 100 34.000003 90.642751 34.000003 79.1L 34 79L 34 30.9C 33.999998 19.357248 24.64275 10 13.1 10L 13 10L 10 10"></path></g></g></g><g id="g-root-tx_polices_8ydgit1ruw1zd-stroke" data-item-order="1000000000" data-item-id="tx_polices_8ydgit1ruw1zd" data-item-class="Label Stroke" data-item-index="none" data-renderer-id="0" transform="translate(182, 18)"></g></g></g></svg>