<?xml version="1.0" encoding="utf-8" standalone="yes"?>
<!DOCTYPE svg PUBLIC "-//W3C//DTD SVG 1.1//EN" "http://www.w3.org/Graphics/SVG/1.1/DTD/svg11.dtd">
<svg width="840" height="451" viewBox="0 0 840 451" style="fill:none;stroke:none;fill-rule:evenodd;clip-rule:evenodd;stroke-linecap:round;stroke-linejoin:round;stroke-miterlimit:1.5;" version="1.1" xmlns="http://www.w3.org/2000/svg" xmlns:xlink="http://www.w3.org/1999/xlink"><style id="fontImports">@import url("https://fonts.googleapis.com/css2?family=Roboto:wght@400;700&amp;display=block");</style><rect id="" x="0" y="0" width="840" height="451" style="fill: #ffffff;"></rect><g id="items" style="isolation: isolate"><g id="blend" style="mix-blend-mode:normal"><g id="g-root-ro_1cwr9451rb2fwj-fill" data-item-order="999970768" data-item-id="ro_1cwr9451rb2fwj" data-item-class="Shape Stroke Fill" data-item-index="none" data-renderer-id="0" transform="translate(326, 54)"><g id="ro_1cwr9451rb2fwj-fill" stroke="none" fill="#f0f0f0"><g><path d="M 34 10L 154 10C 154 10 178 10 178 34L 178 160C 178 160 178 184 154 184L 34 184C 34 184 10 184 10 160L 10 34C 10 34 10 10 34 10"></path></g></g></g><g id="g-root-ro_1448pgl1rar959-fill" data-item-order="999986392" data-item-id="ro_1448pgl1rar959" data-item-class="Shape Stroke Fill" data-item-index="none" data-renderer-id="0" transform="translate(284, 303)"><g id="ro_1448pgl1rar959-fill" stroke="none" fill="#ffe7e6"><g><path d="M 22 10L 250 10C 250 10 262 10 262 22L 262 52C 262 52 262 64 250 64L 22 64C 22 64 10 64 10 52L 10 22C 10 22 10 10 22 10"></path></g></g></g><g id="g-root-ro_dhblk51rb9gqx-fill" data-item-order="999987040" data-item-id="ro_dhblk51rb9gqx" data-item-class="Shape Stroke Fill" data-item-index="none" data-renderer-id="0" transform="translate(542, 153)"><g id="ro_dhblk51rb9gqx-fill" stroke="none" fill="#fffce6"><g><path d="M 22 10L 238 10C 238 10 250 10 250 22L 250 52C 250 52 250 64 238 64L 22 64C 22 64 10 64 10 52L 10 22C 10 22 10 10 22 10"></path></g></g></g><g id="g-root-ro_141qpyd1rb84cr-fill" data-item-order="999988336" data-item-id="ro_141qpyd1rb84cr" data-item-class="Shape Stroke Fill" data-item-index="none" data-renderer-id="0" transform="translate(542, 3)"><g id="ro_141qpyd1rb84cr-fill" stroke="none" fill="#e9fbf3"><g><path d="M 22 10L 214 10C 214 10 226 10 226 22L 226 52C 226 52 226 64 214 64L 22 64C 22 64 10 64 10 52L 10 22C 10 22 10 10 22 10"></path></g></g></g><g id="g-root-ro_zkocth1rawvsz-fill" data-item-order="999988984" data-item-id="ro_zkocth1rawvsz" data-item-class="Shape Stroke Fill" data-item-index="none" data-renderer-id="0" transform="translate(74, 153)"><g id="ro_zkocth1rawvsz-fill" stroke="none" fill="#fef2e6"><g><path d="M 22 10L 202 10C 202 10 214 10 214 22L 214 52C 214 52 214 64 202 64L 22 64C 22 64 10 64 10 52L 10 22C 10 22 10 10 22 10"></path></g></g></g><g id="g-root-ro_18f2ew51rau0i5-fill" data-item-order="999989632" data-item-id="ro_18f2ew51rau0i5" data-item-class="Shape Stroke Fill" data-item-index="none" data-renderer-id="0" transform="translate(86, 3)"><g id="ro_18f2ew51rau0i5-fill" stroke="none" fill="#e6efff"><g><path d="M 22 10L 190 10C 190 10 202 10 202 22L 202 52C 202 52 202 64 190 64L 22 64C 22 64 10 64 10 52L 10 22C 10 22 10 10 22 10"></path></g></g></g><g id="g-root-tx_sonsdint_1hd78bp1rb82rt-fill" data-item-order="1000000000" data-item-id="tx_sonsdint_1hd78bp1rb82rt" data-item-class="Label Stroke" data-item-index="none" data-renderer-id="0" transform="translate(590, 18)"><g id="tx_sonsdint_1hd78bp1rb82rt-fill" stroke="none" fill="#3bc482"><g><text style="font: 20px Roboto, sans-serif; white-space: pre;" font-weight="20px" font-size="Roboto," font-family="sans-serif"><tspan x="16.13" y="33.75" dominant-baseline="ideographic">Sons d'Interface</tspan></text></g></g></g><g id="g-root-cu_qpntnp1rawu83-fill" data-item-order="1000000000" data-item-id="cu_qpntnp1rawu83" data-item-class="Curve Stroke ColorStrokeGray" data-item-index="none" data-renderer-id="0" transform="translate(236, 57)"></g><g id="g-root-cu_qpntnp1rawtfz-fill" data-item-order="1000000000" data-item-id="cu_qpntnp1rawtfz" data-item-class="Curve Stroke ColorStrokeGray" data-item-index="none" data-renderer-id="0" transform="translate(494, 30)"></g><g id="g-root-tx_formatse_zp1of91rar6rq-fill" data-item-order="1000000000" data-item-id="tx_formatse_zp1of91rar6rq" data-item-class="Label Stroke" data-item-index="none" data-renderer-id="0" transform="translate(2, 69)"><g id="tx_formatse_zp1of91rar6rq-fill" stroke="none" fill="#484848"><g><text style="font: 20px Roboto, sans-serif; white-space: pre;" font-weight="20px" font-size="Roboto," font-family="sans-serif"><tspan x="14.21" y="33.75" dominant-baseline="ideographic">Formats et Compression</tspan></text></g></g></g><g id="g-root-cu_hu0tet1rawv0u-fill" data-item-order="1000000000" data-item-id="cu_hu0tet1rawv0u" data-item-class="Curve Stroke ColorStrokeGray" data-item-index="none" data-renderer-id="0" transform="translate(236, 57)"></g><g id="g-root-cu_de7bad1rawvt4-fill" data-item-order="1000000000" data-item-id="cu_de7bad1rawvt4" data-item-class="Curve Stroke ColorStrokeGray" data-item-index="none" data-renderer-id="0" transform="translate(566, 57)"></g><g id="g-root-cu_de7bad1rawvt7-fill" data-item-order="1000000000" data-item-id="cu_de7bad1rawvt7" data-item-class="Curve Stroke ColorStrokeGray" data-item-index="none" data-renderer-id="0" transform="translate(566, 57)"></g><g id="g-root-drum_1cwr9451rb2fwi-fill" data-item-order="1000000000" data-item-id="drum_1cwr9451rb2fwi" data-item-class="Icon Stroke" data-item-index="none" data-renderer-id="0" transform="translate(386, 78)"></g><g id="g-root-tx_clicsdeb_mdl61x1rar8co-fill" data-item-order="1000000000" data-item-id="tx_clicsdeb_mdl61x1rar8co" data-item-class="Label Stroke" data-item-index="none" data-renderer-id="0" transform="translate(590, 69)"><g id="tx_clicsdeb_mdl61x1rar8co-fill" stroke="none" fill="#484848"><g><text style="font: 20px Roboto, sans-serif; white-space: pre;" font-weight="20px" font-size="Roboto," font-family="sans-serif"><tspan x="12.53" y="33.75" dominant-baseline="ideographic">Clics de Bouton</tspan></text></g></g></g><g id="g-root-tx_qualitet_qteo6d1rar7kf-fill" data-item-order="1000000000" data-item-id="tx_qualitet_qteo6d1rar7kf" data-item-class="Label Stroke" data-item-index="none" data-renderer-id="0" transform="translate(74, 105)"><g id="tx_qualitet_qteo6d1rar7kf-fill" stroke="none" fill="#484848"><g><text style="font: 20px Roboto, sans-serif; white-space: pre;" font-weight="20px" font-size="Roboto," font-family="sans-serif"><tspan x="16.67" y="33.75" dominant-baseline="ideographic">Qualité et Clarté</tspan></text></g></g></g><g id="g-root-tx_navigati_mdl61x1rar8cp-fill" data-item-order="1000000000" data-item-id="tx_navigati_mdl61x1rar8cp" data-item-class="Label Stroke" data-item-index="none" data-renderer-id="0" transform="translate(590, 105)"><g id="tx_navigati_mdl61x1rar8cp-fill" stroke="none" fill="#484848"><g><text style="font: 20px Roboto, sans-serif; white-space: pre;" font-weight="20px" font-size="Roboto," font-family="sans-serif"><tspan x="14.3" y="33.75" dominant-baseline="ideographic">Navigation dans le Menu</tspan></text></g></g></g><g id="g-root-tx_audioetc_1q7laed1rb2hhd-fill" data-item-order="1000000000" data-item-id="tx_audioetc_1q7laed1rb2hhd" data-item-class="Label Stroke" data-item-index="none" data-renderer-id="0" transform="translate(350, 132)"><g id="tx_audioetc_1q7laed1rb2hhd-fill" stroke="none" fill="#484848"><g><text style="font: 20px Roboto, sans-serif; white-space: pre;" font-weight="20px" font-size="Roboto," font-family="sans-serif"><tspan x="30.71" y="33.75" dominant-baseline="ideographic">Audio et </tspan><tspan x="16.73" y="57.75" dominant-baseline="ideographic">Conception </tspan><tspan x="36.06" y="81.75" dominant-baseline="ideographic">Sonore</tspan></text></g></g></g><g id="g-root-cu_qpntnp1rawtfw-fill" data-item-order="1000000000" data-item-id="cu_qpntnp1rawtfw" data-item-class="Curve Stroke ColorStrokeGray" data-item-index="none" data-renderer-id="0" transform="translate(278, 30)"></g><g id="g-root-high_140huxx1rawv0q-fill" data-item-order="1000000000" data-item-id="high_140huxx1rawv0q" data-item-class="Icon Stroke" data-item-index="none" data-renderer-id="0" transform="translate(236, 165)"></g><g id="g-root-soun_1cxdq791rb83k2-fill" data-item-order="1000000000" data-item-id="soun_1cxdq791rb83k2" data-item-class="Icon Stroke" data-item-index="none" data-renderer-id="0" transform="translate(554, 15)"></g><g id="g-root-tx_effetsso_1cw4v6t1rawu81-fill" data-item-order="1000000000" data-item-id="tx_effetsso_1cw4v6t1rawu81" data-item-class="Label Stroke" data-item-index="none" data-renderer-id="0" transform="translate(86, 168)"><g id="tx_effetsso_1cw4v6t1rawu81-fill" stroke="none" fill="#dd8433"><g><text style="font: 20px Roboto, sans-serif; white-space: pre;" font-weight="20px" font-size="Roboto," font-family="sans-serif"><tspan x="16.78" y="33.75" dominant-baseline="ideographic">Effets Sonores</tspan></text></g></g></g><g id="g-root-cu_m9ubj91rawu8d-fill" data-item-order="1000000000" data-item-id="cu_m9ubj91rawu8d" data-item-class="Curve Stroke ColorStrokeGray" data-item-index="none" data-renderer-id="0" transform="translate(278, 170)"></g><g id="g-root-cu_v5hbs51rawtfm-fill" data-item-order="1000000000" data-item-id="cu_v5hbs51rawtfm" data-item-class="Curve Stroke ColorStrokeGray" data-item-index="none" data-renderer-id="0" transform="translate(494, 170)"></g><g id="g-root-1_mcylt11rb9fy8-fill" data-item-order="1000000000" data-item-id="1_mcylt11rb9fy8" data-item-class="Icon Stroke" data-item-index="none" data-renderer-id="0" transform="translate(554, 165)"></g><g id="g-root-tx_notifica_qs5mud1rb9ibr-fill" data-item-order="1000000000" data-item-id="tx_notifica_qs5mud1rb9ibr" data-item-class="Label Stroke" data-item-index="none" data-renderer-id="0" transform="translate(590, 168)"><g id="tx_notifica_qs5mud1rb9ibr-fill" stroke="none" fill="#e3cd09"><g><text style="font: 20px Roboto, sans-serif; white-space: pre;" font-weight="20px" font-size="Roboto," font-family="sans-serif"><tspan x="14.96" y="33.75" dominant-baseline="ideographic">Notifications Audio</tspan></text></g></g></g><g id="g-root-tx_actionsd_92r4rp1rar6rw-fill" data-item-order="1000000000" data-item-id="tx_actionsd_92r4rp1rar6rw" data-item-class="Label Stroke" data-item-index="none" data-renderer-id="0" transform="translate(86, 219)"><g id="tx_actionsd_92r4rp1rar6rw-fill" stroke="none" fill="#484848"><g><text style="font: 20px Roboto, sans-serif; white-space: pre;" font-weight="20px" font-size="Roboto," font-family="sans-serif"><tspan x="15.96" y="33.75" dominant-baseline="ideographic">Actions de Jeu</tspan></text></g></g></g><g id="g-root-cu_8z0a911rawtfu-fill" data-item-order="1000000000" data-item-id="cu_8z0a911rawtfu" data-item-class="Curve Stroke ColorStrokeGray" data-item-index="none" data-renderer-id="0" transform="translate(236, 207)"></g><g id="g-root-cu_4j6s4l1rawu85-fill" data-item-order="1000000000" data-item-id="cu_4j6s4l1rawu85" data-item-class="Curve Stroke ColorStrokeGray" data-item-index="none" data-renderer-id="0" transform="translate(236, 207)"></g><g id="g-root-cu_de7bad1rawvt9-fill" data-item-order="1000000000" data-item-id="cu_de7bad1rawvt9" data-item-class="Curve Stroke ColorStrokeGray" data-item-index="none" data-renderer-id="0" transform="translate(566, 207)"></g><g id="g-root-cu_8z0a911rawtfs-fill" data-item-order="1000000000" data-item-id="cu_8z0a911rawtfs" data-item-class="Curve Stroke ColorStrokeGray" data-item-index="none" data-renderer-id="0" transform="translate(566, 207)"></g><g id="g-root-cu_qpntnp1rawu80-fill" data-item-order="1000000000" data-item-id="cu_qpntnp1rawu80" data-item-class="Curve Stroke ColorStrokeGray" data-item-index="none" data-renderer-id="0" transform="translate(410, 228)"></g><g id="g-root-tx_alertesd_1useodh1rar85r-fill" data-item-order="1000000000" data-item-id="tx_alertesd_1useodh1rar85r" data-item-class="Label Stroke" data-item-index="none" data-renderer-id="0" transform="translate(332, 405)"><g id="tx_alertesd_1useodh1rar85r-fill" stroke="none" fill="#484848"><g><text style="font: 20px Roboto, sans-serif; white-space: pre;" font-weight="20px" font-size="Roboto," font-family="sans-serif"><tspan x="13.99" y="33.75" dominant-baseline="ideographic">Alertes d'Erreur</tspan></text></g></g></g><g id="g-root-tx_sonsenvi_4mxmn91rar7k5-fill" data-item-order="1000000000" data-item-id="tx_sonsenvi_4mxmn91rar7k5" data-item-class="Label Stroke" data-item-index="none" data-renderer-id="0" transform="translate(2, 255)"><g id="tx_sonsenvi_4mxmn91rar7k5-fill" stroke="none" fill="#484848"><g><text style="font: 20px Roboto, sans-serif; white-space: pre;" font-weight="20px" font-size="Roboto," font-family="sans-serif"><tspan x="16.67" y="33.75" dominant-baseline="ideographic">Sons Environnementaux</tspan></text></g></g></g><g id="g-root-tx_alertess_92r4rp1rar6rv-fill" data-item-order="1000000000" data-item-id="tx_alertess_92r4rp1rar6rv" data-item-class="Label Stroke" data-item-index="none" data-renderer-id="0" transform="translate(590, 255)"><g id="tx_alertess_92r4rp1rar6rv-fill" stroke="none" fill="#484848"><g><text style="font: 20px Roboto, sans-serif; white-space: pre;" font-weight="20px" font-size="Roboto," font-family="sans-serif"><tspan x="15.48" y="33.75" dominant-baseline="ideographic">Alertes Système</tspan></text></g></g></g><g id="g-root-volu_1hapf511ratzpg-fill" data-item-order="1000000000" data-item-id="volu_1hapf511ratzpg" data-item-class="Icon Stroke" data-item-index="none" data-renderer-id="0" transform="translate(236, 15)"></g><g id="g-root-add_1czvpph1rar8ck-fill" data-item-order="1000000000" data-item-id="add_1czvpph1rar8ck" data-item-class="Icon Stroke" data-item-index="none" data-renderer-id="0" transform="translate(296, 315)"></g><g id="g-root-tx_feedback_1hfp7tx1rar7kb-fill" data-item-order="1000000000" data-item-id="tx_feedback_1hfp7tx1rar7kb" data-item-class="Label Stroke" data-item-index="none" data-renderer-id="0" transform="translate(332, 318)"><g id="tx_feedback_1hfp7tx1rar7kb-fill" stroke="none" fill="#e15e5a"><g><text style="font: 20px Roboto, sans-serif; white-space: pre;" font-weight="20px" font-size="Roboto," font-family="sans-serif"><tspan x="15.42" y="33.75" dominant-baseline="ideographic">Feedback Utilisateur</tspan></text></g></g></g><g id="g-root-cu_4j6s4l1rawu87-fill" data-item-order="1000000000" data-item-id="cu_4j6s4l1rawu87" data-item-class="Curve Stroke ColorStrokeGray" data-item-index="none" data-renderer-id="0" transform="translate(308, 357)"></g><g id="g-root-cu_4j6s4l1rawu8a-fill" data-item-order="1000000000" data-item-id="cu_4j6s4l1rawu8a" data-item-class="Curve Stroke ColorStrokeGray" data-item-index="none" data-renderer-id="0" transform="translate(308, 357)"></g><g id="g-root-tx_sonsdeco_1useodh1rar85q-fill" data-item-order="1000000000" data-item-id="tx_sonsdeco_1useodh1rar85q" data-item-class="Label Stroke" data-item-index="none" data-renderer-id="0" transform="translate(332, 369)"><g id="tx_sonsdeco_1useodh1rar85q-fill" stroke="none" fill="#484848"><g><text style="font: 20px Roboto, sans-serif; white-space: pre;" font-weight="20px" font-size="Roboto," font-family="sans-serif"><tspan x="16.03" y="33.75" dominant-baseline="ideographic">Sons de Confirmation</tspan></text></g></g></g><g id="g-root-tx_fichiers_1lpwg6d1rau22z-fill" data-item-order="1000000000" data-item-id="tx_fichiers_1lpwg6d1rau22z" data-item-class="Label Stroke" data-item-index="none" data-renderer-id="0" transform="translate(98, 18)"><g id="tx_fichiers_1lpwg6d1rau22z-fill" stroke="none" fill="#4682e3"><g><text style="font: 20px Roboto, sans-serif; white-space: pre;" font-weight="20px" font-size="Roboto," font-family="sans-serif"><tspan x="12.81" y="33.75" dominant-baseline="ideographic">Fichiers Audio</tspan></text></g></g></g><g id="g-root-tx_messages_hxrnxh1rar94y-fill" data-item-order="1000000000" data-item-id="tx_messages_hxrnxh1rar94y" data-item-class="Label Stroke" data-item-index="none" data-renderer-id="0" transform="translate(590, 219)"><g id="tx_messages_hxrnxh1rar94y-fill" stroke="none" fill="#484848"><g><text style="font: 20px Roboto, sans-serif; white-space: pre;" font-weight="20px" font-size="Roboto," font-family="sans-serif"><tspan x="14.64" y="33.75" dominant-baseline="ideographic">Messages Entrants</tspan></text></g></g></g><g id="g-root-ro_1cwr9451rb2fwj-stroke" data-item-order="999970768" data-item-id="ro_1cwr9451rb2fwj" data-item-class="Shape Stroke Fill" data-item-index="none" data-renderer-id="0" transform="translate(326, 54)"><g id="ro_1cwr9451rb2fwj-stroke" fill="none" stroke-linecap="round" stroke-linejoin="round" stroke-miterlimit="4" stroke="#484848" stroke-width="2"><g><path d="M 34 10L 154 10C 154 10 178 10 178 34L 178 160C 178 160 178 184 154 184L 34 184C 34 184 10 184 10 160L 10 34C 10 34 10 10 34 10"></path></g></g></g><g id="g-root-ro_1448pgl1rar959-stroke" data-item-order="999986392" data-item-id="ro_1448pgl1rar959" data-item-class="Shape Stroke Fill" data-item-index="none" data-renderer-id="0" transform="translate(284, 303)"><g id="ro_1448pgl1rar959-stroke" fill="none" stroke-linecap="round" stroke-linejoin="round" stroke-miterlimit="4" stroke="#e15e5a" stroke-width="2"><g><path d="M 22 10L 250 10C 250 10 262 10 262 22L 262 52C 262 52 262 64 250 64L 22 64C 22 64 10 64 10 52L 10 22C 10 22 10 10 22 10"></path></g></g></g><g id="g-root-ro_dhblk51rb9gqx-stroke" data-item-order="999987040" data-item-id="ro_dhblk51rb9gqx" data-item-class="Shape Stroke Fill" data-item-index="none" data-renderer-id="0" transform="translate(542, 153)"><g id="ro_dhblk51rb9gqx-stroke" fill="none" stroke-linecap="round" stroke-linejoin="round" stroke-miterlimit="4" stroke="#e3cd09" stroke-width="2"><g><path d="M 22 10L 238 10C 238 10 250 10 250 22L 250 52C 250 52 250 64 238 64L 22 64C 22 64 10 64 10 52L 10 22C 10 22 10 10 22 10"></path></g></g></g><g id="g-root-ro_141qpyd1rb84cr-stroke" data-item-order="999988336" data-item-id="ro_141qpyd1rb84cr" data-item-class="Shape Stroke Fill" data-item-index="none" data-renderer-id="0" transform="translate(542, 3)"><g id="ro_141qpyd1rb84cr-stroke" fill="none" stroke-linecap="round" stroke-linejoin="round" stroke-miterlimit="4" stroke="#3bc482" stroke-width="2"><g><path d="M 22 10L 214 10C 214 10 226 10 226 22L 226 52C 226 52 226 64 214 64L 22 64C 22 64 10 64 10 52L 10 22C 10 22 10 10 22 10"></path></g></g></g><g id="g-root-ro_zkocth1rawvsz-stroke" data-item-order="999988984" data-item-id="ro_zkocth1rawvsz" data-item-class="Shape Stroke Fill" data-item-index="none" data-renderer-id="0" transform="translate(74, 153)"><g id="ro_zkocth1rawvsz-stroke" fill="none" stroke-linecap="round" stroke-linejoin="round" stroke-miterlimit="4" stroke="#dd8433" stroke-width="2"><g><path d="M 22 10L 202 10C 202 10 214 10 214 22L 214 52C 214 52 214 64 202 64L 22 64C 22 64 10 64 10 52L 10 22C 10 22 10 10 22 10"></path></g></g></g><g id="g-root-ro_18f2ew51rau0i5-stroke" data-item-order="999989632" data-item-id="ro_18f2ew51rau0i5" data-item-class="Shape Stroke Fill" data-item-index="none" data-renderer-id="0" transform="translate(86, 3)"><g id="ro_18f2ew51rau0i5-stroke" fill="none" stroke-linecap="round" stroke-linejoin="round" stroke-miterlimit="4" stroke="#4682e3" stroke-width="2"><g><path d="M 22 10L 190 10C 190 10 202 10 202 22L 202 52C 202 52 202 64 190 64L 22 64C 22 64 10 64 10 52L 10 22C 10 22 10 10 22 10"></path></g></g></g><g id="g-root-tx_sonsdint_1hd78bp1rb82rt-stroke" data-item-order="1000000000" data-item-id="tx_sonsdint_1hd78bp1rb82rt" data-item-class="Label Stroke" data-item-index="none" data-renderer-id="0" transform="translate(590, 18)"></g><g id="g-root-cu_qpntnp1rawu83-stroke" data-item-order="1000000000" data-item-id="cu_qpntnp1rawu83" data-item-class="Curve Stroke ColorStrokeGray" data-item-index="none" data-renderer-id="0" transform="translate(236, 57)"><g id="cu_qpntnp1rawu83-stroke" fill="none" stroke-linecap="round" stroke-linejoin="round" stroke-miterlimit="4" stroke="#888888" stroke-width="2" stroke-dasharray="5.0, 7.0"><g><path d="M 28 10L 28 22L 28 34L 19 34L 10 34"></path></g></g></g><g id="g-root-cu_qpntnp1rawtfz-stroke" data-item-order="1000000000" data-item-id="cu_qpntnp1rawtfz" data-item-class="Curve Stroke ColorStrokeGray" data-item-index="none" data-renderer-id="0" transform="translate(494, 30)"><g id="cu_qpntnp1rawtfz-stroke" fill="none" stroke-linecap="round" stroke-linejoin="round" stroke-miterlimit="4" stroke="#888888" stroke-width="2" stroke-dasharray="5.0, 7.0"><g><path d="M 10 92L 13 92L 13.1 92C 24.642748 92.000003 33.999998 82.642755 33.999998 71.100003L 34 71L 34 30.9C 33.999999 19.357249 43.357248 10.000001 54.899999 10.000002L 55 10L 58 10"></path></g></g></g><g id="g-root-tx_formatse_zp1of91rar6rq-stroke" data-item-order="1000000000" data-item-id="tx_formatse_zp1of91rar6rq" data-item-class="Label Stroke" data-item-index="none" data-renderer-id="0" transform="translate(2, 69)"></g><g id="g-root-cu_hu0tet1rawv0u-stroke" data-item-order="1000000000" data-item-id="cu_hu0tet1rawv0u" data-item-class="Curve Stroke ColorStrokeGray" data-item-index="none" data-renderer-id="0" transform="translate(236, 57)"><g id="cu_hu0tet1rawv0u-stroke" fill="none" stroke-linecap="round" stroke-linejoin="round" stroke-miterlimit="4" stroke="#888888" stroke-width="2" stroke-dasharray="5.0, 7.0"><g><path d="M 28 10L 28 17.5L 28 58C 27.999999 64.627415 22.627416 69.999998 16 69.999998L 15.9 70L 10 70"></path></g></g></g><g id="g-root-cu_de7bad1rawvt4-stroke" data-item-order="1000000000" data-item-id="cu_de7bad1rawvt4" data-item-class="Curve Stroke ColorStrokeGray" data-item-index="none" data-renderer-id="0" transform="translate(566, 57)"><g id="cu_de7bad1rawvt4-stroke" fill="none" stroke-linecap="round" stroke-linejoin="round" stroke-miterlimit="4" stroke="#888888" stroke-width="2" stroke-dasharray="5.0, 7.0"><g><path d="M 10 10L 10 22L 10 34L 19 34L 28 34"></path></g></g></g><g id="g-root-cu_de7bad1rawvt7-stroke" data-item-order="1000000000" data-item-id="cu_de7bad1rawvt7" data-item-class="Curve Stroke ColorStrokeGray" data-item-index="none" data-renderer-id="0" transform="translate(566, 57)"><g id="cu_de7bad1rawvt7-stroke" fill="none" stroke-linecap="round" stroke-linejoin="round" stroke-miterlimit="4" stroke="#888888" stroke-width="2" stroke-dasharray="5.0, 7.0"><g><path d="M 10 10L 10 17.5L 10 58C 10.000002 64.627417 15.372585 70 22.000002 69.999999L 22.1 70L 28 70"></path></g></g></g><g id="g-root-drum_1cwr9451rb2fwi-stroke" data-item-order="1000000000" data-item-id="drum_1cwr9451rb2fwi" data-item-class="Icon Stroke" data-item-index="none" data-renderer-id="0" transform="translate(386, 78)"><g id="drum_1cwr9451rb2fwi-stroke" fill="none" stroke-linecap="round" stroke-linejoin="round" stroke-miterlimit="4" stroke="#484848" stroke-width="2"><g><path d="M 54 27L 14 27C 12.343145 27 11 28.343147 11 30C 11 31.656855 12.343145 33 14 33L 54 33C 55.656857 33 57 31.656855 57 30C 57 28.343147 55.656857 27 54 27ZM 54 51L 14 51C 12.343145 51 11 52.343147 11 54C 11 55.656857 12.343145 57 14 57L 54 57C 55.656857 57 57 55.656857 57 54C 57 52.343147 55.656857 51 54 51ZM 15 33L 53 33L 53 51L 15 51ZM 53 33L 43.5 51L 34 33L 24.5 51L 15 33M 24 19C 24 21.209139 25.790861 23 28 23C 30.209139 23 32 21.209139 32 19C 32 16.790861 30.209139 15 28 15C 25.790861 15 24 16.790861 24 19ZM 11 11L 24.380001 17.296M 36 19C 36 21.209139 37.790863 23 40 23C 42.209141 23 44 21.209139 44 19C 44 16.790861 42.209141 15 40 15C 37.790863 15 36 16.790861 36 19ZM 57 11L 43.619999 17.296"></path></g></g></g><g id="g-root-tx_clicsdeb_mdl61x1rar8co-stroke" data-item-order="1000000000" data-item-id="tx_clicsdeb_mdl61x1rar8co" data-item-class="Label Stroke" data-item-index="none" data-renderer-id="0" transform="translate(590, 69)"></g><g id="g-root-tx_qualitet_qteo6d1rar7kf-stroke" data-item-order="1000000000" data-item-id="tx_qualitet_qteo6d1rar7kf" data-item-class="Label Stroke" data-item-index="none" data-renderer-id="0" transform="translate(74, 105)"></g><g id="g-root-tx_navigati_mdl61x1rar8cp-stroke" data-item-order="1000000000" data-item-id="tx_navigati_mdl61x1rar8cp" data-item-class="Label Stroke" data-item-index="none" data-renderer-id="0" transform="translate(590, 105)"></g><g id="g-root-tx_audioetc_1q7laed1rb2hhd-stroke" data-item-order="1000000000" data-item-id="tx_audioetc_1q7laed1rb2hhd" data-item-class="Label Stroke" data-item-index="none" data-renderer-id="0" transform="translate(350, 132)"></g><g id="g-root-cu_qpntnp1rawtfw-stroke" data-item-order="1000000000" data-item-id="cu_qpntnp1rawtfw" data-item-class="Curve Stroke ColorStrokeGray" data-item-index="none" data-renderer-id="0" transform="translate(278, 30)"><g id="cu_qpntnp1rawtfw-stroke" fill="none" stroke-linecap="round" stroke-linejoin="round" stroke-miterlimit="4" stroke="#888888" stroke-width="2" stroke-dasharray="5.0, 7.0"><g><path d="M 58 92L 55 92L 54.9 92C 43.357247 92 33.999998 82.642751 33.999998 71.1L 34 71L 34 30.9C 33.999998 19.357248 24.64275 10 13.1 10L 13 10L 10 10"></path></g></g></g><g id="g-root-high_140huxx1rawv0q-stroke" data-item-order="1000000000" data-item-id="high_140huxx1rawv0q" data-item-class="Icon Stroke" data-item-index="none" data-renderer-id="0" transform="translate(236, 165)"><g id="high_140huxx1rawv0q-stroke" fill="none" stroke-linecap="round" stroke-linejoin="round" stroke-miterlimit="4" stroke="#dd8433" stroke-width="2"><g><path d="M 25 37.177502C 25 37.177502 27.8825 32.787498 37.521252 32.438751C 38.201591 32.423203 38.74612 31.869257 38.75 31.188751L 38.75 14.07625C 38.750061 13.740573 38.615108 13.418978 38.375526 13.183863C 38.135944 12.948748 37.811867 12.819872 37.47625 12.82625C 27.875 13.18625 25 17.563749 25 17.563749C 25 17.563749 22.125 13.18875 12.52375 12.82625C 12.188134 12.819872 11.864056 12.948748 11.624474 13.183863C 11.384891 13.418978 11.249939 13.740573 11.25 14.07625L 11.25 31.189999C 11.253881 31.870508 11.798409 32.424454 12.47875 32.440002C 22.1175 32.787498 25 37.177502 25 37.177502ZM 19.375 21.5525L 18.125 21.5525C 17.434645 21.5525 16.875 22.112144 16.875 22.8025L 16.875 25.3025C 16.875 25.992855 17.434645 26.5525 18.125 26.5525L 19.375 26.5525L 21.485001 28.24C 21.672888 28.390038 21.930187 28.418989 22.146719 28.314455C 22.363253 28.209923 22.50062 27.990444 22.5 27.75L 22.5 20.35375C 22.500137 20.113533 22.362589 19.894493 22.146156 19.790274C 21.929724 19.686056 21.672712 19.715103 21.485001 19.865ZM 25.334999 21.84375C 26.554943 23.064062 26.554943 25.042189 25.335001 26.262501M 27.545 19.633749C 29.985722 22.074516 29.985722 26.031733 27.545 28.4725M 29.75 17.42375C 33.411499 21.084972 33.411499 27.021278 29.750002 30.682503M 25 37.177502L 25 32.802502"></path></g></g></g><g id="g-root-soun_1cxdq791rb83k2-stroke" data-item-order="1000000000" data-item-id="soun_1cxdq791rb83k2" data-item-class="Icon Stroke" data-item-index="none" data-renderer-id="0" transform="translate(554, 15)"><g id="soun_1cxdq791rb83k2-stroke" fill="none" stroke-linecap="round" stroke-linejoin="round" stroke-miterlimit="4" stroke="#3bc482" stroke-width="2"><g><path d="M 20.625 10.62625L 29.375 10.62625C 29.375 10.62625 31.875 10.62625 31.875 13.12625L 31.875 36.876251C 31.875 36.876251 31.875 39.376251 29.375 39.376251L 20.625 39.376251C 20.625 39.376251 18.125 39.376251 18.125 36.876251L 18.125 13.12625C 18.125 13.12625 18.125 10.62625 20.625 10.62625M 18.125 19.376249L 31.875 19.376249M 23.8675 30.574999C 23.788656 30.609341 23.703497 30.626797 23.6175 30.626249L 22.5 30.626249C 22.154823 30.626249 21.875 30.906071 21.875 31.251249L 21.875 33.751251C 21.875 34.096428 22.154823 34.376251 22.5 34.376251L 23.625 34.376251C 23.71085 34.375912 23.795883 34.392921 23.875 34.42625L 27.25 35.875C 27.443375 35.959396 27.666275 35.940529 27.842714 35.824837C 28.019156 35.709145 28.125313 35.512238 28.125 35.30125L 28.125 29.69875C 28.125736 29.487541 28.019751 29.290247 27.843241 29.174253C 27.666729 29.058262 27.443577 29.039265 27.25 29.123749Z"></path></g></g></g><g id="g-root-tx_effetsso_1cw4v6t1rawu81-stroke" data-item-order="1000000000" data-item-id="tx_effetsso_1cw4v6t1rawu81" data-item-class="Label Stroke" data-item-index="none" data-renderer-id="0" transform="translate(86, 168)"></g><g id="g-root-cu_m9ubj91rawu8d-stroke" data-item-order="1000000000" data-item-id="cu_m9ubj91rawu8d" data-item-class="Curve Stroke ColorStrokeGray" data-item-index="none" data-renderer-id="0" transform="translate(278, 170)"><g id="cu_m9ubj91rawu8d-stroke" fill="none" stroke-linecap="round" stroke-linejoin="round" stroke-miterlimit="4" stroke="#888888" stroke-width="2" stroke-dasharray="5.0, 7.0"><g><path d="M 58 10L 55 10L 54.9 10C 51.639401 10.016148 48.03708 10.453814 44.200002 11.299999C 41.965481 11.745013 38.361958 13.052173 34 14.999999C 29.638043 16.947825 26.03452 18.254985 23.8 18.699999C 19.962923 19.546185 16.360601 19.98385 13.1 20L 13 20L 10 20"></path></g></g></g><g id="g-root-cu_v5hbs51rawtfm-stroke" data-item-order="1000000000" data-item-id="cu_v5hbs51rawtfm" data-item-class="Curve Stroke ColorStrokeGray" data-item-index="none" data-renderer-id="0" transform="translate(494, 170)"><g id="cu_v5hbs51rawtfm-stroke" fill="none" stroke-linecap="round" stroke-linejoin="round" stroke-miterlimit="4" stroke="#888888" stroke-width="2" stroke-dasharray="5.0, 7.0"><g><path d="M 10 10L 13 10L 13.1 10C 16.360602 10.01615 19.962923 10.453815 23.800001 11.3C 26.03452 11.745014 29.638043 13.052174 34 15.000001C 38.361958 16.947827 41.965481 18.254987 44.200001 18.700001C 48.03708 19.546186 51.639401 19.983851 54.900002 20.000001L 55 20L 58 20"></path></g></g></g><g id="g-root-1_mcylt11rb9fy8-stroke" data-item-order="1000000000" data-item-id="1_mcylt11rb9fy8" data-item-class="Icon Stroke" data-item-index="none" data-renderer-id="0" transform="translate(554, 165)"><g id="1_mcylt11rb9fy8-stroke" fill="none" stroke-linecap="round" stroke-linejoin="round" stroke-miterlimit="4" stroke="#e3cd09" stroke-width="2"><g><path d="M 22.857143 38.392857L 27.142857 38.392857M 33.571426 22.321428C 33.571426 17.587559 29.733868 13.75 25 13.75C 20.26613 13.75 16.428572 17.587559 16.428572 22.321428L 16.428572 29.821428C 16.428572 31.59663 14.989487 33.035713 13.214286 33.035713L 36.785713 33.035713C 35.010513 33.035713 33.571426 31.59663 33.571426 29.821428ZM 11.071428 22.042856C 11.073771 17.904888 13.067575 14.020958 16.428572 11.607142M 38.92857 22.042856C 38.926228 17.904888 36.932426 14.020958 33.571426 11.607142"></path></g></g></g><g id="g-root-tx_notifica_qs5mud1rb9ibr-stroke" data-item-order="1000000000" data-item-id="tx_notifica_qs5mud1rb9ibr" data-item-class="Label Stroke" data-item-index="none" data-renderer-id="0" transform="translate(590, 168)"></g><g id="g-root-tx_actionsd_92r4rp1rar6rw-stroke" data-item-order="1000000000" data-item-id="tx_actionsd_92r4rp1rar6rw" data-item-class="Label Stroke" data-item-index="none" data-renderer-id="0" transform="translate(86, 219)"></g><g id="g-root-cu_8z0a911rawtfu-stroke" data-item-order="1000000000" data-item-id="cu_8z0a911rawtfu" data-item-class="Curve Stroke ColorStrokeGray" data-item-index="none" data-renderer-id="0" transform="translate(236, 207)"><g id="cu_8z0a911rawtfu-stroke" fill="none" stroke-linecap="round" stroke-linejoin="round" stroke-miterlimit="4" stroke="#888888" stroke-width="2" stroke-dasharray="5.0, 7.0"><g><path d="M 28 10L 28 22L 28 34L 19 34L 10 34"></path></g></g></g><g id="g-root-cu_4j6s4l1rawu85-stroke" data-item-order="1000000000" data-item-id="cu_4j6s4l1rawu85" data-item-class="Curve Stroke ColorStrokeGray" data-item-index="none" data-renderer-id="0" transform="translate(236, 207)"><g id="cu_4j6s4l1rawu85-stroke" fill="none" stroke-linecap="round" stroke-linejoin="round" stroke-miterlimit="4" stroke="#888888" stroke-width="2" stroke-dasharray="5.0, 7.0"><g><path d="M 28 10L 28 17.5L 28 58C 27.999999 64.627415 22.627416 69.999998 16 69.999998L 15.9 70L 10 70"></path></g></g></g><g id="g-root-cu_de7bad1rawvt9-stroke" data-item-order="1000000000" data-item-id="cu_de7bad1rawvt9" data-item-class="Curve Stroke ColorStrokeGray" data-item-index="none" data-renderer-id="0" transform="translate(566, 207)"><g id="cu_de7bad1rawvt9-stroke" fill="none" stroke-linecap="round" stroke-linejoin="round" stroke-miterlimit="4" stroke="#888888" stroke-width="2" stroke-dasharray="5.0, 7.0"><g><path d="M 10 10L 10 22L 10 34L 19 34L 28 34"></path></g></g></g><g id="g-root-cu_8z0a911rawtfs-stroke" data-item-order="1000000000" data-item-id="cu_8z0a911rawtfs" data-item-class="Curve Stroke ColorStrokeGray" data-item-index="none" data-renderer-id="0" transform="translate(566, 207)"><g id="cu_8z0a911rawtfs-stroke" fill="none" stroke-linecap="round" stroke-linejoin="round" stroke-miterlimit="4" stroke="#888888" stroke-width="2" stroke-dasharray="5.0, 7.0"><g><path d="M 10 10L 10 17.5L 10 58C 10.000002 64.627417 15.372585 70 22.000002 69.999999L 22.1 70L 28 70"></path></g></g></g><g id="g-root-cu_qpntnp1rawu80-stroke" data-item-order="1000000000" data-item-id="cu_qpntnp1rawu80" data-item-class="Curve Stroke ColorStrokeGray" data-item-index="none" data-renderer-id="0" transform="translate(410, 228)"><g id="cu_qpntnp1rawu80-stroke" fill="none" stroke-linecap="round" stroke-linejoin="round" stroke-miterlimit="4" stroke="#888888" stroke-width="2" stroke-dasharray="5.0, 7.0"><g><path d="M 10 10L 10 47.5L 10 85"></path></g></g></g><g id="g-root-tx_alertesd_1useodh1rar85r-stroke" data-item-order="1000000000" data-item-id="tx_alertesd_1useodh1rar85r" data-item-class="Label Stroke" data-item-index="none" data-renderer-id="0" transform="translate(332, 405)"></g><g id="g-root-tx_sonsenvi_4mxmn91rar7k5-stroke" data-item-order="1000000000" data-item-id="tx_sonsenvi_4mxmn91rar7k5" data-item-class="Label Stroke" data-item-index="none" data-renderer-id="0" transform="translate(2, 255)"></g><g id="g-root-tx_alertess_92r4rp1rar6rv-stroke" data-item-order="1000000000" data-item-id="tx_alertess_92r4rp1rar6rv" data-item-class="Label Stroke" data-item-index="none" data-renderer-id="0" transform="translate(590, 255)"></g><g id="g-root-volu_1hapf511ratzpg-stroke" data-item-order="1000000000" data-item-id="volu_1hapf511ratzpg" data-item-class="Icon Stroke" data-item-index="none" data-renderer-id="0" transform="translate(236, 15)"><g id="volu_1hapf511ratzpg-stroke" fill="none" stroke-linecap="round" stroke-linejoin="round" stroke-miterlimit="4" stroke="#4682e3" stroke-width="2"><g><path d="M 36.508751 15.625C 36.743187 15.859366 36.874928 16.177258 36.875 16.508749L 36.875 38.125C 36.875 38.815353 36.315353 39.375 35.625 39.375L 14.375 39.375C 13.684644 39.375 13.125 38.815353 13.125 38.125L 13.125 11.875C 13.125 11.184644 13.684644 10.625 14.375 10.625L 30.991249 10.625C 31.322744 10.625071 31.640635 10.756813 31.875 10.99125ZM 18.125 24.375C 17.434645 24.375 16.875 24.934643 16.875 25.625L 16.875 28.125C 16.875 28.815357 17.434645 29.375 18.125 29.375L 20 29.375L 23.7675 32.342499C 24.154665 32.557796 24.626862 32.552094 25.008713 32.327507C 25.390562 32.102921 25.625017 31.693001 25.625 31.25L 25.625 22.5C 25.625017 22.057001 25.390562 21.647081 25.008713 21.422493C 24.626862 21.197906 24.154665 21.192204 23.7675 21.407501L 20 24.375ZM 29.45125 25.303749C 30.183218 26.035938 30.183218 27.222813 29.451252 27.955M 31.477499 22.651251C 33.674232 24.847954 33.674232 28.409546 31.477499 30.606251"></path></g></g></g><g id="g-root-add_1czvpph1rar8ck-stroke" data-item-order="1000000000" data-item-id="add_1czvpph1rar8ck" data-item-class="Icon Stroke" data-item-index="none" data-renderer-id="0" transform="translate(296, 315)"><g id="add_1czvpph1rar8ck-stroke" fill="none" stroke-linecap="round" stroke-linejoin="round" stroke-miterlimit="4" stroke="#e15e5a" stroke-width="2"><g><path d="M 26.875 33.125C 26.875 36.576778 29.673222 39.375 33.125 39.375C 36.576778 39.375 39.375 36.576778 39.375 33.125C 39.375 29.673222 36.576778 26.875 33.125 26.875C 29.673222 26.875 26.875 29.673222 26.875 33.125ZM 33.125 30.625L 33.125 35.625M 30.625 33.125L 35.625 33.125M 10.625 26.875C 10.637154 25.714609 10.877112 24.567902 11.33125 23.5C 11.83125 22.5 13.91 21.8125 16.522499 20.844999C 17.22875 20.58375 17.112499 18.74 16.799999 18.395C 15.792845 17.303646 15.299419 15.834283 15.44375 14.35625C 15.353253 13.415162 15.657961 12.478797 16.284966 11.771194C 16.91197 11.063592 17.804861 10.648415 18.75 10.625C 19.695139 10.648415 20.58803 11.063592 21.215034 11.771194C 21.842039 12.478797 22.146746 13.415162 22.05625 14.35625C 22.200947 15.834702 21.707495 17.304594 20.699999 18.39625C 20.387501 18.741249 20.27125 20.585001 20.977499 20.846251C 23.59 21.813751 25.67 22.504999 26.168751 23.501249C 26.622889 24.569153 26.862846 25.715858 26.875 26.876251ZM 23.639999 10.92125C 24.066275 10.724414 24.530476 10.623296 24.999998 10.625C 25.945137 10.648415 26.83803 11.063592 27.465034 11.771194C 28.092039 12.478797 28.396746 13.415162 28.30625 14.35625C 28.450947 15.834702 27.957495 17.304594 26.949999 18.39625C 26.637501 18.741249 26.52125 20.585001 27.227499 20.846251C 29.84 21.813751 31.919998 22.504999 32.418751 23.501249C 32.44875 23.5625 32.478748 23.626249 32.506248 23.688751"></path></g></g></g><g id="g-root-tx_feedback_1hfp7tx1rar7kb-stroke" data-item-order="1000000000" data-item-id="tx_feedback_1hfp7tx1rar7kb" data-item-class="Label Stroke" data-item-index="none" data-renderer-id="0" transform="translate(332, 318)"></g><g id="g-root-cu_4j6s4l1rawu87-stroke" data-item-order="1000000000" data-item-id="cu_4j6s4l1rawu87" data-item-class="Curve Stroke ColorStrokeGray" data-item-index="none" data-renderer-id="0" transform="translate(308, 357)"><g id="cu_4j6s4l1rawu87-stroke" fill="none" stroke-linecap="round" stroke-linejoin="round" stroke-miterlimit="4" stroke="#888888" stroke-width="2" stroke-dasharray="5.0, 7.0"><g><path d="M 10 10L 10 22L 10 34L 19 34L 28 34"></path></g></g></g><g id="g-root-cu_4j6s4l1rawu8a-stroke" data-item-order="1000000000" data-item-id="cu_4j6s4l1rawu8a" data-item-class="Curve Stroke ColorStrokeGray" data-item-index="none" data-renderer-id="0" transform="translate(308, 357)"><g id="cu_4j6s4l1rawu8a-stroke" fill="none" stroke-linecap="round" stroke-linejoin="round" stroke-miterlimit="4" stroke="#888888" stroke-width="2" stroke-dasharray="5.0, 7.0"><g><path d="M 10 10L 10 17.5L 10 58C 10.000002 64.627417 15.372585 70 22.000002 69.999999L 22.1 70L 28 70"></path></g></g></g><g id="g-root-tx_sonsdeco_1useodh1rar85q-stroke" data-item-order="1000000000" data-item-id="tx_sonsdeco_1useodh1rar85q" data-item-class="Label Stroke" data-item-index="none" data-renderer-id="0" transform="translate(332, 369)"></g><g id="g-root-tx_fichiers_1lpwg6d1rau22z-stroke" data-item-order="1000000000" data-item-id="tx_fichiers_1lpwg6d1rau22z" data-item-class="Label Stroke" data-item-index="none" data-renderer-id="0" transform="translate(98, 18)"></g><g id="g-root-tx_messages_hxrnxh1rar94y-stroke" data-item-order="1000000000" data-item-id="tx_messages_hxrnxh1rar94y" data-item-class="Label Stroke" data-item-index="none" data-renderer-id="0" transform="translate(590, 219)"></g></g></g></svg>