<?xml version="1.0" encoding="utf-8" standalone="yes"?>
<!DOCTYPE svg PUBLIC "-//W3C//DTD SVG 1.1//EN" "http://www.w3.org/Graphics/SVG/1.1/DTD/svg11.dtd">
<svg width="937" height="468" viewBox="0 0 937 468" style="fill:none;stroke:none;fill-rule:evenodd;clip-rule:evenodd;stroke-linecap:round;stroke-linejoin:round;stroke-miterlimit:1.5;" version="1.1" xmlns="http://www.w3.org/2000/svg" xmlns:xlink="http://www.w3.org/1999/xlink"><style id="fontImports">@import url("https://fonts.googleapis.com/css2?family=Roboto:wght@400;700&amp;display=block");</style><rect id="" x="0" y="0" width="937" height="468" style="fill: #ffffff;"></rect><g id="items" style="isolation: isolate"><g id="blend" style="mix-blend-mode:normal"><g id="g-root--1.line_sy_4nkjfa1qr639i-fill" data-item-order="999824901" data-item-id="-1.line_sy_4nkjfa1qr639i" data-item-class="Curve Stroke Part" data-item-index="-1" data-renderer-id="0" transform="translate(846, 289.99609375)"></g><g id="g-root--1.vector_sy_1ut1l5i1qr63v3-fill" data-item-order="999824903" data-item-id="-1.vector_sy_1ut1l5i1qr63v3" data-item-class="Curve Stroke Part" data-item-index="-1" data-renderer-id="0" transform="translate(3, 289.99609375)"></g><g id="g-root-9.cr-big_cr_mg3i3a1qr63uw-fill" data-item-order="999824904" data-item-id="9.cr-big_cr_mg3i3a1qr63uw" data-item-class="Shape Stroke Fill Part Indexed" data-item-index="9" data-renderer-id="0" transform="translate(807, 194)"><g id="9.cr-big_cr_mg3i3a1qr63uw-fill" stroke="none" fill="#f7e6fe"><g><path d="M 10 46C 10 65.882251 26.117749 82 46 82C 65.882251 82 82 65.882251 82 46C 82 26.117749 65.882251 10 46 10C 26.117749 10 10 26.117749 10 46"></path></g></g></g><g id="g-root-9.cu-smallCircle_sy_i0wh1y1qr61hd-fill" data-item-order="999824907" data-item-id="9.cu-smallCircle_sy_i0wh1y1qr61hd" data-item-class="Part Indexed Stroke" data-item-index="9" data-renderer-id="0" transform="translate(840, 286.99609375)"></g><g id="g-root-9.ln_ln_i0wh1y1qr61he-fill" data-item-order="999824909" data-item-id="9.ln_ln_i0wh1y1qr61he" data-item-class="Curve Stroke Part Indexed" data-item-index="9" data-renderer-id="0" transform="translate(843, 265.5)"></g><g id="g-root-8.cr-big_cr_qvx07q1qr632l-fill" data-item-order="999824910" data-item-id="8.cr-big_cr_qvx07q1qr632l" data-item-class="Shape Stroke Fill Part Indexed" data-item-index="8" data-renderer-id="0" transform="translate(711, 313.998046875)"><g id="8.cr-big_cr_qvx07q1qr632l-fill" stroke="none" fill="#fee7f5"><g><path d="M 10 46C 10 65.882251 26.117749 82 46 82C 65.882251 82 82 65.882251 82 46C 82 26.117749 65.882251 10 46 10C 26.117749 10 10 26.117749 10 46"></path></g></g></g><g id="g-root-8.cu-smallCircle_sy_mg3i3a1qr63uu-fill" data-item-order="999824913" data-item-id="8.cu-smallCircle_sy_mg3i3a1qr63uu" data-item-class="Part Indexed Stroke" data-item-index="8" data-renderer-id="0" transform="translate(744, 287.001953125)"></g><g id="g-root-8.ln_ln_mg3i3a1qr63uv-fill" data-item-order="999824915" data-item-id="8.ln_ln_mg3i3a1qr63uv" data-item-class="Curve Stroke Part Indexed" data-item-index="8" data-renderer-id="0" transform="translate(747, 293.001953125)"></g><g id="g-root-7.cr-big_cr_zrk0gm1qr629u-fill" data-item-order="999824916" data-item-id="7.cr-big_cr_zrk0gm1qr629u" data-item-class="Shape Stroke Fill Part Indexed" data-item-index="7" data-renderer-id="0" transform="translate(615, 194)"><g id="7.cr-big_cr_zrk0gm1qr629u-fill" stroke="none" fill="#ffe7e6"><g><path d="M 10 46C 10 65.882251 26.117749 82 46 82C 65.882251 82 82 65.882251 82 46C 82 26.117749 65.882251 10 46 10C 26.117749 10 10 26.117749 10 46"></path></g></g></g><g id="g-root-7.cu-smallCircle_sy_qvx07q1qr632j-fill" data-item-order="999824919" data-item-id="7.cu-smallCircle_sy_qvx07q1qr632j" data-item-class="Part Indexed Stroke" data-item-index="7" data-renderer-id="0" transform="translate(648, 286.99609375)"></g><g id="g-root-7.ln_ln_qvx07q1qr632k-fill" data-item-order="999824921" data-item-id="7.ln_ln_qvx07q1qr632k" data-item-class="Curve Stroke Part Indexed" data-item-index="7" data-renderer-id="0" transform="translate(651, 266)"></g><g id="g-root-6.cr-big_cr_147dil21qr61hj-fill" data-item-order="999824922" data-item-id="6.cr-big_cr_147dil21qr61hj" data-item-class="Shape Stroke Fill Part Indexed" data-item-index="6" data-renderer-id="0" transform="translate(519, 313.998046875)"><g id="6.cr-big_cr_147dil21qr61hj-fill" stroke="none" fill="#fef2e6"><g><path d="M 10 46C 10 65.882251 26.117749 82 46 82C 65.882251 82 82 65.882251 82 46C 82 26.117749 65.882251 10 46 10C 26.117749 10 10 26.117749 10 46"></path></g></g></g><g id="g-root-6.cu-smallCircle_sy_zrk0gm1qr629s-fill" data-item-order="999824925" data-item-id="6.cu-smallCircle_sy_zrk0gm1qr629s" data-item-class="Part Indexed Stroke" data-item-index="6" data-renderer-id="0" transform="translate(552, 287.001953125)"></g><g id="g-root-6.ln_ln_zrk0gm1qr629t-fill" data-item-order="999824927" data-item-id="6.ln_ln_zrk0gm1qr629t" data-item-class="Curve Stroke Part Indexed" data-item-index="6" data-renderer-id="0" transform="translate(555, 293.001953125)"></g><g id="g-root-5.cr-big_cr_18mkjme1qr63v0-fill" data-item-order="999824928" data-item-id="5.cr-big_cr_18mkjme1qr63v0" data-item-class="Shape Stroke Fill Part Indexed" data-item-index="5" data-renderer-id="0" transform="translate(423, 194)"><g id="5.cr-big_cr_18mkjme1qr63v0-fill" stroke="none" fill="#fffce6"><g><path d="M 10 46C 10 65.882251 26.117749 82 46 82C 65.882251 82 82 65.882251 82 46C 82 26.117749 65.882251 10 46 10C 26.117749 10 10 26.117749 10 46"></path></g></g></g><g id="g-root-5.cu-smallCircle_sy_147dil21qr61hh-fill" data-item-order="999824931" data-item-id="5.cu-smallCircle_sy_147dil21qr61hh" data-item-class="Part Indexed Stroke" data-item-index="5" data-renderer-id="0" transform="translate(456, 286.99609375)"></g><g id="g-root-5.ln_ln_147dil21qr61hi-fill" data-item-order="999824933" data-item-id="5.ln_ln_147dil21qr61hi" data-item-class="Curve Stroke Part Indexed" data-item-index="5" data-renderer-id="0" transform="translate(459, 266)"></g><g id="g-root-4.cr-big_cr_1hi7jva1qr6329-fill" data-item-order="999824934" data-item-id="4.cr-big_cr_1hi7jva1qr6329" data-item-class="Shape Stroke Fill Part Indexed" data-item-index="4" data-renderer-id="0" transform="translate(327, 313.998046875)"><g id="4.cr-big_cr_1hi7jva1qr6329-fill" stroke="none" fill="#f5fbe9"><g><path d="M 10 46C 10 65.882251 26.117749 82 46 82C 65.882251 82 82 65.882251 82 46C 82 26.117749 65.882251 10 46 10C 26.117749 10 10 26.117749 10 46"></path></g></g></g><g id="g-root-4.cu-smallCircle_sy_18mkjme1qr63uy-fill" data-item-order="999824937" data-item-id="4.cu-smallCircle_sy_18mkjme1qr63uy" data-item-class="Part Indexed Stroke" data-item-index="4" data-renderer-id="0" transform="translate(360, 287.001953125)"></g><g id="g-root-4.ln_ln_18mkjme1qr63uz-fill" data-item-order="999824939" data-item-id="4.ln_ln_18mkjme1qr63uz" data-item-class="Curve Stroke Part Indexed" data-item-index="4" data-renderer-id="0" transform="translate(363, 293.001953125)"></g><g id="g-root-3.cr-big_cr_1ly11zq1qr629y-fill" data-item-order="999824940" data-item-id="3.cr-big_cr_1ly11zq1qr629y" data-item-class="Shape Stroke Fill Part Indexed" data-item-index="3" data-renderer-id="0" transform="translate(231, 194)"><g id="3.cr-big_cr_1ly11zq1qr629y-fill" stroke="none" fill="#e9fbf3"><g><path d="M 10 46C 10 65.882251 26.117749 82 46 82C 65.882251 82 82 65.882251 82 46C 82 26.117749 65.882251 10 46 10C 26.117749 10 10 26.117749 10 46"></path></g></g></g><g id="g-root-3.cu-smallCircle_sy_1d2e1qu1qr632n-fill" data-item-order="999824943" data-item-id="3.cu-smallCircle_sy_1d2e1qu1qr632n" data-item-class="Part Indexed Stroke" data-item-index="3" data-renderer-id="0" transform="translate(264, 286.99609375)"></g><g id="g-root-3.ln_ln_1hi7jva1qr6328-fill" data-item-order="999824945" data-item-id="3.ln_ln_1hi7jva1qr6328" data-item-class="Curve Stroke Part Indexed" data-item-index="3" data-renderer-id="0" transform="translate(267, 266)"></g><g id="g-root-2.cr-big_cr_1qduk461qr61hn-fill" data-item-order="999824946" data-item-id="2.cr-big_cr_1qduk461qr61hn" data-item-class="Shape Stroke Fill Part Indexed" data-item-index="2" data-renderer-id="0" transform="translate(135, 314)"><g id="2.cr-big_cr_1qduk461qr61hn-fill" stroke="none" fill="#e6f9ff"><g><path d="M 10 46C 10 65.882251 26.117749 82 46 82C 65.882251 82 82 65.882251 82 46C 82 26.117749 65.882251 10 46 10C 26.117749 10 10 26.117749 10 46"></path></g></g></g><g id="g-root-2.cu-smallCircle_sy_1ly11zq1qr629w-fill" data-item-order="999824949" data-item-id="2.cu-smallCircle_sy_1ly11zq1qr629w" data-item-class="Part Indexed Stroke" data-item-index="2" data-renderer-id="0" transform="translate(168, 287.001953125)"></g><g id="g-root-2.ln_ln_1ly11zq1qr629x-fill" data-item-order="999824951" data-item-id="2.ln_ln_1ly11zq1qr629x" data-item-class="Curve Stroke Part Indexed" data-item-index="2" data-renderer-id="0" transform="translate(171, 293.001953125)"></g><g id="g-root-1.cr-big_cr_7r1au1qr641s-fill" data-item-order="999824952" data-item-id="1.cr-big_cr_7r1au1qr641s" data-item-class="Shape Stroke Fill Part Indexed Indexed_1" data-item-index="1" data-renderer-id="0" transform="translate(39, 194)"><g id="1.cr-big_cr_7r1au1qr641s-fill" stroke="none" fill="#e6efff"><g><path d="M 10 46C 10 65.882251 26.117749 82 46 82C 65.882251 82 82 65.882251 82 46C 82 26.117749 65.882251 10 46 10C 26.117749 10 10 26.117749 10 46"></path></g></g></g><g id="g-root-1.cu-smallCircle_sy_1qduk461qr61hl-fill" data-item-order="999824955" data-item-id="1.cu-smallCircle_sy_1qduk461qr61hl" data-item-class="Part Indexed Indexed_1 Stroke" data-item-index="1" data-renderer-id="0" transform="translate(72, 286.99609375)"></g><g id="g-root-1.ln_ln_1qduk461qr61hm-fill" data-item-order="999824957" data-item-id="1.ln_ln_1qduk461qr61hm" data-item-class="Curve Stroke Part Indexed Indexed_1" data-item-index="1" data-renderer-id="0" transform="translate(75, 266)"></g><g id="g-root-up_v8m4wm1qra96r-fill" data-item-order="1000000000" data-item-id="up_v8m4wm1qra96r" data-item-class="Icon Stroke Indexed InsideFill InsideColorFill" data-item-index="9" data-renderer-id="0" transform="translate(819, 206)"></g><g id="g-root-shop_18gbvx21qqp6o6-fill" data-item-order="1000000000" data-item-id="shop_18gbvx21qqp6o6" data-item-class="Icon Stroke Indexed InsideFill InsideColorFill" data-item-index="7" data-renderer-id="0" transform="translate(627, 206)"></g><g id="g-root-tx_devops_1qbz4uu1qr62h1-fill" data-item-order="1000000000" data-item-id="tx_devops_1qbz4uu1qr62h1" data-item-class="Label Stroke Indexed" data-item-index="8" data-renderer-id="0" transform="translate(705, 398)"><g id="tx_devops_1qbz4uu1qr62h1-fill" stroke="none" fill="#484848"><g><text style="font: 20px Roboto, sans-serif; white-space: pre;" font-weight="20px" font-size="Roboto," font-family="sans-serif"><tspan x="17.72" y="33.75" dominant-baseline="ideographic">DevOps</tspan></text></g></g></g><g id="g-root-pyra_1q88dhy1qqp9mz-fill" data-item-order="1000000000" data-item-id="pyra_1q88dhy1qqp9mz" data-item-class="Icon Stroke Indexed InsideFill InsideColorFill" data-item-index="3" data-renderer-id="0" transform="translate(243, 206)"></g><g id="g-root-lapt_18gbvx21qqp6o7-fill" data-item-order="1000000000" data-item-id="lapt_18gbvx21qqp6o7" data-item-class="Icon Stroke Indexed Indexed_1 InsideFill InsideColorFill" data-item-index="1" data-renderer-id="0" transform="translate(51, 206)"></g><g id="g-root-tx_apifirst_me82ty1qr6422-fill" data-item-order="1000000000" data-item-id="tx_apifirst_me82ty1qr6422" data-item-class="Label Stroke Indexed" data-item-index="3" data-renderer-id="0" transform="translate(225, 158)"><g id="tx_apifirst_me82ty1qr6422-fill" stroke="none" fill="#484848"><g><text style="font: 20px Roboto, sans-serif; white-space: pre;" font-weight="20px" font-size="Roboto," font-family="sans-serif"><tspan x="13.92" y="33.75" dominant-baseline="ideographic">API-First</tspan></text></g></g></g><g id="g-root-tx_retourde_1ursmza1qr61os-fill" data-item-order="1000000000" data-item-id="tx_retourde_1ursmza1qr61os" data-item-class="Label Stroke Indexed" data-item-index="9" data-renderer-id="0" transform="translate(783, 134)"><g id="tx_retourde_1ursmza1qr61os-fill" stroke="none" fill="#484848"><g><text style="font: 20px Roboto, sans-serif; white-space: pre;" font-weight="20px" font-size="Roboto," font-family="sans-serif"><tspan x="40.77" y="33.75" dominant-baseline="ideographic">Retour </tspan><tspan x="14.58" y="57.75" dominant-baseline="ideographic">d'expérience</tspan></text></g></g></g><g id="g-root-tx_tddclean_1d0imhi1qr641y-fill" data-item-order="1000000000" data-item-id="tx_tddclean_1d0imhi1qr641y" data-item-class="Label Stroke Indexed" data-item-index="7" data-renderer-id="0" transform="translate(591, 134)"><g id="tx_tddclean_1d0imhi1qr641y-fill" stroke="none" fill="#484848"><g><text style="font: 20px Roboto, sans-serif; white-space: pre;" font-weight="20px" font-size="Roboto," font-family="sans-serif"><tspan x="12.08" y="33.75" dominant-baseline="ideographic">TDD &amp; Clean </tspan><tspan x="13.37" y="57.75" dominant-baseline="ideographic">Architecture</tspan></text></g></g></g><g id="g-root-tx_principe_zpol7a1qr62h4-fill" data-item-order="1000000000" data-item-id="tx_principe_zpol7a1qr62h4" data-item-class="Label Stroke Indexed" data-item-index="5" data-renderer-id="0" transform="translate(411, 134)"><g id="tx_principe_zpol7a1qr62h4-fill" stroke="none" fill="#484848"><g><text style="font: 20px Roboto, sans-serif; white-space: pre;" font-weight="20px" font-size="Roboto," font-family="sans-serif"><tspan x="14.15" y="33.75" dominant-baseline="ideographic">Principes </tspan><tspan x="28.04" y="57.75" dominant-baseline="ideographic">SOLID</tspan></text></g></g></g><g id="g-root-tx_userstor_hz11sm1qr61ok-fill" data-item-order="1000000000" data-item-id="tx_userstor_hz11sm1qr61ok" data-item-class="Label Stroke Indexed Indexed_1" data-item-index="1" data-renderer-id="0" transform="translate(21, 134)"><g id="tx_userstor_hz11sm1qr61ok-fill" stroke="none" fill="#484848"><g><text style="font: 20px Roboto, sans-serif; white-space: pre;" font-weight="20px" font-size="Roboto," font-family="sans-serif"><tspan x="15.71" y="33.75" dominant-baseline="ideographic">User Story </tspan><tspan x="22.58" y="57.75" dominant-baseline="ideographic">Mapping</tspan></text></g></g></g><g id="g-root-6_2rbrq1qqp91e-fill" data-item-order="1000000000" data-item-id="6_2rbrq1qqp91e" data-item-class="Icon Stroke Indexed InsideFill InsideColorFill" data-item-index="2" data-renderer-id="0" transform="translate(147, 326)"></g><g id="g-root-even_1cviwye1qqp91p-fill" data-item-order="1000000000" data-item-id="even_1cviwye1qqp91p" data-item-class="Icon Stroke Indexed InsideFill InsideColorFill" data-item-index="4" data-renderer-id="0" transform="translate(339, 326)"></g><g id="g-root-wall_v4vdjq1qqp894-fill" data-item-order="1000000000" data-item-id="wall_v4vdjq1qqp894" data-item-class="Icon Stroke Indexed InsideFill InsideColorFill" data-item-index="6" data-renderer-id="0" transform="translate(531, 326)"></g><g id="g-root-4_1lt1cgm1qqp79g-fill" data-item-order="1000000000" data-item-id="4_1lt1cgm1qqp79g" data-item-class="Icon Stroke Indexed InsideFill InsideColorFill" data-item-index="8" data-renderer-id="0" transform="translate(723, 326)"></g><g id="g-root-tx_modlisat_me82ty1qr6423-fill" data-item-order="1000000000" data-item-id="tx_modlisat_me82ty1qr6423" data-item-class="Label Stroke Indexed" data-item-index="2" data-renderer-id="0" transform="translate(105, 398)"><g id="tx_modlisat_me82ty1qr6423-fill" stroke="none" fill="#484848"><g><text style="font: 20px Roboto, sans-serif; white-space: pre;" font-weight="20px" font-size="Roboto," font-family="sans-serif"><tspan x="15.79" y="33.75" dominant-baseline="ideographic">Modélisation </tspan><tspan x="53.83" y="57.75" dominant-baseline="ideographic">DDD</tspan></text></g></g></g><g id="g-root-tx_eventmod_v9v32u1qr639d-fill" data-item-order="1000000000" data-item-id="tx_eventmod_v9v32u1qr639d" data-item-class="Label Stroke Indexed" data-item-index="4" data-renderer-id="0" transform="translate(291, 398)"><g id="tx_eventmod_v9v32u1qr639d-fill" stroke="none" fill="#484848"><g><text style="font: 20px Roboto, sans-serif; white-space: pre;" font-weight="20px" font-size="Roboto," font-family="sans-serif"><tspan x="13.75" y="33.75" dominant-baseline="ideographic">Event Modeling</tspan></text></g></g></g><g id="g-root-tx_scuritpa_145i3bq1qr61ov-fill" data-item-order="1000000000" data-item-id="tx_scuritpa_145i3bq1qr61ov" data-item-class="Label Stroke Indexed" data-item-index="6" data-renderer-id="0" transform="translate(495, 398)"><g id="tx_scuritpa_145i3bq1qr61ov-fill" stroke="none" fill="#484848"><g><text style="font: 20px Roboto, sans-serif; white-space: pre;" font-weight="20px" font-size="Roboto," font-family="sans-serif"><tspan x="14.26" y="33.75" dominant-baseline="ideographic">Sécurité par </tspan><tspan x="18.01" y="57.75" dominant-baseline="ideographic">conception</tspan></text></g></g></g><g id="g-root-tx_processu_93e1jq1qr62h9-fill" data-item-order="1000000000" data-item-id="tx_processu_93e1jq1qr62h9" data-item-class="Label Stroke Title" data-item-index="none" data-renderer-id="0" transform="translate(321, 2)"><g id="tx_processu_93e1jq1qr62h9-fill" stroke="none" fill="#484848"><g><text style="font: 20px Roboto, sans-serif; white-space: pre;" font-weight="20px" font-size="Roboto," font-family="sans-serif"><tspan x="16.85" y="33.75" dominant-baseline="ideographic">Processus de développement</tspan></text></g></g></g><g id="g-root-bin_de7u521qqp7gh-fill" data-item-order="1000000000" data-item-id="bin_de7u521qqp7gh" data-item-class="Icon Stroke Indexed InsideFill InsideColorFill" data-item-index="5" data-renderer-id="0" transform="translate(435, 206)"></g><g id="g-root--1.line_sy_4nkjfa1qr639i-stroke" data-item-order="999824901" data-item-id="-1.line_sy_4nkjfa1qr639i" data-item-class="Curve Stroke Part" data-item-index="-1" data-renderer-id="0" transform="translate(846, 289.99609375)"><g id="-1.line_sy_4nkjfa1qr639i-stroke" fill="none" stroke-linecap="round" stroke-linejoin="round" stroke-miterlimit="4" stroke="#484848" stroke-width="2"><g><path d="M 77 10.003906L 10 10.003906"></path><path d="M 71 16.503906L 77.5 10.003906L 71 3.503906" stroke-dasharray="none"></path></g></g></g><g id="g-root--1.vector_sy_1ut1l5i1qr63v3-stroke" data-item-order="999824903" data-item-id="-1.vector_sy_1ut1l5i1qr63v3" data-item-class="Curve Stroke Part" data-item-index="-1" data-renderer-id="0" transform="translate(3, 289.99609375)"><g id="-1.vector_sy_1ut1l5i1qr63v3-stroke" fill="none" stroke-linecap="round" stroke-linejoin="round" stroke-miterlimit="4" stroke="#484848" stroke-width="2"><g><path d="M 845 10.003906L 757 10.003906L 661 10.003906L 565 10.003906L 469 10.003906L 10 10.003906L 85 10.003906L 181 10.003906L 277 10.003906L 373 10.003906"></path><path d="M 839 16.503906L 845.5 10.003906L 839 3.503906" stroke-dasharray="none"></path></g></g></g><g id="g-root-9.cr-big_cr_mg3i3a1qr63uw-stroke" data-item-order="999824904" data-item-id="9.cr-big_cr_mg3i3a1qr63uw" data-item-class="Shape Stroke Fill Part Indexed" data-item-index="9" data-renderer-id="0" transform="translate(807, 194)"><g id="9.cr-big_cr_mg3i3a1qr63uw-stroke" fill="none" stroke-linecap="round" stroke-linejoin="round" stroke-miterlimit="4" stroke="#b65edf" stroke-width="2"><g><path d="M 10 46C 10 65.882251 26.117749 82 46 82C 65.882251 82 82 65.882251 82 46C 82 26.117749 65.882251 10 46 10C 26.117749 10 10 26.117749 10 46"></path></g></g></g><g id="g-root-9.cu-smallCircle_sy_i0wh1y1qr61hd-stroke" data-item-order="999824907" data-item-id="9.cu-smallCircle_sy_i0wh1y1qr61hd" data-item-class="Part Indexed Stroke" data-item-index="9" data-renderer-id="0" transform="translate(840, 286.99609375)"><g id="9.cu-smallCircle_sy_i0wh1y1qr61hd-stroke" fill="none" stroke-linecap="round" stroke-linejoin="round" stroke-miterlimit="4" stroke="#b65edf" stroke-width="2"><g><path d="M 16 13C 16 14.6569 14.6569 16 13 16C 11.3431 16 10 14.6569 10 13C 10 11.3431 11.3431 10 13 10C 14.6569 10 16 11.3431 16 13Z"></path></g></g></g><g id="g-root-9.ln_ln_i0wh1y1qr61he-stroke" data-item-order="999824909" data-item-id="9.ln_ln_i0wh1y1qr61he" data-item-class="Curve Stroke Part Indexed" data-item-index="9" data-renderer-id="0" transform="translate(843, 265.5)"><g id="9.ln_ln_i0wh1y1qr61he-stroke" fill="none" stroke-linecap="round" stroke-linejoin="round" stroke-miterlimit="4" stroke="#b65edf" stroke-width="2"><g><path d="M 10 10L 10 20.7L 10 31.5"></path></g></g></g><g id="g-root-8.cr-big_cr_qvx07q1qr632l-stroke" data-item-order="999824910" data-item-id="8.cr-big_cr_qvx07q1qr632l" data-item-class="Shape Stroke Fill Part Indexed" data-item-index="8" data-renderer-id="0" transform="translate(711, 313.998046875)"><g id="8.cr-big_cr_qvx07q1qr632l-stroke" fill="none" stroke-linecap="round" stroke-linejoin="round" stroke-miterlimit="4" stroke="#da5da8" stroke-width="2"><g><path d="M 10 46C 10 65.882251 26.117749 82 46 82C 65.882251 82 82 65.882251 82 46C 82 26.117749 65.882251 10 46 10C 26.117749 10 10 26.117749 10 46"></path></g></g></g><g id="g-root-8.cu-smallCircle_sy_mg3i3a1qr63uu-stroke" data-item-order="999824913" data-item-id="8.cu-smallCircle_sy_mg3i3a1qr63uu" data-item-class="Part Indexed Stroke" data-item-index="8" data-renderer-id="0" transform="translate(744, 287.001953125)"><g id="8.cu-smallCircle_sy_mg3i3a1qr63uu-stroke" fill="none" stroke-linecap="round" stroke-linejoin="round" stroke-miterlimit="4" stroke="#da5da8" stroke-width="2"><g><path d="M 10 13C 10 11.343109 11.343079 10 13 10C 14.656921 10 16 11.343109 16 13C 16 14.656891 14.656921 16 13 16C 11.343079 16 10 14.656891 10 13Z"></path></g></g></g><g id="g-root-8.ln_ln_mg3i3a1qr63uv-stroke" data-item-order="999824915" data-item-id="8.ln_ln_mg3i3a1qr63uv" data-item-class="Curve Stroke Part Indexed" data-item-index="8" data-renderer-id="0" transform="translate(747, 293.001953125)"><g id="8.ln_ln_mg3i3a1qr63uv-stroke" fill="none" stroke-linecap="round" stroke-linejoin="round" stroke-miterlimit="4" stroke="#da5da8" stroke-width="2"><g><path d="M 10 31L 10 20.5L 10 10"></path></g></g></g><g id="g-root-7.cr-big_cr_zrk0gm1qr629u-stroke" data-item-order="999824916" data-item-id="7.cr-big_cr_zrk0gm1qr629u" data-item-class="Shape Stroke Fill Part Indexed" data-item-index="7" data-renderer-id="0" transform="translate(615, 194)"><g id="7.cr-big_cr_zrk0gm1qr629u-stroke" fill="none" stroke-linecap="round" stroke-linejoin="round" stroke-miterlimit="4" stroke="#e15e5a" stroke-width="2"><g><path d="M 10 46C 10 65.882251 26.117749 82 46 82C 65.882251 82 82 65.882251 82 46C 82 26.117749 65.882251 10 46 10C 26.117749 10 10 26.117749 10 46"></path></g></g></g><g id="g-root-7.cu-smallCircle_sy_qvx07q1qr632j-stroke" data-item-order="999824919" data-item-id="7.cu-smallCircle_sy_qvx07q1qr632j" data-item-class="Part Indexed Stroke" data-item-index="7" data-renderer-id="0" transform="translate(648, 286.99609375)"><g id="7.cu-smallCircle_sy_qvx07q1qr632j-stroke" fill="none" stroke-linecap="round" stroke-linejoin="round" stroke-miterlimit="4" stroke="#e15e5a" stroke-width="2"><g><path d="M 16 13C 16 14.6569 14.6569 16 13 16C 11.3431 16 10 14.6569 10 13C 10 11.3431 11.3431 10 13 10C 14.6569 10 16 11.3431 16 13Z"></path></g></g></g><g id="g-root-7.ln_ln_qvx07q1qr632k-stroke" data-item-order="999824921" data-item-id="7.ln_ln_qvx07q1qr632k" data-item-class="Curve Stroke Part Indexed" data-item-index="7" data-renderer-id="0" transform="translate(651, 266)"><g id="7.ln_ln_qvx07q1qr632k-stroke" fill="none" stroke-linecap="round" stroke-linejoin="round" stroke-miterlimit="4" stroke="#e15e5a" stroke-width="2"><g><path d="M 10 10L 10 20.5L 10 31"></path></g></g></g><g id="g-root-6.cr-big_cr_147dil21qr61hj-stroke" data-item-order="999824922" data-item-id="6.cr-big_cr_147dil21qr61hj" data-item-class="Shape Stroke Fill Part Indexed" data-item-index="6" data-renderer-id="0" transform="translate(519, 313.998046875)"><g id="6.cr-big_cr_147dil21qr61hj-stroke" fill="none" stroke-linecap="round" stroke-linejoin="round" stroke-miterlimit="4" stroke="#dd8433" stroke-width="2"><g><path d="M 10 46C 10 65.882251 26.117749 82 46 82C 65.882251 82 82 65.882251 82 46C 82 26.117749 65.882251 10 46 10C 26.117749 10 10 26.117749 10 46"></path></g></g></g><g id="g-root-6.cu-smallCircle_sy_zrk0gm1qr629s-stroke" data-item-order="999824925" data-item-id="6.cu-smallCircle_sy_zrk0gm1qr629s" data-item-class="Part Indexed Stroke" data-item-index="6" data-renderer-id="0" transform="translate(552, 287.001953125)"><g id="6.cu-smallCircle_sy_zrk0gm1qr629s-stroke" fill="none" stroke-linecap="round" stroke-linejoin="round" stroke-miterlimit="4" stroke="#dd8433" stroke-width="2"><g><path d="M 10 13C 10 11.343109 11.343079 10 13 10C 14.656921 10 16 11.343109 16 13C 16 14.656891 14.656921 16 13 16C 11.343079 16 10 14.656891 10 13Z"></path></g></g></g><g id="g-root-6.ln_ln_zrk0gm1qr629t-stroke" data-item-order="999824927" data-item-id="6.ln_ln_zrk0gm1qr629t" data-item-class="Curve Stroke Part Indexed" data-item-index="6" data-renderer-id="0" transform="translate(555, 293.001953125)"><g id="6.ln_ln_zrk0gm1qr629t-stroke" fill="none" stroke-linecap="round" stroke-linejoin="round" stroke-miterlimit="4" stroke="#dd8433" stroke-width="2"><g><path d="M 10 31L 10 20.5L 10 10"></path></g></g></g><g id="g-root-5.cr-big_cr_18mkjme1qr63v0-stroke" data-item-order="999824928" data-item-id="5.cr-big_cr_18mkjme1qr63v0" data-item-class="Shape Stroke Fill Part Indexed" data-item-index="5" data-renderer-id="0" transform="translate(423, 194)"><g id="5.cr-big_cr_18mkjme1qr63v0-stroke" fill="none" stroke-linecap="round" stroke-linejoin="round" stroke-miterlimit="4" stroke="#e3cd09" stroke-width="2"><g><path d="M 10 46C 10 65.882251 26.117749 82 46 82C 65.882251 82 82 65.882251 82 46C 82 26.117749 65.882251 10 46 10C 26.117749 10 10 26.117749 10 46"></path></g></g></g><g id="g-root-5.cu-smallCircle_sy_147dil21qr61hh-stroke" data-item-order="999824931" data-item-id="5.cu-smallCircle_sy_147dil21qr61hh" data-item-class="Part Indexed Stroke" data-item-index="5" data-renderer-id="0" transform="translate(456, 286.99609375)"><g id="5.cu-smallCircle_sy_147dil21qr61hh-stroke" fill="none" stroke-linecap="round" stroke-linejoin="round" stroke-miterlimit="4" stroke="#e3cd09" stroke-width="2"><g><path d="M 16 13C 16 14.6569 14.6569 16 13 16C 11.3431 16 10 14.6569 10 13C 10 11.3431 11.3431 10 13 10C 14.6569 10 16 11.3431 16 13Z"></path></g></g></g><g id="g-root-5.ln_ln_147dil21qr61hi-stroke" data-item-order="999824933" data-item-id="5.ln_ln_147dil21qr61hi" data-item-class="Curve Stroke Part Indexed" data-item-index="5" data-renderer-id="0" transform="translate(459, 266)"><g id="5.ln_ln_147dil21qr61hi-stroke" fill="none" stroke-linecap="round" stroke-linejoin="round" stroke-miterlimit="4" stroke="#e3cd09" stroke-width="2"><g><path d="M 10 10L 10 20.5L 10 31"></path></g></g></g><g id="g-root-4.cr-big_cr_1hi7jva1qr6329-stroke" data-item-order="999824934" data-item-id="4.cr-big_cr_1hi7jva1qr6329" data-item-class="Shape Stroke Fill Part Indexed" data-item-index="4" data-renderer-id="0" transform="translate(327, 313.998046875)"><g id="4.cr-big_cr_1hi7jva1qr6329-stroke" fill="none" stroke-linecap="round" stroke-linejoin="round" stroke-miterlimit="4" stroke="#93c131" stroke-width="2"><g><path d="M 10 46C 10 65.882251 26.117749 82 46 82C 65.882251 82 82 65.882251 82 46C 82 26.117749 65.882251 10 46 10C 26.117749 10 10 26.117749 10 46"></path></g></g></g><g id="g-root-4.cu-smallCircle_sy_18mkjme1qr63uy-stroke" data-item-order="999824937" data-item-id="4.cu-smallCircle_sy_18mkjme1qr63uy" data-item-class="Part Indexed Stroke" data-item-index="4" data-renderer-id="0" transform="translate(360, 287.001953125)"><g id="4.cu-smallCircle_sy_18mkjme1qr63uy-stroke" fill="none" stroke-linecap="round" stroke-linejoin="round" stroke-miterlimit="4" stroke="#93c131" stroke-width="2"><g><path d="M 10 13C 10 11.343109 11.343079 10 13 10C 14.656921 10 16 11.343109 16 13C 16 14.656891 14.656921 16 13 16C 11.343079 16 10 14.656891 10 13Z"></path></g></g></g><g id="g-root-4.ln_ln_18mkjme1qr63uz-stroke" data-item-order="999824939" data-item-id="4.ln_ln_18mkjme1qr63uz" data-item-class="Curve Stroke Part Indexed" data-item-index="4" data-renderer-id="0" transform="translate(363, 293.001953125)"><g id="4.ln_ln_18mkjme1qr63uz-stroke" fill="none" stroke-linecap="round" stroke-linejoin="round" stroke-miterlimit="4" stroke="#93c131" stroke-width="2"><g><path d="M 10 31L 10 20.5L 10 10"></path></g></g></g><g id="g-root-3.cr-big_cr_1ly11zq1qr629y-stroke" data-item-order="999824940" data-item-id="3.cr-big_cr_1ly11zq1qr629y" data-item-class="Shape Stroke Fill Part Indexed" data-item-index="3" data-renderer-id="0" transform="translate(231, 194)"><g id="3.cr-big_cr_1ly11zq1qr629y-stroke" fill="none" stroke-linecap="round" stroke-linejoin="round" stroke-miterlimit="4" stroke="#3bc482" stroke-width="2"><g><path d="M 10 46C 10 65.882251 26.117749 82 46 82C 65.882251 82 82 65.882251 82 46C 82 26.117749 65.882251 10 46 10C 26.117749 10 10 26.117749 10 46"></path></g></g></g><g id="g-root-3.cu-smallCircle_sy_1d2e1qu1qr632n-stroke" data-item-order="999824943" data-item-id="3.cu-smallCircle_sy_1d2e1qu1qr632n" data-item-class="Part Indexed Stroke" data-item-index="3" data-renderer-id="0" transform="translate(264, 286.99609375)"><g id="3.cu-smallCircle_sy_1d2e1qu1qr632n-stroke" fill="none" stroke-linecap="round" stroke-linejoin="round" stroke-miterlimit="4" stroke="#3bc482" stroke-width="2"><g><path d="M 16 13C 16 14.6569 14.6569 16 13 16C 11.3431 16 10 14.6569 10 13C 10 11.3431 11.3431 10 13 10C 14.6569 10 16 11.3431 16 13Z"></path></g></g></g><g id="g-root-3.ln_ln_1hi7jva1qr6328-stroke" data-item-order="999824945" data-item-id="3.ln_ln_1hi7jva1qr6328" data-item-class="Curve Stroke Part Indexed" data-item-index="3" data-renderer-id="0" transform="translate(267, 266)"><g id="3.ln_ln_1hi7jva1qr6328-stroke" fill="none" stroke-linecap="round" stroke-linejoin="round" stroke-miterlimit="4" stroke="#3bc482" stroke-width="2"><g><path d="M 10 10L 10 20.5L 10 31"></path></g></g></g><g id="g-root-2.cr-big_cr_1qduk461qr61hn-stroke" data-item-order="999824946" data-item-id="2.cr-big_cr_1qduk461qr61hn" data-item-class="Shape Stroke Fill Part Indexed" data-item-index="2" data-renderer-id="0" transform="translate(135, 314)"><g id="2.cr-big_cr_1qduk461qr61hn-stroke" fill="none" stroke-linecap="round" stroke-linejoin="round" stroke-miterlimit="4" stroke="#17b0e3" stroke-width="2"><g><path d="M 10 46C 10 65.882251 26.117749 82 46 82C 65.882251 82 82 65.882251 82 46C 82 26.117749 65.882251 10 46 10C 26.117749 10 10 26.117749 10 46"></path></g></g></g><g id="g-root-2.cu-smallCircle_sy_1ly11zq1qr629w-stroke" data-item-order="999824949" data-item-id="2.cu-smallCircle_sy_1ly11zq1qr629w" data-item-class="Part Indexed Stroke" data-item-index="2" data-renderer-id="0" transform="translate(168, 287.001953125)"><g id="2.cu-smallCircle_sy_1ly11zq1qr629w-stroke" fill="none" stroke-linecap="round" stroke-linejoin="round" stroke-miterlimit="4" stroke="#17b0e3" stroke-width="2"><g><path d="M 10 13C 10 11.343109 11.343109 10 13 10C 14.656891 10 16 11.343109 16 13C 16 14.656891 14.656891 16 13 16C 11.343109 16 10 14.656891 10 13Z"></path></g></g></g><g id="g-root-2.ln_ln_1ly11zq1qr629x-stroke" data-item-order="999824951" data-item-id="2.ln_ln_1ly11zq1qr629x" data-item-class="Curve Stroke Part Indexed" data-item-index="2" data-renderer-id="0" transform="translate(171, 293.001953125)"><g id="2.ln_ln_1ly11zq1qr629x-stroke" fill="none" stroke-linecap="round" stroke-linejoin="round" stroke-miterlimit="4" stroke="#17b0e3" stroke-width="2"><g><path d="M 10 31L 10 20.5L 10 10"></path></g></g></g><g id="g-root-1.cr-big_cr_7r1au1qr641s-stroke" data-item-order="999824952" data-item-id="1.cr-big_cr_7r1au1qr641s" data-item-class="Shape Stroke Fill Part Indexed Indexed_1" data-item-index="1" data-renderer-id="0" transform="translate(39, 194)"><g id="1.cr-big_cr_7r1au1qr641s-stroke" fill="none" stroke-linecap="round" stroke-linejoin="round" stroke-miterlimit="4" stroke="#4682e3" stroke-width="2"><g><path d="M 10 46C 10 65.882251 26.117749 82 46 82C 65.882251 82 82 65.882251 82 46C 82 26.117749 65.882251 10 46 10C 26.117749 10 10 26.117749 10 46"></path></g></g></g><g id="g-root-1.cu-smallCircle_sy_1qduk461qr61hl-stroke" data-item-order="999824955" data-item-id="1.cu-smallCircle_sy_1qduk461qr61hl" data-item-class="Part Indexed Indexed_1 Stroke" data-item-index="1" data-renderer-id="0" transform="translate(72, 286.99609375)"><g id="1.cu-smallCircle_sy_1qduk461qr61hl-stroke" fill="none" stroke-linecap="round" stroke-linejoin="round" stroke-miterlimit="4" stroke="#4682e3" stroke-width="2"><g><path d="M 16 13C 16 14.6569 14.6569 16 13 16C 11.3431 16 10 14.6569 10 13C 10 11.3431 11.3431 10 13 10C 14.6569 10 16 11.3431 16 13Z"></path></g></g></g><g id="g-root-1.ln_ln_1qduk461qr61hm-stroke" data-item-order="999824957" data-item-id="1.ln_ln_1qduk461qr61hm" data-item-class="Curve Stroke Part Indexed Indexed_1" data-item-index="1" data-renderer-id="0" transform="translate(75, 266)"><g id="1.ln_ln_1qduk461qr61hm-stroke" fill="none" stroke-linecap="round" stroke-linejoin="round" stroke-miterlimit="4" stroke="#4682e3" stroke-width="2"><g><path d="M 10 10L 10 20.5L 10 31"></path></g></g></g><g id="g-root-up_v8m4wm1qra96r-stroke" data-item-order="1000000000" data-item-id="up_v8m4wm1qra96r" data-item-class="Icon Stroke Indexed InsideFill InsideColorFill" data-item-index="9" data-renderer-id="0" transform="translate(819, 206)"><g id="up_v8m4wm1qra96r-stroke" fill="none" stroke-linecap="round" stroke-linejoin="round" stroke-miterlimit="4" stroke="#b65edf" stroke-width="2"><g><path d="M 56.285713 18.571428L 56.285713 15.142858C 56.285713 13.24931 54.750694 11.714286 52.857143 11.714286L 49.428574 11.714286M 39.142857 11.714286L 28.857143 11.714286M 11.714286 18.571428L 11.714286 15.142858C 11.714286 13.24931 13.24931 11.714286 15.142858 11.714286L 18.571428 11.714286M 11.714286 42.57143L 11.714286 52.857143C 11.714286 54.750694 13.24931 56.285713 15.142858 56.285713L 52.857143 56.285713C 54.750694 56.285713 56.285713 54.750694 56.285713 52.857143L 56.285713 42.57143M 11.714286 28.857143L 11.714286 34L 56.285713 34L 56.285713 28.857143"></path></g></g></g><g id="g-root-shop_18gbvx21qqp6o6-stroke" data-item-order="1000000000" data-item-id="shop_18gbvx21qqp6o6" data-item-class="Icon Stroke Indexed InsideFill InsideColorFill" data-item-index="7" data-renderer-id="0" transform="translate(627, 206)"><g id="shop_18gbvx21qqp6o6-stroke" fill="none" stroke-linecap="round" stroke-linejoin="round" stroke-miterlimit="4" stroke="#e15e5a" stroke-width="2"><g><path d="M 39 51C 39 52.656857 40.343147 54 42 54C 43.656857 54 45 52.656857 45 51C 45 49.343147 43.656857 48 42 48C 40.343147 48 39 49.343147 39 51ZM 17 51C 17 52.656857 18.343147 54 20 54C 21.656855 54 23 52.656857 23 51C 23 49.343147 21.656855 48 20 48C 18.343147 48 17 49.343147 17 51ZM 57 14L 54 14L 50 44L 11 44M 21 28L 21 37C 21 37.552284 21.447716 38 22 38L 38 38C 38.552284 38 39 37.552284 39 37L 39 28M 15 27L 28.690001 15.136C 29.441772 14.484344 30.558228 14.484344 31.309999 15.136L 45 27M 33 38L 33 31C 33 30.447716 32.552284 30 32 30L 28 30C 27.447716 30 27 30.447716 27 31L 27 38"></path></g></g></g><g id="g-root-tx_devops_1qbz4uu1qr62h1-stroke" data-item-order="1000000000" data-item-id="tx_devops_1qbz4uu1qr62h1" data-item-class="Label Stroke Indexed" data-item-index="8" data-renderer-id="0" transform="translate(705, 398)"></g><g id="g-root-pyra_1q88dhy1qqp9mz-stroke" data-item-order="1000000000" data-item-id="pyra_1q88dhy1qqp9mz" data-item-class="Icon Stroke Indexed InsideFill InsideColorFill" data-item-index="3" data-renderer-id="0" transform="translate(243, 206)"><g id="pyra_1q88dhy1qqp9mz-stroke" fill="none" stroke-linecap="round" stroke-linejoin="round" stroke-miterlimit="4" stroke="#3bc482" stroke-width="2"><g><path d="M 52.414001 19C 52.789101 19.374985 52.999886 19.88361 53 20.414L 53 55C 53 56.104568 52.104568 57 51 57L 17 57C 15.895431 57 15 56.104568 15 55L 15 13C 15 11.895431 15.895431 11 17 11L 43.585999 11C 44.11639 11.000113 44.625015 11.210901 45 11.586ZM 25 45C 25 47.209141 29.029438 49 34 49C 38.970562 49 43 47.209141 43 45C 43 42.790859 38.970562 41 34 41C 29.029438 41 25 42.790859 25 45ZM 25.632 43.523998L 33.080002 26.143999C 33.237091 25.775246 33.599182 25.535919 34 25.535919C 34.400818 25.535919 34.762909 25.775246 34.919998 26.143999L 42.368 43.523998"></path></g></g></g><g id="g-root-lapt_18gbvx21qqp6o7-stroke" data-item-order="1000000000" data-item-id="lapt_18gbvx21qqp6o7" data-item-class="Icon Stroke Indexed Indexed_1 InsideFill InsideColorFill" data-item-index="1" data-renderer-id="0" transform="translate(51, 206)"><g id="lapt_18gbvx21qqp6o7-stroke" fill="none" stroke-linecap="round" stroke-linejoin="round" stroke-miterlimit="4" stroke="#4682e3" stroke-width="2"><g><path d="M 32.285713 22C 32.285713 26.73387 36.123276 30.571428 40.857143 30.571428C 45.591011 30.571428 49.428574 26.73387 49.428574 22C 49.428574 17.26613 45.591011 13.428572 40.857143 13.428572C 36.123276 13.428572 32.285713 17.26613 32.285713 22M 40.857143 39.142857C 44.951847 39.133724 48.88147 40.756302 51.776871 43.651699C 54.672268 46.5471 56.294846 50.476723 56.285713 54.571426M 32.285713 37.428574L 11.714286 37.428574L 15.142858 54.57143L 35.714287 54.57143L 32.285713 37.428574ZM 22 46L 25.428572 46M 35.714287 54.57143L 46 54.57143"></path></g></g></g><g id="g-root-tx_apifirst_me82ty1qr6422-stroke" data-item-order="1000000000" data-item-id="tx_apifirst_me82ty1qr6422" data-item-class="Label Stroke Indexed" data-item-index="3" data-renderer-id="0" transform="translate(225, 158)"></g><g id="g-root-tx_retourde_1ursmza1qr61os-stroke" data-item-order="1000000000" data-item-id="tx_retourde_1ursmza1qr61os" data-item-class="Label Stroke Indexed" data-item-index="9" data-renderer-id="0" transform="translate(783, 134)"></g><g id="g-root-tx_tddclean_1d0imhi1qr641y-stroke" data-item-order="1000000000" data-item-id="tx_tddclean_1d0imhi1qr641y" data-item-class="Label Stroke Indexed" data-item-index="7" data-renderer-id="0" transform="translate(591, 134)"></g><g id="g-root-tx_principe_zpol7a1qr62h4-stroke" data-item-order="1000000000" data-item-id="tx_principe_zpol7a1qr62h4" data-item-class="Label Stroke Indexed" data-item-index="5" data-renderer-id="0" transform="translate(411, 134)"></g><g id="g-root-tx_userstor_hz11sm1qr61ok-stroke" data-item-order="1000000000" data-item-id="tx_userstor_hz11sm1qr61ok" data-item-class="Label Stroke Indexed Indexed_1" data-item-index="1" data-renderer-id="0" transform="translate(21, 134)"></g><g id="g-root-6_2rbrq1qqp91e-stroke" data-item-order="1000000000" data-item-id="6_2rbrq1qqp91e" data-item-class="Icon Stroke Indexed InsideFill InsideColorFill" data-item-index="2" data-renderer-id="0" transform="translate(147, 326)"><g id="6_2rbrq1qqp91e-stroke" fill="none" stroke-linecap="round" stroke-linejoin="round" stroke-miterlimit="4" stroke="#17b0e3" stroke-width="2"><g><path d="M 16.857143 49.428574C 16.857143 53.215668 19.927191 56.285713 23.714287 56.285713C 27.501381 56.285713 30.571428 53.215668 30.571428 49.428574C 30.571428 45.641476 27.501381 42.57143 23.714287 42.57143C 19.927191 42.57143 16.857143 45.641476 16.857143 49.428574M 16.857143 18.571428C 16.857143 22.358524 19.927191 25.428572 23.714287 25.428572C 27.501381 25.428572 30.571428 22.358524 30.571428 18.571428C 30.571428 14.784333 27.501381 11.714286 23.714287 11.714286C 19.927191 11.714286 16.857143 14.784333 16.857143 18.571428M 37.428574 22C 37.428574 25.787096 40.498619 28.857143 44.285713 28.857143C 48.072811 28.857143 51.142857 25.787096 51.142857 22C 51.142857 18.212904 48.072811 15.142858 44.285713 15.142858C 40.498619 15.142858 37.428574 18.212904 37.428574 22M 23.714287 42.57143L 23.714287 25.428572M 44.285713 28.857143L 44.285713 30.571428C 44.285713 34.358524 41.215668 37.428574 37.428574 37.428574L 28.857143 37.428574C 26.016823 37.428574 23.714287 39.731106 23.714287 42.57143"></path></g></g></g><g id="g-root-even_1cviwye1qqp91p-stroke" data-item-order="1000000000" data-item-id="even_1cviwye1qqp91p" data-item-class="Icon Stroke Indexed InsideFill InsideColorFill" data-item-index="4" data-renderer-id="0" transform="translate(339, 326)"><g id="even_1cviwye1qqp91p-stroke" fill="none" stroke-linecap="round" stroke-linejoin="round" stroke-miterlimit="4" stroke="#93c131" stroke-width="2"><g><path d="M 14.066 17L 53.933998 17C 53.933998 17 57 17 57 20.066L 57 53.933998C 57 53.933998 57 57 53.933998 57L 14.066 57C 14.066 57 11 57 11 53.933998L 11 20.066C 11 20.066 11 17 14.066 17M 11 28L 57 28M 22 20.712L 22 11M 46 20.712L 46 11M 24 42L 30 48L 44 34"></path></g></g></g><g id="g-root-wall_v4vdjq1qqp894-stroke" data-item-order="1000000000" data-item-id="wall_v4vdjq1qqp894" data-item-class="Icon Stroke Indexed InsideFill InsideColorFill" data-item-index="6" data-renderer-id="0" transform="translate(531, 326)"><g id="wall_v4vdjq1qqp894-stroke" fill="none" stroke-linecap="round" stroke-linejoin="round" stroke-miterlimit="4" stroke="#dd8433" stroke-width="2"><g><path d="M 11.714286 35.714287L 56.285713 35.714287L 56.285713 56.285713L 11.714286 56.285713ZM 34 11.714286C 34 11.714286 39.142857 20.285715 32.285713 23.714287C 28.857143 25.428572 23.714287 20.285715 23.714287 20.285715C 22.14448 23.720579 22.464014 27.723198 24.558886 30.865505C 26.653759 34.007813 30.225584 35.842236 34 35.714287C 37.228653 35.873039 40.374008 34.659817 42.659771 32.374058C 44.945534 30.088297 46.158752 26.94294 46 23.714285C 46.158752 20.485632 44.945534 17.340275 42.659771 15.054513C 40.374008 12.768753 37.228653 11.555532 34 11.714286ZM 11.714286 46L 56.285713 46M 28.857143 46L 28.857143 56.285713M 39.142857 35.714287L 39.142857 46"></path></g></g></g><g id="g-root-4_1lt1cgm1qqp79g-stroke" data-item-order="1000000000" data-item-id="4_1lt1cgm1qqp79g" data-item-class="Icon Stroke Indexed InsideFill InsideColorFill" data-item-index="8" data-renderer-id="0" transform="translate(723, 326)"><g id="4_1lt1cgm1qqp79g-stroke" fill="none" stroke-linecap="round" stroke-linejoin="round" stroke-miterlimit="4" stroke="#da5da8" stroke-width="2"><g><path d="M 20.827999 21L 30.16 32.585999C 30.940763 33.367001 30.940763 34.632999 30.16 35.414001L 20.827999 47M 56.414001 32.585999C 57.194763 33.367001 57.194763 34.632999 56.414001 35.414001L 46.414001 46.414001C 46.039013 46.789101 45.530388 46.999886 45 47L 33.835999 47L 45.422001 35.414001C 46.202763 34.632999 46.202763 33.367001 45.422001 32.585999L 33.835999 21L 45 21C 45.530388 21.000114 46.039013 21.210901 46.414001 21.586ZM 29 21L 20.827999 21M 29 47L 20.827999 47M 16 21L 11 21M 16 47L 11 47"></path></g></g></g><g id="g-root-tx_modlisat_me82ty1qr6423-stroke" data-item-order="1000000000" data-item-id="tx_modlisat_me82ty1qr6423" data-item-class="Label Stroke Indexed" data-item-index="2" data-renderer-id="0" transform="translate(105, 398)"></g><g id="g-root-tx_eventmod_v9v32u1qr639d-stroke" data-item-order="1000000000" data-item-id="tx_eventmod_v9v32u1qr639d" data-item-class="Label Stroke Indexed" data-item-index="4" data-renderer-id="0" transform="translate(291, 398)"></g><g id="g-root-tx_scuritpa_145i3bq1qr61ov-stroke" data-item-order="1000000000" data-item-id="tx_scuritpa_145i3bq1qr61ov" data-item-class="Label Stroke Indexed" data-item-index="6" data-renderer-id="0" transform="translate(495, 398)"></g><g id="g-root-tx_processu_93e1jq1qr62h9-stroke" data-item-order="1000000000" data-item-id="tx_processu_93e1jq1qr62h9" data-item-class="Label Stroke Title" data-item-index="none" data-renderer-id="0" transform="translate(321, 2)"></g><g id="g-root-bin_de7u521qqp7gh-stroke" data-item-order="1000000000" data-item-id="bin_de7u521qqp7gh" data-item-class="Icon Stroke Indexed InsideFill InsideColorFill" data-item-index="5" data-renderer-id="0" transform="translate(435, 206)"><g id="bin_de7u521qqp7gh-stroke" fill="none" stroke-linecap="round" stroke-linejoin="round" stroke-miterlimit="4" stroke="#e3cd09" stroke-width="2"><g><path d="M 13 20.007999L 55 20.007999C 55 20.007999 57 20.007999 57 22.007999L 57 46.007999C 57 46.007999 57 48.007999 55 48.007999L 13 48.007999C 13 48.007999 11 48.007999 11 46.007999L 11 22.007999C 11 22.007999 11 20.007999 13 20.007999M 34 28.007999L 34 40.007999M 32 40.007999L 36 40.007999M 32 28.007999L 36 28.007999M 28 31C 28 32.656853 26.656855 34 25 34L 22 34L 22 28L 25 28C 26.656855 28 28 29.343145 28 31ZM 28 37C 28 38.656853 26.656855 40 25 40L 22 40L 22 34L 25 34C 26.656855 34 28 35.343147 28 37ZM 40 40.007999L 40 28.007999L 46 40.007999L 46 28.007999"></path></g></g></g></g></g></svg>