<?xml version="1.0" encoding="utf-8" standalone="yes"?>
<!DOCTYPE svg PUBLIC "-//W3C//DTD SVG 1.1//EN" "http://www.w3.org/Graphics/SVG/1.1/DTD/svg11.dtd">
<svg width="708" height="493" viewBox="0 0 708 493" style="fill:none;stroke:none;fill-rule:evenodd;clip-rule:evenodd;stroke-linecap:round;stroke-linejoin:round;stroke-miterlimit:1.5;" version="1.1" xmlns="http://www.w3.org/2000/svg" xmlns:xlink="http://www.w3.org/1999/xlink"><style id="fontImports">@import url("https://fonts.googleapis.com/css2?family=Roboto:wght@400;700&amp;display=block");</style><rect id="" x="0" y="0" width="708" height="492" style="fill: #ffffff;"></rect><g id="items" style="isolation: isolate"><g id="blend" style="mix-blend-mode:normal"><g id="g-root--1.cu_sy_1q6c92d2tbymk-fill" data-item-order="999847940" data-item-id="-1.cu_sy_1q6c92d2tbymk" data-item-class="Part Fill Stroke ColorFillGray ColorStrokeGray" data-item-index="-1" data-renderer-id="0" transform="translate(314, 74)"><g id="-1.cu_sy_1q6c92d2tbymk-fill" stroke="none" fill="#f6f6f6"><g><path d="M 65.766602 394C 80.754802 394 106.000002 308.039 106.000002 202C 106.000002 95.9613 80.754802 10 65.766602 10C 80.775202 10.01 92.941702 96.2224 92.941702 202C 92.941702 307.778 80.775202 393.99 65.766602 394ZM 65.765897 394C 80.774597 393.99 92.941097 307.778 92.941097 202C 92.941097 96.2224 80.774597 10.01 65.765897 10L 51.957397 10C 66.060697 16.8878 77.199297 100.4719 77.199297 202C 77.199297 303.528 65.382597 387.112 51.279297 394L 65.765897 394ZM 77.2 202C 77.2 303.528 65.3833 387.112 51.28 394L 50.0615 394C 35.0734 394 10 308.039 10 202C 10 95.9613 35.0734 10 50.0615 10C 50.6991 10 51.9581 10 51.9581 10C 66.0614 16.8878 77.2 100.4719 77.2 202Z"></path></g></g></g><g id="g-root--1.cu_sy_1q6c92d2tbymk-fill" data-item-order="999847940" data-item-id="-1.cu_sy_1q6c92d2tbymk" data-item-class="Part Fill Stroke ColorFillGray ColorStrokeGray" data-item-index="-1" data-renderer-id="0" transform="translate(314, 74)"><g id="-1.cu_sy_1q6c92d2tbymk-fill" stroke="none" fill="#f6f6f6"><g><path d="M 65.766602 394C 80.754802 394 106.000002 308.039 106.000002 202C 106.000002 95.9613 80.754802 10 65.766602 10C 80.775202 10.01 92.941702 96.2224 92.941702 202C 92.941702 307.778 80.775202 393.99 65.766602 394ZM 65.765897 394C 80.774597 393.99 92.941097 307.778 92.941097 202C 92.941097 96.2224 80.774597 10.01 65.765897 10L 51.957397 10C 66.060697 16.8878 77.199297 100.4719 77.199297 202C 77.199297 303.528 65.382597 387.112 51.279297 394L 65.765897 394ZM 77.2 202C 77.2 303.528 65.3833 387.112 51.28 394L 50.0615 394C 35.0734 394 10 308.039 10 202C 10 95.9613 35.0734 10 50.0615 10C 50.6991 10 51.9581 10 51.9581 10C 66.0614 16.8878 77.2 100.4719 77.2 202Z"></path></g></g></g><g id="g-root-0.cr-medium_cr_1lqiqxx2tbzet-fill" data-item-order="999847942" data-item-id="0.cr-medium_cr_1lqiqxx2tbzet" data-item-class="Shape Stroke Fill Part Indexed_0" data-item-index="0" data-renderer-id="0" transform="translate(482, 230)"><g id="0.cr-medium_cr_1lqiqxx2tbzet-fill" stroke="none" fill="#f0f0f0"><g><path d="M 10 46C 10 65.882251 26.117749 82 46 82C 65.882251 82 82 65.882251 82 46C 82 26.117749 65.882251 10 46 10C 26.117749 10 10 26.117749 10 46"></path></g></g></g><g id="g-root-0.cr-medium_cr_1lqiqxx2tbzet-fill" data-item-order="999847942" data-item-id="0.cr-medium_cr_1lqiqxx2tbzet" data-item-class="Shape Stroke Fill Part Indexed_0" data-item-index="0" data-renderer-id="0" transform="translate(482, 230)"><g id="0.cr-medium_cr_1lqiqxx2tbzet-fill" stroke="none" fill="#f0f0f0"><g><path d="M 10 46C 10 65.882251 26.117749 82 46 82C 65.882251 82 82 65.882251 82 46C 82 26.117749 65.882251 10 46 10C 26.117749 10 10 26.117749 10 46"></path></g></g></g><g id="g-root-5.line_sy_v487ad2tbzf2-fill" data-item-order="999847945" data-item-id="5.line_sy_v487ad2tbzf2" data-item-class="Curve Stroke Part Indexed" data-item-index="5" data-renderer-id="0" transform="translate(230, 308)"></g><g id="g-root-5.line_sy_v487ad2tbzf2-fill" data-item-order="999847945" data-item-id="5.line_sy_v487ad2tbzf2" data-item-class="Curve Stroke Part Indexed" data-item-index="5" data-renderer-id="0" transform="translate(230, 308)"></g><g id="g-root-5.cr-small_cr_v487ad2tbzf3-fill" data-item-order="999847946" data-item-id="5.cr-small_cr_v487ad2tbzf3" data-item-class="Shape Stroke Fill Part Indexed" data-item-index="5" data-renderer-id="0" transform="translate(170, 404.0001220703125)"><g id="5.cr-small_cr_v487ad2tbzf3-fill" stroke="none" fill="#fef2e6"><g><path d="M 10 40C 10.000002 56.568544 23.431459 70.000002 40.000002 70.000002C 56.568544 70.000002 70.000002 56.568544 70.000002 40.000002C 70.000002 23.431459 56.568544 10.000002 40.000002 10.000002C 23.431459 10.000002 10.000002 23.431459 10.000002 40.000002"></path></g></g></g><g id="g-root-5.cr-small_cr_v487ad2tbzf3-fill" data-item-order="999847946" data-item-id="5.cr-small_cr_v487ad2tbzf3" data-item-class="Shape Stroke Fill Part Indexed" data-item-index="5" data-renderer-id="0" transform="translate(170, 404.0001220703125)"><g id="5.cr-small_cr_v487ad2tbzf3-fill" stroke="none" fill="#fef2e6"><g><path d="M 10 40C 10.000002 56.568544 23.431459 70.000002 40.000002 70.000002C 56.568544 70.000002 70.000002 56.568544 70.000002 40.000002C 70.000002 23.431459 56.568544 10.000002 40.000002 10.000002C 23.431459 10.000002 10.000002 23.431459 10.000002 40.000002"></path></g></g></g><g id="g-root-4.line_sy_13zv7j92tbymc-fill" data-item-order="999847949" data-item-id="4.line_sy_13zv7j92tbymc" data-item-class="Curve Stroke Part Indexed" data-item-index="4" data-renderer-id="0" transform="translate(230, 290)"></g><g id="g-root-4.line_sy_13zv7j92tbymc-fill" data-item-order="999847949" data-item-id="4.line_sy_13zv7j92tbymc" data-item-class="Curve Stroke Part Indexed" data-item-index="4" data-renderer-id="0" transform="translate(230, 290)"></g><g id="g-root-4.cr-small_cr_13zv7j92tbymd-fill" data-item-order="999847950" data-item-id="4.cr-small_cr_13zv7j92tbymd" data-item-class="Shape Stroke Fill Part Indexed" data-item-index="4" data-renderer-id="0" transform="translate(170, 320)"><g id="4.cr-small_cr_13zv7j92tbymd-fill" stroke="none" fill="#fffce6"><g><path d="M 10 40C 10.000002 56.568544 23.431459 70.000002 40.000002 70.000002C 56.568544 70.000002 70.000002 56.568544 70.000002 40.000002C 70.000002 23.431459 56.568544 10.000002 40.000002 10.000002C 23.431459 10.000002 10.000002 23.431459 10.000002 40.000002"></path></g></g></g><g id="g-root-4.cr-small_cr_13zv7j92tbymd-fill" data-item-order="999847950" data-item-id="4.cr-small_cr_13zv7j92tbymd" data-item-class="Shape Stroke Fill Part Indexed" data-item-index="4" data-renderer-id="0" transform="translate(170, 320)"><g id="4.cr-small_cr_13zv7j92tbymd-fill" stroke="none" fill="#fffce6"><g><path d="M 10 40C 10.000002 56.568544 23.431459 70.000002 40.000002 70.000002C 56.568544 70.000002 70.000002 56.568544 70.000002 40.000002C 70.000002 23.431459 56.568544 10.000002 40.000002 10.000002C 23.431459 10.000002 10.000002 23.431459 10.000002 40.000002"></path></g></g></g><g id="g-root-3.line_sy_18fopnp2tbxu2-fill" data-item-order="999847953" data-item-id="3.line_sy_18fopnp2tbxu2" data-item-class="Curve Stroke Part Indexed" data-item-index="3" data-renderer-id="0" transform="translate(230.10940551757812, 266)"></g><g id="g-root-3.line_sy_18fopnp2tbxu2-fill" data-item-order="999847953" data-item-id="3.line_sy_18fopnp2tbxu2" data-item-class="Curve Stroke Part Indexed" data-item-index="3" data-renderer-id="0" transform="translate(230.10940551757812, 266)"></g><g id="g-root-3.cr-small_cr_18fopnp2tbxu3-fill" data-item-order="999847954" data-item-id="3.cr-small_cr_18fopnp2tbxu3" data-item-class="Shape Stroke Fill Part Indexed" data-item-index="3" data-renderer-id="0" transform="translate(170, 236)"><g id="3.cr-small_cr_18fopnp2tbxu3-fill" stroke="none" fill="#f5fbe9"><g><path d="M 10 40C 10.000002 56.568544 23.431459 70.000002 40.000002 70.000002C 56.568544 70.000002 70.000002 56.568544 70.000002 40.000002C 70.000002 23.431459 56.568544 10.000002 40.000002 10.000002C 23.431459 10.000002 10.000002 23.431459 10.000002 40.000002"></path></g></g></g><g id="g-root-3.cr-small_cr_18fopnp2tbxu3-fill" data-item-order="999847954" data-item-id="3.cr-small_cr_18fopnp2tbxu3" data-item-class="Shape Stroke Fill Part Indexed" data-item-index="3" data-renderer-id="0" transform="translate(170, 236)"><g id="3.cr-small_cr_18fopnp2tbxu3-fill" stroke="none" fill="#f5fbe9"><g><path d="M 10 40C 10.000002 56.568544 23.431459 70.000002 40.000002 70.000002C 56.568544 70.000002 70.000002 56.568544 70.000002 40.000002C 70.000002 23.431459 56.568544 10.000002 40.000002 10.000002C 23.431459 10.000002 10.000002 23.431459 10.000002 40.000002"></path></g></g></g><g id="g-root-2.line_sy_1hbbpwl2tbx1c-fill" data-item-order="999847957" data-item-id="2.line_sy_1hbbpwl2tbx1c" data-item-class="Curve Stroke Part Indexed" data-item-index="2" data-renderer-id="0" transform="translate(230, 182)"></g><g id="g-root-2.line_sy_1hbbpwl2tbx1c-fill" data-item-order="999847957" data-item-id="2.line_sy_1hbbpwl2tbx1c" data-item-class="Curve Stroke Part Indexed" data-item-index="2" data-renderer-id="0" transform="translate(230, 182)"></g><g id="g-root-2.cr-small_cr_18fopnp2tbxu1-fill" data-item-order="999847958" data-item-id="2.cr-small_cr_18fopnp2tbxu1" data-item-class="Shape Stroke Fill Part Indexed" data-item-index="2" data-renderer-id="0" transform="translate(170, 152)"><g id="2.cr-small_cr_18fopnp2tbxu1-fill" stroke="none" fill="#e9fbf3"><g><path d="M 10 40C 10.000002 56.568544 23.431459 70.000002 40.000002 70.000002C 56.568544 70.000002 70.000002 56.568544 70.000002 40.000002C 70.000002 23.431459 56.568544 10.000002 40.000002 10.000002C 23.431459 10.000002 10.000002 23.431459 10.000002 40.000002"></path></g></g></g><g id="g-root-2.cr-small_cr_18fopnp2tbxu1-fill" data-item-order="999847958" data-item-id="2.cr-small_cr_18fopnp2tbxu1" data-item-class="Shape Stroke Fill Part Indexed" data-item-index="2" data-renderer-id="0" transform="translate(170, 152)"><g id="2.cr-small_cr_18fopnp2tbxu1-fill" stroke="none" fill="#e9fbf3"><g><path d="M 10 40C 10.000002 56.568544 23.431459 70.000002 40.000002 70.000002C 56.568544 70.000002 70.000002 56.568544 70.000002 40.000002C 70.000002 23.431459 56.568544 10.000002 40.000002 10.000002C 23.431459 10.000002 10.000002 23.431459 10.000002 40.000002"></path></g></g></g><g id="g-root-1.line_sy_1lqiqxx2tbzeu-fill" data-item-order="999847961" data-item-id="1.line_sy_1lqiqxx2tbzeu" data-item-class="Curve Stroke Part Indexed Indexed_1" data-item-index="1" data-renderer-id="0" transform="translate(230, 98)"></g><g id="g-root-1.line_sy_1lqiqxx2tbzeu-fill" data-item-order="999847961" data-item-id="1.line_sy_1lqiqxx2tbzeu" data-item-class="Curve Stroke Part Indexed Indexed_1" data-item-index="1" data-renderer-id="0" transform="translate(230, 98)"></g><g id="g-root-1.cr-small_cr_1cvi7s52tbx1r-fill" data-item-order="999847962" data-item-id="1.cr-small_cr_1cvi7s52tbx1r" data-item-class="Shape Stroke Fill Part Indexed Indexed_1" data-item-index="1" data-renderer-id="0" transform="translate(170, 68)"><g id="1.cr-small_cr_1cvi7s52tbx1r-fill" stroke="none" fill="#e6f9ff"><g><path d="M 10 40C 10.000002 56.568544 23.431459 70.000002 40.000002 70.000002C 56.568544 70.000002 70.000002 56.568544 70.000002 40.000002C 70.000002 23.431459 56.568544 10.000002 40.000002 10.000002C 23.431459 10.000002 10.000002 23.431459 10.000002 40.000002"></path></g></g></g><g id="g-root-1.cr-small_cr_1cvi7s52tbx1r-fill" data-item-order="999847962" data-item-id="1.cr-small_cr_1cvi7s52tbx1r" data-item-class="Shape Stroke Fill Part Indexed Indexed_1" data-item-index="1" data-renderer-id="0" transform="translate(170, 68)"><g id="1.cr-small_cr_1cvi7s52tbx1r-fill" stroke="none" fill="#e6f9ff"><g><path d="M 10 40C 10.000002 56.568544 23.431459 70.000002 40.000002 70.000002C 56.568544 70.000002 70.000002 56.568544 70.000002 40.000002C 70.000002 23.431459 56.568544 10.000002 40.000002 10.000002C 23.431459 10.000002 10.000002 23.431459 10.000002 40.000002"></path></g></g></g><g id="g-root-pers_mcc1k52tdceh-fill" data-item-order="1000000000" data-item-id="pers_mcc1k52tdceh" data-item-class="Icon Stroke Indexed InsideFill InsideColorFill" data-item-index="2" data-renderer-id="0" transform="translate(182, 164)"></g><g id="g-root-pers_mcc1k52tdceh-fill" data-item-order="1000000000" data-item-id="pers_mcc1k52tdceh" data-item-class="Icon Stroke Indexed InsideFill InsideColorFill" data-item-index="2" data-renderer-id="0" transform="translate(182, 164)"></g><g id="g-root-tx_indpenda_dbp8md2tbzls-fill" data-item-order="1000000000" data-item-id="tx_indpenda_dbp8md2tbzls" data-item-class="Label Stroke Indexed" data-item-index="3" data-renderer-id="0" transform="translate(26, 242)"><g id="tx_indpenda_dbp8md2tbzls-fill" stroke="none" fill="#484848"><g><text style="font: 20px Roboto, sans-serif; white-space: pre;" font-weight="20px" font-size="Roboto," font-family="sans-serif"><tspan x="14.52" y="34" dominant-baseline="ideographic">Indépendance </tspan><tspan x="86.42" y="58" dominant-baseline="ideographic">de l'UI</tspan></text></g></g></g><g id="g-root-tx_indpenda_dbp8md2tbzls-fill" data-item-order="1000000000" data-item-id="tx_indpenda_dbp8md2tbzls" data-item-class="Label Stroke Indexed" data-item-index="3" data-renderer-id="0" transform="translate(26, 242)"><g id="tx_indpenda_dbp8md2tbzls-fill" stroke="none" fill="#484848"><g><text style="font: 20px Roboto, sans-serif; white-space: pre;" font-weight="20px" font-size="Roboto," font-family="sans-serif"><tspan x="14.52" y="34" dominant-baseline="ideographic">Indépendance </tspan><tspan x="86.42" y="58" dominant-baseline="ideographic">de l'UI</tspan></text></g></g></g><g id="g-root-tx_testabil_4gopgl2tbx8p-fill" data-item-order="1000000000" data-item-id="tx_testabil_4gopgl2tbx8p" data-item-class="Label Stroke Indexed" data-item-index="2" data-renderer-id="0" transform="translate(62, 170)"><g id="tx_testabil_4gopgl2tbx8p-fill" stroke="none" fill="#484848"><g><text style="font: 20px Roboto, sans-serif; white-space: pre;" font-weight="20px" font-size="Roboto," font-family="sans-serif"><tspan x="11.79" y="34" dominant-baseline="ideographic">Testabilité</tspan></text></g></g></g><g id="g-root-tx_testabil_4gopgl2tbx8p-fill" data-item-order="1000000000" data-item-id="tx_testabil_4gopgl2tbx8p" data-item-class="Label Stroke Indexed" data-item-index="2" data-renderer-id="0" transform="translate(62, 170)"><g id="tx_testabil_4gopgl2tbx8p-fill" stroke="none" fill="#484848"><g><text style="font: 20px Roboto, sans-serif; white-space: pre;" font-weight="20px" font-size="Roboto," font-family="sans-serif"><tspan x="11.79" y="34" dominant-baseline="ideographic">Testabilité</tspan></text></g></g></g><g id="g-root-1_v7z1t12tdbls-fill" data-item-order="1000000000" data-item-id="1_v7z1t12tdbls" data-item-class="Icon Stroke Indexed Indexed_1 InsideFill InsideColorFill" data-item-index="1" data-renderer-id="0" transform="translate(182, 80)"></g><g id="g-root-1_v7z1t12tdbls-fill" data-item-order="1000000000" data-item-id="1_v7z1t12tdbls" data-item-class="Icon Stroke Indexed Indexed_1 InsideFill InsideColorFill" data-item-index="1" data-renderer-id="0" transform="translate(182, 80)"></g><g id="g-root-hous_zlx4o52tdbt8-fill" data-item-order="1000000000" data-item-id="hous_zlx4o52tdbt8" data-item-class="Icon Stroke InsideFill" data-item-index="none" data-renderer-id="0" transform="translate(494, 242)"></g><g id="g-root-tx_architec_zs5vj92tal1p-fill" data-item-order="1000000000" data-item-id="tx_architec_zs5vj92tal1p" data-item-class="Label Stroke" data-item-index="none" data-renderer-id="0" transform="translate(566, 230)"><g id="tx_architec_zs5vj92tal1p-fill" stroke="none" fill="#484848"><g><text style="font: 20px Roboto, sans-serif; white-space: pre;" font-weight="20px" font-size="Roboto," font-family="sans-serif"><tspan x="12" y="34" dominant-baseline="ideographic">Architecture </tspan><tspan x="12" y="58" dominant-baseline="ideographic">Logicielle </tspan><tspan x="12" y="82" dominant-baseline="ideographic">Robuste</tspan></text></g></g></g><g id="g-root-tx_architec_zs5vj92tal1p-fill" data-item-order="1000000000" data-item-id="tx_architec_zs5vj92tal1p" data-item-class="Label Stroke" data-item-index="none" data-renderer-id="0" transform="translate(566, 230)"><g id="tx_architec_zs5vj92tal1p-fill" stroke="none" fill="#484848"><g><text style="font: 20px Roboto, sans-serif; white-space: pre;" font-weight="20px" font-size="Roboto," font-family="sans-serif"><tspan x="12" y="34" dominant-baseline="ideographic">Architecture </tspan><tspan x="12" y="58" dominant-baseline="ideographic">Logicielle </tspan><tspan x="12" y="82" dominant-baseline="ideographic">Robuste</tspan></text></g></g></g><g id="g-root-serv_v63mjp2tdclh-fill" data-item-order="1000000000" data-item-id="serv_v63mjp2tdclh" data-item-class="Icon Stroke Indexed InsideFill InsideColorFill" data-item-index="5" data-renderer-id="0" transform="translate(182, 416.0001220703125)"></g><g id="g-root-1_magmat2tdde6-fill" data-item-order="1000000000" data-item-id="1_magmat2tdde6" data-item-class="Icon Stroke Indexed InsideFill InsideColorFill" data-item-index="3" data-renderer-id="0" transform="translate(182, 248)"></g><g id="g-root-hous_zlx4o52tdbt8-fill" data-item-order="1000000000" data-item-id="hous_zlx4o52tdbt8" data-item-class="Icon Stroke InsideFill" data-item-index="none" data-renderer-id="0" transform="translate(494, 242)"></g><g id="g-root-tx_indpenda_8vvqhx2tbzm7-fill" data-item-order="1000000000" data-item-id="tx_indpenda_8vvqhx2tbzm7" data-item-class="Label Stroke Indexed" data-item-index="4" data-renderer-id="0" transform="translate(26, 314.0001220703125)"><g id="tx_indpenda_8vvqhx2tbzm7-fill" stroke="none" fill="#484848"><g><text style="font: 20px Roboto, sans-serif; white-space: pre;" font-weight="20px" font-size="Roboto," font-family="sans-serif"><tspan x="14.52" y="34" dominant-baseline="ideographic">Indépendance </tspan><tspan x="21.42" y="58" dominant-baseline="ideographic">de la Base de </tspan><tspan x="61.9" y="82" dominant-baseline="ideographic">Données</tspan></text></g></g></g><g id="g-root-tx_indpenda_8vvqhx2tbzm7-fill" data-item-order="1000000000" data-item-id="tx_indpenda_8vvqhx2tbzm7" data-item-class="Label Stroke Indexed" data-item-index="4" data-renderer-id="0" transform="translate(26, 314.0001220703125)"><g id="tx_indpenda_8vvqhx2tbzm7-fill" stroke="none" fill="#484848"><g><text style="font: 20px Roboto, sans-serif; white-space: pre;" font-weight="20px" font-size="Roboto," font-family="sans-serif"><tspan x="14.52" y="34" dominant-baseline="ideographic">Indépendance </tspan><tspan x="21.42" y="58" dominant-baseline="ideographic">de la Base de </tspan><tspan x="61.9" y="82" dominant-baseline="ideographic">Données</tspan></text></g></g></g><g id="g-root-tx_indpenda_v7c52tby0y-fill" data-item-order="1000000000" data-item-id="tx_indpenda_v7c52tby0y" data-item-class="Label Stroke Indexed Indexed_1" data-item-index="1" data-renderer-id="0" transform="translate(2, 74)"><g id="tx_indpenda_v7c52tby0y-fill" stroke="none" fill="#484848"><g><text style="font: 20px Roboto, sans-serif; white-space: pre;" font-weight="20px" font-size="Roboto," font-family="sans-serif"><tspan x="38.52" y="34" dominant-baseline="ideographic">Indépendance </tspan><tspan x="17.02" y="58" dominant-baseline="ideographic">des Frameworks</tspan></text></g></g></g><g id="g-root-forb_hun46d2tde6f-fill" data-item-order="1000000000" data-item-id="forb_hun46d2tde6f" data-item-class="Icon Stroke Indexed InsideFill InsideColorFill" data-item-index="4" data-renderer-id="0" transform="translate(182, 332)"></g><g id="g-root-forb_hun46d2tde6f-fill" data-item-order="1000000000" data-item-id="forb_hun46d2tde6f" data-item-class="Icon Stroke Indexed InsideFill InsideColorFill" data-item-index="4" data-renderer-id="0" transform="translate(182, 332)"></g><g id="g-root-tx_indpenda_hriqqt2tbyti-fill" data-item-order="1000000000" data-item-id="tx_indpenda_hriqqt2tbyti" data-item-class="Label Stroke Indexed" data-item-index="5" data-renderer-id="0" transform="translate(26, 398.0001220703125)"><g id="tx_indpenda_hriqqt2tbyti-fill" stroke="none" fill="#484848"><g><text style="font: 20px Roboto, sans-serif; white-space: pre;" font-weight="20px" font-size="Roboto," font-family="sans-serif"><tspan x="14.52" y="34" dominant-baseline="ideographic">Indépendance </tspan><tspan x="27.52" y="58" dominant-baseline="ideographic">des Services </tspan><tspan x="62.88" y="82" dominant-baseline="ideographic">Externes</tspan></text></g></g></g><g id="g-root-tx_indpenda_hriqqt2tbyti-fill" data-item-order="1000000000" data-item-id="tx_indpenda_hriqqt2tbyti" data-item-class="Label Stroke Indexed" data-item-index="5" data-renderer-id="0" transform="translate(26, 398.0001220703125)"><g id="tx_indpenda_hriqqt2tbyti-fill" stroke="none" fill="#484848"><g><text style="font: 20px Roboto, sans-serif; white-space: pre;" font-weight="20px" font-size="Roboto," font-family="sans-serif"><tspan x="14.52" y="34" dominant-baseline="ideographic">Indépendance </tspan><tspan x="27.52" y="58" dominant-baseline="ideographic">des Services </tspan><tspan x="62.88" y="82" dominant-baseline="ideographic">Externes</tspan></text></g></g></g><g id="g-root-tx_indpenda_v7c52tby0y-fill" data-item-order="1000000000" data-item-id="tx_indpenda_v7c52tby0y" data-item-class="Label Stroke Indexed Indexed_1" data-item-index="1" data-renderer-id="0" transform="translate(2, 74)"><g id="tx_indpenda_v7c52tby0y-fill" stroke="none" fill="#484848"><g><text style="font: 20px Roboto, sans-serif; white-space: pre;" font-weight="20px" font-size="Roboto," font-family="sans-serif"><tspan x="38.52" y="34" dominant-baseline="ideographic">Indépendance </tspan><tspan x="17.02" y="58" dominant-baseline="ideographic">des Frameworks</tspan></text></g></g></g><g id="g-root-tx_architec_v7c52tby0z-fill" data-item-order="1000000000" data-item-id="tx_architec_v7c52tby0z" data-item-class="Label Stroke Title" data-item-index="none" data-renderer-id="0" transform="translate(218, 2)"><g id="tx_architec_v7c52tby0z-fill" stroke="none" fill="#484848"><g><text style="font: 20px Roboto, sans-serif; white-space: pre;" font-weight="20px" font-size="Roboto," font-family="sans-serif"><tspan x="15.96" y="34" dominant-baseline="ideographic">Architecture Logicielle Robuste</tspan></text></g></g></g><g id="g-root-serv_v63mjp2tdclh-fill" data-item-order="1000000000" data-item-id="serv_v63mjp2tdclh" data-item-class="Icon Stroke Indexed InsideFill InsideColorFill" data-item-index="5" data-renderer-id="0" transform="translate(182, 416.0001220703125)"></g><g id="g-root-tx_architec_v7c52tby0z-fill" data-item-order="1000000000" data-item-id="tx_architec_v7c52tby0z" data-item-class="Label Stroke Title" data-item-index="none" data-renderer-id="0" transform="translate(218, 2)"><g id="tx_architec_v7c52tby0z-fill" stroke="none" fill="#484848"><g><text style="font: 20px Roboto, sans-serif; white-space: pre;" font-weight="20px" font-size="Roboto," font-family="sans-serif"><tspan x="15.96" y="34" dominant-baseline="ideographic">Architecture Logicielle Robuste</tspan></text></g></g></g><g id="g-root-1_magmat2tdde6-fill" data-item-order="1000000000" data-item-id="1_magmat2tdde6" data-item-class="Icon Stroke Indexed InsideFill InsideColorFill" data-item-index="3" data-renderer-id="0" transform="translate(182, 248)"></g><g id="g-root--1.cu_sy_1q6c92d2tbymk-stroke" data-item-order="999847940" data-item-id="-1.cu_sy_1q6c92d2tbymk" data-item-class="Part Fill Stroke ColorFillGray ColorStrokeGray" data-item-index="-1" data-renderer-id="0" transform="translate(314, 74)"><g id="-1.cu_sy_1q6c92d2tbymk-stroke" fill="none" stroke-linecap="round" stroke-linejoin="round" stroke-miterlimit="4" stroke="#888888" stroke-width="2"><g><path d="M 65.766602 394C 80.754802 394 106.000002 308.0387 106.000002 202C 106.000002 95.9613 80.754802 10 65.766602 10C 80.775202 10.01 92.941702 96.2224 92.941702 202C 92.941702 307.7776 80.775202 393.99 65.766602 394ZM 65.765897 394C 80.774597 393.99 92.941097 307.7776 92.941097 202C 92.941097 96.2224 80.774597 10.01 65.765897 10L 51.957397 10C 66.060697 16.8878 77.199297 100.4719 77.199297 202C 77.199297 303.5282 65.382597 387.1122 51.279297 394L 65.765897 394ZM 77.2 202C 77.2 303.5282 65.3833 387.1122 51.28 394L 50.0615 394C 35.0734 394 10 308.0387 10 202C 10 95.9613 35.0734 10 50.0615 10C 50.6991 10 51.9581 10 51.9581 10C 66.0614 16.8878 77.2 100.4719 77.2 202Z"></path></g></g></g><g id="g-root--1.cu_sy_1q6c92d2tbymk-stroke" data-item-order="999847940" data-item-id="-1.cu_sy_1q6c92d2tbymk" data-item-class="Part Fill Stroke ColorFillGray ColorStrokeGray" data-item-index="-1" data-renderer-id="0" transform="translate(314, 74)"><g id="-1.cu_sy_1q6c92d2tbymk-stroke" fill="none" stroke-linecap="round" stroke-linejoin="round" stroke-miterlimit="4" stroke="#888888" stroke-width="2"><g><path d="M 65.766602 394C 80.754802 394 106.000002 308.0387 106.000002 202C 106.000002 95.9613 80.754802 10 65.766602 10C 80.775202 10.01 92.941702 96.2224 92.941702 202C 92.941702 307.7776 80.775202 393.99 65.766602 394ZM 65.765897 394C 80.774597 393.99 92.941097 307.7776 92.941097 202C 92.941097 96.2224 80.774597 10.01 65.765897 10L 51.957397 10C 66.060697 16.8878 77.199297 100.4719 77.199297 202C 77.199297 303.5282 65.382597 387.1122 51.279297 394L 65.765897 394ZM 77.2 202C 77.2 303.5282 65.3833 387.1122 51.28 394L 50.0615 394C 35.0734 394 10 308.0387 10 202C 10 95.9613 35.0734 10 50.0615 10C 50.6991 10 51.9581 10 51.9581 10C 66.0614 16.8878 77.2 100.4719 77.2 202Z"></path></g></g></g><g id="g-root-0.cr-medium_cr_1lqiqxx2tbzet-stroke" data-item-order="999847942" data-item-id="0.cr-medium_cr_1lqiqxx2tbzet" data-item-class="Shape Stroke Fill Part Indexed_0" data-item-index="0" data-renderer-id="0" transform="translate(482, 230)"><g id="0.cr-medium_cr_1lqiqxx2tbzet-stroke" fill="none" stroke-linecap="round" stroke-linejoin="round" stroke-miterlimit="4" stroke="#484848" stroke-width="2"><g><path d="M 10 46C 10 65.882251 26.117749 82 46 82C 65.882251 82 82 65.882251 82 46C 82 26.117749 65.882251 10 46 10C 26.117749 10 10 26.117749 10 46"></path></g></g></g><g id="g-root-0.cr-medium_cr_1lqiqxx2tbzet-stroke" data-item-order="999847942" data-item-id="0.cr-medium_cr_1lqiqxx2tbzet" data-item-class="Shape Stroke Fill Part Indexed_0" data-item-index="0" data-renderer-id="0" transform="translate(482, 230)"><g id="0.cr-medium_cr_1lqiqxx2tbzet-stroke" fill="none" stroke-linecap="round" stroke-linejoin="round" stroke-miterlimit="4" stroke="#484848" stroke-width="2"><g><path d="M 10 46C 10 65.882251 26.117749 82 46 82C 65.882251 82 82 65.882251 82 46C 82 26.117749 65.882251 10 46 10C 26.117749 10 10 26.117749 10 46"></path></g></g></g><g id="g-root-5.line_sy_v487ad2tbzf2-stroke" data-item-order="999847945" data-item-id="5.line_sy_v487ad2tbzf2" data-item-class="Curve Stroke Part Indexed" data-item-index="5" data-renderer-id="0" transform="translate(230, 308)"><g id="5.line_sy_v487ad2tbzf2-stroke" fill="none" stroke-linecap="round" stroke-linejoin="round" stroke-miterlimit="4" stroke="#dd8433" stroke-width="2"><g><path d="M 272.49 11.32L 130 136L 10 136"></path><path d="M 272.3 20.2L 272.9 11L 263.7 10.4" stroke-dasharray="none"></path></g></g></g><g id="g-root-5.line_sy_v487ad2tbzf2-stroke" data-item-order="999847945" data-item-id="5.line_sy_v487ad2tbzf2" data-item-class="Curve Stroke Part Indexed" data-item-index="5" data-renderer-id="0" transform="translate(230, 308)"><g id="5.line_sy_v487ad2tbzf2-stroke" fill="none" stroke-linecap="round" stroke-linejoin="round" stroke-miterlimit="4" stroke="#dd8433" stroke-width="2"><g><path d="M 272.49 11.32L 130 136L 10 136"></path><path d="M 272.3 20.2L 272.9 11L 263.7 10.4" stroke-dasharray="none"></path></g></g></g><g id="g-root-5.cr-small_cr_v487ad2tbzf3-stroke" data-item-order="999847946" data-item-id="5.cr-small_cr_v487ad2tbzf3" data-item-class="Shape Stroke Fill Part Indexed" data-item-index="5" data-renderer-id="0" transform="translate(170, 404.0001220703125)"><g id="5.cr-small_cr_v487ad2tbzf3-stroke" fill="none" stroke-linecap="round" stroke-linejoin="round" stroke-miterlimit="4" stroke="#dd8433" stroke-width="2"><g><path d="M 10 40C 10.000002 56.568544 23.431459 70.000002 40.000002 70.000002C 56.568544 70.000002 70.000002 56.568544 70.000002 40.000002C 70.000002 23.431459 56.568544 10.000002 40.000002 10.000002C 23.431459 10.000002 10.000002 23.431459 10.000002 40.000002"></path></g></g></g><g id="g-root-5.cr-small_cr_v487ad2tbzf3-stroke" data-item-order="999847946" data-item-id="5.cr-small_cr_v487ad2tbzf3" data-item-class="Shape Stroke Fill Part Indexed" data-item-index="5" data-renderer-id="0" transform="translate(170, 404.0001220703125)"><g id="5.cr-small_cr_v487ad2tbzf3-stroke" fill="none" stroke-linecap="round" stroke-linejoin="round" stroke-miterlimit="4" stroke="#dd8433" stroke-width="2"><g><path d="M 10 40C 10.000002 56.568544 23.431459 70.000002 40.000002 70.000002C 56.568544 70.000002 70.000002 56.568544 70.000002 40.000002C 70.000002 23.431459 56.568544 10.000002 40.000002 10.000002C 23.431459 10.000002 10.000002 23.431459 10.000002 40.000002"></path></g></g></g><g id="g-root-4.line_sy_13zv7j92tbymc-stroke" data-item-order="999847949" data-item-id="4.line_sy_13zv7j92tbymc" data-item-class="Curve Stroke Part Indexed" data-item-index="4" data-renderer-id="0" transform="translate(230, 290)"><g id="4.line_sy_13zv7j92tbymc-stroke" fill="none" stroke-linecap="round" stroke-linejoin="round" stroke-miterlimit="4" stroke="#e3cd09" stroke-width="2"><g><path d="M 254.19 10.86L 130 70L 10 70"></path><path d="M 251.6 19.3L 254.6 10.6L 246 7.6" stroke-dasharray="none"></path></g></g></g><g id="g-root-4.line_sy_13zv7j92tbymc-stroke" data-item-order="999847949" data-item-id="4.line_sy_13zv7j92tbymc" data-item-class="Curve Stroke Part Indexed" data-item-index="4" data-renderer-id="0" transform="translate(230, 290)"><g id="4.line_sy_13zv7j92tbymc-stroke" fill="none" stroke-linecap="round" stroke-linejoin="round" stroke-miterlimit="4" stroke="#e3cd09" stroke-width="2"><g><path d="M 254.19 10.86L 130 70L 10 70"></path><path d="M 251.6 19.3L 254.6 10.6L 246 7.6" stroke-dasharray="none"></path></g></g></g><g id="g-root-4.cr-small_cr_13zv7j92tbymd-stroke" data-item-order="999847950" data-item-id="4.cr-small_cr_13zv7j92tbymd" data-item-class="Shape Stroke Fill Part Indexed" data-item-index="4" data-renderer-id="0" transform="translate(170, 320)"><g id="4.cr-small_cr_13zv7j92tbymd-stroke" fill="none" stroke-linecap="round" stroke-linejoin="round" stroke-miterlimit="4" stroke="#e3cd09" stroke-width="2"><g><path d="M 10 40C 10.000002 56.568544 23.431459 70.000002 40.000002 70.000002C 56.568544 70.000002 70.000002 56.568544 70.000002 40.000002C 70.000002 23.431459 56.568544 10.000002 40.000002 10.000002C 23.431459 10.000002 10.000002 23.431459 10.000002 40.000002"></path></g></g></g><g id="g-root-4.cr-small_cr_13zv7j92tbymd-stroke" data-item-order="999847950" data-item-id="4.cr-small_cr_13zv7j92tbymd" data-item-class="Shape Stroke Fill Part Indexed" data-item-index="4" data-renderer-id="0" transform="translate(170, 320)"><g id="4.cr-small_cr_13zv7j92tbymd-stroke" fill="none" stroke-linecap="round" stroke-linejoin="round" stroke-miterlimit="4" stroke="#e3cd09" stroke-width="2"><g><path d="M 10 40C 10.000002 56.568544 23.431459 70.000002 40.000002 70.000002C 56.568544 70.000002 70.000002 56.568544 70.000002 40.000002C 70.000002 23.431459 56.568544 10.000002 40.000002 10.000002C 23.431459 10.000002 10.000002 23.431459 10.000002 40.000002"></path></g></g></g><g id="g-root-3.line_sy_18fopnp2tbxu2-stroke" data-item-order="999847953" data-item-id="3.line_sy_18fopnp2tbxu2" data-item-class="Curve Stroke Part Indexed" data-item-index="3" data-renderer-id="0" transform="translate(230.10940551757812, 266)"><g id="3.line_sy_18fopnp2tbxu2-stroke" fill="none" stroke-linecap="round" stroke-linejoin="round" stroke-miterlimit="4" stroke="#93c131" stroke-width="2"><g><path d="M 247.890594 10L 129.890594 10L 10.000594 10"></path><path d="M 241.890594 16.5L 248.390594 10L 241.890594 3.5" stroke-dasharray="none"></path></g></g></g><g id="g-root-3.line_sy_18fopnp2tbxu2-stroke" data-item-order="999847953" data-item-id="3.line_sy_18fopnp2tbxu2" data-item-class="Curve Stroke Part Indexed" data-item-index="3" data-renderer-id="0" transform="translate(230.10940551757812, 266)"><g id="3.line_sy_18fopnp2tbxu2-stroke" fill="none" stroke-linecap="round" stroke-linejoin="round" stroke-miterlimit="4" stroke="#93c131" stroke-width="2"><g><path d="M 247.890594 10L 129.890594 10L 10.000594 10"></path><path d="M 241.890594 16.5L 248.390594 10L 241.890594 3.5" stroke-dasharray="none"></path></g></g></g><g id="g-root-3.cr-small_cr_18fopnp2tbxu3-stroke" data-item-order="999847954" data-item-id="3.cr-small_cr_18fopnp2tbxu3" data-item-class="Shape Stroke Fill Part Indexed" data-item-index="3" data-renderer-id="0" transform="translate(170, 236)"><g id="3.cr-small_cr_18fopnp2tbxu3-stroke" fill="none" stroke-linecap="round" stroke-linejoin="round" stroke-miterlimit="4" stroke="#93c131" stroke-width="2"><g><path d="M 10 40C 10.000002 56.568544 23.431459 70.000002 40.000002 70.000002C 56.568544 70.000002 70.000002 56.568544 70.000002 40.000002C 70.000002 23.431459 56.568544 10.000002 40.000002 10.000002C 23.431459 10.000002 10.000002 23.431459 10.000002 40.000002"></path></g></g></g><g id="g-root-3.cr-small_cr_18fopnp2tbxu3-stroke" data-item-order="999847954" data-item-id="3.cr-small_cr_18fopnp2tbxu3" data-item-class="Shape Stroke Fill Part Indexed" data-item-index="3" data-renderer-id="0" transform="translate(170, 236)"><g id="3.cr-small_cr_18fopnp2tbxu3-stroke" fill="none" stroke-linecap="round" stroke-linejoin="round" stroke-miterlimit="4" stroke="#93c131" stroke-width="2"><g><path d="M 10 40C 10.000002 56.568544 23.431459 70.000002 40.000002 70.000002C 56.568544 70.000002 70.000002 56.568544 70.000002 40.000002C 70.000002 23.431459 56.568544 10.000002 40.000002 10.000002C 23.431459 10.000002 10.000002 23.431459 10.000002 40.000002"></path></g></g></g><g id="g-root-2.line_sy_1hbbpwl2tbx1c-stroke" data-item-order="999847957" data-item-id="2.line_sy_1hbbpwl2tbx1c" data-item-class="Curve Stroke Part Indexed" data-item-index="2" data-renderer-id="0" transform="translate(230, 182)"><g id="2.line_sy_1hbbpwl2tbx1c-stroke" fill="none" stroke-linecap="round" stroke-linejoin="round" stroke-miterlimit="4" stroke="#3bc482" stroke-width="2"><g><path d="M 254.19 69.14L 130 10L 10 10"></path><path d="M 246 72.4L 254.6 69.4L 251.6 60.7" stroke-dasharray="none"></path></g></g></g><g id="g-root-2.line_sy_1hbbpwl2tbx1c-stroke" data-item-order="999847957" data-item-id="2.line_sy_1hbbpwl2tbx1c" data-item-class="Curve Stroke Part Indexed" data-item-index="2" data-renderer-id="0" transform="translate(230, 182)"><g id="2.line_sy_1hbbpwl2tbx1c-stroke" fill="none" stroke-linecap="round" stroke-linejoin="round" stroke-miterlimit="4" stroke="#3bc482" stroke-width="2"><g><path d="M 254.19 69.14L 130 10L 10 10"></path><path d="M 246 72.4L 254.6 69.4L 251.6 60.7" stroke-dasharray="none"></path></g></g></g><g id="g-root-2.cr-small_cr_18fopnp2tbxu1-stroke" data-item-order="999847958" data-item-id="2.cr-small_cr_18fopnp2tbxu1" data-item-class="Shape Stroke Fill Part Indexed" data-item-index="2" data-renderer-id="0" transform="translate(170, 152)"><g id="2.cr-small_cr_18fopnp2tbxu1-stroke" fill="none" stroke-linecap="round" stroke-linejoin="round" stroke-miterlimit="4" stroke="#3bc482" stroke-width="2"><g><path d="M 10 40C 10.000002 56.568544 23.431459 70.000002 40.000002 70.000002C 56.568544 70.000002 70.000002 56.568544 70.000002 40.000002C 70.000002 23.431459 56.568544 10.000002 40.000002 10.000002C 23.431459 10.000002 10.000002 23.431459 10.000002 40.000002"></path></g></g></g><g id="g-root-2.cr-small_cr_18fopnp2tbxu1-stroke" data-item-order="999847958" data-item-id="2.cr-small_cr_18fopnp2tbxu1" data-item-class="Shape Stroke Fill Part Indexed" data-item-index="2" data-renderer-id="0" transform="translate(170, 152)"><g id="2.cr-small_cr_18fopnp2tbxu1-stroke" fill="none" stroke-linecap="round" stroke-linejoin="round" stroke-miterlimit="4" stroke="#3bc482" stroke-width="2"><g><path d="M 10 40C 10.000002 56.568544 23.431459 70.000002 40.000002 70.000002C 56.568544 70.000002 70.000002 56.568544 70.000002 40.000002C 70.000002 23.431459 56.568544 10.000002 40.000002 10.000002C 23.431459 10.000002 10.000002 23.431459 10.000002 40.000002"></path></g></g></g><g id="g-root-1.line_sy_1lqiqxx2tbzeu-stroke" data-item-order="999847961" data-item-id="1.line_sy_1lqiqxx2tbzeu" data-item-class="Curve Stroke Part Indexed Indexed_1" data-item-index="1" data-renderer-id="0" transform="translate(230, 98)"><g id="1.line_sy_1lqiqxx2tbzeu-stroke" fill="none" stroke-linecap="round" stroke-linejoin="round" stroke-miterlimit="4" stroke="#17b0e3" stroke-width="2"><g><path d="M 272.49 134.68L 130 10L 10 10"></path><path d="M 263.7 135.6L 272.9 135L 272.3 125.8" stroke-dasharray="none"></path></g></g></g><g id="g-root-1.line_sy_1lqiqxx2tbzeu-stroke" data-item-order="999847961" data-item-id="1.line_sy_1lqiqxx2tbzeu" data-item-class="Curve Stroke Part Indexed Indexed_1" data-item-index="1" data-renderer-id="0" transform="translate(230, 98)"><g id="1.line_sy_1lqiqxx2tbzeu-stroke" fill="none" stroke-linecap="round" stroke-linejoin="round" stroke-miterlimit="4" stroke="#17b0e3" stroke-width="2"><g><path d="M 272.49 134.68L 130 10L 10 10"></path><path d="M 263.7 135.6L 272.9 135L 272.3 125.8" stroke-dasharray="none"></path></g></g></g><g id="g-root-1.cr-small_cr_1cvi7s52tbx1r-stroke" data-item-order="999847962" data-item-id="1.cr-small_cr_1cvi7s52tbx1r" data-item-class="Shape Stroke Fill Part Indexed Indexed_1" data-item-index="1" data-renderer-id="0" transform="translate(170, 68)"><g id="1.cr-small_cr_1cvi7s52tbx1r-stroke" fill="none" stroke-linecap="round" stroke-linejoin="round" stroke-miterlimit="4" stroke="#17b0e3" stroke-width="2"><g><path d="M 10 40C 10.000002 56.568544 23.431459 70.000002 40.000002 70.000002C 56.568544 70.000002 70.000002 56.568544 70.000002 40.000002C 70.000002 23.431459 56.568544 10.000002 40.000002 10.000002C 23.431459 10.000002 10.000002 23.431459 10.000002 40.000002"></path></g></g></g><g id="g-root-1.cr-small_cr_1cvi7s52tbx1r-stroke" data-item-order="999847962" data-item-id="1.cr-small_cr_1cvi7s52tbx1r" data-item-class="Shape Stroke Fill Part Indexed Indexed_1" data-item-index="1" data-renderer-id="0" transform="translate(170, 68)"><g id="1.cr-small_cr_1cvi7s52tbx1r-stroke" fill="none" stroke-linecap="round" stroke-linejoin="round" stroke-miterlimit="4" stroke="#17b0e3" stroke-width="2"><g><path d="M 10 40C 10.000002 56.568544 23.431459 70.000002 40.000002 70.000002C 56.568544 70.000002 70.000002 56.568544 70.000002 40.000002C 70.000002 23.431459 56.568544 10.000002 40.000002 10.000002C 23.431459 10.000002 10.000002 23.431459 10.000002 40.000002"></path></g></g></g><g id="g-root-pers_mcc1k52tdceh-stroke" data-item-order="1000000000" data-item-id="pers_mcc1k52tdceh" data-item-class="Icon Stroke Indexed InsideFill InsideColorFill" data-item-index="2" data-renderer-id="0" transform="translate(182, 164)"><g id="pers_mcc1k52tdceh-stroke" fill="none" stroke-linecap="round" stroke-linejoin="round" stroke-miterlimit="4" stroke="#3bc482" stroke-width="2"><g><path d="M 32.459499 28.75L 40.207001 28.75C 40.93195 28.749891 41.553234 29.268261 41.682999 29.981501L 44.137001 43.481499C 44.216583 43.918911 44.098026 44.369091 43.813316 44.710564C 43.52861 45.05204 43.107094 45.249622 42.662498 45.25L 13.339 45.25C 12.882402 45.250435 12.450468 45.042877 12.165519 44.686108C 11.880569 44.329338 11.773635 43.862206 11.875 43.417L 14.944 29.917C 15.099422 29.234365 15.706396 28.750032 16.4065 28.75L 23.456499 28.75M 33.209499 12.25L 39.577 12.25C 40.246868 12.249628 40.835785 12.693459 41.02 13.3375L 43.163498 20.8375C 43.292999 21.290253 43.202366 21.77754 42.918736 22.153452C 42.635109 22.529366 42.19141 22.750261 41.720497 22.75L 14.338 22.75C 13.850262 22.750067 13.392943 22.512991 13.111883 22.114376C 12.830824 21.715761 12.76112 21.205383 12.925 20.746L 15.604 13.246C 15.817089 12.648678 16.382807 12.249912 17.017 12.25L 22.716999 12.25M 21.956501 22.75C 23.456499 22.75 23.456499 25 23.456499 25.75L 23.456499 29.5C 23.457359 32.628624 21.516035 35.429108 18.586 36.526001C 18.006475 36.738956 17.616634 37.285259 17.603706 37.902538C 17.590776 38.519817 17.957401 39.081963 18.5275 39.319C 21.561953 40.346519 24.753819 40.830936 27.956499 40.749996C 31.159172 40.830811 34.351021 40.346401 37.385502 39.319C 37.955597 39.081963 38.32222 38.519817 38.309292 37.902538C 38.296364 37.285259 37.906525 36.738956 37.327 36.526001C 34.398148 35.428123 32.458172 32.627861 32.459499 29.5L 32.459499 25.75C 32.459499 25 32.459499 22.75 33.959499 22.75M 27.959499 22.75L 27.959499 43M 36.209499 17.5C 36.209499 18.3295 32.514999 19 27.959499 19C 23.403999 19 19.709499 18.3295 19.709499 17.5M 33.4645 33.25C 33.4645 34.079498 30.8575 34.75 27.959499 34.75C 25.061501 34.75 22.4545 34.079498 22.4545 33.25M 32.459499 27.25C 32.459499 28.0795 30.445 28.75 27.959499 28.75C 25.473999 28.75 23.459499 28.0795 23.459499 27.25M 27.959499 19L 27.959499 10.75M 24.959499 13.75L 27.959499 10.75L 30.959499 13.75"></path></g></g></g><g id="g-root-pers_mcc1k52tdceh-stroke" data-item-order="1000000000" data-item-id="pers_mcc1k52tdceh" data-item-class="Icon Stroke Indexed InsideFill InsideColorFill" data-item-index="2" data-renderer-id="0" transform="translate(182, 164)"><g id="pers_mcc1k52tdceh-stroke" fill="none" stroke-linecap="round" stroke-linejoin="round" stroke-miterlimit="4" stroke="#3bc482" stroke-width="2"><g><path d="M 32.459499 28.75L 40.207001 28.75C 40.93195 28.749891 41.553234 29.268261 41.682999 29.981501L 44.137001 43.481499C 44.216583 43.918911 44.098026 44.369091 43.813316 44.710564C 43.52861 45.05204 43.107094 45.249622 42.662498 45.25L 13.339 45.25C 12.882402 45.250435 12.450468 45.042877 12.165519 44.686108C 11.880569 44.329338 11.773635 43.862206 11.875 43.417L 14.944 29.917C 15.099422 29.234365 15.706396 28.750032 16.4065 28.75L 23.456499 28.75M 33.209499 12.25L 39.577 12.25C 40.246868 12.249628 40.835785 12.693459 41.02 13.3375L 43.163498 20.8375C 43.292999 21.290253 43.202366 21.77754 42.918736 22.153452C 42.635109 22.529366 42.19141 22.750261 41.720497 22.75L 14.338 22.75C 13.850262 22.750067 13.392943 22.512991 13.111883 22.114376C 12.830824 21.715761 12.76112 21.205383 12.925 20.746L 15.604 13.246C 15.817089 12.648678 16.382807 12.249912 17.017 12.25L 22.716999 12.25M 21.956501 22.75C 23.456499 22.75 23.456499 25 23.456499 25.75L 23.456499 29.5C 23.457359 32.628624 21.516035 35.429108 18.586 36.526001C 18.006475 36.738956 17.616634 37.285259 17.603706 37.902538C 17.590776 38.519817 17.957401 39.081963 18.5275 39.319C 21.561953 40.346519 24.753819 40.830936 27.956499 40.749996C 31.159172 40.830811 34.351021 40.346401 37.385502 39.319C 37.955597 39.081963 38.32222 38.519817 38.309292 37.902538C 38.296364 37.285259 37.906525 36.738956 37.327 36.526001C 34.398148 35.428123 32.458172 32.627861 32.459499 29.5L 32.459499 25.75C 32.459499 25 32.459499 22.75 33.959499 22.75M 27.959499 22.75L 27.959499 43M 36.209499 17.5C 36.209499 18.3295 32.514999 19 27.959499 19C 23.403999 19 19.709499 18.3295 19.709499 17.5M 33.4645 33.25C 33.4645 34.079498 30.8575 34.75 27.959499 34.75C 25.061501 34.75 22.4545 34.079498 22.4545 33.25M 32.459499 27.25C 32.459499 28.0795 30.445 28.75 27.959499 28.75C 25.473999 28.75 23.459499 28.0795 23.459499 27.25M 27.959499 19L 27.959499 10.75M 24.959499 13.75L 27.959499 10.75L 30.959499 13.75"></path></g></g></g><g id="g-root-tx_indpenda_dbp8md2tbzls-stroke" data-item-order="1000000000" data-item-id="tx_indpenda_dbp8md2tbzls" data-item-class="Label Stroke Indexed" data-item-index="3" data-renderer-id="0" transform="translate(26, 242)"></g><g id="g-root-tx_indpenda_dbp8md2tbzls-stroke" data-item-order="1000000000" data-item-id="tx_indpenda_dbp8md2tbzls" data-item-class="Label Stroke Indexed" data-item-index="3" data-renderer-id="0" transform="translate(26, 242)"></g><g id="g-root-tx_testabil_4gopgl2tbx8p-stroke" data-item-order="1000000000" data-item-id="tx_testabil_4gopgl2tbx8p" data-item-class="Label Stroke Indexed" data-item-index="2" data-renderer-id="0" transform="translate(62, 170)"></g><g id="g-root-tx_testabil_4gopgl2tbx8p-stroke" data-item-order="1000000000" data-item-id="tx_testabil_4gopgl2tbx8p" data-item-class="Label Stroke Indexed" data-item-index="2" data-renderer-id="0" transform="translate(62, 170)"></g><g id="g-root-1_v7z1t12tdbls-stroke" data-item-order="1000000000" data-item-id="1_v7z1t12tdbls" data-item-class="Icon Stroke Indexed Indexed_1 InsideFill InsideColorFill" data-item-index="1" data-renderer-id="0" transform="translate(182, 80)"><g id="1_v7z1t12tdbls-stroke" fill="none" stroke-linecap="round" stroke-linejoin="round" stroke-miterlimit="4" stroke="#17b0e3" stroke-width="2"><g><path d="M 13.75 40.75L 13.75 25.75C 13.75 24.921572 14.421573 24.25 15.25 24.25M 36.25 40.75L 36.25 34.75M 19.75 10.75L 28.75 10.75C 28.75 10.75 30.25 10.75 30.25 12.25L 30.25 30.25C 30.25 30.25 30.25 31.75 28.75 31.75L 19.75 31.75C 19.75 31.75 18.25 31.75 18.25 30.25L 18.25 12.25C 18.25 12.25 18.25 10.75 19.75 10.75M 34.75 10.75L 43.75 10.75C 43.75 10.75 45.25 10.75 45.25 12.25L 45.25 30.25C 45.25 30.25 45.25 31.75 43.75 31.75L 34.75 31.75C 34.75 31.75 33.25 31.75 33.25 30.25L 33.25 12.25C 33.25 12.25 33.25 10.75 34.75 10.75M 39.25 28L 39.25 28C 39.457108 28 39.625 28.167892 39.625 28.375L 39.625 28.375C 39.625 28.582108 39.457108 28.75 39.25 28.75L 39.25 28.75C 39.042892 28.75 38.875 28.582108 38.875 28.375L 38.875 28.375C 38.875 28.167892 39.042892 28 39.25 28M 27.25 40.75C 27.25 41.992641 26.242641 43 25 43C 23.75736 43 22.75 41.992641 22.75 40.75L 10.75 40.75L 10.75 42.25C 10.75 43.906857 12.093145 45.25 13.75 45.25L 36.25 45.25C 37.906857 45.25 39.25 43.906857 39.25 42.25L 39.25 40.75ZM 19.75 10.75L 22 13.75L 26.5 13.75L 28.75 10.75"></path></g></g></g><g id="g-root-1_v7z1t12tdbls-stroke" data-item-order="1000000000" data-item-id="1_v7z1t12tdbls" data-item-class="Icon Stroke Indexed Indexed_1 InsideFill InsideColorFill" data-item-index="1" data-renderer-id="0" transform="translate(182, 80)"><g id="1_v7z1t12tdbls-stroke" fill="none" stroke-linecap="round" stroke-linejoin="round" stroke-miterlimit="4" stroke="#17b0e3" stroke-width="2"><g><path d="M 13.75 40.75L 13.75 25.75C 13.75 24.921572 14.421573 24.25 15.25 24.25M 36.25 40.75L 36.25 34.75M 19.75 10.75L 28.75 10.75C 28.75 10.75 30.25 10.75 30.25 12.25L 30.25 30.25C 30.25 30.25 30.25 31.75 28.75 31.75L 19.75 31.75C 19.75 31.75 18.25 31.75 18.25 30.25L 18.25 12.25C 18.25 12.25 18.25 10.75 19.75 10.75M 34.75 10.75L 43.75 10.75C 43.75 10.75 45.25 10.75 45.25 12.25L 45.25 30.25C 45.25 30.25 45.25 31.75 43.75 31.75L 34.75 31.75C 34.75 31.75 33.25 31.75 33.25 30.25L 33.25 12.25C 33.25 12.25 33.25 10.75 34.75 10.75M 39.25 28L 39.25 28C 39.457108 28 39.625 28.167892 39.625 28.375L 39.625 28.375C 39.625 28.582108 39.457108 28.75 39.25 28.75L 39.25 28.75C 39.042892 28.75 38.875 28.582108 38.875 28.375L 38.875 28.375C 38.875 28.167892 39.042892 28 39.25 28M 27.25 40.75C 27.25 41.992641 26.242641 43 25 43C 23.75736 43 22.75 41.992641 22.75 40.75L 10.75 40.75L 10.75 42.25C 10.75 43.906857 12.093145 45.25 13.75 45.25L 36.25 45.25C 37.906857 45.25 39.25 43.906857 39.25 42.25L 39.25 40.75ZM 19.75 10.75L 22 13.75L 26.5 13.75L 28.75 10.75"></path></g></g></g><g id="g-root-hous_zlx4o52tdbt8-stroke" data-item-order="1000000000" data-item-id="hous_zlx4o52tdbt8" data-item-class="Icon Stroke InsideFill" data-item-index="none" data-renderer-id="0" transform="translate(494, 242)"><g id="hous_zlx4o52tdbt8-stroke" fill="none" stroke-linecap="round" stroke-linejoin="round" stroke-miterlimit="4" stroke="#484848" stroke-width="2"><g><path d="M 30.5 41L 17 41C 16.685242 41 16.388855 41.148193 16.200001 41.400002L 11.7 47.400002C 11.472736 47.703018 11.436181 48.108429 11.605573 48.447212C 11.774965 48.785999 12.121228 49 12.5 49L 24 49C 24.314758 49 24.611145 48.851807 24.799999 48.599998ZM 36.5 49L 30.5 41M 12.5 49L 12.5 56C 12.5 56.552284 12.947716 57 13.5 57L 26.5 57L 26.5 46.334M 26.5 57L 33.5 57C 34.052284 57 34.5 56.552284 34.5 56L 34.5 46.334M 56.5 21L 48.799999 11.376C 48.610558 11.138762 48.323597 11.000433 48.02 11L 30.98 11C 30.676403 11.000433 30.389444 11.138762 30.200001 11.376L 23.799999 19.375999C 23.56039 19.676056 23.513758 20.086815 23.680004 20.432949C 23.846252 20.779083 24.196012 20.999454 24.58 21L 40.02 21C 40.323597 20.999567 40.610558 20.861237 40.799999 20.624001L 48.417999 11.084M 30.5 53L 30.5 57M 42.5 51L 53.5 51C 54.052284 51 54.5 50.552284 54.5 50L 54.5 18.5M 39.506001 51L 42.5 51L 42.5 18.5M 24.5 21L 24.5 37M 46.5 23L 46.5 25M 50.5 23L 50.5 25M 46.5 31L 46.5 33M 50.5 31L 50.5 33M 46.5 39L 46.5 41M 50.5 39L 50.5 41"></path></g></g></g><g id="g-root-tx_architec_zs5vj92tal1p-stroke" data-item-order="1000000000" data-item-id="tx_architec_zs5vj92tal1p" data-item-class="Label Stroke" data-item-index="none" data-renderer-id="0" transform="translate(566, 230)"></g><g id="g-root-tx_architec_zs5vj92tal1p-stroke" data-item-order="1000000000" data-item-id="tx_architec_zs5vj92tal1p" data-item-class="Label Stroke" data-item-index="none" data-renderer-id="0" transform="translate(566, 230)"></g><g id="g-root-serv_v63mjp2tdclh-stroke" data-item-order="1000000000" data-item-id="serv_v63mjp2tdclh" data-item-class="Icon Stroke Indexed InsideFill InsideColorFill" data-item-index="5" data-renderer-id="0" transform="translate(182, 416.0001220703125)"><g id="serv_v63mjp2tdclh-stroke" fill="none" stroke-linecap="round" stroke-linejoin="round" stroke-miterlimit="4" stroke="#dd8433" stroke-width="2"><g><path d="M 40.75 20.390499C 40.724884 18.910833 40.098743 17.505091 39.015633 16.496674C 37.932518 15.488258 36.485687 14.963996 35.007999 15.0445C 33.681213 12.394524 30.963497 10.729106 28 10.75C 23.965288 10.691713 20.57906 13.777265 20.263 17.799999C 19.058914 17.533646 17.798819 17.820183 16.828308 18.581026C 15.8578 19.341867 15.278761 20.497143 15.25 21.73C 15.25 25.813 19.684 25.75 19.684 25.75L 35.761002 25.75C 35.761002 25.75 40.75 25.1185 40.75 20.390499ZM 20.125 41.123501C 19.918089 41.123501 19.750278 41.291092 19.750004 41.498001C 19.749729 41.70491 19.917093 41.872948 20.124004 41.873497C 20.330914 41.87405 20.499172 41.706909 20.5 41.5C 20.500401 41.400421 20.46102 41.304802 20.390608 41.23439C 20.320194 41.163979 20.224579 41.124599 20.125 41.125L 20.125 41.125M 23.875 41.123501C 23.668089 41.123501 23.500278 41.291092 23.500004 41.498001C 23.499729 41.70491 23.667093 41.872948 23.874004 41.873497C 24.080915 41.87405 24.249172 41.706909 24.25 41.5C 24.250401 41.400421 24.21102 41.304802 24.140608 41.23439C 24.070194 41.163979 23.974579 41.124599 23.875 41.125L 23.875 41.125M 40.75 43C 40.75 44.242641 39.742641 45.25 38.5 45.25L 17.5 45.25C 16.25736 45.25 15.25 44.242641 15.25 43L 15.25 40C 15.25 38.757362 16.25736 37.75 17.5 37.75L 38.5 37.75C 39.742641 37.75 40.75 38.757362 40.75 40ZM 20.125 33.623501C 19.918089 33.623501 19.750278 33.791092 19.750004 33.998001C 19.749729 34.20491 19.917093 34.372948 20.124004 34.373497C 20.330914 34.37405 20.499172 34.206909 20.5 34C 20.500401 33.900421 20.46102 33.804806 20.390608 33.73439C 20.320194 33.663979 20.224579 33.624599 20.125 33.625L 20.125 33.625M 23.875 33.623501C 23.668089 33.623501 23.500278 33.791092 23.500004 33.998001C 23.499729 34.20491 23.667093 34.372948 23.874004 34.373497C 24.080915 34.37405 24.249172 34.206909 24.25 34C 24.250401 33.900421 24.21102 33.804806 24.140608 33.73439C 24.070194 33.663979 23.974579 33.624599 23.875 33.625L 23.875 33.625M 40.75 35.5C 40.75 36.742641 39.742641 37.75 38.5 37.75L 17.5 37.75C 16.25736 37.75 15.25 36.742641 15.25 35.5L 15.25 32.5C 15.25 31.25736 16.25736 30.25 17.5 30.25L 38.5 30.25C 39.742641 30.25 40.75 31.25736 40.75 32.5Z"></path></g></g></g><g id="g-root-1_magmat2tdde6-stroke" data-item-order="1000000000" data-item-id="1_magmat2tdde6" data-item-class="Icon Stroke Indexed InsideFill InsideColorFill" data-item-index="3" data-renderer-id="0" transform="translate(182, 248)"><g id="1_magmat2tdde6-stroke" fill="none" stroke-linecap="round" stroke-linejoin="round" stroke-miterlimit="4" stroke="#93c131" stroke-width="2"><g><path d="M 14.5 19L 17.5 16.75C 17.5 13.4365 19.5145 10.75 22 10.75C 24.4855 10.75 26.5 13.4365 26.5 16.75L 30.25 19M 18.25 19L 16.75 22M 25.75 19L 27.25 22M 20.125 15.25C 20.332108 15.25 20.5 15.417893 20.5 15.625M 19.75 15.625C 19.75 15.417893 19.917892 15.25 20.125 15.25M 20.125 16C 19.917892 16 19.75 15.832107 19.75 15.625M 20.5 15.625C 20.5 15.832107 20.332108 16 20.125 16M 23.875 15.25C 24.082108 15.25 24.25 15.417893 24.25 15.625M 23.5 15.625C 23.5 15.417893 23.667892 15.25 23.875 15.25M 23.875 16C 23.667892 16 23.5 15.832107 23.5 15.625M 24.25 15.625C 24.25 15.832107 24.082108 16 23.875 16M 37 35.5C 37 40.884777 32.634777 45.250004 27.25 45.25C 22.75 45.25 19.75 43 18.25 37.75C 16.718254 33.673241 16.456783 29.22823 17.5 25M 26.681499 25.664499C 26.681499 25.664499 29.5 26.5 30.25 24.25M 26.282499 33.932499C 26.282499 33.932499 28.75 34.75 29.5 32.5M 17.300501 25.869999C 17.300501 25.869999 14.5 26.5 13.75 24.25M 17.23 33.908501C 17.23 33.908501 14.5 34.75 13.75 32.5M 26.5 25C 28 30.25 26.778999 31.101999 25.75 36.25C 25 40 27.099998 41.5 28.75 41.5C 29.550976 41.517799 30.324423 41.207451 30.890936 40.640938C 31.457451 40.074425 31.767801 39.300976 31.75 38.5L 31.75 33.25C 31.750002 30.350506 34.100506 28.000002 37 28.000002C 39.899494 28.000002 42.25 30.350506 42.25 33.25L 42.25 36.25C 42.236191 39.973209 40.234131 43.405312 37 45.25"></path></g></g></g><g id="g-root-hous_zlx4o52tdbt8-stroke" data-item-order="1000000000" data-item-id="hous_zlx4o52tdbt8" data-item-class="Icon Stroke InsideFill" data-item-index="none" data-renderer-id="0" transform="translate(494, 242)"><g id="hous_zlx4o52tdbt8-stroke" fill="none" stroke-linecap="round" stroke-linejoin="round" stroke-miterlimit="4" stroke="#484848" stroke-width="2"><g><path d="M 30.5 41L 17 41C 16.685242 41 16.388855 41.148193 16.200001 41.400002L 11.7 47.400002C 11.472736 47.703018 11.436181 48.108429 11.605573 48.447212C 11.774965 48.785999 12.121228 49 12.5 49L 24 49C 24.314758 49 24.611145 48.851807 24.799999 48.599998ZM 36.5 49L 30.5 41M 12.5 49L 12.5 56C 12.5 56.552284 12.947716 57 13.5 57L 26.5 57L 26.5 46.334M 26.5 57L 33.5 57C 34.052284 57 34.5 56.552284 34.5 56L 34.5 46.334M 56.5 21L 48.799999 11.376C 48.610558 11.138762 48.323597 11.000433 48.02 11L 30.98 11C 30.676403 11.000433 30.389444 11.138762 30.200001 11.376L 23.799999 19.375999C 23.56039 19.676056 23.513758 20.086815 23.680004 20.432949C 23.846252 20.779083 24.196012 20.999454 24.58 21L 40.02 21C 40.323597 20.999567 40.610558 20.861237 40.799999 20.624001L 48.417999 11.084M 30.5 53L 30.5 57M 42.5 51L 53.5 51C 54.052284 51 54.5 50.552284 54.5 50L 54.5 18.5M 39.506001 51L 42.5 51L 42.5 18.5M 24.5 21L 24.5 37M 46.5 23L 46.5 25M 50.5 23L 50.5 25M 46.5 31L 46.5 33M 50.5 31L 50.5 33M 46.5 39L 46.5 41M 50.5 39L 50.5 41"></path></g></g></g><g id="g-root-tx_indpenda_8vvqhx2tbzm7-stroke" data-item-order="1000000000" data-item-id="tx_indpenda_8vvqhx2tbzm7" data-item-class="Label Stroke Indexed" data-item-index="4" data-renderer-id="0" transform="translate(26, 314.0001220703125)"></g><g id="g-root-tx_indpenda_8vvqhx2tbzm7-stroke" data-item-order="1000000000" data-item-id="tx_indpenda_8vvqhx2tbzm7" data-item-class="Label Stroke Indexed" data-item-index="4" data-renderer-id="0" transform="translate(26, 314.0001220703125)"></g><g id="g-root-tx_indpenda_v7c52tby0y-stroke" data-item-order="1000000000" data-item-id="tx_indpenda_v7c52tby0y" data-item-class="Label Stroke Indexed Indexed_1" data-item-index="1" data-renderer-id="0" transform="translate(2, 74)"></g><g id="g-root-forb_hun46d2tde6f-stroke" data-item-order="1000000000" data-item-id="forb_hun46d2tde6f" data-item-class="Icon Stroke Indexed InsideFill InsideColorFill" data-item-index="4" data-renderer-id="0" transform="translate(182, 332)"><g id="forb_hun46d2tde6f-stroke" fill="none" stroke-linecap="round" stroke-linejoin="round" stroke-miterlimit="4" stroke="#e3cd09" stroke-width="2"><g><path d="M 21.790001 33.409L 17.65 33.409L 17.236 37.9645L 18.1915 37.484501C 18.652 37.2565 19.159 37.136497 19.6735 37.136497L 19.7185 37.136497C 21.091 37.136497 22.203999 38.248001 22.203999 39.620499L 22.203999 40.862503C 22.203999 42.235001 21.091 43.3465 19.719999 43.3465C 18.6385 43.3465 17.575001 42.656502 17.236 41.690502M 25.285 35.894501L 25.285 40.862503C 25.28483 42.234909 26.397339 43.347557 27.769749 43.347557C 29.142159 43.347557 30.254669 42.234909 30.254499 40.862499L 30.254501 35.894501C 30.254669 34.522091 29.142159 33.409443 27.769749 33.409443C 26.397339 33.409443 25.28483 34.522091 25.285 35.894501ZM 33.335499 35.894501L 33.335499 40.862503C 33.335327 42.234497 34.447502 43.346817 35.8195 43.346817C 37.191498 43.346817 38.303673 42.234497 38.303497 40.862503L 38.303497 35.894501C 38.303673 34.522499 37.191498 33.410183 35.8195 33.410183C 34.447502 33.410183 33.335327 34.522499 33.335499 35.894501ZM 28 29.125C 23.546932 29.125385 19.936804 25.515568 19.936804 21.0625C 19.936804 16.609432 23.546932 12.999616 28 13C 32.452522 13.000384 36.061806 16.609976 36.061806 21.0625C 36.061806 25.515024 32.452522 29.124615 28 29.125ZM 22.299999 15.37L 33.7015 26.77"></path></g></g></g><g id="g-root-forb_hun46d2tde6f-stroke" data-item-order="1000000000" data-item-id="forb_hun46d2tde6f" data-item-class="Icon Stroke Indexed InsideFill InsideColorFill" data-item-index="4" data-renderer-id="0" transform="translate(182, 332)"><g id="forb_hun46d2tde6f-stroke" fill="none" stroke-linecap="round" stroke-linejoin="round" stroke-miterlimit="4" stroke="#e3cd09" stroke-width="2"><g><path d="M 21.790001 33.409L 17.65 33.409L 17.236 37.9645L 18.1915 37.484501C 18.652 37.2565 19.159 37.136497 19.6735 37.136497L 19.7185 37.136497C 21.091 37.136497 22.203999 38.248001 22.203999 39.620499L 22.203999 40.862503C 22.203999 42.235001 21.091 43.3465 19.719999 43.3465C 18.6385 43.3465 17.575001 42.656502 17.236 41.690502M 25.285 35.894501L 25.285 40.862503C 25.28483 42.234909 26.397339 43.347557 27.769749 43.347557C 29.142159 43.347557 30.254669 42.234909 30.254499 40.862499L 30.254501 35.894501C 30.254669 34.522091 29.142159 33.409443 27.769749 33.409443C 26.397339 33.409443 25.28483 34.522091 25.285 35.894501ZM 33.335499 35.894501L 33.335499 40.862503C 33.335327 42.234497 34.447502 43.346817 35.8195 43.346817C 37.191498 43.346817 38.303673 42.234497 38.303497 40.862503L 38.303497 35.894501C 38.303673 34.522499 37.191498 33.410183 35.8195 33.410183C 34.447502 33.410183 33.335327 34.522499 33.335499 35.894501ZM 28 29.125C 23.546932 29.125385 19.936804 25.515568 19.936804 21.0625C 19.936804 16.609432 23.546932 12.999616 28 13C 32.452522 13.000384 36.061806 16.609976 36.061806 21.0625C 36.061806 25.515024 32.452522 29.124615 28 29.125ZM 22.299999 15.37L 33.7015 26.77"></path></g></g></g><g id="g-root-tx_indpenda_hriqqt2tbyti-stroke" data-item-order="1000000000" data-item-id="tx_indpenda_hriqqt2tbyti" data-item-class="Label Stroke Indexed" data-item-index="5" data-renderer-id="0" transform="translate(26, 398.0001220703125)"></g><g id="g-root-tx_indpenda_hriqqt2tbyti-stroke" data-item-order="1000000000" data-item-id="tx_indpenda_hriqqt2tbyti" data-item-class="Label Stroke Indexed" data-item-index="5" data-renderer-id="0" transform="translate(26, 398.0001220703125)"></g><g id="g-root-tx_indpenda_v7c52tby0y-stroke" data-item-order="1000000000" data-item-id="tx_indpenda_v7c52tby0y" data-item-class="Label Stroke Indexed Indexed_1" data-item-index="1" data-renderer-id="0" transform="translate(2, 74)"></g><g id="g-root-tx_architec_v7c52tby0z-stroke" data-item-order="1000000000" data-item-id="tx_architec_v7c52tby0z" data-item-class="Label Stroke Title" data-item-index="none" data-renderer-id="0" transform="translate(218, 2)"></g><g id="g-root-serv_v63mjp2tdclh-stroke" data-item-order="1000000000" data-item-id="serv_v63mjp2tdclh" data-item-class="Icon Stroke Indexed InsideFill InsideColorFill" data-item-index="5" data-renderer-id="0" transform="translate(182, 416.0001220703125)"><g id="serv_v63mjp2tdclh-stroke" fill="none" stroke-linecap="round" stroke-linejoin="round" stroke-miterlimit="4" stroke="#dd8433" stroke-width="2"><g><path d="M 40.75 20.390499C 40.724884 18.910833 40.098743 17.505091 39.015633 16.496674C 37.932518 15.488258 36.485687 14.963996 35.007999 15.0445C 33.681213 12.394524 30.963497 10.729106 28 10.75C 23.965288 10.691713 20.57906 13.777265 20.263 17.799999C 19.058914 17.533646 17.798819 17.820183 16.828308 18.581026C 15.8578 19.341867 15.278761 20.497143 15.25 21.73C 15.25 25.813 19.684 25.75 19.684 25.75L 35.761002 25.75C 35.761002 25.75 40.75 25.1185 40.75 20.390499ZM 20.125 41.123501C 19.918089 41.123501 19.750278 41.291092 19.750004 41.498001C 19.749729 41.70491 19.917093 41.872948 20.124004 41.873497C 20.330914 41.87405 20.499172 41.706909 20.5 41.5C 20.500401 41.400421 20.46102 41.304802 20.390608 41.23439C 20.320194 41.163979 20.224579 41.124599 20.125 41.125L 20.125 41.125M 23.875 41.123501C 23.668089 41.123501 23.500278 41.291092 23.500004 41.498001C 23.499729 41.70491 23.667093 41.872948 23.874004 41.873497C 24.080915 41.87405 24.249172 41.706909 24.25 41.5C 24.250401 41.400421 24.21102 41.304802 24.140608 41.23439C 24.070194 41.163979 23.974579 41.124599 23.875 41.125L 23.875 41.125M 40.75 43C 40.75 44.242641 39.742641 45.25 38.5 45.25L 17.5 45.25C 16.25736 45.25 15.25 44.242641 15.25 43L 15.25 40C 15.25 38.757362 16.25736 37.75 17.5 37.75L 38.5 37.75C 39.742641 37.75 40.75 38.757362 40.75 40ZM 20.125 33.623501C 19.918089 33.623501 19.750278 33.791092 19.750004 33.998001C 19.749729 34.20491 19.917093 34.372948 20.124004 34.373497C 20.330914 34.37405 20.499172 34.206909 20.5 34C 20.500401 33.900421 20.46102 33.804806 20.390608 33.73439C 20.320194 33.663979 20.224579 33.624599 20.125 33.625L 20.125 33.625M 23.875 33.623501C 23.668089 33.623501 23.500278 33.791092 23.500004 33.998001C 23.499729 34.20491 23.667093 34.372948 23.874004 34.373497C 24.080915 34.37405 24.249172 34.206909 24.25 34C 24.250401 33.900421 24.21102 33.804806 24.140608 33.73439C 24.070194 33.663979 23.974579 33.624599 23.875 33.625L 23.875 33.625M 40.75 35.5C 40.75 36.742641 39.742641 37.75 38.5 37.75L 17.5 37.75C 16.25736 37.75 15.25 36.742641 15.25 35.5L 15.25 32.5C 15.25 31.25736 16.25736 30.25 17.5 30.25L 38.5 30.25C 39.742641 30.25 40.75 31.25736 40.75 32.5Z"></path></g></g></g><g id="g-root-tx_architec_v7c52tby0z-stroke" data-item-order="1000000000" data-item-id="tx_architec_v7c52tby0z" data-item-class="Label Stroke Title" data-item-index="none" data-renderer-id="0" transform="translate(218, 2)"></g><g id="g-root-1_magmat2tdde6-stroke" data-item-order="1000000000" data-item-id="1_magmat2tdde6" data-item-class="Icon Stroke Indexed InsideFill InsideColorFill" data-item-index="3" data-renderer-id="0" transform="translate(182, 248)"><g id="1_magmat2tdde6-stroke" fill="none" stroke-linecap="round" stroke-linejoin="round" stroke-miterlimit="4" stroke="#93c131" stroke-width="2"><g><path d="M 14.5 19L 17.5 16.75C 17.5 13.4365 19.5145 10.75 22 10.75C 24.4855 10.75 26.5 13.4365 26.5 16.75L 30.25 19M 18.25 19L 16.75 22M 25.75 19L 27.25 22M 20.125 15.25C 20.332108 15.25 20.5 15.417893 20.5 15.625M 19.75 15.625C 19.75 15.417893 19.917892 15.25 20.125 15.25M 20.125 16C 19.917892 16 19.75 15.832107 19.75 15.625M 20.5 15.625C 20.5 15.832107 20.332108 16 20.125 16M 23.875 15.25C 24.082108 15.25 24.25 15.417893 24.25 15.625M 23.5 15.625C 23.5 15.417893 23.667892 15.25 23.875 15.25M 23.875 16C 23.667892 16 23.5 15.832107 23.5 15.625M 24.25 15.625C 24.25 15.832107 24.082108 16 23.875 16M 37 35.5C 37 40.884777 32.634777 45.250004 27.25 45.25C 22.75 45.25 19.75 43 18.25 37.75C 16.718254 33.673241 16.456783 29.22823 17.5 25M 26.681499 25.664499C 26.681499 25.664499 29.5 26.5 30.25 24.25M 26.282499 33.932499C 26.282499 33.932499 28.75 34.75 29.5 32.5M 17.300501 25.869999C 17.300501 25.869999 14.5 26.5 13.75 24.25M 17.23 33.908501C 17.23 33.908501 14.5 34.75 13.75 32.5M 26.5 25C 28 30.25 26.778999 31.101999 25.75 36.25C 25 40 27.099998 41.5 28.75 41.5C 29.550976 41.517799 30.324423 41.207451 30.890936 40.640938C 31.457451 40.074425 31.767801 39.300976 31.75 38.5L 31.75 33.25C 31.750002 30.350506 34.100506 28.000002 37 28.000002C 39.899494 28.000002 42.25 30.350506 42.25 33.25L 42.25 36.25C 42.236191 39.973209 40.234131 43.405312 37 45.25"></path></g></g></g></g></g></svg>