<?xml version="1.0" encoding="utf-8" standalone="yes"?>
<!DOCTYPE svg PUBLIC "-//W3C//DTD SVG 1.1//EN" "http://www.w3.org/Graphics/SVG/1.1/DTD/svg11.dtd">
<svg width="720" height="564" viewBox="0 0 720 564" style="fill:none;stroke:none;fill-rule:evenodd;clip-rule:evenodd;stroke-linecap:round;stroke-linejoin:round;stroke-miterlimit:1.5;" version="1.1" xmlns="http://www.w3.org/2000/svg" xmlns:xlink="http://www.w3.org/1999/xlink"><style id="fontImports">@import url("https://fonts.googleapis.com/css2?family=Roboto:wght@400;700&amp;display=block");</style><rect id="" x="0" y="0" width="720" height="564" style="fill: #ffffff;"></rect><g id="items" style="isolation: isolate"><g id="blend" style="mix-blend-mode:normal"><g id="g-root-5.arrow-5_sy_1utobnqv7rin-fill" data-item-order="999828233" data-item-id="5.arrow-5_sy_1utobnqv7rin" data-item-class="Part Indexed Fill Stroke" data-item-index="5" data-renderer-id="0" transform="translate(158.72500610351562, 72.61181640625)"><g id="5.arrow-5_sy_1utobnqv7rin-fill" stroke="none" fill="#fffce6"><g><path d="M 107.669994 193.918C 108.298994 191.201 109.051994 188.489 109.930994 185.787C 119.811994 155.408 143.404994 133.321 171.627994 124.15L 179.027994 146.988L 217.610994 71.414L 134.639994 10L 142.033994 32.819C 85.587994 51.16 38.401994 95.334 18.638994 156.092C 14.142994 169.914 11.298994 183.877 9.999994 197.767L 69.227994 155.469L 107.669994 193.918Z"></path></g></g></g><g id="g-root-5.arrow-5_sy_1utobnqv7rin-fill" data-item-order="999828233" data-item-id="5.arrow-5_sy_1utobnqv7rin" data-item-class="Part Indexed Fill Stroke" data-item-index="5" data-renderer-id="0" transform="translate(158.72500610351562, 72.61181640625)"><g id="5.arrow-5_sy_1utobnqv7rin-fill" stroke="none" fill="#fffce6"><g><path d="M 107.669994 193.918C 108.298994 191.201 109.051994 188.489 109.930994 185.787C 119.811994 155.408 143.404994 133.321 171.627994 124.15L 179.027994 146.988L 217.610994 71.414L 134.639994 10L 142.033994 32.819C 85.587994 51.16 38.401994 95.334 18.638994 156.092C 14.142994 169.914 11.298994 183.877 9.999994 197.767L 69.227994 155.469L 107.669994 193.918Z"></path></g></g></g><g id="g-root-4.arrow-4_sy_1utobnqv7rim-fill" data-item-order="999828235" data-item-id="4.arrow-4_sy_1utobnqv7rim" data-item-class="Part Indexed Fill Stroke" data-item-index="4" data-renderer-id="0" transform="translate(133.947998046875, 218.0810546875)"><g id="4.arrow-4_sy_1utobnqv7rim-fill" stroke="none" fill="#e6f9ff"><g><path d="M 150.010002 246.348006L 128.112002 176.980006L 176.548002 152.320006C 147.557002 134.937006 129.964002 103.435006 129.974002 70.004006L 154.000002 70.006006L 94.006002 10.000006L 10.000002 69.992006L 33.948002 69.994006C 33.926002 145.260006 78.515002 215.637006 150.010002 246.348006Z"></path></g></g></g><g id="g-root-4.arrow-4_sy_1utobnqv7rim-fill" data-item-order="999828235" data-item-id="4.arrow-4_sy_1utobnqv7rim" data-item-class="Part Indexed Fill Stroke" data-item-index="4" data-renderer-id="0" transform="translate(133.947998046875, 218.0810546875)"><g id="4.arrow-4_sy_1utobnqv7rim-fill" stroke="none" fill="#e6f9ff"><g><path d="M 150.010002 246.348006L 128.112002 176.980006L 176.548002 152.320006C 147.557002 134.937006 129.964002 103.435006 129.974002 70.004006L 154.000002 70.006006L 94.006002 10.000006L 10.000002 69.992006L 33.948002 69.994006C 33.926002 145.260006 78.515002 215.637006 150.010002 246.348006Z"></path></g></g></g><g id="g-root-3.arrow-3_sy_4o79xiv7qx1-fill" data-item-order="999828237" data-item-id="3.arrow-3_sy_4o79xiv7qx1" data-item-class="Part Indexed Fill Stroke" data-item-index="3" data-renderer-id="0" transform="translate(252.06100463867188, 346.56201171875)"><g id="3.arrow-3_sy_4o79xiv7qx1-fill" stroke="none" fill="#f5fbe9"><g><path d="M 179.459995 67.631988L 170.935995 13.944988C 146.331995 35.325988 111.446995 43.639988 78.192995 32.822988L 85.615995 9.999988L 9.999995 48.498988L 41.073995 146.937988L 48.497995 124.114988C 123.738995 148.589988 203.153995 124.093988 252.249995 68.189988L 179.459995 67.631988Z"></path></g></g></g><g id="g-root-3.arrow-3_sy_4o79xiv7qx1-fill" data-item-order="999828237" data-item-id="3.arrow-3_sy_4o79xiv7qx1" data-item-class="Part Indexed Fill Stroke" data-item-index="3" data-renderer-id="0" transform="translate(252.06100463867188, 346.56201171875)"><g id="3.arrow-3_sy_4o79xiv7qx1-fill" stroke="none" fill="#f5fbe9"><g><path d="M 179.459995 67.631988L 170.935995 13.944988C 146.331995 35.325988 111.446995 43.639988 78.192995 32.822988L 85.615995 9.999988L 9.999995 48.498988L 41.073995 146.937988L 48.497995 124.114988C 123.738995 148.589988 203.153995 124.093988 252.249995 68.189988L 179.459995 67.631988Z"></path></g></g></g><g id="g-root-2.arrow-2_sy_4o79xiv7qx0-fill" data-item-order="999828239" data-item-id="2.arrow-2_sy_4o79xiv7qx0" data-item-class="Part Indexed Fill Stroke" data-item-index="2" data-renderer-id="0" transform="translate(408.2139892578125, 180.03076171875)"><g id="2.arrow-2_sy_4o79xiv7qx0-fill" stroke="none" fill="#e9fbf3"><g><path d="M 23.307011 234.162994L 10.000011 150.359994L 29.443011 164.473994C 35.200011 156.540994 39.830011 147.582994 43.026011 137.757994C 50.491011 114.807994 48.844011 91.081994 40.079011 70.493994L 93.786011 78.990994L 116.806011 9.999994C 144.023011 55.856994 152.109011 112.757994 134.318011 167.452994C 127.926011 187.102994 118.666011 205.018994 107.152011 220.886994L 126.532011 234.954994L 23.307011 234.162994Z"></path></g></g></g><g id="g-root-2.arrow-2_sy_4o79xiv7qx0-fill" data-item-order="999828239" data-item-id="2.arrow-2_sy_4o79xiv7qx0" data-item-class="Part Indexed Fill Stroke" data-item-index="2" data-renderer-id="0" transform="translate(408.2139892578125, 180.03076171875)"><g id="2.arrow-2_sy_4o79xiv7qx0-fill" stroke="none" fill="#e9fbf3"><g><path d="M 23.307011 234.162994L 10.000011 150.359994L 29.443011 164.473994C 35.200011 156.540994 39.830011 147.582994 43.026011 137.757994C 50.491011 114.807994 48.844011 91.081994 40.079011 70.493994L 93.786011 78.990994L 116.806011 9.999994C 144.023011 55.856994 152.109011 112.757994 134.318011 167.452994C 127.926011 187.102994 118.666011 205.018994 107.152011 220.886994L 126.532011 234.954994L 23.307011 234.162994Z"></path></g></g></g><g id="g-root-1.arrow-1_sy_93eayuv7taj-fill" data-item-order="999828241" data-item-id="1.arrow-1_sy_93eayuv7taj" data-item-class="Part Indexed Indexed_1 Fill Stroke ColorFillGray ColorStrokeGray" data-item-index="1" data-renderer-id="0" transform="translate(307.8500061035156, 83.38818359375)"><g id="1.arrow-1_sy_93eayuv7taj-fill" stroke="none" fill="#f6f6f6"><g><path d="M 9.999994 17.347C 42.553994 10 77.447994 11.05 111.486994 22.122C 151.565994 35.159 184.427994 60.127 207.419994 91.815L 226.821994 77.713L 194.149994 175.634L 110.338994 162.375L 129.757994 148.26C 118.262994 132.417 101.831994 119.932 81.791994 113.414C 69.136994 109.297 56.244994 107.952 43.773994 109.043L 68.485994 60.638L 9.999994 17.347Z"></path></g></g></g><g id="g-root-1.arrow-1_sy_93eayuv7taj-fill" data-item-order="999828241" data-item-id="1.arrow-1_sy_93eayuv7taj" data-item-class="Part Indexed Indexed_1 Fill Stroke ColorFillGray ColorStrokeGray" data-item-index="1" data-renderer-id="0" transform="translate(307.8500061035156, 83.38818359375)"><g id="1.arrow-1_sy_93eayuv7taj-fill" stroke="none" fill="#f6f6f6"><g><path d="M 9.999994 17.347C 42.553994 10 77.447994 11.05 111.486994 22.122C 151.565994 35.159 184.427994 60.127 207.419994 91.815L 226.821994 77.713L 194.149994 175.634L 110.338994 162.375L 129.757994 148.26C 118.262994 132.417 101.831994 119.932 81.791994 113.414C 69.136994 109.297 56.244994 107.952 43.773994 109.043L 68.485994 60.638L 9.999994 17.347Z"></path></g></g></g><g id="g-root-refr_959q86vesr0-fill" data-item-order="1000000000" data-item-id="refr_959q86vesr0" data-item-class="Icon Stroke Indexed InsideFill InsideColorFill" data-item-index="5" data-renderer-id="0" transform="translate(242, 134)"></g><g id="g-root-refr_959q86vesr0-fill" data-item-order="1000000000" data-item-id="refr_959q86vesr0" data-item-class="Icon Stroke Indexed InsideFill InsideColorFill" data-item-index="5" data-renderer-id="0" transform="translate(242, 134)"></g><g id="g-root-scre_mgq8liver61-fill" data-item-order="1000000000" data-item-id="scre_mgq8liver61" data-item-class="Icon Stroke Indexed Indexed_1 InsideFill InsideGrayFill ColorFillGray ColorStrokeGray" data-item-index="1" data-renderer-id="0" transform="translate(410, 134)"></g><g id="g-root-scre_mgq8liver61-fill" data-item-order="1000000000" data-item-id="scre_mgq8liver61" data-item-class="Icon Stroke Indexed Indexed_1 InsideFill InsideGrayFill ColorFillGray ColorStrokeGray" data-item-index="1" data-renderer-id="0" transform="translate(410, 134)"></g><g id="g-root-tx_amliorer_hz1b7qv7sht-fill" data-item-order="1000000000" data-item-id="tx_amliorer_hz1b7qv7sht" data-item-class="Label Stroke Indexed Indexed_1" data-item-index="1" data-renderer-id="0" transform="translate(506, 86)"><g id="tx_amliorer_hz1b7qv7sht-fill" stroke="none" fill="#484848"><g><text style="font: 20px Roboto, sans-serif; white-space: pre;" font-weight="20px" font-size="Roboto," font-family="sans-serif"><tspan x="12" y="34" dominant-baseline="ideographic">Améliorer la </tspan><tspan x="12" y="58" dominant-baseline="ideographic">Maintenabilité</tspan></text></g></g></g><g id="g-root-tx_amliorer_hz1b7qv7sht-fill" data-item-order="1000000000" data-item-id="tx_amliorer_hz1b7qv7sht" data-item-class="Label Stroke Indexed Indexed_1" data-item-index="1" data-renderer-id="0" transform="translate(506, 86)"><g id="tx_amliorer_hz1b7qv7sht-fill" stroke="none" fill="#484848"><g><text style="font: 20px Roboto, sans-serif; white-space: pre;" font-weight="20px" font-size="Roboto," font-family="sans-serif"><tspan x="12" y="34" dominant-baseline="ideographic">Améliorer la </tspan><tspan x="12" y="58" dominant-baseline="ideographic">Maintenabilité</tspan></text></g></g></g><g id="g-root-tx_promouvo_1d15czqv7rph-fill" data-item-order="1000000000" data-item-id="tx_promouvo_1d15czqv7rph" data-item-class="Label Stroke Indexed" data-item-index="5" data-renderer-id="0" transform="translate(62, 86)"><g id="tx_promouvo_1d15czqv7rph-fill" stroke="none" fill="#484848"><g><text style="font: 20px Roboto, sans-serif; white-space: pre;" font-weight="20px" font-size="Roboto," font-family="sans-serif"><tspan x="16.19" y="34" dominant-baseline="ideographic">Promouvoir la </tspan><tspan x="20.85" y="58" dominant-baseline="ideographic">Réutilisabilité</tspan></text></g></g></g><g id="g-root-tx_promouvo_1d15czqv7rph-fill" data-item-order="1000000000" data-item-id="tx_promouvo_1d15czqv7rph" data-item-class="Label Stroke Indexed" data-item-index="5" data-renderer-id="0" transform="translate(62, 86)"><g id="tx_promouvo_1d15czqv7rph-fill" stroke="none" fill="#484848"><g><text style="font: 20px Roboto, sans-serif; white-space: pre;" font-weight="20px" font-size="Roboto," font-family="sans-serif"><tspan x="16.19" y="34" dominant-baseline="ideographic">Promouvoir la </tspan><tspan x="20.85" y="58" dominant-baseline="ideographic">Réutilisabilité</tspan></text></g></g></g><g id="g-root-tx_augmente_zpoumev7tae-fill" data-item-order="1000000000" data-item-id="tx_augmente_zpoumev7tae" data-item-class="Label Stroke Indexed" data-item-index="4" data-renderer-id="0" transform="translate(2, 302)"><g id="tx_augmente_zpoumev7tae-fill" stroke="none" fill="#484848"><g><text style="font: 20px Roboto, sans-serif; white-space: pre;" font-weight="20px" font-size="Roboto," font-family="sans-serif"><tspan x="21.06" y="34" dominant-baseline="ideographic">Augmenter la </tspan><tspan x="55.81" y="58" dominant-baseline="ideographic">Flexibilité</tspan></text></g></g></g><g id="g-root-tx_augmente_zpoumev7tae-fill" data-item-order="1000000000" data-item-id="tx_augmente_zpoumev7tae" data-item-class="Label Stroke Indexed" data-item-index="4" data-renderer-id="0" transform="translate(2, 302)"><g id="tx_augmente_zpoumev7tae-fill" stroke="none" fill="#484848"><g><text style="font: 20px Roboto, sans-serif; white-space: pre;" font-weight="20px" font-size="Roboto," font-family="sans-serif"><tspan x="21.06" y="34" dominant-baseline="ideographic">Augmenter la </tspan><tspan x="55.81" y="58" dominant-baseline="ideographic">Flexibilité</tspan></text></g></g></g><g id="g-root-1_959q86vesqz-fill" data-item-order="1000000000" data-item-id="1_959q86vesqz" data-item-class="Icon Stroke Indexed InsideFill InsideColorFill" data-item-index="4" data-renderer-id="0" transform="translate(188, 290)"></g><g id="g-root-1_959q86vesqz-fill" data-item-order="1000000000" data-item-id="1_959q86vesqz" data-item-class="Icon Stroke Indexed InsideFill InsideColorFill" data-item-index="4" data-renderer-id="0" transform="translate(188, 290)"></g><g id="g-root-2_i0wqh2verya-fill" data-item-order="1000000000" data-item-id="2_i0wqh2verya" data-item-class="Icon Stroke Indexed InsideFill InsideColorFill" data-item-index="2" data-renderer-id="0" transform="translate(464, 290)"></g><g id="g-root-2_i0wqh2verya-fill" data-item-order="1000000000" data-item-id="2_i0wqh2verya" data-item-class="Icon Stroke Indexed InsideFill InsideColorFill" data-item-index="2" data-renderer-id="0" transform="translate(464, 290)"></g><g id="g-root-tx_augmente_meutc6v7rpk-fill" data-item-order="1000000000" data-item-id="tx_augmente_meutc6v7rpk" data-item-class="Label Stroke Indexed" data-item-index="2" data-renderer-id="0" transform="translate(566, 302)"><g id="tx_augmente_meutc6v7rpk-fill" stroke="none" fill="#484848"><g><text style="font: 20px Roboto, sans-serif; white-space: pre;" font-weight="20px" font-size="Roboto," font-family="sans-serif"><tspan x="12" y="34" dominant-baseline="ideographic">Augmenter la </tspan><tspan x="12" y="58" dominant-baseline="ideographic">Scalabilité</tspan></text></g></g></g><g id="g-root-tx_augmente_meutc6v7rpk-fill" data-item-order="1000000000" data-item-id="tx_augmente_meutc6v7rpk" data-item-class="Label Stroke Indexed" data-item-index="2" data-renderer-id="0" transform="translate(566, 302)"><g id="tx_augmente_meutc6v7rpk-fill" stroke="none" fill="#484848"><g><text style="font: 20px Roboto, sans-serif; white-space: pre;" font-weight="20px" font-size="Roboto," font-family="sans-serif"><tspan x="12" y="34" dominant-baseline="ideographic">Augmenter la </tspan><tspan x="12" y="58" dominant-baseline="ideographic">Scalabilité</tspan></text></g></g></g><g id="g-root-tx_amliorer_quobgmv7qxb-fill" data-item-order="1000000000" data-item-id="tx_amliorer_quobgmv7qxb" data-item-class="Label Stroke Indexed" data-item-index="3" data-renderer-id="0" transform="translate(290, 494)"><g id="tx_amliorer_quobgmv7qxb-fill" stroke="none" fill="#484848"><g><text style="font: 20px Roboto, sans-serif; white-space: pre;" font-weight="20px" font-size="Roboto," font-family="sans-serif"><tspan x="14.26" y="34" dominant-baseline="ideographic">Améliorer la </tspan><tspan x="21.61" y="58" dominant-baseline="ideographic">Testabilité</tspan></text></g></g></g><g id="g-root-expe_145icquvetq8-fill" data-item-order="1000000000" data-item-id="expe_145icquvetq8" data-item-class="Icon Stroke Indexed InsideFill InsideColorFill" data-item-index="3" data-renderer-id="0" transform="translate(326, 398)"></g><g id="g-root-expe_145icquvetq8-fill" data-item-order="1000000000" data-item-id="expe_145icquvetq8" data-item-class="Icon Stroke Indexed InsideFill InsideColorFill" data-item-index="3" data-renderer-id="0" transform="translate(326, 398)"></g><g id="g-root-tx_amliorer_quobgmv7qxb-fill" data-item-order="1000000000" data-item-id="tx_amliorer_quobgmv7qxb" data-item-class="Label Stroke Indexed" data-item-index="3" data-renderer-id="0" transform="translate(290, 494)"><g id="tx_amliorer_quobgmv7qxb-fill" stroke="none" fill="#484848"><g><text style="font: 20px Roboto, sans-serif; white-space: pre;" font-weight="20px" font-size="Roboto," font-family="sans-serif"><tspan x="14.26" y="34" dominant-baseline="ideographic">Améliorer la </tspan><tspan x="21.61" y="58" dominant-baseline="ideographic">Testabilité</tspan></text></g></g></g><g id="g-root-tx_avantage_hz1b7qv7shu-fill" data-item-order="1000000000" data-item-id="tx_avantage_hz1b7qv7shu" data-item-class="Label Stroke Title" data-item-index="none" data-renderer-id="0" transform="translate(164, 2)"><g id="tx_avantage_hz1b7qv7shu-fill" stroke="none" fill="#4682e3"><g><text style="font: bold 20px Roboto, sans-serif; white-space: pre;" font-weight="bold" font-size="20" font-family="Roboto, sans-serif"><tspan x="11.93" y="34" dominant-baseline="ideographic">Avantages et Défis de Clean Architecture</tspan></text></g></g></g><g id="g-root-tx_avantage_hz1b7qv7shu-fill" data-item-order="1000000000" data-item-id="tx_avantage_hz1b7qv7shu" data-item-class="Label Stroke Title" data-item-index="none" data-renderer-id="0" transform="translate(164, 2)"><g id="tx_avantage_hz1b7qv7shu-fill" stroke="none" fill="#4682e3"><g><text style="font: bold 20px Roboto, sans-serif; white-space: pre;" font-weight="bold" font-size="20" font-family="Roboto, sans-serif"><tspan x="11.93" y="34" dominant-baseline="ideographic">Avantages et Défis de Clean Architecture</tspan></text></g></g></g><g id="g-root-5.arrow-5_sy_1utobnqv7rin-stroke" data-item-order="999828233" data-item-id="5.arrow-5_sy_1utobnqv7rin" data-item-class="Part Indexed Fill Stroke" data-item-index="5" data-renderer-id="0" transform="translate(158.72500610351562, 72.61181640625)"><g id="5.arrow-5_sy_1utobnqv7rin-stroke" fill="none" stroke-linecap="round" stroke-linejoin="round" stroke-miterlimit="4" stroke="#e3cd09" stroke-width="2"><g><path d="M 107.669994 193.918C 108.298994 191.201 109.051994 188.489 109.930994 185.787C 119.811994 155.408 143.404994 133.321 171.627994 124.15L 179.027994 146.988L 217.610994 71.414L 134.639994 10L 142.033994 32.819C 85.587994 51.16 38.401994 95.334 18.638994 156.092C 14.142994 169.914 11.298994 183.877 9.999994 197.767L 69.227994 155.469L 107.669994 193.918Z"></path></g></g></g><g id="g-root-5.arrow-5_sy_1utobnqv7rin-stroke" data-item-order="999828233" data-item-id="5.arrow-5_sy_1utobnqv7rin" data-item-class="Part Indexed Fill Stroke" data-item-index="5" data-renderer-id="0" transform="translate(158.72500610351562, 72.61181640625)"><g id="5.arrow-5_sy_1utobnqv7rin-stroke" fill="none" stroke-linecap="round" stroke-linejoin="round" stroke-miterlimit="4" stroke="#e3cd09" stroke-width="2"><g><path d="M 107.669994 193.918C 108.298994 191.201 109.051994 188.489 109.930994 185.787C 119.811994 155.408 143.404994 133.321 171.627994 124.15L 179.027994 146.988L 217.610994 71.414L 134.639994 10L 142.033994 32.819C 85.587994 51.16 38.401994 95.334 18.638994 156.092C 14.142994 169.914 11.298994 183.877 9.999994 197.767L 69.227994 155.469L 107.669994 193.918Z"></path></g></g></g><g id="g-root-4.arrow-4_sy_1utobnqv7rim-stroke" data-item-order="999828235" data-item-id="4.arrow-4_sy_1utobnqv7rim" data-item-class="Part Indexed Fill Stroke" data-item-index="4" data-renderer-id="0" transform="translate(133.947998046875, 218.0810546875)"><g id="4.arrow-4_sy_1utobnqv7rim-stroke" fill="none" stroke-linecap="round" stroke-linejoin="round" stroke-miterlimit="4" stroke="#17b0e3" stroke-width="2"><g><path d="M 150.010002 246.348006L 128.112002 176.980006L 176.548002 152.320006C 147.557002 134.937006 129.964002 103.435006 129.974002 70.004006L 154.000002 70.006006L 94.006002 10.000006L 10.000002 69.992006L 33.948002 69.994006C 33.926002 145.260006 78.515002 215.637006 150.010002 246.348006Z"></path></g></g></g><g id="g-root-4.arrow-4_sy_1utobnqv7rim-stroke" data-item-order="999828235" data-item-id="4.arrow-4_sy_1utobnqv7rim" data-item-class="Part Indexed Fill Stroke" data-item-index="4" data-renderer-id="0" transform="translate(133.947998046875, 218.0810546875)"><g id="4.arrow-4_sy_1utobnqv7rim-stroke" fill="none" stroke-linecap="round" stroke-linejoin="round" stroke-miterlimit="4" stroke="#17b0e3" stroke-width="2"><g><path d="M 150.010002 246.348006L 128.112002 176.980006L 176.548002 152.320006C 147.557002 134.937006 129.964002 103.435006 129.974002 70.004006L 154.000002 70.006006L 94.006002 10.000006L 10.000002 69.992006L 33.948002 69.994006C 33.926002 145.260006 78.515002 215.637006 150.010002 246.348006Z"></path></g></g></g><g id="g-root-3.arrow-3_sy_4o79xiv7qx1-stroke" data-item-order="999828237" data-item-id="3.arrow-3_sy_4o79xiv7qx1" data-item-class="Part Indexed Fill Stroke" data-item-index="3" data-renderer-id="0" transform="translate(252.06100463867188, 346.56201171875)"><g id="3.arrow-3_sy_4o79xiv7qx1-stroke" fill="none" stroke-linecap="round" stroke-linejoin="round" stroke-miterlimit="4" stroke="#93c131" stroke-width="2"><g><path d="M 179.459995 67.631988L 170.935995 13.944988C 146.331995 35.325988 111.446995 43.639988 78.192995 32.822988L 85.615995 9.999988L 9.999995 48.498988L 41.073995 146.937988L 48.497995 124.114988C 123.738995 148.589988 203.153995 124.093988 252.249995 68.189988L 179.459995 67.631988Z"></path></g></g></g><g id="g-root-3.arrow-3_sy_4o79xiv7qx1-stroke" data-item-order="999828237" data-item-id="3.arrow-3_sy_4o79xiv7qx1" data-item-class="Part Indexed Fill Stroke" data-item-index="3" data-renderer-id="0" transform="translate(252.06100463867188, 346.56201171875)"><g id="3.arrow-3_sy_4o79xiv7qx1-stroke" fill="none" stroke-linecap="round" stroke-linejoin="round" stroke-miterlimit="4" stroke="#93c131" stroke-width="2"><g><path d="M 179.459995 67.631988L 170.935995 13.944988C 146.331995 35.325988 111.446995 43.639988 78.192995 32.822988L 85.615995 9.999988L 9.999995 48.498988L 41.073995 146.937988L 48.497995 124.114988C 123.738995 148.589988 203.153995 124.093988 252.249995 68.189988L 179.459995 67.631988Z"></path></g></g></g><g id="g-root-2.arrow-2_sy_4o79xiv7qx0-stroke" data-item-order="999828239" data-item-id="2.arrow-2_sy_4o79xiv7qx0" data-item-class="Part Indexed Fill Stroke" data-item-index="2" data-renderer-id="0" transform="translate(408.2139892578125, 180.03076171875)"><g id="2.arrow-2_sy_4o79xiv7qx0-stroke" fill="none" stroke-linecap="round" stroke-linejoin="round" stroke-miterlimit="4" stroke="#3bc482" stroke-width="2"><g><path d="M 23.307011 234.162994L 10.000011 150.359994L 29.443011 164.473994C 35.200011 156.540994 39.830011 147.582994 43.026011 137.757994C 50.491011 114.807994 48.844011 91.081994 40.079011 70.493994L 93.786011 78.990994L 116.806011 9.999994C 144.023011 55.856994 152.109011 112.757994 134.318011 167.452994C 127.926011 187.102994 118.666011 205.018994 107.152011 220.886994L 126.532011 234.954994L 23.307011 234.162994Z"></path></g></g></g><g id="g-root-2.arrow-2_sy_4o79xiv7qx0-stroke" data-item-order="999828239" data-item-id="2.arrow-2_sy_4o79xiv7qx0" data-item-class="Part Indexed Fill Stroke" data-item-index="2" data-renderer-id="0" transform="translate(408.2139892578125, 180.03076171875)"><g id="2.arrow-2_sy_4o79xiv7qx0-stroke" fill="none" stroke-linecap="round" stroke-linejoin="round" stroke-miterlimit="4" stroke="#3bc482" stroke-width="2"><g><path d="M 23.307011 234.162994L 10.000011 150.359994L 29.443011 164.473994C 35.200011 156.540994 39.830011 147.582994 43.026011 137.757994C 50.491011 114.807994 48.844011 91.081994 40.079011 70.493994L 93.786011 78.990994L 116.806011 9.999994C 144.023011 55.856994 152.109011 112.757994 134.318011 167.452994C 127.926011 187.102994 118.666011 205.018994 107.152011 220.886994L 126.532011 234.954994L 23.307011 234.162994Z"></path></g></g></g><g id="g-root-1.arrow-1_sy_93eayuv7taj-stroke" data-item-order="999828241" data-item-id="1.arrow-1_sy_93eayuv7taj" data-item-class="Part Indexed Indexed_1 Fill Stroke ColorFillGray ColorStrokeGray" data-item-index="1" data-renderer-id="0" transform="translate(307.8500061035156, 83.38818359375)"><g id="1.arrow-1_sy_93eayuv7taj-stroke" fill="none" stroke-linecap="round" stroke-linejoin="round" stroke-miterlimit="4" stroke="#888888" stroke-width="2"><g><path d="M 9.999994 17.347C 42.553994 10 77.447994 11.05 111.486994 22.122C 151.565994 35.159 184.427994 60.127 207.419994 91.815L 226.821994 77.713L 194.149994 175.634L 110.338994 162.375L 129.757994 148.26C 118.262994 132.417 101.831994 119.932 81.791994 113.414C 69.136994 109.297 56.244994 107.952 43.773994 109.043L 68.485994 60.638L 9.999994 17.347Z"></path></g></g></g><g id="g-root-1.arrow-1_sy_93eayuv7taj-stroke" data-item-order="999828241" data-item-id="1.arrow-1_sy_93eayuv7taj" data-item-class="Part Indexed Indexed_1 Fill Stroke ColorFillGray ColorStrokeGray" data-item-index="1" data-renderer-id="0" transform="translate(307.8500061035156, 83.38818359375)"><g id="1.arrow-1_sy_93eayuv7taj-stroke" fill="none" stroke-linecap="round" stroke-linejoin="round" stroke-miterlimit="4" stroke="#888888" stroke-width="2"><g><path d="M 9.999994 17.347C 42.553994 10 77.447994 11.05 111.486994 22.122C 151.565994 35.159 184.427994 60.127 207.419994 91.815L 226.821994 77.713L 194.149994 175.634L 110.338994 162.375L 129.757994 148.26C 118.262994 132.417 101.831994 119.932 81.791994 113.414C 69.136994 109.297 56.244994 107.952 43.773994 109.043L 68.485994 60.638L 9.999994 17.347Z"></path></g></g></g><g id="g-root-refr_959q86vesr0-stroke" data-item-order="1000000000" data-item-id="refr_959q86vesr0" data-item-class="Icon Stroke Indexed InsideFill InsideColorFill" data-item-index="5" data-renderer-id="0" transform="translate(242, 134)"><g id="refr_959q86vesr0-stroke" fill="none" stroke-linecap="round" stroke-linejoin="round" stroke-miterlimit="4" stroke="#e3cd09" stroke-width="2"><g><path d="M 26.888 35.711998C 26.073999 39.122002 27.166 42.088001 32.888 40.753998C 37.389999 44.535999 39.622002 42.742001 40.524002 38.975998C 41.341999 35.554001 39.18 29.073999 35.891998 25.868C 35.66925 25.650404 35.357849 25.548992 35.049683 25.593689C 34.741512 25.638384 34.471752 25.824085 34.32 26.096001C 32.043999 30.17 27.83 31.784 26.888 35.711998ZM 33 45C 32.655998 40.587997 32.718002 34.914001 34.742001 31.700001M 46.953999 23C 42.339603 17.570263 34.828621 15.594461 28.13975 18.050816C 21.450874 20.50717 17.003691 26.874363 17 34L 17 39M 23 31L 17 39L 11 31M 21.046 45.009998C 25.661585 50.441132 33.175072 52.416409 39.864944 49.957458C 46.554813 47.498505 51.0005 41.127468 51 34L 51 29M 45 37L 51 29L 57 37"></path></g></g></g><g id="g-root-refr_959q86vesr0-stroke" data-item-order="1000000000" data-item-id="refr_959q86vesr0" data-item-class="Icon Stroke Indexed InsideFill InsideColorFill" data-item-index="5" data-renderer-id="0" transform="translate(242, 134)"><g id="refr_959q86vesr0-stroke" fill="none" stroke-linecap="round" stroke-linejoin="round" stroke-miterlimit="4" stroke="#e3cd09" stroke-width="2"><g><path d="M 26.888 35.711998C 26.073999 39.122002 27.166 42.088001 32.888 40.753998C 37.389999 44.535999 39.622002 42.742001 40.524002 38.975998C 41.341999 35.554001 39.18 29.073999 35.891998 25.868C 35.66925 25.650404 35.357849 25.548992 35.049683 25.593689C 34.741512 25.638384 34.471752 25.824085 34.32 26.096001C 32.043999 30.17 27.83 31.784 26.888 35.711998ZM 33 45C 32.655998 40.587997 32.718002 34.914001 34.742001 31.700001M 46.953999 23C 42.339603 17.570263 34.828621 15.594461 28.13975 18.050816C 21.450874 20.50717 17.003691 26.874363 17 34L 17 39M 23 31L 17 39L 11 31M 21.046 45.009998C 25.661585 50.441132 33.175072 52.416409 39.864944 49.957458C 46.554813 47.498505 51.0005 41.127468 51 34L 51 29M 45 37L 51 29L 57 37"></path></g></g></g><g id="g-root-scre_mgq8liver61-stroke" data-item-order="1000000000" data-item-id="scre_mgq8liver61" data-item-class="Icon Stroke Indexed Indexed_1 InsideFill InsideGrayFill ColorFillGray ColorStrokeGray" data-item-index="1" data-renderer-id="0" transform="translate(410, 134)"><g id="scre_mgq8liver61-stroke" fill="none" stroke-linecap="round" stroke-linejoin="round" stroke-miterlimit="4" stroke="#888888" stroke-width="2"><g><path d="M 26.631403 34.128918L 33.904503 41.402016C 34.560581 42.058098 34.560585 43.121815 33.904503 43.777893L 23.188807 54.493591C 20.510923 57.171471 16.16922 57.171474 13.491342 54.493591L 13.491342 54.493591C 10.813459 51.815712 10.813459 47.47401 13.491342 44.796127L 24.207041 34.080429C 24.530416 33.756516 24.971947 33.57856 25.42956 33.587715C 25.887175 33.596867 26.321239 33.792332 26.631403 34.128918ZM 30.262857 37.737144L 45.62286 22.377142M 46.822857 23.542858L 44.457146 21.177143L 44.457146 16.445715L 51.554287 11.714286L 56.285713 16.445715L 51.554287 23.542858L 46.822857 23.542858Z"></path></g></g></g><g id="g-root-scre_mgq8liver61-stroke" data-item-order="1000000000" data-item-id="scre_mgq8liver61" data-item-class="Icon Stroke Indexed Indexed_1 InsideFill InsideGrayFill ColorFillGray ColorStrokeGray" data-item-index="1" data-renderer-id="0" transform="translate(410, 134)"><g id="scre_mgq8liver61-stroke" fill="none" stroke-linecap="round" stroke-linejoin="round" stroke-miterlimit="4" stroke="#888888" stroke-width="2"><g><path d="M 26.631403 34.128918L 33.904503 41.402016C 34.560581 42.058098 34.560585 43.121815 33.904503 43.777893L 23.188807 54.493591C 20.510923 57.171471 16.16922 57.171474 13.491342 54.493591L 13.491342 54.493591C 10.813459 51.815712 10.813459 47.47401 13.491342 44.796127L 24.207041 34.080429C 24.530416 33.756516 24.971947 33.57856 25.42956 33.587715C 25.887175 33.596867 26.321239 33.792332 26.631403 34.128918ZM 30.262857 37.737144L 45.62286 22.377142M 46.822857 23.542858L 44.457146 21.177143L 44.457146 16.445715L 51.554287 11.714286L 56.285713 16.445715L 51.554287 23.542858L 46.822857 23.542858Z"></path></g></g></g><g id="g-root-tx_amliorer_hz1b7qv7sht-stroke" data-item-order="1000000000" data-item-id="tx_amliorer_hz1b7qv7sht" data-item-class="Label Stroke Indexed Indexed_1" data-item-index="1" data-renderer-id="0" transform="translate(506, 86)"></g><g id="g-root-tx_amliorer_hz1b7qv7sht-stroke" data-item-order="1000000000" data-item-id="tx_amliorer_hz1b7qv7sht" data-item-class="Label Stroke Indexed Indexed_1" data-item-index="1" data-renderer-id="0" transform="translate(506, 86)"></g><g id="g-root-tx_promouvo_1d15czqv7rph-stroke" data-item-order="1000000000" data-item-id="tx_promouvo_1d15czqv7rph" data-item-class="Label Stroke Indexed" data-item-index="5" data-renderer-id="0" transform="translate(62, 86)"></g><g id="g-root-tx_promouvo_1d15czqv7rph-stroke" data-item-order="1000000000" data-item-id="tx_promouvo_1d15czqv7rph" data-item-class="Label Stroke Indexed" data-item-index="5" data-renderer-id="0" transform="translate(62, 86)"></g><g id="g-root-tx_augmente_zpoumev7tae-stroke" data-item-order="1000000000" data-item-id="tx_augmente_zpoumev7tae" data-item-class="Label Stroke Indexed" data-item-index="4" data-renderer-id="0" transform="translate(2, 302)"></g><g id="g-root-tx_augmente_zpoumev7tae-stroke" data-item-order="1000000000" data-item-id="tx_augmente_zpoumev7tae" data-item-class="Label Stroke Indexed" data-item-index="4" data-renderer-id="0" transform="translate(2, 302)"></g><g id="g-root-1_959q86vesqz-stroke" data-item-order="1000000000" data-item-id="1_959q86vesqz" data-item-class="Icon Stroke Indexed InsideFill InsideColorFill" data-item-index="4" data-renderer-id="0" transform="translate(188, 290)"><g id="1_959q86vesqz-stroke" fill="none" stroke-linecap="round" stroke-linejoin="round" stroke-miterlimit="4" stroke="#17b0e3" stroke-width="2"><g><path d="M 49.428574 46L 39.142857 56.285713L 28.857143 46M 18.571428 11.714286L 25.428572 11.714286C 33.002762 11.714286 39.142857 17.85438 39.142857 25.428572L 39.142857 56.285713"></path></g></g></g><g id="g-root-1_959q86vesqz-stroke" data-item-order="1000000000" data-item-id="1_959q86vesqz" data-item-class="Icon Stroke Indexed InsideFill InsideColorFill" data-item-index="4" data-renderer-id="0" transform="translate(188, 290)"><g id="1_959q86vesqz-stroke" fill="none" stroke-linecap="round" stroke-linejoin="round" stroke-miterlimit="4" stroke="#17b0e3" stroke-width="2"><g><path d="M 49.428574 46L 39.142857 56.285713L 28.857143 46M 18.571428 11.714286L 25.428572 11.714286C 33.002762 11.714286 39.142857 17.85438 39.142857 25.428572L 39.142857 56.285713"></path></g></g></g><g id="g-root-2_i0wqh2verya-stroke" data-item-order="1000000000" data-item-id="2_i0wqh2verya" data-item-class="Icon Stroke Indexed InsideFill InsideColorFill" data-item-index="2" data-renderer-id="0" transform="translate(464, 290)"><g id="2_i0wqh2verya-stroke" fill="none" stroke-linecap="round" stroke-linejoin="round" stroke-miterlimit="4" stroke="#3bc482" stroke-width="2"><g><path d="M 43.007999 14L 49.007999 14L 49.007999 20M 12 28L 20.633999 21.962C 21.428761 21.406044 22.50787 21.500465 23.194 22.186001L 23.810001 22.802C 24.50103 23.493176 25.590389 23.583675 26.386 23.015999L 30.785999 19.880001C 31.513363 19.360348 32.497242 19.386477 33.195999 19.944L 35.795998 22.032C 36.5084 22.602013 37.516266 22.617645 38.246002 22.07L 49 14M 19 47C 19 46.447716 18.552284 46 18 46L 14 46C 13.447716 46 13 46.447716 13 47L 13 54L 19 54ZM 31 37C 31 36.447716 30.552284 36 30 36L 26 36C 25.447716 36 25 36.447716 25 37L 25 54L 31 54ZM 43 43C 43 42.447716 42.552284 42 42 42L 38 42C 37.447716 42 37 42.447716 37 43L 37 54L 43 54ZM 55 27C 55 26.447716 54.552284 26 54 26L 50 26C 49.447716 26 49 26.447716 49 27L 49 54L 55 54ZM 11.008 54L 57.007999 54"></path></g></g></g><g id="g-root-2_i0wqh2verya-stroke" data-item-order="1000000000" data-item-id="2_i0wqh2verya" data-item-class="Icon Stroke Indexed InsideFill InsideColorFill" data-item-index="2" data-renderer-id="0" transform="translate(464, 290)"><g id="2_i0wqh2verya-stroke" fill="none" stroke-linecap="round" stroke-linejoin="round" stroke-miterlimit="4" stroke="#3bc482" stroke-width="2"><g><path d="M 43.007999 14L 49.007999 14L 49.007999 20M 12 28L 20.633999 21.962C 21.428761 21.406044 22.50787 21.500465 23.194 22.186001L 23.810001 22.802C 24.50103 23.493176 25.590389 23.583675 26.386 23.015999L 30.785999 19.880001C 31.513363 19.360348 32.497242 19.386477 33.195999 19.944L 35.795998 22.032C 36.5084 22.602013 37.516266 22.617645 38.246002 22.07L 49 14M 19 47C 19 46.447716 18.552284 46 18 46L 14 46C 13.447716 46 13 46.447716 13 47L 13 54L 19 54ZM 31 37C 31 36.447716 30.552284 36 30 36L 26 36C 25.447716 36 25 36.447716 25 37L 25 54L 31 54ZM 43 43C 43 42.447716 42.552284 42 42 42L 38 42C 37.447716 42 37 42.447716 37 43L 37 54L 43 54ZM 55 27C 55 26.447716 54.552284 26 54 26L 50 26C 49.447716 26 49 26.447716 49 27L 49 54L 55 54ZM 11.008 54L 57.007999 54"></path></g></g></g><g id="g-root-tx_augmente_meutc6v7rpk-stroke" data-item-order="1000000000" data-item-id="tx_augmente_meutc6v7rpk" data-item-class="Label Stroke Indexed" data-item-index="2" data-renderer-id="0" transform="translate(566, 302)"></g><g id="g-root-tx_augmente_meutc6v7rpk-stroke" data-item-order="1000000000" data-item-id="tx_augmente_meutc6v7rpk" data-item-class="Label Stroke Indexed" data-item-index="2" data-renderer-id="0" transform="translate(566, 302)"></g><g id="g-root-tx_amliorer_quobgmv7qxb-stroke" data-item-order="1000000000" data-item-id="tx_amliorer_quobgmv7qxb" data-item-class="Label Stroke Indexed" data-item-index="3" data-renderer-id="0" transform="translate(290, 494)"></g><g id="g-root-expe_145icquvetq8-stroke" data-item-order="1000000000" data-item-id="expe_145icquvetq8" data-item-class="Icon Stroke Indexed InsideFill InsideColorFill" data-item-index="3" data-renderer-id="0" transform="translate(326, 398)"><g id="expe_145icquvetq8-stroke" fill="none" stroke-linecap="round" stroke-linejoin="round" stroke-miterlimit="4" stroke="#93c131" stroke-width="2"><g><path d="M 28 15L 28 31L 13.72 50.700001C 12.860843 51.92247 12.754657 53.521873 13.444664 54.847191C 14.134672 56.172508 15.50582 57.002762 17 57L 51 57C 52.494179 57.002762 53.86533 56.172508 54.555336 54.847191C 55.245342 53.521873 55.139156 51.92247 54.279999 50.700001L 40 31L 40 15M 43 13C 43 14.104569 42.104568 15 41 15L 27 15C 25.895432 15 25 14.104569 25 13C 25 11.895431 25.895432 11 27 11L 41 11C 42.104568 11 43 11.895431 43 13ZM 40 20L 36 20M 40 30L 36 30M 40 25L 34 25M 21.24 41L 46.759998 41M 26 49C 26 50.656857 27.343145 52 29 52C 30.656855 52 32 50.656857 32 49C 32 47.343147 30.656855 46 29 46C 27.343145 46 26 47.343147 26 49M 41.5 52C 41.776142 52 42 52.223858 42 52.5M 41 52.5C 41 52.223858 41.223858 52 41.5 52M 41.5 53C 41.223858 53 41 52.776142 41 52.5M 42 52.5C 42 52.776142 41.776142 53 41.5 53M 38 46C 38.276142 46 38.5 46.223858 38.5 46.5M 37.5 46.5C 37.5 46.223858 37.723858 46 38 46M 38 47C 37.723858 47 37.5 46.776142 37.5 46.5M 38.5 46.5C 38.5 46.776142 38.276142 47 38 47"></path></g></g></g><g id="g-root-expe_145icquvetq8-stroke" data-item-order="1000000000" data-item-id="expe_145icquvetq8" data-item-class="Icon Stroke Indexed InsideFill InsideColorFill" data-item-index="3" data-renderer-id="0" transform="translate(326, 398)"><g id="expe_145icquvetq8-stroke" fill="none" stroke-linecap="round" stroke-linejoin="round" stroke-miterlimit="4" stroke="#93c131" stroke-width="2"><g><path d="M 28 15L 28 31L 13.72 50.700001C 12.860843 51.92247 12.754657 53.521873 13.444664 54.847191C 14.134672 56.172508 15.50582 57.002762 17 57L 51 57C 52.494179 57.002762 53.86533 56.172508 54.555336 54.847191C 55.245342 53.521873 55.139156 51.92247 54.279999 50.700001L 40 31L 40 15M 43 13C 43 14.104569 42.104568 15 41 15L 27 15C 25.895432 15 25 14.104569 25 13C 25 11.895431 25.895432 11 27 11L 41 11C 42.104568 11 43 11.895431 43 13ZM 40 20L 36 20M 40 30L 36 30M 40 25L 34 25M 21.24 41L 46.759998 41M 26 49C 26 50.656857 27.343145 52 29 52C 30.656855 52 32 50.656857 32 49C 32 47.343147 30.656855 46 29 46C 27.343145 46 26 47.343147 26 49M 41.5 52C 41.776142 52 42 52.223858 42 52.5M 41 52.5C 41 52.223858 41.223858 52 41.5 52M 41.5 53C 41.223858 53 41 52.776142 41 52.5M 42 52.5C 42 52.776142 41.776142 53 41.5 53M 38 46C 38.276142 46 38.5 46.223858 38.5 46.5M 37.5 46.5C 37.5 46.223858 37.723858 46 38 46M 38 47C 37.723858 47 37.5 46.776142 37.5 46.5M 38.5 46.5C 38.5 46.776142 38.276142 47 38 47"></path></g></g></g><g id="g-root-tx_amliorer_quobgmv7qxb-stroke" data-item-order="1000000000" data-item-id="tx_amliorer_quobgmv7qxb" data-item-class="Label Stroke Indexed" data-item-index="3" data-renderer-id="0" transform="translate(290, 494)"></g><g id="g-root-tx_avantage_hz1b7qv7shu-stroke" data-item-order="1000000000" data-item-id="tx_avantage_hz1b7qv7shu" data-item-class="Label Stroke Title" data-item-index="none" data-renderer-id="0" transform="translate(164, 2)"></g><g id="g-root-tx_avantage_hz1b7qv7shu-stroke" data-item-order="1000000000" data-item-id="tx_avantage_hz1b7qv7shu" data-item-class="Label Stroke Title" data-item-index="none" data-renderer-id="0" transform="translate(164, 2)"></g></g></g></svg>