<?xml version="1.0" encoding="utf-8" standalone="yes"?>
<!DOCTYPE svg PUBLIC "-//W3C//DTD SVG 1.1//EN" "http://www.w3.org/Graphics/SVG/1.1/DTD/svg11.dtd">
<svg width="841" height="565" viewBox="0 0 841 565" style="fill:none;stroke:none;fill-rule:evenodd;clip-rule:evenodd;stroke-linecap:round;stroke-linejoin:round;stroke-miterlimit:1.5;" version="1.1" xmlns="http://www.w3.org/2000/svg" xmlns:xlink="http://www.w3.org/1999/xlink"><style id="fontImports">@import url("https://fonts.googleapis.com/css2?family=Roboto:wght@400;700&amp;display=block");</style><rect id="" x="0" y="0" width="841" height="565" style="fill: #ffffff;"></rect><g id="items" style="isolation: isolate"><g id="blend" style="mix-blend-mode:normal"><g id="g-root-5.cu_sy_qqb676vrf2h-fill" data-item-order="999735044" data-item-id="5.cu_sy_qqb676vrf2h" data-item-class="Part Indexed Fill Stroke" data-item-index="5" data-renderer-id="0" transform="translate(338, 62)"><g id="5.cu_sy_qqb676vrf2h-fill" stroke="none" fill="#fffce6"><g><path d="M 490 250C 490 382.548 382.548 490 250 490C 117.452 490 10 382.548 10 250C 10 117.452 117.452 10 250 10C 382.548 10 490 117.452 490 250ZM 250 442C 356.039 442 442 356.039 442 250C 442 143.961 356.039 58 250 58C 143.961 58 58 143.961 58 250C 58 356.039 143.961 442 250 442Z"></path></g></g></g><g id="g-root-5.cu_sy_qqb676vrf2h-fill" data-item-order="999735044" data-item-id="5.cu_sy_qqb676vrf2h" data-item-class="Part Indexed Fill Stroke" data-item-index="5" data-renderer-id="0" transform="translate(338, 62)"><g id="5.cu_sy_qqb676vrf2h-fill" stroke="none" fill="#fffce6"><g><path d="M 490 250C 490 382.548 382.548 490 250 490C 117.452 490 10 382.548 10 250C 10 117.452 117.452 10 250 10C 382.548 10 490 117.452 490 250ZM 250 442C 356.039 442 442 356.039 442 250C 442 143.961 356.039 58 250 58C 143.961 58 58 143.961 58 250C 58 356.039 143.961 442 250 442Z"></path></g></g></g><g id="g-root-5.line_sy_maho2qvrfuq-fill" data-item-order="999735047" data-item-id="5.line_sy_maho2qvrfuq" data-item-class="Curve Stroke Part LeaderLine Indexed" data-item-index="5" data-renderer-id="0" transform="translate(266, 133.998046875)"></g><g id="g-root-5.line_sy_maho2qvrfuq-fill" data-item-order="999735047" data-item-id="5.line_sy_maho2qvrfuq" data-item-class="Curve Stroke Part LeaderLine Indexed" data-item-index="5" data-renderer-id="0" transform="translate(266, 133.998046875)"></g><g id="g-root-4.cu_sy_qqb676vrf2f-fill" data-item-order="999735048" data-item-id="4.cu_sy_qqb676vrf2f" data-item-class="Part Indexed Fill Stroke" data-item-index="4" data-renderer-id="0" transform="translate(386, 110)"><g id="4.cu_sy_qqb676vrf2f-fill" stroke="none" fill="#e6efff"><g><path d="M 394 202C 394 308.039 308.039 394 202 394C 95.9613 394 10 308.039 10 202C 10 95.9613 95.9613 10 202 10C 308.039 10 394 95.9613 394 202ZM 202 346C 281.529 346 346 281.529 346 202C 346 122.471 281.529 58 202 58C 122.471 58 58 122.471 58 202C 58 281.529 122.471 346 202 346Z"></path></g></g></g><g id="g-root-4.cu_sy_qqb676vrf2f-fill" data-item-order="999735048" data-item-id="4.cu_sy_qqb676vrf2f" data-item-class="Part Indexed Fill Stroke" data-item-index="4" data-renderer-id="0" transform="translate(386, 110)"><g id="4.cu_sy_qqb676vrf2f-fill" stroke="none" fill="#e6efff"><g><path d="M 394 202C 394 308.039 308.039 394 202 394C 95.9613 394 10 308.039 10 202C 10 95.9613 95.9613 10 202 10C 308.039 10 394 95.9613 394 202ZM 202 346C 281.529 346 346 281.529 346 202C 346 122.471 281.529 58 202 58C 122.471 58 58 122.471 58 202C 58 281.529 122.471 346 202 346Z"></path></g></g></g><g id="g-root-4.line_sy_qqb676vrf2g-fill" data-item-order="999735051" data-item-id="4.line_sy_qqb676vrf2g" data-item-class="Curve Stroke Part LeaderLine Indexed" data-item-index="4" data-renderer-id="0" transform="translate(266, 218)"></g><g id="g-root-4.line_sy_qqb676vrf2g-fill" data-item-order="999735051" data-item-id="4.line_sy_qqb676vrf2g" data-item-class="Curve Stroke Part LeaderLine Indexed" data-item-index="4" data-renderer-id="0" transform="translate(266, 218)"></g><g id="g-root-3.cu_sy_v64obmvrea5-fill" data-item-order="999735052" data-item-id="3.cu_sy_v64obmvrea5" data-item-class="Part Indexed Fill Stroke" data-item-index="3" data-renderer-id="0" transform="translate(434, 158)"><g id="3.cu_sy_v64obmvrea5-fill" stroke="none" fill="#e6f9ff"><g><path d="M 298 154C 298 233.529 233.529 298 154 298C 74.471 298 10 233.529 10 154C 10 74.471 74.471 10 154 10C 233.529 10 298 74.471 298 154ZM 154 250C 207.019 250 250 207.019 250 154C 250 100.9807 207.019 58 154 58C 100.9807 58 58 100.9807 58 154C 58 207.019 100.9807 250 154 250Z"></path></g></g></g><g id="g-root-3.cu_sy_v64obmvrea5-fill" data-item-order="999735052" data-item-id="3.cu_sy_v64obmvrea5" data-item-class="Part Indexed Fill Stroke" data-item-index="3" data-renderer-id="0" transform="translate(434, 158)"><g id="3.cu_sy_v64obmvrea5-fill" stroke="none" fill="#e6f9ff"><g><path d="M 298 154C 298 233.529 233.529 298 154 298C 74.471 298 10 233.529 10 154C 10 74.471 74.471 10 154 10C 233.529 10 298 74.471 298 154ZM 154 250C 207.019 250 250 207.019 250 154C 250 100.9807 207.019 58 154 58C 100.9807 58 58 100.9807 58 154C 58 207.019 100.9807 250 154 250Z"></path></g></g></g><g id="g-root-3.line_sy_v64obmvrea6-fill" data-item-order="999735055" data-item-id="3.line_sy_v64obmvrea6" data-item-class="Curve Stroke Part LeaderLine Indexed" data-item-index="3" data-renderer-id="0" transform="translate(266, 301.9989013671875)"></g><g id="g-root-3.line_sy_v64obmvrea6-fill" data-item-order="999735055" data-item-id="3.line_sy_v64obmvrea6" data-item-class="Curve Stroke Part LeaderLine Indexed" data-item-index="3" data-renderer-id="0" transform="translate(266, 301.9989013671875)"></g><g id="g-root-2.cu_sy_14157hevrgn7-fill" data-item-order="999735056" data-item-id="2.cu_sy_14157hevrgn7" data-item-class="Part Indexed Fill Stroke" data-item-index="2" data-renderer-id="0" transform="translate(482, 206)"><g id="2.cu_sy_14157hevrgn7-fill" stroke="none" fill="#e9fbf3"><g><path d="M 202 106C 202 159.019 159.019 202 106 202C 52.9807 202 10 159.019 10 106C 10 52.9807 52.9807 10 106 10C 159.019 10 202 52.9807 202 106ZM 106 154C 132.51 154 154 132.51 154 106C 154 79.4903 132.51 58 106 58C 79.4903 58 58 79.4903 58 106C 58 132.51 79.4903 154 106 154Z"></path></g></g></g><g id="g-root-2.cu_sy_14157hevrgn7-fill" data-item-order="999735056" data-item-id="2.cu_sy_14157hevrgn7" data-item-class="Part Indexed Fill Stroke" data-item-index="2" data-renderer-id="0" transform="translate(482, 206)"><g id="2.cu_sy_14157hevrgn7-fill" stroke="none" fill="#e9fbf3"><g><path d="M 202 106C 202 159.019 159.019 202 106 202C 52.9807 202 10 159.019 10 106C 10 52.9807 52.9807 10 106 10C 159.019 10 202 52.9807 202 106ZM 106 154C 132.51 154 154 132.51 154 106C 154 79.4903 132.51 58 106 58C 79.4903 58 58 79.4903 58 106C 58 132.51 79.4903 154 106 154Z"></path></g></g></g><g id="g-root-2.line_sy_v64obmvrea4-fill" data-item-order="999735059" data-item-id="2.line_sy_v64obmvrea4" data-item-class="Curve Stroke Part LeaderLine Indexed" data-item-index="2" data-renderer-id="0" transform="translate(266, 326.9429931640625)"></g><g id="g-root-2.line_sy_v64obmvrea4-fill" data-item-order="999735059" data-item-id="2.line_sy_v64obmvrea4" data-item-class="Curve Stroke Part LeaderLine Indexed" data-item-index="2" data-renderer-id="0" transform="translate(266, 326.9429931640625)"></g><g id="g-root-1.cu_sy_14157hevrgn5-fill" data-item-order="999735060" data-item-id="1.cu_sy_14157hevrgn5" data-item-class="Part Indexed Indexed_1 Fill Stroke" data-item-index="1" data-renderer-id="0" transform="translate(530, 254)"><g id="1.cu_sy_14157hevrgn5-fill" stroke="none" fill="#f5fbe9"><g><path d="M 106 58C 106 84.5097 84.5097 106 58 106C 31.4903 106 10 84.5097 10 58C 10 31.4903 31.4903 10 58 10C 84.5097 10 106 31.4903 106 58Z"></path></g></g></g><g id="g-root-1.cu_sy_14157hevrgn5-fill" data-item-order="999735060" data-item-id="1.cu_sy_14157hevrgn5" data-item-class="Part Indexed Indexed_1 Fill Stroke" data-item-index="1" data-renderer-id="0" transform="translate(530, 254)"><g id="1.cu_sy_14157hevrgn5-fill" stroke="none" fill="#f5fbe9"><g><path d="M 106 58C 106 84.5097 84.5097 106 58 106C 31.4903 106 10 84.5097 10 58C 10 31.4903 31.4903 10 58 10C 84.5097 10 106 31.4903 106 58Z"></path></g></g></g><g id="g-root-1.line_sy_14157hevrgn6-fill" data-item-order="999735063" data-item-id="1.line_sy_14157hevrgn6" data-item-class="Curve Stroke Part LeaderLine Indexed Indexed_1" data-item-index="1" data-renderer-id="0" transform="translate(266, 324.7723388671875)"></g><g id="g-root-1.line_sy_14157hevrgn6-fill" data-item-order="999735063" data-item-id="1.line_sy_14157hevrgn6" data-item-class="Curve Stroke Part LeaderLine Indexed Indexed_1" data-item-index="1" data-renderer-id="0" transform="translate(266, 324.7723388671875)"></g><g id="g-root-data_4hawwy158t8h-fill" data-item-order="1000000000" data-item-id="data_4hawwy158t8h" data-item-class="Icon Stroke Indexed" data-item-index="3" data-renderer-id="0" transform="translate(206, 278)"></g><g id="g-root-tx_reposito_1lsf7z6vre9y-fill" data-item-order="1000000000" data-item-id="tx_reposito_1lsf7z6vre9y" data-item-class="Label Stroke Indexed" data-item-index="3" data-renderer-id="0" transform="translate(74, 289.9998779296875)"><g id="tx_reposito_1lsf7z6vre9y-fill" stroke="none" fill="#484848"><g><text style="font: 20px Roboto, sans-serif; white-space: pre;" font-weight="20px" font-size="Roboto," font-family="sans-serif"><tspan x="17.01" y="33.33" dominant-baseline="ideographic">Repositories</tspan></text></g></g></g><g id="g-root-netw_8x4f1e158sg8-fill" data-item-order="1000000000" data-item-id="netw_8x4f1e158sg8" data-item-class="Icon Stroke Indexed Indexed_1" data-item-index="1" data-renderer-id="0" transform="translate(206, 445.9998779296875)"></g><g id="g-root-appl_1q7kxlu158rgk-fill" data-item-order="1000000000" data-item-id="appl_1q7kxlu158rgk" data-item-class="Icon Stroke Indexed" data-item-index="4" data-renderer-id="0" transform="translate(206, 194)"></g><g id="g-root-tx_applicat_1cws7qavrf2n-fill" data-item-order="1000000000" data-item-id="tx_applicat_1cws7qavrf2n" data-item-class="Label Stroke Indexed" data-item-index="4" data-renderer-id="0" transform="translate(2, 206)"><g id="tx_applicat_1cws7qavrf2n-fill" stroke="none" fill="#484848"><g><text style="font: 20px Roboto, sans-serif; white-space: pre;" font-weight="20px" font-size="Roboto," font-family="sans-serif"><tspan x="19.34" y="33.33" dominant-baseline="ideographic">Application Services</tspan></text></g></g></g><g id="g-root-tx_presenta_18gypluvrfuw-fill" data-item-order="1000000000" data-item-id="tx_presenta_18gypluvrfuw" data-item-class="Label Stroke Indexed" data-item-index="5" data-renderer-id="0" transform="translate(14, 122)"><g id="tx_presenta_18gypluvrfuw-fill" stroke="none" fill="#484848"><g><text style="font: 20px Roboto, sans-serif; white-space: pre;" font-weight="20px" font-size="Roboto," font-family="sans-serif"><tspan x="21.87" y="33.33" dominant-baseline="ideographic">Presentation Layer</tspan></text></g></g></g><g id="g-root-tx_domainse_1lsf7z6vre9x-fill" data-item-order="1000000000" data-item-id="tx_domainse_1lsf7z6vre9x" data-item-class="Label Stroke Indexed" data-item-index="2" data-renderer-id="0" transform="translate(38, 373.9998779296875)"><g id="tx_domainse_1lsf7z6vre9x-fill" stroke="none" fill="#484848"><g><text style="font: 20px Roboto, sans-serif; white-space: pre;" font-weight="20px" font-size="Roboto," font-family="sans-serif"><tspan x="14.9" y="33.33" dominant-baseline="ideographic">Domain Services</tspan></text></g></g></g><g id="g-root-tx_software_4hypeqvrf9n-fill" data-item-order="1000000000" data-item-id="tx_software_4hypeqvrf9n" data-item-class="Label Stroke Title" data-item-index="none" data-renderer-id="0" transform="translate(224, 2)"><g id="tx_software_4hypeqvrf9n-fill" stroke="none" fill="#484848"><g><text style="font: 20px Roboto, sans-serif; white-space: pre;" font-weight="20px" font-size="Roboto," font-family="sans-serif"><tspan x="13.73" y="33.33" dominant-baseline="ideographic">Software Architecture Layers</tspan></text></g></g></g><g id="g-root-tx_entities_1q7m90ivrgng-fill" data-item-order="1000000000" data-item-id="tx_entities_1q7m90ivrgng" data-item-class="Label Stroke Indexed Indexed_1" data-item-index="1" data-renderer-id="0" transform="translate(122, 457.9998779296875)"><g id="tx_entities_1q7m90ivrgng-fill" stroke="none" fill="#484848"><g><text style="font: 20px Roboto, sans-serif; white-space: pre;" font-weight="20px" font-size="Roboto," font-family="sans-serif"><tspan x="13.91" y="33.33" dominant-baseline="ideographic">Entities</tspan></text></g></g></g><g id="g-root-fron_1q7kxlu158rgj-fill" data-item-order="1000000000" data-item-id="fron_1q7kxlu158rgj" data-item-class="Icon Stroke Indexed" data-item-index="5" data-renderer-id="0" transform="translate(206, 110)"></g><g id="g-root-plan_1unefqa158qoa-fill" data-item-order="1000000000" data-item-id="plan_1unefqa158qoa" data-item-class="Icon Stroke Indexed" data-item-index="2" data-renderer-id="0" transform="translate(206, 361.9998779296875)"></g><g id="g-root-5.cu_sy_qqb676vrf2h-stroke" data-item-order="999735044" data-item-id="5.cu_sy_qqb676vrf2h" data-item-class="Part Indexed Fill Stroke" data-item-index="5" data-renderer-id="0" transform="translate(338, 62)"><g id="5.cu_sy_qqb676vrf2h-stroke" fill="none" stroke-linecap="round" stroke-linejoin="round" stroke-miterlimit="4" stroke="#e3cd09" stroke-width="2"><g><path d="M 490 250C 490 382.5483 382.5483 490 250 490C 117.4517 490 10 382.5483 10 250C 10 117.4517 117.4517 10 250 10C 382.5483 10 490 117.4517 490 250ZM 250 442C 356.0387 442 442 356.0387 442 250C 442 143.9613 356.0387 58 250 58C 143.9613 58 58 143.9613 58 250C 58 356.0387 143.9613 442 250 442Z"></path></g></g></g><g id="g-root-5.cu_sy_qqb676vrf2h-stroke" data-item-order="999735044" data-item-id="5.cu_sy_qqb676vrf2h" data-item-class="Part Indexed Fill Stroke" data-item-index="5" data-renderer-id="0" transform="translate(338, 62)"><g id="5.cu_sy_qqb676vrf2h-stroke" fill="none" stroke-linecap="round" stroke-linejoin="round" stroke-miterlimit="4" stroke="#e3cd09" stroke-width="2"><g><path d="M 490 250C 490 382.5483 382.5483 490 250 490C 117.4517 490 10 382.5483 10 250C 10 117.4517 117.4517 10 250 10C 382.5483 10 490 117.4517 490 250ZM 250 442C 356.0387 442 442 356.0387 442 250C 442 143.9613 356.0387 58 250 58C 143.9613 58 58 143.9613 58 250C 58 356.0387 143.9613 442 250 442Z"></path></g></g></g><g id="g-root-5.line_sy_maho2qvrfuq-stroke" data-item-order="999735047" data-item-id="5.line_sy_maho2qvrfuq" data-item-class="Curve Stroke Part LeaderLine Indexed" data-item-index="5" data-renderer-id="0" transform="translate(266, 133.998046875)"><g id="5.line_sy_maho2qvrfuq-stroke" fill="none" stroke-linecap="round" stroke-linejoin="round" stroke-miterlimit="4" stroke="#484848" stroke-width="2"><g><path d="M 10 10.001953L 108.99 63.301953"></path><path d="M 100.6 66.201953L 109.4 63.501953L 106.8 54.701953" stroke-dasharray="none"></path></g></g></g><g id="g-root-5.line_sy_maho2qvrfuq-stroke" data-item-order="999735047" data-item-id="5.line_sy_maho2qvrfuq" data-item-class="Curve Stroke Part LeaderLine Indexed" data-item-index="5" data-renderer-id="0" transform="translate(266, 133.998046875)"><g id="5.line_sy_maho2qvrfuq-stroke" fill="none" stroke-linecap="round" stroke-linejoin="round" stroke-miterlimit="4" stroke="#484848" stroke-width="2"><g><path d="M 10 10.001953L 108.99 63.301953"></path><path d="M 100.6 66.201953L 109.4 63.501953L 106.8 54.701953" stroke-dasharray="none"></path></g></g></g><g id="g-root-4.cu_sy_qqb676vrf2f-stroke" data-item-order="999735048" data-item-id="4.cu_sy_qqb676vrf2f" data-item-class="Part Indexed Fill Stroke" data-item-index="4" data-renderer-id="0" transform="translate(386, 110)"><g id="4.cu_sy_qqb676vrf2f-stroke" fill="none" stroke-linecap="round" stroke-linejoin="round" stroke-miterlimit="4" stroke="#4682e3" stroke-width="2"><g><path d="M 394 202C 394 308.0387 308.0387 394 202 394C 95.9613 394 10 308.0387 10 202C 10 95.9613 95.9613 10 202 10C 308.0387 10 394 95.9613 394 202ZM 202 346C 281.529 346 346 281.529 346 202C 346 122.471 281.529 58 202 58C 122.471 58 58 122.471 58 202C 58 281.529 122.471 346 202 346Z"></path></g></g></g><g id="g-root-4.cu_sy_qqb676vrf2f-stroke" data-item-order="999735048" data-item-id="4.cu_sy_qqb676vrf2f" data-item-class="Part Indexed Fill Stroke" data-item-index="4" data-renderer-id="0" transform="translate(386, 110)"><g id="4.cu_sy_qqb676vrf2f-stroke" fill="none" stroke-linecap="round" stroke-linejoin="round" stroke-miterlimit="4" stroke="#4682e3" stroke-width="2"><g><path d="M 394 202C 394 308.0387 308.0387 394 202 394C 95.9613 394 10 308.0387 10 202C 10 95.9613 95.9613 10 202 10C 308.0387 10 394 95.9613 394 202ZM 202 346C 281.529 346 346 281.529 346 202C 346 122.471 281.529 58 202 58C 122.471 58 58 122.471 58 202C 58 281.529 122.471 346 202 346Z"></path></g></g></g><g id="g-root-4.line_sy_qqb676vrf2g-stroke" data-item-order="999735051" data-item-id="4.line_sy_qqb676vrf2g" data-item-class="Curve Stroke Part LeaderLine Indexed" data-item-index="4" data-renderer-id="0" transform="translate(266, 218)"><g id="4.line_sy_qqb676vrf2g-stroke" fill="none" stroke-linecap="round" stroke-linejoin="round" stroke-miterlimit="4" stroke="#484848" stroke-width="2"><g><path d="M 10 10L 134.57 43.54"></path><path d="M 127.1 48.3L 135.1 43.7L 130.5 35.7" stroke-dasharray="none"></path></g></g></g><g id="g-root-4.line_sy_qqb676vrf2g-stroke" data-item-order="999735051" data-item-id="4.line_sy_qqb676vrf2g" data-item-class="Curve Stroke Part LeaderLine Indexed" data-item-index="4" data-renderer-id="0" transform="translate(266, 218)"><g id="4.line_sy_qqb676vrf2g-stroke" fill="none" stroke-linecap="round" stroke-linejoin="round" stroke-miterlimit="4" stroke="#484848" stroke-width="2"><g><path d="M 10 10L 134.57 43.54"></path><path d="M 127.1 48.3L 135.1 43.7L 130.5 35.7" stroke-dasharray="none"></path></g></g></g><g id="g-root-3.cu_sy_v64obmvrea5-stroke" data-item-order="999735052" data-item-id="3.cu_sy_v64obmvrea5" data-item-class="Part Indexed Fill Stroke" data-item-index="3" data-renderer-id="0" transform="translate(434, 158)"><g id="3.cu_sy_v64obmvrea5-stroke" fill="none" stroke-linecap="round" stroke-linejoin="round" stroke-miterlimit="4" stroke="#17b0e3" stroke-width="2"><g><path d="M 298 154C 298 233.529 233.529 298 154 298C 74.471 298 10 233.529 10 154C 10 74.471 74.471 10 154 10C 233.529 10 298 74.471 298 154ZM 154 250C 207.0193 250 250 207.0193 250 154C 250 100.9807 207.0193 58 154 58C 100.9807 58 58 100.9807 58 154C 58 207.0193 100.9807 250 154 250Z"></path></g></g></g><g id="g-root-3.cu_sy_v64obmvrea5-stroke" data-item-order="999735052" data-item-id="3.cu_sy_v64obmvrea5" data-item-class="Part Indexed Fill Stroke" data-item-index="3" data-renderer-id="0" transform="translate(434, 158)"><g id="3.cu_sy_v64obmvrea5-stroke" fill="none" stroke-linecap="round" stroke-linejoin="round" stroke-miterlimit="4" stroke="#17b0e3" stroke-width="2"><g><path d="M 298 154C 298 233.529 233.529 298 154 298C 74.471 298 10 233.529 10 154C 10 74.471 74.471 10 154 10C 233.529 10 298 74.471 298 154ZM 154 250C 207.0193 250 250 207.0193 250 154C 250 100.9807 207.0193 58 154 58C 100.9807 58 58 100.9807 58 154C 58 207.0193 100.9807 250 154 250Z"></path></g></g></g><g id="g-root-3.line_sy_v64obmvrea6-stroke" data-item-order="999735055" data-item-id="3.line_sy_v64obmvrea6" data-item-class="Curve Stroke Part LeaderLine Indexed" data-item-index="3" data-renderer-id="0" transform="translate(266, 301.9989013671875)"><g id="3.line_sy_v64obmvrea6-stroke" fill="none" stroke-linecap="round" stroke-linejoin="round" stroke-miterlimit="4" stroke="#484848" stroke-width="2"><g><path d="M 10 10.000977L 176 10.000977"></path><path d="M 170 16.500977L 176.5 10.000977L 170 3.500977" stroke-dasharray="none"></path></g></g></g><g id="g-root-3.line_sy_v64obmvrea6-stroke" data-item-order="999735055" data-item-id="3.line_sy_v64obmvrea6" data-item-class="Curve Stroke Part LeaderLine Indexed" data-item-index="3" data-renderer-id="0" transform="translate(266, 301.9989013671875)"><g id="3.line_sy_v64obmvrea6-stroke" fill="none" stroke-linecap="round" stroke-linejoin="round" stroke-miterlimit="4" stroke="#484848" stroke-width="2"><g><path d="M 10 10.000977L 176 10.000977"></path><path d="M 170 16.500977L 176.5 10.000977L 170 3.500977" stroke-dasharray="none"></path></g></g></g><g id="g-root-2.cu_sy_14157hevrgn7-stroke" data-item-order="999735056" data-item-id="2.cu_sy_14157hevrgn7" data-item-class="Part Indexed Fill Stroke" data-item-index="2" data-renderer-id="0" transform="translate(482, 206)"><g id="2.cu_sy_14157hevrgn7-stroke" fill="none" stroke-linecap="round" stroke-linejoin="round" stroke-miterlimit="4" stroke="#3bc482" stroke-width="2"><g><path d="M 202 106C 202 159.0193 159.0193 202 106 202C 52.9807 202 10 159.0193 10 106C 10 52.9807 52.9807 10 106 10C 159.0193 10 202 52.9807 202 106ZM 106 154C 132.5097 154 154 132.5097 154 106C 154 79.4903 132.5097 58 106 58C 79.4903 58 58 79.4903 58 106C 58 132.5097 79.4903 154 106 154Z"></path></g></g></g><g id="g-root-2.cu_sy_14157hevrgn7-stroke" data-item-order="999735056" data-item-id="2.cu_sy_14157hevrgn7" data-item-class="Part Indexed Fill Stroke" data-item-index="2" data-renderer-id="0" transform="translate(482, 206)"><g id="2.cu_sy_14157hevrgn7-stroke" fill="none" stroke-linecap="round" stroke-linejoin="round" stroke-miterlimit="4" stroke="#3bc482" stroke-width="2"><g><path d="M 202 106C 202 159.0193 159.0193 202 106 202C 52.9807 202 10 159.0193 10 106C 10 52.9807 52.9807 10 106 10C 159.0193 10 202 52.9807 202 106ZM 106 154C 132.5097 154 154 132.5097 154 106C 154 79.4903 132.5097 58 106 58C 79.4903 58 58 79.4903 58 106C 58 132.5097 79.4903 154 106 154Z"></path></g></g></g><g id="g-root-2.line_sy_v64obmvrea4-stroke" data-item-order="999735059" data-item-id="2.line_sy_v64obmvrea4" data-item-class="Curve Stroke Part LeaderLine Indexed" data-item-index="2" data-renderer-id="0" transform="translate(266, 326.9429931640625)"><g id="2.line_sy_v64obmvrea4-stroke" fill="none" stroke-linecap="round" stroke-linejoin="round" stroke-miterlimit="4" stroke="#484848" stroke-width="2"><g><path d="M 10 69.05709L 227.42 10.51709"></path><path d="M 223.3 18.31709L 227.9 10.41709L 219.9 5.81709" stroke-dasharray="none"></path></g></g></g><g id="g-root-2.line_sy_v64obmvrea4-stroke" data-item-order="999735059" data-item-id="2.line_sy_v64obmvrea4" data-item-class="Curve Stroke Part LeaderLine Indexed" data-item-index="2" data-renderer-id="0" transform="translate(266, 326.9429931640625)"><g id="2.line_sy_v64obmvrea4-stroke" fill="none" stroke-linecap="round" stroke-linejoin="round" stroke-miterlimit="4" stroke="#484848" stroke-width="2"><g><path d="M 10 69.05709L 227.42 10.51709"></path><path d="M 223.3 18.31709L 227.9 10.41709L 219.9 5.81709" stroke-dasharray="none"></path></g></g></g><g id="g-root-1.cu_sy_14157hevrgn5-stroke" data-item-order="999735060" data-item-id="1.cu_sy_14157hevrgn5" data-item-class="Part Indexed Indexed_1 Fill Stroke" data-item-index="1" data-renderer-id="0" transform="translate(530, 254)"><g id="1.cu_sy_14157hevrgn5-stroke" fill="none" stroke-linecap="round" stroke-linejoin="round" stroke-miterlimit="4" stroke="#93c131" stroke-width="2"><g><path d="M 106 58C 106 84.5097 84.5097 106 58 106C 31.4903 106 10 84.5097 10 58C 10 31.4903 31.4903 10 58 10C 84.5097 10 106 31.4903 106 58Z"></path></g></g></g><g id="g-root-1.cu_sy_14157hevrgn5-stroke" data-item-order="999735060" data-item-id="1.cu_sy_14157hevrgn5" data-item-class="Part Indexed Indexed_1 Fill Stroke" data-item-index="1" data-renderer-id="0" transform="translate(530, 254)"><g id="1.cu_sy_14157hevrgn5-stroke" fill="none" stroke-linecap="round" stroke-linejoin="round" stroke-miterlimit="4" stroke="#93c131" stroke-width="2"><g><path d="M 106 58C 106 84.5097 84.5097 106 58 106C 31.4903 106 10 84.5097 10 58C 10 31.4903 31.4903 10 58 10C 84.5097 10 106 31.4903 106 58Z"></path></g></g></g><g id="g-root-1.line_sy_14157hevrgn6-stroke" data-item-order="999735063" data-item-id="1.line_sy_14157hevrgn6" data-item-class="Curve Stroke Part LeaderLine Indexed Indexed_1" data-item-index="1" data-renderer-id="0" transform="translate(266, 324.7723388671875)"><g id="1.line_sy_14157hevrgn6-stroke" fill="none" stroke-linecap="round" stroke-linejoin="round" stroke-miterlimit="4" stroke="#484848" stroke-width="2"><g><path d="M 10 155.227754L 277.95 10.947754"></path><path d="M 275.7 19.547754L 278.4 10.747754L 269.6 8.047754" stroke-dasharray="none"></path></g></g></g><g id="g-root-1.line_sy_14157hevrgn6-stroke" data-item-order="999735063" data-item-id="1.line_sy_14157hevrgn6" data-item-class="Curve Stroke Part LeaderLine Indexed Indexed_1" data-item-index="1" data-renderer-id="0" transform="translate(266, 324.7723388671875)"><g id="1.line_sy_14157hevrgn6-stroke" fill="none" stroke-linecap="round" stroke-linejoin="round" stroke-miterlimit="4" stroke="#484848" stroke-width="2"><g><path d="M 10 155.227754L 277.95 10.947754"></path><path d="M 275.7 19.547754L 278.4 10.747754L 269.6 8.047754" stroke-dasharray="none"></path></g></g></g><g id="g-root-data_4hawwy158t8h-stroke" data-item-order="1000000000" data-item-id="data_4hawwy158t8h" data-item-class="Icon Stroke Indexed" data-item-index="3" data-renderer-id="0" transform="translate(206, 278)"><g id="data_4hawwy158t8h-stroke" fill="none" stroke-linecap="round" stroke-linejoin="round" stroke-miterlimit="4" stroke="#484848" stroke-width="2"><g><path d="M 11.714286 20.285715C 11.714287 25.019585 21.69194 28.857143 34 28.857143C 46.308064 28.857143 56.285713 25.019585 56.285713 20.285715C 56.285713 15.551846 46.308064 11.714286 34 11.714286C 21.69194 11.714286 11.714287 15.551846 11.714287 20.285715M 11.714286 20.285715L 11.714286 47.714287C 11.714286 52.445717 21.691429 56.285713 34 56.285713C 46.308571 56.285713 56.285713 52.445717 56.285713 47.714287L 56.285713 20.285715M 56.285713 34C 56.285713 38.73143 46.308571 42.57143 34 42.57143C 21.691429 42.57143 11.714286 38.73143 11.714286 34"></path></g></g></g><g id="g-root-tx_reposito_1lsf7z6vre9y-stroke" data-item-order="1000000000" data-item-id="tx_reposito_1lsf7z6vre9y" data-item-class="Label Stroke Indexed" data-item-index="3" data-renderer-id="0" transform="translate(74, 289.9998779296875)"></g><g id="g-root-netw_8x4f1e158sg8-stroke" data-item-order="1000000000" data-item-id="netw_8x4f1e158sg8" data-item-class="Icon Stroke Indexed Indexed_1" data-item-index="1" data-renderer-id="0" transform="translate(206, 445.9998779296875)"><g id="netw_8x4f1e158sg8-stroke" fill="none" stroke-linecap="round" stroke-linejoin="round" stroke-miterlimit="4" stroke="#484848" stroke-width="2"><g><path d="M 44 24.040001L 50.216 17.868M 49 15C 49 17.209139 50.790859 19 53 19C 55.209141 19 57 17.209139 57 15C 57 12.790861 55.209141 11 53 11C 50.790859 11 49 12.790861 49 15ZM 45.924 45.958L 50.153999 50.214001M 49.02 53C 49.02 55.209141 50.81086 57 53.02 57C 55.229137 57 57.02 55.209141 57.02 53C 57.02 50.790859 55.229137 49 53.02 49C 50.81086 49 49.02 50.790859 49.02 53ZM 24 24.040001L 17.785999 17.868M 11 15C 11 17.209139 12.790861 19 15 19C 17.209139 19 19 17.209139 19 15C 19 12.790861 17.209139 11 15 11C 12.790861 11 11 12.790861 11 15ZM 22.077999 45.958L 17.846001 50.214001M 10.98 53C 10.98 55.209141 12.770861 57 14.98 57C 17.189138 57 18.98 55.209141 18.98 53C 18.98 50.790859 17.189138 49 14.98 49C 12.770861 49 10.98 50.790859 10.98 53ZM 43 33L 49 33M 49 33C 49 35.209137 50.790859 37 53 37C 55.209141 37 57 35.209137 57 33C 57 30.790861 55.209141 29 53 29C 50.790859 29 49 30.790861 49 33ZM 25 33L 19 33M 11 33C 11 35.209137 12.790861 37 15 37C 17.209139 37 19 35.209137 19 33C 19 30.790861 17.209139 29 15 29C 12.790861 29 11 30.790861 11 33ZM 25.02 43C 25.02 38.029438 29.049437 34 34.02 34C 38.990562 34 43.02 38.029438 43.02 43ZM 28.52 26.5C 28.52 29.537567 30.982435 32 34.02 32C 37.057568 32 39.52 29.537567 39.52 26.5C 39.52 23.462435 37.057568 21 34.02 21C 30.982435 21 28.52 23.462435 28.52 26.5Z"></path></g></g></g><g id="g-root-appl_1q7kxlu158rgk-stroke" data-item-order="1000000000" data-item-id="appl_1q7kxlu158rgk" data-item-class="Icon Stroke Indexed" data-item-index="4" data-renderer-id="0" transform="translate(206, 194)"><g id="appl_1q7kxlu158rgk-stroke" fill="none" stroke-linecap="round" stroke-linejoin="round" stroke-miterlimit="4" stroke="#484848" stroke-width="2"><g><path d="M 56.285713 39.142857L 56.285713 46C 56.285713 46.946774 55.518204 47.714287 54.57143 47.714287L 13.428572 47.714287C 12.481797 47.714287 11.714286 46.946774 11.714286 46L 11.714286 39.142857M 11.714286 25.428572L 11.714286 18.571428C 11.714286 17.624655 12.481797 16.857143 13.428572 16.857143L 54.57143 16.857143C 55.518204 16.857143 56.285713 17.624655 56.285713 18.571428L 56.285713 25.428572M 30.571428 47.714287L 27.142857 56.285713M 37.428574 47.714287L 40.857143 56.285713M 23.714287 56.285713L 44.285713 56.285713M 28.857143 25.428572L 39.142857 25.428572L 39.142857 39.142857L 28.857143 39.142857ZM 20.285715 27.142857L 15.142858 32.285713L 20.285715 37.428574M 47.714287 27.142857L 52.857143 32.285713L 47.714287 37.428574"></path></g></g></g><g id="g-root-tx_applicat_1cws7qavrf2n-stroke" data-item-order="1000000000" data-item-id="tx_applicat_1cws7qavrf2n" data-item-class="Label Stroke Indexed" data-item-index="4" data-renderer-id="0" transform="translate(2, 206)"></g><g id="g-root-tx_presenta_18gypluvrfuw-stroke" data-item-order="1000000000" data-item-id="tx_presenta_18gypluvrfuw" data-item-class="Label Stroke Indexed" data-item-index="5" data-renderer-id="0" transform="translate(14, 122)"></g><g id="g-root-tx_domainse_1lsf7z6vre9x-stroke" data-item-order="1000000000" data-item-id="tx_domainse_1lsf7z6vre9x" data-item-class="Label Stroke Indexed" data-item-index="2" data-renderer-id="0" transform="translate(38, 373.9998779296875)"></g><g id="g-root-tx_software_4hypeqvrf9n-stroke" data-item-order="1000000000" data-item-id="tx_software_4hypeqvrf9n" data-item-class="Label Stroke Title" data-item-index="none" data-renderer-id="0" transform="translate(224, 2)"></g><g id="g-root-tx_entities_1q7m90ivrgng-stroke" data-item-order="1000000000" data-item-id="tx_entities_1q7m90ivrgng" data-item-class="Label Stroke Indexed Indexed_1" data-item-index="1" data-renderer-id="0" transform="translate(122, 457.9998779296875)"></g><g id="g-root-fron_1q7kxlu158rgj-stroke" data-item-order="1000000000" data-item-id="fron_1q7kxlu158rgj" data-item-class="Icon Stroke Indexed" data-item-index="5" data-renderer-id="0" transform="translate(206, 110)"><g id="fron_1q7kxlu158rgj-stroke" fill="none" stroke-linecap="round" stroke-linejoin="round" stroke-miterlimit="4" stroke="#484848" stroke-width="2"><g><path d="M 25.428572 11.714286L 52.857143 11.714286C 52.857143 11.714286 56.285713 11.714286 56.285713 15.142858L 56.285713 42.57143C 56.285713 42.57143 56.285713 46 52.857143 46L 25.428572 46C 25.428572 46 22 46 22 42.57143L 22 15.142858C 22 15.142858 22 11.714286 25.428572 11.714286M 11.714286 52.857143C 11.714286 54.750694 13.24931 56.285713 15.142858 56.285713M 25.428572 56.285713L 30.571428 56.285713M 40.857143 56.285713L 46 56.285713M 11.714286 37.428574L 11.714286 42.57143M 11.714286 22L 11.714286 27.142857"></path></g></g></g><g id="g-root-plan_1unefqa158qoa-stroke" data-item-order="1000000000" data-item-id="plan_1unefqa158qoa" data-item-class="Icon Stroke Indexed" data-item-index="2" data-renderer-id="0" transform="translate(206, 361.9998779296875)"><g id="plan_1unefqa158qoa-stroke" fill="none" stroke-linecap="round" stroke-linejoin="round" stroke-miterlimit="4" stroke="#484848" stroke-width="2"><g><path d="M 12.842 16.454L 32.134003 16.454C 32.134003 16.454 33.487999 16.454 33.487999 17.808001L 33.487999 29.6C 33.487999 29.6 33.487999 30.954 32.134003 30.954L 12.842 30.954C 12.842 30.954 11.488 30.954 11.488 29.6L 11.488 17.808001C 11.488 17.808001 11.488 16.454 12.842 16.454M 16.813999 16.454L 18.836 13.654C 19.489794 12.695973 20.616394 12.173759 21.77 12.294L 23.726 12.294C 24.880138 12.173891 26.007263 12.695993 26.662001 13.654L 28.684 16.454M 11.488 22.454L 20.035999 22.454M 24.987999 22.454L 33.535999 22.454M 21.035999 21.424L 23.938 21.424C 23.938 21.424 24.938 21.424 24.938 22.424L 24.938 24.986C 24.938 24.986 24.938 25.986 23.938 25.986L 21.035999 25.986C 21.035999 25.986 20.035999 25.986 20.035999 24.986L 20.035999 22.424C 20.035999 22.424 20.035999 21.424 21.035999 21.424M 35.818001 41.214001L 55.110001 41.214001C 55.110001 41.214001 56.464001 41.214001 56.464001 42.568001L 56.464001 54.360001C 56.464001 54.360001 56.464001 55.714001 55.110001 55.714001L 35.818001 55.714001C 35.818001 55.714001 34.464001 55.714001 34.464001 54.360001L 34.464001 42.568001C 34.464001 42.568001 34.464001 41.214001 35.818001 41.214001M 39.788002 41.214001L 41.809998 38.414001C 42.465809 37.457443 43.592411 36.936352 44.746002 37.056L 46.702 37.056C 47.855133 36.935776 48.981426 37.457077 49.636002 38.414001L 51.658001 41.214001M 34.464001 47.214001L 43.012001 47.214001M 47.964001 47.214001L 56.512001 47.214001M 44.012001 46.181999L 46.914001 46.181999C 46.914001 46.181999 47.914001 46.181999 47.914001 47.181999L 47.914001 49.743999C 47.914001 49.743999 47.914001 50.743999 46.914001 50.743999L 44.012001 50.743999C 44.012001 50.743999 43.012001 50.743999 43.012001 49.743999L 43.012001 47.181999C 43.012001 47.181999 43.012001 46.181999 44.012001 46.181999M 53.487999 26.6C 53.487999 21.905579 49.682419 18.1 44.987999 18.1L 40.987999 18.1M 44.987999 14.096001L 40.987999 18.096001L 44.987999 22.096001M 14.488 39.599998C 14.488 44.294422 18.293579 48.099998 22.987999 48.099998L 26.988001 48.099998M 22.987999 52.096001L 26.988001 48.096001L 22.987999 44.096001"></path></g></g></g></g></g></svg>