<?xml version="1.0" encoding="utf-8" standalone="yes"?>
<!DOCTYPE svg PUBLIC "-//W3C//DTD SVG 1.1//EN" "http://www.w3.org/Graphics/SVG/1.1/DTD/svg11.dtd">
<svg width="696" height="612" viewBox="0 0 696 612" style="fill:none;stroke:none;fill-rule:evenodd;clip-rule:evenodd;stroke-linecap:round;stroke-linejoin:round;stroke-miterlimit:1.5;" version="1.1" xmlns="http://www.w3.org/2000/svg" xmlns:xlink="http://www.w3.org/1999/xlink"><style id="fontImports">@import url("https://fonts.googleapis.com/css2?family=Roboto:wght@400;700&amp;display=block");</style><rect id="" x="0" y="0" width="696" height="612" style="fill: #ffffff;"></rect><g id="items" style="isolation: isolate"><g id="blend" style="mix-blend-mode:normal"><g id="g-root-4.Vector_sy_zpout13djjlz-fill" data-item-order="999792068" data-item-id="4.Vector_sy_zpout13djjlz" data-item-class="Part Indexed Fill Stroke" data-item-index="4" data-renderer-id="0" transform="translate(423, 351)"><g id="4.Vector_sy_zpout13djjlz-fill" stroke="none" fill="#f5fbe9"><g><path d="M 45 10L 45 10C 45 10 80 10 80 45L 80 45C 80 45 80 80 45 80L 45 80C 45 80 10 80 10 45L 10 45C 10 45 10 10 45 10"></path></g></g></g><g id="g-root-4.Vector_sy_zpout13djjlz-fill" data-item-order="999792068" data-item-id="4.Vector_sy_zpout13djjlz" data-item-class="Part Indexed Fill Stroke" data-item-index="4" data-renderer-id="0" transform="translate(423, 351)"><g id="4.Vector_sy_zpout13djjlz-fill" stroke="none" fill="#f5fbe9"><g><path d="M 45 10L 45 10C 45 10 80 10 80 45L 80 45C 80 45 80 80 45 80L 45 80C 45 80 10 80 10 45L 10 45C 10 45 10 10 45 10"></path></g></g></g><g id="g-root-3.Vector_sy_zpout13djjly-fill" data-item-order="999792070" data-item-id="3.Vector_sy_zpout13djjly" data-item-class="Part Indexed Fill Stroke" data-item-index="3" data-renderer-id="0" transform="translate(207, 351)"><g id="3.Vector_sy_zpout13djjly-fill" stroke="none" fill="#fef2e6"><g><path d="M 45 10L 45 10C 45 10 80 10 80 45L 80 45C 80 45 80 80 45 80L 45 80C 45 80 10 80 10 45L 10 45C 10 45 10 10 45 10"></path></g></g></g><g id="g-root-3.Vector_sy_zpout13djjly-fill" data-item-order="999792070" data-item-id="3.Vector_sy_zpout13djjly" data-item-class="Part Indexed Fill Stroke" data-item-index="3" data-renderer-id="0" transform="translate(207, 351)"><g id="3.Vector_sy_zpout13djjly-fill" stroke="none" fill="#fef2e6"><g><path d="M 45 10L 45 10C 45 10 80 10 80 45L 80 45C 80 45 80 80 45 80L 45 80C 45 80 10 80 10 45L 10 45C 10 45 10 10 45 10"></path></g></g></g><g id="g-root-2.Vector_sy_144vvud3djlzh-fill" data-item-order="999792072" data-item-id="2.Vector_sy_144vvud3djlzh" data-item-class="Part Indexed Fill Stroke" data-item-index="2" data-renderer-id="0" transform="translate(423, 135)"><g id="2.Vector_sy_144vvud3djlzh-fill" stroke="none" fill="#e9fbf3"><g><path d="M 45 10L 45 10C 45 10 80 10 80 45L 80 45C 80 45 80 80 45 80L 45 80C 45 80 10 80 10 45L 10 45C 10 45 10 10 45 10"></path></g></g></g><g id="g-root-2.Vector_sy_144vvud3djlzh-fill" data-item-order="999792072" data-item-id="2.Vector_sy_144vvud3djlzh" data-item-class="Part Indexed Fill Stroke" data-item-index="2" data-renderer-id="0" transform="translate(423, 135)"><g id="2.Vector_sy_144vvud3djlzh-fill" stroke="none" fill="#e9fbf3"><g><path d="M 45 10L 45 10C 45 10 80 10 80 45L 80 45C 80 45 80 80 45 80L 45 80C 45 80 10 80 10 45L 10 45C 10 45 10 10 45 10"></path></g></g></g><g id="g-root-1.Vector_sy_144vvud3djlzg-fill" data-item-order="999792074" data-item-id="1.Vector_sy_144vvud3djlzg" data-item-class="Part Indexed Indexed_1 Fill Stroke" data-item-index="1" data-renderer-id="0" transform="translate(207, 135)"><g id="1.Vector_sy_144vvud3djlzg-fill" stroke="none" fill="#ffe7e6"><g><path d="M 45 80C 25.67 80 10 64.33 10 45C 10 25.67 25.67 10 45 10C 64.33 10 80 25.67 80 45C 80 64.33 64.33 80 45 80Z"></path></g></g></g><g id="g-root-1.Vector_sy_144vvud3djlzg-fill" data-item-order="999792074" data-item-id="1.Vector_sy_144vvud3djlzg" data-item-class="Part Indexed Indexed_1 Fill Stroke" data-item-index="1" data-renderer-id="0" transform="translate(207, 135)"><g id="1.Vector_sy_144vvud3djlzg-fill" stroke="none" fill="#ffe7e6"><g><path d="M 45 80C 25.67 80 10 64.33 10 45C 10 25.67 25.67 10 45 10C 64.33 10 80 25.67 80 45C 80 64.33 64.33 80 45 80Z"></path></g></g></g><g id="g-root--1.line_sy_1hgce7p3djkee-fill" data-item-order="999792077" data-item-id="-1.line_sy_1hgce7p3djkee" data-item-class="Curve Stroke Part ColorStrokeGray" data-item-index="-1" data-renderer-id="0" transform="translate(122, 326)"></g><g id="g-root--1.line_sy_1hgce7p3djkee-fill" data-item-order="999792077" data-item-id="-1.line_sy_1hgce7p3djkee" data-item-class="Curve Stroke Part ColorStrokeGray" data-item-index="-1" data-renderer-id="0" transform="translate(122, 326)"></g><g id="g-root--1.head_sy_18kpdyt3djl73-fill" data-item-order="999792079" data-item-id="-1.head_sy_18kpdyt3djl73" data-item-class="Curve Stroke Part ColorStrokeGray" data-item-index="-1" data-renderer-id="0" transform="translate(122, 319.5)"></g><g id="g-root--1.head_sy_18kpdyt3djl73-fill" data-item-order="999792079" data-item-id="-1.head_sy_18kpdyt3djl73" data-item-class="Curve Stroke Part ColorStrokeGray" data-item-index="-1" data-renderer-id="0" transform="translate(122, 319.5)"></g><g id="g-root--1.head_1_sy_1d0iw393djl6o-fill" data-item-order="999792081" data-item-id="-1.head_1_sy_1d0iw393djl6o" data-item-class="Curve Stroke Part ColorStrokeGray" data-item-index="-1" data-renderer-id="0" transform="translate(571.5, 319.5)"></g><g id="g-root--1.head_1_sy_1d0iw393djl6o-fill" data-item-order="999792081" data-item-id="-1.head_1_sy_1d0iw393djl6o" data-item-class="Curve Stroke Part ColorStrokeGray" data-item-index="-1" data-renderer-id="0" transform="translate(571.5, 319.5)"></g><g id="g-root--1.line_1_sy_1d0iw393djl6p-fill" data-item-order="999792083" data-item-id="-1.line_1_sy_1d0iw393djl6p" data-item-class="Curve Stroke Part ColorStrokeGray" data-item-index="-1" data-renderer-id="0" transform="translate(350, 98)"></g><g id="g-root--1.line_1_sy_1d0iw393djl6p-fill" data-item-order="999792083" data-item-id="-1.line_1_sy_1d0iw393djl6p" data-item-class="Curve Stroke Part ColorStrokeGray" data-item-index="-1" data-renderer-id="0" transform="translate(350, 98)"></g><g id="g-root--1.head_2_sy_1d0iw393djl6q-fill" data-item-order="999792085" data-item-id="-1.head_2_sy_1d0iw393djl6q" data-item-class="Curve Stroke Part ColorStrokeGray" data-item-index="-1" data-renderer-id="0" transform="translate(343.5, 547.5)"></g><g id="g-root--1.head_2_sy_1d0iw393djl6q-fill" data-item-order="999792085" data-item-id="-1.head_2_sy_1d0iw393djl6q" data-item-class="Curve Stroke Part ColorStrokeGray" data-item-index="-1" data-renderer-id="0" transform="translate(343.5, 547.5)"></g><g id="g-root--1.head_3_sy_1d0iw393djl6r-fill" data-item-order="999792087" data-item-id="-1.head_3_sy_1d0iw393djl6r" data-item-class="Curve Stroke Part ColorStrokeGray" data-item-index="-1" data-renderer-id="0" transform="translate(343.5, 98)"></g><g id="g-root--1.head_3_sy_1d0iw393djl6r-fill" data-item-order="999792087" data-item-id="-1.head_3_sy_1d0iw393djl6r" data-item-class="Curve Stroke Part ColorStrokeGray" data-item-index="-1" data-renderer-id="0" transform="translate(343.5, 98)"></g><g id="g-root-tx_inconvni_1ur6fhx3djlz6-fill" data-item-order="1000000000" data-item-id="tx_inconvni_1ur6fhx3djlz6" data-item-class="Label Stroke ColorFillGray ColorStrokeGray" data-item-index="none" data-renderer-id="0" transform="translate(2, 314)"><g id="tx_inconvni_1ur6fhx3djlz6-fill" stroke="none" fill="#888888"><g><text style="font: 15px Roboto, sans-serif; white-space: pre;" font-weight="15px" font-size="Roboto," font-family="sans-serif"><tspan x="23.06" y="30.33" dominant-baseline="ideographic">Inconvénients</tspan></text></g></g></g><g id="g-root-tx_inconvni_1ur6fhx3djlz6-fill" data-item-order="1000000000" data-item-id="tx_inconvni_1ur6fhx3djlz6" data-item-class="Label Stroke ColorFillGray ColorStrokeGray" data-item-index="none" data-renderer-id="0" transform="translate(2, 314)"><g id="tx_inconvni_1ur6fhx3djlz6-fill" stroke="none" fill="#888888"><g><text style="font: 15px Roboto, sans-serif; white-space: pre;" font-weight="15px" font-size="Roboto," font-family="sans-serif"><tspan x="23.06" y="30.33" dominant-baseline="ideographic">Inconvénients</tspan></text></g></g></g><g id="g-root-tx_codemodu_dhce0l3djjt3-fill" data-item-order="1000000000" data-item-id="tx_codemodu_dhce0l3djjt3" data-item-class="Label Stroke Indexed" data-item-index="2" data-renderer-id="0" transform="translate(368, 218)"><g id="tx_codemodu_dhce0l3djjt3-fill" stroke="none" fill="#484848"><g><text style="font: 20px Roboto, sans-serif; white-space: pre;" font-weight="20px" font-size="Roboto," font-family="sans-serif"><tspan x="17.41" y="34" dominant-baseline="ideographic">Code modulaire et </tspan><tspan x="51.45" y="58" dominant-baseline="ideographic">facilement </tspan><tspan x="51.74" y="82" dominant-baseline="ideographic">modifiable</tspan></text></g></g></g><g id="g-root-tx_codemodu_dhce0l3djjt3-fill" data-item-order="1000000000" data-item-id="tx_codemodu_dhce0l3djjt3" data-item-class="Label Stroke Indexed" data-item-index="2" data-renderer-id="0" transform="translate(368, 218)"><g id="tx_codemodu_dhce0l3djjt3-fill" stroke="none" fill="#484848"><g><text style="font: 20px Roboto, sans-serif; white-space: pre;" font-weight="20px" font-size="Roboto," font-family="sans-serif"><tspan x="17.41" y="34" dominant-baseline="ideographic">Code modulaire et </tspan><tspan x="51.45" y="58" dominant-baseline="ideographic">facilement </tspan><tspan x="51.74" y="82" dominant-baseline="ideographic">modifiable</tspan></text></g></g></g><g id="g-root-tx_structur_91ivw53djklc-fill" data-item-order="1000000000" data-item-id="tx_structur_91ivw53djklc" data-item-class="Label Stroke Indexed Indexed_1" data-item-index="1" data-renderer-id="0" transform="translate(182, 218)"><g id="tx_structur_91ivw53djklc-fill" stroke="none" fill="#484848"><g><text style="font: 20px Roboto, sans-serif; white-space: pre;" font-weight="20px" font-size="Roboto," font-family="sans-serif"><tspan x="13.41" y="34" dominant-baseline="ideographic">Structure de </tspan><tspan x="20.78" y="58" dominant-baseline="ideographic">projet plus </tspan><tspan x="24.32" y="82" dominant-baseline="ideographic">complexe</tspan></text></g></g></g><g id="g-root-tx_structur_91ivw53djklc-fill" data-item-order="1000000000" data-item-id="tx_structur_91ivw53djklc" data-item-class="Label Stroke Indexed Indexed_1" data-item-index="1" data-renderer-id="0" transform="translate(182, 218)"><g id="tx_structur_91ivw53djklc-fill" stroke="none" fill="#484848"><g><text style="font: 20px Roboto, sans-serif; white-space: pre;" font-weight="20px" font-size="Roboto," font-family="sans-serif"><tspan x="13.41" y="34" dominant-baseline="ideographic">Structure de </tspan><tspan x="20.78" y="58" dominant-baseline="ideographic">projet plus </tspan><tspan x="24.32" y="82" dominant-baseline="ideographic">complexe</tspan></text></g></g></g><g id="g-root-1_143n0tx3d5hc0-fill" data-item-order="1000000000" data-item-id="1_143n0tx3d5hc0" data-item-class="Icon Stroke Indexed InsideFill InsideColorFill" data-item-index="2" data-renderer-id="0" transform="translate(434, 146)"></g><g id="g-root-1_143n0tx3d5hc0-fill" data-item-order="1000000000" data-item-id="1_143n0tx3d5hc0" data-item-class="Icon Stroke Indexed InsideFill InsideColorFill" data-item-index="2" data-renderer-id="0" transform="translate(434, 146)"></g><g id="g-root-tx_avantage_1lw5wc53djjm4-fill" data-item-order="1000000000" data-item-id="tx_avantage_1lw5wc53djjm4" data-item-class="Label Stroke ColorFillGray ColorStrokeGray" data-item-index="none" data-renderer-id="0" transform="translate(590, 314)"><g id="tx_avantage_1lw5wc53djjm4-fill" stroke="none" fill="#888888"><g><text style="font: 15px Roboto, sans-serif; white-space: pre;" font-weight="15px" font-size="Roboto," font-family="sans-serif"><tspan x="12" y="30.33" dominant-baseline="ideographic">Avantages</tspan></text></g></g></g><g id="g-root-tx_avantage_1lw5wc53djjm4-fill" data-item-order="1000000000" data-item-id="tx_avantage_1lw5wc53djjm4" data-item-class="Label Stroke ColorFillGray ColorStrokeGray" data-item-index="none" data-renderer-id="0" transform="translate(590, 314)"><g id="tx_avantage_1lw5wc53djjm4-fill" stroke="none" fill="#888888"><g><text style="font: 15px Roboto, sans-serif; white-space: pre;" font-weight="15px" font-size="Roboto," font-family="sans-serif"><tspan x="12" y="30.33" dominant-baseline="ideographic">Avantages</tspan></text></g></g></g><g id="g-root-6_13yn4z93dp5vm-fill" data-item-order="1000000000" data-item-id="6_13yn4z93dp5vm" data-item-class="Icon Stroke Indexed Indexed_1 InsideFill InsideColorFill" data-item-index="1" data-renderer-id="0" transform="translate(218, 146)"></g><g id="g-root-6_13yn4z93dp5vm-fill" data-item-order="1000000000" data-item-id="6_13yn4z93dp5vm" data-item-class="Icon Stroke Indexed Indexed_1 InsideFill InsideColorFill" data-item-index="1" data-renderer-id="0" transform="translate(218, 146)"></g><g id="g-root-1_18ntred3dntop-fill" data-item-order="1000000000" data-item-id="1_18ntred3dntop" data-item-class="Icon Stroke Indexed InsideFill InsideColorFill" data-item-index="3" data-renderer-id="0" transform="translate(218, 362)"></g><g id="g-root-1_18ntred3dntop-fill" data-item-order="1000000000" data-item-id="1_18ntred3dntop" data-item-class="Icon Stroke Indexed InsideFill InsideColorFill" data-item-index="3" data-renderer-id="0" transform="translate(218, 362)"></g><g id="g-root-tx_maintena_1hgce7p3djked-fill" data-item-order="1000000000" data-item-id="tx_maintena_1hgce7p3djked" data-item-class="Label Stroke ColorFillGray ColorStrokeGray" data-item-index="none" data-renderer-id="0" transform="translate(296, 62)"><g id="tx_maintena_1hgce7p3djked-fill" stroke="none" fill="#888888"><g><text style="font: 15px Roboto, sans-serif; white-space: pre;" font-weight="15px" font-size="Roboto," font-family="sans-serif"><tspan x="16.68" y="30.33" dominant-baseline="ideographic">Maintenabilité</tspan></text></g></g></g><g id="g-root-clou_1d3ncol3d5j47-fill" data-item-order="1000000000" data-item-id="clou_1d3ncol3d5j47" data-item-class="Icon Stroke Indexed InsideFill InsideColorFill" data-item-index="4" data-renderer-id="0" transform="translate(434, 362)"></g><g id="g-root-tx_scalabil_1ur6fhx3djlz7-fill" data-item-order="1000000000" data-item-id="tx_scalabil_1ur6fhx3djlz7" data-item-class="Label Stroke ColorFillGray ColorStrokeGray" data-item-index="none" data-renderer-id="0" transform="translate(308.08349609375, 566)"><g id="tx_scalabil_1ur6fhx3djlz7-fill" stroke="none" fill="#888888"><g><text style="font: 15px Roboto, sans-serif; white-space: pre;" font-weight="15px" font-size="Roboto," font-family="sans-serif"><tspan x="17.55" y="30.33" dominant-baseline="ideographic">Scalabilité</tspan></text></g></g></g><g id="g-root-tx_overhead_hx5w513djj0u-fill" data-item-order="1000000000" data-item-id="tx_overhead_hx5w513djj0u" data-item-class="Label Stroke Indexed" data-item-index="3" data-renderer-id="0" transform="translate(176, 434)"><g id="tx_overhead_hx5w513djj0u-fill" stroke="none" fill="#484848"><g><text style="font: 20px Roboto, sans-serif; white-space: pre;" font-weight="20px" font-size="Roboto," font-family="sans-serif"><tspan x="18.66" y="34" dominant-baseline="ideographic">Overhead de </tspan><tspan x="17.11" y="58" dominant-baseline="ideographic">performance</tspan></text></g></g></g><g id="g-root-tx_overhead_hx5w513djj0u-fill" data-item-order="1000000000" data-item-id="tx_overhead_hx5w513djj0u" data-item-class="Label Stroke Indexed" data-item-index="3" data-renderer-id="0" transform="translate(176, 434)"><g id="tx_overhead_hx5w513djj0u-fill" stroke="none" fill="#484848"><g><text style="font: 20px Roboto, sans-serif; white-space: pre;" font-weight="20px" font-size="Roboto," font-family="sans-serif"><tspan x="18.66" y="34" dominant-baseline="ideographic">Overhead de </tspan><tspan x="17.11" y="58" dominant-baseline="ideographic">performance</tspan></text></g></g></g><g id="g-root-tx_architec_v7zxf93djklp-fill" data-item-order="1000000000" data-item-id="tx_architec_v7zxf93djklp" data-item-class="Label Stroke Indexed" data-item-index="4" data-renderer-id="0" transform="translate(386, 434)"><g id="tx_architec_v7zxf93djklp-fill" stroke="none" fill="#484848"><g><text style="font: 20px Roboto, sans-serif; white-space: pre;" font-weight="20px" font-size="Roboto," font-family="sans-serif"><tspan x="11.95" y="34" dominant-baseline="ideographic">Architecture de </tspan><tspan x="31.07" y="58" dominant-baseline="ideographic">croissance </tspan><tspan x="35.03" y="82" dominant-baseline="ideographic">organique</tspan></text></g></g></g><g id="g-root-tx_architec_v7zxf93djklp-fill" data-item-order="1000000000" data-item-id="tx_architec_v7zxf93djklp" data-item-class="Label Stroke Indexed" data-item-index="4" data-renderer-id="0" transform="translate(386, 434)"><g id="tx_architec_v7zxf93djklp-fill" stroke="none" fill="#484848"><g><text style="font: 20px Roboto, sans-serif; white-space: pre;" font-weight="20px" font-size="Roboto," font-family="sans-serif"><tspan x="11.95" y="34" dominant-baseline="ideographic">Architecture de </tspan><tspan x="31.07" y="58" dominant-baseline="ideographic">croissance </tspan><tspan x="35.03" y="82" dominant-baseline="ideographic">organique</tspan></text></g></g></g><g id="g-root-tx_maintena_1hgce7p3djked-fill" data-item-order="1000000000" data-item-id="tx_maintena_1hgce7p3djked" data-item-class="Label Stroke ColorFillGray ColorStrokeGray" data-item-index="none" data-renderer-id="0" transform="translate(296, 62)"><g id="tx_maintena_1hgce7p3djked-fill" stroke="none" fill="#888888"><g><text style="font: 15px Roboto, sans-serif; white-space: pre;" font-weight="15px" font-size="Roboto," font-family="sans-serif"><tspan x="16.68" y="30.33" dominant-baseline="ideographic">Maintenabilité</tspan></text></g></g></g><g id="g-root-tx_tradeoff_5vvn93djle1-fill" data-item-order="1000000000" data-item-id="tx_tradeoff_5vvn93djle1" data-item-class="Label Stroke Title" data-item-index="none" data-renderer-id="0" transform="translate(194, 2)"><g id="tx_tradeoff_5vvn93djle1-fill" stroke="none" fill="#484848"><g><text style="font: 20px Roboto, sans-serif; white-space: pre;" font-weight="20px" font-size="Roboto," font-family="sans-serif"><tspan x="16.11" y="34" dominant-baseline="ideographic">Trade-offs de l'architecture propre</tspan></text></g></g></g><g id="g-root-tx_scalabil_1ur6fhx3djlz7-fill" data-item-order="1000000000" data-item-id="tx_scalabil_1ur6fhx3djlz7" data-item-class="Label Stroke ColorFillGray ColorStrokeGray" data-item-index="none" data-renderer-id="0" transform="translate(308.08349609375, 566)"><g id="tx_scalabil_1ur6fhx3djlz7-fill" stroke="none" fill="#888888"><g><text style="font: 15px Roboto, sans-serif; white-space: pre;" font-weight="15px" font-size="Roboto," font-family="sans-serif"><tspan x="17.55" y="30.33" dominant-baseline="ideographic">Scalabilité</tspan></text></g></g></g><g id="g-root-tx_tradeoff_5vvn93djle1-fill" data-item-order="1000000000" data-item-id="tx_tradeoff_5vvn93djle1" data-item-class="Label Stroke Title" data-item-index="none" data-renderer-id="0" transform="translate(194, 2)"><g id="tx_tradeoff_5vvn93djle1-fill" stroke="none" fill="#484848"><g><text style="font: 20px Roboto, sans-serif; white-space: pre;" font-weight="20px" font-size="Roboto," font-family="sans-serif"><tspan x="16.11" y="34" dominant-baseline="ideographic">Trade-offs de l'architecture propre</tspan></text></g></g></g><g id="g-root-clou_1d3ncol3d5j47-fill" data-item-order="1000000000" data-item-id="clou_1d3ncol3d5j47" data-item-class="Icon Stroke Indexed InsideFill InsideColorFill" data-item-index="4" data-renderer-id="0" transform="translate(434, 362)"></g><g id="g-root-4.Vector_sy_zpout13djjlz-stroke" data-item-order="999792068" data-item-id="4.Vector_sy_zpout13djjlz" data-item-class="Part Indexed Fill Stroke" data-item-index="4" data-renderer-id="0" transform="translate(423, 351)"><g id="4.Vector_sy_zpout13djjlz-stroke" fill="none" stroke-linecap="round" stroke-linejoin="round" stroke-miterlimit="4" stroke="#93c131" stroke-width="2"><g><path d="M 45 10L 45 10C 45 10 80 10 80 45L 80 45C 80 45 80 80 45 80L 45 80C 45 80 10 80 10 45L 10 45C 10 45 10 10 45 10"></path></g></g></g><g id="g-root-4.Vector_sy_zpout13djjlz-stroke" data-item-order="999792068" data-item-id="4.Vector_sy_zpout13djjlz" data-item-class="Part Indexed Fill Stroke" data-item-index="4" data-renderer-id="0" transform="translate(423, 351)"><g id="4.Vector_sy_zpout13djjlz-stroke" fill="none" stroke-linecap="round" stroke-linejoin="round" stroke-miterlimit="4" stroke="#93c131" stroke-width="2"><g><path d="M 45 10L 45 10C 45 10 80 10 80 45L 80 45C 80 45 80 80 45 80L 45 80C 45 80 10 80 10 45L 10 45C 10 45 10 10 45 10"></path></g></g></g><g id="g-root-3.Vector_sy_zpout13djjly-stroke" data-item-order="999792070" data-item-id="3.Vector_sy_zpout13djjly" data-item-class="Part Indexed Fill Stroke" data-item-index="3" data-renderer-id="0" transform="translate(207, 351)"><g id="3.Vector_sy_zpout13djjly-stroke" fill="none" stroke-linecap="round" stroke-linejoin="round" stroke-miterlimit="4" stroke="#dd8433" stroke-width="2"><g><path d="M 45 10L 45 10C 45 10 80 10 80 45L 80 45C 80 45 80 80 45 80L 45 80C 45 80 10 80 10 45L 10 45C 10 45 10 10 45 10"></path></g></g></g><g id="g-root-3.Vector_sy_zpout13djjly-stroke" data-item-order="999792070" data-item-id="3.Vector_sy_zpout13djjly" data-item-class="Part Indexed Fill Stroke" data-item-index="3" data-renderer-id="0" transform="translate(207, 351)"><g id="3.Vector_sy_zpout13djjly-stroke" fill="none" stroke-linecap="round" stroke-linejoin="round" stroke-miterlimit="4" stroke="#dd8433" stroke-width="2"><g><path d="M 45 10L 45 10C 45 10 80 10 80 45L 80 45C 80 45 80 80 45 80L 45 80C 45 80 10 80 10 45L 10 45C 10 45 10 10 45 10"></path></g></g></g><g id="g-root-2.Vector_sy_144vvud3djlzh-stroke" data-item-order="999792072" data-item-id="2.Vector_sy_144vvud3djlzh" data-item-class="Part Indexed Fill Stroke" data-item-index="2" data-renderer-id="0" transform="translate(423, 135)"><g id="2.Vector_sy_144vvud3djlzh-stroke" fill="none" stroke-linecap="round" stroke-linejoin="round" stroke-miterlimit="4" stroke="#3bc482" stroke-width="2"><g><path d="M 45 10L 45 10C 45 10 80 10 80 45L 80 45C 80 45 80 80 45 80L 45 80C 45 80 10 80 10 45L 10 45C 10 45 10 10 45 10"></path></g></g></g><g id="g-root-2.Vector_sy_144vvud3djlzh-stroke" data-item-order="999792072" data-item-id="2.Vector_sy_144vvud3djlzh" data-item-class="Part Indexed Fill Stroke" data-item-index="2" data-renderer-id="0" transform="translate(423, 135)"><g id="2.Vector_sy_144vvud3djlzh-stroke" fill="none" stroke-linecap="round" stroke-linejoin="round" stroke-miterlimit="4" stroke="#3bc482" stroke-width="2"><g><path d="M 45 10L 45 10C 45 10 80 10 80 45L 80 45C 80 45 80 80 45 80L 45 80C 45 80 10 80 10 45L 10 45C 10 45 10 10 45 10"></path></g></g></g><g id="g-root-1.Vector_sy_144vvud3djlzg-stroke" data-item-order="999792074" data-item-id="1.Vector_sy_144vvud3djlzg" data-item-class="Part Indexed Indexed_1 Fill Stroke" data-item-index="1" data-renderer-id="0" transform="translate(207, 135)"><g id="1.Vector_sy_144vvud3djlzg-stroke" fill="none" stroke-linecap="round" stroke-linejoin="round" stroke-miterlimit="4" stroke="#e15e5a" stroke-width="2"><g><path d="M 45 80C 25.67 80 10 64.33 10 45C 10 25.67 25.67 10 45 10C 64.33 10 80 25.67 80 45C 80 64.33 64.33 80 45 80Z"></path></g></g></g><g id="g-root-1.Vector_sy_144vvud3djlzg-stroke" data-item-order="999792074" data-item-id="1.Vector_sy_144vvud3djlzg" data-item-class="Part Indexed Indexed_1 Fill Stroke" data-item-index="1" data-renderer-id="0" transform="translate(207, 135)"><g id="1.Vector_sy_144vvud3djlzg-stroke" fill="none" stroke-linecap="round" stroke-linejoin="round" stroke-miterlimit="4" stroke="#e15e5a" stroke-width="2"><g><path d="M 45 80C 25.67 80 10 64.33 10 45C 10 25.67 25.67 10 45 10C 64.33 10 80 25.67 80 45C 80 64.33 64.33 80 45 80Z"></path></g></g></g><g id="g-root--1.line_sy_1hgce7p3djkee-stroke" data-item-order="999792077" data-item-id="-1.line_sy_1hgce7p3djkee" data-item-class="Curve Stroke Part ColorStrokeGray" data-item-index="-1" data-renderer-id="0" transform="translate(122, 326)"><g id="-1.line_sy_1hgce7p3djkee-stroke" fill="none" stroke-linecap="round" stroke-linejoin="round" stroke-miterlimit="4" stroke="#888888" stroke-width="2"><g><path d="M 10 10L 238 10L 466 10"></path></g></g></g><g id="g-root--1.line_sy_1hgce7p3djkee-stroke" data-item-order="999792077" data-item-id="-1.line_sy_1hgce7p3djkee" data-item-class="Curve Stroke Part ColorStrokeGray" data-item-index="-1" data-renderer-id="0" transform="translate(122, 326)"><g id="-1.line_sy_1hgce7p3djkee-stroke" fill="none" stroke-linecap="round" stroke-linejoin="round" stroke-miterlimit="4" stroke="#888888" stroke-width="2"><g><path d="M 10 10L 238 10L 466 10"></path></g></g></g><g id="g-root--1.head_sy_18kpdyt3djl73-stroke" data-item-order="999792079" data-item-id="-1.head_sy_18kpdyt3djl73" data-item-class="Curve Stroke Part ColorStrokeGray" data-item-index="-1" data-renderer-id="0" transform="translate(122, 319.5)"><g id="-1.head_sy_18kpdyt3djl73-stroke" fill="none" stroke-linecap="round" stroke-linejoin="round" stroke-miterlimit="4" stroke="#888888" stroke-width="2"><g><path d="M 16.5 10C 14.333 12.167 10 16.5 10 16.5L 16.5 23"></path></g></g></g><g id="g-root--1.head_sy_18kpdyt3djl73-stroke" data-item-order="999792079" data-item-id="-1.head_sy_18kpdyt3djl73" data-item-class="Curve Stroke Part ColorStrokeGray" data-item-index="-1" data-renderer-id="0" transform="translate(122, 319.5)"><g id="-1.head_sy_18kpdyt3djl73-stroke" fill="none" stroke-linecap="round" stroke-linejoin="round" stroke-miterlimit="4" stroke="#888888" stroke-width="2"><g><path d="M 16.5 10C 14.333 12.167 10 16.5 10 16.5L 16.5 23"></path></g></g></g><g id="g-root--1.head_1_sy_1d0iw393djl6o-stroke" data-item-order="999792081" data-item-id="-1.head_1_sy_1d0iw393djl6o" data-item-class="Curve Stroke Part ColorStrokeGray" data-item-index="-1" data-renderer-id="0" transform="translate(571.5, 319.5)"><g id="-1.head_1_sy_1d0iw393djl6o-stroke" fill="none" stroke-linecap="round" stroke-linejoin="round" stroke-miterlimit="4" stroke="#888888" stroke-width="2"><g><path d="M 10 10C 12.166 12.167 16.5 16.5 16.5 16.5L 10 23"></path></g></g></g><g id="g-root--1.head_1_sy_1d0iw393djl6o-stroke" data-item-order="999792081" data-item-id="-1.head_1_sy_1d0iw393djl6o" data-item-class="Curve Stroke Part ColorStrokeGray" data-item-index="-1" data-renderer-id="0" transform="translate(571.5, 319.5)"><g id="-1.head_1_sy_1d0iw393djl6o-stroke" fill="none" stroke-linecap="round" stroke-linejoin="round" stroke-miterlimit="4" stroke="#888888" stroke-width="2"><g><path d="M 10 10C 12.166 12.167 16.5 16.5 16.5 16.5L 10 23"></path></g></g></g><g id="g-root--1.line_1_sy_1d0iw393djl6p-stroke" data-item-order="999792083" data-item-id="-1.line_1_sy_1d0iw393djl6p" data-item-class="Curve Stroke Part ColorStrokeGray" data-item-index="-1" data-renderer-id="0" transform="translate(350, 98)"><g id="-1.line_1_sy_1d0iw393djl6p-stroke" fill="none" stroke-linecap="round" stroke-linejoin="round" stroke-miterlimit="4" stroke="#888888" stroke-width="2"><g><path d="M 10 466L 10 242L 10 10"></path></g></g></g><g id="g-root--1.line_1_sy_1d0iw393djl6p-stroke" data-item-order="999792083" data-item-id="-1.line_1_sy_1d0iw393djl6p" data-item-class="Curve Stroke Part ColorStrokeGray" data-item-index="-1" data-renderer-id="0" transform="translate(350, 98)"><g id="-1.line_1_sy_1d0iw393djl6p-stroke" fill="none" stroke-linecap="round" stroke-linejoin="round" stroke-miterlimit="4" stroke="#888888" stroke-width="2"><g><path d="M 10 466L 10 242L 10 10"></path></g></g></g><g id="g-root--1.head_2_sy_1d0iw393djl6q-stroke" data-item-order="999792085" data-item-id="-1.head_2_sy_1d0iw393djl6q" data-item-class="Curve Stroke Part ColorStrokeGray" data-item-index="-1" data-renderer-id="0" transform="translate(343.5, 547.5)"><g id="-1.head_2_sy_1d0iw393djl6q-stroke" fill="none" stroke-linecap="round" stroke-linejoin="round" stroke-miterlimit="4" stroke="#888888" stroke-width="2"><g><path d="M 10 10C 12.167 12.167 16.5 16.5 16.5 16.5L 23 10"></path></g></g></g><g id="g-root--1.head_2_sy_1d0iw393djl6q-stroke" data-item-order="999792085" data-item-id="-1.head_2_sy_1d0iw393djl6q" data-item-class="Curve Stroke Part ColorStrokeGray" data-item-index="-1" data-renderer-id="0" transform="translate(343.5, 547.5)"><g id="-1.head_2_sy_1d0iw393djl6q-stroke" fill="none" stroke-linecap="round" stroke-linejoin="round" stroke-miterlimit="4" stroke="#888888" stroke-width="2"><g><path d="M 10 10C 12.167 12.167 16.5 16.5 16.5 16.5L 23 10"></path></g></g></g><g id="g-root--1.head_3_sy_1d0iw393djl6r-stroke" data-item-order="999792087" data-item-id="-1.head_3_sy_1d0iw393djl6r" data-item-class="Curve Stroke Part ColorStrokeGray" data-item-index="-1" data-renderer-id="0" transform="translate(343.5, 98)"><g id="-1.head_3_sy_1d0iw393djl6r-stroke" fill="none" stroke-linecap="round" stroke-linejoin="round" stroke-miterlimit="4" stroke="#888888" stroke-width="2"><g><path d="M 10 16.5C 12.167 14.333 16.5 10 16.5 10L 23 16.5"></path></g></g></g><g id="g-root--1.head_3_sy_1d0iw393djl6r-stroke" data-item-order="999792087" data-item-id="-1.head_3_sy_1d0iw393djl6r" data-item-class="Curve Stroke Part ColorStrokeGray" data-item-index="-1" data-renderer-id="0" transform="translate(343.5, 98)"><g id="-1.head_3_sy_1d0iw393djl6r-stroke" fill="none" stroke-linecap="round" stroke-linejoin="round" stroke-miterlimit="4" stroke="#888888" stroke-width="2"><g><path d="M 10 16.5C 12.167 14.333 16.5 10 16.5 10L 23 16.5"></path></g></g></g><g id="g-root-tx_inconvni_1ur6fhx3djlz6-stroke" data-item-order="1000000000" data-item-id="tx_inconvni_1ur6fhx3djlz6" data-item-class="Label Stroke ColorFillGray ColorStrokeGray" data-item-index="none" data-renderer-id="0" transform="translate(2, 314)"></g><g id="g-root-tx_inconvni_1ur6fhx3djlz6-stroke" data-item-order="1000000000" data-item-id="tx_inconvni_1ur6fhx3djlz6" data-item-class="Label Stroke ColorFillGray ColorStrokeGray" data-item-index="none" data-renderer-id="0" transform="translate(2, 314)"></g><g id="g-root-tx_codemodu_dhce0l3djjt3-stroke" data-item-order="1000000000" data-item-id="tx_codemodu_dhce0l3djjt3" data-item-class="Label Stroke Indexed" data-item-index="2" data-renderer-id="0" transform="translate(368, 218)"></g><g id="g-root-tx_codemodu_dhce0l3djjt3-stroke" data-item-order="1000000000" data-item-id="tx_codemodu_dhce0l3djjt3" data-item-class="Label Stroke Indexed" data-item-index="2" data-renderer-id="0" transform="translate(368, 218)"></g><g id="g-root-tx_structur_91ivw53djklc-stroke" data-item-order="1000000000" data-item-id="tx_structur_91ivw53djklc" data-item-class="Label Stroke Indexed Indexed_1" data-item-index="1" data-renderer-id="0" transform="translate(182, 218)"></g><g id="g-root-tx_structur_91ivw53djklc-stroke" data-item-order="1000000000" data-item-id="tx_structur_91ivw53djklc" data-item-class="Label Stroke Indexed Indexed_1" data-item-index="1" data-renderer-id="0" transform="translate(182, 218)"></g><g id="g-root-1_143n0tx3d5hc0-stroke" data-item-order="1000000000" data-item-id="1_143n0tx3d5hc0" data-item-class="Icon Stroke Indexed InsideFill InsideColorFill" data-item-index="2" data-renderer-id="0" transform="translate(434, 146)"><g id="1_143n0tx3d5hc0-stroke" fill="none" stroke-linecap="round" stroke-linejoin="round" stroke-miterlimit="4" stroke="#3bc482" stroke-width="2"><g><path d="M 24.022858 14.08C 25.258335 15.286715 25.992985 16.915182 26.08 18.639999L 32.354286 12.4C 32.790134 11.91136 33.413795 11.631939 34.068573 11.631939C 34.723347 11.631939 35.347008 11.91136 35.782856 12.4L 40.857143 17.68C 40.13644 18.029476 39.476597 18.492525 38.902859 19.05143C 36.366226 21.841013 36.468044 26.131165 39.134155 28.797272C 41.800262 31.463381 46.090416 31.565199 48.879997 29.02857C 49.438904 28.454834 49.901951 27.794989 50.251427 27.074286L 55.600002 32.354286C 56.088642 32.790134 56.368061 33.413795 56.368061 34.068573C 56.368061 34.723347 56.088642 35.347008 55.600002 35.782856L 49.360001 41.920002C 53.124832 42.147659 56.03883 45.306301 55.962902 49.077248C 55.886978 52.84819 52.84819 55.886978 49.077248 55.962902C 45.306301 56.03883 42.147659 53.124832 41.920002 49.360001L 35.645714 55.600002C 35.209866 56.088642 34.586205 56.368061 33.931427 56.368061C 33.276653 56.368061 32.652992 56.088642 32.217144 55.600002L 27.142857 50.32C 27.86356 49.970524 28.523405 49.507477 29.097143 48.948574C 31.852257 46.174526 31.836906 41.692257 29.062859 38.937145C 26.288811 36.182034 21.806541 36.197384 19.05143 38.971432C 18.492525 39.545166 18.029476 40.205009 17.68 40.925716L 12.4 35.645714C 11.91136 35.209866 11.631939 34.586205 11.631939 33.931427C 11.631939 33.276653 11.91136 32.652992 12.4 32.217144L 18.639999 26.08C 16.915182 25.992985 15.286715 25.258335 14.08 24.022858C 11.335168 21.277073 11.335553 16.826168 14.080861 14.080861C 16.826168 11.335553 21.277073 11.335168 24.022856 14.08Z"></path></g></g></g><g id="g-root-1_143n0tx3d5hc0-stroke" data-item-order="1000000000" data-item-id="1_143n0tx3d5hc0" data-item-class="Icon Stroke Indexed InsideFill InsideColorFill" data-item-index="2" data-renderer-id="0" transform="translate(434, 146)"><g id="1_143n0tx3d5hc0-stroke" fill="none" stroke-linecap="round" stroke-linejoin="round" stroke-miterlimit="4" stroke="#3bc482" stroke-width="2"><g><path d="M 24.022858 14.08C 25.258335 15.286715 25.992985 16.915182 26.08 18.639999L 32.354286 12.4C 32.790134 11.91136 33.413795 11.631939 34.068573 11.631939C 34.723347 11.631939 35.347008 11.91136 35.782856 12.4L 40.857143 17.68C 40.13644 18.029476 39.476597 18.492525 38.902859 19.05143C 36.366226 21.841013 36.468044 26.131165 39.134155 28.797272C 41.800262 31.463381 46.090416 31.565199 48.879997 29.02857C 49.438904 28.454834 49.901951 27.794989 50.251427 27.074286L 55.600002 32.354286C 56.088642 32.790134 56.368061 33.413795 56.368061 34.068573C 56.368061 34.723347 56.088642 35.347008 55.600002 35.782856L 49.360001 41.920002C 53.124832 42.147659 56.03883 45.306301 55.962902 49.077248C 55.886978 52.84819 52.84819 55.886978 49.077248 55.962902C 45.306301 56.03883 42.147659 53.124832 41.920002 49.360001L 35.645714 55.600002C 35.209866 56.088642 34.586205 56.368061 33.931427 56.368061C 33.276653 56.368061 32.652992 56.088642 32.217144 55.600002L 27.142857 50.32C 27.86356 49.970524 28.523405 49.507477 29.097143 48.948574C 31.852257 46.174526 31.836906 41.692257 29.062859 38.937145C 26.288811 36.182034 21.806541 36.197384 19.05143 38.971432C 18.492525 39.545166 18.029476 40.205009 17.68 40.925716L 12.4 35.645714C 11.91136 35.209866 11.631939 34.586205 11.631939 33.931427C 11.631939 33.276653 11.91136 32.652992 12.4 32.217144L 18.639999 26.08C 16.915182 25.992985 15.286715 25.258335 14.08 24.022858C 11.335168 21.277073 11.335553 16.826168 14.080861 14.080861C 16.826168 11.335553 21.277073 11.335168 24.022856 14.08Z"></path></g></g></g><g id="g-root-tx_avantage_1lw5wc53djjm4-stroke" data-item-order="1000000000" data-item-id="tx_avantage_1lw5wc53djjm4" data-item-class="Label Stroke ColorFillGray ColorStrokeGray" data-item-index="none" data-renderer-id="0" transform="translate(590, 314)"></g><g id="g-root-tx_avantage_1lw5wc53djjm4-stroke" data-item-order="1000000000" data-item-id="tx_avantage_1lw5wc53djjm4" data-item-class="Label Stroke ColorFillGray ColorStrokeGray" data-item-index="none" data-renderer-id="0" transform="translate(590, 314)"></g><g id="g-root-6_13yn4z93dp5vm-stroke" data-item-order="1000000000" data-item-id="6_13yn4z93dp5vm" data-item-class="Icon Stroke Indexed Indexed_1 InsideFill InsideColorFill" data-item-index="1" data-renderer-id="0" transform="translate(218, 146)"><g id="6_13yn4z93dp5vm-stroke" fill="none" stroke-linecap="round" stroke-linejoin="round" stroke-miterlimit="4" stroke="#e15e5a" stroke-width="2"><g><path d="M 16.857143 49.428574C 16.857143 53.215668 19.927191 56.285713 23.714287 56.285713C 27.501381 56.285713 30.571428 53.215668 30.571428 49.428574C 30.571428 45.641476 27.501381 42.57143 23.714287 42.57143C 19.927191 42.57143 16.857143 45.641476 16.857143 49.428574M 16.857143 18.571428C 16.857143 22.358524 19.927191 25.428572 23.714287 25.428572C 27.501381 25.428572 30.571428 22.358524 30.571428 18.571428C 30.571428 14.784333 27.501381 11.714286 23.714287 11.714286C 19.927191 11.714286 16.857143 14.784333 16.857143 18.571428M 37.428574 22C 37.428574 25.787096 40.498619 28.857143 44.285713 28.857143C 48.072811 28.857143 51.142857 25.787096 51.142857 22C 51.142857 18.212904 48.072811 15.142858 44.285713 15.142858C 40.498619 15.142858 37.428574 18.212904 37.428574 22M 23.714287 42.57143L 23.714287 25.428572M 44.285713 28.857143L 44.285713 30.571428C 44.285713 34.358524 41.215668 37.428574 37.428574 37.428574L 28.857143 37.428574C 26.016823 37.428574 23.714287 39.731106 23.714287 42.57143"></path></g></g></g><g id="g-root-6_13yn4z93dp5vm-stroke" data-item-order="1000000000" data-item-id="6_13yn4z93dp5vm" data-item-class="Icon Stroke Indexed Indexed_1 InsideFill InsideColorFill" data-item-index="1" data-renderer-id="0" transform="translate(218, 146)"><g id="6_13yn4z93dp5vm-stroke" fill="none" stroke-linecap="round" stroke-linejoin="round" stroke-miterlimit="4" stroke="#e15e5a" stroke-width="2"><g><path d="M 16.857143 49.428574C 16.857143 53.215668 19.927191 56.285713 23.714287 56.285713C 27.501381 56.285713 30.571428 53.215668 30.571428 49.428574C 30.571428 45.641476 27.501381 42.57143 23.714287 42.57143C 19.927191 42.57143 16.857143 45.641476 16.857143 49.428574M 16.857143 18.571428C 16.857143 22.358524 19.927191 25.428572 23.714287 25.428572C 27.501381 25.428572 30.571428 22.358524 30.571428 18.571428C 30.571428 14.784333 27.501381 11.714286 23.714287 11.714286C 19.927191 11.714286 16.857143 14.784333 16.857143 18.571428M 37.428574 22C 37.428574 25.787096 40.498619 28.857143 44.285713 28.857143C 48.072811 28.857143 51.142857 25.787096 51.142857 22C 51.142857 18.212904 48.072811 15.142858 44.285713 15.142858C 40.498619 15.142858 37.428574 18.212904 37.428574 22M 23.714287 42.57143L 23.714287 25.428572M 44.285713 28.857143L 44.285713 30.571428C 44.285713 34.358524 41.215668 37.428574 37.428574 37.428574L 28.857143 37.428574C 26.016823 37.428574 23.714287 39.731106 23.714287 42.57143"></path></g></g></g><g id="g-root-1_18ntred3dntop-stroke" data-item-order="1000000000" data-item-id="1_18ntred3dntop" data-item-class="Icon Stroke Indexed InsideFill InsideColorFill" data-item-index="3" data-renderer-id="0" transform="translate(218, 362)"><g id="1_18ntred3dntop-stroke" fill="none" stroke-linecap="round" stroke-linejoin="round" stroke-miterlimit="4" stroke="#dd8433" stroke-width="2"><g><path d="M 11.008 56L 57.007999 56M 19 56L 19 47C 19 46.447716 18.552284 46 18 46L 14 46C 13.447716 46 13 46.447716 13 47L 13 56M 31 56L 31 37C 31 36.447716 30.552284 36 30 36L 26 36C 25.447716 36 25 36.447716 25 37L 25 56M 43 56L 43 41C 43 40.447716 42.552284 40 42 40L 38 40C 37.447716 40 37 40.447716 37 41L 37 56M 55 56L 55 27C 55 26.447716 54.552284 26 54 26L 50 26C 49.447716 26 49 26.447716 49 27L 49 56M 53 12L 41.760002 24.112C 40.692184 25.263384 39.049446 25.683456 37.559998 25.186001L 30.122 22.704C 28.80769 22.26585 27.360241 22.538998 26.296 23.425999L 16 32M 45.007999 12L 53.007999 12L 53.007999 20"></path></g></g></g><g id="g-root-1_18ntred3dntop-stroke" data-item-order="1000000000" data-item-id="1_18ntred3dntop" data-item-class="Icon Stroke Indexed InsideFill InsideColorFill" data-item-index="3" data-renderer-id="0" transform="translate(218, 362)"><g id="1_18ntred3dntop-stroke" fill="none" stroke-linecap="round" stroke-linejoin="round" stroke-miterlimit="4" stroke="#dd8433" stroke-width="2"><g><path d="M 11.008 56L 57.007999 56M 19 56L 19 47C 19 46.447716 18.552284 46 18 46L 14 46C 13.447716 46 13 46.447716 13 47L 13 56M 31 56L 31 37C 31 36.447716 30.552284 36 30 36L 26 36C 25.447716 36 25 36.447716 25 37L 25 56M 43 56L 43 41C 43 40.447716 42.552284 40 42 40L 38 40C 37.447716 40 37 40.447716 37 41L 37 56M 55 56L 55 27C 55 26.447716 54.552284 26 54 26L 50 26C 49.447716 26 49 26.447716 49 27L 49 56M 53 12L 41.760002 24.112C 40.692184 25.263384 39.049446 25.683456 37.559998 25.186001L 30.122 22.704C 28.80769 22.26585 27.360241 22.538998 26.296 23.425999L 16 32M 45.007999 12L 53.007999 12L 53.007999 20"></path></g></g></g><g id="g-root-tx_maintena_1hgce7p3djked-stroke" data-item-order="1000000000" data-item-id="tx_maintena_1hgce7p3djked" data-item-class="Label Stroke ColorFillGray ColorStrokeGray" data-item-index="none" data-renderer-id="0" transform="translate(296, 62)"></g><g id="g-root-clou_1d3ncol3d5j47-stroke" data-item-order="1000000000" data-item-id="clou_1d3ncol3d5j47" data-item-class="Icon Stroke Indexed InsideFill InsideColorFill" data-item-index="4" data-renderer-id="0" transform="translate(434, 362)"><g id="clou_1d3ncol3d5j47-stroke" fill="none" stroke-linecap="round" stroke-linejoin="round" stroke-miterlimit="4" stroke="#93c131" stroke-width="2"><g><path d="M 33 36.956001L 33 56.993999M 46.722 21.33C 45.624313 16.128834 41.470634 12.119959 36.233807 11.207444C 30.996977 10.29493 25.732182 12.662641 22.940001 17.186001C 18.427788 16.28772 13.884916 18.584038 11.93257 22.750008C 9.980223 26.915979 11.122248 31.876478 14.699711 34.769356C 18.277172 37.662231 23.366825 37.740913 27.032 34.959999C 31.902802 38.071789 38.246403 37.577164 42.576 33.748001C 44.989243 37.015709 49.468357 37.95607 52.991989 35.934769C 56.515625 33.913467 57.965023 29.572269 56.362499 25.839497C 54.759979 22.106724 50.614346 20.167538 46.722 21.33ZM 33 49.993999L 37.877998 45.116001M 37 42.993999C 37 44.650856 38.343147 45.993999 40 45.993999C 41.656853 45.993999 43 44.650856 43 42.993999C 43 41.337147 41.656853 39.994003 40 39.994003C 38.343147 39.994003 37 41.337147 37 42.993999Z"></path></g></g></g><g id="g-root-tx_scalabil_1ur6fhx3djlz7-stroke" data-item-order="1000000000" data-item-id="tx_scalabil_1ur6fhx3djlz7" data-item-class="Label Stroke ColorFillGray ColorStrokeGray" data-item-index="none" data-renderer-id="0" transform="translate(308.08349609375, 566)"></g><g id="g-root-tx_overhead_hx5w513djj0u-stroke" data-item-order="1000000000" data-item-id="tx_overhead_hx5w513djj0u" data-item-class="Label Stroke Indexed" data-item-index="3" data-renderer-id="0" transform="translate(176, 434)"></g><g id="g-root-tx_overhead_hx5w513djj0u-stroke" data-item-order="1000000000" data-item-id="tx_overhead_hx5w513djj0u" data-item-class="Label Stroke Indexed" data-item-index="3" data-renderer-id="0" transform="translate(176, 434)"></g><g id="g-root-tx_architec_v7zxf93djklp-stroke" data-item-order="1000000000" data-item-id="tx_architec_v7zxf93djklp" data-item-class="Label Stroke Indexed" data-item-index="4" data-renderer-id="0" transform="translate(386, 434)"></g><g id="g-root-tx_architec_v7zxf93djklp-stroke" data-item-order="1000000000" data-item-id="tx_architec_v7zxf93djklp" data-item-class="Label Stroke Indexed" data-item-index="4" data-renderer-id="0" transform="translate(386, 434)"></g><g id="g-root-tx_maintena_1hgce7p3djked-stroke" data-item-order="1000000000" data-item-id="tx_maintena_1hgce7p3djked" data-item-class="Label Stroke ColorFillGray ColorStrokeGray" data-item-index="none" data-renderer-id="0" transform="translate(296, 62)"></g><g id="g-root-tx_tradeoff_5vvn93djle1-stroke" data-item-order="1000000000" data-item-id="tx_tradeoff_5vvn93djle1" data-item-class="Label Stroke Title" data-item-index="none" data-renderer-id="0" transform="translate(194, 2)"></g><g id="g-root-tx_scalabil_1ur6fhx3djlz7-stroke" data-item-order="1000000000" data-item-id="tx_scalabil_1ur6fhx3djlz7" data-item-class="Label Stroke ColorFillGray ColorStrokeGray" data-item-index="none" data-renderer-id="0" transform="translate(308.08349609375, 566)"></g><g id="g-root-tx_tradeoff_5vvn93djle1-stroke" data-item-order="1000000000" data-item-id="tx_tradeoff_5vvn93djle1" data-item-class="Label Stroke Title" data-item-index="none" data-renderer-id="0" transform="translate(194, 2)"></g><g id="g-root-clou_1d3ncol3d5j47-stroke" data-item-order="1000000000" data-item-id="clou_1d3ncol3d5j47" data-item-class="Icon Stroke Indexed InsideFill InsideColorFill" data-item-index="4" data-renderer-id="0" transform="translate(434, 362)"><g id="clou_1d3ncol3d5j47-stroke" fill="none" stroke-linecap="round" stroke-linejoin="round" stroke-miterlimit="4" stroke="#93c131" stroke-width="2"><g><path d="M 33 36.956001L 33 56.993999M 46.722 21.33C 45.624313 16.128834 41.470634 12.119959 36.233807 11.207444C 30.996977 10.29493 25.732182 12.662641 22.940001 17.186001C 18.427788 16.28772 13.884916 18.584038 11.93257 22.750008C 9.980223 26.915979 11.122248 31.876478 14.699711 34.769356C 18.277172 37.662231 23.366825 37.740913 27.032 34.959999C 31.902802 38.071789 38.246403 37.577164 42.576 33.748001C 44.989243 37.015709 49.468357 37.95607 52.991989 35.934769C 56.515625 33.913467 57.965023 29.572269 56.362499 25.839497C 54.759979 22.106724 50.614346 20.167538 46.722 21.33ZM 33 49.993999L 37.877998 45.116001M 37 42.993999C 37 44.650856 38.343147 45.993999 40 45.993999C 41.656853 45.993999 43 44.650856 43 42.993999C 43 41.337147 41.656853 39.994003 40 39.994003C 38.343147 39.994003 37 41.337147 37 42.993999Z"></path></g></g></g></g></g></svg>