<?xml version="1.0" encoding="utf-8" standalone="yes"?>
<!DOCTYPE svg PUBLIC "-//W3C//DTD SVG 1.1//EN" "http://www.w3.org/Graphics/SVG/1.1/DTD/svg11.dtd">
<svg width="696" height="487" viewBox="0 0 696 487" style="fill:none;stroke:none;fill-rule:evenodd;clip-rule:evenodd;stroke-linecap:round;stroke-linejoin:round;stroke-miterlimit:1.5;" version="1.1" xmlns="http://www.w3.org/2000/svg" xmlns:xlink="http://www.w3.org/1999/xlink"><style id="fontImports">@import url("https://fonts.googleapis.com/css2?family=Roboto:wght@400;700&amp;display=block");</style><rect id="" x="0" y="0" width="696" height="487" style="fill: #ffffff;"></rect><g id="items" style="isolation: isolate"><g id="blend" style="mix-blend-mode:normal"><g id="g-root--1.cu_sy_i0a36t7j9a88-fill" data-item-order="999847940" data-item-id="-1.cu_sy_i0a36t7j9a88" data-item-class="Part Fill Stroke ColorFillGray ColorStrokeGray" data-item-index="-1" data-renderer-id="0" transform="translate(278, 74)"><g id="-1.cu_sy_i0a36t7j9a88-fill" stroke="none" fill="#f6f6f6"><g><path d="M 65.766602 394C 80.754802 394 106.000002 308.039 106.000002 202C 106.000002 95.9613 80.754802 10 65.766602 10C 80.775202 10.01 92.941702 96.2224 92.941702 202C 92.941702 307.778 80.775202 393.99 65.766602 394ZM 65.765897 394C 80.774597 393.99 92.941097 307.778 92.941097 202C 92.941097 96.2224 80.774597 10.01 65.765897 10L 51.957397 10C 66.060697 16.8878 77.199297 100.4719 77.199297 202C 77.199297 303.528 65.382597 387.112 51.279297 394L 65.765897 394ZM 77.2 202C 77.2 303.528 65.3833 387.112 51.28 394L 50.0615 394C 35.0734 394 10 308.039 10 202C 10 95.9613 35.0734 10 50.0615 10C 50.6991 10 51.9581 10 51.9581 10C 66.0614 16.8878 77.2 100.4719 77.2 202Z"></path></g></g></g><g id="g-root--1.cu_sy_i0a36t7j9a88-fill" data-item-order="999847940" data-item-id="-1.cu_sy_i0a36t7j9a88" data-item-class="Part Fill Stroke ColorFillGray ColorStrokeGray" data-item-index="-1" data-renderer-id="0" transform="translate(278, 74)"><g id="-1.cu_sy_i0a36t7j9a88-fill" stroke="none" fill="#f6f6f6"><g><path d="M 65.766602 394C 80.754802 394 106.000002 308.039 106.000002 202C 106.000002 95.9613 80.754802 10 65.766602 10C 80.775202 10.01 92.941702 96.2224 92.941702 202C 92.941702 307.778 80.775202 393.99 65.766602 394ZM 65.765897 394C 80.774597 393.99 92.941097 307.778 92.941097 202C 92.941097 96.2224 80.774597 10.01 65.765897 10L 51.957397 10C 66.060697 16.8878 77.199297 100.4719 77.199297 202C 77.199297 303.528 65.382597 387.112 51.279297 394L 65.765897 394ZM 77.2 202C 77.2 303.528 65.3833 387.112 51.28 394L 50.0615 394C 35.0734 394 10 308.039 10 202C 10 95.9613 35.0734 10 50.0615 10C 50.6991 10 51.9581 10 51.9581 10C 66.0614 16.8878 77.2 100.4719 77.2 202Z"></path></g></g></g><g id="g-root-0.cr-medium_cr_i0a36t7j9a89-fill" data-item-order="999847942" data-item-id="0.cr-medium_cr_i0a36t7j9a89" data-item-class="Shape Stroke Fill Part Indexed_0" data-item-index="0" data-renderer-id="0" transform="translate(446, 230)"><g id="0.cr-medium_cr_i0a36t7j9a89-fill" stroke="none" fill="#f0f0f0"><g><path d="M 10 46C 10 65.882251 26.117749 82 46 82C 65.882251 82 82 65.882251 82 46C 82 26.117749 65.882251 10 46 10C 26.117749 10 10 26.117749 10 46"></path></g></g></g><g id="g-root-0.cr-medium_cr_i0a36t7j9a89-fill" data-item-order="999847942" data-item-id="0.cr-medium_cr_i0a36t7j9a89" data-item-class="Shape Stroke Fill Part Indexed_0" data-item-index="0" data-renderer-id="0" transform="translate(446, 230)"><g id="0.cr-medium_cr_i0a36t7j9a89-fill" stroke="none" fill="#f0f0f0"><g><path d="M 10 46C 10 65.882251 26.117749 82 46 82C 65.882251 82 82 65.882251 82 46C 82 26.117749 65.882251 10 46 10C 26.117749 10 10 26.117749 10 46"></path></g></g></g><g id="g-root-5.line_sy_9mjs57j99fu-fill" data-item-order="999847945" data-item-id="5.line_sy_9mjs57j99fu" data-item-class="Curve Stroke Part Indexed" data-item-index="5" data-renderer-id="0" transform="translate(194, 308)"></g><g id="g-root-5.line_sy_9mjs57j99fu-fill" data-item-order="999847945" data-item-id="5.line_sy_9mjs57j99fu" data-item-class="Curve Stroke Part Indexed" data-item-index="5" data-renderer-id="0" transform="translate(194, 308)"></g><g id="g-root-5.cr-small_cr_1uux3mt7j9a0z-fill" data-item-order="999847946" data-item-id="5.cr-small_cr_1uux3mt7j9a0z" data-item-class="Shape Stroke Fill Part Indexed" data-item-index="5" data-renderer-id="0" transform="translate(134, 404)"><g id="5.cr-small_cr_1uux3mt7j9a0z-fill" stroke="none" fill="#fef2e6"><g><path d="M 10 40C 10.000002 56.568544 23.431459 70.000002 40.000002 70.000002C 56.568544 70.000002 70.000002 56.568544 70.000002 40.000002C 70.000002 23.431459 56.568544 10.000002 40.000002 10.000002C 23.431459 10.000002 10.000002 23.431459 10.000002 40.000002"></path></g></g></g><g id="g-root-5.cr-small_cr_1uux3mt7j9a0z-fill" data-item-order="999847946" data-item-id="5.cr-small_cr_1uux3mt7j9a0z" data-item-class="Shape Stroke Fill Part Indexed" data-item-index="5" data-renderer-id="0" transform="translate(134, 404)"><g id="5.cr-small_cr_1uux3mt7j9a0z-fill" stroke="none" fill="#fef2e6"><g><path d="M 10 40C 10.000002 56.568544 23.431459 70.000002 40.000002 70.000002C 56.568544 70.000002 70.000002 56.568544 70.000002 40.000002C 70.000002 23.431459 56.568544 10.000002 40.000002 10.000002C 23.431459 10.000002 10.000002 23.431459 10.000002 40.000002"></path></g></g></g><g id="g-root-4.line_sy_9mjs57j99fs-fill" data-item-order="999847949" data-item-id="4.line_sy_9mjs57j99fs" data-item-class="Curve Stroke Part Indexed" data-item-index="4" data-renderer-id="0" transform="translate(194, 290)"></g><g id="g-root-4.line_sy_9mjs57j99fs-fill" data-item-order="999847949" data-item-id="4.line_sy_9mjs57j99fs" data-item-class="Curve Stroke Part Indexed" data-item-index="4" data-renderer-id="0" transform="translate(194, 290)"></g><g id="g-root-4.cr-small_cr_9mjs57j99ft-fill" data-item-order="999847950" data-item-id="4.cr-small_cr_9mjs57j99ft" data-item-class="Shape Stroke Fill Part Indexed" data-item-index="4" data-renderer-id="0" transform="translate(134, 320)"><g id="4.cr-small_cr_9mjs57j99ft-fill" stroke="none" fill="#fffce6"><g><path d="M 10 40C 10.000002 56.568544 23.431459 70.000002 40.000002 70.000002C 56.568544 70.000002 70.000002 56.568544 70.000002 40.000002C 70.000002 23.431459 56.568544 10.000002 40.000002 10.000002C 23.431459 10.000002 10.000002 23.431459 10.000002 40.000002"></path></g></g></g><g id="g-root-4.cr-small_cr_9mjs57j99ft-fill" data-item-order="999847950" data-item-id="4.cr-small_cr_9mjs57j99ft" data-item-class="Shape Stroke Fill Part Indexed" data-item-index="4" data-renderer-id="0" transform="translate(134, 320)"><g id="4.cr-small_cr_9mjs57j99ft-fill" stroke="none" fill="#fffce6"><g><path d="M 10 40C 10.000002 56.568544 23.431459 70.000002 40.000002 70.000002C 56.568544 70.000002 70.000002 56.568544 70.000002 40.000002C 70.000002 23.431459 56.568544 10.000002 40.000002 10.000002C 23.431459 10.000002 10.000002 23.431459 10.000002 40.000002"></path></g></g></g><g id="g-root-3.line_sy_4pg1wl7j98ni-fill" data-item-order="999847953" data-item-id="3.line_sy_4pg1wl7j98ni" data-item-class="Curve Stroke Part Indexed" data-item-index="3" data-renderer-id="0" transform="translate(194.109375, 266)"></g><g id="g-root-3.line_sy_4pg1wl7j98ni-fill" data-item-order="999847953" data-item-id="3.line_sy_4pg1wl7j98ni" data-item-class="Curve Stroke Part Indexed" data-item-index="3" data-renderer-id="0" transform="translate(194.109375, 266)"></g><g id="g-root-3.cr-small_cr_4pg1wl7j98nj-fill" data-item-order="999847954" data-item-id="3.cr-small_cr_4pg1wl7j98nj" data-item-class="Shape Stroke Fill Part Indexed" data-item-index="3" data-renderer-id="0" transform="translate(134, 236)"><g id="3.cr-small_cr_4pg1wl7j98nj-fill" stroke="none" fill="#f5fbe9"><g><path d="M 10 40C 10.000002 56.568544 23.431459 70.000002 40.000002 70.000002C 56.568544 70.000002 70.000002 56.568544 70.000002 40.000002C 70.000002 23.431459 56.568544 10.000002 40.000002 10.000002C 23.431459 10.000002 10.000002 23.431459 10.000002 40.000002"></path></g></g></g><g id="g-root-3.cr-small_cr_4pg1wl7j98nj-fill" data-item-order="999847954" data-item-id="3.cr-small_cr_4pg1wl7j98nj" data-item-class="Shape Stroke Fill Part Indexed" data-item-index="3" data-renderer-id="0" transform="translate(134, 236)"><g id="3.cr-small_cr_4pg1wl7j98nj-fill" stroke="none" fill="#f5fbe9"><g><path d="M 10 40C 10.000002 56.568544 23.431459 70.000002 40.000002 70.000002C 56.568544 70.000002 70.000002 56.568544 70.000002 40.000002C 70.000002 23.431459 56.568544 10.000002 40.000002 10.000002C 23.431459 10.000002 10.000002 23.431459 10.000002 40.000002"></path></g></g></g><g id="g-root-2.line_sy_dkgl2d7j9b0k-fill" data-item-order="999847957" data-item-id="2.line_sy_dkgl2d7j9b0k" data-item-class="Curve Stroke Part Indexed" data-item-index="2" data-renderer-id="0" transform="translate(194, 182)"></g><g id="g-root-2.line_sy_dkgl2d7j9b0k-fill" data-item-order="999847957" data-item-id="2.line_sy_dkgl2d7j9b0k" data-item-class="Curve Stroke Part Indexed" data-item-index="2" data-renderer-id="0" transform="translate(194, 182)"></g><g id="g-root-2.cr-small_cr_4pg1wl7j98nh-fill" data-item-order="999847958" data-item-id="2.cr-small_cr_4pg1wl7j98nh" data-item-class="Shape Stroke Fill Part Indexed" data-item-index="2" data-renderer-id="0" transform="translate(134, 152)"><g id="2.cr-small_cr_4pg1wl7j98nh-fill" stroke="none" fill="#e9fbf3"><g><path d="M 10 40C 10.000002 56.568544 23.431459 70.000002 40.000002 70.000002C 56.568544 70.000002 70.000002 56.568544 70.000002 40.000002C 70.000002 23.431459 56.568544 10.000002 40.000002 10.000002C 23.431459 10.000002 10.000002 23.431459 10.000002 40.000002"></path></g></g></g><g id="g-root-2.cr-small_cr_4pg1wl7j98nh-fill" data-item-order="999847958" data-item-id="2.cr-small_cr_4pg1wl7j98nh" data-item-class="Shape Stroke Fill Part Indexed" data-item-index="2" data-renderer-id="0" transform="translate(134, 152)"><g id="2.cr-small_cr_4pg1wl7j98nh-fill" stroke="none" fill="#e9fbf3"><g><path d="M 10 40C 10.000002 56.568544 23.431459 70.000002 40.000002 70.000002C 56.568544 70.000002 70.000002 56.568544 70.000002 40.000002C 70.000002 23.431459 56.568544 10.000002 40.000002 10.000002C 23.431459 10.000002 10.000002 23.431459 10.000002 40.000002"></path></g></g></g><g id="g-root-1.line_sy_dkgl2d7j9b0i-fill" data-item-order="999847961" data-item-id="1.line_sy_dkgl2d7j9b0i" data-item-class="Curve Stroke Part Indexed Indexed_1" data-item-index="1" data-renderer-id="0" transform="translate(194, 98)"></g><g id="g-root-1.line_sy_dkgl2d7j9b0i-fill" data-item-order="999847961" data-item-id="1.line_sy_dkgl2d7j9b0i" data-item-class="Curve Stroke Part Indexed Indexed_1" data-item-index="1" data-renderer-id="0" transform="translate(194, 98)"></g><g id="g-root-1.cr-small_cr_dkgl2d7j9b0j-fill" data-item-order="999847962" data-item-id="1.cr-small_cr_dkgl2d7j9b0j" data-item-class="Shape Stroke Fill Part Indexed Indexed_1" data-item-index="1" data-renderer-id="0" transform="translate(134, 68)"><g id="1.cr-small_cr_dkgl2d7j9b0j-fill" stroke="none" fill="#e6f9ff"><g><path d="M 10 40C 10.000002 56.568544 23.431459 70.000002 40.000002 70.000002C 56.568544 70.000002 70.000002 56.568544 70.000002 40.000002C 70.000002 23.431459 56.568544 10.000002 40.000002 10.000002C 23.431459 10.000002 10.000002 23.431459 10.000002 40.000002"></path></g></g></g><g id="g-root-1.cr-small_cr_dkgl2d7j9b0j-fill" data-item-order="999847962" data-item-id="1.cr-small_cr_dkgl2d7j9b0j" data-item-class="Shape Stroke Fill Part Indexed Indexed_1" data-item-index="1" data-renderer-id="0" transform="translate(134, 68)"><g id="1.cr-small_cr_dkgl2d7j9b0j-fill" stroke="none" fill="#e6f9ff"><g><path d="M 10 40C 10.000002 56.568544 23.431459 70.000002 40.000002 70.000002C 56.568544 70.000002 70.000002 56.568544 70.000002 40.000002C 70.000002 23.431459 56.568544 10.000002 40.000002 10.000002C 23.431459 10.000002 10.000002 23.431459 10.000002 40.000002"></path></g></g></g><g id="g-root-2_1d0ipph7jdg5i-fill" data-item-order="1000000000" data-item-id="2_1d0ipph7jdg5i" data-item-class="Icon Stroke Indexed InsideFill InsideColorFill" data-item-index="2" data-renderer-id="0" transform="translate(146, 164)"></g><g id="g-root-2_1d0ipph7jdg5i-fill" data-item-order="1000000000" data-item-id="2_1d0ipph7jdg5i" data-item-class="Icon Stroke Indexed InsideFill InsideColorFill" data-item-index="2" data-renderer-id="0" transform="translate(146, 164)"></g><g id="g-root-tx_meilleur_1qd86917j9b0p-fill" data-item-order="1000000000" data-item-id="tx_meilleur_1qd86917j9b0p" data-item-class="Label Stroke" data-item-index="none" data-renderer-id="0" transform="translate(530, 218)"><g id="tx_meilleur_1qd86917j9b0p-fill" stroke="none" fill="#484848"><g><text style="font: 20px Roboto, sans-serif; white-space: pre;" font-weight="20px" font-size="Roboto," font-family="sans-serif"><tspan x="12" y="34" dominant-baseline="ideographic">Meilleures </tspan><tspan x="12" y="58" dominant-baseline="ideographic">pratiques de la </tspan><tspan x="12" y="82" dominant-baseline="ideographic">couche </tspan><tspan x="12" y="106" dominant-baseline="ideographic">d'infrastructure</tspan></text></g></g></g><g id="g-root-tx_performa_zqxmlh7j9b0s-fill" data-item-order="1000000000" data-item-id="tx_performa_zqxmlh7j9b0s" data-item-class="Label Stroke Indexed" data-item-index="3" data-renderer-id="0" transform="translate(2, 254)"><g id="tx_performa_zqxmlh7j9b0s-fill" stroke="none" fill="#484848"><g><text style="font: 20px Roboto, sans-serif; white-space: pre;" font-weight="20px" font-size="Roboto," font-family="sans-serif"><tspan x="12.38" y="34" dominant-baseline="ideographic">Performance</tspan></text></g></g></g><g id="g-root-tx_performa_zqxmlh7j9b0s-fill" data-item-order="1000000000" data-item-id="tx_performa_zqxmlh7j9b0s" data-item-class="Label Stroke Indexed" data-item-index="3" data-renderer-id="0" transform="translate(2, 254)"><g id="tx_performa_zqxmlh7j9b0s-fill" stroke="none" fill="#484848"><g><text style="font: 20px Roboto, sans-serif; white-space: pre;" font-weight="20px" font-size="Roboto," font-family="sans-serif"><tspan x="12.38" y="34" dominant-baseline="ideographic">Performance</tspan></text></g></g></g><g id="g-root-48px_1hfpqqt7jdij1-fill" data-item-order="1000000000" data-item-id="48px_1hfpqqt7jdij1" data-item-class="Icon Stroke Indexed InsideFill InsideColorFill" data-item-index="3" data-renderer-id="0" transform="translate(146, 248)"></g><g id="g-root-48px_1hfpqqt7jdij1-fill" data-item-order="1000000000" data-item-id="48px_1hfpqqt7jdij1" data-item-class="Icon Stroke Indexed InsideFill InsideColorFill" data-item-index="3" data-renderer-id="0" transform="translate(146, 248)"></g><g id="g-root-2_1qbcqzp7jdhqb-fill" data-item-order="1000000000" data-item-id="2_1qbcqzp7jdhqb" data-item-class="Icon Stroke InsideFill" data-item-index="none" data-renderer-id="0" transform="translate(458, 242)"></g><g id="g-root-2_1qbcqzp7jdhqb-fill" data-item-order="1000000000" data-item-id="2_1qbcqzp7jdhqb" data-item-class="Icon Stroke InsideFill" data-item-index="none" data-renderer-id="0" transform="translate(458, 242)"></g><g id="g-root-tx_maintena_vbqlk57j98n9-fill" data-item-order="1000000000" data-item-id="tx_maintena_vbqlk57j98n9" data-item-class="Label Stroke Indexed" data-item-index="2" data-renderer-id="0" transform="translate(2, 170)"><g id="tx_maintena_vbqlk57j98n9-fill" stroke="none" fill="#484848"><g><text style="font: 20px Roboto, sans-serif; white-space: pre;" font-weight="20px" font-size="Roboto," font-family="sans-serif"><tspan x="12.63" y="34" dominant-baseline="ideographic">Maintenance</tspan></text></g></g></g><g id="g-root-tx_maintena_vbqlk57j98n9-fill" data-item-order="1000000000" data-item-id="tx_maintena_vbqlk57j98n9" data-item-class="Label Stroke Indexed" data-item-index="2" data-renderer-id="0" transform="translate(2, 170)"><g id="tx_maintena_vbqlk57j98n9-fill" stroke="none" fill="#484848"><g><text style="font: 20px Roboto, sans-serif; white-space: pre;" font-weight="20px" font-size="Roboto," font-family="sans-serif"><tspan x="12.63" y="34" dominant-baseline="ideographic">Maintenance</tspan></text></g></g></g><g id="g-root-tx_meilleur_mg3lb97j99fz-fill" data-item-order="1000000000" data-item-id="tx_meilleur_mg3lb97j99fz" data-item-class="Label Stroke Title" data-item-index="none" data-renderer-id="0" transform="translate(104, 2)"><g id="tx_meilleur_mg3lb97j99fz-fill" stroke="none" fill="#484848"><g><text style="font: 20px Roboto, sans-serif; white-space: pre;" font-weight="20px" font-size="Roboto," font-family="sans-serif"><tspan x="13.53" y="34" dominant-baseline="ideographic">Meilleures pratiques de la couche d'infrastructure</tspan></text></g></g></g><g id="g-root-2_1ur69457jdgy2-fill" data-item-order="1000000000" data-item-id="2_1ur69457jdgy2" data-item-class="Icon Stroke Indexed Indexed_1 InsideFill InsideColorFill" data-item-index="1" data-renderer-id="0" transform="translate(146, 80)"></g><g id="g-root-tx_fiabilit_vbqlk57j98na-fill" data-item-order="1000000000" data-item-id="tx_fiabilit_vbqlk57j98na" data-item-class="Label Stroke Indexed Indexed_1" data-item-index="1" data-renderer-id="0" transform="translate(38, 86)"><g id="tx_fiabilit_vbqlk57j98na-fill" stroke="none" fill="#484848"><g><text style="font: 20px Roboto, sans-serif; white-space: pre;" font-weight="20px" font-size="Roboto," font-family="sans-serif"><tspan x="22.29" y="34" dominant-baseline="ideographic">Fiabilité</tspan></text></g></g></g><g id="g-root-tx_fiabilit_vbqlk57j98na-fill" data-item-order="1000000000" data-item-id="tx_fiabilit_vbqlk57j98na" data-item-class="Label Stroke Indexed Indexed_1" data-item-index="1" data-renderer-id="0" transform="translate(38, 86)"><g id="tx_fiabilit_vbqlk57j98na-fill" stroke="none" fill="#484848"><g><text style="font: 20px Roboto, sans-serif; white-space: pre;" font-weight="20px" font-size="Roboto," font-family="sans-serif"><tspan x="22.29" y="34" dominant-baseline="ideographic">Fiabilité</tspan></text></g></g></g><g id="g-root-sear_1qbcqzp7jdhqc-fill" data-item-order="1000000000" data-item-id="sear_1qbcqzp7jdhqc" data-item-class="Icon Stroke Indexed InsideFill InsideColorFill" data-item-index="5" data-renderer-id="0" transform="translate(146, 416)"></g><g id="g-root-tx_scurit_18mkmud7j9a83-fill" data-item-order="1000000000" data-item-id="tx_scurit_18mkmud7j9a83" data-item-class="Label Stroke Indexed" data-item-index="4" data-renderer-id="0" transform="translate(38, 338)"><g id="tx_scurit_18mkmud7j9a83-fill" stroke="none" fill="#484848"><g><text style="font: 20px Roboto, sans-serif; white-space: pre;" font-weight="20px" font-size="Roboto," font-family="sans-serif"><tspan x="19.29" y="34" dominant-baseline="ideographic">Sécurité</tspan></text></g></g></g><g id="g-root-tx_scurit_18mkmud7j9a83-fill" data-item-order="1000000000" data-item-id="tx_scurit_18mkmud7j9a83" data-item-class="Label Stroke Indexed" data-item-index="4" data-renderer-id="0" transform="translate(38, 338)"><g id="tx_scurit_18mkmud7j9a83-fill" stroke="none" fill="#484848"><g><text style="font: 20px Roboto, sans-serif; white-space: pre;" font-weight="20px" font-size="Roboto," font-family="sans-serif"><tspan x="19.29" y="34" dominant-baseline="ideographic">Sécurité</tspan></text></g></g></g><g id="g-root-safe_144vpgl7jdgy7-fill" data-item-order="1000000000" data-item-id="safe_144vpgl7jdgy7" data-item-class="Icon Stroke Indexed InsideFill InsideColorFill" data-item-index="4" data-renderer-id="0" transform="translate(146, 332)"></g><g id="g-root-safe_144vpgl7jdgy7-fill" data-item-order="1000000000" data-item-id="safe_144vpgl7jdgy7" data-item-class="Icon Stroke Indexed InsideFill InsideColorFill" data-item-index="4" data-renderer-id="0" transform="translate(146, 332)"></g><g id="g-root-tx_meilleur_mg3lb97j99fz-fill" data-item-order="1000000000" data-item-id="tx_meilleur_mg3lb97j99fz" data-item-class="Label Stroke Title" data-item-index="none" data-renderer-id="0" transform="translate(104, 2)"><g id="tx_meilleur_mg3lb97j99fz-fill" stroke="none" fill="#484848"><g><text style="font: 20px Roboto, sans-serif; white-space: pre;" font-weight="20px" font-size="Roboto," font-family="sans-serif"><tspan x="13.53" y="34" dominant-baseline="ideographic">Meilleures pratiques de la couche d'infrastructure</tspan></text></g></g></g><g id="g-root-tx_testabil_18mkmud7j9a82-fill" data-item-order="1000000000" data-item-id="tx_testabil_18mkmud7j9a82" data-item-class="Label Stroke Indexed" data-item-index="5" data-renderer-id="0" transform="translate(26, 422)"><g id="tx_testabil_18mkmud7j9a82-fill" stroke="none" fill="#484848"><g><text style="font: 20px Roboto, sans-serif; white-space: pre;" font-weight="20px" font-size="Roboto," font-family="sans-serif"><tspan x="11.79" y="34" dominant-baseline="ideographic">Testabilité</tspan></text></g></g></g><g id="g-root-tx_testabil_18mkmud7j9a82-fill" data-item-order="1000000000" data-item-id="tx_testabil_18mkmud7j9a82" data-item-class="Label Stroke Indexed" data-item-index="5" data-renderer-id="0" transform="translate(26, 422)"><g id="tx_testabil_18mkmud7j9a82-fill" stroke="none" fill="#484848"><g><text style="font: 20px Roboto, sans-serif; white-space: pre;" font-weight="20px" font-size="Roboto," font-family="sans-serif"><tspan x="11.79" y="34" dominant-baseline="ideographic">Testabilité</tspan></text></g></g></g><g id="g-root-sear_1qbcqzp7jdhqc-fill" data-item-order="1000000000" data-item-id="sear_1qbcqzp7jdhqc" data-item-class="Icon Stroke Indexed InsideFill InsideColorFill" data-item-index="5" data-renderer-id="0" transform="translate(146, 416)"></g><g id="g-root-tx_meilleur_1qd86917j9b0p-fill" data-item-order="1000000000" data-item-id="tx_meilleur_1qd86917j9b0p" data-item-class="Label Stroke" data-item-index="none" data-renderer-id="0" transform="translate(530, 218)"><g id="tx_meilleur_1qd86917j9b0p-fill" stroke="none" fill="#484848"><g><text style="font: 20px Roboto, sans-serif; white-space: pre;" font-weight="20px" font-size="Roboto," font-family="sans-serif"><tspan x="12" y="34" dominant-baseline="ideographic">Meilleures </tspan><tspan x="12" y="58" dominant-baseline="ideographic">pratiques de la </tspan><tspan x="12" y="82" dominant-baseline="ideographic">couche </tspan><tspan x="12" y="106" dominant-baseline="ideographic">d'infrastructure</tspan></text></g></g></g><g id="g-root-2_1ur69457jdgy2-fill" data-item-order="1000000000" data-item-id="2_1ur69457jdgy2" data-item-class="Icon Stroke Indexed Indexed_1 InsideFill InsideColorFill" data-item-index="1" data-renderer-id="0" transform="translate(146, 80)"></g><g id="g-root--1.cu_sy_i0a36t7j9a88-stroke" data-item-order="999847940" data-item-id="-1.cu_sy_i0a36t7j9a88" data-item-class="Part Fill Stroke ColorFillGray ColorStrokeGray" data-item-index="-1" data-renderer-id="0" transform="translate(278, 74)"><g id="-1.cu_sy_i0a36t7j9a88-stroke" fill="none" stroke-linecap="round" stroke-linejoin="round" stroke-miterlimit="4" stroke="#888888" stroke-width="2"><g><path d="M 65.766602 394C 80.754802 394 106.000002 308.0387 106.000002 202C 106.000002 95.9613 80.754802 10 65.766602 10C 80.775202 10.01 92.941702 96.2224 92.941702 202C 92.941702 307.7776 80.775202 393.99 65.766602 394ZM 65.765897 394C 80.774597 393.99 92.941097 307.7776 92.941097 202C 92.941097 96.2224 80.774597 10.01 65.765897 10L 51.957397 10C 66.060697 16.8878 77.199297 100.4719 77.199297 202C 77.199297 303.5282 65.382597 387.1122 51.279297 394L 65.765897 394ZM 77.2 202C 77.2 303.5282 65.3833 387.1122 51.28 394L 50.0615 394C 35.0734 394 10 308.0387 10 202C 10 95.9613 35.0734 10 50.0615 10C 50.6991 10 51.9581 10 51.9581 10C 66.0614 16.8878 77.2 100.4719 77.2 202Z"></path></g></g></g><g id="g-root--1.cu_sy_i0a36t7j9a88-stroke" data-item-order="999847940" data-item-id="-1.cu_sy_i0a36t7j9a88" data-item-class="Part Fill Stroke ColorFillGray ColorStrokeGray" data-item-index="-1" data-renderer-id="0" transform="translate(278, 74)"><g id="-1.cu_sy_i0a36t7j9a88-stroke" fill="none" stroke-linecap="round" stroke-linejoin="round" stroke-miterlimit="4" stroke="#888888" stroke-width="2"><g><path d="M 65.766602 394C 80.754802 394 106.000002 308.0387 106.000002 202C 106.000002 95.9613 80.754802 10 65.766602 10C 80.775202 10.01 92.941702 96.2224 92.941702 202C 92.941702 307.7776 80.775202 393.99 65.766602 394ZM 65.765897 394C 80.774597 393.99 92.941097 307.7776 92.941097 202C 92.941097 96.2224 80.774597 10.01 65.765897 10L 51.957397 10C 66.060697 16.8878 77.199297 100.4719 77.199297 202C 77.199297 303.5282 65.382597 387.1122 51.279297 394L 65.765897 394ZM 77.2 202C 77.2 303.5282 65.3833 387.1122 51.28 394L 50.0615 394C 35.0734 394 10 308.0387 10 202C 10 95.9613 35.0734 10 50.0615 10C 50.6991 10 51.9581 10 51.9581 10C 66.0614 16.8878 77.2 100.4719 77.2 202Z"></path></g></g></g><g id="g-root-0.cr-medium_cr_i0a36t7j9a89-stroke" data-item-order="999847942" data-item-id="0.cr-medium_cr_i0a36t7j9a89" data-item-class="Shape Stroke Fill Part Indexed_0" data-item-index="0" data-renderer-id="0" transform="translate(446, 230)"><g id="0.cr-medium_cr_i0a36t7j9a89-stroke" fill="none" stroke-linecap="round" stroke-linejoin="round" stroke-miterlimit="4" stroke="#484848" stroke-width="2"><g><path d="M 10 46C 10 65.882251 26.117749 82 46 82C 65.882251 82 82 65.882251 82 46C 82 26.117749 65.882251 10 46 10C 26.117749 10 10 26.117749 10 46"></path></g></g></g><g id="g-root-0.cr-medium_cr_i0a36t7j9a89-stroke" data-item-order="999847942" data-item-id="0.cr-medium_cr_i0a36t7j9a89" data-item-class="Shape Stroke Fill Part Indexed_0" data-item-index="0" data-renderer-id="0" transform="translate(446, 230)"><g id="0.cr-medium_cr_i0a36t7j9a89-stroke" fill="none" stroke-linecap="round" stroke-linejoin="round" stroke-miterlimit="4" stroke="#484848" stroke-width="2"><g><path d="M 10 46C 10 65.882251 26.117749 82 46 82C 65.882251 82 82 65.882251 82 46C 82 26.117749 65.882251 10 46 10C 26.117749 10 10 26.117749 10 46"></path></g></g></g><g id="g-root-5.line_sy_9mjs57j99fu-stroke" data-item-order="999847945" data-item-id="5.line_sy_9mjs57j99fu" data-item-class="Curve Stroke Part Indexed" data-item-index="5" data-renderer-id="0" transform="translate(194, 308)"><g id="5.line_sy_9mjs57j99fu-stroke" fill="none" stroke-linecap="round" stroke-linejoin="round" stroke-miterlimit="4" stroke="#dd8433" stroke-width="2"><g><path d="M 272.49 11.320313L 130 136.000313L 10 136.000313"></path><path d="M 272.3 20.120313L 272.9 11.020313L 263.7 10.420313" stroke-dasharray="none"></path></g></g></g><g id="g-root-5.line_sy_9mjs57j99fu-stroke" data-item-order="999847945" data-item-id="5.line_sy_9mjs57j99fu" data-item-class="Curve Stroke Part Indexed" data-item-index="5" data-renderer-id="0" transform="translate(194, 308)"><g id="5.line_sy_9mjs57j99fu-stroke" fill="none" stroke-linecap="round" stroke-linejoin="round" stroke-miterlimit="4" stroke="#dd8433" stroke-width="2"><g><path d="M 272.49 11.320313L 130 136.000313L 10 136.000313"></path><path d="M 272.3 20.120313L 272.9 11.020313L 263.7 10.420313" stroke-dasharray="none"></path></g></g></g><g id="g-root-5.cr-small_cr_1uux3mt7j9a0z-stroke" data-item-order="999847946" data-item-id="5.cr-small_cr_1uux3mt7j9a0z" data-item-class="Shape Stroke Fill Part Indexed" data-item-index="5" data-renderer-id="0" transform="translate(134, 404)"><g id="5.cr-small_cr_1uux3mt7j9a0z-stroke" fill="none" stroke-linecap="round" stroke-linejoin="round" stroke-miterlimit="4" stroke="#dd8433" stroke-width="2"><g><path d="M 10 40C 10.000002 56.568544 23.431459 70.000002 40.000002 70.000002C 56.568544 70.000002 70.000002 56.568544 70.000002 40.000002C 70.000002 23.431459 56.568544 10.000002 40.000002 10.000002C 23.431459 10.000002 10.000002 23.431459 10.000002 40.000002"></path></g></g></g><g id="g-root-5.cr-small_cr_1uux3mt7j9a0z-stroke" data-item-order="999847946" data-item-id="5.cr-small_cr_1uux3mt7j9a0z" data-item-class="Shape Stroke Fill Part Indexed" data-item-index="5" data-renderer-id="0" transform="translate(134, 404)"><g id="5.cr-small_cr_1uux3mt7j9a0z-stroke" fill="none" stroke-linecap="round" stroke-linejoin="round" stroke-miterlimit="4" stroke="#dd8433" stroke-width="2"><g><path d="M 10 40C 10.000002 56.568544 23.431459 70.000002 40.000002 70.000002C 56.568544 70.000002 70.000002 56.568544 70.000002 40.000002C 70.000002 23.431459 56.568544 10.000002 40.000002 10.000002C 23.431459 10.000002 10.000002 23.431459 10.000002 40.000002"></path></g></g></g><g id="g-root-4.line_sy_9mjs57j99fs-stroke" data-item-order="999847949" data-item-id="4.line_sy_9mjs57j99fs" data-item-class="Curve Stroke Part Indexed" data-item-index="4" data-renderer-id="0" transform="translate(194, 290)"><g id="4.line_sy_9mjs57j99fs-stroke" fill="none" stroke-linecap="round" stroke-linejoin="round" stroke-miterlimit="4" stroke="#e3cd09" stroke-width="2"><g><path d="M 254.19 10.859375L 130 69.999375L 10 69.999375"></path><path d="M 251.6 19.259375L 254.6 10.659375L 246 7.559375" stroke-dasharray="none"></path></g></g></g><g id="g-root-4.line_sy_9mjs57j99fs-stroke" data-item-order="999847949" data-item-id="4.line_sy_9mjs57j99fs" data-item-class="Curve Stroke Part Indexed" data-item-index="4" data-renderer-id="0" transform="translate(194, 290)"><g id="4.line_sy_9mjs57j99fs-stroke" fill="none" stroke-linecap="round" stroke-linejoin="round" stroke-miterlimit="4" stroke="#e3cd09" stroke-width="2"><g><path d="M 254.19 10.859375L 130 69.999375L 10 69.999375"></path><path d="M 251.6 19.259375L 254.6 10.659375L 246 7.559375" stroke-dasharray="none"></path></g></g></g><g id="g-root-4.cr-small_cr_9mjs57j99ft-stroke" data-item-order="999847950" data-item-id="4.cr-small_cr_9mjs57j99ft" data-item-class="Shape Stroke Fill Part Indexed" data-item-index="4" data-renderer-id="0" transform="translate(134, 320)"><g id="4.cr-small_cr_9mjs57j99ft-stroke" fill="none" stroke-linecap="round" stroke-linejoin="round" stroke-miterlimit="4" stroke="#e3cd09" stroke-width="2"><g><path d="M 10 40C 10.000002 56.568544 23.431459 70.000002 40.000002 70.000002C 56.568544 70.000002 70.000002 56.568544 70.000002 40.000002C 70.000002 23.431459 56.568544 10.000002 40.000002 10.000002C 23.431459 10.000002 10.000002 23.431459 10.000002 40.000002"></path></g></g></g><g id="g-root-4.cr-small_cr_9mjs57j99ft-stroke" data-item-order="999847950" data-item-id="4.cr-small_cr_9mjs57j99ft" data-item-class="Shape Stroke Fill Part Indexed" data-item-index="4" data-renderer-id="0" transform="translate(134, 320)"><g id="4.cr-small_cr_9mjs57j99ft-stroke" fill="none" stroke-linecap="round" stroke-linejoin="round" stroke-miterlimit="4" stroke="#e3cd09" stroke-width="2"><g><path d="M 10 40C 10.000002 56.568544 23.431459 70.000002 40.000002 70.000002C 56.568544 70.000002 70.000002 56.568544 70.000002 40.000002C 70.000002 23.431459 56.568544 10.000002 40.000002 10.000002C 23.431459 10.000002 10.000002 23.431459 10.000002 40.000002"></path></g></g></g><g id="g-root-3.line_sy_4pg1wl7j98ni-stroke" data-item-order="999847953" data-item-id="3.line_sy_4pg1wl7j98ni" data-item-class="Curve Stroke Part Indexed" data-item-index="3" data-renderer-id="0" transform="translate(194.109375, 266)"><g id="3.line_sy_4pg1wl7j98ni-stroke" fill="none" stroke-linecap="round" stroke-linejoin="round" stroke-miterlimit="4" stroke="#93c131" stroke-width="2"><g><path d="M 247.89061 10L 129.89061 10L 10.00061 10"></path><path d="M 241.90061 16.5L 248.40061 10L 241.90061 3.5" stroke-dasharray="none"></path></g></g></g><g id="g-root-3.line_sy_4pg1wl7j98ni-stroke" data-item-order="999847953" data-item-id="3.line_sy_4pg1wl7j98ni" data-item-class="Curve Stroke Part Indexed" data-item-index="3" data-renderer-id="0" transform="translate(194.109375, 266)"><g id="3.line_sy_4pg1wl7j98ni-stroke" fill="none" stroke-linecap="round" stroke-linejoin="round" stroke-miterlimit="4" stroke="#93c131" stroke-width="2"><g><path d="M 247.89061 10L 129.89061 10L 10.00061 10"></path><path d="M 241.90061 16.5L 248.40061 10L 241.90061 3.5" stroke-dasharray="none"></path></g></g></g><g id="g-root-3.cr-small_cr_4pg1wl7j98nj-stroke" data-item-order="999847954" data-item-id="3.cr-small_cr_4pg1wl7j98nj" data-item-class="Shape Stroke Fill Part Indexed" data-item-index="3" data-renderer-id="0" transform="translate(134, 236)"><g id="3.cr-small_cr_4pg1wl7j98nj-stroke" fill="none" stroke-linecap="round" stroke-linejoin="round" stroke-miterlimit="4" stroke="#93c131" stroke-width="2"><g><path d="M 10 40C 10.000002 56.568544 23.431459 70.000002 40.000002 70.000002C 56.568544 70.000002 70.000002 56.568544 70.000002 40.000002C 70.000002 23.431459 56.568544 10.000002 40.000002 10.000002C 23.431459 10.000002 10.000002 23.431459 10.000002 40.000002"></path></g></g></g><g id="g-root-3.cr-small_cr_4pg1wl7j98nj-stroke" data-item-order="999847954" data-item-id="3.cr-small_cr_4pg1wl7j98nj" data-item-class="Shape Stroke Fill Part Indexed" data-item-index="3" data-renderer-id="0" transform="translate(134, 236)"><g id="3.cr-small_cr_4pg1wl7j98nj-stroke" fill="none" stroke-linecap="round" stroke-linejoin="round" stroke-miterlimit="4" stroke="#93c131" stroke-width="2"><g><path d="M 10 40C 10.000002 56.568544 23.431459 70.000002 40.000002 70.000002C 56.568544 70.000002 70.000002 56.568544 70.000002 40.000002C 70.000002 23.431459 56.568544 10.000002 40.000002 10.000002C 23.431459 10.000002 10.000002 23.431459 10.000002 40.000002"></path></g></g></g><g id="g-root-2.line_sy_dkgl2d7j9b0k-stroke" data-item-order="999847957" data-item-id="2.line_sy_dkgl2d7j9b0k" data-item-class="Curve Stroke Part Indexed" data-item-index="2" data-renderer-id="0" transform="translate(194, 182)"><g id="2.line_sy_dkgl2d7j9b0k-stroke" fill="none" stroke-linecap="round" stroke-linejoin="round" stroke-miterlimit="4" stroke="#3bc482" stroke-width="2"><g><path d="M 254.19 69.14L 130 10L 10 10"></path><path d="M 246 72.4L 254.6 69.4L 251.6 60.7" stroke-dasharray="none"></path></g></g></g><g id="g-root-2.line_sy_dkgl2d7j9b0k-stroke" data-item-order="999847957" data-item-id="2.line_sy_dkgl2d7j9b0k" data-item-class="Curve Stroke Part Indexed" data-item-index="2" data-renderer-id="0" transform="translate(194, 182)"><g id="2.line_sy_dkgl2d7j9b0k-stroke" fill="none" stroke-linecap="round" stroke-linejoin="round" stroke-miterlimit="4" stroke="#3bc482" stroke-width="2"><g><path d="M 254.19 69.14L 130 10L 10 10"></path><path d="M 246 72.4L 254.6 69.4L 251.6 60.7" stroke-dasharray="none"></path></g></g></g><g id="g-root-2.cr-small_cr_4pg1wl7j98nh-stroke" data-item-order="999847958" data-item-id="2.cr-small_cr_4pg1wl7j98nh" data-item-class="Shape Stroke Fill Part Indexed" data-item-index="2" data-renderer-id="0" transform="translate(134, 152)"><g id="2.cr-small_cr_4pg1wl7j98nh-stroke" fill="none" stroke-linecap="round" stroke-linejoin="round" stroke-miterlimit="4" stroke="#3bc482" stroke-width="2"><g><path d="M 10 40C 10.000002 56.568544 23.431459 70.000002 40.000002 70.000002C 56.568544 70.000002 70.000002 56.568544 70.000002 40.000002C 70.000002 23.431459 56.568544 10.000002 40.000002 10.000002C 23.431459 10.000002 10.000002 23.431459 10.000002 40.000002"></path></g></g></g><g id="g-root-2.cr-small_cr_4pg1wl7j98nh-stroke" data-item-order="999847958" data-item-id="2.cr-small_cr_4pg1wl7j98nh" data-item-class="Shape Stroke Fill Part Indexed" data-item-index="2" data-renderer-id="0" transform="translate(134, 152)"><g id="2.cr-small_cr_4pg1wl7j98nh-stroke" fill="none" stroke-linecap="round" stroke-linejoin="round" stroke-miterlimit="4" stroke="#3bc482" stroke-width="2"><g><path d="M 10 40C 10.000002 56.568544 23.431459 70.000002 40.000002 70.000002C 56.568544 70.000002 70.000002 56.568544 70.000002 40.000002C 70.000002 23.431459 56.568544 10.000002 40.000002 10.000002C 23.431459 10.000002 10.000002 23.431459 10.000002 40.000002"></path></g></g></g><g id="g-root-1.line_sy_dkgl2d7j9b0i-stroke" data-item-order="999847961" data-item-id="1.line_sy_dkgl2d7j9b0i" data-item-class="Curve Stroke Part Indexed Indexed_1" data-item-index="1" data-renderer-id="0" transform="translate(194, 98)"><g id="1.line_sy_dkgl2d7j9b0i-stroke" fill="none" stroke-linecap="round" stroke-linejoin="round" stroke-miterlimit="4" stroke="#17b0e3" stroke-width="2"><g><path d="M 272.49 134.68L 130 10L 10 10"></path><path d="M 263.7 135.6L 272.9 135L 272.3 125.8" stroke-dasharray="none"></path></g></g></g><g id="g-root-1.line_sy_dkgl2d7j9b0i-stroke" data-item-order="999847961" data-item-id="1.line_sy_dkgl2d7j9b0i" data-item-class="Curve Stroke Part Indexed Indexed_1" data-item-index="1" data-renderer-id="0" transform="translate(194, 98)"><g id="1.line_sy_dkgl2d7j9b0i-stroke" fill="none" stroke-linecap="round" stroke-linejoin="round" stroke-miterlimit="4" stroke="#17b0e3" stroke-width="2"><g><path d="M 272.49 134.68L 130 10L 10 10"></path><path d="M 263.7 135.6L 272.9 135L 272.3 125.8" stroke-dasharray="none"></path></g></g></g><g id="g-root-1.cr-small_cr_dkgl2d7j9b0j-stroke" data-item-order="999847962" data-item-id="1.cr-small_cr_dkgl2d7j9b0j" data-item-class="Shape Stroke Fill Part Indexed Indexed_1" data-item-index="1" data-renderer-id="0" transform="translate(134, 68)"><g id="1.cr-small_cr_dkgl2d7j9b0j-stroke" fill="none" stroke-linecap="round" stroke-linejoin="round" stroke-miterlimit="4" stroke="#17b0e3" stroke-width="2"><g><path d="M 10 40C 10.000002 56.568544 23.431459 70.000002 40.000002 70.000002C 56.568544 70.000002 70.000002 56.568544 70.000002 40.000002C 70.000002 23.431459 56.568544 10.000002 40.000002 10.000002C 23.431459 10.000002 10.000002 23.431459 10.000002 40.000002"></path></g></g></g><g id="g-root-1.cr-small_cr_dkgl2d7j9b0j-stroke" data-item-order="999847962" data-item-id="1.cr-small_cr_dkgl2d7j9b0j" data-item-class="Shape Stroke Fill Part Indexed Indexed_1" data-item-index="1" data-renderer-id="0" transform="translate(134, 68)"><g id="1.cr-small_cr_dkgl2d7j9b0j-stroke" fill="none" stroke-linecap="round" stroke-linejoin="round" stroke-miterlimit="4" stroke="#17b0e3" stroke-width="2"><g><path d="M 10 40C 10.000002 56.568544 23.431459 70.000002 40.000002 70.000002C 56.568544 70.000002 70.000002 56.568544 70.000002 40.000002C 70.000002 23.431459 56.568544 10.000002 40.000002 10.000002C 23.431459 10.000002 10.000002 23.431459 10.000002 40.000002"></path></g></g></g><g id="g-root-2_1d0ipph7jdg5i-stroke" data-item-order="1000000000" data-item-id="2_1d0ipph7jdg5i" data-item-class="Icon Stroke Indexed InsideFill InsideColorFill" data-item-index="2" data-renderer-id="0" transform="translate(146, 164)"><g id="2_1d0ipph7jdg5i-stroke" fill="none" stroke-linecap="round" stroke-linejoin="round" stroke-miterlimit="4" stroke="#3bc482" stroke-width="2"><g><path d="M 24.295 21.480999C 23.76746 22.677765 22.887938 23.685476 21.773499 24.369999L 23.258499 32.110001L 18.6175 32.110001L 17.300501 25.2265C 14.661958 24.767817 12.582741 22.723946 12.07889 20.093653C 11.57504 17.463362 12.751749 14.795795 15.034 13.3945L 15.9535 18.190001L 18.6175 19.997499L 20.424999 17.334999L 19.505501 12.538C 21.457653 12.876608 23.145168 14.095218 24.08057 15.84181C 25.015972 17.588402 25.095064 19.668417 24.295 21.480999ZM 34.788998 13.444C 34.3405 15.4615 31.967501 16.806999 28.7155 16.084L 28.080999 18.935499L 43.291 22.316502L 44.77 15.6625L 34.788998 13.444ZM 31.762001 32.110001L 34.378002 20.341L 38.7085 21.303999L 36.183998 32.1115L 31.762001 32.1115ZM 44.875 41.994999L 44.875 32.110001L 11.125 32.110001L 11.125 41.994999C 11.125 42.805 11.782 43.463501 12.592 43.463501L 43.407997 43.463501C 44.218002 43.463501 44.875 42.805 44.875 41.994999ZM 30.2005 34.312C 30.2005 35.527302 29.215302 36.512501 28 36.512501C 26.784698 36.512501 25.7995 35.527302 25.7995 34.312L 25.7995 32.1115L 30.2005 32.1115L 30.2005 34.312Z"></path></g></g></g><g id="g-root-2_1d0ipph7jdg5i-stroke" data-item-order="1000000000" data-item-id="2_1d0ipph7jdg5i" data-item-class="Icon Stroke Indexed InsideFill InsideColorFill" data-item-index="2" data-renderer-id="0" transform="translate(146, 164)"><g id="2_1d0ipph7jdg5i-stroke" fill="none" stroke-linecap="round" stroke-linejoin="round" stroke-miterlimit="4" stroke="#3bc482" stroke-width="2"><g><path d="M 24.295 21.480999C 23.76746 22.677765 22.887938 23.685476 21.773499 24.369999L 23.258499 32.110001L 18.6175 32.110001L 17.300501 25.2265C 14.661958 24.767817 12.582741 22.723946 12.07889 20.093653C 11.57504 17.463362 12.751749 14.795795 15.034 13.3945L 15.9535 18.190001L 18.6175 19.997499L 20.424999 17.334999L 19.505501 12.538C 21.457653 12.876608 23.145168 14.095218 24.08057 15.84181C 25.015972 17.588402 25.095064 19.668417 24.295 21.480999ZM 34.788998 13.444C 34.3405 15.4615 31.967501 16.806999 28.7155 16.084L 28.080999 18.935499L 43.291 22.316502L 44.77 15.6625L 34.788998 13.444ZM 31.762001 32.110001L 34.378002 20.341L 38.7085 21.303999L 36.183998 32.1115L 31.762001 32.1115ZM 44.875 41.994999L 44.875 32.110001L 11.125 32.110001L 11.125 41.994999C 11.125 42.805 11.782 43.463501 12.592 43.463501L 43.407997 43.463501C 44.218002 43.463501 44.875 42.805 44.875 41.994999ZM 30.2005 34.312C 30.2005 35.527302 29.215302 36.512501 28 36.512501C 26.784698 36.512501 25.7995 35.527302 25.7995 34.312L 25.7995 32.1115L 30.2005 32.1115L 30.2005 34.312Z"></path></g></g></g><g id="g-root-tx_meilleur_1qd86917j9b0p-stroke" data-item-order="1000000000" data-item-id="tx_meilleur_1qd86917j9b0p" data-item-class="Label Stroke" data-item-index="none" data-renderer-id="0" transform="translate(530, 218)"></g><g id="g-root-tx_performa_zqxmlh7j9b0s-stroke" data-item-order="1000000000" data-item-id="tx_performa_zqxmlh7j9b0s" data-item-class="Label Stroke Indexed" data-item-index="3" data-renderer-id="0" transform="translate(2, 254)"></g><g id="g-root-tx_performa_zqxmlh7j9b0s-stroke" data-item-order="1000000000" data-item-id="tx_performa_zqxmlh7j9b0s" data-item-class="Label Stroke Indexed" data-item-index="3" data-renderer-id="0" transform="translate(2, 254)"></g><g id="g-root-48px_1hfpqqt7jdij1-stroke" data-item-order="1000000000" data-item-id="48px_1hfpqqt7jdij1" data-item-class="Icon Stroke Indexed InsideFill InsideColorFill" data-item-index="3" data-renderer-id="0" transform="translate(146, 248)"><g id="48px_1hfpqqt7jdij1-stroke" fill="none" stroke-linecap="round" stroke-linejoin="round" stroke-miterlimit="4" stroke="#93c131" stroke-width="2"><g><path d="M 31.214725 25.980257C 31.25725 25.814657 31.298424 25.645384 31.337049 25.47237C 32.038601 22.499201 32.55085 18.658577 31.69105 15.453086L 24.307526 15.453086C 23.447651 18.6598 23.959976 22.499201 24.661526 25.47237C 24.701426 25.645384 24.742599 25.813433 24.783775 25.980257C 24.823675 26.140888 24.864925 26.300297 24.904825 26.454809L 31.0912 26.454809C 31.132376 26.300297 31.17355 26.140888 31.212175 25.980257L 31.214725 25.980257ZM 27.99925 22.263184C 26.625851 22.263184 25.512402 21.194273 25.512402 19.875736C 25.512402 18.557272 26.625851 17.488361 27.99925 17.488361C 29.372725 17.488361 30.486176 18.557272 30.486176 19.875736C 30.486176 21.194273 29.372725 22.263184 27.99925 22.263184ZM 27.998875 17.488289C 26.625401 17.488289 25.51195 18.557201 25.51195 19.875736C 25.51195 21.194201 26.625401 22.263113 27.998875 22.263113C 29.372349 22.263113 30.4858 21.194201 30.4858 19.875736C 30.4858 18.557201 29.372349 17.488289 27.998875 17.488289ZM 28.010725 19.155952C 27.596199 19.155952 27.260275 19.478224 27.260275 19.875952C 27.260275 20.273609 27.596199 20.595953 28.010725 20.595953C 28.425249 20.595953 28.761175 20.273609 28.761175 19.875952C 28.761175 19.478224 28.425249 19.155952 28.010725 19.155952ZM 21.986799 27.881992L 21.986799 30.308969L 26.148399 30.308969C 26.148399 30.308969 26.1175 30.232361 26.062151 30.087786C 25.86775 29.579897 25.376049 28.234144 24.90625 26.454737C 24.502075 27.034266 23.621574 27.904242 21.986799 27.881992ZM 21.986725 26.59816L 19.080175 26.59816L 19.080175 30.309042L 20.533449 30.309042L 21.986725 30.309042L 21.986725 27.882065L 21.986725 26.59816ZM 21.986725 24.733215C 21.986725 23.962168 21.3367 23.338074 20.533449 23.338074C 19.730274 23.338074 19.080175 23.962168 19.080175 24.733215L 19.080175 24.981617L 21.986725 24.981617L 21.986725 24.733215ZM 19.080175 30.309042L 19.520426 31.647377L 20.533449 31.647377L 21.546474 31.647377L 21.986725 30.309042L 20.533449 30.309042L 19.080175 30.309042ZM 21.986725 24.981688L 19.080175 24.981688L 19.080175 26.599241L 21.986725 26.599241L 21.986725 24.981688ZM 26.313175 30.672424L 25.9669 31.763584C 25.920626 31.910608 26.035149 32.057632 26.193474 32.057632L 29.805401 32.057632C 29.965 32.057632 30.079601 31.909386 30.031975 31.763584L 29.685699 30.672424L 26.313175 30.672424ZM 34.013199 27.882065L 34.013199 30.309042L 35.466476 30.309042L 36.91975 30.309042L 36.91975 26.59816L 34.013199 26.59816L 34.013199 27.882065ZM 35.466476 23.338074C 34.663223 23.338074 34.013199 23.962168 34.013199 24.733215L 34.013199 24.981617L 36.91975 24.981617L 36.91975 24.733215C 36.91975 23.962168 36.26965 23.338074 35.466476 23.338074ZM 34.013199 30.309042L 34.453377 31.647377L 35.466476 31.647377L 36.4795 31.647377L 36.91975 30.309042L 35.466476 30.309042L 34.013199 30.309042ZM 36.91975 24.981688L 34.013199 24.981688L 34.013199 26.599241L 36.91975 26.599241L 36.91975 24.981688ZM 28.854099 11.458836C 28.390224 11.136462 27.613075 11.148853 27.147251 11.458836C 25.660524 12.47266 24.7801 13.879576 24.30895 15.455281L 31.692474 15.455281C 31.222601 13.879576 30.340824 12.47266 28.854099 11.458836ZM 34.013126 27.881992L 34.013126 30.308969L 29.851601 30.308969C 29.851601 30.308969 29.882423 30.232361 29.937775 30.087786C 30.132175 29.579897 30.623875 28.234144 31.09375 26.454737C 31.497925 27.034266 32.378349 27.904242 34.013126 27.881992ZM 27.9991 26.454737L 24.905876 26.454737C 25.37575 28.234144 25.867451 29.579897 26.061775 30.087786C 26.117125 30.231064 26.148026 30.307745 26.148026 30.307745L 27.9991 30.307745L 29.850101 30.307745C 29.850101 30.307745 29.881001 30.231064 29.93635 30.087786C 30.130676 29.579897 30.62245 28.234144 31.092249 26.454737L 27.9991 26.454737ZM 31.093449 35.279633C 31.093449 37.635258 29.503675 44.821362 28.091576 44.821362C 26.679474 44.821362 25.089701 37.635258 25.089701 35.279633C 25.089701 32.924007 26.185074 32.333538 28.091576 32.333538C 29.99815 32.333538 31.093449 32.924007 31.093449 35.279633ZM 29.591949 34.033241C 29.591949 35.392239 28.7971 39.538074 28.091051 39.538074C 27.385 39.538074 26.590075 35.392239 26.590075 34.033241C 26.590075 32.67424 27.1378 32.333538 28.091051 32.333538C 29.0443 32.333538 29.591949 32.67424 29.591949 34.033241Z"></path></g></g></g><g id="g-root-48px_1hfpqqt7jdij1-stroke" data-item-order="1000000000" data-item-id="48px_1hfpqqt7jdij1" data-item-class="Icon Stroke Indexed InsideFill InsideColorFill" data-item-index="3" data-renderer-id="0" transform="translate(146, 248)"><g id="48px_1hfpqqt7jdij1-stroke" fill="none" stroke-linecap="round" stroke-linejoin="round" stroke-miterlimit="4" stroke="#93c131" stroke-width="2"><g><path d="M 31.214725 25.980257C 31.25725 25.814657 31.298424 25.645384 31.337049 25.47237C 32.038601 22.499201 32.55085 18.658577 31.69105 15.453086L 24.307526 15.453086C 23.447651 18.6598 23.959976 22.499201 24.661526 25.47237C 24.701426 25.645384 24.742599 25.813433 24.783775 25.980257C 24.823675 26.140888 24.864925 26.300297 24.904825 26.454809L 31.0912 26.454809C 31.132376 26.300297 31.17355 26.140888 31.212175 25.980257L 31.214725 25.980257ZM 27.99925 22.263184C 26.625851 22.263184 25.512402 21.194273 25.512402 19.875736C 25.512402 18.557272 26.625851 17.488361 27.99925 17.488361C 29.372725 17.488361 30.486176 18.557272 30.486176 19.875736C 30.486176 21.194273 29.372725 22.263184 27.99925 22.263184ZM 27.998875 17.488289C 26.625401 17.488289 25.51195 18.557201 25.51195 19.875736C 25.51195 21.194201 26.625401 22.263113 27.998875 22.263113C 29.372349 22.263113 30.4858 21.194201 30.4858 19.875736C 30.4858 18.557201 29.372349 17.488289 27.998875 17.488289ZM 28.010725 19.155952C 27.596199 19.155952 27.260275 19.478224 27.260275 19.875952C 27.260275 20.273609 27.596199 20.595953 28.010725 20.595953C 28.425249 20.595953 28.761175 20.273609 28.761175 19.875952C 28.761175 19.478224 28.425249 19.155952 28.010725 19.155952ZM 21.986799 27.881992L 21.986799 30.308969L 26.148399 30.308969C 26.148399 30.308969 26.1175 30.232361 26.062151 30.087786C 25.86775 29.579897 25.376049 28.234144 24.90625 26.454737C 24.502075 27.034266 23.621574 27.904242 21.986799 27.881992ZM 21.986725 26.59816L 19.080175 26.59816L 19.080175 30.309042L 20.533449 30.309042L 21.986725 30.309042L 21.986725 27.882065L 21.986725 26.59816ZM 21.986725 24.733215C 21.986725 23.962168 21.3367 23.338074 20.533449 23.338074C 19.730274 23.338074 19.080175 23.962168 19.080175 24.733215L 19.080175 24.981617L 21.986725 24.981617L 21.986725 24.733215ZM 19.080175 30.309042L 19.520426 31.647377L 20.533449 31.647377L 21.546474 31.647377L 21.986725 30.309042L 20.533449 30.309042L 19.080175 30.309042ZM 21.986725 24.981688L 19.080175 24.981688L 19.080175 26.599241L 21.986725 26.599241L 21.986725 24.981688ZM 26.313175 30.672424L 25.9669 31.763584C 25.920626 31.910608 26.035149 32.057632 26.193474 32.057632L 29.805401 32.057632C 29.965 32.057632 30.079601 31.909386 30.031975 31.763584L 29.685699 30.672424L 26.313175 30.672424ZM 34.013199 27.882065L 34.013199 30.309042L 35.466476 30.309042L 36.91975 30.309042L 36.91975 26.59816L 34.013199 26.59816L 34.013199 27.882065ZM 35.466476 23.338074C 34.663223 23.338074 34.013199 23.962168 34.013199 24.733215L 34.013199 24.981617L 36.91975 24.981617L 36.91975 24.733215C 36.91975 23.962168 36.26965 23.338074 35.466476 23.338074ZM 34.013199 30.309042L 34.453377 31.647377L 35.466476 31.647377L 36.4795 31.647377L 36.91975 30.309042L 35.466476 30.309042L 34.013199 30.309042ZM 36.91975 24.981688L 34.013199 24.981688L 34.013199 26.599241L 36.91975 26.599241L 36.91975 24.981688ZM 28.854099 11.458836C 28.390224 11.136462 27.613075 11.148853 27.147251 11.458836C 25.660524 12.47266 24.7801 13.879576 24.30895 15.455281L 31.692474 15.455281C 31.222601 13.879576 30.340824 12.47266 28.854099 11.458836ZM 34.013126 27.881992L 34.013126 30.308969L 29.851601 30.308969C 29.851601 30.308969 29.882423 30.232361 29.937775 30.087786C 30.132175 29.579897 30.623875 28.234144 31.09375 26.454737C 31.497925 27.034266 32.378349 27.904242 34.013126 27.881992ZM 27.9991 26.454737L 24.905876 26.454737C 25.37575 28.234144 25.867451 29.579897 26.061775 30.087786C 26.117125 30.231064 26.148026 30.307745 26.148026 30.307745L 27.9991 30.307745L 29.850101 30.307745C 29.850101 30.307745 29.881001 30.231064 29.93635 30.087786C 30.130676 29.579897 30.62245 28.234144 31.092249 26.454737L 27.9991 26.454737ZM 31.093449 35.279633C 31.093449 37.635258 29.503675 44.821362 28.091576 44.821362C 26.679474 44.821362 25.089701 37.635258 25.089701 35.279633C 25.089701 32.924007 26.185074 32.333538 28.091576 32.333538C 29.99815 32.333538 31.093449 32.924007 31.093449 35.279633ZM 29.591949 34.033241C 29.591949 35.392239 28.7971 39.538074 28.091051 39.538074C 27.385 39.538074 26.590075 35.392239 26.590075 34.033241C 26.590075 32.67424 27.1378 32.333538 28.091051 32.333538C 29.0443 32.333538 29.591949 32.67424 29.591949 34.033241Z"></path></g></g></g><g id="g-root-2_1qbcqzp7jdhqb-stroke" data-item-order="1000000000" data-item-id="2_1qbcqzp7jdhqb" data-item-class="Icon Stroke InsideFill" data-item-index="none" data-renderer-id="0" transform="translate(458, 242)"><g id="2_1qbcqzp7jdhqb-stroke" fill="none" stroke-linecap="round" stroke-linejoin="round" stroke-miterlimit="4" stroke="#484848" stroke-width="2"><g><path d="M 32.285713 15.142858L 52.857143 15.142858C 52.857143 15.142858 56.285713 15.142858 56.285713 18.571428L 56.285713 32.285713C 56.285713 32.285713 56.285713 35.714287 52.857143 35.714287L 32.285713 35.714287C 32.285713 35.714287 28.857143 35.714287 28.857143 32.285713L 28.857143 18.571428C 28.857143 18.571428 28.857143 15.142858 32.285713 15.142858M 47.714287 44.285713L 23.714287 44.285713C 21.820738 44.285713 20.285715 42.750694 20.285715 40.857143L 20.285715 23.714287M 40.857143 52.857143L 15.142858 52.857143C 13.24931 52.857143 11.714286 51.322121 11.714286 49.428574L 11.714286 30.571428"></path></g></g></g><g id="g-root-2_1qbcqzp7jdhqb-stroke" data-item-order="1000000000" data-item-id="2_1qbcqzp7jdhqb" data-item-class="Icon Stroke InsideFill" data-item-index="none" data-renderer-id="0" transform="translate(458, 242)"><g id="2_1qbcqzp7jdhqb-stroke" fill="none" stroke-linecap="round" stroke-linejoin="round" stroke-miterlimit="4" stroke="#484848" stroke-width="2"><g><path d="M 32.285713 15.142858L 52.857143 15.142858C 52.857143 15.142858 56.285713 15.142858 56.285713 18.571428L 56.285713 32.285713C 56.285713 32.285713 56.285713 35.714287 52.857143 35.714287L 32.285713 35.714287C 32.285713 35.714287 28.857143 35.714287 28.857143 32.285713L 28.857143 18.571428C 28.857143 18.571428 28.857143 15.142858 32.285713 15.142858M 47.714287 44.285713L 23.714287 44.285713C 21.820738 44.285713 20.285715 42.750694 20.285715 40.857143L 20.285715 23.714287M 40.857143 52.857143L 15.142858 52.857143C 13.24931 52.857143 11.714286 51.322121 11.714286 49.428574L 11.714286 30.571428"></path></g></g></g><g id="g-root-tx_maintena_vbqlk57j98n9-stroke" data-item-order="1000000000" data-item-id="tx_maintena_vbqlk57j98n9" data-item-class="Label Stroke Indexed" data-item-index="2" data-renderer-id="0" transform="translate(2, 170)"></g><g id="g-root-tx_maintena_vbqlk57j98n9-stroke" data-item-order="1000000000" data-item-id="tx_maintena_vbqlk57j98n9" data-item-class="Label Stroke Indexed" data-item-index="2" data-renderer-id="0" transform="translate(2, 170)"></g><g id="g-root-tx_meilleur_mg3lb97j99fz-stroke" data-item-order="1000000000" data-item-id="tx_meilleur_mg3lb97j99fz" data-item-class="Label Stroke Title" data-item-index="none" data-renderer-id="0" transform="translate(104, 2)"></g><g id="g-root-2_1ur69457jdgy2-stroke" data-item-order="1000000000" data-item-id="2_1ur69457jdgy2" data-item-class="Icon Stroke Indexed Indexed_1 InsideFill InsideColorFill" data-item-index="1" data-renderer-id="0" transform="translate(146, 80)"><g id="2_1ur69457jdgy2-stroke" fill="none" stroke-linecap="round" stroke-linejoin="round" stroke-miterlimit="4" stroke="#17b0e3" stroke-width="2"><g><path d="M 18.25 25.75L 25.748499 25.75L 25.75 16.75M 24.296501 40.681C 17.996069 40.061256 12.764675 35.549286 11.22628 29.408203C 9.687884 23.267124 12.174368 16.821758 17.43856 13.30497C 22.702751 9.788181 29.609001 9.958653 34.693275 13.73088C 39.777546 17.503105 41.943008 24.063299 40.1035 30.120998M 45.25 45.25L 45.25 33.25C 41.107864 33.25 37.75 36.607864 37.75 40.75L 37.75 42.25L 45.25 42.25M 35.5 45.25L 27.25 45.25L 32.5 40.616501C 33.979 39.311501 35.110001 38.397999 34.6735 36.25C 34.286919 34.365509 32.537045 33.079201 30.623053 33.272575C 28.709063 33.465946 27.251837 35.076267 27.25 37"></path></g></g></g><g id="g-root-tx_fiabilit_vbqlk57j98na-stroke" data-item-order="1000000000" data-item-id="tx_fiabilit_vbqlk57j98na" data-item-class="Label Stroke Indexed Indexed_1" data-item-index="1" data-renderer-id="0" transform="translate(38, 86)"></g><g id="g-root-tx_fiabilit_vbqlk57j98na-stroke" data-item-order="1000000000" data-item-id="tx_fiabilit_vbqlk57j98na" data-item-class="Label Stroke Indexed Indexed_1" data-item-index="1" data-renderer-id="0" transform="translate(38, 86)"></g><g id="g-root-sear_1qbcqzp7jdhqc-stroke" data-item-order="1000000000" data-item-id="sear_1qbcqzp7jdhqc" data-item-class="Icon Stroke Indexed InsideFill InsideColorFill" data-item-index="5" data-renderer-id="0" transform="translate(146, 416)"><g id="sear_1qbcqzp7jdhqc-stroke" fill="none" stroke-linecap="round" stroke-linejoin="round" stroke-miterlimit="4" stroke="#dd8433" stroke-width="2"><g><path d="M 36.3745 36.338501L 45.308498 45.272499M 10.75 25.75C 10.75 34.034271 17.465729 40.75 25.75 40.75C 34.034271 40.75 40.75 34.034271 40.75 25.75C 40.75 17.465729 34.034271 10.75 25.75 10.75C 17.465729 10.75 10.75 17.465729 10.75 25.75ZM 30.308498 30.272501C 30.3085 32.757782 28.293781 34.772503 25.8085 34.772503C 23.323219 34.772503 21.3085 32.757782 21.3085 30.272501L 21.3085 22.772501L 30.308498 22.772501ZM 30.308498 22.772501C 30.3085 20.28722 28.293781 18.272501 25.8085 18.272501C 23.323219 18.272501 21.3085 20.28722 21.3085 22.772501ZM 34.058498 31.022501C 31.987432 31.022501 30.3085 29.343567 30.3085 27.272501C 30.3085 25.201431 31.987432 23.522501 34.058498 23.522501M 34.058498 27.272501L 30.308498 27.272501M 17.5585 31.022501C 19.629568 31.022501 21.3085 29.343567 21.3085 27.272501C 21.3085 25.201431 19.629568 23.522501 17.5585 23.522501M 17.5585 27.272501L 21.3085 27.272501M 30.308498 16.022499C 30.309746 17.314371 29.754425 18.544167 28.7845 19.397501M 22.8325 19.397499C 21.862253 18.544405 21.306864 17.314453 21.3085 16.022499"></path></g></g></g><g id="g-root-tx_scurit_18mkmud7j9a83-stroke" data-item-order="1000000000" data-item-id="tx_scurit_18mkmud7j9a83" data-item-class="Label Stroke Indexed" data-item-index="4" data-renderer-id="0" transform="translate(38, 338)"></g><g id="g-root-tx_scurit_18mkmud7j9a83-stroke" data-item-order="1000000000" data-item-id="tx_scurit_18mkmud7j9a83" data-item-class="Label Stroke Indexed" data-item-index="4" data-renderer-id="0" transform="translate(38, 338)"></g><g id="g-root-safe_144vpgl7jdgy7-stroke" data-item-order="1000000000" data-item-id="safe_144vpgl7jdgy7" data-item-class="Icon Stroke Indexed InsideFill InsideColorFill" data-item-index="4" data-renderer-id="0" transform="translate(146, 332)"><g id="safe_144vpgl7jdgy7-stroke" fill="none" stroke-linecap="round" stroke-linejoin="round" stroke-miterlimit="4" stroke="#e3cd09" stroke-width="2"><g><path d="M 17.5 28C 17.5 33.798988 22.201012 38.5 28.000002 38.5C 33.798988 38.5 38.5 33.798988 38.5 28.000002C 38.5 22.201012 33.798988 17.5 28.000002 17.5C 22.201012 17.5 17.5 22.201012 17.5 28.000002ZM 22 19.3885L 22 36.615997M 28 17.5L 28 38.5M 34 19.381001L 34 36.615997M 28 13.75C 28.207108 13.75 28.375 13.917893 28.375 14.125M 27.625 14.125C 27.625 13.917893 27.792892 13.75 28 13.75M 28 14.5C 27.792892 14.5 27.625 14.332107 27.625 14.125M 28.375 14.125C 28.375 14.332107 28.207108 14.5 28 14.5M 42.25 28C 42.25 28.207108 42.082108 28.375 41.875 28.375M 41.875 27.625C 42.082108 27.625 42.25 27.792892 42.25 28M 41.5 28C 41.5 27.792892 41.667892 27.625 41.875 27.625M 41.875 28.375C 41.667892 28.375 41.5 28.207108 41.5 28M 28 42.25C 27.793234 42.249176 27.62582 42.081764 27.625 41.875M 28.375 41.875C 28.375 42.082108 28.207108 42.25 28 42.25M 28 41.5C 28.207108 41.5 28.375 41.667892 28.375 41.875M 27.625 41.875C 27.62582 41.668236 27.793234 41.50082 28 41.5M 13.75 28C 13.75 27.792892 13.917893 27.625 14.125 27.625M 14.125 28.375C 13.917893 28.375 13.75 28.207108 13.75 28M 14.5 28C 14.5 28.207108 14.332107 28.375 14.125 28.375M 14.125 27.625C 14.332107 27.625 14.5 27.792892 14.5 28M 17.923 17.9245C 17.993353 17.85397 18.088879 17.814329 18.188499 17.814329C 18.28812 17.814329 18.383648 17.85397 18.454 17.9245M 17.923 18.454C 17.777105 18.30765 17.777105 18.07085 17.923 17.9245M 18.454 18.454C 18.383648 18.524532 18.28812 18.564171 18.188499 18.564171C 18.088879 18.564171 17.993353 18.524532 17.923 18.454M 18.454 17.9245C 18.599894 18.07085 18.599894 18.30765 18.454 18.454M 38.0755 17.923C 38.14603 17.993353 38.185669 18.088879 38.185669 18.188499C 38.185669 18.28812 38.14603 18.383648 38.0755 18.454M 37.546001 17.923C 37.692352 17.777105 37.92915 17.777105 38.0755 17.923M 37.546001 18.454C 37.475468 18.383648 37.435829 18.28812 37.435829 18.188499C 37.435829 18.088879 37.475468 17.993353 37.546001 17.923M 38.0755 18.454C 37.92915 18.599894 37.692352 18.599894 37.546001 18.454M 38.077 38.0755C 37.930138 38.221569 37.692863 38.221569 37.546001 38.0755M 38.077 37.546001C 38.222893 37.692352 38.222893 37.92915 38.077 38.0755M 37.546001 37.546001C 37.616352 37.475468 37.71188 37.435829 37.811501 37.435829C 37.911121 37.435829 38.006649 37.475468 38.077 37.546001M 37.546001 38.0755C 37.400105 37.92915 37.400105 37.692352 37.546001 37.546001M 17.9245 38.077C 17.85397 38.006649 17.814329 37.911121 17.814329 37.811501C 17.814329 37.71188 17.85397 37.616352 17.9245 37.546001M 18.454 38.077C 18.30765 38.222893 18.07085 38.222893 17.9245 38.077M 18.454 37.546001C 18.524532 37.616352 18.564171 37.71188 18.564171 37.811501C 18.564171 37.911121 18.524532 38.006649 18.454 38.077M 17.9245 37.546001C 18.07085 37.400105 18.30765 37.400105 18.454 37.546001M 10.75 28C 10.75 37.526913 18.473087 45.25 28 45.25C 37.526913 45.25 45.25 37.526913 45.25 28C 45.25 18.473087 37.526913 10.75 28 10.75C 18.473087 10.75 10.75 18.473087 10.75 28Z"></path></g></g></g><g id="g-root-safe_144vpgl7jdgy7-stroke" data-item-order="1000000000" data-item-id="safe_144vpgl7jdgy7" data-item-class="Icon Stroke Indexed InsideFill InsideColorFill" data-item-index="4" data-renderer-id="0" transform="translate(146, 332)"><g id="safe_144vpgl7jdgy7-stroke" fill="none" stroke-linecap="round" stroke-linejoin="round" stroke-miterlimit="4" stroke="#e3cd09" stroke-width="2"><g><path d="M 17.5 28C 17.5 33.798988 22.201012 38.5 28.000002 38.5C 33.798988 38.5 38.5 33.798988 38.5 28.000002C 38.5 22.201012 33.798988 17.5 28.000002 17.5C 22.201012 17.5 17.5 22.201012 17.5 28.000002ZM 22 19.3885L 22 36.615997M 28 17.5L 28 38.5M 34 19.381001L 34 36.615997M 28 13.75C 28.207108 13.75 28.375 13.917893 28.375 14.125M 27.625 14.125C 27.625 13.917893 27.792892 13.75 28 13.75M 28 14.5C 27.792892 14.5 27.625 14.332107 27.625 14.125M 28.375 14.125C 28.375 14.332107 28.207108 14.5 28 14.5M 42.25 28C 42.25 28.207108 42.082108 28.375 41.875 28.375M 41.875 27.625C 42.082108 27.625 42.25 27.792892 42.25 28M 41.5 28C 41.5 27.792892 41.667892 27.625 41.875 27.625M 41.875 28.375C 41.667892 28.375 41.5 28.207108 41.5 28M 28 42.25C 27.793234 42.249176 27.62582 42.081764 27.625 41.875M 28.375 41.875C 28.375 42.082108 28.207108 42.25 28 42.25M 28 41.5C 28.207108 41.5 28.375 41.667892 28.375 41.875M 27.625 41.875C 27.62582 41.668236 27.793234 41.50082 28 41.5M 13.75 28C 13.75 27.792892 13.917893 27.625 14.125 27.625M 14.125 28.375C 13.917893 28.375 13.75 28.207108 13.75 28M 14.5 28C 14.5 28.207108 14.332107 28.375 14.125 28.375M 14.125 27.625C 14.332107 27.625 14.5 27.792892 14.5 28M 17.923 17.9245C 17.993353 17.85397 18.088879 17.814329 18.188499 17.814329C 18.28812 17.814329 18.383648 17.85397 18.454 17.9245M 17.923 18.454C 17.777105 18.30765 17.777105 18.07085 17.923 17.9245M 18.454 18.454C 18.383648 18.524532 18.28812 18.564171 18.188499 18.564171C 18.088879 18.564171 17.993353 18.524532 17.923 18.454M 18.454 17.9245C 18.599894 18.07085 18.599894 18.30765 18.454 18.454M 38.0755 17.923C 38.14603 17.993353 38.185669 18.088879 38.185669 18.188499C 38.185669 18.28812 38.14603 18.383648 38.0755 18.454M 37.546001 17.923C 37.692352 17.777105 37.92915 17.777105 38.0755 17.923M 37.546001 18.454C 37.475468 18.383648 37.435829 18.28812 37.435829 18.188499C 37.435829 18.088879 37.475468 17.993353 37.546001 17.923M 38.0755 18.454C 37.92915 18.599894 37.692352 18.599894 37.546001 18.454M 38.077 38.0755C 37.930138 38.221569 37.692863 38.221569 37.546001 38.0755M 38.077 37.546001C 38.222893 37.692352 38.222893 37.92915 38.077 38.0755M 37.546001 37.546001C 37.616352 37.475468 37.71188 37.435829 37.811501 37.435829C 37.911121 37.435829 38.006649 37.475468 38.077 37.546001M 37.546001 38.0755C 37.400105 37.92915 37.400105 37.692352 37.546001 37.546001M 17.9245 38.077C 17.85397 38.006649 17.814329 37.911121 17.814329 37.811501C 17.814329 37.71188 17.85397 37.616352 17.9245 37.546001M 18.454 38.077C 18.30765 38.222893 18.07085 38.222893 17.9245 38.077M 18.454 37.546001C 18.524532 37.616352 18.564171 37.71188 18.564171 37.811501C 18.564171 37.911121 18.524532 38.006649 18.454 38.077M 17.9245 37.546001C 18.07085 37.400105 18.30765 37.400105 18.454 37.546001M 10.75 28C 10.75 37.526913 18.473087 45.25 28 45.25C 37.526913 45.25 45.25 37.526913 45.25 28C 45.25 18.473087 37.526913 10.75 28 10.75C 18.473087 10.75 10.75 18.473087 10.75 28Z"></path></g></g></g><g id="g-root-tx_meilleur_mg3lb97j99fz-stroke" data-item-order="1000000000" data-item-id="tx_meilleur_mg3lb97j99fz" data-item-class="Label Stroke Title" data-item-index="none" data-renderer-id="0" transform="translate(104, 2)"></g><g id="g-root-tx_testabil_18mkmud7j9a82-stroke" data-item-order="1000000000" data-item-id="tx_testabil_18mkmud7j9a82" data-item-class="Label Stroke Indexed" data-item-index="5" data-renderer-id="0" transform="translate(26, 422)"></g><g id="g-root-tx_testabil_18mkmud7j9a82-stroke" data-item-order="1000000000" data-item-id="tx_testabil_18mkmud7j9a82" data-item-class="Label Stroke Indexed" data-item-index="5" data-renderer-id="0" transform="translate(26, 422)"></g><g id="g-root-sear_1qbcqzp7jdhqc-stroke" data-item-order="1000000000" data-item-id="sear_1qbcqzp7jdhqc" data-item-class="Icon Stroke Indexed InsideFill InsideColorFill" data-item-index="5" data-renderer-id="0" transform="translate(146, 416)"><g id="sear_1qbcqzp7jdhqc-stroke" fill="none" stroke-linecap="round" stroke-linejoin="round" stroke-miterlimit="4" stroke="#dd8433" stroke-width="2"><g><path d="M 36.3745 36.338501L 45.308498 45.272499M 10.75 25.75C 10.75 34.034271 17.465729 40.75 25.75 40.75C 34.034271 40.75 40.75 34.034271 40.75 25.75C 40.75 17.465729 34.034271 10.75 25.75 10.75C 17.465729 10.75 10.75 17.465729 10.75 25.75ZM 30.308498 30.272501C 30.3085 32.757782 28.293781 34.772503 25.8085 34.772503C 23.323219 34.772503 21.3085 32.757782 21.3085 30.272501L 21.3085 22.772501L 30.308498 22.772501ZM 30.308498 22.772501C 30.3085 20.28722 28.293781 18.272501 25.8085 18.272501C 23.323219 18.272501 21.3085 20.28722 21.3085 22.772501ZM 34.058498 31.022501C 31.987432 31.022501 30.3085 29.343567 30.3085 27.272501C 30.3085 25.201431 31.987432 23.522501 34.058498 23.522501M 34.058498 27.272501L 30.308498 27.272501M 17.5585 31.022501C 19.629568 31.022501 21.3085 29.343567 21.3085 27.272501C 21.3085 25.201431 19.629568 23.522501 17.5585 23.522501M 17.5585 27.272501L 21.3085 27.272501M 30.308498 16.022499C 30.309746 17.314371 29.754425 18.544167 28.7845 19.397501M 22.8325 19.397499C 21.862253 18.544405 21.306864 17.314453 21.3085 16.022499"></path></g></g></g><g id="g-root-tx_meilleur_1qd86917j9b0p-stroke" data-item-order="1000000000" data-item-id="tx_meilleur_1qd86917j9b0p" data-item-class="Label Stroke" data-item-index="none" data-renderer-id="0" transform="translate(530, 218)"></g><g id="g-root-2_1ur69457jdgy2-stroke" data-item-order="1000000000" data-item-id="2_1ur69457jdgy2" data-item-class="Icon Stroke Indexed Indexed_1 InsideFill InsideColorFill" data-item-index="1" data-renderer-id="0" transform="translate(146, 80)"><g id="2_1ur69457jdgy2-stroke" fill="none" stroke-linecap="round" stroke-linejoin="round" stroke-miterlimit="4" stroke="#17b0e3" stroke-width="2"><g><path d="M 18.25 25.75L 25.748499 25.75L 25.75 16.75M 24.296501 40.681C 17.996069 40.061256 12.764675 35.549286 11.22628 29.408203C 9.687884 23.267124 12.174368 16.821758 17.43856 13.30497C 22.702751 9.788181 29.609001 9.958653 34.693275 13.73088C 39.777546 17.503105 41.943008 24.063299 40.1035 30.120998M 45.25 45.25L 45.25 33.25C 41.107864 33.25 37.75 36.607864 37.75 40.75L 37.75 42.25L 45.25 42.25M 35.5 45.25L 27.25 45.25L 32.5 40.616501C 33.979 39.311501 35.110001 38.397999 34.6735 36.25C 34.286919 34.365509 32.537045 33.079201 30.623053 33.272575C 28.709063 33.465946 27.251837 35.076267 27.25 37"></path></g></g></g></g></g></svg>