<?xml version="1.0" encoding="utf-8" standalone="yes"?>
<!DOCTYPE svg PUBLIC "-//W3C//DTD SVG 1.1//EN" "http://www.w3.org/Graphics/SVG/1.1/DTD/svg11.dtd">
<svg width="804" height="337" viewBox="0 0 804 337" style="fill:none;stroke:none;fill-rule:evenodd;clip-rule:evenodd;stroke-linecap:round;stroke-linejoin:round;stroke-miterlimit:1.5;" version="1.1" xmlns="http://www.w3.org/2000/svg" xmlns:xlink="http://www.w3.org/1999/xlink"><style id="fontImports">@import url("https://fonts.googleapis.com/css2?family=Roboto:wght@400;700&amp;display=block");</style><rect id="" x="0" y="0" width="804" height="337" style="fill: #ffffff;"></rect><g id="items" style="isolation: isolate"><g id="blend" style="mix-blend-mode:normal"><g id="g-root--1.cu_sy_1d147x22974lj-fill" data-item-order="999909284" data-item-id="-1.cu_sy_1d147x22974lj" data-item-class="Part Fill Stroke ColorFillGray ColorStrokeGray" data-item-index="-1" data-renderer-id="0" transform="translate(229, 62)"></g><g id="g-root--1.cu_sy_1d147x22974lj-fill" data-item-order="999909284" data-item-id="-1.cu_sy_1d147x22974lj" data-item-class="Part Fill Stroke ColorFillGray ColorStrokeGray" data-item-index="-1" data-renderer-id="0" transform="translate(229, 62)"></g><g id="g-root-0.line-start_sy_18lapsm2975ds-fill" data-item-order="999909287" data-item-id="0.line-start_sy_18lapsm2975ds" data-item-class="Curve Stroke Part Indexed_0 ColorFillGray ColorStrokeBlack" data-item-index="0" data-renderer-id="0" transform="translate(188, 164)"></g><g id="g-root-0.line-start_sy_18lapsm2975ds-fill" data-item-order="999909287" data-item-id="0.line-start_sy_18lapsm2975ds" data-item-class="Curve Stroke Part Indexed_0 ColorFillGray ColorStrokeBlack" data-item-index="0" data-renderer-id="0" transform="translate(188, 164)"></g><g id="g-root-4.line_sy_zpnpjq29766k-fill" data-item-order="999909289" data-item-id="4.line_sy_zpnpjq29766k" data-item-class="Curve Stroke Part Indexed ColorFillGray" data-item-index="4" data-renderer-id="0" transform="translate(298.5, 164)"></g><g id="g-root-4.line_sy_zpnpjq29766k-fill" data-item-order="999909289" data-item-id="4.line_sy_zpnpjq29766k" data-item-class="Curve Stroke Part Indexed ColorFillGray" data-item-index="4" data-renderer-id="0" transform="translate(298.5, 164)"></g><g id="g-root-3.line_sy_zpnpjq29766j-fill" data-item-order="999909291" data-item-id="3.line_sy_zpnpjq29766j" data-item-class="Curve Stroke Part Indexed ColorFillGray" data-item-index="3" data-renderer-id="0" transform="translate(299, 164)"></g><g id="g-root-3.line_sy_zpnpjq29766j-fill" data-item-order="999909291" data-item-id="3.line_sy_zpnpjq29766j" data-item-class="Curve Stroke Part Indexed ColorFillGray" data-item-index="3" data-renderer-id="0" transform="translate(299, 164)"></g><g id="g-root-2.line_sy_18lapsm2975du-fill" data-item-order="999909293" data-item-id="2.line_sy_18lapsm2975du" data-item-class="Curve Stroke Part Indexed ColorFillGray" data-item-index="2" data-renderer-id="0" transform="translate(298.5, 122)"></g><g id="g-root-2.line_sy_18lapsm2975du-fill" data-item-order="999909293" data-item-id="2.line_sy_18lapsm2975du" data-item-class="Curve Stroke Part Indexed ColorFillGray" data-item-index="2" data-renderer-id="0" transform="translate(298.5, 122)"></g><g id="g-root-1.line_sy_18lapsm2975dt-fill" data-item-order="999909295" data-item-id="1.line_sy_18lapsm2975dt" data-item-class="Curve Stroke Part Indexed Indexed_1 ColorFillGray" data-item-index="1" data-renderer-id="0" transform="translate(298.5, 38)"></g><g id="g-root-1.line_sy_18lapsm2975dt-fill" data-item-order="999909295" data-item-id="1.line_sy_18lapsm2975dt" data-item-class="Curve Stroke Part Indexed Indexed_1 ColorFillGray" data-item-index="1" data-renderer-id="0" transform="translate(298.5, 38)"></g><g id="g-root-data_hx4qvq29bc3p-fill" data-item-order="1000000000" data-item-id="data_hx4qvq29bc3p" data-item-class="Icon Stroke Indexed" data-item-index="2" data-renderer-id="0" transform="translate(566, 98)"></g><g id="g-root-data_hx4qvq29bc3p-fill" data-item-order="1000000000" data-item-id="data_hx4qvq29bc3p" data-item-class="Icon Stroke Indexed" data-item-index="2" data-renderer-id="0" transform="translate(566, 98)"></g><g id="g-root-tx_gestiond_1qby97a29766d-fill" data-item-order="1000000000" data-item-id="tx_gestiond_1qby97a29766d" data-item-class="Label Stroke Indexed ColorStrokeBlack" data-item-index="2" data-renderer-id="0" transform="translate(626, 110)"><g id="tx_gestiond_1qby97a29766d-fill" stroke="none" fill="#484848"><g><text style="font: 20px Roboto, sans-serif; white-space: pre;" font-weight="20px" font-size="Roboto," font-family="sans-serif"><tspan x="12" y="33.75" dominant-baseline="ideographic">Gestion de l'état</tspan></text></g></g></g><g id="g-root-tx_gestiond_1qby97a29766d-fill" data-item-order="1000000000" data-item-id="tx_gestiond_1qby97a29766d" data-item-class="Label Stroke Indexed ColorStrokeBlack" data-item-index="2" data-renderer-id="0" transform="translate(626, 110)"><g id="tx_gestiond_1qby97a29766d-fill" stroke="none" fill="#484848"><g><text style="font: 20px Roboto, sans-serif; white-space: pre;" font-weight="20px" font-size="Roboto," font-family="sans-serif"><tspan x="12" y="33.75" dominant-baseline="ideographic">Gestion de l'état</tspan></text></g></g></g><g id="g-root-tx_interact_1urrrbq2975e3-fill" data-item-order="1000000000" data-item-id="tx_interact_1urrrbq2975e3" data-item-class="Label Stroke Indexed ColorStrokeBlack" data-item-index="4" data-renderer-id="0" transform="translate(626, 266)"><g id="tx_interact_1urrrbq2975e3-fill" stroke="none" fill="#484848"><g><text style="font: 20px Roboto, sans-serif; white-space: pre;" font-weight="20px" font-size="Roboto," font-family="sans-serif"><tspan x="12" y="33.75" dominant-baseline="ideographic">Interaction avec </tspan><tspan x="12" y="57.75" dominant-baseline="ideographic">l'application</tspan></text></g></g></g><g id="g-root-tx_couchepr_4mapli2974si-fill" data-item-order="1000000000" data-item-id="tx_couchepr_4mapli2974si" data-item-class="Label Stroke ColorStrokeBlack" data-item-index="none" data-renderer-id="0" transform="translate(2, 140)"><g id="tx_couchepr_4mapli2974si-fill" stroke="none" fill="#484848"><g><text style="font: 20px Roboto, sans-serif; white-space: pre;" font-weight="20px" font-size="Roboto," font-family="sans-serif"><tspan x="60.46" y="33.75" dominant-baseline="ideographic">Couche </tspan><tspan x="15.01" y="57.75" dominant-baseline="ideographic">Présentation</tspan></text></g></g></g><g id="g-root-tx_couchepr_4mapli2974si-fill" data-item-order="1000000000" data-item-id="tx_couchepr_4mapli2974si" data-item-class="Label Stroke ColorStrokeBlack" data-item-index="none" data-renderer-id="0" transform="translate(2, 140)"><g id="tx_couchepr_4mapli2974si-fill" stroke="none" fill="#484848"><g><text style="font: 20px Roboto, sans-serif; white-space: pre;" font-weight="20px" font-size="Roboto," font-family="sans-serif"><tspan x="60.46" y="33.75" dominant-baseline="ideographic">Couche </tspan><tspan x="15.01" y="57.75" dominant-baseline="ideographic">Présentation</tspan></text></g></g></g><g id="g-root-fron_1ha2i3a299xq9-fill" data-item-order="1000000000" data-item-id="fron_1ha2i3a299xq9" data-item-class="Icon Stroke ColorStrokeBlack" data-item-index="none" data-renderer-id="0" transform="translate(134, 140)"></g><g id="g-root-fron_1ha2i3a299xq9-fill" data-item-order="1000000000" data-item-id="fron_1ha2i3a299xq9" data-item-class="Icon Stroke ColorStrokeBlack" data-item-index="none" data-renderer-id="0" transform="translate(134, 140)"></g><g id="g-root-tx_gestiond_1hgxq1i2973ta-fill" data-item-order="1000000000" data-item-id="tx_gestiond_1hgxq1i2973ta" data-item-class="Label Stroke Indexed Indexed_1 ColorStrokeBlack" data-item-index="1" data-renderer-id="0" transform="translate(626, 2)"><g id="tx_gestiond_1hgxq1i2973ta-fill" stroke="none" fill="#484848"><g><text style="font: 20px Roboto, sans-serif; white-space: pre;" font-weight="20px" font-size="Roboto," font-family="sans-serif"><tspan x="12" y="33.75" dominant-baseline="ideographic">Gestion de </tspan><tspan x="12" y="57.75" dominant-baseline="ideographic">l'interface </tspan><tspan x="12" y="81.75" dominant-baseline="ideographic">utilisateur</tspan></text></g></g></g><g id="g-root-tx_gestiond_1hgxq1i2973ta-fill" data-item-order="1000000000" data-item-id="tx_gestiond_1hgxq1i2973ta" data-item-class="Label Stroke Indexed Indexed_1 ColorStrokeBlack" data-item-index="1" data-renderer-id="0" transform="translate(626, 2)"><g id="tx_gestiond_1hgxq1i2973ta-fill" stroke="none" fill="#484848"><g><text style="font: 20px Roboto, sans-serif; white-space: pre;" font-weight="20px" font-size="Roboto," font-family="sans-serif"><tspan x="12" y="33.75" dominant-baseline="ideographic">Gestion de </tspan><tspan x="12" y="57.75" dominant-baseline="ideographic">l'interface </tspan><tspan x="12" y="81.75" dominant-baseline="ideographic">utilisateur</tspan></text></g></g></g><g id="g-root-5_1upwc2e299ypw-fill" data-item-order="1000000000" data-item-id="5_1upwc2e299ypw" data-item-class="Icon Stroke Indexed Indexed_1" data-item-index="1" data-renderer-id="0" transform="translate(566, 14)"></g><g id="g-root-arro_1q87eom29bdvz-fill" data-item-order="1000000000" data-item-id="arro_1q87eom29bdvz" data-item-class="Icon Stroke Indexed" data-item-index="3" data-renderer-id="0" transform="translate(566, 182)"></g><g id="g-root-arro_1q87eom29bdvz-fill" data-item-order="1000000000" data-item-id="arro_1q87eom29bdvz" data-item-class="Icon Stroke Indexed" data-item-index="3" data-renderer-id="0" transform="translate(566, 182)"></g><g id="g-root-tx_navigati_1qby97a29766c-fill" data-item-order="1000000000" data-item-id="tx_navigati_1qby97a29766c" data-item-class="Label Stroke Indexed ColorStrokeBlack" data-item-index="3" data-renderer-id="0" transform="translate(626, 194)"><g id="tx_navigati_1qby97a29766c-fill" stroke="none" fill="#484848"><g><text style="font: 20px Roboto, sans-serif; white-space: pre;" font-weight="20px" font-size="Roboto," font-family="sans-serif"><tspan x="12" y="33.75" dominant-baseline="ideographic">Navigation</tspan></text></g></g></g><g id="g-root-tx_navigati_1qby97a29766c-fill" data-item-order="1000000000" data-item-id="tx_navigati_1qby97a29766c" data-item-class="Label Stroke Indexed ColorStrokeBlack" data-item-index="3" data-renderer-id="0" transform="translate(626, 194)"><g id="tx_navigati_1qby97a29766c-fill" stroke="none" fill="#484848"><g><text style="font: 20px Roboto, sans-serif; white-space: pre;" font-weight="20px" font-size="Roboto," font-family="sans-serif"><tspan x="12" y="33.75" dominant-baseline="ideographic">Navigation</tspan></text></g></g></g><g id="g-root-appl_1lt0dna29bbig-fill" data-item-order="1000000000" data-item-id="appl_1lt0dna29bbig" data-item-class="Icon Stroke Indexed" data-item-index="4" data-renderer-id="0" transform="translate(566, 266)"></g><g id="g-root-appl_1lt0dna29bbig-fill" data-item-order="1000000000" data-item-id="appl_1lt0dna29bbig" data-item-class="Icon Stroke Indexed" data-item-index="4" data-renderer-id="0" transform="translate(566, 266)"></g><g id="g-root-tx_interact_1urrrbq2975e3-fill" data-item-order="1000000000" data-item-id="tx_interact_1urrrbq2975e3" data-item-class="Label Stroke Indexed ColorStrokeBlack" data-item-index="4" data-renderer-id="0" transform="translate(626, 266)"><g id="tx_interact_1urrrbq2975e3-fill" stroke="none" fill="#484848"><g><text style="font: 20px Roboto, sans-serif; white-space: pre;" font-weight="20px" font-size="Roboto," font-family="sans-serif"><tspan x="12" y="33.75" dominant-baseline="ideographic">Interaction avec </tspan><tspan x="12" y="57.75" dominant-baseline="ideographic">l'application</tspan></text></g></g></g><g id="g-root-5_1upwc2e299ypw-fill" data-item-order="1000000000" data-item-id="5_1upwc2e299ypw" data-item-class="Icon Stroke Indexed Indexed_1" data-item-index="1" data-renderer-id="0" transform="translate(566, 14)"></g><g id="g-root--1.cu_sy_1d147x22974lj-stroke" data-item-order="999909284" data-item-id="-1.cu_sy_1d147x22974lj" data-item-class="Part Fill Stroke ColorFillGray ColorStrokeGray" data-item-index="-1" data-renderer-id="0" transform="translate(229, 62)"><g id="-1.cu_sy_1d147x22974lj-stroke" fill="none" stroke-linecap="round" stroke-linejoin="round" stroke-miterlimit="4" stroke="#888888" stroke-width="2"><g><path d="M 125 34L 101 10L 10 166L 34 190L 125 34ZM 125 34L 34 190L 216 190L 125 34Z"></path></g></g></g><g id="g-root--1.cu_sy_1d147x22974lj-stroke" data-item-order="999909284" data-item-id="-1.cu_sy_1d147x22974lj" data-item-class="Part Fill Stroke ColorFillGray ColorStrokeGray" data-item-index="-1" data-renderer-id="0" transform="translate(229, 62)"><g id="-1.cu_sy_1d147x22974lj-stroke" fill="none" stroke-linecap="round" stroke-linejoin="round" stroke-miterlimit="4" stroke="#888888" stroke-width="2"><g><path d="M 125 34L 101 10L 10 166L 34 190L 125 34ZM 125 34L 34 190L 216 190L 125 34Z"></path></g></g></g><g id="g-root-0.line-start_sy_18lapsm2975ds-stroke" data-item-order="999909287" data-item-id="0.line-start_sy_18lapsm2975ds" data-item-class="Curve Stroke Part Indexed_0 ColorFillGray ColorStrokeBlack" data-item-index="0" data-renderer-id="0" transform="translate(188, 164)"><g id="0.line-start_sy_18lapsm2975ds-stroke" fill="none" stroke-linecap="round" stroke-linejoin="round" stroke-miterlimit="4" stroke="#484848" stroke-width="2"><g><path d="M 10 10L 120.5 10"></path></g></g></g><g id="g-root-0.line-start_sy_18lapsm2975ds-stroke" data-item-order="999909287" data-item-id="0.line-start_sy_18lapsm2975ds" data-item-class="Curve Stroke Part Indexed_0 ColorFillGray ColorStrokeBlack" data-item-index="0" data-renderer-id="0" transform="translate(188, 164)"><g id="0.line-start_sy_18lapsm2975ds-stroke" fill="none" stroke-linecap="round" stroke-linejoin="round" stroke-miterlimit="4" stroke="#484848" stroke-width="2"><g><path d="M 10 10L 120.5 10"></path></g></g></g><g id="g-root-4.line_sy_zpnpjq29766k-stroke" data-item-order="999909289" data-item-id="4.line_sy_zpnpjq29766k" data-item-class="Curve Stroke Part Indexed ColorFillGray" data-item-index="4" data-renderer-id="0" transform="translate(298.5, 164)"><g id="4.line_sy_zpnpjq29766k-stroke" fill="none" stroke-linecap="round" stroke-linejoin="round" stroke-miterlimit="4" stroke="#da5da8" stroke-width="2"><g><path d="M 257.88 134.82L 111.5 28L 10 10"></path><path d="M 249.2 136.5L 258.3 135.1L 256.9 126" stroke-dasharray="none"></path></g></g></g><g id="g-root-4.line_sy_zpnpjq29766k-stroke" data-item-order="999909289" data-item-id="4.line_sy_zpnpjq29766k" data-item-class="Curve Stroke Part Indexed ColorFillGray" data-item-index="4" data-renderer-id="0" transform="translate(298.5, 164)"><g id="4.line_sy_zpnpjq29766k-stroke" fill="none" stroke-linecap="round" stroke-linejoin="round" stroke-miterlimit="4" stroke="#da5da8" stroke-width="2"><g><path d="M 257.88 134.82L 111.5 28L 10 10"></path><path d="M 249.2 136.5L 258.3 135.1L 256.9 126" stroke-dasharray="none"></path></g></g></g><g id="g-root-3.line_sy_zpnpjq29766j-stroke" data-item-order="999909291" data-item-id="3.line_sy_zpnpjq29766j" data-item-class="Curve Stroke Part Indexed ColorFillGray" data-item-index="3" data-renderer-id="0" transform="translate(299, 164)"><g id="3.line_sy_zpnpjq29766j-stroke" fill="none" stroke-linecap="round" stroke-linejoin="round" stroke-miterlimit="4" stroke="#e15e5a" stroke-width="2"><g><path d="M 257.05 51.55L 104 16L 10 10"></path><path d="M 249.7 56.5L 257.5 51.7L 252.7 43.9" stroke-dasharray="none"></path></g></g></g><g id="g-root-3.line_sy_zpnpjq29766j-stroke" data-item-order="999909291" data-item-id="3.line_sy_zpnpjq29766j" data-item-class="Curve Stroke Part Indexed ColorFillGray" data-item-index="3" data-renderer-id="0" transform="translate(299, 164)"><g id="3.line_sy_zpnpjq29766j-stroke" fill="none" stroke-linecap="round" stroke-linejoin="round" stroke-miterlimit="4" stroke="#e15e5a" stroke-width="2"><g><path d="M 257.05 51.55L 104 16L 10 10"></path><path d="M 249.7 56.5L 257.5 51.7L 252.7 43.9" stroke-dasharray="none"></path></g></g></g><g id="g-root-2.line_sy_18lapsm2975du-stroke" data-item-order="999909293" data-item-id="2.line_sy_18lapsm2975du" data-item-class="Curve Stroke Part Indexed ColorFillGray" data-item-index="2" data-renderer-id="0" transform="translate(298.5, 122)"><g id="2.line_sy_18lapsm2975du-stroke" fill="none" stroke-linecap="round" stroke-linejoin="round" stroke-miterlimit="4" stroke="#dd8433" stroke-width="2"><g><path d="M 257.55 10.430176L 97.5 46.000176L 10 52.000176"></path><path d="M 253.1 18.130176L 258 10.330176L 250.3 5.430176" stroke-dasharray="none"></path></g></g></g><g id="g-root-2.line_sy_18lapsm2975du-stroke" data-item-order="999909293" data-item-id="2.line_sy_18lapsm2975du" data-item-class="Curve Stroke Part Indexed ColorFillGray" data-item-index="2" data-renderer-id="0" transform="translate(298.5, 122)"><g id="2.line_sy_18lapsm2975du-stroke" fill="none" stroke-linecap="round" stroke-linejoin="round" stroke-miterlimit="4" stroke="#dd8433" stroke-width="2"><g><path d="M 257.55 10.430176L 97.5 46.000176L 10 52.000176"></path><path d="M 253.1 18.130176L 258 10.330176L 250.3 5.430176" stroke-dasharray="none"></path></g></g></g><g id="g-root-1.line_sy_18lapsm2975dt-stroke" data-item-order="999909295" data-item-id="1.line_sy_18lapsm2975dt" data-item-class="Curve Stroke Part Indexed Indexed_1 ColorFillGray" data-item-index="1" data-renderer-id="0" transform="translate(298.5, 38)"><g id="1.line_sy_18lapsm2975dt-stroke" fill="none" stroke-linecap="round" stroke-linejoin="round" stroke-miterlimit="4" stroke="#e3cd09" stroke-width="2"><g><path d="M 10 136.000078L 90.5 118.000078L 257.81 11.080078"></path><path d="M 256.3 19.780078L 258.2 10.780078L 249.3 8.880078" stroke-dasharray="none"></path></g></g></g><g id="g-root-1.line_sy_18lapsm2975dt-stroke" data-item-order="999909295" data-item-id="1.line_sy_18lapsm2975dt" data-item-class="Curve Stroke Part Indexed Indexed_1 ColorFillGray" data-item-index="1" data-renderer-id="0" transform="translate(298.5, 38)"><g id="1.line_sy_18lapsm2975dt-stroke" fill="none" stroke-linecap="round" stroke-linejoin="round" stroke-miterlimit="4" stroke="#e3cd09" stroke-width="2"><g><path d="M 10 136.000078L 90.5 118.000078L 257.81 11.080078"></path><path d="M 256.3 19.780078L 258.2 10.780078L 249.3 8.880078" stroke-dasharray="none"></path></g></g></g><g id="g-root-data_hx4qvq29bc3p-stroke" data-item-order="1000000000" data-item-id="data_hx4qvq29bc3p" data-item-class="Icon Stroke Indexed" data-item-index="2" data-renderer-id="0" transform="translate(566, 98)"><g id="data_hx4qvq29bc3p-stroke" fill="none" stroke-linecap="round" stroke-linejoin="round" stroke-miterlimit="4" stroke="#dd8433" stroke-width="2"><g><path d="M 11.714286 20.285715C 11.714287 25.019585 21.69194 28.857143 34 28.857143C 46.308064 28.857143 56.285713 25.019585 56.285713 20.285715C 56.285713 15.551846 46.308064 11.714286 34 11.714286C 21.69194 11.714286 11.714287 15.551846 11.714287 20.285715M 11.714286 20.285715L 11.714286 47.714287C 11.714286 52.445717 21.691429 56.285713 34 56.285713C 46.308571 56.285713 56.285713 52.445717 56.285713 47.714287L 56.285713 20.285715M 56.285713 34C 56.285713 38.73143 46.308571 42.57143 34 42.57143C 21.691429 42.57143 11.714286 38.73143 11.714286 34"></path></g></g></g><g id="g-root-data_hx4qvq29bc3p-stroke" data-item-order="1000000000" data-item-id="data_hx4qvq29bc3p" data-item-class="Icon Stroke Indexed" data-item-index="2" data-renderer-id="0" transform="translate(566, 98)"><g id="data_hx4qvq29bc3p-stroke" fill="none" stroke-linecap="round" stroke-linejoin="round" stroke-miterlimit="4" stroke="#dd8433" stroke-width="2"><g><path d="M 11.714286 20.285715C 11.714287 25.019585 21.69194 28.857143 34 28.857143C 46.308064 28.857143 56.285713 25.019585 56.285713 20.285715C 56.285713 15.551846 46.308064 11.714286 34 11.714286C 21.69194 11.714286 11.714287 15.551846 11.714287 20.285715M 11.714286 20.285715L 11.714286 47.714287C 11.714286 52.445717 21.691429 56.285713 34 56.285713C 46.308571 56.285713 56.285713 52.445717 56.285713 47.714287L 56.285713 20.285715M 56.285713 34C 56.285713 38.73143 46.308571 42.57143 34 42.57143C 21.691429 42.57143 11.714286 38.73143 11.714286 34"></path></g></g></g><g id="g-root-tx_gestiond_1qby97a29766d-stroke" data-item-order="1000000000" data-item-id="tx_gestiond_1qby97a29766d" data-item-class="Label Stroke Indexed ColorStrokeBlack" data-item-index="2" data-renderer-id="0" transform="translate(626, 110)"></g><g id="g-root-tx_gestiond_1qby97a29766d-stroke" data-item-order="1000000000" data-item-id="tx_gestiond_1qby97a29766d" data-item-class="Label Stroke Indexed ColorStrokeBlack" data-item-index="2" data-renderer-id="0" transform="translate(626, 110)"></g><g id="g-root-tx_interact_1urrrbq2975e3-stroke" data-item-order="1000000000" data-item-id="tx_interact_1urrrbq2975e3" data-item-class="Label Stroke Indexed ColorStrokeBlack" data-item-index="4" data-renderer-id="0" transform="translate(626, 266)"></g><g id="g-root-tx_couchepr_4mapli2974si-stroke" data-item-order="1000000000" data-item-id="tx_couchepr_4mapli2974si" data-item-class="Label Stroke ColorStrokeBlack" data-item-index="none" data-renderer-id="0" transform="translate(2, 140)"></g><g id="g-root-tx_couchepr_4mapli2974si-stroke" data-item-order="1000000000" data-item-id="tx_couchepr_4mapli2974si" data-item-class="Label Stroke ColorStrokeBlack" data-item-index="none" data-renderer-id="0" transform="translate(2, 140)"></g><g id="g-root-fron_1ha2i3a299xq9-stroke" data-item-order="1000000000" data-item-id="fron_1ha2i3a299xq9" data-item-class="Icon Stroke ColorStrokeBlack" data-item-index="none" data-renderer-id="0" transform="translate(134, 140)"><g id="fron_1ha2i3a299xq9-stroke" fill="none" stroke-linecap="round" stroke-linejoin="round" stroke-miterlimit="4" stroke="#484848" stroke-width="2"><g><path d="M 25.428572 11.714286L 52.857143 11.714286C 52.857143 11.714286 56.285713 11.714286 56.285713 15.142858L 56.285713 42.57143C 56.285713 42.57143 56.285713 46 52.857143 46L 25.428572 46C 25.428572 46 22 46 22 42.57143L 22 15.142858C 22 15.142858 22 11.714286 25.428572 11.714286M 11.714286 52.857143C 11.714286 54.750694 13.24931 56.285713 15.142858 56.285713M 25.428572 56.285713L 30.571428 56.285713M 40.857143 56.285713L 46 56.285713M 11.714286 37.428574L 11.714286 42.57143M 11.714286 22L 11.714286 27.142857"></path></g></g></g><g id="g-root-fron_1ha2i3a299xq9-stroke" data-item-order="1000000000" data-item-id="fron_1ha2i3a299xq9" data-item-class="Icon Stroke ColorStrokeBlack" data-item-index="none" data-renderer-id="0" transform="translate(134, 140)"><g id="fron_1ha2i3a299xq9-stroke" fill="none" stroke-linecap="round" stroke-linejoin="round" stroke-miterlimit="4" stroke="#484848" stroke-width="2"><g><path d="M 25.428572 11.714286L 52.857143 11.714286C 52.857143 11.714286 56.285713 11.714286 56.285713 15.142858L 56.285713 42.57143C 56.285713 42.57143 56.285713 46 52.857143 46L 25.428572 46C 25.428572 46 22 46 22 42.57143L 22 15.142858C 22 15.142858 22 11.714286 25.428572 11.714286M 11.714286 52.857143C 11.714286 54.750694 13.24931 56.285713 15.142858 56.285713M 25.428572 56.285713L 30.571428 56.285713M 40.857143 56.285713L 46 56.285713M 11.714286 37.428574L 11.714286 42.57143M 11.714286 22L 11.714286 27.142857"></path></g></g></g><g id="g-root-tx_gestiond_1hgxq1i2973ta-stroke" data-item-order="1000000000" data-item-id="tx_gestiond_1hgxq1i2973ta" data-item-class="Label Stroke Indexed Indexed_1 ColorStrokeBlack" data-item-index="1" data-renderer-id="0" transform="translate(626, 2)"></g><g id="g-root-tx_gestiond_1hgxq1i2973ta-stroke" data-item-order="1000000000" data-item-id="tx_gestiond_1hgxq1i2973ta" data-item-class="Label Stroke Indexed Indexed_1 ColorStrokeBlack" data-item-index="1" data-renderer-id="0" transform="translate(626, 2)"></g><g id="g-root-5_1upwc2e299ypw-stroke" data-item-order="1000000000" data-item-id="5_1upwc2e299ypw" data-item-class="Icon Stroke Indexed Indexed_1" data-item-index="1" data-renderer-id="0" transform="translate(566, 14)"><g id="5_1upwc2e299ypw-stroke" fill="none" stroke-linecap="round" stroke-linejoin="round" stroke-miterlimit="4" stroke="#e3cd09" stroke-width="2"><g><path d="M 15.142858 11.714286L 52.857143 11.714286C 52.857143 11.714286 56.285713 11.714286 56.285713 15.142858L 56.285713 52.857143C 56.285713 52.857143 56.285713 56.285713 52.857143 56.285713L 15.142858 56.285713C 15.142858 56.285713 11.714286 56.285713 11.714286 52.857143L 11.714286 15.142858C 11.714286 15.142858 11.714286 11.714286 15.142858 11.714286M 11.714286 22L 56.285713 22M 42.57143 22L 42.57143 56.285713"></path></g></g></g><g id="g-root-arro_1q87eom29bdvz-stroke" data-item-order="1000000000" data-item-id="arro_1q87eom29bdvz" data-item-class="Icon Stroke Indexed" data-item-index="3" data-renderer-id="0" transform="translate(566, 182)"><g id="arro_1q87eom29bdvz-stroke" fill="none" stroke-linecap="round" stroke-linejoin="round" stroke-miterlimit="4" stroke="#e15e5a" stroke-width="2"><g><path d="M 35.379997 55.5C 35.585529 56.289928 36.250458 56.875702 37.059998 56.98C 37.834007 57.098461 38.59034 56.679188 38.900002 55.959999L 56.900002 13.66C 57.131645 12.963112 56.962734 12.195324 56.459999 11.66C 55.924675 11.157267 55.156887 10.988354 54.459999 11.22L 12 29.1C 11.280811 29.409658 10.861539 30.165993 10.98 30.940001C 11.084297 31.74954 11.67007 32.414471 12.46 32.620003L 30.74 37.220001Z"></path></g></g></g><g id="g-root-arro_1q87eom29bdvz-stroke" data-item-order="1000000000" data-item-id="arro_1q87eom29bdvz" data-item-class="Icon Stroke Indexed" data-item-index="3" data-renderer-id="0" transform="translate(566, 182)"><g id="arro_1q87eom29bdvz-stroke" fill="none" stroke-linecap="round" stroke-linejoin="round" stroke-miterlimit="4" stroke="#e15e5a" stroke-width="2"><g><path d="M 35.379997 55.5C 35.585529 56.289928 36.250458 56.875702 37.059998 56.98C 37.834007 57.098461 38.59034 56.679188 38.900002 55.959999L 56.900002 13.66C 57.131645 12.963112 56.962734 12.195324 56.459999 11.66C 55.924675 11.157267 55.156887 10.988354 54.459999 11.22L 12 29.1C 11.280811 29.409658 10.861539 30.165993 10.98 30.940001C 11.084297 31.74954 11.67007 32.414471 12.46 32.620003L 30.74 37.220001Z"></path></g></g></g><g id="g-root-tx_navigati_1qby97a29766c-stroke" data-item-order="1000000000" data-item-id="tx_navigati_1qby97a29766c" data-item-class="Label Stroke Indexed ColorStrokeBlack" data-item-index="3" data-renderer-id="0" transform="translate(626, 194)"></g><g id="g-root-tx_navigati_1qby97a29766c-stroke" data-item-order="1000000000" data-item-id="tx_navigati_1qby97a29766c" data-item-class="Label Stroke Indexed ColorStrokeBlack" data-item-index="3" data-renderer-id="0" transform="translate(626, 194)"></g><g id="g-root-appl_1lt0dna29bbig-stroke" data-item-order="1000000000" data-item-id="appl_1lt0dna29bbig" data-item-class="Icon Stroke Indexed" data-item-index="4" data-renderer-id="0" transform="translate(566, 266)"><g id="appl_1lt0dna29bbig-stroke" fill="none" stroke-linecap="round" stroke-linejoin="round" stroke-miterlimit="4" stroke="#da5da8" stroke-width="2"><g><path d="M 56.285713 39.142857L 56.285713 46C 56.285713 46.946774 55.518204 47.714287 54.57143 47.714287L 13.428572 47.714287C 12.481797 47.714287 11.714286 46.946774 11.714286 46L 11.714286 39.142857M 11.714286 25.428572L 11.714286 18.571428C 11.714286 17.624655 12.481797 16.857143 13.428572 16.857143L 54.57143 16.857143C 55.518204 16.857143 56.285713 17.624655 56.285713 18.571428L 56.285713 25.428572M 30.571428 47.714287L 27.142857 56.285713M 37.428574 47.714287L 40.857143 56.285713M 23.714287 56.285713L 44.285713 56.285713M 28.857143 25.428572L 39.142857 25.428572L 39.142857 39.142857L 28.857143 39.142857ZM 20.285715 27.142857L 15.142858 32.285713L 20.285715 37.428574M 47.714287 27.142857L 52.857143 32.285713L 47.714287 37.428574"></path></g></g></g><g id="g-root-appl_1lt0dna29bbig-stroke" data-item-order="1000000000" data-item-id="appl_1lt0dna29bbig" data-item-class="Icon Stroke Indexed" data-item-index="4" data-renderer-id="0" transform="translate(566, 266)"><g id="appl_1lt0dna29bbig-stroke" fill="none" stroke-linecap="round" stroke-linejoin="round" stroke-miterlimit="4" stroke="#da5da8" stroke-width="2"><g><path d="M 56.285713 39.142857L 56.285713 46C 56.285713 46.946774 55.518204 47.714287 54.57143 47.714287L 13.428572 47.714287C 12.481797 47.714287 11.714286 46.946774 11.714286 46L 11.714286 39.142857M 11.714286 25.428572L 11.714286 18.571428C 11.714286 17.624655 12.481797 16.857143 13.428572 16.857143L 54.57143 16.857143C 55.518204 16.857143 56.285713 17.624655 56.285713 18.571428L 56.285713 25.428572M 30.571428 47.714287L 27.142857 56.285713M 37.428574 47.714287L 40.857143 56.285713M 23.714287 56.285713L 44.285713 56.285713M 28.857143 25.428572L 39.142857 25.428572L 39.142857 39.142857L 28.857143 39.142857ZM 20.285715 27.142857L 15.142858 32.285713L 20.285715 37.428574M 47.714287 27.142857L 52.857143 32.285713L 47.714287 37.428574"></path></g></g></g><g id="g-root-tx_interact_1urrrbq2975e3-stroke" data-item-order="1000000000" data-item-id="tx_interact_1urrrbq2975e3" data-item-class="Label Stroke Indexed ColorStrokeBlack" data-item-index="4" data-renderer-id="0" transform="translate(626, 266)"></g><g id="g-root-5_1upwc2e299ypw-stroke" data-item-order="1000000000" data-item-id="5_1upwc2e299ypw" data-item-class="Icon Stroke Indexed Indexed_1" data-item-index="1" data-renderer-id="0" transform="translate(566, 14)"><g id="5_1upwc2e299ypw-stroke" fill="none" stroke-linecap="round" stroke-linejoin="round" stroke-miterlimit="4" stroke="#e3cd09" stroke-width="2"><g><path d="M 15.142858 11.714286L 52.857143 11.714286C 52.857143 11.714286 56.285713 11.714286 56.285713 15.142858L 56.285713 52.857143C 56.285713 52.857143 56.285713 56.285713 52.857143 56.285713L 15.142858 56.285713C 15.142858 56.285713 11.714286 56.285713 11.714286 52.857143L 11.714286 15.142858C 11.714286 15.142858 11.714286 11.714286 15.142858 11.714286M 11.714286 22L 56.285713 22M 42.57143 22L 42.57143 56.285713"></path></g></g></g></g></g></svg>