<?xml version="1.0" encoding="utf-8" standalone="yes"?>
<!DOCTYPE svg PUBLIC "-//W3C//DTD SVG 1.1//EN" "http://www.w3.org/Graphics/SVG/1.1/DTD/svg11.dtd">
<svg width="744" height="481" viewBox="0 0 744 481" style="fill:none;stroke:none;fill-rule:evenodd;clip-rule:evenodd;stroke-linecap:round;stroke-linejoin:round;stroke-miterlimit:1.5;" version="1.1" xmlns="http://www.w3.org/2000/svg" xmlns:xlink="http://www.w3.org/1999/xlink"><style id="fontImports">@import url("https://fonts.googleapis.com/css2?family=Roboto:wght@400;700&amp;display=block");</style><rect id="" x="0" y="0" width="744" height="480.998" style="fill: #ffffff;"></rect><g id="items" style="isolation: isolate"><g id="blend" style="mix-blend-mode:normal"><g id="g-root--1.cu_sy_18jgfqd5v39j6-fill" data-item-order="999852549" data-item-id="-1.cu_sy_18jgfqd5v39j6" data-item-class="Part Fill Stroke ColorFillGray ColorStrokeGray" data-item-index="-1" data-renderer-id="0" transform="translate(314, 74)"><g id="-1.cu_sy_18jgfqd5v39j6-fill" stroke="none" fill="#f6f6f6"><g><path d="M 65.766602 394C 80.754802 394 106.000002 308.039 106.000002 202C 106.000002 95.9613 80.754802 10 65.766602 10C 80.775202 10.01 92.941702 96.2224 92.941702 202C 92.941702 307.778 80.775202 393.99 65.766602 394ZM 65.765897 394C 80.774597 393.99 92.941097 307.778 92.941097 202C 92.941097 96.2224 80.774597 10.01 65.765897 10L 51.957397 10C 66.060697 16.8878 77.199297 100.4719 77.199297 202C 77.199297 303.528 65.382597 387.112 51.279297 394L 65.765897 394ZM 77.2 202C 77.2 303.528 65.3833 387.112 51.28 394L 50.0615 394C 35.0734 394 10 308.039 10 202C 10 95.9613 35.0734 10 50.0615 10C 50.6991 10 51.9581 10 51.9581 10C 66.0614 16.8878 77.2 100.4719 77.2 202Z"></path></g></g></g><g id="g-root--1.cu_sy_18jgfqd5v39j6-fill" data-item-order="999852549" data-item-id="-1.cu_sy_18jgfqd5v39j6" data-item-class="Part Fill Stroke ColorFillGray ColorStrokeGray" data-item-index="-1" data-renderer-id="0" transform="translate(314, 74)"><g id="-1.cu_sy_18jgfqd5v39j6-fill" stroke="none" fill="#f6f6f6"><g><path d="M 65.766602 394C 80.754802 394 106.000002 308.039 106.000002 202C 106.000002 95.9613 80.754802 10 65.766602 10C 80.775202 10.01 92.941702 96.2224 92.941702 202C 92.941702 307.778 80.775202 393.99 65.766602 394ZM 65.765897 394C 80.774597 393.99 92.941097 307.778 92.941097 202C 92.941097 96.2224 80.774597 10.01 65.765897 10L 51.957397 10C 66.060697 16.8878 77.199297 100.4719 77.199297 202C 77.199297 303.528 65.382597 387.112 51.279297 394L 65.765897 394ZM 77.2 202C 77.2 303.528 65.3833 387.112 51.28 394L 50.0615 394C 35.0734 394 10 308.039 10 202C 10 95.9613 35.0734 10 50.0615 10C 50.6991 10 51.9581 10 51.9581 10C 66.0614 16.8878 77.2 100.4719 77.2 202Z"></path></g></g></g><g id="g-root-0.cr-medium_cr_18jgfqd5v39j7-fill" data-item-order="999852551" data-item-id="0.cr-medium_cr_18jgfqd5v39j7" data-item-class="Shape Stroke Fill Part Indexed_0" data-item-index="0" data-renderer-id="0" transform="translate(482, 229.998046875)"><g id="0.cr-medium_cr_18jgfqd5v39j7-fill" stroke="none" fill="#f0f0f0"><g><path d="M 10 46C 10 65.882251 26.117749 82 46 82C 65.882251 82 82 65.882251 82 46C 82 26.117749 65.882251 10 46 10C 26.117749 10 10 26.117749 10 46"></path></g></g></g><g id="g-root-0.cr-medium_cr_18jgfqd5v39j7-fill" data-item-order="999852551" data-item-id="0.cr-medium_cr_18jgfqd5v39j7" data-item-class="Shape Stroke Fill Part Indexed_0" data-item-index="0" data-renderer-id="0" transform="translate(482, 229.998046875)"><g id="0.cr-medium_cr_18jgfqd5v39j7-fill" stroke="none" fill="#f0f0f0"><g><path d="M 10 46C 10 65.882251 26.117749 82 46 82C 65.882251 82 82 65.882251 82 46C 82 26.117749 65.882251 10 46 10C 26.117749 10 10 26.117749 10 46"></path></g></g></g><g id="g-root-4.line_sy_qsswbp5v38qq-fill" data-item-order="999852554" data-item-id="4.line_sy_qsswbp5v38qq" data-item-class="Curve Stroke Part Indexed" data-item-index="4" data-renderer-id="0" transform="translate(230, 300.998046875)"></g><g id="g-root-4.line_sy_qsswbp5v38qq-fill" data-item-order="999852554" data-item-id="4.line_sy_qsswbp5v38qq" data-item-class="Curve Stroke Part Indexed" data-item-index="4" data-renderer-id="0" transform="translate(230, 300.998046875)"></g><g id="g-root-4.cr-small_cr_qsswbp5v38qr-fill" data-item-order="999852555" data-item-id="4.cr-small_cr_qsswbp5v38qr" data-item-class="Shape Stroke Fill Part Indexed" data-item-index="4" data-renderer-id="0" transform="translate(170, 362.998046875)"><g id="4.cr-small_cr_qsswbp5v38qr-fill" stroke="none" fill="#fffce6"><g><path d="M 10 40C 10.000002 56.568544 23.431459 70.000002 40.000002 70.000002C 56.568544 70.000002 70.000002 56.568544 70.000002 40.000002C 70.000002 23.431459 56.568544 10.000002 40.000002 10.000002C 23.431459 10.000002 10.000002 23.431459 10.000002 40.000002"></path></g></g></g><g id="g-root-4.cr-small_cr_qsswbp5v38qr-fill" data-item-order="999852555" data-item-id="4.cr-small_cr_qsswbp5v38qr" data-item-class="Shape Stroke Fill Part Indexed" data-item-index="4" data-renderer-id="0" transform="translate(170, 362.998046875)"><g id="4.cr-small_cr_qsswbp5v38qr-fill" stroke="none" fill="#fffce6"><g><path d="M 10 40C 10.000002 56.568544 23.431459 70.000002 40.000002 70.000002C 56.568544 70.000002 70.000002 56.568544 70.000002 40.000002C 70.000002 23.431459 56.568544 10.000002 40.000002 10.000002C 23.431459 10.000002 10.000002 23.431459 10.000002 40.000002"></path></g></g></g><g id="g-root-3.line_sy_v7zxd15v3b48-fill" data-item-order="999852558" data-item-id="3.line_sy_v7zxd15v3b48" data-item-class="Curve Stroke Part Indexed" data-item-index="3" data-renderer-id="0" transform="translate(230.109375, 277.998046875)"></g><g id="g-root-3.line_sy_v7zxd15v3b48-fill" data-item-order="999852558" data-item-id="3.line_sy_v7zxd15v3b48" data-item-class="Curve Stroke Part Indexed" data-item-index="3" data-renderer-id="0" transform="translate(230.109375, 277.998046875)"></g><g id="g-root-3.cr-small_cr_v7zxd15v3b49-fill" data-item-order="999852559" data-item-id="3.cr-small_cr_v7zxd15v3b49" data-item-class="Shape Stroke Fill Part Indexed" data-item-index="3" data-renderer-id="0" transform="translate(170, 278.998046875)"><g id="3.cr-small_cr_v7zxd15v3b49-fill" stroke="none" fill="#f5fbe9"><g><path d="M 10 40C 10.000002 56.568544 23.431459 70.000002 40.000002 70.000002C 56.568544 70.000002 70.000002 56.568544 70.000002 40.000002C 70.000002 23.431459 56.568544 10.000002 40.000002 10.000002C 23.431459 10.000002 10.000002 23.431459 10.000002 40.000002"></path></g></g></g><g id="g-root-3.cr-small_cr_v7zxd15v3b49-fill" data-item-order="999852559" data-item-id="3.cr-small_cr_v7zxd15v3b49" data-item-class="Shape Stroke Fill Part Indexed" data-item-index="3" data-renderer-id="0" transform="translate(170, 278.998046875)"><g id="3.cr-small_cr_v7zxd15v3b49-fill" stroke="none" fill="#f5fbe9"><g><path d="M 10 40C 10.000002 56.568544 23.431459 70.000002 40.000002 70.000002C 56.568544 70.000002 70.000002 56.568544 70.000002 40.000002C 70.000002 23.431459 56.568544 10.000002 40.000002 10.000002C 23.431459 10.000002 10.000002 23.431459 10.000002 40.000002"></path></g></g></g><g id="g-root-2.line_sy_zntfhh5v3aby-fill" data-item-order="999852562" data-item-id="2.line_sy_zntfhh5v3aby" data-item-class="Curve Stroke Part Indexed" data-item-index="2" data-renderer-id="0" transform="translate(230, 223.998046875)"></g><g id="g-root-2.line_sy_zntfhh5v3aby-fill" data-item-order="999852562" data-item-id="2.line_sy_zntfhh5v3aby" data-item-class="Curve Stroke Part Indexed" data-item-index="2" data-renderer-id="0" transform="translate(230, 223.998046875)"></g><g id="g-root-2.cr-small_cr_v7zxd15v3b47-fill" data-item-order="999852563" data-item-id="2.cr-small_cr_v7zxd15v3b47" data-item-class="Shape Stroke Fill Part Indexed" data-item-index="2" data-renderer-id="0" transform="translate(170, 194.998046875)"><g id="2.cr-small_cr_v7zxd15v3b47-fill" stroke="none" fill="#e9fbf3"><g><path d="M 10 40C 10.000002 56.568544 23.431459 70.000002 40.000002 70.000002C 56.568544 70.000002 70.000002 56.568544 70.000002 40.000002C 70.000002 23.431459 56.568544 10.000002 40.000002 10.000002C 23.431459 10.000002 10.000002 23.431459 10.000002 40.000002"></path></g></g></g><g id="g-root-2.cr-small_cr_v7zxd15v3b47-fill" data-item-order="999852563" data-item-id="2.cr-small_cr_v7zxd15v3b47" data-item-class="Shape Stroke Fill Part Indexed" data-item-index="2" data-renderer-id="0" transform="translate(170, 194.998046875)"><g id="2.cr-small_cr_v7zxd15v3b47-fill" stroke="none" fill="#e9fbf3"><g><path d="M 10 40C 10.000002 56.568544 23.431459 70.000002 40.000002 70.000002C 56.568544 70.000002 70.000002 56.568544 70.000002 40.000002C 70.000002 23.431459 56.568544 10.000002 40.000002 10.000002C 23.431459 10.000002 10.000002 23.431459 10.000002 40.000002"></path></g></g></g><g id="g-root-1.line_sy_18jgfqd5v39j8-fill" data-item-order="999852566" data-item-id="1.line_sy_18jgfqd5v39j8" data-item-class="Curve Stroke Part Indexed Indexed_1" data-item-index="1" data-renderer-id="0" transform="translate(230, 139.998046875)"></g><g id="g-root-1.line_sy_18jgfqd5v39j8-fill" data-item-order="999852566" data-item-id="1.line_sy_18jgfqd5v39j8" data-item-class="Curve Stroke Part Indexed Indexed_1" data-item-index="1" data-renderer-id="0" transform="translate(230, 139.998046875)"></g><g id="g-root-1.cr-small_cr_zntfhh5v3abx-fill" data-item-order="999852567" data-item-id="1.cr-small_cr_zntfhh5v3abx" data-item-class="Shape Stroke Fill Part Indexed Indexed_1" data-item-index="1" data-renderer-id="0" transform="translate(170, 110.998046875)"><g id="1.cr-small_cr_zntfhh5v3abx-fill" stroke="none" fill="#e6f9ff"><g><path d="M 10 40C 10.000002 56.568544 23.431459 70.000002 40.000002 70.000002C 56.568544 70.000002 70.000002 56.568544 70.000002 40.000002C 70.000002 23.431459 56.568544 10.000002 40.000002 10.000002C 23.431459 10.000002 10.000002 23.431459 10.000002 40.000002"></path></g></g></g><g id="g-root-1.cr-small_cr_zntfhh5v3abx-fill" data-item-order="999852567" data-item-id="1.cr-small_cr_zntfhh5v3abx" data-item-class="Shape Stroke Fill Part Indexed Indexed_1" data-item-index="1" data-renderer-id="0" transform="translate(170, 110.998046875)"><g id="1.cr-small_cr_zntfhh5v3abx-fill" stroke="none" fill="#e6f9ff"><g><path d="M 10 40C 10.000002 56.568544 23.431459 70.000002 40.000002 70.000002C 56.568544 70.000002 70.000002 56.568544 70.000002 40.000002C 70.000002 23.431459 56.568544 10.000002 40.000002 10.000002C 23.431459 10.000002 10.000002 23.431459 10.000002 40.000002"></path></g></g></g><g id="g-root-bice_1lr63l15vljpc-fill" data-item-order="1000000000" data-item-id="bice_1lr63l15vljpc" data-item-class="Icon Stroke Indexed InsideFill InsideColorFill" data-item-index="2" data-renderer-id="0" transform="translate(182, 205.998046875)"></g><g id="g-root-2_1hgchb95v0gzk-fill" data-item-order="1000000000" data-item-id="2_1hgchb95v0gzk" data-item-class="Icon Stroke Indexed Indexed_1 InsideFill InsideColorFill" data-item-index="1" data-renderer-id="0" transform="translate(182, 121.998046875)"></g><g id="g-root-2_1hgchb95v0gzk-fill" data-item-order="1000000000" data-item-id="2_1hgchb95v0gzk" data-item-class="Icon Stroke Indexed Indexed_1 InsideFill InsideColorFill" data-item-index="1" data-renderer-id="0" transform="translate(182, 121.998046875)"></g><g id="g-root-hurr_1q6zlph5vlix3-fill" data-item-order="1000000000" data-item-id="hurr_1q6zlph5vlix3" data-item-class="Icon Stroke InsideFill" data-item-index="none" data-renderer-id="0" transform="translate(494, 241.998046875)"></g><g id="g-root-hurr_1q6zlph5vlix3-fill" data-item-order="1000000000" data-item-id="hurr_1q6zlph5vlix3" data-item-class="Icon Stroke InsideFill" data-item-index="none" data-renderer-id="0" transform="translate(494, 241.998046875)"></g><g id="g-root-tx_infrastr_mb3yxx5v39qk-fill" data-item-order="1000000000" data-item-id="tx_infrastr_mb3yxx5v39qk" data-item-class="Label Stroke" data-item-index="none" data-renderer-id="0" transform="translate(566, 241.998046875)"><g id="tx_infrastr_mb3yxx5v39qk-fill" stroke="none" fill="#484848"><g><text style="font: 20px Roboto, sans-serif; white-space: pre;" font-weight="20px" font-size="Roboto," font-family="sans-serif"><tspan x="12" y="34" dominant-baseline="ideographic">Infrastructure </tspan><tspan x="12" y="58" dominant-baseline="ideographic">robuste et fiable</tspan></text></g></g></g><g id="g-root-tx_infrastr_mb3yxx5v39qk-fill" data-item-order="1000000000" data-item-id="tx_infrastr_mb3yxx5v39qk" data-item-class="Label Stroke" data-item-index="none" data-renderer-id="0" transform="translate(566, 241.998046875)"><g id="tx_infrastr_mb3yxx5v39qk-fill" stroke="none" fill="#484848"><g><text style="font: 20px Roboto, sans-serif; white-space: pre;" font-weight="20px" font-size="Roboto," font-family="sans-serif"><tspan x="12" y="34" dominant-baseline="ideographic">Infrastructure </tspan><tspan x="12" y="58" dominant-baseline="ideographic">robuste et fiable</tspan></text></g></g></g><g id="g-root-tx_facilita_1upxh9h5v39ji-fill" data-item-order="1000000000" data-item-id="tx_facilita_1upxh9h5v39ji" data-item-class="Label Stroke Indexed" data-item-index="3" data-renderer-id="0" transform="translate(2, 271.998046875)"><g id="tx_facilita_1upxh9h5v39ji-fill" stroke="none" fill="#484848"><g><text style="font: 20px Roboto, sans-serif; white-space: pre;" font-weight="20px" font-size="Roboto," font-family="sans-serif"><tspan x="18.6" y="34" dominant-baseline="ideographic">Facilitation de la </tspan><tspan x="26.48" y="58" dominant-baseline="ideographic">maintenance et </tspan><tspan x="48.27" y="82" dominant-baseline="ideographic">de l'évolution</tspan></text></g></g></g><g id="g-root-tx_facilita_1upxh9h5v39ji-fill" data-item-order="1000000000" data-item-id="tx_facilita_1upxh9h5v39ji" data-item-class="Label Stroke Indexed" data-item-index="3" data-renderer-id="0" transform="translate(2, 271.998046875)"><g id="tx_facilita_1upxh9h5v39ji-fill" stroke="none" fill="#484848"><g><text style="font: 20px Roboto, sans-serif; white-space: pre;" font-weight="20px" font-size="Roboto," font-family="sans-serif"><tspan x="18.6" y="34" dominant-baseline="ideographic">Facilitation de la </tspan><tspan x="26.48" y="58" dominant-baseline="ideographic">maintenance et </tspan><tspan x="48.27" y="82" dominant-baseline="ideographic">de l'évolution</tspan></text></g></g></g><g id="g-root-lock_1umt3tx5vli4u-fill" data-item-order="1000000000" data-item-id="lock_1umt3tx5vli4u" data-item-class="Icon Stroke Indexed InsideFill InsideColorFill" data-item-index="4" data-renderer-id="0" transform="translate(182, 373.998046875)"></g><g id="g-root-scre_1lr63l15vljpd-fill" data-item-order="1000000000" data-item-id="scre_1lr63l15vljpd" data-item-class="Icon Stroke Indexed InsideFill InsideColorFill" data-item-index="3" data-renderer-id="0" transform="translate(182, 289.998046875)"></g><g id="g-root-scre_1lr63l15vljpd-fill" data-item-order="1000000000" data-item-id="scre_1lr63l15vljpd" data-item-class="Icon Stroke Indexed InsideFill InsideColorFill" data-item-index="3" data-renderer-id="0" transform="translate(182, 289.998046875)"></g><g id="g-root-bice_1lr63l15vljpc-fill" data-item-order="1000000000" data-item-id="bice_1lr63l15vljpc" data-item-class="Icon Stroke Indexed InsideFill InsideColorFill" data-item-index="2" data-renderer-id="0" transform="translate(182, 205.998046875)"></g><g id="g-root-tx_basesoli_1qa3z515v3abr-fill" data-item-order="1000000000" data-item-id="tx_basesoli_1qa3z515v3abr" data-item-class="Label Stroke Indexed" data-item-index="2" data-renderer-id="0" transform="translate(26, 199.998046875)"><g id="tx_basesoli_1qa3z515v3abr-fill" stroke="none" fill="#484848"><g><text style="font: 20px Roboto, sans-serif; white-space: pre;" font-weight="20px" font-size="Roboto," font-family="sans-serif"><tspan x="15.42" y="34" dominant-baseline="ideographic">Base solide et </tspan><tspan x="91.38" y="58" dominant-baseline="ideographic">fiable</tspan></text></g></g></g><g id="g-root-tx_dtailtec_1luah0l5v3b40-fill" data-item-order="1000000000" data-item-id="tx_dtailtec_1luah0l5v3b40" data-item-class="Label Stroke Indexed Indexed_1" data-item-index="1" data-renderer-id="0" transform="translate(2, 115.998046875)"><g id="tx_dtailtec_1luah0l5v3b40-fill" stroke="none" fill="#484848"><g><text style="font: 20px Roboto, sans-serif; white-space: pre;" font-weight="20px" font-size="Roboto," font-family="sans-serif"><tspan x="20.71" y="34" dominant-baseline="ideographic">Détail technique </tspan><tspan x="54.31" y="58" dominant-baseline="ideographic">remplaçable</tspan></text></g></g></g><g id="g-root-tx_dtailtec_1luah0l5v3b40-fill" data-item-order="1000000000" data-item-id="tx_dtailtec_1luah0l5v3b40" data-item-class="Label Stroke Indexed Indexed_1" data-item-index="1" data-renderer-id="0" transform="translate(2, 115.998046875)"><g id="tx_dtailtec_1luah0l5v3b40-fill" stroke="none" fill="#484848"><g><text style="font: 20px Roboto, sans-serif; white-space: pre;" font-weight="20px" font-size="Roboto," font-family="sans-serif"><tspan x="20.71" y="34" dominant-baseline="ideographic">Détail technique </tspan><tspan x="54.31" y="58" dominant-baseline="ideographic">remplaçable</tspan></text></g></g></g><g id="g-root-tx_protecti_8zngkl5v3bbh-fill" data-item-order="1000000000" data-item-id="tx_protecti_8zngkl5v3bbh" data-item-class="Label Stroke Indexed" data-item-index="4" data-renderer-id="0" transform="translate(26, 355.998046875)"><g id="tx_protecti_8zngkl5v3bbh-fill" stroke="none" fill="#484848"><g><text style="font: 20px Roboto, sans-serif; white-space: pre;" font-weight="20px" font-size="Roboto," font-family="sans-serif"><tspan x="21.15" y="34" dominant-baseline="ideographic">Protection de </tspan><tspan x="31.4" y="58" dominant-baseline="ideographic">l'intégrité du </tspan><tspan x="64.65" y="82" dominant-baseline="ideographic">système</tspan></text></g></g></g><g id="g-root-tx_protecti_8zngkl5v3bbh-fill" data-item-order="1000000000" data-item-id="tx_protecti_8zngkl5v3bbh" data-item-class="Label Stroke Indexed" data-item-index="4" data-renderer-id="0" transform="translate(26, 355.998046875)"><g id="tx_protecti_8zngkl5v3bbh-fill" stroke="none" fill="#484848"><g><text style="font: 20px Roboto, sans-serif; white-space: pre;" font-weight="20px" font-size="Roboto," font-family="sans-serif"><tspan x="21.15" y="34" dominant-baseline="ideographic">Protection de </tspan><tspan x="31.4" y="58" dominant-baseline="ideographic">l'intégrité du </tspan><tspan x="64.65" y="82" dominant-baseline="ideographic">système</tspan></text></g></g></g><g id="g-root-tx_principe_1luah0l5v3b41-fill" data-item-order="1000000000" data-item-id="tx_principe_1luah0l5v3b41" data-item-class="Label Stroke Title" data-item-index="none" data-renderer-id="0" transform="translate(194, 2)"><g id="tx_principe_1luah0l5v3b41-fill" stroke="none" fill="#484848"><g><text style="font: 20px Roboto, sans-serif; white-space: pre;" font-weight="20px" font-size="Roboto," font-family="sans-serif"><tspan x="15.47" y="34" dominant-baseline="ideographic">Principes de la couche infrastructure</tspan></text></g></g></g><g id="g-root-lock_1umt3tx5vli4u-fill" data-item-order="1000000000" data-item-id="lock_1umt3tx5vli4u" data-item-class="Icon Stroke Indexed InsideFill InsideColorFill" data-item-index="4" data-renderer-id="0" transform="translate(182, 373.998046875)"></g><g id="g-root-tx_principe_1luah0l5v3b41-fill" data-item-order="1000000000" data-item-id="tx_principe_1luah0l5v3b41" data-item-class="Label Stroke Title" data-item-index="none" data-renderer-id="0" transform="translate(194, 2)"><g id="tx_principe_1luah0l5v3b41-fill" stroke="none" fill="#484848"><g><text style="font: 20px Roboto, sans-serif; white-space: pre;" font-weight="20px" font-size="Roboto," font-family="sans-serif"><tspan x="15.47" y="34" dominant-baseline="ideographic">Principes de la couche infrastructure</tspan></text></g></g></g><g id="g-root-tx_basesoli_1qa3z515v3abr-fill" data-item-order="1000000000" data-item-id="tx_basesoli_1qa3z515v3abr" data-item-class="Label Stroke Indexed" data-item-index="2" data-renderer-id="0" transform="translate(26, 199.998046875)"><g id="tx_basesoli_1qa3z515v3abr-fill" stroke="none" fill="#484848"><g><text style="font: 20px Roboto, sans-serif; white-space: pre;" font-weight="20px" font-size="Roboto," font-family="sans-serif"><tspan x="15.42" y="34" dominant-baseline="ideographic">Base solide et </tspan><tspan x="91.38" y="58" dominant-baseline="ideographic">fiable</tspan></text></g></g></g><g id="g-root--1.cu_sy_18jgfqd5v39j6-stroke" data-item-order="999852549" data-item-id="-1.cu_sy_18jgfqd5v39j6" data-item-class="Part Fill Stroke ColorFillGray ColorStrokeGray" data-item-index="-1" data-renderer-id="0" transform="translate(314, 74)"><g id="-1.cu_sy_18jgfqd5v39j6-stroke" fill="none" stroke-linecap="round" stroke-linejoin="round" stroke-miterlimit="4" stroke="#888888" stroke-width="2"><g><path d="M 65.766602 394C 80.754802 394 106.000002 308.0387 106.000002 202C 106.000002 95.9613 80.754802 10 65.766602 10C 80.775202 10.01 92.941702 96.2224 92.941702 202C 92.941702 307.7776 80.775202 393.99 65.766602 394ZM 65.765897 394C 80.774597 393.99 92.941097 307.7776 92.941097 202C 92.941097 96.2224 80.774597 10.01 65.765897 10L 51.957397 10C 66.060697 16.8878 77.199297 100.4719 77.199297 202C 77.199297 303.5282 65.382597 387.1122 51.279297 394L 65.765897 394ZM 77.2 202C 77.2 303.5282 65.3833 387.1122 51.28 394L 50.0615 394C 35.0734 394 10 308.0387 10 202C 10 95.9613 35.0734 10 50.0615 10C 50.6991 10 51.9581 10 51.9581 10C 66.0614 16.8878 77.2 100.4719 77.2 202Z"></path></g></g></g><g id="g-root--1.cu_sy_18jgfqd5v39j6-stroke" data-item-order="999852549" data-item-id="-1.cu_sy_18jgfqd5v39j6" data-item-class="Part Fill Stroke ColorFillGray ColorStrokeGray" data-item-index="-1" data-renderer-id="0" transform="translate(314, 74)"><g id="-1.cu_sy_18jgfqd5v39j6-stroke" fill="none" stroke-linecap="round" stroke-linejoin="round" stroke-miterlimit="4" stroke="#888888" stroke-width="2"><g><path d="M 65.766602 394C 80.754802 394 106.000002 308.0387 106.000002 202C 106.000002 95.9613 80.754802 10 65.766602 10C 80.775202 10.01 92.941702 96.2224 92.941702 202C 92.941702 307.7776 80.775202 393.99 65.766602 394ZM 65.765897 394C 80.774597 393.99 92.941097 307.7776 92.941097 202C 92.941097 96.2224 80.774597 10.01 65.765897 10L 51.957397 10C 66.060697 16.8878 77.199297 100.4719 77.199297 202C 77.199297 303.5282 65.382597 387.1122 51.279297 394L 65.765897 394ZM 77.2 202C 77.2 303.5282 65.3833 387.1122 51.28 394L 50.0615 394C 35.0734 394 10 308.0387 10 202C 10 95.9613 35.0734 10 50.0615 10C 50.6991 10 51.9581 10 51.9581 10C 66.0614 16.8878 77.2 100.4719 77.2 202Z"></path></g></g></g><g id="g-root-0.cr-medium_cr_18jgfqd5v39j7-stroke" data-item-order="999852551" data-item-id="0.cr-medium_cr_18jgfqd5v39j7" data-item-class="Shape Stroke Fill Part Indexed_0" data-item-index="0" data-renderer-id="0" transform="translate(482, 229.998046875)"><g id="0.cr-medium_cr_18jgfqd5v39j7-stroke" fill="none" stroke-linecap="round" stroke-linejoin="round" stroke-miterlimit="4" stroke="#484848" stroke-width="2"><g><path d="M 10 46C 10 65.882251 26.117749 82 46 82C 65.882251 82 82 65.882251 82 46C 82 26.117749 65.882251 10 46 10C 26.117749 10 10 26.117749 10 46"></path></g></g></g><g id="g-root-0.cr-medium_cr_18jgfqd5v39j7-stroke" data-item-order="999852551" data-item-id="0.cr-medium_cr_18jgfqd5v39j7" data-item-class="Shape Stroke Fill Part Indexed_0" data-item-index="0" data-renderer-id="0" transform="translate(482, 229.998046875)"><g id="0.cr-medium_cr_18jgfqd5v39j7-stroke" fill="none" stroke-linecap="round" stroke-linejoin="round" stroke-miterlimit="4" stroke="#484848" stroke-width="2"><g><path d="M 10 46C 10 65.882251 26.117749 82 46 82C 65.882251 82 82 65.882251 82 46C 82 26.117749 65.882251 10 46 10C 26.117749 10 10 26.117749 10 46"></path></g></g></g><g id="g-root-4.line_sy_qsswbp5v38qq-stroke" data-item-order="999852554" data-item-id="4.line_sy_qsswbp5v38qq" data-item-class="Curve Stroke Part Indexed" data-item-index="4" data-renderer-id="0" transform="translate(230, 300.998046875)"><g id="4.line_sy_qsswbp5v38qq-stroke" fill="none" stroke-linecap="round" stroke-linejoin="round" stroke-miterlimit="4" stroke="#e3cd09" stroke-width="2"><g><path d="M 260.35 11.140625L 130 101.000625L 10 101.000625"></path><path d="M 259.1 19.940625L 260.8 10.840625L 251.7 9.140625" stroke-dasharray="none"></path></g></g></g><g id="g-root-4.line_sy_qsswbp5v38qq-stroke" data-item-order="999852554" data-item-id="4.line_sy_qsswbp5v38qq" data-item-class="Curve Stroke Part Indexed" data-item-index="4" data-renderer-id="0" transform="translate(230, 300.998046875)"><g id="4.line_sy_qsswbp5v38qq-stroke" fill="none" stroke-linecap="round" stroke-linejoin="round" stroke-miterlimit="4" stroke="#e3cd09" stroke-width="2"><g><path d="M 260.35 11.140625L 130 101.000625L 10 101.000625"></path><path d="M 259.1 19.940625L 260.8 10.840625L 251.7 9.140625" stroke-dasharray="none"></path></g></g></g><g id="g-root-4.cr-small_cr_qsswbp5v38qr-stroke" data-item-order="999852555" data-item-id="4.cr-small_cr_qsswbp5v38qr" data-item-class="Shape Stroke Fill Part Indexed" data-item-index="4" data-renderer-id="0" transform="translate(170, 362.998046875)"><g id="4.cr-small_cr_qsswbp5v38qr-stroke" fill="none" stroke-linecap="round" stroke-linejoin="round" stroke-miterlimit="4" stroke="#e3cd09" stroke-width="2"><g><path d="M 10 40C 10.000002 56.568544 23.431459 70.000002 40.000002 70.000002C 56.568544 70.000002 70.000002 56.568544 70.000002 40.000002C 70.000002 23.431459 56.568544 10.000002 40.000002 10.000002C 23.431459 10.000002 10.000002 23.431459 10.000002 40.000002"></path></g></g></g><g id="g-root-4.cr-small_cr_qsswbp5v38qr-stroke" data-item-order="999852555" data-item-id="4.cr-small_cr_qsswbp5v38qr" data-item-class="Shape Stroke Fill Part Indexed" data-item-index="4" data-renderer-id="0" transform="translate(170, 362.998046875)"><g id="4.cr-small_cr_qsswbp5v38qr-stroke" fill="none" stroke-linecap="round" stroke-linejoin="round" stroke-miterlimit="4" stroke="#e3cd09" stroke-width="2"><g><path d="M 10 40C 10.000002 56.568544 23.431459 70.000002 40.000002 70.000002C 56.568544 70.000002 70.000002 56.568544 70.000002 40.000002C 70.000002 23.431459 56.568544 10.000002 40.000002 10.000002C 23.431459 10.000002 10.000002 23.431459 10.000002 40.000002"></path></g></g></g><g id="g-root-3.line_sy_v7zxd15v3b48-stroke" data-item-order="999852558" data-item-id="3.line_sy_v7zxd15v3b48" data-item-class="Curve Stroke Part Indexed" data-item-index="3" data-renderer-id="0" transform="translate(230.109375, 277.998046875)"><g id="3.line_sy_v7zxd15v3b48-stroke" fill="none" stroke-linecap="round" stroke-linejoin="round" stroke-miterlimit="4" stroke="#93c131" stroke-width="2"><g><path d="M 249.95061 10.480469L 129.89061 40.000469L 10.00061 40.000469"></path><path d="M 245.70061 18.180469L 250.40061 10.380469L 242.60061 5.580469" stroke-dasharray="none"></path></g></g></g><g id="g-root-3.line_sy_v7zxd15v3b48-stroke" data-item-order="999852558" data-item-id="3.line_sy_v7zxd15v3b48" data-item-class="Curve Stroke Part Indexed" data-item-index="3" data-renderer-id="0" transform="translate(230.109375, 277.998046875)"><g id="3.line_sy_v7zxd15v3b48-stroke" fill="none" stroke-linecap="round" stroke-linejoin="round" stroke-miterlimit="4" stroke="#93c131" stroke-width="2"><g><path d="M 249.95061 10.480469L 129.89061 40.000469L 10.00061 40.000469"></path><path d="M 245.70061 18.180469L 250.40061 10.380469L 242.60061 5.580469" stroke-dasharray="none"></path></g></g></g><g id="g-root-3.cr-small_cr_v7zxd15v3b49-stroke" data-item-order="999852559" data-item-id="3.cr-small_cr_v7zxd15v3b49" data-item-class="Shape Stroke Fill Part Indexed" data-item-index="3" data-renderer-id="0" transform="translate(170, 278.998046875)"><g id="3.cr-small_cr_v7zxd15v3b49-stroke" fill="none" stroke-linecap="round" stroke-linejoin="round" stroke-miterlimit="4" stroke="#93c131" stroke-width="2"><g><path d="M 10 40C 10.000002 56.568544 23.431459 70.000002 40.000002 70.000002C 56.568544 70.000002 70.000002 56.568544 70.000002 40.000002C 70.000002 23.431459 56.568544 10.000002 40.000002 10.000002C 23.431459 10.000002 10.000002 23.431459 10.000002 40.000002"></path></g></g></g><g id="g-root-3.cr-small_cr_v7zxd15v3b49-stroke" data-item-order="999852559" data-item-id="3.cr-small_cr_v7zxd15v3b49" data-item-class="Shape Stroke Fill Part Indexed" data-item-index="3" data-renderer-id="0" transform="translate(170, 278.998046875)"><g id="3.cr-small_cr_v7zxd15v3b49-stroke" fill="none" stroke-linecap="round" stroke-linejoin="round" stroke-miterlimit="4" stroke="#93c131" stroke-width="2"><g><path d="M 10 40C 10.000002 56.568544 23.431459 70.000002 40.000002 70.000002C 56.568544 70.000002 70.000002 56.568544 70.000002 40.000002C 70.000002 23.431459 56.568544 10.000002 40.000002 10.000002C 23.431459 10.000002 10.000002 23.431459 10.000002 40.000002"></path></g></g></g><g id="g-root-2.line_sy_zntfhh5v3aby-stroke" data-item-order="999852562" data-item-id="2.line_sy_zntfhh5v3aby" data-item-class="Curve Stroke Part Indexed" data-item-index="2" data-renderer-id="0" transform="translate(230, 223.998046875)"><g id="2.line_sy_zntfhh5v3aby-stroke" fill="none" stroke-linecap="round" stroke-linejoin="round" stroke-miterlimit="4" stroke="#3bc482" stroke-width="2"><g><path d="M 250.06 39.52L 130 10L 10 10"></path><path d="M 242.7 44.4L 250.5 39.6L 245.8 31.8" stroke-dasharray="none"></path></g></g></g><g id="g-root-2.line_sy_zntfhh5v3aby-stroke" data-item-order="999852562" data-item-id="2.line_sy_zntfhh5v3aby" data-item-class="Curve Stroke Part Indexed" data-item-index="2" data-renderer-id="0" transform="translate(230, 223.998046875)"><g id="2.line_sy_zntfhh5v3aby-stroke" fill="none" stroke-linecap="round" stroke-linejoin="round" stroke-miterlimit="4" stroke="#3bc482" stroke-width="2"><g><path d="M 250.06 39.52L 130 10L 10 10"></path><path d="M 242.7 44.4L 250.5 39.6L 245.8 31.8" stroke-dasharray="none"></path></g></g></g><g id="g-root-2.cr-small_cr_v7zxd15v3b47-stroke" data-item-order="999852563" data-item-id="2.cr-small_cr_v7zxd15v3b47" data-item-class="Shape Stroke Fill Part Indexed" data-item-index="2" data-renderer-id="0" transform="translate(170, 194.998046875)"><g id="2.cr-small_cr_v7zxd15v3b47-stroke" fill="none" stroke-linecap="round" stroke-linejoin="round" stroke-miterlimit="4" stroke="#3bc482" stroke-width="2"><g><path d="M 10 40C 10.000002 56.568544 23.431459 70.000002 40.000002 70.000002C 56.568544 70.000002 70.000002 56.568544 70.000002 40.000002C 70.000002 23.431459 56.568544 10.000002 40.000002 10.000002C 23.431459 10.000002 10.000002 23.431459 10.000002 40.000002"></path></g></g></g><g id="g-root-2.cr-small_cr_v7zxd15v3b47-stroke" data-item-order="999852563" data-item-id="2.cr-small_cr_v7zxd15v3b47" data-item-class="Shape Stroke Fill Part Indexed" data-item-index="2" data-renderer-id="0" transform="translate(170, 194.998046875)"><g id="2.cr-small_cr_v7zxd15v3b47-stroke" fill="none" stroke-linecap="round" stroke-linejoin="round" stroke-miterlimit="4" stroke="#3bc482" stroke-width="2"><g><path d="M 10 40C 10.000002 56.568544 23.431459 70.000002 40.000002 70.000002C 56.568544 70.000002 70.000002 56.568544 70.000002 40.000002C 70.000002 23.431459 56.568544 10.000002 40.000002 10.000002C 23.431459 10.000002 10.000002 23.431459 10.000002 40.000002"></path></g></g></g><g id="g-root-1.line_sy_18jgfqd5v39j8-stroke" data-item-order="999852566" data-item-id="1.line_sy_18jgfqd5v39j8" data-item-class="Curve Stroke Part Indexed Indexed_1" data-item-index="1" data-renderer-id="0" transform="translate(230, 139.998046875)"><g id="1.line_sy_18jgfqd5v39j8-stroke" fill="none" stroke-linecap="round" stroke-linejoin="round" stroke-miterlimit="4" stroke="#17b0e3" stroke-width="2"><g><path d="M 260.35 99.86L 130 10L 10 10"></path><path d="M 251.7 101.8L 260.8 100.1L 259.1 91.1" stroke-dasharray="none"></path></g></g></g><g id="g-root-1.line_sy_18jgfqd5v39j8-stroke" data-item-order="999852566" data-item-id="1.line_sy_18jgfqd5v39j8" data-item-class="Curve Stroke Part Indexed Indexed_1" data-item-index="1" data-renderer-id="0" transform="translate(230, 139.998046875)"><g id="1.line_sy_18jgfqd5v39j8-stroke" fill="none" stroke-linecap="round" stroke-linejoin="round" stroke-miterlimit="4" stroke="#17b0e3" stroke-width="2"><g><path d="M 260.35 99.86L 130 10L 10 10"></path><path d="M 251.7 101.8L 260.8 100.1L 259.1 91.1" stroke-dasharray="none"></path></g></g></g><g id="g-root-1.cr-small_cr_zntfhh5v3abx-stroke" data-item-order="999852567" data-item-id="1.cr-small_cr_zntfhh5v3abx" data-item-class="Shape Stroke Fill Part Indexed Indexed_1" data-item-index="1" data-renderer-id="0" transform="translate(170, 110.998046875)"><g id="1.cr-small_cr_zntfhh5v3abx-stroke" fill="none" stroke-linecap="round" stroke-linejoin="round" stroke-miterlimit="4" stroke="#17b0e3" stroke-width="2"><g><path d="M 10 40C 10.000002 56.568544 23.431459 70.000002 40.000002 70.000002C 56.568544 70.000002 70.000002 56.568544 70.000002 40.000002C 70.000002 23.431459 56.568544 10.000002 40.000002 10.000002C 23.431459 10.000002 10.000002 23.431459 10.000002 40.000002"></path></g></g></g><g id="g-root-1.cr-small_cr_zntfhh5v3abx-stroke" data-item-order="999852567" data-item-id="1.cr-small_cr_zntfhh5v3abx" data-item-class="Shape Stroke Fill Part Indexed Indexed_1" data-item-index="1" data-renderer-id="0" transform="translate(170, 110.998046875)"><g id="1.cr-small_cr_zntfhh5v3abx-stroke" fill="none" stroke-linecap="round" stroke-linejoin="round" stroke-miterlimit="4" stroke="#17b0e3" stroke-width="2"><g><path d="M 10 40C 10.000002 56.568544 23.431459 70.000002 40.000002 70.000002C 56.568544 70.000002 70.000002 56.568544 70.000002 40.000002C 70.000002 23.431459 56.568544 10.000002 40.000002 10.000002C 23.431459 10.000002 10.000002 23.431459 10.000002 40.000002"></path></g></g></g><g id="g-root-bice_1lr63l15vljpc-stroke" data-item-order="1000000000" data-item-id="bice_1lr63l15vljpc" data-item-class="Icon Stroke Indexed InsideFill InsideColorFill" data-item-index="2" data-renderer-id="0" transform="translate(182, 205.998046875)"><g id="bice_1lr63l15vljpc-stroke" fill="none" stroke-linecap="round" stroke-linejoin="round" stroke-miterlimit="4" stroke="#3bc482" stroke-width="2"><g><path d="M 18.190001 20.844999L 20.380001 18.1C 20.861149 17.543863 21.688921 17.450903 22.281441 17.886463C 22.873959 18.322025 23.03223 19.139824 22.645 19.764999L 20.5 23.094999L 19.75 30.219999C 22.030001 27.625 28.405001 27.625 29.875 30.684999C 30.065538 26.80382 33.366318 23.811962 37.247501 24.002501C 41.128681 24.193039 44.120541 27.49382 43.93 31.375C 43.93 46.135002 12.25 41.875 12.25 33.610001C 11.8 31.375 14.215 22.525002 15.25 19C 15.541492 18.071884 16.021517 17.213966 16.66 16.48C 17.486683 15.477663 18.706251 14.881552 20.005001 14.845L 22.809999 14.845C 24.000875 14.852575 25.10741 15.460938 25.751858 16.4624C 26.396301 17.463863 26.491518 18.723013 26.005001 19.809999C 25.466345 21.396667 24.090729 22.55265 22.434999 22.809999L 20.5 23.094999M 34.689999 29.844999L 37.689999 29.844999M 36.189999 27.594999L 36.189999 35.095001M 33.189999 33.595001L 36.189999 35.095001L 39.189999 33.595001"></path></g></g></g><g id="g-root-2_1hgchb95v0gzk-stroke" data-item-order="1000000000" data-item-id="2_1hgchb95v0gzk" data-item-class="Icon Stroke Indexed Indexed_1 InsideFill InsideColorFill" data-item-index="1" data-renderer-id="0" transform="translate(182, 121.998046875)"><g id="2_1hgchb95v0gzk-stroke" fill="none" stroke-linecap="round" stroke-linejoin="round" stroke-miterlimit="4" stroke="#17b0e3" stroke-width="2"><g><path d="M 24.25 28.001501C 24.25 30.072567 25.928932 31.751501 28 31.751501C 30.071068 31.751501 31.75 30.072567 31.75 28.001501C 31.75 25.930431 30.071068 24.251501 28 24.251501C 25.928932 24.251501 24.25 25.930431 24.25 28.001501ZM 16 28.001501C 16 34.628914 21.372583 40.001499 28 40.001499C 34.627419 40.001499 40 34.628914 40 28.001501C 40 21.374083 34.627419 16.001499 28 16.001499C 21.372583 16.001499 16 21.374083 16 28.001501ZM 28 16.001499L 28 10.7515M 36.4855 19.515999L 40.197998 15.8035M 40 28.001501L 45.25 28.001501M 36.4855 36.487L 40.197998 40.199501M 28 40.001499L 28 45.251499M 19.5145 36.487L 15.802 40.199501M 16 28.001501L 10.75 28.001501M 19.5145 19.515999L 15.802 15.8035"></path></g></g></g><g id="g-root-2_1hgchb95v0gzk-stroke" data-item-order="1000000000" data-item-id="2_1hgchb95v0gzk" data-item-class="Icon Stroke Indexed Indexed_1 InsideFill InsideColorFill" data-item-index="1" data-renderer-id="0" transform="translate(182, 121.998046875)"><g id="2_1hgchb95v0gzk-stroke" fill="none" stroke-linecap="round" stroke-linejoin="round" stroke-miterlimit="4" stroke="#17b0e3" stroke-width="2"><g><path d="M 24.25 28.001501C 24.25 30.072567 25.928932 31.751501 28 31.751501C 30.071068 31.751501 31.75 30.072567 31.75 28.001501C 31.75 25.930431 30.071068 24.251501 28 24.251501C 25.928932 24.251501 24.25 25.930431 24.25 28.001501ZM 16 28.001501C 16 34.628914 21.372583 40.001499 28 40.001499C 34.627419 40.001499 40 34.628914 40 28.001501C 40 21.374083 34.627419 16.001499 28 16.001499C 21.372583 16.001499 16 21.374083 16 28.001501ZM 28 16.001499L 28 10.7515M 36.4855 19.515999L 40.197998 15.8035M 40 28.001501L 45.25 28.001501M 36.4855 36.487L 40.197998 40.199501M 28 40.001499L 28 45.251499M 19.5145 36.487L 15.802 40.199501M 16 28.001501L 10.75 28.001501M 19.5145 19.515999L 15.802 15.8035"></path></g></g></g><g id="g-root-hurr_1q6zlph5vlix3-stroke" data-item-order="1000000000" data-item-id="hurr_1q6zlph5vlix3" data-item-class="Icon Stroke InsideFill" data-item-index="none" data-renderer-id="0" transform="translate(494, 241.998046875)"><g id="hurr_1q6zlph5vlix3-stroke" fill="none" stroke-linecap="round" stroke-linejoin="round" stroke-miterlimit="4" stroke="#484848" stroke-width="2"><g><path d="M 17 47L 17 56C 17 56.552284 17.447716 57 18 57L 38 57C 38.552284 57 39 56.552284 39 56L 39 47M 11 46L 28 27L 45 46M 26 37L 30 37C 30 37 31 37 31 38L 31 42C 31 42 31 43 30 43L 26 43C 26 43 25 43 25 42L 25 38C 25 38 25 37 26 37M 31 11L 53 11M 35 15L 55 15M 39 19L 57 19M 33 23L 53 23M 35 27L 49 27M 41 31L 53 31M 45 35L 55 35M 49 39L 53 39M 50 43L 52 43"></path></g></g></g><g id="g-root-hurr_1q6zlph5vlix3-stroke" data-item-order="1000000000" data-item-id="hurr_1q6zlph5vlix3" data-item-class="Icon Stroke InsideFill" data-item-index="none" data-renderer-id="0" transform="translate(494, 241.998046875)"><g id="hurr_1q6zlph5vlix3-stroke" fill="none" stroke-linecap="round" stroke-linejoin="round" stroke-miterlimit="4" stroke="#484848" stroke-width="2"><g><path d="M 17 47L 17 56C 17 56.552284 17.447716 57 18 57L 38 57C 38.552284 57 39 56.552284 39 56L 39 47M 11 46L 28 27L 45 46M 26 37L 30 37C 30 37 31 37 31 38L 31 42C 31 42 31 43 30 43L 26 43C 26 43 25 43 25 42L 25 38C 25 38 25 37 26 37M 31 11L 53 11M 35 15L 55 15M 39 19L 57 19M 33 23L 53 23M 35 27L 49 27M 41 31L 53 31M 45 35L 55 35M 49 39L 53 39M 50 43L 52 43"></path></g></g></g><g id="g-root-tx_infrastr_mb3yxx5v39qk-stroke" data-item-order="1000000000" data-item-id="tx_infrastr_mb3yxx5v39qk" data-item-class="Label Stroke" data-item-index="none" data-renderer-id="0" transform="translate(566, 241.998046875)"></g><g id="g-root-tx_infrastr_mb3yxx5v39qk-stroke" data-item-order="1000000000" data-item-id="tx_infrastr_mb3yxx5v39qk" data-item-class="Label Stroke" data-item-index="none" data-renderer-id="0" transform="translate(566, 241.998046875)"></g><g id="g-root-tx_facilita_1upxh9h5v39ji-stroke" data-item-order="1000000000" data-item-id="tx_facilita_1upxh9h5v39ji" data-item-class="Label Stroke Indexed" data-item-index="3" data-renderer-id="0" transform="translate(2, 271.998046875)"></g><g id="g-root-tx_facilita_1upxh9h5v39ji-stroke" data-item-order="1000000000" data-item-id="tx_facilita_1upxh9h5v39ji" data-item-class="Label Stroke Indexed" data-item-index="3" data-renderer-id="0" transform="translate(2, 271.998046875)"></g><g id="g-root-lock_1umt3tx5vli4u-stroke" data-item-order="1000000000" data-item-id="lock_1umt3tx5vli4u" data-item-class="Icon Stroke Indexed InsideFill InsideColorFill" data-item-index="4" data-renderer-id="0" transform="translate(182, 373.998046875)"><g id="lock_1umt3tx5vli4u-stroke" fill="none" stroke-linecap="round" stroke-linejoin="round" stroke-miterlimit="4" stroke="#e3cd09" stroke-width="2"><g><path d="M 17.714285 24.142857L 38.285713 24.142857C 38.285713 24.142857 40.857143 24.142857 40.857143 26.714285L 40.857143 42.142857C 40.857143 42.142857 40.857143 44.714287 38.285713 44.714287L 17.714285 44.714287C 17.714285 44.714287 15.142857 44.714287 15.142857 42.142857L 15.142857 26.714285C 15.142857 26.714285 15.142857 24.142857 17.714285 24.142857M 37 24.142857L 37 20.285713C 37 15.315152 32.970562 11.285715 28.000002 11.285715C 23.029438 11.285715 19 15.315152 19 20.285713L 19 24.142857M 26.714285 34.42857C 26.714285 35.138649 27.289919 35.714287 28 35.714287C 28.710081 35.714287 29.285713 35.138649 29.285713 34.42857C 29.285713 33.718491 28.710081 33.142857 28 33.142857C 27.289919 33.142857 26.714285 33.718491 26.714285 34.42857"></path></g></g></g><g id="g-root-scre_1lr63l15vljpd-stroke" data-item-order="1000000000" data-item-id="scre_1lr63l15vljpd" data-item-class="Icon Stroke Indexed InsideFill InsideColorFill" data-item-index="3" data-renderer-id="0" transform="translate(182, 289.998046875)"><g id="scre_1lr63l15vljpd-stroke" fill="none" stroke-linecap="round" stroke-linejoin="round" stroke-miterlimit="4" stroke="#93c131" stroke-width="2"><g><path d="M 22.473553 28.096687L 27.928377 33.55151C 28.420437 34.043571 28.420439 34.841362 27.928377 35.33342L 19.891603 43.37019C 17.883192 45.378601 14.626915 45.378605 12.618506 43.370193L 12.618506 43.370193C 10.610095 41.361782 10.610095 38.105507 12.618506 36.097095L 20.655281 28.06032C 20.897812 27.817385 21.22896 27.68392 21.572168 27.690784C 21.91538 27.697649 22.240929 27.84425 22.473553 28.096687ZM 25.197142 30.802856L 36.717144 19.282856M 37.617142 20.157143L 35.842857 18.382856L 35.842857 14.834286L 41.165714 11.285714L 44.714287 14.834286L 41.165714 20.157143L 37.617142 20.157143Z"></path></g></g></g><g id="g-root-scre_1lr63l15vljpd-stroke" data-item-order="1000000000" data-item-id="scre_1lr63l15vljpd" data-item-class="Icon Stroke Indexed InsideFill InsideColorFill" data-item-index="3" data-renderer-id="0" transform="translate(182, 289.998046875)"><g id="scre_1lr63l15vljpd-stroke" fill="none" stroke-linecap="round" stroke-linejoin="round" stroke-miterlimit="4" stroke="#93c131" stroke-width="2"><g><path d="M 22.473553 28.096687L 27.928377 33.55151C 28.420437 34.043571 28.420439 34.841362 27.928377 35.33342L 19.891603 43.37019C 17.883192 45.378601 14.626915 45.378605 12.618506 43.370193L 12.618506 43.370193C 10.610095 41.361782 10.610095 38.105507 12.618506 36.097095L 20.655281 28.06032C 20.897812 27.817385 21.22896 27.68392 21.572168 27.690784C 21.91538 27.697649 22.240929 27.84425 22.473553 28.096687ZM 25.197142 30.802856L 36.717144 19.282856M 37.617142 20.157143L 35.842857 18.382856L 35.842857 14.834286L 41.165714 11.285714L 44.714287 14.834286L 41.165714 20.157143L 37.617142 20.157143Z"></path></g></g></g><g id="g-root-bice_1lr63l15vljpc-stroke" data-item-order="1000000000" data-item-id="bice_1lr63l15vljpc" data-item-class="Icon Stroke Indexed InsideFill InsideColorFill" data-item-index="2" data-renderer-id="0" transform="translate(182, 205.998046875)"><g id="bice_1lr63l15vljpc-stroke" fill="none" stroke-linecap="round" stroke-linejoin="round" stroke-miterlimit="4" stroke="#3bc482" stroke-width="2"><g><path d="M 18.190001 20.844999L 20.380001 18.1C 20.861149 17.543863 21.688921 17.450903 22.281441 17.886463C 22.873959 18.322025 23.03223 19.139824 22.645 19.764999L 20.5 23.094999L 19.75 30.219999C 22.030001 27.625 28.405001 27.625 29.875 30.684999C 30.065538 26.80382 33.366318 23.811962 37.247501 24.002501C 41.128681 24.193039 44.120541 27.49382 43.93 31.375C 43.93 46.135002 12.25 41.875 12.25 33.610001C 11.8 31.375 14.215 22.525002 15.25 19C 15.541492 18.071884 16.021517 17.213966 16.66 16.48C 17.486683 15.477663 18.706251 14.881552 20.005001 14.845L 22.809999 14.845C 24.000875 14.852575 25.10741 15.460938 25.751858 16.4624C 26.396301 17.463863 26.491518 18.723013 26.005001 19.809999C 25.466345 21.396667 24.090729 22.55265 22.434999 22.809999L 20.5 23.094999M 34.689999 29.844999L 37.689999 29.844999M 36.189999 27.594999L 36.189999 35.095001M 33.189999 33.595001L 36.189999 35.095001L 39.189999 33.595001"></path></g></g></g><g id="g-root-tx_basesoli_1qa3z515v3abr-stroke" data-item-order="1000000000" data-item-id="tx_basesoli_1qa3z515v3abr" data-item-class="Label Stroke Indexed" data-item-index="2" data-renderer-id="0" transform="translate(26, 199.998046875)"></g><g id="g-root-tx_dtailtec_1luah0l5v3b40-stroke" data-item-order="1000000000" data-item-id="tx_dtailtec_1luah0l5v3b40" data-item-class="Label Stroke Indexed Indexed_1" data-item-index="1" data-renderer-id="0" transform="translate(2, 115.998046875)"></g><g id="g-root-tx_dtailtec_1luah0l5v3b40-stroke" data-item-order="1000000000" data-item-id="tx_dtailtec_1luah0l5v3b40" data-item-class="Label Stroke Indexed Indexed_1" data-item-index="1" data-renderer-id="0" transform="translate(2, 115.998046875)"></g><g id="g-root-tx_protecti_8zngkl5v3bbh-stroke" data-item-order="1000000000" data-item-id="tx_protecti_8zngkl5v3bbh" data-item-class="Label Stroke Indexed" data-item-index="4" data-renderer-id="0" transform="translate(26, 355.998046875)"></g><g id="g-root-tx_protecti_8zngkl5v3bbh-stroke" data-item-order="1000000000" data-item-id="tx_protecti_8zngkl5v3bbh" data-item-class="Label Stroke Indexed" data-item-index="4" data-renderer-id="0" transform="translate(26, 355.998046875)"></g><g id="g-root-tx_principe_1luah0l5v3b41-stroke" data-item-order="1000000000" data-item-id="tx_principe_1luah0l5v3b41" data-item-class="Label Stroke Title" data-item-index="none" data-renderer-id="0" transform="translate(194, 2)"></g><g id="g-root-lock_1umt3tx5vli4u-stroke" data-item-order="1000000000" data-item-id="lock_1umt3tx5vli4u" data-item-class="Icon Stroke Indexed InsideFill InsideColorFill" data-item-index="4" data-renderer-id="0" transform="translate(182, 373.998046875)"><g id="lock_1umt3tx5vli4u-stroke" fill="none" stroke-linecap="round" stroke-linejoin="round" stroke-miterlimit="4" stroke="#e3cd09" stroke-width="2"><g><path d="M 17.714285 24.142857L 38.285713 24.142857C 38.285713 24.142857 40.857143 24.142857 40.857143 26.714285L 40.857143 42.142857C 40.857143 42.142857 40.857143 44.714287 38.285713 44.714287L 17.714285 44.714287C 17.714285 44.714287 15.142857 44.714287 15.142857 42.142857L 15.142857 26.714285C 15.142857 26.714285 15.142857 24.142857 17.714285 24.142857M 37 24.142857L 37 20.285713C 37 15.315152 32.970562 11.285715 28.000002 11.285715C 23.029438 11.285715 19 15.315152 19 20.285713L 19 24.142857M 26.714285 34.42857C 26.714285 35.138649 27.289919 35.714287 28 35.714287C 28.710081 35.714287 29.285713 35.138649 29.285713 34.42857C 29.285713 33.718491 28.710081 33.142857 28 33.142857C 27.289919 33.142857 26.714285 33.718491 26.714285 34.42857"></path></g></g></g><g id="g-root-tx_principe_1luah0l5v3b41-stroke" data-item-order="1000000000" data-item-id="tx_principe_1luah0l5v3b41" data-item-class="Label Stroke Title" data-item-index="none" data-renderer-id="0" transform="translate(194, 2)"></g><g id="g-root-tx_basesoli_1qa3z515v3abr-stroke" data-item-order="1000000000" data-item-id="tx_basesoli_1qa3z515v3abr" data-item-class="Label Stroke Indexed" data-item-index="2" data-renderer-id="0" transform="translate(26, 199.998046875)"></g></g></g></svg>