<?xml version="1.0" encoding="utf-8" standalone="yes"?>
<!DOCTYPE svg PUBLIC "-//W3C//DTD SVG 1.1//EN" "http://www.w3.org/Graphics/SVG/1.1/DTD/svg11.dtd">
<svg width="708" height="481" viewBox="0 0 708 481" style="fill:none;stroke:none;fill-rule:evenodd;clip-rule:evenodd;stroke-linecap:round;stroke-linejoin:round;stroke-miterlimit:1.5;" version="1.1" xmlns="http://www.w3.org/2000/svg" xmlns:xlink="http://www.w3.org/1999/xlink"><style id="fontImports">@import url("https://fonts.googleapis.com/css2?family=Roboto:wght@400;700&amp;display=block");</style><rect id="" x="0" y="0" width="708" height="481" style="fill: #ffffff;"></rect><g id="items" style="isolation: isolate"><g id="blend" style="mix-blend-mode:normal"><g id="g-root--1.cu_sy_v7cknp8d9gqt-fill" data-item-order="999852548" data-item-id="-1.cu_sy_v7cknp8d9gqt" data-item-class="Part Fill Stroke ColorFillGray ColorStrokeGray" data-item-index="-1" data-renderer-id="0" transform="translate(302, 74)"><g id="-1.cu_sy_v7cknp8d9gqt-fill" stroke="none" fill="#f6f6f6"><g><path d="M 65.766602 394C 80.754802 394 106.000002 308.039 106.000002 202C 106.000002 95.9613 80.754802 10 65.766602 10C 80.775202 10.01 92.941702 96.2224 92.941702 202C 92.941702 307.778 80.775202 393.99 65.766602 394ZM 65.765897 394C 80.774597 393.99 92.941097 307.778 92.941097 202C 92.941097 96.2224 80.774597 10.01 65.765897 10L 51.957397 10C 66.060697 16.8878 77.199297 100.4719 77.199297 202C 77.199297 303.528 65.382597 387.112 51.279297 394L 65.765897 394ZM 77.2 202C 77.2 303.528 65.3833 387.112 51.28 394L 50.0615 394C 35.0734 394 10 308.039 10 202C 10 95.9613 35.0734 10 50.0615 10C 50.6991 10 51.9581 10 51.9581 10C 66.0614 16.8878 77.2 100.4719 77.2 202Z"></path></g></g></g><g id="g-root--1.cu_sy_v7cknp8d9gqt-fill" data-item-order="999852548" data-item-id="-1.cu_sy_v7cknp8d9gqt" data-item-class="Part Fill Stroke ColorFillGray ColorStrokeGray" data-item-index="-1" data-renderer-id="0" transform="translate(302, 74)"><g id="-1.cu_sy_v7cknp8d9gqt-fill" stroke="none" fill="#f6f6f6"><g><path d="M 65.766602 394C 80.754802 394 106.000002 308.039 106.000002 202C 106.000002 95.9613 80.754802 10 65.766602 10C 80.775202 10.01 92.941702 96.2224 92.941702 202C 92.941702 307.778 80.775202 393.99 65.766602 394ZM 65.765897 394C 80.774597 393.99 92.941097 307.778 92.941097 202C 92.941097 96.2224 80.774597 10.01 65.765897 10L 51.957397 10C 66.060697 16.8878 77.199297 100.4719 77.199297 202C 77.199297 303.528 65.382597 387.112 51.279297 394L 65.765897 394ZM 77.2 202C 77.2 303.528 65.3833 387.112 51.28 394L 50.0615 394C 35.0734 394 10 308.039 10 202C 10 95.9613 35.0734 10 50.0615 10C 50.6991 10 51.9581 10 51.9581 10C 66.0614 16.8878 77.2 100.4719 77.2 202Z"></path></g></g></g><g id="g-root-0.cr-medium_cr_v7cknp8d9gqu-fill" data-item-order="999852550" data-item-id="0.cr-medium_cr_v7cknp8d9gqu" data-item-class="Shape Stroke Fill Part Indexed_0" data-item-index="0" data-renderer-id="0" transform="translate(470, 230)"><g id="0.cr-medium_cr_v7cknp8d9gqu-fill" stroke="none" fill="#f0f0f0"><g><path d="M 10 46C 10 65.882251 26.117749 82 46 82C 65.882251 82 82 65.882251 82 46C 82 26.117749 65.882251 10 46 10C 26.117749 10 10 26.117749 10 46"></path></g></g></g><g id="g-root-0.cr-medium_cr_v7cknp8d9gqu-fill" data-item-order="999852550" data-item-id="0.cr-medium_cr_v7cknp8d9gqu" data-item-class="Shape Stroke Fill Part Indexed_0" data-item-index="0" data-renderer-id="0" transform="translate(470, 230)"><g id="0.cr-medium_cr_v7cknp8d9gqu-fill" stroke="none" fill="#f0f0f0"><g><path d="M 10 46C 10 65.882251 26.117749 82 46 82C 65.882251 82 82 65.882251 82 46C 82 26.117749 65.882251 10 46 10C 26.117749 10 10 26.117749 10 46"></path></g></g></g><g id="g-root-4.line_sy_dgp1918d9fyd-fill" data-item-order="999852553" data-item-id="4.line_sy_dgp1918d9fyd" data-item-class="Curve Stroke Part Indexed" data-item-index="4" data-renderer-id="0" transform="translate(218, 301)"></g><g id="g-root-4.line_sy_dgp1918d9fyd-fill" data-item-order="999852553" data-item-id="4.line_sy_dgp1918d9fyd" data-item-class="Curve Stroke Part Indexed" data-item-index="4" data-renderer-id="0" transform="translate(218, 301)"></g><g id="g-root-4.cr-small_cr_dgp1918d9fye-fill" data-item-order="999852554" data-item-id="4.cr-small_cr_dgp1918d9fye" data-item-class="Shape Stroke Fill Part Indexed" data-item-index="4" data-renderer-id="0" transform="translate(158, 363)"><g id="4.cr-small_cr_dgp1918d9fye-fill" stroke="none" fill="#fffce6"><g><path d="M 10 40C 10.000002 56.568544 23.431459 70.000002 40.000002 70.000002C 56.568544 70.000002 70.000002 56.568544 70.000002 40.000002C 70.000002 23.431459 56.568544 10.000002 40.000002 10.000002C 23.431459 10.000002 10.000002 23.431459 10.000002 40.000002"></path></g></g></g><g id="g-root-4.cr-small_cr_dgp1918d9fye-fill" data-item-order="999852554" data-item-id="4.cr-small_cr_dgp1918d9fye" data-item-class="Shape Stroke Fill Part Indexed" data-item-index="4" data-renderer-id="0" transform="translate(158, 363)"><g id="4.cr-small_cr_dgp1918d9fye-fill" stroke="none" fill="#fffce6"><g><path d="M 10 40C 10.000002 56.568544 23.431459 70.000002 40.000002 70.000002C 56.568544 70.000002 70.000002 56.568544 70.000002 40.000002C 70.000002 23.431459 56.568544 10.000002 40.000002 10.000002C 23.431459 10.000002 10.000002 23.431459 10.000002 40.000002"></path></g></g></g><g id="g-root-3.line_sy_hwijdh8d9f63-fill" data-item-order="999852557" data-item-id="3.line_sy_hwijdh8d9f63" data-item-class="Curve Stroke Part Indexed" data-item-index="3" data-renderer-id="0" transform="translate(218.109375, 278)"></g><g id="g-root-3.line_sy_hwijdh8d9f63-fill" data-item-order="999852557" data-item-id="3.line_sy_hwijdh8d9f63" data-item-class="Curve Stroke Part Indexed" data-item-index="3" data-renderer-id="0" transform="translate(218.109375, 278)"></g><g id="g-root-3.cr-small_cr_dgp1918d9fyc-fill" data-item-order="999852558" data-item-id="3.cr-small_cr_dgp1918d9fyc" data-item-class="Shape Stroke Fill Part Indexed" data-item-index="3" data-renderer-id="0" transform="translate(158, 279)"><g id="3.cr-small_cr_dgp1918d9fyc-fill" stroke="none" fill="#f5fbe9"><g><path d="M 10 40C 10.000002 56.568544 23.431459 70.000002 40.000002 70.000002C 56.568544 70.000002 70.000002 56.568544 70.000002 40.000002C 70.000002 23.431459 56.568544 10.000002 40.000002 10.000002C 23.431459 10.000002 10.000002 23.431459 10.000002 40.000002"></path></g></g></g><g id="g-root-3.cr-small_cr_dgp1918d9fyc-fill" data-item-order="999852558" data-item-id="3.cr-small_cr_dgp1918d9fyc" data-item-class="Shape Stroke Fill Part Indexed" data-item-index="3" data-renderer-id="0" transform="translate(158, 279)"><g id="3.cr-small_cr_dgp1918d9fyc-fill" stroke="none" fill="#f5fbe9"><g><path d="M 10 40C 10.000002 56.568544 23.431459 70.000002 40.000002 70.000002C 56.568544 70.000002 70.000002 56.568544 70.000002 40.000002C 70.000002 23.431459 56.568544 10.000002 40.000002 10.000002C 23.431459 10.000002 10.000002 23.431459 10.000002 40.000002"></path></g></g></g><g id="g-root-2.line_sy_qrj2j98d9hj5-fill" data-item-order="999852561" data-item-id="2.line_sy_qrj2j98d9hj5" data-item-class="Curve Stroke Part Indexed" data-item-index="2" data-renderer-id="0" transform="translate(218, 224)"></g><g id="g-root-2.line_sy_qrj2j98d9hj5-fill" data-item-order="999852561" data-item-id="2.line_sy_qrj2j98d9hj5" data-item-class="Curve Stroke Part Indexed" data-item-index="2" data-renderer-id="0" transform="translate(218, 224)"></g><g id="g-root-2.cr-small_cr_hwijdh8d9f62-fill" data-item-order="999852562" data-item-id="2.cr-small_cr_hwijdh8d9f62" data-item-class="Shape Stroke Fill Part Indexed" data-item-index="2" data-renderer-id="0" transform="translate(158, 195)"><g id="2.cr-small_cr_hwijdh8d9f62-fill" stroke="none" fill="#e9fbf3"><g><path d="M 10 40C 10.000002 56.568544 23.431459 70.000002 40.000002 70.000002C 56.568544 70.000002 70.000002 56.568544 70.000002 40.000002C 70.000002 23.431459 56.568544 10.000002 40.000002 10.000002C 23.431459 10.000002 10.000002 23.431459 10.000002 40.000002"></path></g></g></g><g id="g-root-2.cr-small_cr_hwijdh8d9f62-fill" data-item-order="999852562" data-item-id="2.cr-small_cr_hwijdh8d9f62" data-item-class="Shape Stroke Fill Part Indexed" data-item-index="2" data-renderer-id="0" transform="translate(158, 195)"><g id="2.cr-small_cr_hwijdh8d9f62-fill" stroke="none" fill="#e9fbf3"><g><path d="M 10 40C 10.000002 56.568544 23.431459 70.000002 40.000002 70.000002C 56.568544 70.000002 70.000002 56.568544 70.000002 40.000002C 70.000002 23.431459 56.568544 10.000002 40.000002 10.000002C 23.431459 10.000002 10.000002 23.431459 10.000002 40.000002"></path></g></g></g><g id="g-root-1.line_sy_mbpket8d9hjj-fill" data-item-order="999852565" data-item-id="1.line_sy_mbpket8d9hjj" data-item-class="Curve Stroke Part Indexed Indexed_1" data-item-index="1" data-renderer-id="0" transform="translate(218, 140)"></g><g id="g-root-1.line_sy_mbpket8d9hjj-fill" data-item-order="999852565" data-item-id="1.line_sy_mbpket8d9hjj" data-item-class="Curve Stroke Part Indexed Indexed_1" data-item-index="1" data-renderer-id="0" transform="translate(218, 140)"></g><g id="g-root-1.cr-small_cr_qrj2j98d9hj4-fill" data-item-order="999852566" data-item-id="1.cr-small_cr_qrj2j98d9hj4" data-item-class="Shape Stroke Fill Part Indexed Indexed_1" data-item-index="1" data-renderer-id="0" transform="translate(158, 111)"><g id="1.cr-small_cr_qrj2j98d9hj4-fill" stroke="none" fill="#e6f9ff"><g><path d="M 10 40C 10.000002 56.568544 23.431459 70.000002 40.000002 70.000002C 56.568544 70.000002 70.000002 56.568544 70.000002 40.000002C 70.000002 23.431459 56.568544 10.000002 40.000002 10.000002C 23.431459 10.000002 10.000002 23.431459 10.000002 40.000002"></path></g></g></g><g id="g-root-1.cr-small_cr_qrj2j98d9hj4-fill" data-item-order="999852566" data-item-id="1.cr-small_cr_qrj2j98d9hj4" data-item-class="Shape Stroke Fill Part Indexed Indexed_1" data-item-index="1" data-renderer-id="0" transform="translate(158, 111)"><g id="1.cr-small_cr_qrj2j98d9hj4-fill" stroke="none" fill="#e6f9ff"><g><path d="M 10 40C 10.000002 56.568544 23.431459 70.000002 40.000002 70.000002C 56.568544 70.000002 70.000002 56.568544 70.000002 40.000002C 70.000002 23.431459 56.568544 10.000002 40.000002 10.000002C 23.431459 10.000002 10.000002 23.431459 10.000002 40.000002"></path></g></g></g><g id="g-root-4_vccdcl8dc9ah-fill" data-item-order="1000000000" data-item-id="4_vccdcl8dc9ah" data-item-class="Icon Stroke Indexed InsideFill InsideColorFill" data-item-index="2" data-renderer-id="0" transform="translate(170, 206)"></g><g id="g-root-4_vccdcl8dc9ah-fill" data-item-order="1000000000" data-item-id="4_vccdcl8dc9ah" data-item-class="Icon Stroke Indexed InsideFill InsideColorFill" data-item-index="2" data-renderer-id="0" transform="translate(170, 206)"></g><g id="g-root-tx_abstract_1cy042d8d9hje-fill" data-item-order="1000000000" data-item-id="tx_abstract_1cy042d8d9hje" data-item-class="Label Stroke Indexed" data-item-index="2" data-renderer-id="0" transform="translate(38, 200)"><g id="tx_abstract_1cy042d8d9hje-fill" stroke="none" fill="#484848"><g><text style="font: 20px Roboto, sans-serif; white-space: pre;" font-weight="20px" font-size="Roboto," font-family="sans-serif"><tspan x="13.33" y="34" dominant-baseline="ideographic">Abstraction </tspan><tspan x="28.5" y="58" dominant-baseline="ideographic">technique</tspan></text></g></g></g><g id="g-root-bank_vccdcl8dc9ag-fill" data-item-order="1000000000" data-item-id="bank_vccdcl8dc9ag" data-item-class="Icon Stroke InsideFill" data-item-index="none" data-renderer-id="0" transform="translate(482, 242)"></g><g id="g-root-bank_vccdcl8dc9ag-fill" data-item-order="1000000000" data-item-id="bank_vccdcl8dc9ag" data-item-class="Icon Stroke InsideFill" data-item-index="none" data-renderer-id="0" transform="translate(482, 242)"></g><g id="g-root-tx_couchein_1upa4k58d9f67-fill" data-item-order="1000000000" data-item-id="tx_couchein_1upa4k58d9f67" data-item-class="Label Stroke" data-item-index="none" data-renderer-id="0" transform="translate(554, 242)"><g id="tx_couchein_1upa4k58d9f67-fill" stroke="none" fill="#484848"><g><text style="font: 20px Roboto, sans-serif; white-space: pre;" font-weight="20px" font-size="Roboto," font-family="sans-serif"><tspan x="12" y="34" dominant-baseline="ideographic">Couche </tspan><tspan x="12" y="58" dominant-baseline="ideographic">infrastructure</tspan></text></g></g></g><g id="g-root-tx_responsa_zn62s58d9fyk-fill" data-item-order="1000000000" data-item-id="tx_responsa_zn62s58d9fyk" data-item-class="Label Stroke Title" data-item-index="none" data-renderer-id="0" transform="translate(152, 2)"><g id="tx_responsa_zn62s58d9fyk-fill" stroke="none" fill="#484848"><g><text style="font: 20px Roboto, sans-serif; white-space: pre;" font-weight="20px" font-size="Roboto," font-family="sans-serif"><tspan x="16.19" y="34" dominant-baseline="ideographic">Responsabilités de la couche infrastructure</tspan></text></g></g></g><g id="g-root-tx_fiabilit_1ltn4b98d9gqp-fill" data-item-order="1000000000" data-item-id="tx_fiabilit_1ltn4b98d9gqp" data-item-class="Label Stroke Indexed" data-item-index="3" data-renderer-id="0" transform="translate(26, 284)"><g id="tx_fiabilit_1ltn4b98d9gqp-fill" stroke="none" fill="#484848"><g><text style="font: 20px Roboto, sans-serif; white-space: pre;" font-weight="20px" font-size="Roboto," font-family="sans-serif"><tspan x="36.21" y="34" dominant-baseline="ideographic">Fiabilité et </tspan><tspan x="13.63" y="58" dominant-baseline="ideographic">performance</tspan></text></g></g></g><g id="g-root-tx_fiabilit_1ltn4b98d9gqp-fill" data-item-order="1000000000" data-item-id="tx_fiabilit_1ltn4b98d9gqp" data-item-class="Label Stroke Indexed" data-item-index="3" data-renderer-id="0" transform="translate(26, 284)"><g id="tx_fiabilit_1ltn4b98d9gqp-fill" stroke="none" fill="#484848"><g><text style="font: 20px Roboto, sans-serif; white-space: pre;" font-weight="20px" font-size="Roboto," font-family="sans-serif"><tspan x="36.21" y="34" dominant-baseline="ideographic">Fiabilité et </tspan><tspan x="13.63" y="58" dominant-baseline="ideographic">performance</tspan></text></g></g></g><g id="g-root-tx_abstract_1cy042d8d9hje-fill" data-item-order="1000000000" data-item-id="tx_abstract_1cy042d8d9hje" data-item-class="Label Stroke Indexed" data-item-index="2" data-renderer-id="0" transform="translate(38, 200)"><g id="tx_abstract_1cy042d8d9hje-fill" stroke="none" fill="#484848"><g><text style="font: 20px Roboto, sans-serif; white-space: pre;" font-weight="20px" font-size="Roboto," font-family="sans-serif"><tspan x="13.33" y="34" dominant-baseline="ideographic">Abstraction </tspan><tspan x="28.5" y="58" dominant-baseline="ideographic">technique</tspan></text></g></g></g><g id="g-root-puzz_v8litx8ddpfn-fill" data-item-order="1000000000" data-item-id="puzz_v8litx8ddpfn" data-item-class="Icon Stroke Indexed Indexed_1 InsideFill InsideColorFill" data-item-index="1" data-renderer-id="0" transform="translate(170, 122)"></g><g id="g-root-1_mdkzo58ddn2k-fill" data-item-order="1000000000" data-item-id="1_mdkzo58ddn2k" data-item-class="Icon Stroke Indexed InsideFill InsideColorFill" data-item-index="3" data-renderer-id="0" transform="translate(170, 290)"></g><g id="g-root-1_mdkzo58ddn2k-fill" data-item-order="1000000000" data-item-id="1_mdkzo58ddn2k" data-item-class="Icon Stroke Indexed InsideFill InsideColorFill" data-item-index="3" data-renderer-id="0" transform="translate(170, 290)"></g><g id="g-root-3_qwiv858dca2q-fill" data-item-order="1000000000" data-item-id="3_qwiv858dca2q" data-item-class="Icon Stroke Indexed InsideFill InsideColorFill" data-item-index="4" data-renderer-id="0" transform="translate(170, 374)"></g><g id="g-root-tx_implment_18it3118d9f5v-fill" data-item-order="1000000000" data-item-id="tx_implment_18it3118d9f5v" data-item-class="Label Stroke Indexed Indexed_1" data-item-index="1" data-renderer-id="0" transform="translate(2, 116)"><g id="tx_implment_18it3118d9f5v-fill" stroke="none" fill="#484848"><g><text style="font: 20px Roboto, sans-serif; white-space: pre;" font-weight="20px" font-size="Roboto," font-family="sans-serif"><tspan x="11.96" y="34" dominant-baseline="ideographic">Implémentation </tspan><tspan x="25.73" y="58" dominant-baseline="ideographic">des interfaces</tspan></text></g></g></g><g id="g-root-tx_implment_18it3118d9f5v-fill" data-item-order="1000000000" data-item-id="tx_implment_18it3118d9f5v" data-item-class="Label Stroke Indexed Indexed_1" data-item-index="1" data-renderer-id="0" transform="translate(2, 116)"><g id="tx_implment_18it3118d9f5v-fill" stroke="none" fill="#484848"><g><text style="font: 20px Roboto, sans-serif; white-space: pre;" font-weight="20px" font-size="Roboto," font-family="sans-serif"><tspan x="11.96" y="34" dominant-baseline="ideographic">Implémentation </tspan><tspan x="25.73" y="58" dominant-baseline="ideographic">des interfaces</tspan></text></g></g></g><g id="g-root-tx_interfac_1q9gmfp8d9fyg-fill" data-item-order="1000000000" data-item-id="tx_interfac_1q9gmfp8d9fyg" data-item-class="Label Stroke Indexed" data-item-index="4" data-renderer-id="0" transform="translate(26, 368)"><g id="tx_interfac_1q9gmfp8d9fyg-fill" stroke="none" fill="#484848"><g><text style="font: 20px Roboto, sans-serif; white-space: pre;" font-weight="20px" font-size="Roboto," font-family="sans-serif"><tspan x="21.75" y="34" dominant-baseline="ideographic">Interface de </tspan><tspan x="50.42" y="58" dominant-baseline="ideographic">domaine</tspan></text></g></g></g><g id="g-root-tx_interfac_1q9gmfp8d9fyg-fill" data-item-order="1000000000" data-item-id="tx_interfac_1q9gmfp8d9fyg" data-item-class="Label Stroke Indexed" data-item-index="4" data-renderer-id="0" transform="translate(26, 368)"><g id="tx_interfac_1q9gmfp8d9fyg-fill" stroke="none" fill="#484848"><g><text style="font: 20px Roboto, sans-serif; white-space: pre;" font-weight="20px" font-size="Roboto," font-family="sans-serif"><tspan x="21.75" y="34" dominant-baseline="ideographic">Interface de </tspan><tspan x="50.42" y="58" dominant-baseline="ideographic">domaine</tspan></text></g></g></g><g id="g-root-tx_responsa_zn62s58d9fyk-fill" data-item-order="1000000000" data-item-id="tx_responsa_zn62s58d9fyk" data-item-class="Label Stroke Title" data-item-index="none" data-renderer-id="0" transform="translate(152, 2)"><g id="tx_responsa_zn62s58d9fyk-fill" stroke="none" fill="#484848"><g><text style="font: 20px Roboto, sans-serif; white-space: pre;" font-weight="20px" font-size="Roboto," font-family="sans-serif"><tspan x="16.19" y="34" dominant-baseline="ideographic">Responsabilités de la couche infrastructure</tspan></text></g></g></g><g id="g-root-3_qwiv858dca2q-fill" data-item-order="1000000000" data-item-id="3_qwiv858dca2q" data-item-class="Icon Stroke Indexed InsideFill InsideColorFill" data-item-index="4" data-renderer-id="0" transform="translate(170, 374)"></g><g id="g-root-puzz_v8litx8ddpfn-fill" data-item-order="1000000000" data-item-id="puzz_v8litx8ddpfn" data-item-class="Icon Stroke Indexed Indexed_1 InsideFill InsideColorFill" data-item-index="1" data-renderer-id="0" transform="translate(170, 122)"></g><g id="g-root-tx_couchein_1upa4k58d9f67-fill" data-item-order="1000000000" data-item-id="tx_couchein_1upa4k58d9f67" data-item-class="Label Stroke" data-item-index="none" data-renderer-id="0" transform="translate(554, 242)"><g id="tx_couchein_1upa4k58d9f67-fill" stroke="none" fill="#484848"><g><text style="font: 20px Roboto, sans-serif; white-space: pre;" font-weight="20px" font-size="Roboto," font-family="sans-serif"><tspan x="12" y="34" dominant-baseline="ideographic">Couche </tspan><tspan x="12" y="58" dominant-baseline="ideographic">infrastructure</tspan></text></g></g></g><g id="g-root--1.cu_sy_v7cknp8d9gqt-stroke" data-item-order="999852548" data-item-id="-1.cu_sy_v7cknp8d9gqt" data-item-class="Part Fill Stroke ColorFillGray ColorStrokeGray" data-item-index="-1" data-renderer-id="0" transform="translate(302, 74)"><g id="-1.cu_sy_v7cknp8d9gqt-stroke" fill="none" stroke-linecap="round" stroke-linejoin="round" stroke-miterlimit="4" stroke="#888888" stroke-width="2"><g><path d="M 65.766602 394C 80.754802 394 106.000002 308.0387 106.000002 202C 106.000002 95.9613 80.754802 10 65.766602 10C 80.775202 10.01 92.941702 96.2224 92.941702 202C 92.941702 307.7776 80.775202 393.99 65.766602 394ZM 65.765897 394C 80.774597 393.99 92.941097 307.7776 92.941097 202C 92.941097 96.2224 80.774597 10.01 65.765897 10L 51.957397 10C 66.060697 16.8878 77.199297 100.4719 77.199297 202C 77.199297 303.5282 65.382597 387.1122 51.279297 394L 65.765897 394ZM 77.2 202C 77.2 303.5282 65.3833 387.1122 51.28 394L 50.0615 394C 35.0734 394 10 308.0387 10 202C 10 95.9613 35.0734 10 50.0615 10C 50.6991 10 51.9581 10 51.9581 10C 66.0614 16.8878 77.2 100.4719 77.2 202Z"></path></g></g></g><g id="g-root--1.cu_sy_v7cknp8d9gqt-stroke" data-item-order="999852548" data-item-id="-1.cu_sy_v7cknp8d9gqt" data-item-class="Part Fill Stroke ColorFillGray ColorStrokeGray" data-item-index="-1" data-renderer-id="0" transform="translate(302, 74)"><g id="-1.cu_sy_v7cknp8d9gqt-stroke" fill="none" stroke-linecap="round" stroke-linejoin="round" stroke-miterlimit="4" stroke="#888888" stroke-width="2"><g><path d="M 65.766602 394C 80.754802 394 106.000002 308.0387 106.000002 202C 106.000002 95.9613 80.754802 10 65.766602 10C 80.775202 10.01 92.941702 96.2224 92.941702 202C 92.941702 307.7776 80.775202 393.99 65.766602 394ZM 65.765897 394C 80.774597 393.99 92.941097 307.7776 92.941097 202C 92.941097 96.2224 80.774597 10.01 65.765897 10L 51.957397 10C 66.060697 16.8878 77.199297 100.4719 77.199297 202C 77.199297 303.5282 65.382597 387.1122 51.279297 394L 65.765897 394ZM 77.2 202C 77.2 303.5282 65.3833 387.1122 51.28 394L 50.0615 394C 35.0734 394 10 308.0387 10 202C 10 95.9613 35.0734 10 50.0615 10C 50.6991 10 51.9581 10 51.9581 10C 66.0614 16.8878 77.2 100.4719 77.2 202Z"></path></g></g></g><g id="g-root-0.cr-medium_cr_v7cknp8d9gqu-stroke" data-item-order="999852550" data-item-id="0.cr-medium_cr_v7cknp8d9gqu" data-item-class="Shape Stroke Fill Part Indexed_0" data-item-index="0" data-renderer-id="0" transform="translate(470, 230)"><g id="0.cr-medium_cr_v7cknp8d9gqu-stroke" fill="none" stroke-linecap="round" stroke-linejoin="round" stroke-miterlimit="4" stroke="#484848" stroke-width="2"><g><path d="M 10 46C 10 65.882251 26.117749 82 46 82C 65.882251 82 82 65.882251 82 46C 82 26.117749 65.882251 10 46 10C 26.117749 10 10 26.117749 10 46"></path></g></g></g><g id="g-root-0.cr-medium_cr_v7cknp8d9gqu-stroke" data-item-order="999852550" data-item-id="0.cr-medium_cr_v7cknp8d9gqu" data-item-class="Shape Stroke Fill Part Indexed_0" data-item-index="0" data-renderer-id="0" transform="translate(470, 230)"><g id="0.cr-medium_cr_v7cknp8d9gqu-stroke" fill="none" stroke-linecap="round" stroke-linejoin="round" stroke-miterlimit="4" stroke="#484848" stroke-width="2"><g><path d="M 10 46C 10 65.882251 26.117749 82 46 82C 65.882251 82 82 65.882251 82 46C 82 26.117749 65.882251 10 46 10C 26.117749 10 10 26.117749 10 46"></path></g></g></g><g id="g-root-4.line_sy_dgp1918d9fyd-stroke" data-item-order="999852553" data-item-id="4.line_sy_dgp1918d9fyd" data-item-class="Curve Stroke Part Indexed" data-item-index="4" data-renderer-id="0" transform="translate(218, 301)"><g id="4.line_sy_dgp1918d9fyd-stroke" fill="none" stroke-linecap="round" stroke-linejoin="round" stroke-miterlimit="4" stroke="#e3cd09" stroke-width="2"><g><path d="M 260.35 11.140625L 130 101.000625L 10 101.000625"></path><path d="M 259.1 19.940625L 260.8 10.840625L 251.7 9.140625" stroke-dasharray="none"></path></g></g></g><g id="g-root-4.line_sy_dgp1918d9fyd-stroke" data-item-order="999852553" data-item-id="4.line_sy_dgp1918d9fyd" data-item-class="Curve Stroke Part Indexed" data-item-index="4" data-renderer-id="0" transform="translate(218, 301)"><g id="4.line_sy_dgp1918d9fyd-stroke" fill="none" stroke-linecap="round" stroke-linejoin="round" stroke-miterlimit="4" stroke="#e3cd09" stroke-width="2"><g><path d="M 260.35 11.140625L 130 101.000625L 10 101.000625"></path><path d="M 259.1 19.940625L 260.8 10.840625L 251.7 9.140625" stroke-dasharray="none"></path></g></g></g><g id="g-root-4.cr-small_cr_dgp1918d9fye-stroke" data-item-order="999852554" data-item-id="4.cr-small_cr_dgp1918d9fye" data-item-class="Shape Stroke Fill Part Indexed" data-item-index="4" data-renderer-id="0" transform="translate(158, 363)"><g id="4.cr-small_cr_dgp1918d9fye-stroke" fill="none" stroke-linecap="round" stroke-linejoin="round" stroke-miterlimit="4" stroke="#e3cd09" stroke-width="2"><g><path d="M 10 40C 10.000002 56.568544 23.431459 70.000002 40.000002 70.000002C 56.568544 70.000002 70.000002 56.568544 70.000002 40.000002C 70.000002 23.431459 56.568544 10.000002 40.000002 10.000002C 23.431459 10.000002 10.000002 23.431459 10.000002 40.000002"></path></g></g></g><g id="g-root-4.cr-small_cr_dgp1918d9fye-stroke" data-item-order="999852554" data-item-id="4.cr-small_cr_dgp1918d9fye" data-item-class="Shape Stroke Fill Part Indexed" data-item-index="4" data-renderer-id="0" transform="translate(158, 363)"><g id="4.cr-small_cr_dgp1918d9fye-stroke" fill="none" stroke-linecap="round" stroke-linejoin="round" stroke-miterlimit="4" stroke="#e3cd09" stroke-width="2"><g><path d="M 10 40C 10.000002 56.568544 23.431459 70.000002 40.000002 70.000002C 56.568544 70.000002 70.000002 56.568544 70.000002 40.000002C 70.000002 23.431459 56.568544 10.000002 40.000002 10.000002C 23.431459 10.000002 10.000002 23.431459 10.000002 40.000002"></path></g></g></g><g id="g-root-3.line_sy_hwijdh8d9f63-stroke" data-item-order="999852557" data-item-id="3.line_sy_hwijdh8d9f63" data-item-class="Curve Stroke Part Indexed" data-item-index="3" data-renderer-id="0" transform="translate(218.109375, 278)"><g id="3.line_sy_hwijdh8d9f63-stroke" fill="none" stroke-linecap="round" stroke-linejoin="round" stroke-miterlimit="4" stroke="#93c131" stroke-width="2"><g><path d="M 249.95061 10.480469L 129.89061 40.000469L 10.00061 40.000469"></path><path d="M 245.70061 18.180469L 250.40061 10.380469L 242.60061 5.580469" stroke-dasharray="none"></path></g></g></g><g id="g-root-3.line_sy_hwijdh8d9f63-stroke" data-item-order="999852557" data-item-id="3.line_sy_hwijdh8d9f63" data-item-class="Curve Stroke Part Indexed" data-item-index="3" data-renderer-id="0" transform="translate(218.109375, 278)"><g id="3.line_sy_hwijdh8d9f63-stroke" fill="none" stroke-linecap="round" stroke-linejoin="round" stroke-miterlimit="4" stroke="#93c131" stroke-width="2"><g><path d="M 249.95061 10.480469L 129.89061 40.000469L 10.00061 40.000469"></path><path d="M 245.70061 18.180469L 250.40061 10.380469L 242.60061 5.580469" stroke-dasharray="none"></path></g></g></g><g id="g-root-3.cr-small_cr_dgp1918d9fyc-stroke" data-item-order="999852558" data-item-id="3.cr-small_cr_dgp1918d9fyc" data-item-class="Shape Stroke Fill Part Indexed" data-item-index="3" data-renderer-id="0" transform="translate(158, 279)"><g id="3.cr-small_cr_dgp1918d9fyc-stroke" fill="none" stroke-linecap="round" stroke-linejoin="round" stroke-miterlimit="4" stroke="#93c131" stroke-width="2"><g><path d="M 10 40C 10.000002 56.568544 23.431459 70.000002 40.000002 70.000002C 56.568544 70.000002 70.000002 56.568544 70.000002 40.000002C 70.000002 23.431459 56.568544 10.000002 40.000002 10.000002C 23.431459 10.000002 10.000002 23.431459 10.000002 40.000002"></path></g></g></g><g id="g-root-3.cr-small_cr_dgp1918d9fyc-stroke" data-item-order="999852558" data-item-id="3.cr-small_cr_dgp1918d9fyc" data-item-class="Shape Stroke Fill Part Indexed" data-item-index="3" data-renderer-id="0" transform="translate(158, 279)"><g id="3.cr-small_cr_dgp1918d9fyc-stroke" fill="none" stroke-linecap="round" stroke-linejoin="round" stroke-miterlimit="4" stroke="#93c131" stroke-width="2"><g><path d="M 10 40C 10.000002 56.568544 23.431459 70.000002 40.000002 70.000002C 56.568544 70.000002 70.000002 56.568544 70.000002 40.000002C 70.000002 23.431459 56.568544 10.000002 40.000002 10.000002C 23.431459 10.000002 10.000002 23.431459 10.000002 40.000002"></path></g></g></g><g id="g-root-2.line_sy_qrj2j98d9hj5-stroke" data-item-order="999852561" data-item-id="2.line_sy_qrj2j98d9hj5" data-item-class="Curve Stroke Part Indexed" data-item-index="2" data-renderer-id="0" transform="translate(218, 224)"><g id="2.line_sy_qrj2j98d9hj5-stroke" fill="none" stroke-linecap="round" stroke-linejoin="round" stroke-miterlimit="4" stroke="#3bc482" stroke-width="2"><g><path d="M 250.06 39.52L 130 10L 10 10"></path><path d="M 242.7 44.4L 250.5 39.6L 245.8 31.8" stroke-dasharray="none"></path></g></g></g><g id="g-root-2.line_sy_qrj2j98d9hj5-stroke" data-item-order="999852561" data-item-id="2.line_sy_qrj2j98d9hj5" data-item-class="Curve Stroke Part Indexed" data-item-index="2" data-renderer-id="0" transform="translate(218, 224)"><g id="2.line_sy_qrj2j98d9hj5-stroke" fill="none" stroke-linecap="round" stroke-linejoin="round" stroke-miterlimit="4" stroke="#3bc482" stroke-width="2"><g><path d="M 250.06 39.52L 130 10L 10 10"></path><path d="M 242.7 44.4L 250.5 39.6L 245.8 31.8" stroke-dasharray="none"></path></g></g></g><g id="g-root-2.cr-small_cr_hwijdh8d9f62-stroke" data-item-order="999852562" data-item-id="2.cr-small_cr_hwijdh8d9f62" data-item-class="Shape Stroke Fill Part Indexed" data-item-index="2" data-renderer-id="0" transform="translate(158, 195)"><g id="2.cr-small_cr_hwijdh8d9f62-stroke" fill="none" stroke-linecap="round" stroke-linejoin="round" stroke-miterlimit="4" stroke="#3bc482" stroke-width="2"><g><path d="M 10 40C 10.000002 56.568544 23.431459 70.000002 40.000002 70.000002C 56.568544 70.000002 70.000002 56.568544 70.000002 40.000002C 70.000002 23.431459 56.568544 10.000002 40.000002 10.000002C 23.431459 10.000002 10.000002 23.431459 10.000002 40.000002"></path></g></g></g><g id="g-root-2.cr-small_cr_hwijdh8d9f62-stroke" data-item-order="999852562" data-item-id="2.cr-small_cr_hwijdh8d9f62" data-item-class="Shape Stroke Fill Part Indexed" data-item-index="2" data-renderer-id="0" transform="translate(158, 195)"><g id="2.cr-small_cr_hwijdh8d9f62-stroke" fill="none" stroke-linecap="round" stroke-linejoin="round" stroke-miterlimit="4" stroke="#3bc482" stroke-width="2"><g><path d="M 10 40C 10.000002 56.568544 23.431459 70.000002 40.000002 70.000002C 56.568544 70.000002 70.000002 56.568544 70.000002 40.000002C 70.000002 23.431459 56.568544 10.000002 40.000002 10.000002C 23.431459 10.000002 10.000002 23.431459 10.000002 40.000002"></path></g></g></g><g id="g-root-1.line_sy_mbpket8d9hjj-stroke" data-item-order="999852565" data-item-id="1.line_sy_mbpket8d9hjj" data-item-class="Curve Stroke Part Indexed Indexed_1" data-item-index="1" data-renderer-id="0" transform="translate(218, 140)"><g id="1.line_sy_mbpket8d9hjj-stroke" fill="none" stroke-linecap="round" stroke-linejoin="round" stroke-miterlimit="4" stroke="#17b0e3" stroke-width="2"><g><path d="M 260.35 99.86L 130 10L 10 10"></path><path d="M 251.7 101.8L 260.8 100.1L 259.1 91.1" stroke-dasharray="none"></path></g></g></g><g id="g-root-1.line_sy_mbpket8d9hjj-stroke" data-item-order="999852565" data-item-id="1.line_sy_mbpket8d9hjj" data-item-class="Curve Stroke Part Indexed Indexed_1" data-item-index="1" data-renderer-id="0" transform="translate(218, 140)"><g id="1.line_sy_mbpket8d9hjj-stroke" fill="none" stroke-linecap="round" stroke-linejoin="round" stroke-miterlimit="4" stroke="#17b0e3" stroke-width="2"><g><path d="M 260.35 99.86L 130 10L 10 10"></path><path d="M 251.7 101.8L 260.8 100.1L 259.1 91.1" stroke-dasharray="none"></path></g></g></g><g id="g-root-1.cr-small_cr_qrj2j98d9hj4-stroke" data-item-order="999852566" data-item-id="1.cr-small_cr_qrj2j98d9hj4" data-item-class="Shape Stroke Fill Part Indexed Indexed_1" data-item-index="1" data-renderer-id="0" transform="translate(158, 111)"><g id="1.cr-small_cr_qrj2j98d9hj4-stroke" fill="none" stroke-linecap="round" stroke-linejoin="round" stroke-miterlimit="4" stroke="#17b0e3" stroke-width="2"><g><path d="M 10 40C 10.000002 56.568544 23.431459 70.000002 40.000002 70.000002C 56.568544 70.000002 70.000002 56.568544 70.000002 40.000002C 70.000002 23.431459 56.568544 10.000002 40.000002 10.000002C 23.431459 10.000002 10.000002 23.431459 10.000002 40.000002"></path></g></g></g><g id="g-root-1.cr-small_cr_qrj2j98d9hj4-stroke" data-item-order="999852566" data-item-id="1.cr-small_cr_qrj2j98d9hj4" data-item-class="Shape Stroke Fill Part Indexed Indexed_1" data-item-index="1" data-renderer-id="0" transform="translate(158, 111)"><g id="1.cr-small_cr_qrj2j98d9hj4-stroke" fill="none" stroke-linecap="round" stroke-linejoin="round" stroke-miterlimit="4" stroke="#17b0e3" stroke-width="2"><g><path d="M 10 40C 10.000002 56.568544 23.431459 70.000002 40.000002 70.000002C 56.568544 70.000002 70.000002 56.568544 70.000002 40.000002C 70.000002 23.431459 56.568544 10.000002 40.000002 10.000002C 23.431459 10.000002 10.000002 23.431459 10.000002 40.000002"></path></g></g></g><g id="g-root-4_vccdcl8dc9ah-stroke" data-item-order="1000000000" data-item-id="4_vccdcl8dc9ah" data-item-class="Icon Stroke Indexed InsideFill InsideColorFill" data-item-index="2" data-renderer-id="0" transform="translate(170, 206)"><g id="4_vccdcl8dc9ah-stroke" fill="none" stroke-linecap="round" stroke-linejoin="round" stroke-miterlimit="4" stroke="#3bc482" stroke-width="2"><g><path d="M 44.399502 17.038L 38.962002 11.6005C 37.760307 10.400432 35.813698 10.400432 34.612 11.6005L 24.826 21.388L 27.000999 23.561501L 29.176001 23.561501L 32.438499 26.823999L 32.438499 28.999001L 34.612 31.174L 44.399502 21.388C 45.599567 20.186304 45.599567 18.239695 44.399502 17.038ZM 33.629501 21.7945C 33.629501 22.112617 33.887383 22.370501 34.205502 22.370501C 34.523617 22.370501 34.781502 22.112617 34.781502 21.7945C 34.781502 21.476383 34.523617 21.2185 34.205502 21.2185C 33.887383 21.2185 33.629501 21.476383 33.629501 21.7945M 32.981499 13.2325L 42.767498 23.018499M 21.1525 38.110001L 32.438499 26.823999L 29.176001 23.561501L 17.889999 34.8475C 15.519264 34.002441 12.87944 34.913258 11.53421 37.040432C 10.188979 39.167606 10.497611 41.943031 12.277289 43.72271C 14.056968 45.502388 16.832396 45.81102 18.959568 44.46579C 21.08674 43.12056 21.997557 40.480736 21.1525 38.110001ZM 15.313 39.9175C 15.312908 40.342548 15.657453 40.687164 16.0825 40.687164C 16.507547 40.687164 16.852091 40.342548 16.851999 39.9175C 16.852091 39.492451 16.507547 39.147835 16.0825 39.147835C 15.657453 39.147835 15.312908 39.492451 15.313 39.9175"></path></g></g></g><g id="g-root-4_vccdcl8dc9ah-stroke" data-item-order="1000000000" data-item-id="4_vccdcl8dc9ah" data-item-class="Icon Stroke Indexed InsideFill InsideColorFill" data-item-index="2" data-renderer-id="0" transform="translate(170, 206)"><g id="4_vccdcl8dc9ah-stroke" fill="none" stroke-linecap="round" stroke-linejoin="round" stroke-miterlimit="4" stroke="#3bc482" stroke-width="2"><g><path d="M 44.399502 17.038L 38.962002 11.6005C 37.760307 10.400432 35.813698 10.400432 34.612 11.6005L 24.826 21.388L 27.000999 23.561501L 29.176001 23.561501L 32.438499 26.823999L 32.438499 28.999001L 34.612 31.174L 44.399502 21.388C 45.599567 20.186304 45.599567 18.239695 44.399502 17.038ZM 33.629501 21.7945C 33.629501 22.112617 33.887383 22.370501 34.205502 22.370501C 34.523617 22.370501 34.781502 22.112617 34.781502 21.7945C 34.781502 21.476383 34.523617 21.2185 34.205502 21.2185C 33.887383 21.2185 33.629501 21.476383 33.629501 21.7945M 32.981499 13.2325L 42.767498 23.018499M 21.1525 38.110001L 32.438499 26.823999L 29.176001 23.561501L 17.889999 34.8475C 15.519264 34.002441 12.87944 34.913258 11.53421 37.040432C 10.188979 39.167606 10.497611 41.943031 12.277289 43.72271C 14.056968 45.502388 16.832396 45.81102 18.959568 44.46579C 21.08674 43.12056 21.997557 40.480736 21.1525 38.110001ZM 15.313 39.9175C 15.312908 40.342548 15.657453 40.687164 16.0825 40.687164C 16.507547 40.687164 16.852091 40.342548 16.851999 39.9175C 16.852091 39.492451 16.507547 39.147835 16.0825 39.147835C 15.657453 39.147835 15.312908 39.492451 15.313 39.9175"></path></g></g></g><g id="g-root-tx_abstract_1cy042d8d9hje-stroke" data-item-order="1000000000" data-item-id="tx_abstract_1cy042d8d9hje" data-item-class="Label Stroke Indexed" data-item-index="2" data-renderer-id="0" transform="translate(38, 200)"></g><g id="g-root-bank_vccdcl8dc9ag-stroke" data-item-order="1000000000" data-item-id="bank_vccdcl8dc9ag" data-item-class="Icon Stroke InsideFill" data-item-index="none" data-renderer-id="0" transform="translate(482, 242)"><g id="bank_vccdcl8dc9ag-stroke" fill="none" stroke-linecap="round" stroke-linejoin="round" stroke-miterlimit="4" stroke="#484848" stroke-width="2"><g><path d="M 54.262856 28.857143L 13.737143 28.857143C 11.817142 28.857143 10.994286 26.765715 12.502857 25.771429L 32.765713 12.502857C 33.52755 12.054692 34.47245 12.054692 35.234283 12.502857L 55.497147 25.771429C 57.005714 26.765715 56.182858 28.857143 54.262856 28.857143ZM 13.428572 47.714287L 54.57143 47.714287C 54.57143 47.714287 56.285713 47.714287 56.285713 49.428574L 56.285713 54.57143C 56.285713 54.57143 56.285713 56.285713 54.57143 56.285713L 13.428572 56.285713C 13.428572 56.285713 11.714286 56.285713 11.714286 54.57143L 11.714286 49.428574C 11.714286 49.428574 11.714286 47.714287 13.428572 47.714287M 16.857143 28.857143L 16.857143 47.714287M 25.428572 28.857143L 25.428572 47.714287M 34 28.857143L 34 47.714287M 42.57143 28.857143L 42.57143 47.714287M 51.142857 28.857143L 51.142857 47.714287"></path></g></g></g><g id="g-root-bank_vccdcl8dc9ag-stroke" data-item-order="1000000000" data-item-id="bank_vccdcl8dc9ag" data-item-class="Icon Stroke InsideFill" data-item-index="none" data-renderer-id="0" transform="translate(482, 242)"><g id="bank_vccdcl8dc9ag-stroke" fill="none" stroke-linecap="round" stroke-linejoin="round" stroke-miterlimit="4" stroke="#484848" stroke-width="2"><g><path d="M 54.262856 28.857143L 13.737143 28.857143C 11.817142 28.857143 10.994286 26.765715 12.502857 25.771429L 32.765713 12.502857C 33.52755 12.054692 34.47245 12.054692 35.234283 12.502857L 55.497147 25.771429C 57.005714 26.765715 56.182858 28.857143 54.262856 28.857143ZM 13.428572 47.714287L 54.57143 47.714287C 54.57143 47.714287 56.285713 47.714287 56.285713 49.428574L 56.285713 54.57143C 56.285713 54.57143 56.285713 56.285713 54.57143 56.285713L 13.428572 56.285713C 13.428572 56.285713 11.714286 56.285713 11.714286 54.57143L 11.714286 49.428574C 11.714286 49.428574 11.714286 47.714287 13.428572 47.714287M 16.857143 28.857143L 16.857143 47.714287M 25.428572 28.857143L 25.428572 47.714287M 34 28.857143L 34 47.714287M 42.57143 28.857143L 42.57143 47.714287M 51.142857 28.857143L 51.142857 47.714287"></path></g></g></g><g id="g-root-tx_couchein_1upa4k58d9f67-stroke" data-item-order="1000000000" data-item-id="tx_couchein_1upa4k58d9f67" data-item-class="Label Stroke" data-item-index="none" data-renderer-id="0" transform="translate(554, 242)"></g><g id="g-root-tx_responsa_zn62s58d9fyk-stroke" data-item-order="1000000000" data-item-id="tx_responsa_zn62s58d9fyk" data-item-class="Label Stroke Title" data-item-index="none" data-renderer-id="0" transform="translate(152, 2)"></g><g id="g-root-tx_fiabilit_1ltn4b98d9gqp-stroke" data-item-order="1000000000" data-item-id="tx_fiabilit_1ltn4b98d9gqp" data-item-class="Label Stroke Indexed" data-item-index="3" data-renderer-id="0" transform="translate(26, 284)"></g><g id="g-root-tx_fiabilit_1ltn4b98d9gqp-stroke" data-item-order="1000000000" data-item-id="tx_fiabilit_1ltn4b98d9gqp" data-item-class="Label Stroke Indexed" data-item-index="3" data-renderer-id="0" transform="translate(26, 284)"></g><g id="g-root-tx_abstract_1cy042d8d9hje-stroke" data-item-order="1000000000" data-item-id="tx_abstract_1cy042d8d9hje" data-item-class="Label Stroke Indexed" data-item-index="2" data-renderer-id="0" transform="translate(38, 200)"></g><g id="g-root-puzz_v8litx8ddpfn-stroke" data-item-order="1000000000" data-item-id="puzz_v8litx8ddpfn" data-item-class="Icon Stroke Indexed Indexed_1 InsideFill InsideColorFill" data-item-index="1" data-renderer-id="0" transform="translate(170, 122)"><g id="puzz_v8litx8ddpfn-stroke" fill="none" stroke-linecap="round" stroke-linejoin="round" stroke-miterlimit="4" stroke="#17b0e3" stroke-width="2"><g><path d="M 11.5 31.75L 16 31.75C 16 31.75 16.75 31.75 16.75 32.5L 16.75 43C 16.75 43 16.75 43.75 16 43.75L 11.5 43.75C 11.5 43.75 10.75 43.75 10.75 43L 10.75 32.5C 10.75 32.5 10.75 31.75 11.5 31.75M 16.75 41.594498C 32.5 46.844498 27.25 46.844498 45.25 37.844498C 44.214046 36.448822 42.416168 35.849529 40.75 36.344498L 34.274502 38.395M 16.75 33.25L 21.25 33.25C 24.779499 33.25 27.25 36.25 28 36.25L 33.25 36.25C 34.75 36.25 34.75 39.25 33.25 39.25L 25 39.25M 36.356499 27.099998C 35.184689 25.92819 35.184689 24.028311 36.356503 22.856501C 37.528313 21.68469 39.428192 21.68469 40.599998 22.856501C 40.893112 23.147301 41.122036 23.496302 41.271999 23.881001C 41.364189 24.117104 41.569397 24.290672 41.81752 24.342415C 42.065651 24.394159 42.323124 24.317078 42.501999 24.137501L 44.843498 21.796C 45.429073 21.210251 45.429073 20.26075 44.843498 19.674999L 42.443501 17.275C 43.847496 16.894894 44.77655 15.562393 44.647739 14.11357C 44.518929 12.664746 43.369362 11.517053 41.92033 11.390604C 40.471298 11.264155 39.140312 12.195387 38.762497 13.6L 36.362503 11.2C 35.776749 10.614427 34.827251 10.614427 34.241501 11.2L 32.066502 13.3735C 31.907087 13.532788 31.827747 13.755316 31.850431 13.979527C 31.873114 14.203739 31.995415 14.405867 32.183498 14.53C 33.19717 15.201852 33.704964 16.419191 33.469196 17.612223C 33.233429 18.805256 32.300755 19.73793 31.107723 19.973698C 29.914692 20.209463 28.697351 19.70167 28.025501 18.688C 27.901367 18.499914 27.69924 18.377615 27.475029 18.354931C 27.250816 18.332249 27.028288 18.411587 26.868999 18.571001L 24.689501 20.7355C 24.103928 21.321249 24.103928 22.27075 24.689501 22.856501L 33.174999 31.341999C 33.76075 31.927572 34.710251 31.927572 35.296001 31.341999L 37.637497 28.999001C 37.816376 28.820097 37.893005 28.563068 37.841297 28.31542C 37.789589 28.067774 37.61652 27.862881 37.381001 27.7705C 36.996616 27.620623 36.647694 27.392265 36.356499 27.099998Z"></path></g></g></g><g id="g-root-1_mdkzo58ddn2k-stroke" data-item-order="1000000000" data-item-id="1_mdkzo58ddn2k" data-item-class="Icon Stroke Indexed InsideFill InsideColorFill" data-item-index="3" data-renderer-id="0" transform="translate(170, 290)"><g id="1_mdkzo58ddn2k-stroke" fill="none" stroke-linecap="round" stroke-linejoin="round" stroke-miterlimit="4" stroke="#93c131" stroke-width="2"><g><path d="M 35.5 34.238503C 33.086346 37.13446 29.222359 38.384129 25.57 37.449997M 10.75 28C 10.75 37.526913 18.473087 45.25 28 45.25C 37.526913 45.25 45.25 37.526913 45.25 28C 45.25 18.473087 37.526913 10.75 28 10.75C 18.473087 10.75 10.75 18.473087 10.75 28ZM 43.879002 21.25L 42.495998 25.6105C 41.902344 27.482208 40.163597 28.752876 38.200001 28.75L 31.848999 28.75C 31.32222 28.749584 30.834265 28.472866 30.563499 28.021L 29.1355 25.643499C 28.896641 25.244024 28.465439 24.999447 28 24.999447C 27.534561 24.999447 27.103359 25.244024 26.8645 25.643499L 25.436501 28.021C 25.165735 28.472866 24.67778 28.749584 24.151001 28.75L 17.799999 28.75C 15.838616 28.750257 14.102991 27.480097 13.51 25.6105L 12.121 21.25Z"></path></g></g></g><g id="g-root-1_mdkzo58ddn2k-stroke" data-item-order="1000000000" data-item-id="1_mdkzo58ddn2k" data-item-class="Icon Stroke Indexed InsideFill InsideColorFill" data-item-index="3" data-renderer-id="0" transform="translate(170, 290)"><g id="1_mdkzo58ddn2k-stroke" fill="none" stroke-linecap="round" stroke-linejoin="round" stroke-miterlimit="4" stroke="#93c131" stroke-width="2"><g><path d="M 35.5 34.238503C 33.086346 37.13446 29.222359 38.384129 25.57 37.449997M 10.75 28C 10.75 37.526913 18.473087 45.25 28 45.25C 37.526913 45.25 45.25 37.526913 45.25 28C 45.25 18.473087 37.526913 10.75 28 10.75C 18.473087 10.75 10.75 18.473087 10.75 28ZM 43.879002 21.25L 42.495998 25.6105C 41.902344 27.482208 40.163597 28.752876 38.200001 28.75L 31.848999 28.75C 31.32222 28.749584 30.834265 28.472866 30.563499 28.021L 29.1355 25.643499C 28.896641 25.244024 28.465439 24.999447 28 24.999447C 27.534561 24.999447 27.103359 25.244024 26.8645 25.643499L 25.436501 28.021C 25.165735 28.472866 24.67778 28.749584 24.151001 28.75L 17.799999 28.75C 15.838616 28.750257 14.102991 27.480097 13.51 25.6105L 12.121 21.25Z"></path></g></g></g><g id="g-root-3_qwiv858dca2q-stroke" data-item-order="1000000000" data-item-id="3_qwiv858dca2q" data-item-class="Icon Stroke Indexed InsideFill InsideColorFill" data-item-index="4" data-renderer-id="0" transform="translate(170, 374)"><g id="3_qwiv858dca2q-stroke" fill="none" stroke-linecap="round" stroke-linejoin="round" stroke-miterlimit="4" stroke="#e3cd09" stroke-width="2"><g><path d="M 45.25 27.911499C 45.254971 37.469891 37.510391 45.222527 27.952 45.227497C 18.352516 45.068077 10.675406 37.201515 10.75 27.600998C 10.757679 18.430876 18.089478 10.946511 27.2575 10.75C 27.5065 10.7395 27.755501 10.735 28.0075 10.735C 32.576603 10.710217 36.96669 12.509797 40.203773 15.734488C 43.440857 18.959181 45.257259 23.342331 45.249996 27.911499ZM 27.2575 10.75C 18.2575 20.5 18.2575 33.220001 27.2575 45.220001M 28.7575 10.75C 37.7575 20.5 37.7575 33.2155 28.7575 45.2155M 13.579 18.226L 42.279999 18.226M 10.7545 27.226L 45.25 27.226M 12.9775 36.225998L 43.127499 36.225998"></path></g></g></g><g id="g-root-tx_implment_18it3118d9f5v-stroke" data-item-order="1000000000" data-item-id="tx_implment_18it3118d9f5v" data-item-class="Label Stroke Indexed Indexed_1" data-item-index="1" data-renderer-id="0" transform="translate(2, 116)"></g><g id="g-root-tx_implment_18it3118d9f5v-stroke" data-item-order="1000000000" data-item-id="tx_implment_18it3118d9f5v" data-item-class="Label Stroke Indexed Indexed_1" data-item-index="1" data-renderer-id="0" transform="translate(2, 116)"></g><g id="g-root-tx_interfac_1q9gmfp8d9fyg-stroke" data-item-order="1000000000" data-item-id="tx_interfac_1q9gmfp8d9fyg" data-item-class="Label Stroke Indexed" data-item-index="4" data-renderer-id="0" transform="translate(26, 368)"></g><g id="g-root-tx_interfac_1q9gmfp8d9fyg-stroke" data-item-order="1000000000" data-item-id="tx_interfac_1q9gmfp8d9fyg" data-item-class="Label Stroke Indexed" data-item-index="4" data-renderer-id="0" transform="translate(26, 368)"></g><g id="g-root-tx_responsa_zn62s58d9fyk-stroke" data-item-order="1000000000" data-item-id="tx_responsa_zn62s58d9fyk" data-item-class="Label Stroke Title" data-item-index="none" data-renderer-id="0" transform="translate(152, 2)"></g><g id="g-root-3_qwiv858dca2q-stroke" data-item-order="1000000000" data-item-id="3_qwiv858dca2q" data-item-class="Icon Stroke Indexed InsideFill InsideColorFill" data-item-index="4" data-renderer-id="0" transform="translate(170, 374)"><g id="3_qwiv858dca2q-stroke" fill="none" stroke-linecap="round" stroke-linejoin="round" stroke-miterlimit="4" stroke="#e3cd09" stroke-width="2"><g><path d="M 45.25 27.911499C 45.254971 37.469891 37.510391 45.222527 27.952 45.227497C 18.352516 45.068077 10.675406 37.201515 10.75 27.600998C 10.757679 18.430876 18.089478 10.946511 27.2575 10.75C 27.5065 10.7395 27.755501 10.735 28.0075 10.735C 32.576603 10.710217 36.96669 12.509797 40.203773 15.734488C 43.440857 18.959181 45.257259 23.342331 45.249996 27.911499ZM 27.2575 10.75C 18.2575 20.5 18.2575 33.220001 27.2575 45.220001M 28.7575 10.75C 37.7575 20.5 37.7575 33.2155 28.7575 45.2155M 13.579 18.226L 42.279999 18.226M 10.7545 27.226L 45.25 27.226M 12.9775 36.225998L 43.127499 36.225998"></path></g></g></g><g id="g-root-puzz_v8litx8ddpfn-stroke" data-item-order="1000000000" data-item-id="puzz_v8litx8ddpfn" data-item-class="Icon Stroke Indexed Indexed_1 InsideFill InsideColorFill" data-item-index="1" data-renderer-id="0" transform="translate(170, 122)"><g id="puzz_v8litx8ddpfn-stroke" fill="none" stroke-linecap="round" stroke-linejoin="round" stroke-miterlimit="4" stroke="#17b0e3" stroke-width="2"><g><path d="M 11.5 31.75L 16 31.75C 16 31.75 16.75 31.75 16.75 32.5L 16.75 43C 16.75 43 16.75 43.75 16 43.75L 11.5 43.75C 11.5 43.75 10.75 43.75 10.75 43L 10.75 32.5C 10.75 32.5 10.75 31.75 11.5 31.75M 16.75 41.594498C 32.5 46.844498 27.25 46.844498 45.25 37.844498C 44.214046 36.448822 42.416168 35.849529 40.75 36.344498L 34.274502 38.395M 16.75 33.25L 21.25 33.25C 24.779499 33.25 27.25 36.25 28 36.25L 33.25 36.25C 34.75 36.25 34.75 39.25 33.25 39.25L 25 39.25M 36.356499 27.099998C 35.184689 25.92819 35.184689 24.028311 36.356503 22.856501C 37.528313 21.68469 39.428192 21.68469 40.599998 22.856501C 40.893112 23.147301 41.122036 23.496302 41.271999 23.881001C 41.364189 24.117104 41.569397 24.290672 41.81752 24.342415C 42.065651 24.394159 42.323124 24.317078 42.501999 24.137501L 44.843498 21.796C 45.429073 21.210251 45.429073 20.26075 44.843498 19.674999L 42.443501 17.275C 43.847496 16.894894 44.77655 15.562393 44.647739 14.11357C 44.518929 12.664746 43.369362 11.517053 41.92033 11.390604C 40.471298 11.264155 39.140312 12.195387 38.762497 13.6L 36.362503 11.2C 35.776749 10.614427 34.827251 10.614427 34.241501 11.2L 32.066502 13.3735C 31.907087 13.532788 31.827747 13.755316 31.850431 13.979527C 31.873114 14.203739 31.995415 14.405867 32.183498 14.53C 33.19717 15.201852 33.704964 16.419191 33.469196 17.612223C 33.233429 18.805256 32.300755 19.73793 31.107723 19.973698C 29.914692 20.209463 28.697351 19.70167 28.025501 18.688C 27.901367 18.499914 27.69924 18.377615 27.475029 18.354931C 27.250816 18.332249 27.028288 18.411587 26.868999 18.571001L 24.689501 20.7355C 24.103928 21.321249 24.103928 22.27075 24.689501 22.856501L 33.174999 31.341999C 33.76075 31.927572 34.710251 31.927572 35.296001 31.341999L 37.637497 28.999001C 37.816376 28.820097 37.893005 28.563068 37.841297 28.31542C 37.789589 28.067774 37.61652 27.862881 37.381001 27.7705C 36.996616 27.620623 36.647694 27.392265 36.356499 27.099998Z"></path></g></g></g><g id="g-root-tx_couchein_1upa4k58d9f67-stroke" data-item-order="1000000000" data-item-id="tx_couchein_1upa4k58d9f67" data-item-class="Label Stroke" data-item-index="none" data-renderer-id="0" transform="translate(554, 242)"></g></g></g></svg>