<?xml version="1.0" encoding="utf-8" standalone="yes"?>
<!DOCTYPE svg PUBLIC "-//W3C//DTD SVG 1.1//EN" "http://www.w3.org/Graphics/SVG/1.1/DTD/svg11.dtd">
<svg width="900" height="517" viewBox="0 0 900 517" style="fill:none;stroke:none;fill-rule:evenodd;clip-rule:evenodd;stroke-linecap:round;stroke-linejoin:round;stroke-miterlimit:1.5;" version="1.1" xmlns="http://www.w3.org/2000/svg" xmlns:xlink="http://www.w3.org/1999/xlink"><style id="fontImports">@import url("https://fonts.googleapis.com/css2?family=Roboto:wght@400;700&amp;display=block");</style><rect id="" x="0" y="0" width="900" height="517" style="fill: #ffffff;"></rect><g id="items" style="isolation: isolate"><g id="blend" style="mix-blend-mode:normal"><g id="g-root-ro_1lt0wsa1y8qxag-fill" data-item-order="999970768" data-item-id="ro_1lt0wsa1y8qxag" data-item-class="Shape Stroke Fill" data-item-index="none" data-renderer-id="0" transform="translate(386, 162)"><g id="ro_1lt0wsa1y8qxag-fill" stroke="none" fill="#f0f0f0"><g><path d="M 34 10L 154 10C 154 10 178 10 178 34L 178 160C 178 160 178 184 154 184L 34 184C 34 184 10 184 10 160L 10 34C 10 34 10 10 34 10"></path></g></g></g><g id="g-root-ro_1cymxve1y8la14-fill" data-item-order="999985744" data-item-id="ro_1cymxve1y8la14" data-item-class="Shape Stroke Fill ColorFillGray ColorStrokeGray" data-item-index="none" data-renderer-id="0" transform="translate(74, 297)"><g id="ro_1cymxve1y8la14-fill" stroke="none" fill="#f6f6f6"><g><path d="M 22 10L 262 10C 262 10 274 10 274 22L 274 52C 274 52 274 64 262 64L 22 64C 22 64 10 64 10 52L 10 22C 10 22 10 10 22 10"></path></g></g></g><g id="g-root-ro_1qbceey1y8iia2-fill" data-item-order="999986392" data-item-id="ro_1qbceey1y8iia2" data-item-class="Shape Stroke Fill" data-item-index="none" data-renderer-id="0" transform="translate(86, 39)"><g id="ro_1qbceey1y8iia2-fill" stroke="none" fill="#e6efff"><g><path d="M 22 10L 250 10C 250 10 262 10 262 22L 262 52C 262 52 262 64 250 64L 22 64C 22 64 10 64 10 52L 10 22C 10 22 10 10 22 10"></path></g></g></g><g id="g-root-ro_4hbg1m1y8xyx0-fill" data-item-order="999987040" data-item-id="ro_4hbg1m1y8xyx0" data-item-class="Shape Stroke Fill" data-item-index="none" data-renderer-id="0" transform="translate(602, 3)"><g id="ro_4hbg1m1y8xyx0-fill" stroke="none" fill="#e9fbf3"><g><path d="M 22 10L 238 10C 238 10 250 10 250 22L 250 52C 250 52 250 64 238 64L 22 64C 22 64 10 64 10 52L 10 22C 10 22 10 10 22 10"></path></g></g></g><g id="g-root-ro_1ha34e21y8e9e0-fill" data-item-order="999988336" data-item-id="ro_1ha34e21y8e9e0" data-item-class="Shape Stroke Fill" data-item-index="none" data-renderer-id="0" transform="translate(602, 261)"><g id="ro_1ha34e21y8e9e0-fill" stroke="none" fill="#f7e6fe"><g><path d="M 22 10L 214 10C 214 10 226 10 226 22L 226 52C 226 52 226 64 214 64L 22 64C 22 64 10 64 10 52L 10 22C 10 22 10 10 22 10"></path></g></g></g><g id="g-root-tx_couchepr_4lout61y8igw8-fill" data-item-order="1000000000" data-item-id="tx_couchepr_4lout61y8igw8" data-item-class="Label Stroke" data-item-index="none" data-renderer-id="0" transform="translate(98, 54)"><g id="tx_couchepr_4lout61y8igw8-fill" stroke="none" fill="#4682e3"><g><text style="font: 20px Roboto, sans-serif; white-space: pre;" font-weight="20px" font-size="Roboto," font-family="sans-serif"><tspan x="13.27" y="33.75" dominant-baseline="ideographic">Couche Présentation</tspan></text></g></g></g><g id="g-root-fron_5vcoq1y8ihoh-fill" data-item-order="1000000000" data-item-id="fron_5vcoq1y8ihoh" data-item-class="Icon Stroke" data-item-index="none" data-renderer-id="0" transform="translate(296, 51)"></g><g id="g-root-cu_18itfqy1y8latd-fill" data-item-order="1000000000" data-item-id="cu_18itfqy1y8latd" data-item-class="Curve Stroke ColorStrokeGray" data-item-index="none" data-renderer-id="0" transform="translate(338, 66)"></g><g id="g-root-cu_v7zegq1y8la0w-fill" data-item-order="1000000000" data-item-id="cu_v7zegq1y8la0w" data-item-class="Curve Stroke ColorStrokeGray" data-item-index="none" data-renderer-id="0" transform="translate(626, 57)"></g><g id="g-root-cu_v7zegq1y8la0z-fill" data-item-order="1000000000" data-item-id="cu_v7zegq1y8la0z" data-item-class="Curve Stroke ColorStrokeGray" data-item-index="none" data-renderer-id="0" transform="translate(626, 57)"></g><g id="g-root-cu_mcce7u1y8latp-fill" data-item-order="1000000000" data-item-id="cu_mcce7u1y8latp" data-item-class="Curve Stroke ColorStrokeGray" data-item-index="none" data-renderer-id="0" transform="translate(626, 57)"></g><g id="g-root-cu_mcce7u1y8latr-fill" data-item-order="1000000000" data-item-id="cu_mcce7u1y8latr" data-item-class="Curve Stroke ColorStrokeGray" data-item-index="none" data-renderer-id="0" transform="translate(626, 57)"></g><g id="g-root-cu_qs5wca1y8latd-fill" data-item-order="1000000000" data-item-id="cu_qs5wca1y8latd" data-item-class="Curve Stroke ColorStrokeGray" data-item-index="none" data-renderer-id="0" transform="translate(626, 57)"></g><g id="g-root-tx_casdutil_zkoj5m1y8h1je-fill" data-item-order="1000000000" data-item-id="tx_casdutil_zkoj5m1y8h1je" data-item-class="Label Stroke" data-item-index="none" data-renderer-id="0" transform="translate(650, 69)"><g id="tx_casdutil_zkoj5m1y8h1je-fill" stroke="none" fill="#484848"><g><text style="font: 20px Roboto, sans-serif; white-space: pre;" font-weight="20px" font-size="Roboto," font-family="sans-serif"><tspan x="17.46" y="33.75" dominant-baseline="ideographic">Cas d'utilisation</tspan></text></g></g></g><g id="g-root-tx_composan_1q6z2t61y8h1j9-fill" data-item-order="1000000000" data-item-id="tx_composan_1q6z2t61y8h1j9" data-item-class="Label Stroke" data-item-index="none" data-renderer-id="0" transform="translate(110, 105)"><g id="tx_composan_1q6z2t61y8h1j9-fill" stroke="none" fill="#484848"><g><text style="font: 20px Roboto, sans-serif; white-space: pre;" font-weight="20px" font-size="Roboto," font-family="sans-serif"><tspan x="13.49" y="33.75" dominant-baseline="ideographic">Composants Vue.js</tspan></text></g></g></g><g id="g-root-cu_142zxmi1y8lblx-fill" data-item-order="1000000000" data-item-id="cu_142zxmi1y8lblx" data-item-class="Curve Stroke ColorStrokeGray" data-item-index="none" data-renderer-id="0" transform="translate(296, 93)"></g><g id="g-root-cu_znswl61y8l98g-fill" data-item-order="1000000000" data-item-id="cu_znswl61y8l98g" data-item-class="Curve Stroke ColorStrokeGray" data-item-index="none" data-renderer-id="0" transform="translate(296, 93)"></g><g id="g-root-cu_znswl61y8l98i-fill" data-item-order="1000000000" data-item-id="cu_znswl61y8l98i" data-item-class="Curve Stroke ColorStrokeGray" data-item-index="none" data-renderer-id="0" transform="translate(296, 93)"></g><g id="g-root-cu_znswl61y8l98k-fill" data-item-order="1000000000" data-item-id="cu_znswl61y8l98k" data-item-class="Curve Stroke ColorStrokeGray" data-item-index="none" data-renderer-id="0" transform="translate(296, 93)"></g><g id="g-root-cu_qs5wca1y8la1a-fill" data-item-order="1000000000" data-item-id="cu_qs5wca1y8la1a" data-item-class="Curve Stroke ColorStrokeGray" data-item-index="none" data-renderer-id="0" transform="translate(296, 93)"></g><g id="g-root-tx_dtos_zkoj5m1y8h1jf-fill" data-item-order="1000000000" data-item-id="tx_dtos_zkoj5m1y8h1jf" data-item-class="Label Stroke" data-item-index="none" data-renderer-id="0" transform="translate(650, 105)"><g id="tx_dtos_zkoj5m1y8h1jf-fill" stroke="none" fill="#484848"><g><text style="font: 20px Roboto, sans-serif; white-space: pre;" font-weight="20px" font-size="Roboto," font-family="sans-serif"><tspan x="15.71" y="33.75" dominant-baseline="ideographic">DTOs</tspan></text></g></g></g><g id="g-root-tx_storespi_1hbc2ka1y8h2by-fill" data-item-order="1000000000" data-item-id="tx_storespi_1hbc2ka1y8h2by" data-item-class="Label Stroke" data-item-index="none" data-renderer-id="0" transform="translate(170, 141)"><g id="tx_storespi_1hbc2ka1y8h2by-fill" stroke="none" fill="#484848"><g><text style="font: 20px Roboto, sans-serif; white-space: pre;" font-weight="20px" font-size="Roboto," font-family="sans-serif"><tspan x="16.86" y="33.75" dominant-baseline="ideographic">Stores Pinia</tspan></text></g></g></g><g id="g-root-tx_ports_v4v1161y8h2bo-fill" data-item-order="1000000000" data-item-id="tx_ports_v4v1161y8h2bo" data-item-class="Label Stroke" data-item-index="none" data-renderer-id="0" transform="translate(650, 141)"><g id="tx_ports_v4v1161y8h2bo-fill" stroke="none" fill="#484848"><g><text style="font: 20px Roboto, sans-serif; white-space: pre;" font-weight="20px" font-size="Roboto," font-family="sans-serif"><tspan x="16" y="33.75" dominant-baseline="ideographic">Ports</tspan></text></g></g></g><g id="g-root-tx_composab_1cvikfu1y8h347-fill" data-item-order="1000000000" data-item-id="tx_composab_1cvikfu1y8h347" data-item-class="Label Stroke" data-item-index="none" data-renderer-id="0" transform="translate(122, 177)"><g id="tx_composab_1cvikfu1y8h347-fill" stroke="none" fill="#484848"><g><text style="font: 20px Roboto, sans-serif; white-space: pre;" font-weight="20px" font-size="Roboto," font-family="sans-serif"><tspan x="13.11" y="33.75" dominant-baseline="ideographic">Composables Vue</tspan></text></g></g></g><g id="g-root-6_1lt0wsa1y8qxaf-fill" data-item-order="1000000000" data-item-id="6_1lt0wsa1y8qxaf" data-item-class="Icon Stroke" data-item-index="none" data-renderer-id="0" transform="translate(446, 186)"></g><g id="g-root-tx_commande_m980sa1y8h34d-fill" data-item-order="1000000000" data-item-id="tx_commande_m980sa1y8h34d" data-item-class="Label Stroke" data-item-index="none" data-renderer-id="0" transform="translate(650, 177)"><g id="tx_commande_m980sa1y8h34d-fill" stroke="none" fill="#484848"><g><text style="font: 20px Roboto, sans-serif; white-space: pre;" font-weight="20px" font-size="Roboto," font-family="sans-serif"><tspan x="12.02" y="33.75" dominant-baseline="ideographic">Commandes et Requêtes</tspan></text></g></g></g><g id="g-root-tx_localisa_1cvikfu1y8h348-fill" data-item-order="1000000000" data-item-id="tx_localisa_1cvikfu1y8h348" data-item-class="Label Stroke" data-item-index="none" data-renderer-id="0" transform="translate(170, 213)"><g id="tx_localisa_1cvikfu1y8h348-fill" stroke="none" fill="#484848"><g><text style="font: 20px Roboto, sans-serif; white-space: pre;" font-weight="20px" font-size="Roboto," font-family="sans-serif"><tspan x="15.88" y="33.75" dominant-baseline="ideographic">Localisation</tspan></text></g></g></g><g id="g-root-tx_services_m980sa1y8h34e-fill" data-item-order="1000000000" data-item-id="tx_services_m980sa1y8h34e" data-item-class="Label Stroke" data-item-index="none" data-renderer-id="0" transform="translate(650, 213)"><g id="tx_services_m980sa1y8h34e-fill" stroke="none" fill="#484848"><g><text style="font: 20px Roboto, sans-serif; white-space: pre;" font-weight="20px" font-size="Roboto," font-family="sans-serif"><tspan x="12.27" y="33.75" dominant-baseline="ideographic">Services Applicatifs</tspan></text></g></g></g><g id="g-root-tx_politiqu_2qz961y8h343-fill" data-item-order="1000000000" data-item-id="tx_politiqu_2qz961y8h343" data-item-class="Label Stroke" data-item-index="none" data-renderer-id="0" transform="translate(650, 471)"><g id="tx_politiqu_2qz961y8h343-fill" stroke="none" fill="#484848"><g><text style="font: 20px Roboto, sans-serif; white-space: pre;" font-weight="20px" font-size="Roboto," font-family="sans-serif"><tspan x="16.68" y="33.75" dominant-baseline="ideographic">Politiques et Services</tspan></text></g></g></g><g id="g-root-tx_logiciel_3dd6i1y8qvwm-fill" data-item-order="1000000000" data-item-id="tx_logiciel_3dd6i1y8qvwm" data-item-class="Label Stroke" data-item-index="none" data-renderer-id="0" transform="translate(410, 240)"><g id="tx_logiciel_3dd6i1y8qvwm-fill" stroke="none" fill="#484848"><g><text style="font: 20px Roboto, sans-serif; white-space: pre;" font-weight="20px" font-size="Roboto," font-family="sans-serif"><tspan x="28.4" y="33.75" dominant-baseline="ideographic">Logiciels </tspan><tspan x="13.93" y="57.75" dominant-baseline="ideographic">Architecture </tspan><tspan x="29.14" y="81.75" dominant-baseline="ideographic">Couches</tspan></text></g></g></g><g id="g-root-tx_coucheap_hsryey1y8xxc2-fill" data-item-order="1000000000" data-item-id="tx_coucheap_hsryey1y8xxc2" data-item-class="Label Stroke" data-item-index="none" data-renderer-id="0" transform="translate(650, 18)"><g id="tx_coucheap_hsryey1y8xxc2-fill" stroke="none" fill="#3bc482"><g><text style="font: 20px Roboto, sans-serif; white-space: pre;" font-weight="20px" font-size="Roboto," font-family="sans-serif"><tspan x="13.57" y="33.75" dominant-baseline="ideographic">Couche Application</tspan></text></g></g></g><g id="g-root-cu_142zxmi1y8lblu-fill" data-item-order="1000000000" data-item-id="cu_142zxmi1y8lblu" data-item-class="Curve Stroke ColorStrokeGray" data-item-index="none" data-renderer-id="0" transform="translate(338, 278)"></g><g id="g-root-cu_zn6fi21y8lbm7-fill" data-item-order="1000000000" data-item-id="cu_zn6fi21y8lbm7" data-item-class="Curve Stroke ColorStrokeGray" data-item-index="none" data-renderer-id="0" transform="translate(554, 278)"></g><g id="g-root-docu_1lpwmii1y8e8lr-fill" data-item-order="1000000000" data-item-id="docu_1lpwmii1y8e8lr" data-item-class="Icon Stroke" data-item-index="none" data-renderer-id="0" transform="translate(614, 273)"></g><g id="g-root-tx_couchedo_1uuwnwa1y8zdhi-fill" data-item-order="1000000000" data-item-id="tx_couchedo_1uuwnwa1y8zdhi" data-item-class="Label Stroke" data-item-index="none" data-renderer-id="0" transform="translate(650, 276)"><g id="tx_couchedo_1uuwnwa1y8zdhi-fill" stroke="none" fill="#b65edf"><g><text style="font: 20px Roboto, sans-serif; white-space: pre;" font-weight="20px" font-size="Roboto," font-family="sans-serif"><tspan x="12.05" y="33.75" dominant-baseline="ideographic">Couche Domaine</tspan></text></g></g></g><g id="g-root-cu_18itfqy1y8latg-fill" data-item-order="1000000000" data-item-id="cu_18itfqy1y8latg" data-item-class="Curve Stroke ColorStrokeGray" data-item-index="none" data-renderer-id="0" transform="translate(554, 30)"></g><g id="g-root-tx_couchein_1q9gz5m1y8lbly-fill" data-item-order="1000000000" data-item-id="tx_couchein_1q9gz5m1y8lbly" data-item-class="Label Stroke ColorFillGray ColorStrokeGray" data-item-index="none" data-renderer-id="0" transform="translate(86, 312)"><g id="tx_couchein_1q9gz5m1y8lbly-fill" stroke="none" fill="#888888"><g><text style="font: 20px Roboto, sans-serif; white-space: pre;" font-weight="20px" font-size="Roboto," font-family="sans-serif"><tspan x="15.5" y="33.75" dominant-baseline="ideographic">Couche Infrastructure</tspan></text></g></g></g><g id="g-root-serv_1hegfzu1y8l98v-fill" data-item-order="1000000000" data-item-id="serv_1hegfzu1y8l98v" data-item-class="Icon Stroke ColorFillGray ColorStrokeGray" data-item-index="none" data-renderer-id="0" transform="translate(296, 309)"></g><g id="g-root-cu_hwiw3e1y8lbm3-fill" data-item-order="1000000000" data-item-id="cu_hwiw3e1y8lbm3" data-item-class="Curve Stroke ColorStrokeGray" data-item-index="none" data-renderer-id="0" transform="translate(626, 315)"></g><g id="g-root-cu_hwiw3e1y8lbm6-fill" data-item-order="1000000000" data-item-id="cu_hwiw3e1y8lbm6" data-item-class="Curve Stroke ColorStrokeGray" data-item-index="none" data-renderer-id="0" transform="translate(626, 315)"></g><g id="g-root-cu_mcce7u1y8lbls-fill" data-item-order="1000000000" data-item-id="cu_mcce7u1y8lbls" data-item-class="Curve Stroke ColorStrokeGray" data-item-index="none" data-renderer-id="0" transform="translate(626, 315)"></g><g id="g-root-cu_dhbv221y8l98q-fill" data-item-order="1000000000" data-item-id="cu_dhbv221y8l98q" data-item-class="Curve Stroke ColorStrokeGray" data-item-index="none" data-renderer-id="0" transform="translate(626, 315)"></g><g id="g-root-cu_dhbv221y8l98s-fill" data-item-order="1000000000" data-item-id="cu_dhbv221y8l98s" data-item-class="Curve Stroke ColorStrokeGray" data-item-index="none" data-renderer-id="0" transform="translate(626, 315)"></g><g id="g-root-tx_entits_hteinu1y8h3wn-fill" data-item-order="1000000000" data-item-id="tx_entits_hteinu1y8h3wn" data-item-class="Label Stroke" data-item-index="none" data-renderer-id="0" transform="translate(650, 327)"><g id="tx_entits_hteinu1y8h3wn-fill" stroke="none" fill="#484848"><g><text style="font: 20px Roboto, sans-serif; white-space: pre;" font-weight="20px" font-size="Roboto," font-family="sans-serif"><tspan x="15.38" y="33.75" dominant-baseline="ideographic">Entités</tspan></text></g></g></g><g id="g-root-tx_implment_1q880ze1y8h3po-fill" data-item-order="1000000000" data-item-id="tx_implment_1q880ze1y8h3po" data-item-class="Label Stroke" data-item-index="none" data-renderer-id="0" transform="translate(2, 363)"><g id="tx_implment_1q880ze1y8h3po-fill" stroke="none" fill="#484848"><g><text style="font: 20px Roboto, sans-serif; white-space: pre;" font-weight="20px" font-size="Roboto," font-family="sans-serif"><tspan x="15.3" y="33.75" dominant-baseline="ideographic">Implémentations de Référentiel</tspan></text></g></g></g><g id="g-root-cu_dhbv221y8l98u-fill" data-item-order="1000000000" data-item-id="cu_dhbv221y8l98u" data-item-class="Curve Stroke ColorStrokeGray" data-item-index="none" data-renderer-id="0" transform="translate(296, 351)"></g><g id="g-root-cu_91icxm1y8la15-fill" data-item-order="1000000000" data-item-id="cu_91icxm1y8la15" data-item-class="Curve Stroke ColorStrokeGray" data-item-index="none" data-renderer-id="0" transform="translate(296, 351)"></g><g id="g-root-cu_91icxm1y8la17-fill" data-item-order="1000000000" data-item-id="cu_91icxm1y8la17" data-item-class="Curve Stroke ColorStrokeGray" data-item-index="none" data-renderer-id="0" transform="translate(296, 351)"></g><g id="g-root-tx_objetsva_de7hmi1y8h1j4-fill" data-item-order="1000000000" data-item-id="tx_objetsva_de7hmi1y8h1j4" data-item-class="Label Stroke" data-item-index="none" data-renderer-id="0" transform="translate(650, 363)"><g id="tx_objetsva_de7hmi1y8h1j4-fill" stroke="none" fill="#484848"><g><text style="font: 20px Roboto, sans-serif; white-space: pre;" font-weight="20px" font-size="Roboto," font-family="sans-serif"><tspan x="16.73" y="33.75" dominant-baseline="ideographic">Objets Valeur</tspan></text></g></g></g><g id="g-root-tx_services_1lt0zy21y8h1c5-fill" data-item-order="1000000000" data-item-id="tx_services_1lt0zy21y8h1c5" data-item-class="Label Stroke" data-item-index="none" data-renderer-id="0" transform="translate(122, 399)"><g id="tx_services_1lt0zy21y8h1c5-fill" stroke="none" fill="#484848"><g><text style="font: 20px Roboto, sans-serif; white-space: pre;" font-weight="20px" font-size="Roboto," font-family="sans-serif"><tspan x="15.3" y="33.75" dominant-baseline="ideographic">Services Externes</tspan></text></g></g></g><g id="g-root-tx_interfac_4ikhdm1y8h2bt-fill" data-item-order="1000000000" data-item-id="tx_interfac_4ikhdm1y8h2bt" data-item-class="Label Stroke" data-item-index="none" data-renderer-id="0" transform="translate(650, 399)"><g id="tx_interfac_4ikhdm1y8h2bt-fill" stroke="none" fill="#484848"><g><text style="font: 20px Roboto, sans-serif; white-space: pre;" font-weight="20px" font-size="Roboto," font-family="sans-serif"><tspan x="15.62" y="33.75" dominant-baseline="ideographic">Interfaces de Référentiel</tspan></text></g></g></g><g id="g-root-tx_adaptate_1lt0zy21y8h1c6-fill" data-item-order="1000000000" data-item-id="tx_adaptate_1lt0zy21y8h1c6" data-item-class="Label Stroke" data-item-index="none" data-renderer-id="0" transform="translate(38, 435)"><g id="tx_adaptate_1lt0zy21y8h1c6-fill" stroke="none" fill="#484848"><g><text style="font: 20px Roboto, sans-serif; white-space: pre;" font-weight="20px" font-size="Roboto," font-family="sans-serif"><tspan x="15.52" y="33.75" dominant-baseline="ideographic">Adaptateurs et Persistance</tspan></text></g></g></g><g id="g-root-tx_erreurse_4ikhdm1y8h2bu-fill" data-item-order="1000000000" data-item-id="tx_erreurse_4ikhdm1y8h2bu" data-item-class="Label Stroke" data-item-index="none" data-renderer-id="0" transform="translate(650, 435)"><g id="tx_erreurse_4ikhdm1y8h2bu-fill" stroke="none" fill="#484848"><g><text style="font: 20px Roboto, sans-serif; white-space: pre;" font-weight="20px" font-size="Roboto," font-family="sans-serif"><tspan x="12.32" y="33.75" dominant-baseline="ideographic">Erreurs et Événements</tspan></text></g></g></g><g id="g-root-appl_8x4y621y8xy4r-fill" data-item-order="1000000000" data-item-id="appl_8x4y621y8xy4r" data-item-class="Icon Stroke" data-item-index="none" data-renderer-id="0" transform="translate(614, 15)"></g><g id="g-root-tx_mixinset_18fp2be1y8h3wh-fill" data-item-order="1000000000" data-item-id="tx_mixinset_18fp2be1y8h3wh" data-item-class="Label Stroke" data-item-index="none" data-renderer-id="0" transform="translate(98, 249)"><g id="tx_mixinset_18fp2be1y8h3wh-fill" stroke="none" fill="#484848"><g><text style="font: 20px Roboto, sans-serif; white-space: pre;" font-weight="20px" font-size="Roboto," font-family="sans-serif"><tspan x="14.07" y="33.75" dominant-baseline="ideographic">Mixins et Transitions</tspan></text></g></g></g><g id="g-root-ro_1lt0wsa1y8qxag-stroke" data-item-order="999970768" data-item-id="ro_1lt0wsa1y8qxag" data-item-class="Shape Stroke Fill" data-item-index="none" data-renderer-id="0" transform="translate(386, 162)"><g id="ro_1lt0wsa1y8qxag-stroke" fill="none" stroke-linecap="round" stroke-linejoin="round" stroke-miterlimit="4" stroke="#484848" stroke-width="2"><g><path d="M 34 10L 154 10C 154 10 178 10 178 34L 178 160C 178 160 178 184 154 184L 34 184C 34 184 10 184 10 160L 10 34C 10 34 10 10 34 10"></path></g></g></g><g id="g-root-ro_1cymxve1y8la14-stroke" data-item-order="999985744" data-item-id="ro_1cymxve1y8la14" data-item-class="Shape Stroke Fill ColorFillGray ColorStrokeGray" data-item-index="none" data-renderer-id="0" transform="translate(74, 297)"><g id="ro_1cymxve1y8la14-stroke" fill="none" stroke-linecap="round" stroke-linejoin="round" stroke-miterlimit="4" stroke="#888888" stroke-width="2"><g><path d="M 22 10L 262 10C 262 10 274 10 274 22L 274 52C 274 52 274 64 262 64L 22 64C 22 64 10 64 10 52L 10 22C 10 22 10 10 22 10"></path></g></g></g><g id="g-root-ro_1qbceey1y8iia2-stroke" data-item-order="999986392" data-item-id="ro_1qbceey1y8iia2" data-item-class="Shape Stroke Fill" data-item-index="none" data-renderer-id="0" transform="translate(86, 39)"><g id="ro_1qbceey1y8iia2-stroke" fill="none" stroke-linecap="round" stroke-linejoin="round" stroke-miterlimit="4" stroke="#4682e3" stroke-width="2"><g><path d="M 22 10L 250 10C 250 10 262 10 262 22L 262 52C 262 52 262 64 250 64L 22 64C 22 64 10 64 10 52L 10 22C 10 22 10 10 22 10"></path></g></g></g><g id="g-root-ro_4hbg1m1y8xyx0-stroke" data-item-order="999987040" data-item-id="ro_4hbg1m1y8xyx0" data-item-class="Shape Stroke Fill" data-item-index="none" data-renderer-id="0" transform="translate(602, 3)"><g id="ro_4hbg1m1y8xyx0-stroke" fill="none" stroke-linecap="round" stroke-linejoin="round" stroke-miterlimit="4" stroke="#3bc482" stroke-width="2"><g><path d="M 22 10L 238 10C 238 10 250 10 250 22L 250 52C 250 52 250 64 238 64L 22 64C 22 64 10 64 10 52L 10 22C 10 22 10 10 22 10"></path></g></g></g><g id="g-root-ro_1ha34e21y8e9e0-stroke" data-item-order="999988336" data-item-id="ro_1ha34e21y8e9e0" data-item-class="Shape Stroke Fill" data-item-index="none" data-renderer-id="0" transform="translate(602, 261)"><g id="ro_1ha34e21y8e9e0-stroke" fill="none" stroke-linecap="round" stroke-linejoin="round" stroke-miterlimit="4" stroke="#b65edf" stroke-width="2"><g><path d="M 22 10L 214 10C 214 10 226 10 226 22L 226 52C 226 52 226 64 214 64L 22 64C 22 64 10 64 10 52L 10 22C 10 22 10 10 22 10"></path></g></g></g><g id="g-root-tx_couchepr_4lout61y8igw8-stroke" data-item-order="1000000000" data-item-id="tx_couchepr_4lout61y8igw8" data-item-class="Label Stroke" data-item-index="none" data-renderer-id="0" transform="translate(98, 54)"></g><g id="g-root-fron_5vcoq1y8ihoh-stroke" data-item-order="1000000000" data-item-id="fron_5vcoq1y8ihoh" data-item-class="Icon Stroke" data-item-index="none" data-renderer-id="0" transform="translate(296, 51)"><g id="fron_5vcoq1y8ihoh-stroke" fill="none" stroke-linecap="round" stroke-linejoin="round" stroke-miterlimit="4" stroke="#4682e3" stroke-width="2"><g><path d="M 19.642857 11.071428L 36.785713 11.071428C 36.785713 11.071428 38.92857 11.071428 38.92857 13.214286L 38.92857 30.357141C 38.92857 30.357141 38.92857 32.5 36.785713 32.5L 19.642857 32.5C 19.642857 32.5 17.5 32.5 17.5 30.357141L 17.5 13.214286C 17.5 13.214286 17.5 11.071428 19.642857 11.071428M 11.071428 36.785713C 11.071428 37.969181 12.030818 38.92857 13.214286 38.92857M 19.642857 38.92857L 22.857143 38.92857M 29.285713 38.92857L 32.5 38.92857M 11.071428 27.142857L 11.071428 30.357141M 11.071428 17.5L 11.071428 20.714285"></path></g></g></g><g id="g-root-cu_18itfqy1y8latd-stroke" data-item-order="1000000000" data-item-id="cu_18itfqy1y8latd" data-item-class="Curve Stroke ColorStrokeGray" data-item-index="none" data-renderer-id="0" transform="translate(338, 66)"><g id="cu_18itfqy1y8latd-stroke" fill="none" stroke-linecap="round" stroke-linejoin="round" stroke-miterlimit="4" stroke="#888888" stroke-width="2" stroke-dasharray="5.0, 7.0"><g><path d="M 58 164L 55 164L 54.9 164C 43.357248 164.000001 33.999999 154.642752 33.999999 143.100001L 34 143L 34 30.9C 33.999998 19.357248 24.64275 10 13.1 10L 13 10L 10 10"></path></g></g></g><g id="g-root-cu_v7zegq1y8la0w-stroke" data-item-order="1000000000" data-item-id="cu_v7zegq1y8la0w" data-item-class="Curve Stroke ColorStrokeGray" data-item-index="none" data-renderer-id="0" transform="translate(626, 57)"><g id="cu_v7zegq1y8la0w-stroke" fill="none" stroke-linecap="round" stroke-linejoin="round" stroke-miterlimit="4" stroke="#888888" stroke-width="2" stroke-dasharray="5.0, 7.0"><g><path d="M 10 10L 10 22L 10 34L 19 34L 28 34"></path></g></g></g><g id="g-root-cu_v7zegq1y8la0z-stroke" data-item-order="1000000000" data-item-id="cu_v7zegq1y8la0z" data-item-class="Curve Stroke ColorStrokeGray" data-item-index="none" data-renderer-id="0" transform="translate(626, 57)"><g id="cu_v7zegq1y8la0z-stroke" fill="none" stroke-linecap="round" stroke-linejoin="round" stroke-miterlimit="4" stroke="#888888" stroke-width="2" stroke-dasharray="5.0, 7.0"><g><path d="M 10 10L 10 40L 10 70L 19 70L 28 70"></path></g></g></g><g id="g-root-cu_mcce7u1y8latp-stroke" data-item-order="1000000000" data-item-id="cu_mcce7u1y8latp" data-item-class="Curve Stroke ColorStrokeGray" data-item-index="none" data-renderer-id="0" transform="translate(626, 57)"><g id="cu_mcce7u1y8latp-stroke" fill="none" stroke-linecap="round" stroke-linejoin="round" stroke-miterlimit="4" stroke="#888888" stroke-width="2" stroke-dasharray="5.0, 7.0"><g><path d="M 10 10L 10 58L 10 106L 19 106L 28 106"></path></g></g></g><g id="g-root-cu_mcce7u1y8latr-stroke" data-item-order="1000000000" data-item-id="cu_mcce7u1y8latr" data-item-class="Curve Stroke ColorStrokeGray" data-item-index="none" data-renderer-id="0" transform="translate(626, 57)"><g id="cu_mcce7u1y8latr-stroke" fill="none" stroke-linecap="round" stroke-linejoin="round" stroke-miterlimit="4" stroke="#888888" stroke-width="2" stroke-dasharray="5.0, 7.0"><g><path d="M 10 10L 10 76L 10 142L 19 142L 28 142"></path></g></g></g><g id="g-root-cu_qs5wca1y8latd-stroke" data-item-order="1000000000" data-item-id="cu_qs5wca1y8latd" data-item-class="Curve Stroke ColorStrokeGray" data-item-index="none" data-renderer-id="0" transform="translate(626, 57)"><g id="cu_qs5wca1y8latd-stroke" fill="none" stroke-linecap="round" stroke-linejoin="round" stroke-miterlimit="4" stroke="#888888" stroke-width="2" stroke-dasharray="5.0, 7.0"><g><path d="M 10 10L 10 31L 10 166C 10 172.627425 15.372584 178.000009 22.000001 178.000008L 22.1 178L 28 178"></path></g></g></g><g id="g-root-tx_casdutil_zkoj5m1y8h1je-stroke" data-item-order="1000000000" data-item-id="tx_casdutil_zkoj5m1y8h1je" data-item-class="Label Stroke" data-item-index="none" data-renderer-id="0" transform="translate(650, 69)"></g><g id="g-root-tx_composan_1q6z2t61y8h1j9-stroke" data-item-order="1000000000" data-item-id="tx_composan_1q6z2t61y8h1j9" data-item-class="Label Stroke" data-item-index="none" data-renderer-id="0" transform="translate(110, 105)"></g><g id="g-root-cu_142zxmi1y8lblx-stroke" data-item-order="1000000000" data-item-id="cu_142zxmi1y8lblx" data-item-class="Curve Stroke ColorStrokeGray" data-item-index="none" data-renderer-id="0" transform="translate(296, 93)"><g id="cu_142zxmi1y8lblx-stroke" fill="none" stroke-linecap="round" stroke-linejoin="round" stroke-miterlimit="4" stroke="#888888" stroke-width="2" stroke-dasharray="5.0, 7.0"><g><path d="M 28 10L 28 22L 28 34L 19 34L 10 34"></path></g></g></g><g id="g-root-cu_znswl61y8l98g-stroke" data-item-order="1000000000" data-item-id="cu_znswl61y8l98g" data-item-class="Curve Stroke ColorStrokeGray" data-item-index="none" data-renderer-id="0" transform="translate(296, 93)"><g id="cu_znswl61y8l98g-stroke" fill="none" stroke-linecap="round" stroke-linejoin="round" stroke-miterlimit="4" stroke="#888888" stroke-width="2" stroke-dasharray="5.0, 7.0"><g><path d="M 28 10L 28 40L 28 70L 19 70L 10 70"></path></g></g></g><g id="g-root-cu_znswl61y8l98i-stroke" data-item-order="1000000000" data-item-id="cu_znswl61y8l98i" data-item-class="Curve Stroke ColorStrokeGray" data-item-index="none" data-renderer-id="0" transform="translate(296, 93)"><g id="cu_znswl61y8l98i-stroke" fill="none" stroke-linecap="round" stroke-linejoin="round" stroke-miterlimit="4" stroke="#888888" stroke-width="2" stroke-dasharray="5.0, 7.0"><g><path d="M 28 10L 28 58L 28 106L 19 106L 10 106"></path></g></g></g><g id="g-root-cu_znswl61y8l98k-stroke" data-item-order="1000000000" data-item-id="cu_znswl61y8l98k" data-item-class="Curve Stroke ColorStrokeGray" data-item-index="none" data-renderer-id="0" transform="translate(296, 93)"><g id="cu_znswl61y8l98k-stroke" fill="none" stroke-linecap="round" stroke-linejoin="round" stroke-miterlimit="4" stroke="#888888" stroke-width="2" stroke-dasharray="5.0, 7.0"><g><path d="M 28 10L 28 76L 28 142L 19 142L 10 142"></path></g></g></g><g id="g-root-cu_qs5wca1y8la1a-stroke" data-item-order="1000000000" data-item-id="cu_qs5wca1y8la1a" data-item-class="Curve Stroke ColorStrokeGray" data-item-index="none" data-renderer-id="0" transform="translate(296, 93)"><g id="cu_qs5wca1y8la1a-stroke" fill="none" stroke-linecap="round" stroke-linejoin="round" stroke-miterlimit="4" stroke="#888888" stroke-width="2" stroke-dasharray="5.0, 7.0"><g><path d="M 28 10L 28 31L 28 166C 28.000011 172.627427 22.627428 178.000011 16.00001 178.000011L 15.9 178L 10 178"></path></g></g></g><g id="g-root-tx_dtos_zkoj5m1y8h1jf-stroke" data-item-order="1000000000" data-item-id="tx_dtos_zkoj5m1y8h1jf" data-item-class="Label Stroke" data-item-index="none" data-renderer-id="0" transform="translate(650, 105)"></g><g id="g-root-tx_storespi_1hbc2ka1y8h2by-stroke" data-item-order="1000000000" data-item-id="tx_storespi_1hbc2ka1y8h2by" data-item-class="Label Stroke" data-item-index="none" data-renderer-id="0" transform="translate(170, 141)"></g><g id="g-root-tx_ports_v4v1161y8h2bo-stroke" data-item-order="1000000000" data-item-id="tx_ports_v4v1161y8h2bo" data-item-class="Label Stroke" data-item-index="none" data-renderer-id="0" transform="translate(650, 141)"></g><g id="g-root-tx_composab_1cvikfu1y8h347-stroke" data-item-order="1000000000" data-item-id="tx_composab_1cvikfu1y8h347" data-item-class="Label Stroke" data-item-index="none" data-renderer-id="0" transform="translate(122, 177)"></g><g id="g-root-6_1lt0wsa1y8qxaf-stroke" data-item-order="1000000000" data-item-id="6_1lt0wsa1y8qxaf" data-item-class="Icon Stroke" data-item-index="none" data-renderer-id="0" transform="translate(446, 186)"><g id="6_1lt0wsa1y8qxaf-stroke" fill="none" stroke-linecap="round" stroke-linejoin="round" stroke-miterlimit="4" stroke="#484848" stroke-width="2"><g><path d="M 16.857143 49.428574C 16.857143 53.215668 19.927191 56.285713 23.714287 56.285713C 27.501381 56.285713 30.571428 53.215668 30.571428 49.428574C 30.571428 45.641476 27.501381 42.57143 23.714287 42.57143C 19.927191 42.57143 16.857143 45.641476 16.857143 49.428574M 16.857143 18.571428C 16.857143 22.358524 19.927191 25.428572 23.714287 25.428572C 27.501381 25.428572 30.571428 22.358524 30.571428 18.571428C 30.571428 14.784333 27.501381 11.714286 23.714287 11.714286C 19.927191 11.714286 16.857143 14.784333 16.857143 18.571428M 37.428574 22C 37.428574 25.787096 40.498619 28.857143 44.285713 28.857143C 48.072811 28.857143 51.142857 25.787096 51.142857 22C 51.142857 18.212904 48.072811 15.142858 44.285713 15.142858C 40.498619 15.142858 37.428574 18.212904 37.428574 22M 23.714287 42.57143L 23.714287 25.428572M 44.285713 28.857143L 44.285713 30.571428C 44.285713 34.358524 41.215668 37.428574 37.428574 37.428574L 28.857143 37.428574C 26.016823 37.428574 23.714287 39.731106 23.714287 42.57143"></path></g></g></g><g id="g-root-tx_commande_m980sa1y8h34d-stroke" data-item-order="1000000000" data-item-id="tx_commande_m980sa1y8h34d" data-item-class="Label Stroke" data-item-index="none" data-renderer-id="0" transform="translate(650, 177)"></g><g id="g-root-tx_localisa_1cvikfu1y8h348-stroke" data-item-order="1000000000" data-item-id="tx_localisa_1cvikfu1y8h348" data-item-class="Label Stroke" data-item-index="none" data-renderer-id="0" transform="translate(170, 213)"></g><g id="g-root-tx_services_m980sa1y8h34e-stroke" data-item-order="1000000000" data-item-id="tx_services_m980sa1y8h34e" data-item-class="Label Stroke" data-item-index="none" data-renderer-id="0" transform="translate(650, 213)"></g><g id="g-root-tx_politiqu_2qz961y8h343-stroke" data-item-order="1000000000" data-item-id="tx_politiqu_2qz961y8h343" data-item-class="Label Stroke" data-item-index="none" data-renderer-id="0" transform="translate(650, 471)"></g><g id="g-root-tx_logiciel_3dd6i1y8qvwm-stroke" data-item-order="1000000000" data-item-id="tx_logiciel_3dd6i1y8qvwm" data-item-class="Label Stroke" data-item-index="none" data-renderer-id="0" transform="translate(410, 240)"></g><g id="g-root-tx_coucheap_hsryey1y8xxc2-stroke" data-item-order="1000000000" data-item-id="tx_coucheap_hsryey1y8xxc2" data-item-class="Label Stroke" data-item-index="none" data-renderer-id="0" transform="translate(650, 18)"></g><g id="g-root-cu_142zxmi1y8lblu-stroke" data-item-order="1000000000" data-item-id="cu_142zxmi1y8lblu" data-item-class="Curve Stroke ColorStrokeGray" data-item-index="none" data-renderer-id="0" transform="translate(338, 278)"><g id="cu_142zxmi1y8lblu-stroke" fill="none" stroke-linecap="round" stroke-linejoin="round" stroke-miterlimit="4" stroke="#888888" stroke-width="2" stroke-dasharray="5.0, 7.0"><g><path d="M 58 10L 55 10L 54.9 10C 43.357248 10.000001 33.999999 19.357249 33.999999 30.9L 34 31L 34 35.1C 34.000002 46.642753 24.642753 56.000003 13.100001 56.000003L 13 56L 10 56"></path></g></g></g><g id="g-root-cu_zn6fi21y8lbm7-stroke" data-item-order="1000000000" data-item-id="cu_zn6fi21y8lbm7" data-item-class="Curve Stroke ColorStrokeGray" data-item-index="none" data-renderer-id="0" transform="translate(554, 278)"><g id="cu_zn6fi21y8lbm7-stroke" fill="none" stroke-linecap="round" stroke-linejoin="round" stroke-miterlimit="4" stroke="#888888" stroke-width="2" stroke-dasharray="5.0, 7.0"><g><path d="M 10 10L 13 10L 13.1 10C 16.360602 10.01615 19.962923 10.453815 23.800001 11.3C 26.03452 11.745014 29.638043 13.052174 34 15.000001C 38.361958 16.947827 41.965481 18.254987 44.200001 18.700001C 48.03708 19.546186 51.639401 19.983851 54.900002 20.000001L 55 20L 58 20"></path></g></g></g><g id="g-root-docu_1lpwmii1y8e8lr-stroke" data-item-order="1000000000" data-item-id="docu_1lpwmii1y8e8lr" data-item-class="Icon Stroke" data-item-index="none" data-renderer-id="0" transform="translate(614, 273)"><g id="docu_1lpwmii1y8e8lr-stroke" fill="none" stroke-linecap="round" stroke-linejoin="round" stroke-miterlimit="4" stroke="#b65edf" stroke-width="2"><g><path d="M 29.789999 30.756248C 29.790001 31.814566 30.647936 32.672501 31.706249 32.672501C 32.764565 32.672501 33.622501 31.814566 33.622501 30.756248C 33.622501 29.697935 32.764565 28.84 31.706249 28.84C 30.647936 28.84 29.790001 29.697935 29.790001 30.756248M 33.333748 23.342499L 33.89875 25.19875C 34.090084 25.840097 34.7463 26.222891 35.39875 26.07375L 37.279999 25.637501C 38.011803 25.47315 38.765289 25.804859 39.138271 26.455572C 39.511257 27.106287 39.416672 27.924103 38.904999 28.472502L 37.588749 29.891251C 37.134964 30.382969 37.134964 31.140778 37.588749 31.6325L 38.904999 33.05125C 39.416672 33.599648 39.511257 34.417465 39.138271 35.068176C 38.765289 35.718891 38.011803 36.050602 37.280003 35.886253L 35.39875 35.450001C 34.7463 35.300861 34.090084 35.683655 33.89875 36.325001L 33.333748 38.181252C 33.117832 38.900024 32.456127 39.392159 31.705626 39.392159C 30.955122 39.392159 30.293419 38.900024 30.077499 38.181252L 29.512499 36.325001C 29.321167 35.683655 28.664949 35.300861 28.012501 35.450001L 26.130001 35.88625C 25.398731 36.048668 24.64682 35.716595 24.274305 35.0667C 23.901789 34.416801 23.995264 33.600163 24.504999 33.051247L 25.82 31.625C 26.27499 31.133749 26.27499 30.375 25.82 29.883749L 24.5 28.467501C 23.988331 27.919104 23.893745 27.101286 24.266729 26.450573C 24.639713 25.79986 25.393198 25.468151 26.125 25.6325L 28.0075 26.068748C 28.65995 26.217892 29.316168 25.835096 29.507502 25.19375L 30.0725 23.3375C 30.286734 22.614838 30.951248 22.119528 31.704994 22.120684C 32.45874 22.12184 33.121735 22.619184 33.333748 23.342499ZM 21.48875 22.77125L 25.3225 22.77125M 15.0525 14.50375L 17.703751 14.50375C 17.703751 14.50375 18.295 14.50375 18.295 15.094999L 18.295 17.74625C 18.295 17.74625 18.295 18.3375 17.703751 18.3375L 15.0525 18.3375C 15.0525 18.3375 14.46125 18.3375 14.46125 17.74625L 14.46125 15.094999C 14.46125 15.094999 14.46125 14.50375 15.0525 14.50375M 15.0525 20.85375L 17.703751 20.85375C 17.703751 20.85375 18.295 20.85375 18.295 21.445L 18.295 24.096249C 18.295 24.096249 18.295 24.6875 17.703751 24.6875L 15.0525 24.6875C 15.0525 24.6875 14.46125 24.6875 14.46125 24.096249L 14.46125 21.445C 14.46125 21.445 14.46125 20.85375 15.0525 20.85375M 21.48875 30.793751L 22.9375 30.793751M 15.0525 27.203749L 17.703751 27.203749C 17.703751 27.203749 18.295 27.203749 18.295 27.794998L 18.295 30.446251C 18.295 30.446251 18.295 31.0375 17.703751 31.0375L 15.0525 31.0375C 15.0525 31.0375 14.46125 31.0375 14.46125 30.446251L 14.46125 27.794998C 14.46125 27.794998 14.46125 27.203749 15.0525 27.203749M 20.571249 34.91L 11.68375 34.91C 11.403182 34.910664 11.133879 34.799675 10.935252 34.601521C 10.736626 34.403358 10.624999 34.134323 10.625 33.853752L 10.625 11.67375C 10.628443 11.092066 11.102059 10.622922 11.68375 10.625L 21.80875 10.625C 22.089767 10.624557 22.359489 10.735593 22.55875 10.93375L 28.276251 16.6525C 28.475807 16.850929 28.587471 17.121084 28.586252 17.4025L 28.58625 20.85375M 22.25 10.7125L 22.25 15.89875C 22.25 16.482101 22.7229 16.955 23.306252 16.955L 28.487499 16.955"></path></g></g></g><g id="g-root-tx_couchedo_1uuwnwa1y8zdhi-stroke" data-item-order="1000000000" data-item-id="tx_couchedo_1uuwnwa1y8zdhi" data-item-class="Label Stroke" data-item-index="none" data-renderer-id="0" transform="translate(650, 276)"></g><g id="g-root-cu_18itfqy1y8latg-stroke" data-item-order="1000000000" data-item-id="cu_18itfqy1y8latg" data-item-class="Curve Stroke ColorStrokeGray" data-item-index="none" data-renderer-id="0" transform="translate(554, 30)"><g id="cu_18itfqy1y8latg-stroke" fill="none" stroke-linecap="round" stroke-linejoin="round" stroke-miterlimit="4" stroke="#888888" stroke-width="2" stroke-dasharray="5.0, 7.0"><g><path d="M 10 200L 13 200L 13.1 200C 24.64275 200.000007 33.999999 190.642758 33.999999 179.100006L 34 179L 34 30.9C 33.999999 19.357249 43.357248 10.000001 54.899999 10.000002L 55 10L 58 10"></path></g></g></g><g id="g-root-tx_couchein_1q9gz5m1y8lbly-stroke" data-item-order="1000000000" data-item-id="tx_couchein_1q9gz5m1y8lbly" data-item-class="Label Stroke ColorFillGray ColorStrokeGray" data-item-index="none" data-renderer-id="0" transform="translate(86, 312)"></g><g id="g-root-serv_1hegfzu1y8l98v-stroke" data-item-order="1000000000" data-item-id="serv_1hegfzu1y8l98v" data-item-class="Icon Stroke ColorFillGray ColorStrokeGray" data-item-index="none" data-renderer-id="0" transform="translate(296, 309)"><g id="serv_1hegfzu1y8l98v-stroke" fill="none" stroke-linecap="round" stroke-linejoin="round" stroke-miterlimit="4" stroke="#888888" stroke-width="2"><g><path d="M 35.625 18.658751C 35.604069 17.425695 35.082287 16.254242 34.179691 15.413896C 33.277096 14.573548 32.071404 14.136663 30.839998 14.20375C 29.734344 11.995436 27.46958 10.607589 25 10.625C 21.637741 10.576427 18.815884 13.14772 18.5525 16.5C 17.549095 16.278038 16.499016 16.516819 15.690258 17.150854C 14.8815 17.784889 14.398968 18.747618 14.375 19.775C 14.375 23.1775 18.07 23.125 18.07 23.125L 31.467499 23.125C 31.467499 23.125 35.625 22.598751 35.625 18.658751ZM 18.4375 35.936249C 18.265074 35.936249 18.125233 36.075909 18.125004 36.248337C 18.124773 36.420761 18.264244 36.560791 18.43667 36.561249C 18.609095 36.561707 18.74931 36.422424 18.75 36.25C 18.750334 36.167015 18.717516 36.087337 18.65884 36.02866C 18.600163 35.969982 18.520481 35.937164 18.4375 35.9375L 18.4375 35.9375M 21.5625 35.936249C 21.390074 35.936249 21.250231 36.075909 21.250002 36.248337C 21.249773 36.420761 21.389244 36.560791 21.56167 36.561249C 21.734097 36.561707 21.87431 36.422424 21.875 36.25C 21.875334 36.167015 21.842516 36.087337 21.78384 36.02866C 21.725161 35.969982 21.645481 35.937164 21.5625 35.9375L 21.5625 35.9375M 35.625 37.5C 35.625 38.535534 34.785534 39.375 33.75 39.375L 16.25 39.375C 15.214466 39.375 14.375 38.535534 14.375 37.5L 14.375 35C 14.375 33.964466 15.214466 33.125 16.25 33.125L 33.75 33.125C 34.785534 33.125 35.625 33.964466 35.625 35ZM 18.4375 29.686249C 18.265074 29.686253 18.125233 29.825909 18.125004 29.998335C 18.124773 30.170761 18.264244 30.310791 18.43667 30.311249C 18.609095 30.311708 18.74931 30.172424 18.75 30C 18.750334 29.917017 18.717516 29.837337 18.65884 29.77866C 18.600163 29.719982 18.520481 29.687164 18.4375 29.687498L 18.4375 29.6875M 21.5625 29.686249C 21.390074 29.686253 21.250231 29.825909 21.250002 29.998335C 21.249773 30.170761 21.389244 30.310791 21.56167 30.311249C 21.734097 30.311708 21.87431 30.172424 21.875 30C 21.875334 29.917017 21.842516 29.837337 21.78384 29.77866C 21.725161 29.719982 21.645481 29.687164 21.5625 29.687498L 21.5625 29.6875M 35.625 31.25C 35.625 32.285534 34.785534 33.125 33.75 33.125L 16.25 33.125C 15.214466 33.125 14.375 32.285534 14.375 31.25L 14.375 28.75C 14.375 27.714466 15.214466 26.875 16.25 26.875L 33.75 26.875C 34.785534 26.875 35.625 27.714466 35.625 28.75Z"></path></g></g></g><g id="g-root-cu_hwiw3e1y8lbm3-stroke" data-item-order="1000000000" data-item-id="cu_hwiw3e1y8lbm3" data-item-class="Curve Stroke ColorStrokeGray" data-item-index="none" data-renderer-id="0" transform="translate(626, 315)"><g id="cu_hwiw3e1y8lbm3-stroke" fill="none" stroke-linecap="round" stroke-linejoin="round" stroke-miterlimit="4" stroke="#888888" stroke-width="2" stroke-dasharray="5.0, 7.0"><g><path d="M 10 10L 10 22L 10 34L 19 34L 28 34"></path></g></g></g><g id="g-root-cu_hwiw3e1y8lbm6-stroke" data-item-order="1000000000" data-item-id="cu_hwiw3e1y8lbm6" data-item-class="Curve Stroke ColorStrokeGray" data-item-index="none" data-renderer-id="0" transform="translate(626, 315)"><g id="cu_hwiw3e1y8lbm6-stroke" fill="none" stroke-linecap="round" stroke-linejoin="round" stroke-miterlimit="4" stroke="#888888" stroke-width="2" stroke-dasharray="5.0, 7.0"><g><path d="M 10 10L 10 40L 10 70L 19 70L 28 70"></path></g></g></g><g id="g-root-cu_mcce7u1y8lbls-stroke" data-item-order="1000000000" data-item-id="cu_mcce7u1y8lbls" data-item-class="Curve Stroke ColorStrokeGray" data-item-index="none" data-renderer-id="0" transform="translate(626, 315)"><g id="cu_mcce7u1y8lbls-stroke" fill="none" stroke-linecap="round" stroke-linejoin="round" stroke-miterlimit="4" stroke="#888888" stroke-width="2" stroke-dasharray="5.0, 7.0"><g><path d="M 10 10L 10 58L 10 106L 19 106L 28 106"></path></g></g></g><g id="g-root-cu_dhbv221y8l98q-stroke" data-item-order="1000000000" data-item-id="cu_dhbv221y8l98q" data-item-class="Curve Stroke ColorStrokeGray" data-item-index="none" data-renderer-id="0" transform="translate(626, 315)"><g id="cu_dhbv221y8l98q-stroke" fill="none" stroke-linecap="round" stroke-linejoin="round" stroke-miterlimit="4" stroke="#888888" stroke-width="2" stroke-dasharray="5.0, 7.0"><g><path d="M 10 10L 10 76L 10 142L 19 142L 28 142"></path></g></g></g><g id="g-root-cu_dhbv221y8l98s-stroke" data-item-order="1000000000" data-item-id="cu_dhbv221y8l98s" data-item-class="Curve Stroke ColorStrokeGray" data-item-index="none" data-renderer-id="0" transform="translate(626, 315)"><g id="cu_dhbv221y8l98s-stroke" fill="none" stroke-linecap="round" stroke-linejoin="round" stroke-miterlimit="4" stroke="#888888" stroke-width="2" stroke-dasharray="5.0, 7.0"><g><path d="M 10 10L 10 31L 10 166C 10 172.627425 15.372584 178.000009 22.000001 178.000008L 22.1 178L 28 178"></path></g></g></g><g id="g-root-tx_entits_hteinu1y8h3wn-stroke" data-item-order="1000000000" data-item-id="tx_entits_hteinu1y8h3wn" data-item-class="Label Stroke" data-item-index="none" data-renderer-id="0" transform="translate(650, 327)"></g><g id="g-root-tx_implment_1q880ze1y8h3po-stroke" data-item-order="1000000000" data-item-id="tx_implment_1q880ze1y8h3po" data-item-class="Label Stroke" data-item-index="none" data-renderer-id="0" transform="translate(2, 363)"></g><g id="g-root-cu_dhbv221y8l98u-stroke" data-item-order="1000000000" data-item-id="cu_dhbv221y8l98u" data-item-class="Curve Stroke ColorStrokeGray" data-item-index="none" data-renderer-id="0" transform="translate(296, 351)"><g id="cu_dhbv221y8l98u-stroke" fill="none" stroke-linecap="round" stroke-linejoin="round" stroke-miterlimit="4" stroke="#888888" stroke-width="2" stroke-dasharray="5.0, 7.0"><g><path d="M 28 10L 28 22L 28 34L 19 34L 10 34"></path></g></g></g><g id="g-root-cu_91icxm1y8la15-stroke" data-item-order="1000000000" data-item-id="cu_91icxm1y8la15" data-item-class="Curve Stroke ColorStrokeGray" data-item-index="none" data-renderer-id="0" transform="translate(296, 351)"><g id="cu_91icxm1y8la15-stroke" fill="none" stroke-linecap="round" stroke-linejoin="round" stroke-miterlimit="4" stroke="#888888" stroke-width="2" stroke-dasharray="5.0, 7.0"><g><path d="M 28 10L 28 40L 28 70L 19 70L 10 70"></path></g></g></g><g id="g-root-cu_91icxm1y8la17-stroke" data-item-order="1000000000" data-item-id="cu_91icxm1y8la17" data-item-class="Curve Stroke ColorStrokeGray" data-item-index="none" data-renderer-id="0" transform="translate(296, 351)"><g id="cu_91icxm1y8la17-stroke" fill="none" stroke-linecap="round" stroke-linejoin="round" stroke-miterlimit="4" stroke="#888888" stroke-width="2" stroke-dasharray="5.0, 7.0"><g><path d="M 28 10L 28 22L 28 94C 28.000002 100.627415 22.627419 105.999998 16.000002 105.999998L 15.9 106L 10 106"></path></g></g></g><g id="g-root-tx_objetsva_de7hmi1y8h1j4-stroke" data-item-order="1000000000" data-item-id="tx_objetsva_de7hmi1y8h1j4" data-item-class="Label Stroke" data-item-index="none" data-renderer-id="0" transform="translate(650, 363)"></g><g id="g-root-tx_services_1lt0zy21y8h1c5-stroke" data-item-order="1000000000" data-item-id="tx_services_1lt0zy21y8h1c5" data-item-class="Label Stroke" data-item-index="none" data-renderer-id="0" transform="translate(122, 399)"></g><g id="g-root-tx_interfac_4ikhdm1y8h2bt-stroke" data-item-order="1000000000" data-item-id="tx_interfac_4ikhdm1y8h2bt" data-item-class="Label Stroke" data-item-index="none" data-renderer-id="0" transform="translate(650, 399)"></g><g id="g-root-tx_adaptate_1lt0zy21y8h1c6-stroke" data-item-order="1000000000" data-item-id="tx_adaptate_1lt0zy21y8h1c6" data-item-class="Label Stroke" data-item-index="none" data-renderer-id="0" transform="translate(38, 435)"></g><g id="g-root-tx_erreurse_4ikhdm1y8h2bu-stroke" data-item-order="1000000000" data-item-id="tx_erreurse_4ikhdm1y8h2bu" data-item-class="Label Stroke" data-item-index="none" data-renderer-id="0" transform="translate(650, 435)"></g><g id="g-root-appl_8x4y621y8xy4r-stroke" data-item-order="1000000000" data-item-id="appl_8x4y621y8xy4r" data-item-class="Icon Stroke" data-item-index="none" data-renderer-id="0" transform="translate(614, 15)"><g id="appl_8x4y621y8xy4r-stroke" fill="none" stroke-linecap="round" stroke-linejoin="round" stroke-miterlimit="4" stroke="#3bc482" stroke-width="2"><g><path d="M 38.92857 28.214285L 38.92857 32.5C 38.92857 33.091732 38.448875 33.571426 37.857143 33.571426L 12.142857 33.571426C 11.551124 33.571426 11.071428 33.091732 11.071428 32.5L 11.071428 28.214285M 11.071428 19.642857L 11.071428 15.357142C 11.071428 14.765409 11.551124 14.285714 12.142857 14.285714L 37.857143 14.285714C 38.448875 14.285714 38.92857 14.765409 38.92857 15.357142L 38.92857 19.642857M 22.857143 33.571426L 20.714285 38.92857M 27.142857 33.571426L 29.285713 38.92857M 18.571428 38.92857L 31.42857 38.92857M 21.785713 19.642857L 28.214285 19.642857L 28.214285 28.214285L 21.785713 28.214285ZM 16.428572 20.714285L 13.214286 23.928572L 16.428572 27.142857M 33.571426 20.714285L 36.785713 23.928572L 33.571426 27.142857"></path></g></g></g><g id="g-root-tx_mixinset_18fp2be1y8h3wh-stroke" data-item-order="1000000000" data-item-id="tx_mixinset_18fp2be1y8h3wh" data-item-class="Label Stroke" data-item-index="none" data-renderer-id="0" transform="translate(98, 249)"></g></g></g></svg>