<?xml version="1.0" encoding="utf-8" standalone="yes"?>
<!DOCTYPE svg PUBLIC "-//W3C//DTD SVG 1.1//EN" "http://www.w3.org/Graphics/SVG/1.1/DTD/svg11.dtd">
<svg width="631" height="463" viewBox="0 0 631 463" style="fill:none;stroke:none;fill-rule:evenodd;clip-rule:evenodd;stroke-linecap:round;stroke-linejoin:round;stroke-miterlimit:1.5;" version="1.1" xmlns="http://www.w3.org/2000/svg" xmlns:xlink="http://www.w3.org/1999/xlink"><style id="fontImports">@import url("https://fonts.googleapis.com/css2?family=Roboto:wght@400;700&amp;display=block");</style><rect id="" x="0" y="0" width="631" height="462" style="fill: #ffffff;"></rect><g id="items" style="isolation: isolate"><g id="blend" style="mix-blend-mode:normal"><g id="g-root-ro_8got1sp7g93-fill" data-item-order="999969760" data-item-id="ro_8got1sp7g93" data-item-class="Shape Stroke Fill" data-item-index="none" data-renderer-id="0" transform="translate(3, 3)"><g id="ro_8got1sp7g93-fill" stroke="none" fill="#f5fbe9"><g><path d="M 22 10L 250 10C 250 10 262 10 262 22L 262 118C 262 118 262 130 250 130L 22 130C 22 130 10 130 10 118L 10 22C 10 22 10 10 22 10"></path></g></g></g><g id="g-root-ro_1lt0gvx1somf43-fill" data-item-order="999974080" data-item-id="ro_1lt0gvx1somf43" data-item-class="Shape Stroke Fill" data-item-index="none" data-renderer-id="0" transform="translate(206, 319.00006103515625)"><g id="ro_1lt0gvx1somf43-fill" stroke="none" fill="#ffe7e6"><g><path d="M 22 10L 214 10C 214 10 226 10 226 22L 226 118C 226 118 226 130 214 130L 22 130C 22 130 10 130 10 118L 10 22C 10 22 10 10 22 10"></path></g></g></g><g id="g-root-ro_9lo591somfb5-fill" data-item-order="999975808" data-item-id="ro_9lo591somfb5" data-item-class="Shape Stroke Fill" data-item-index="none" data-renderer-id="0" transform="translate(356, 167)"><g id="ro_9lo591somfb5-fill" stroke="none" fill="#fef2e6"><g><path d="M 22 10L 250 10C 250 10 262 10 262 22L 262 94C 262 94 262 106 250 106L 22 106C 22 106 10 106 10 94L 10 22C 10 22 10 10 22 10"></path></g></g></g><g id="g-root-ro_dhxpx91sp7g91-fill" data-item-order="999978112" data-item-id="ro_dhxpx91sp7g91" data-item-class="Shape Stroke Fill" data-item-index="none" data-renderer-id="0" transform="translate(15, 167)"><g id="ro_dhxpx91sp7g91-fill" stroke="none" fill="#e6f9ff"><g><path d="M 22 10L 226 10C 226 10 238 10 238 22L 238 94C 238 94 238 106 226 106L 22 106C 22 106 10 106 10 94L 10 22C 10 22 10 10 22 10"></path></g></g></g><g id="g-root-tx_presenta_dl23ct1sp639h-fill" data-item-order="1000000000" data-item-id="tx_presenta_dl23ct1sp639h" data-item-class="Label Stroke" data-item-index="none" data-renderer-id="0" transform="translate(51, 15)"><g id="tx_presenta_dl23ct1sp639h-fill" stroke="none" fill="#000000"><g><text style="font: 20px Roboto, sans-serif; white-space: pre;" font-weight="20px" font-size="Roboto," font-family="sans-serif"><tspan x="12" y="57.75" dominant-baseline="ideographic">Presentation Layer</tspan><tspan x="12" y="81.75" dominant-baseline="ideographic">Vue.js Components</tspan></text></g></g></g><g id="g-root-vue_4g1yt91sp7fgu-fill" data-item-order="1000000000" data-item-id="vue_4g1yt91sp7fgu" data-item-class="Icon Stroke" data-item-index="none" data-renderer-id="0" transform="translate(15, 48)"></g><g id="g-root-tx_applicat_qsrr7h1sp7htv-fill" data-item-order="1000000000" data-item-id="tx_applicat_qsrr7h1sp7htv" data-item-class="Label Stroke" data-item-index="none" data-renderer-id="0" transform="translate(63, 179)"><g id="tx_applicat_qsrr7h1sp7htv-fill" stroke="none" fill="#000000"><g><text style="font: 20px Roboto, sans-serif; white-space: pre;" font-weight="20px" font-size="Roboto," font-family="sans-serif"><tspan x="12" y="45.75" dominant-baseline="ideographic">Application Layer</tspan><tspan x="12" y="69.75" dominant-baseline="ideographic">Use Cases</tspan></text></g></g></g><g id="g-root-tx_infrastr_i0von11somcxz-fill" data-item-order="1000000000" data-item-id="tx_infrastr_i0von11somcxz" data-item-class="Label Stroke" data-item-index="none" data-renderer-id="0" transform="translate(404, 179)"><g id="tx_infrastr_i0von11somcxz-fill" stroke="none" fill="#000000"><g><text style="font: 20px Roboto, sans-serif; white-space: pre;" font-weight="20px" font-size="Roboto," font-family="sans-serif"><tspan x="12" y="45.75" dominant-baseline="ideographic">Infrastructure Layer </tspan><tspan x="12" y="69.75" dominant-baseline="ideographic">External Interfaces</tspan></text></g></g></g><g id="g-root-appl_hxr81p1sp7fgs-fill" data-item-order="1000000000" data-item-id="appl_hxr81p1sp7fgs" data-item-class="Icon Stroke" data-item-index="none" data-renderer-id="0" transform="translate(27, 200)"></g><g id="g-root-1_4pf69p1someiw-fill" data-item-order="1000000000" data-item-id="1_4pf69p1someiw" data-item-class="Icon Stroke" data-item-index="none" data-renderer-id="0" transform="translate(368, 200)"></g><g id="g-root-tx_domainla_3cxa51somdq9-fill" data-item-order="1000000000" data-item-id="tx_domainla_3cxa51somdq9" data-item-class="Label Stroke" data-item-index="none" data-renderer-id="0" transform="translate(254, 331.00006103515625)"><g id="tx_domainla_3cxa51somdq9-fill" stroke="none" fill="#000000"><g><text style="font: 20px Roboto, sans-serif; white-space: pre;" font-weight="20px" font-size="Roboto," font-family="sans-serif"><tspan x="12" y="57.75" dominant-baseline="ideographic">Domain Layer</tspan><tspan x="12" y="81.75" dominant-baseline="ideographic">Business Rules</tspan></text></g></g></g><g id="g-root-lock_1q8tz0d1somebu-fill" data-item-order="1000000000" data-item-id="lock_1q8tz0d1somebu" data-item-class="Icon Stroke" data-item-index="none" data-renderer-id="0" transform="translate(218, 364.00006103515625)"></g><g id="g-root-cu_145hawt1sons3x-fill" data-item-order="1000000002" data-item-id="cu_145hawt1sons3x" data-item-class="Curve Stroke" data-item-index="none" data-renderer-id="0" transform="translate(129, 123)"></g><g id="g-root-cu_18lat191sons3k-fill" data-item-order="1000000002" data-item-id="cu_18lat191sons3k" data-item-class="Curve Stroke" data-item-index="none" data-renderer-id="0" transform="translate(129, 263.00006103515625)"></g><g id="g-root-cu_zpnssd1sonswb-fill" data-item-order="1000000002" data-item-id="cu_zpnssd1sonswb" data-item-class="Curve Stroke" data-item-index="none" data-renderer-id="0" transform="translate(314, 263.00006103515625)"></g><g id="g-root-ro_8got1sp7g93-stroke" data-item-order="999969760" data-item-id="ro_8got1sp7g93" data-item-class="Shape Stroke Fill" data-item-index="none" data-renderer-id="0" transform="translate(3, 3)"><g id="ro_8got1sp7g93-stroke" fill="none" stroke-linecap="round" stroke-linejoin="round" stroke-miterlimit="4" stroke="#93c131" stroke-width="2"><g><path d="M 22 10L 250 10C 250 10 262 10 262 22L 262 118C 262 118 262 130 250 130L 22 130C 22 130 10 130 10 118L 10 22C 10 22 10 10 22 10"></path></g></g></g><g id="g-root-ro_1lt0gvx1somf43-stroke" data-item-order="999974080" data-item-id="ro_1lt0gvx1somf43" data-item-class="Shape Stroke Fill" data-item-index="none" data-renderer-id="0" transform="translate(206, 319.00006103515625)"><g id="ro_1lt0gvx1somf43-stroke" fill="none" stroke-linecap="round" stroke-linejoin="round" stroke-miterlimit="4" stroke="#e15e5a" stroke-width="2"><g><path d="M 22 10L 214 10C 214 10 226 10 226 22L 226 118C 226 118 226 130 214 130L 22 130C 22 130 10 130 10 118L 10 22C 10 22 10 10 22 10"></path></g></g></g><g id="g-root-ro_9lo591somfb5-stroke" data-item-order="999975808" data-item-id="ro_9lo591somfb5" data-item-class="Shape Stroke Fill" data-item-index="none" data-renderer-id="0" transform="translate(356, 167)"><g id="ro_9lo591somfb5-stroke" fill="none" stroke-linecap="round" stroke-linejoin="round" stroke-miterlimit="4" stroke="#dd8433" stroke-width="2"><g><path d="M 22 10L 250 10C 250 10 262 10 262 22L 262 94C 262 94 262 106 250 106L 22 106C 22 106 10 106 10 94L 10 22C 10 22 10 10 22 10"></path></g></g></g><g id="g-root-ro_dhxpx91sp7g91-stroke" data-item-order="999978112" data-item-id="ro_dhxpx91sp7g91" data-item-class="Shape Stroke Fill" data-item-index="none" data-renderer-id="0" transform="translate(15, 167)"><g id="ro_dhxpx91sp7g91-stroke" fill="none" stroke-linecap="round" stroke-linejoin="round" stroke-miterlimit="4" stroke="#17b0e3" stroke-width="2"><g><path d="M 22 10L 226 10C 226 10 238 10 238 22L 238 94C 238 94 238 106 226 106L 22 106C 22 106 10 106 10 94L 10 22C 10 22 10 10 22 10"></path></g></g></g><g id="g-root-tx_presenta_dl23ct1sp639h-stroke" data-item-order="1000000000" data-item-id="tx_presenta_dl23ct1sp639h" data-item-class="Label Stroke" data-item-index="none" data-renderer-id="0" transform="translate(51, 15)"></g><g id="g-root-vue_4g1yt91sp7fgu-stroke" data-item-order="1000000000" data-item-id="vue_4g1yt91sp7fgu" data-item-class="Icon Stroke" data-item-index="none" data-renderer-id="0" transform="translate(15, 48)"><g id="vue_4g1yt91sp7fgu-stroke" fill="none" stroke-linecap="round" stroke-linejoin="round" stroke-miterlimit="4" stroke="#484848" stroke-width="2"><g><path d="M 39.375 13.125L 30 13.125L 25 21.875L 20 13.125L 10.625 13.125L 25 36.875L 39.375 13.125ZM 15 13.125L 25 29.375L 35 13.125"></path></g></g></g><g id="g-root-tx_applicat_qsrr7h1sp7htv-stroke" data-item-order="1000000000" data-item-id="tx_applicat_qsrr7h1sp7htv" data-item-class="Label Stroke" data-item-index="none" data-renderer-id="0" transform="translate(63, 179)"></g><g id="g-root-tx_infrastr_i0von11somcxz-stroke" data-item-order="1000000000" data-item-id="tx_infrastr_i0von11somcxz" data-item-class="Label Stroke" data-item-index="none" data-renderer-id="0" transform="translate(404, 179)"></g><g id="g-root-appl_hxr81p1sp7fgs-stroke" data-item-order="1000000000" data-item-id="appl_hxr81p1sp7fgs" data-item-class="Icon Stroke" data-item-index="none" data-renderer-id="0" transform="translate(27, 200)"><g id="appl_hxr81p1sp7fgs-stroke" fill="none" stroke-linecap="round" stroke-linejoin="round" stroke-miterlimit="4" stroke="#000000" stroke-width="2"><g><path d="M 38.92857 28.214285L 38.92857 32.5C 38.92857 33.091732 38.448875 33.571426 37.857143 33.571426L 12.142857 33.571426C 11.551124 33.571426 11.071428 33.091732 11.071428 32.5L 11.071428 28.214285M 11.071428 19.642857L 11.071428 15.357142C 11.071428 14.765409 11.551124 14.285714 12.142857 14.285714L 37.857143 14.285714C 38.448875 14.285714 38.92857 14.765409 38.92857 15.357142L 38.92857 19.642857M 22.857143 33.571426L 20.714285 38.92857M 27.142857 33.571426L 29.285713 38.92857M 18.571428 38.92857L 31.42857 38.92857M 21.785713 19.642857L 28.214285 19.642857L 28.214285 28.214285L 21.785713 28.214285ZM 16.428572 20.714285L 13.214286 23.928572L 16.428572 27.142857M 33.571426 20.714285L 36.785713 23.928572L 33.571426 27.142857"></path></g></g></g><g id="g-root-1_4pf69p1someiw-stroke" data-item-order="1000000000" data-item-id="1_4pf69p1someiw" data-item-class="Icon Stroke" data-item-index="none" data-renderer-id="0" transform="translate(368, 200)"><g id="1_4pf69p1someiw-stroke" fill="none" stroke-linecap="round" stroke-linejoin="round" stroke-miterlimit="4" stroke="#484848" stroke-width="2"><g><path d="M 21.25 25.623749C 21.25 27.694818 22.928932 29.373751 25 29.373751C 27.071068 29.373751 28.75 27.694818 28.75 25.623751C 28.75 23.552683 27.071068 21.873751 25 21.873751C 22.928932 21.873751 21.25 23.552683 21.25 25.623751ZM 30.625 39.375C 30.235001 35.134998 27.83375 31.875 25 31.875C 22.16625 31.875 19.764999 35.134998 19.375 39.375ZM 31.625 31.625C 35.28952 27.965042 35.291981 22.026999 31.630501 18.364C 27.969021 14.701002 22.030979 14.701002 18.369499 18.364C 14.708021 22.026999 14.710484 27.965042 18.375 31.625002M 35.165001 35.16375C 40.778511 29.549864 40.778309 20.448292 35.164547 14.834658C 29.550785 9.221022 20.449215 9.221022 14.835454 14.834658C 9.221693 20.448292 9.22149 29.549864 14.835 35.16375"></path></g></g></g><g id="g-root-tx_domainla_3cxa51somdq9-stroke" data-item-order="1000000000" data-item-id="tx_domainla_3cxa51somdq9" data-item-class="Label Stroke" data-item-index="none" data-renderer-id="0" transform="translate(254, 331.00006103515625)"></g><g id="g-root-lock_1q8tz0d1somebu-stroke" data-item-order="1000000000" data-item-id="lock_1q8tz0d1somebu" data-item-class="Icon Stroke" data-item-index="none" data-renderer-id="0" transform="translate(218, 364.00006103515625)"><g id="lock_1q8tz0d1somebu-stroke" fill="none" stroke-linecap="round" stroke-linejoin="round" stroke-miterlimit="4" stroke="#000000" stroke-width="2"><g><path d="M 25.953749 32.184998L 13.36125 32.184998C 11.918693 32.18362 10.749999 31.013809 10.75 29.571251L 10.75 13.23875C 10.749999 11.796191 11.918693 10.62638 13.36125 10.625L 32.96125 10.625C 34.404297 10.62569 35.573753 11.795704 35.573753 13.23875L 35.57375 21.158751M 10.7475 15.72875L 35.57375 15.72875M 10.7475 26.5725L 25.953749 26.5725M 10.7475 21.158751L 35.57375 21.158751M 20.887501 15.72875L 20.887501 32.184998M 28.157499 15.72875L 28.157499 24.50375M 28.545 31.940001C 28.545 30.913441 29.37719 30.081251 30.403749 30.081251L 37.393753 30.081251C 38.419334 30.082628 39.25 30.914417 39.25 31.940001L 39.25 37.516251C 39.25 38.541836 38.419334 39.373619 37.393749 39.375L 30.403749 39.375C 29.37719 39.375 28.545 38.542809 28.545 37.516251ZM 33.89875 24.5L 33.89875 24.5C 31.886976 24.541687 30.289545 26.2057 30.33 28.217499L 30.33 30.077499L 37.467503 30.077499L 37.467503 28.221249C 37.510056 26.207998 35.912018 24.541676 33.89875 24.5ZM 33.89875 33.42625C 33.349682 33.403801 32.842079 33.717323 32.616337 34.218346C 32.390594 34.719368 32.492027 35.307301 32.872601 35.703716C 33.253178 36.100132 33.836487 36.225449 34.346291 36.020313C 34.856102 35.815178 35.190052 35.320782 35.190002 34.771252C 35.204643 34.043343 34.626644 33.441284 33.89875 33.42625L 33.89875 33.42625"></path></g></g></g><g id="g-root-cu_145hawt1sons3x-stroke" data-item-order="1000000002" data-item-id="cu_145hawt1sons3x" data-item-class="Curve Stroke" data-item-index="none" data-renderer-id="0" transform="translate(129, 123)"><g id="cu_145hawt1sons3x-stroke" fill="none" stroke-linecap="round" stroke-linejoin="round" stroke-miterlimit="4" stroke="#484848" stroke-width="2"><g><path d="M 10 10L 10 32L 10 52"></path><path d="M 3.5 46L 10 52.5L 16.5 46" stroke-dasharray="none"></path></g></g></g><g id="g-root-cu_18lat191sons3k-stroke" data-item-order="1000000002" data-item-id="cu_18lat191sons3k" data-item-class="Curve Stroke" data-item-index="none" data-renderer-id="0" transform="translate(129, 263.00006103515625)"><g id="cu_18lat191sons3k-stroke" fill="none" stroke-linecap="round" stroke-linejoin="round" stroke-miterlimit="4" stroke="#484848" stroke-width="2"><g><path d="M 10 10L 10 24L 10 38L 102.5 38L 195 38L 195 52L 195 64"></path><path d="M 188.5 58L 195 64.5L 201.5 58" stroke-dasharray="none"></path></g></g></g><g id="g-root-cu_zpnssd1sonswb-stroke" data-item-order="1000000002" data-item-id="cu_zpnssd1sonswb" data-item-class="Curve Stroke" data-item-index="none" data-renderer-id="0" transform="translate(314, 263.00006103515625)"><g id="cu_zpnssd1sonswb-stroke" fill="none" stroke-linecap="round" stroke-linejoin="round" stroke-miterlimit="4" stroke="#484848" stroke-width="2"><g><path d="M 178 10L 178 24L 178 38L 94 38L 10 38L 10 52L 10 64"></path><path d="M 3.5 58L 10 64.5L 16.5 58" stroke-dasharray="none"></path></g></g></g></g></g></svg>